<?xml version="1.0" encoding="utf-8"?>
<!-- Generator: Adobe Illustrator 14.0.0, SVG Export Plug-In . SVG Version: 6.00 Build 43363)  -->
<!DOCTYPE svg PUBLIC "-//W3C//DTD SVG 1.1//EN" "http://www.w3.org/Graphics/SVG/1.1/DTD/svg11.dtd">
<svg version="1.1" id="Layer_1" xmlns="http://www.w3.org/2000/svg" xmlns:xlink="http://www.w3.org/1999/xlink" x="0px" y="0px"
	 width="418.778px" height="217px" viewBox="0 0 418.778 217" enable-background="new 0 0 418.778 217" xml:space="preserve">
<circle cx="25.434" cy="194.792" r="3.329"/>
<circle cx="287.338" cy="126.183" r="3.329"/>
<circle cx="378.614" cy="207.343" r="3.329"/>
<circle cx="143.544" cy="100.567" r="3.329"/>
<g>
	<g>
		<line fill="none" stroke="#000000" stroke-width="2.6907" x1="143.75" y1="100.538" x2="275.191" y2="123.759"/>
		<polygon points="284.545,125.411 270.412,128.468 274.492,123.635 272.315,117.698 		"/>
	</g>
</g>
<line fill="none" stroke="#000000" stroke-width="1.4099" stroke-dasharray="5.6396" x1="287.336" y1="126.025" x2="418.778" y2="149.246"/>
<g>
	<g>
		<line fill="none" stroke="#000000" stroke-width="2.6907" x1="287.337" y1="126.023" x2="368.74" y2="199.284"/>
		<polygon points="375.801,205.639 362.192,200.749 368.213,198.81 369.509,192.62 		"/>
	</g>
</g>
<path fill="none" stroke="#000000" stroke-width="2.6907" d="M25.434,194.792"/>
<g>
	<g>
		<line fill="none" stroke="#000000" stroke-width="2.6907" x1="25.434" y1="194.792" x2="133.412" y2="108.772"/>
		<polygon points="140.842,102.854 133.779,115.472 132.856,109.215 126.965,106.917 		"/>
	</g>
</g>
<line fill="none" stroke="#000000" stroke-width="1.4099" stroke-dasharray="5.6396" x1="143.544" y1="100.567" x2="261.86" y2="6.312"/>
<path fill="none" stroke="#000000" stroke-width="1.0763" d="M207.818,111.856c1.169-6.621,1.322-13.536,0.315-20.554
	c-1.71-11.919-6.55-22.618-13.569-31.381"/>
<g>
	<defs>
		<rect id="SVGID_1_" x="2.432" y="168.451" width="23" height="17.8"/>
	</defs>
	<clipPath id="SVGID_2_">
		<use xlink:href="#SVGID_1_"  overflow="visible"/>
	</clipPath>
	<path clip-path="url(#SVGID_2_)" d="M3.595,173.675c1.013-2.899,3.843-2.925,4.129-2.925c3.921,0,4.208,4.521,4.208,6.559
		c0,1.574-0.132,2.014-0.315,2.529c-0.578,1.885-1.365,4.878-1.365,5.549c0,0.283,0.127,0.465,0.329,0.465
		c0.329,0,0.532-0.569,0.811-1.553c0.583-2.173,0.836-3.647,0.938-4.449c0.05-0.336,0.101-0.674,0.203-1.01
		c0.839-2.561,2.518-6.416,3.568-8.46c0.185-0.311,0.498-0.88,0.498-0.982c0-0.259-0.261-0.259-0.313-0.259
		c-0.077,0-0.233,0-0.312,0.181c-1.354,2.457-2.398,5.045-3.44,7.658c-0.026-0.803-0.052-2.769-1.06-5.278
		c-0.62-1.578-1.653-2.85-3.436-2.85c-3.229,0-5.037,3.899-5.037,4.694c0,0.257,0.234,0.257,0.493,0.257"/>
	<path clip-path="url(#SVGID_2_)" d="M21.083,184.051c-0.832,0-1.937-0.489-2.297-1.978c-0.254-1.071-0.254-2.56-0.254-3.902
		c0-1.325,0-2.704,0.271-3.702c0.38-1.434,1.537-1.816,2.279-1.816c0.977,0,1.917,0.601,2.242,1.654
		c0.289,0.979,0.308,2.287,0.308,3.865c0,1.344,0,2.687-0.235,3.83c-0.361,1.652-1.592,2.051-2.314,2.051 M25.232,178.406
		c0-1.994-0.232-3.426-1.056-4.695c-0.555-0.834-1.663-1.56-3.096-1.56c-4.149,0-4.149,4.95-4.149,6.255s0,6.145,4.149,6.145
		C25.232,184.551,25.232,179.711,25.232,178.406z"/>
</g>
<g>
	<defs>
		<rect id="SVGID_3_" x="119.216" y="76.988" width="23" height="17.8"/>
	</defs>
	<clipPath id="SVGID_4_">
		<use xlink:href="#SVGID_3_"  overflow="visible"/>
	</clipPath>
	<path clip-path="url(#SVGID_4_)" d="M120.379,82.212c1.013-2.899,3.843-2.925,4.129-2.925c3.921,0,4.208,4.521,4.208,6.559
		c0,1.574-0.132,2.014-0.315,2.529c-0.578,1.885-1.365,4.878-1.365,5.549c0,0.283,0.127,0.465,0.329,0.465
		c0.329,0,0.532-0.569,0.811-1.553c0.583-2.173,0.836-3.647,0.938-4.449c0.05-0.336,0.101-0.674,0.203-1.01
		c0.839-2.561,2.518-6.416,3.568-8.46c0.185-0.311,0.498-0.88,0.498-0.982c0-0.259-0.261-0.259-0.313-0.259
		c-0.077,0-0.233,0-0.312,0.181c-1.354,2.457-2.398,5.045-3.44,7.658c-0.026-0.803-0.052-2.769-1.06-5.278
		c-0.62-1.578-1.653-2.85-3.436-2.85c-3.229,0-5.037,3.899-5.037,4.694c0,0.257,0.234,0.257,0.493,0.257"/>
	<path clip-path="url(#SVGID_4_)" d="M138.716,81.194c0-0.486-0.036-0.506-0.535-0.506c-1.139,1.083-2.759,1.1-3.488,1.1v0.7
		c0.434,0,1.627,0,2.622-0.534v9.204c0,0.595,0,0.83-1.809,0.83h-0.687v0.7c0.326-0.019,2.557-0.073,3.228-0.073
		c0.562,0,2.846,0.055,3.246,0.073v-0.7h-0.71c-1.867,0-1.867-0.234-1.867-0.828"/>
</g>
<g>
	<defs>
		<rect id="SVGID_5_" x="279.166" y="99.953" width="23" height="17.8"/>
	</defs>
	<clipPath id="SVGID_6_">
		<use xlink:href="#SVGID_5_"  overflow="visible"/>
	</clipPath>
	<path clip-path="url(#SVGID_6_)" d="M280.329,105.177c1.014-2.899,3.843-2.925,4.129-2.925c3.921,0,4.208,4.521,4.208,6.559
		c0,1.574-0.132,2.014-0.314,2.529c-0.578,1.885-1.365,4.878-1.365,5.549c0,0.283,0.127,0.465,0.329,0.465
		c0.329,0,0.531-0.569,0.811-1.553c0.583-2.173,0.836-3.647,0.938-4.449c0.05-0.336,0.101-0.674,0.203-1.01
		c0.839-2.561,2.518-6.416,3.567-8.46c0.185-0.311,0.498-0.88,0.498-0.982c0-0.259-0.261-0.259-0.313-0.259
		c-0.077,0-0.233,0-0.312,0.181c-1.354,2.457-2.397,5.045-3.439,7.658c-0.026-0.803-0.053-2.769-1.061-5.278
		c-0.62-1.578-1.652-2.85-3.436-2.85c-3.229,0-5.037,3.899-5.037,4.694c0,0.257,0.234,0.257,0.493,0.257"/>
	<path clip-path="url(#SVGID_6_)" d="M301.766,112.354h-0.611c-0.055,0.408-0.234,1.503-0.467,1.688
		c-0.145,0.111-1.527,0.111-1.779,0.111h-3.305c1.886-1.687,2.515-2.194,3.593-3.046c1.329-1.07,2.569-2.194,2.569-3.917
		c0-2.194-1.895-3.537-4.183-3.537c-2.216,0-3.718,1.556-3.718,3.2c0,0.91,0.771,1.001,0.949,1.001c0.431,0,0.95-0.306,0.95-0.95
		c0-0.323-0.131-0.95-1.104-0.95c0.562-1.221,1.795-1.6,2.648-1.6c1.812,0,2.756,1.404,2.756,2.861c0,1.565-1.113,2.808-1.689,3.454
		l-4.331,4.282c-0.18,0.162-0.18,0.198-0.18,0.702h7.364"/>
</g>
<path fill="none" stroke="#000000" stroke-width="1.0763" d="M329.825,164.264c7.018-7.791,11.922-17.522,13.812-28.292"/>
<g>
	<defs>
		<rect id="SVGID_7_" x="383.098" y="195.566" width="23" height="17.8"/>
	</defs>
	<clipPath id="SVGID_8_">
		<use xlink:href="#SVGID_7_"  overflow="visible"/>
	</clipPath>
	<path clip-path="url(#SVGID_8_)" d="M384.261,200.79c1.013-2.899,3.843-2.925,4.129-2.925c3.921,0,4.208,4.521,4.208,6.559
		c0,1.574-0.132,2.014-0.314,2.529c-0.578,1.885-1.365,4.878-1.365,5.549c0,0.283,0.127,0.465,0.328,0.465
		c0.33,0,0.532-0.569,0.812-1.553c0.583-2.173,0.836-3.647,0.938-4.449c0.05-0.336,0.101-0.674,0.203-1.01
		c0.838-2.561,2.518-6.416,3.567-8.46c0.185-0.311,0.498-0.88,0.498-0.982c0-0.259-0.261-0.259-0.313-0.259
		c-0.077,0-0.233,0-0.312,0.181c-1.354,2.457-2.397,5.045-3.44,7.658c-0.025-0.803-0.052-2.769-1.06-5.278
		c-0.62-1.578-1.653-2.85-3.437-2.85c-3.229,0-5.036,3.899-5.036,4.694c0,0.257,0.233,0.257,0.493,0.257"/>
	<path clip-path="url(#SVGID_8_)" d="M401.558,205.166c1.42,0,2.44,0.989,2.44,2.95c0,2.272-1.311,2.95-2.365,2.95
		c-0.728,0-2.328-0.204-3.092-1.299c0.854-0.036,1.055-0.63,1.055-1.009c0-0.577-0.436-0.991-1-0.991
		c-0.509,0-1.018,0.312-1.018,1.062c0,1.722,1.881,2.837,4.069,2.837c2.515,0,4.252-1.686,4.252-3.498
		c0-1.414-1.165-2.828-3.165-3.244c1.909-0.689,2.601-2.049,2.601-3.154c0-1.432-1.655-2.502-3.673-2.502
		c-2.019,0-3.563,0.981-3.563,2.436c0,0.618,0.406,0.963,0.959,0.963c0.572,0,0.941-0.424,0.941-0.94
		c0-0.535-0.359-0.923-0.916-0.96c0.638-0.799,1.894-0.999,2.566-0.999c0.82,0,1.966,0.395,1.966,1.95
		c0,0.751-0.255,1.572-0.728,2.128c-0.601,0.679-1.111,0.715-2.021,0.769c-0.455,0.036-0.492,0.036-0.584,0.055
		c-0.035,0-0.182,0.036-0.182,0.24c0,0.26,0.164,0.26,0.473,0.26"/>
</g>
<g>
	<defs>
		<rect id="SVGID_9_" x="81.871" y="155.539" width="40" height="26"/>
	</defs>
	<clipPath id="SVGID_10_">
		<use xlink:href="#SVGID_9_"  overflow="visible"/>
	</clipPath>
	<path clip-path="url(#SVGID_10_)" d="M92.732,157.848c0.181-0.724,0.285-0.879,0.596-0.955c0.232-0.053,1.088-0.053,1.632-0.053
		c2.616,0,3.782,0.104,3.782,2.11c0,0.386-0.104,1.389-0.207,2.058c-0.026,0.104-0.077,0.412-0.077,0.489
		c0,0.155,0.077,0.334,0.312,0.334c0.284,0,0.337-0.207,0.389-0.596l0.699-4.507c0.025-0.104,0.052-0.363,0.052-0.44
		c0-0.285-0.259-0.285-0.699-0.285H84.834c-0.622,0-0.648,0.026-0.829,0.519l-1.554,4.559c-0.026,0.052-0.155,0.414-0.155,0.466
		c0,0.155,0.13,0.285,0.312,0.285c0.259,0,0.285-0.129,0.439-0.54c1.399-3.988,2.072-4.451,5.906-4.451h1.011
		c0.726,0,0.726,0.104,0.726,0.312c0,0.155-0.078,0.466-0.104,0.543l-3.471,13.805c-0.233,0.957-0.312,1.241-3.082,1.241
		c-0.933,0-1.088,0-1.088,0.49c0,0.309,0.284,0.309,0.44,0.309c0.699,0,1.426-0.052,2.124-0.052h4.353
		c0.751,0,1.529,0.052,2.254,0.052c0.259,0,0.57,0,0.57-0.516c0-0.284-0.207-0.284-0.881-0.284c-0.647,0-0.983,0-1.657-0.052
		c-0.751-0.077-0.959-0.155-0.959-0.569c0-0.026,0-0.155,0.104-0.543"/>
	<path clip-path="url(#SVGID_10_)" d="M101.921,177.339c-0.832,0-1.936-0.489-2.297-1.978c-0.253-1.071-0.253-2.56-0.253-3.902
		c0-1.325,0-2.704,0.271-3.702c0.38-1.434,1.536-1.816,2.278-1.816c0.978,0,1.917,0.601,2.243,1.653
		c0.289,0.98,0.307,2.287,0.307,3.866c0,1.343,0,2.687-0.234,3.83c-0.362,1.652-1.592,2.051-2.315,2.051 M106.071,171.694
		c0-1.994-0.233-3.427-1.056-4.695c-0.555-0.834-1.664-1.56-3.096-1.56c-4.15,0-4.15,4.949-4.15,6.255c0,1.305,0,6.145,4.15,6.145
		C106.071,177.839,106.071,172.999,106.071,171.694z"/>
	<path clip-path="url(#SVGID_10_)" d="M110.871,177.149c0,0.997-0.179,2.159-1.39,3.318c-0.071,0.073-0.125,0.127-0.125,0.218
		c0,0.127,0.143,0.255,0.25,0.255c0.25,0,1.766-1.454,1.766-3.618c0-1.127-0.429-1.983-1.251-1.983c-0.59,0-1.018,0.476-1.018,1.041
		c0,0.584,0.41,1.06,1.035,1.06C110.568,177.439,110.854,177.149,110.871,177.149"/>
	<path clip-path="url(#SVGID_10_)" d="M119.271,165.945c0-0.486-0.036-0.506-0.535-0.506c-1.139,1.082-2.76,1.1-3.489,1.1v0.7
		c0.435,0,1.628,0,2.623-0.534v9.204c0,0.595,0,0.83-1.81,0.83h-0.687v0.7c0.327-0.019,2.558-0.073,3.228-0.073
		c0.562,0,2.847,0.055,3.246,0.073v-0.7h-0.709c-1.867,0-1.867-0.234-1.867-0.828"/>
</g>
<g>
	<defs>
		<rect id="SVGID_11_" x="189.955" y="119.512" width="41" height="26"/>
	</defs>
	<clipPath id="SVGID_12_">
		<use xlink:href="#SVGID_11_"  overflow="visible"/>
	</clipPath>
	<path clip-path="url(#SVGID_12_)" d="M200.816,121.82c0.181-0.724,0.285-0.879,0.596-0.955c0.232-0.053,1.088-0.053,1.632-0.053
		c2.616,0,3.782,0.104,3.782,2.11c0,0.386-0.104,1.389-0.207,2.058c-0.026,0.104-0.077,0.412-0.077,0.489
		c0,0.155,0.077,0.334,0.312,0.334c0.284,0,0.337-0.207,0.389-0.596l0.699-4.507c0.025-0.104,0.052-0.363,0.052-0.44
		c0-0.285-0.259-0.285-0.699-0.285h-14.376c-0.622,0-0.648,0.026-0.829,0.519l-1.554,4.559c-0.026,0.052-0.155,0.414-0.155,0.466
		c0,0.155,0.13,0.285,0.312,0.285c0.259,0,0.285-0.129,0.439-0.54c1.399-3.988,2.072-4.451,5.906-4.451h1.011
		c0.726,0,0.726,0.104,0.726,0.312c0,0.155-0.078,0.466-0.104,0.543l-3.471,13.805c-0.233,0.957-0.312,1.241-3.082,1.241
		c-0.933,0-1.088,0-1.088,0.49c0,0.309,0.284,0.309,0.44,0.309c0.699,0,1.426-0.052,2.124-0.052h4.353
		c0.751,0,1.529,0.052,2.254,0.052c0.259,0,0.57,0,0.57-0.516c0-0.284-0.207-0.284-0.881-0.284c-0.647,0-0.983,0-1.657-0.052
		c-0.751-0.077-0.959-0.155-0.959-0.569c0-0.026,0-0.155,0.104-0.543"/>
	<path clip-path="url(#SVGID_12_)" d="M210.855,129.918c0-0.486-0.036-0.506-0.535-0.506c-1.139,1.082-2.76,1.1-3.489,1.1v0.7
		c0.435,0,1.628,0,2.623-0.534v9.204c0,0.595,0,0.83-1.81,0.83h-0.687v0.7c0.327-0.019,2.558-0.073,3.228-0.073
		c0.562,0,2.847,0.055,3.246,0.073v-0.7h-0.709c-1.867,0-1.867-0.234-1.867-0.828"/>
	<path clip-path="url(#SVGID_12_)" d="M218.955,141.122c0,0.997-0.179,2.159-1.39,3.318c-0.071,0.073-0.125,0.127-0.125,0.218
		c0,0.127,0.143,0.255,0.25,0.255c0.25,0,1.766-1.454,1.766-3.618c0-1.127-0.429-1.983-1.251-1.983c-0.59,0-1.018,0.476-1.018,1.041
		c0,0.584,0.41,1.06,1.035,1.06C218.652,141.412,218.938,141.122,218.955,141.122"/>
	<path clip-path="url(#SVGID_12_)" d="M230.455,138.111h-0.612c-0.054,0.409-0.233,1.504-0.467,1.689
		c-0.144,0.111-1.526,0.111-1.778,0.111h-3.306c1.886-1.687,2.515-2.194,3.593-3.047c1.329-1.069,2.57-2.193,2.57-3.916
		c0-2.194-1.895-3.537-4.183-3.537c-2.216,0-3.719,1.556-3.719,3.199c0,0.911,0.771,1.002,0.95,1.002c0.43,0,0.95-0.306,0.95-0.95
		c0-0.323-0.131-0.95-1.104-0.95c0.562-1.221,1.795-1.6,2.647-1.6c1.813,0,2.757,1.404,2.757,2.861c0,1.565-1.113,2.807-1.689,3.454
		l-4.331,4.282c-0.181,0.162-0.181,0.197-0.181,0.702h7.364"/>
</g>
<g>
	<defs>
		<rect id="SVGID_13_" x="289.032" y="162.544" width="41" height="26"/>
	</defs>
	<clipPath id="SVGID_14_">
		<use xlink:href="#SVGID_13_"  overflow="visible"/>
	</clipPath>
	<path clip-path="url(#SVGID_14_)" d="M299.894,164.853c0.181-0.724,0.285-0.879,0.596-0.955c0.232-0.053,1.088-0.053,1.632-0.053
		c2.616,0,3.782,0.104,3.782,2.11c0,0.386-0.104,1.389-0.207,2.058c-0.026,0.104-0.077,0.412-0.077,0.489
		c0,0.155,0.077,0.334,0.312,0.334c0.284,0,0.337-0.207,0.389-0.596l0.699-4.507c0.025-0.104,0.052-0.363,0.052-0.44
		c0-0.285-0.259-0.285-0.699-0.285h-14.376c-0.622,0-0.648,0.026-0.829,0.519l-1.554,4.559c-0.026,0.052-0.155,0.414-0.155,0.466
		c0,0.155,0.13,0.285,0.312,0.285c0.259,0,0.285-0.129,0.439-0.54c1.399-3.988,2.072-4.451,5.906-4.451h1.011
		c0.726,0,0.726,0.104,0.726,0.312c0,0.155-0.078,0.466-0.104,0.543l-3.471,13.805c-0.233,0.957-0.312,1.241-3.082,1.241
		c-0.933,0-1.088,0-1.088,0.49c0,0.309,0.284,0.309,0.44,0.309c0.699,0,1.426-0.052,2.124-0.052h4.353
		c0.751,0,1.529,0.052,2.254,0.052c0.259,0,0.57,0,0.57-0.516c0-0.284-0.207-0.284-0.881-0.284c-0.647,0-0.983,0-1.657-0.052
		c-0.751-0.077-0.959-0.155-0.959-0.569c0-0.026,0-0.155,0.104-0.543"/>
	<path clip-path="url(#SVGID_14_)" d="M313.032,181.144h-0.612c-0.054,0.409-0.233,1.504-0.467,1.689
		c-0.144,0.111-1.526,0.111-1.778,0.111h-3.306c1.886-1.687,2.515-2.194,3.593-3.047c1.329-1.069,2.57-2.193,2.57-3.916
		c0-2.194-1.895-3.537-4.183-3.537c-2.216,0-3.719,1.556-3.719,3.199c0,0.911,0.771,1.002,0.95,1.002c0.43,0,0.95-0.306,0.95-0.95
		c0-0.323-0.131-0.95-1.104-0.95c0.562-1.221,1.795-1.6,2.647-1.6c1.813,0,2.757,1.404,2.757,2.861c0,1.565-1.113,2.807-1.689,3.454
		l-4.331,4.282c-0.181,0.162-0.181,0.197-0.181,0.702h7.364"/>
	<path clip-path="url(#SVGID_14_)" d="M318.032,184.154c0,0.997-0.179,2.159-1.39,3.318c-0.071,0.073-0.125,0.127-0.125,0.218
		c0,0.127,0.143,0.255,0.25,0.255c0.25,0,1.766-1.454,1.766-3.618c0-1.127-0.429-1.983-1.251-1.983c-0.59,0-1.018,0.476-1.018,1.041
		c0,0.584,0.41,1.06,1.035,1.06C317.729,184.444,318.015,184.154,318.032,184.154"/>
	<path clip-path="url(#SVGID_14_)" d="M325.393,178.344c1.42,0,2.439,0.989,2.439,2.95c0,2.271-1.31,2.95-2.364,2.95
		c-0.728,0-2.328-0.204-3.093-1.299c0.855-0.036,1.056-0.63,1.056-1.009c0-0.578-0.437-0.991-1-0.991
		c-0.51,0-1.019,0.312-1.019,1.062c0,1.721,1.881,2.837,4.07,2.837c2.514,0,4.252-1.686,4.252-3.498
		c0-1.414-1.165-2.828-3.165-3.245c1.909-0.688,2.6-2.048,2.6-3.153c0-1.433-1.654-2.502-3.673-2.502
		c-2.018,0-3.562,0.981-3.562,2.436c0,0.618,0.405,0.963,0.959,0.963c0.571,0,0.94-0.424,0.94-0.94c0-0.535-0.358-0.924-0.916-0.961
		c0.639-0.799,1.895-0.998,2.567-0.998c0.819,0,1.966,0.395,1.966,1.949c0,0.752-0.255,1.573-0.729,2.129
		c-0.601,0.679-1.11,0.715-2.021,0.769c-0.455,0.036-0.492,0.036-0.583,0.054c-0.036,0-0.182,0.037-0.182,0.241
		c0,0.259,0.164,0.259,0.473,0.259"/>
</g>
<g>
	<defs>
		<rect id="SVGID_15_" x="214.968" y="75.474" width="25" height="17.8"/>
	</defs>
	<clipPath id="SVGID_16_">
		<use xlink:href="#SVGID_15_"  overflow="visible"/>
	</clipPath>
	<path clip-path="url(#SVGID_16_)" d="M222.245,86.073c-0.207,0-0.26,0-0.467,0c-0.311,0-0.336-0.025-0.336-0.104
		c0-0.052,0.44-2.408,0.519-2.796c0.802-3.314,2.819-5.802,5.122-5.802c1.785,0,2.486,1.396,2.486,2.635
		C229.569,82.924,226.229,86.072,222.245,86.073 M218.668,91.638c-0.104,0.335-0.129,0.386-0.129,0.515
		c0,0.566,0.491,0.722,0.749,0.722c0.129,0,0.697-0.077,0.956-0.668c0.077-0.205,0.206-1.054,0.903-4.699
		c0.232,0.033,0.413,0.065,0.853,0.065c4.288,0,8.268-4.055,8.268-8.136c0-2.014-1.006-3.564-2.939-3.564
		c-3.739,0-5.286,4.998-6.832,10.021c-2.785-0.515-4.229-1.957-4.229-3.812c0-0.722,0.588-3.555,2.121-5.332
		c0.205-0.232,0.205-0.283,0.205-0.336c0-0.103-0.052-0.258-0.311-0.258c-0.725,0-2.716,3.735-2.716,6.208
		c0,2.421,1.705,4.303,4.47,4.945L218.668,91.638z"/>
	<path clip-path="url(#SVGID_16_)" d="M237.168,79.68c0-0.486-0.036-0.506-0.535-0.506c-1.139,1.083-2.759,1.1-3.489,1.1v0.7
		c0.435,0,1.628,0,2.623-0.534v9.204c0,0.595,0,0.83-1.809,0.83h-0.688v0.7c0.327-0.019,2.558-0.073,3.229-0.073
		c0.562,0,2.846,0.055,3.246,0.073v-0.7h-0.71c-1.867,0-1.867-0.234-1.867-0.828"/>
</g>
<g>
	<defs>
		<rect id="SVGID_17_" x="344.068" y="148.531" width="26" height="17.8"/>
	</defs>
	<clipPath id="SVGID_18_">
		<use xlink:href="#SVGID_17_"  overflow="visible"/>
	</clipPath>
	<path clip-path="url(#SVGID_18_)" d="M351.346,159.131c-0.207,0-0.26,0-0.467,0c-0.311,0-0.336-0.025-0.336-0.104
		c0-0.052,0.44-2.408,0.519-2.796c0.802-3.314,2.819-5.802,5.122-5.802c1.785,0,2.486,1.396,2.486,2.635
		C358.67,155.981,355.33,159.13,351.346,159.131 M347.769,164.695c-0.104,0.335-0.129,0.386-0.129,0.515
		c0,0.566,0.491,0.722,0.749,0.722c0.129,0,0.697-0.077,0.956-0.668c0.077-0.205,0.206-1.054,0.903-4.699
		c0.232,0.033,0.413,0.065,0.853,0.065c4.288,0,8.268-4.055,8.268-8.136c0-2.014-1.006-3.564-2.939-3.564
		c-3.739,0-5.286,4.998-6.832,10.021c-2.785-0.515-4.229-1.957-4.229-3.812c0-0.722,0.588-3.555,2.121-5.332
		c0.205-0.232,0.205-0.283,0.205-0.336c0-0.103-0.052-0.258-0.311-0.258c-0.725,0-2.716,3.735-2.716,6.208
		c0,2.421,1.705,4.303,4.47,4.945L347.769,164.695z"/>
	<path clip-path="url(#SVGID_18_)" d="M369.368,160.932h-0.612c-0.054,0.408-0.233,1.503-0.467,1.688
		c-0.144,0.111-1.526,0.111-1.778,0.111h-3.306c1.887-1.687,2.516-2.194,3.594-3.046c1.328-1.07,2.569-2.194,2.569-3.917
		c0-2.194-1.895-3.537-4.183-3.537c-2.216,0-3.719,1.556-3.719,3.2c0,0.91,0.771,1.001,0.95,1.001c0.431,0,0.95-0.306,0.95-0.95
		c0-0.323-0.131-0.95-1.104-0.95c0.562-1.221,1.795-1.6,2.647-1.6c1.813,0,2.757,1.404,2.757,2.861c0,1.565-1.113,2.808-1.689,3.454
		l-4.331,4.282c-0.18,0.162-0.18,0.198-0.18,0.702h7.363"/>
</g>
</svg>
