<?xml version="1.0" encoding="utf-8"?>
<!-- Generator: Adobe Illustrator 14.0.0, SVG Export Plug-In . SVG Version: 6.00 Build 43363)  -->
<!DOCTYPE svg PUBLIC "-//W3C//DTD SVG 1.1//EN" "http://www.w3.org/Graphics/SVG/1.1/DTD/svg11.dtd">
<svg version="1.1" id="Layer_1" xmlns="http://www.w3.org/2000/svg" xmlns:xlink="http://www.w3.org/1999/xlink" x="0px" y="0px"
	 width="612px" height="475px" viewBox="0 0 612 475" enable-background="new 0 0 612 475" xml:space="preserve">
<g>
	<defs>
		<rect id="SVGID_1_" x="9" y="-6" width="291" height="490"/>
	</defs>
	<clipPath id="SVGID_2_">
		<use xlink:href="#SVGID_1_"  overflow="visible"/>
	</clipPath>
	<g clip-path="url(#SVGID_2_)">
		
			<radialGradient id="SVGID_3_" cx="110.4561" cy="1942.4668" r="212.7" gradientTransform="matrix(0.9779 0.209 0.1881 -0.8801 -362.8693 1881.376)" gradientUnits="userSpaceOnUse">
			<stop  offset="0" style="stop-color:#FFFFFF"/>
			<stop  offset="0.157" style="stop-color:#F7F7FB"/>
			<stop  offset="0.3313" style="stop-color:#E8E8F4"/>
			<stop  offset="0.4013" style="stop-color:#D3D4EA"/>
			<stop  offset="0.6041" style="stop-color:#9B9FD0"/>
			<stop  offset="0.7787" style="stop-color:#7378BD"/>
			<stop  offset="0.9164" style="stop-color:#5A60B1"/>
			<stop  offset="1" style="stop-color:#5157AD"/>
		</radialGradient>
		<rect x="-90.234" y="3" fill="url(#SVGID_3_)" enable-background="new    " width="566.149" height="469.297"/>
		
			<radialGradient id="SVGID_4_" cx="268.6816" cy="1866.0205" r="404.9137" gradientTransform="matrix(-0.7071 0.7071 0.601 0.601 -662.8861 -1040.2644)" gradientUnits="userSpaceOnUse">
			<stop  offset="0.0429" style="stop-color:#000000"/>
			<stop  offset="0.1029" style="stop-color:#212228"/>
			<stop  offset="0.2357" style="stop-color:#67687A"/>
			<stop  offset="0.3447" style="stop-color:#9A9BB7"/>
			<stop  offset="0.4244" style="stop-color:#B9BBDD"/>
			<stop  offset="0.4663" style="stop-color:#C5C7EB"/>
			<stop  offset="0.7546" style="stop-color:#FFFFFF"/>
		</radialGradient>
		<rect x="-90.234" y="3" opacity="0.5" fill="url(#SVGID_4_)" enable-background="new    " width="566.149" height="469.297"/>
		<circle fill="#231F20" cx="84" cy="181" r="4.8"/>
		<g>
			<g>
				<line fill="none" stroke="#000000" stroke-width="3" x1="84" y1="181" x2="112" y2="227.333"/>
				<polygon points="117.478,236.397 104.54,226.777 111.59,226.655 114.977,220.471 				"/>
			</g>
		</g>
		<g opacity="0.25">
			<g>
				<g>
					<line fill="none" stroke="#231F20" stroke-width="3" x1="84" y1="181" x2="85.096" y2="235.126"/>
					<polygon fill="#231F20" points="85.31,245.715 78.912,230.917 85.08,234.334 91.104,230.67 					"/>
				</g>
			</g>
			<g>
				<g>
					<line fill="none" stroke="#231F20" stroke-width="3" x1="84" y1="181" x2="57.897" y2="228.43"/>
					<polygon fill="#231F20" points="52.791,237.708 54.645,221.693 58.279,227.736 65.328,227.572 					"/>
				</g>
			</g>
			<g>
				<g>
					<line fill="none" stroke="#231F20" stroke-width="3" x1="84" y1="181" x2="37.687" y2="209.036"/>
					<polygon fill="#231F20" points="28.626,214.521 38.236,201.576 38.364,208.626 44.551,212.007 					"/>
				</g>
			</g>
			<g>
				<g>
					<line fill="none" stroke="#231F20" stroke-width="3" x1="84" y1="181" x2="29.873" y2="182.137"/>
					<polygon fill="#231F20" points="19.285,182.359 34.078,175.95 30.665,182.12 34.334,188.141 					"/>
				</g>
			</g>
			<g>
				<g>
					<line fill="none" stroke="#231F20" stroke-width="3" x1="84" y1="181" x2="36.55" y2="154.934"/>
					<polygon fill="#231F20" points="27.268,149.834 43.284,151.676 37.244,155.315 37.413,162.364 					"/>
				</g>
			</g>
			<g>
				<g>
					<line fill="none" stroke="#231F20" stroke-width="3" x1="84" y1="181" x2="55.929" y2="134.708"/>
					<polygon fill="#231F20" points="50.438,125.652 63.39,135.252 56.339,135.385 52.963,141.575 					"/>
				</g>
			</g>
			<g>
				<g>
					<line fill="none" stroke="#231F20" stroke-width="3" x1="84" y1="181" x2="82.822" y2="126.875"/>
					<polygon fill="#231F20" points="82.592,116.287 89.013,131.075 82.839,127.667 76.821,131.34 					"/>
				</g>
			</g>
			<g>
				<g>
					<line fill="none" stroke="#231F20" stroke-width="3" x1="84" y1="181" x2="110.03" y2="133.531"/>
					<polygon fill="#231F20" points="115.123,124.245 113.293,140.263 109.649,134.226 102.601,134.4 					"/>
				</g>
			</g>
			<g>
				<g>
					<line fill="none" stroke="#231F20" stroke-width="3" x1="84" y1="181" x2="130.27" y2="152.895"/>
					<polygon fill="#231F20" points="139.322,147.396 129.731,160.355 129.593,153.306 123.401,149.934 					"/>
				</g>
			</g>
			<g>
				<g>
					<line fill="none" stroke="#231F20" stroke-width="3" x1="84" y1="181" x2="138.123" y2="179.782"/>
					<polygon fill="#231F20" points="148.711,179.544 133.928,185.976 137.332,179.8 133.653,173.785 					"/>
				</g>
			</g>
			<g>
				<g>
					<line fill="none" stroke="#231F20" stroke-width="3" x1="84" y1="181" x2="131.487" y2="206.995"/>
					<polygon fill="#231F20" points="140.777,212.081 124.758,210.263 130.793,206.615 130.613,199.566 					"/>
				</g>
			</g>
		</g>
		<g>
			<defs>
				<rect id="SVGID_5_" x="121.586" y="218" width="44" height="21"/>
			</defs>
			<clipPath id="SVGID_6_">
				<use xlink:href="#SVGID_5_"  overflow="visible"/>
			</clipPath>
			<path clip-path="url(#SVGID_6_)" d="M125.728,220.401h15.343l-7.643,15.397H133.4 M142.744,218.96
				c0.139-0.252,0.139-0.307,0.139-0.335c0-0.225-0.167-0.225-0.614-0.225H122.91c-0.446,0-0.614,0-0.614,0.225
				c0,0.028,0,0.084,0.139,0.335l9.43,18.936c0.195,0.363,0.25,0.504,0.725,0.504s0.53-0.14,0.725-0.504L142.744,218.96z"/>
			<path clip-path="url(#SVGID_6_)" d="M163.936,231c0.055-0.139,0.139-0.335,0.139-0.391c0-0.028,0-0.308-0.335-0.308
				c-0.25,0-0.307,0.166-0.363,0.333c-1.813,4.106-2.845,5.964-7.615,5.964h-4.073c-0.391,0-0.446,0-0.614,0
				c-0.279-0.027-0.363-0.055-0.363-0.276c0-0.084,0-0.14,0.139-0.64l1.897-7.583h2.762c2.371,0,2.371,0.581,2.371,1.272
				c0,0.194,0,0.524-0.195,1.354c-0.055,0.139-0.084,0.222-0.084,0.305c0,0.138,0.112,0.304,0.363,0.304
				c0.223,0,0.307-0.139,0.419-0.558l1.59-6.528c0-0.167-0.139-0.307-0.334-0.307c-0.251,0-0.307,0.167-0.391,0.501
				c-0.586,2.114-1.088,2.755-3.654,2.755h-2.622l1.673-6.713c0.251-0.976,0.279-1.087,1.507-1.087h3.933
				c3.403,0,4.24,0.809,4.24,3.095c0,0.669,0,0.725-0.111,1.477c0,0.167-0.028,0.362-0.028,0.502s0.084,0.335,0.335,0.335
				c0.307,0,0.335-0.168,0.391-0.697l0.558-4.826c0.084-0.753-0.056-0.753-0.753-0.753H150.63c-0.558,0-0.837,0-0.837,0.56
				c0,0.309,0.251,0.309,0.781,0.309c1.032,0,1.813,0,1.813,0.504c0,0.11,0,0.167-0.139,0.668l-3.682,14.721
				c-0.279,1.085-0.335,1.308-2.539,1.308c-0.474,0-0.781,0-0.781,0.553c0,0.348,0.251,0.348,0.781,0.348h14.478
				c0.641,0,0.67-0.028,0.865-0.474"/>
		</g>
		<path fill="none" stroke="#000000" stroke-dasharray="8" d="M84,181c0,0,29.983,61.436,68.496,82.218S268.334,274,268.334,274"/>
		<circle opacity="0.25" fill="none" stroke="#000000" cx="84" cy="181" r="65.333"/>
	</g>
</g>
<g>
	<defs>
		<rect id="SVGID_7_" x="314" y="-6" width="291" height="490"/>
	</defs>
	<clipPath id="SVGID_8_">
		<use xlink:href="#SVGID_7_"  overflow="visible"/>
	</clipPath>
	
		<radialGradient id="SVGID_9_" cx="415.4561" cy="1942.4668" r="212.7" gradientTransform="matrix(0.9779 0.209 0.1881 -0.8801 -356.1362 1817.6433)" gradientUnits="userSpaceOnUse">
		<stop  offset="0" style="stop-color:#FFFFFF"/>
		<stop  offset="0.157" style="stop-color:#F7F7FB"/>
		<stop  offset="0.3313" style="stop-color:#E8E8F4"/>
		<stop  offset="0.4013" style="stop-color:#D3D4EA"/>
		<stop  offset="0.6041" style="stop-color:#9B9FD0"/>
		<stop  offset="0.7787" style="stop-color:#7378BD"/>
		<stop  offset="0.9164" style="stop-color:#5A60B1"/>
		<stop  offset="1" style="stop-color:#5157AD"/>
	</radialGradient>
	
		<rect x="214.766" y="3" clip-path="url(#SVGID_8_)" fill="url(#SVGID_9_)" enable-background="new    " width="566.149" height="469.297"/>
	
		<radialGradient id="SVGID_10_" cx="573.6816" cy="1866.0205" r="404.9137" gradientTransform="matrix(-0.7071 0.7071 0.601 0.601 -142.2185 -1255.9321)" gradientUnits="userSpaceOnUse">
		<stop  offset="0.0429" style="stop-color:#000000"/>
		<stop  offset="0.1029" style="stop-color:#212228"/>
		<stop  offset="0.2357" style="stop-color:#67687A"/>
		<stop  offset="0.3447" style="stop-color:#9A9BB7"/>
		<stop  offset="0.4244" style="stop-color:#B9BBDD"/>
		<stop  offset="0.4663" style="stop-color:#C5C7EB"/>
		<stop  offset="0.7546" style="stop-color:#FFFFFF"/>
	</radialGradient>
	
		<rect x="214.766" y="3" opacity="0.5" clip-path="url(#SVGID_8_)" fill="url(#SVGID_10_)" enable-background="new    " width="566.149" height="469.297"/>
	<circle clip-path="url(#SVGID_8_)" cx="389" cy="181" r="4.8"/>
	<g clip-path="url(#SVGID_8_)">
		<defs>
			<rect id="SVGID_11_" x="410.572" y="202.987" width="44" height="21"/>
		</defs>
		<clipPath id="SVGID_12_">
			<use xlink:href="#SVGID_11_"  overflow="visible"/>
		</clipPath>
		<path clip-path="url(#SVGID_12_)" d="M414.715,205.388h15.343l-7.644,15.397h-0.027 M431.73,203.948
			c0.139-0.252,0.139-0.307,0.139-0.335c0-0.225-0.167-0.225-0.614-0.225h-19.358c-0.446,0-0.614,0-0.614,0.225
			c0,0.028,0,0.084,0.139,0.335l9.43,18.936c0.194,0.363,0.251,0.504,0.725,0.504s0.53-0.14,0.726-0.504L431.73,203.948z"/>
		<path clip-path="url(#SVGID_12_)" d="M452.922,215.987c0.056-0.139,0.14-0.335,0.14-0.391c0-0.028,0-0.308-0.335-0.308
			c-0.251,0-0.308,0.166-0.363,0.333c-1.812,4.106-2.845,5.964-7.615,5.964h-4.072c-0.392,0-0.446,0-0.614,0
			c-0.279-0.027-0.363-0.055-0.363-0.276c0-0.084,0-0.14,0.139-0.64l1.897-7.583h2.762c2.371,0,2.371,0.581,2.371,1.272
			c0,0.194,0,0.524-0.195,1.354c-0.055,0.139-0.084,0.222-0.084,0.305c0,0.138,0.112,0.304,0.363,0.304
			c0.223,0,0.307-0.139,0.419-0.558l1.59-6.528c0-0.167-0.139-0.307-0.335-0.307c-0.251,0-0.307,0.167-0.391,0.501
			c-0.586,2.114-1.088,2.755-3.654,2.755h-2.622l1.673-6.713c0.252-0.976,0.279-1.087,1.508-1.087h3.933
			c3.403,0,4.24,0.809,4.24,3.095c0,0.669,0,0.725-0.111,1.477c0,0.167-0.028,0.362-0.028,0.502s0.084,0.335,0.336,0.335
			c0.307,0,0.334-0.168,0.391-0.697l0.558-4.826c0.084-0.753-0.056-0.753-0.753-0.753h-14.087c-0.558,0-0.837,0-0.837,0.56
			c0,0.309,0.251,0.309,0.781,0.309c1.031,0,1.812,0,1.812,0.504c0,0.11,0,0.167-0.139,0.668l-3.682,14.721
			c-0.279,1.085-0.336,1.308-2.539,1.308c-0.475,0-0.781,0-0.781,0.553c0,0.348,0.251,0.348,0.781,0.348h14.478
			c0.642,0,0.67-0.028,0.865-0.474"/>
	</g>
	<path clip-path="url(#SVGID_8_)" fill="none" stroke="#000000" stroke-dasharray="8" d="M389,181c0,0,73.154,16.218,111.667,37
		s72.667,56,72.667,56"/>
	<g clip-path="url(#SVGID_8_)">
		<g opacity="0.25">
			<g>
				<g>
					<line fill="none" stroke="#000000" stroke-width="1.9988" x1="389" y1="181" x2="403.919" y2="200.671"/>
					<polygon points="408.183,206.293 398.938,200.825 403.601,200.25 405.41,195.916 					"/>
				</g>
			</g>
			<g>
				<g>
					<g>
						<line fill="none" stroke="#231F20" stroke-width="1.9988" x1="389" y1="181" x2="377.412" y2="206.797"/>
						<polygon fill="#231F20" points="374.521,213.234 374.89,202.499 377.628,206.316 382.301,205.828 						"/>
					</g>
				</g>
				<g>
					<g>
						<line fill="none" stroke="#231F20" stroke-width="1.9988" x1="389" y1="181" x2="351.005" y2="207.021"/>
						<polygon fill="#231F20" points="345.183,211.008 351.092,202.037 351.44,206.723 355.683,208.74 						"/>
					</g>
				</g>
				<g>
					<g>
						<line fill="none" stroke="#231F20" stroke-width="1.9988" x1="389" y1="181" x2="334.231" y2="196.81"/>
						<polygon fill="#231F20" points="327.452,198.767 335.879,192.105 334.738,196.663 338.132,199.912 						"/>
					</g>
				</g>
				<g>
					<g>
						<line fill="none" stroke="#231F20" stroke-width="1.9988" x1="389" y1="181" x2="335.051" y2="184.369"/>
						<polygon fill="#231F20" points="328.008,184.809 337.68,180.134 335.577,184.336 338.186,188.243 						"/>
					</g>
				</g>
				<g>
					<g>
						<line fill="none" stroke="#231F20" stroke-width="1.9988" x1="389" y1="181" x2="349.777" y2="171.024"/>
						<polygon fill="#231F20" points="342.938,169.285 353.577,167.799 350.289,171.154 351.574,175.673 						"/>
					</g>
				</g>
				<g>
					<g>
						<line fill="none" stroke="#231F20" stroke-width="1.9988" x1="389" y1="181" x2="373.001" y2="160.352"/>
						<polygon fill="#231F20" points="368.679,154.774 377.98,160.146 373.324,160.769 371.559,165.123 						"/>
					</g>
				</g>
				<g>
					<g>
						<line fill="none" stroke="#231F20" stroke-width="1.9988" x1="389" y1="181" x2="400.51" y2="155.208"/>
						<polygon fill="#231F20" points="403.386,148.764 403.043,159.5 400.295,155.69 395.624,156.189 						"/>
					</g>
				</g>
				<g>
					<g>
						<line fill="none" stroke="#231F20" stroke-width="1.9988" x1="389" y1="181" x2="425.935" y2="154.964"/>
						<polygon fill="#231F20" points="431.702,150.898 425.915,159.948 425.504,155.268 421.234,153.308 						"/>
					</g>
				</g>
				<g>
					<g>
						<line fill="none" stroke="#231F20" stroke-width="1.9988" x1="389" y1="181" x2="442.742" y2="163.158"/>
						<polygon fill="#231F20" points="449.439,160.935 441.282,167.923 442.241,163.324 438.722,160.213 						"/>
					</g>
				</g>
				<g>
					<g>
						<line fill="none" stroke="#231F20" stroke-width="1.9988" x1="389" y1="181" x2="442.963" y2="177.593"/>
						<polygon fill="#231F20" points="450.005,177.148 440.337,181.829 442.437,177.626 439.825,173.721 						"/>
					</g>
				</g>
			</g>
		</g>
		<g>
			<g>
				<line fill="none" stroke="#000000" stroke-width="1.9988" x1="389" y1="181" x2="428.274" y2="190.938"/>
				<polygon points="435.115,192.668 424.479,194.167 427.763,190.808 426.472,186.292 				"/>
			</g>
		</g>
		<path opacity="0.25" fill="none" stroke="#000000" stroke-width="0.6706" d="M450.18,177.052
			c8.374-17.868-12.229-30.585-46.017-28.405c-33.788,2.182-67.969,18.435-76.343,36.303c-8.374,17.867,12.229,30.584,46.017,28.404
			C407.625,211.172,441.806,194.919,450.18,177.052z"/>
	</g>
</g>
<rect x="410.962" y="196.013" fill="none" width="22" height="28"/>
<path d="M426.017,196.413c0,0.027-1.062,1.339-2.291,1.339c-0.643,0-1.341-0.418-1.815-0.697c-0.754-0.446-1.257-0.642-1.732-0.642
	c-1.061,0-1.592,0.615-3.017,2.182l0.447,0.419c0-0.028,1.061-1.339,2.291-1.339c0.643,0,1.341,0.418,1.815,0.697
	c0.754,0.445,1.257,0.641,1.732,0.641c1.061,0,1.592-0.615,3.017-2.181"/>
</svg>
