<?xml version="1.0" encoding="utf-8"?>
<!-- Generator: Adobe Illustrator 14.0.0, SVG Export Plug-In . SVG Version: 6.00 Build 43363)  -->
<!DOCTYPE svg PUBLIC "-//W3C//DTD SVG 1.1//EN" "http://www.w3.org/Graphics/SVG/1.1/DTD/svg11.dtd">
<svg version="1.1" id="Layer_1" xmlns="http://www.w3.org/2000/svg" xmlns:xlink="http://www.w3.org/1999/xlink" x="0px" y="0px"
	 width="172px" height="222px" viewBox="0 0 172 222" enable-background="new 0 0 172 222" xml:space="preserve">
<polygon opacity="0.2" fill="#1B1F8A" points="10.209,125.179 153.341,29.203 148.41,153.604 "/>
<rect x="13.955" y="118.135" transform="matrix(0.829 -0.5592 0.5592 0.829 -67.4205 35.0446)" fill="#FFFFFF" stroke="#231F20" stroke-width="1.4099" width="19.294" height="19.294"/>
<circle cx="10.209" cy="125.179" r="3.329"/>
<g>
	<g>
		<line fill="none" stroke="#000000" stroke-width="2.6907" x1="10.209" y1="125.179" x2="153.341" y2="29.203"/>
		<polygon points="161.23,23.913 153.158,35.91 152.751,29.599 147.067,26.826 		"/>
	</g>
</g>
<line fill="none" stroke="#000000" stroke-width="1.4099" stroke-dasharray="5.6396" x1="66.223" y1="208.715" x2="148.41" y2="153.604"/>
<g>
	<g>
		<line fill="none" stroke="#000000" stroke-width="2.6907" x1="10.209" y1="125.179" x2="148.069" y2="153.139"/>
		<polygon points="157.378,155.026 143.172,157.726 147.373,152.997 145.347,147.007 		"/>
	</g>
</g>
<path fill="none" stroke="#000000" stroke-width="1.0763" d="M77.738,139.071c0.917-4.487,1.4-9.134,1.4-13.893
	c0-14.212-4.301-27.421-11.674-38.394"/>
<g>
	<defs>
		<rect id="SVGID_1_" x="146.715" y="6.905" width="14.199" height="13.063"/>
	</defs>
	<clipPath id="SVGID_2_">
		<use xlink:href="#SVGID_1_"  overflow="visible"/>
	</clipPath>
	<path clip-path="url(#SVGID_2_)" d="M155.287,17.638c0.291,1.078,1.216,1.763,2.352,1.763c0.925,0,1.534-0.607,1.957-1.45
		c0.449-0.949,0.794-2.557,0.794-2.609c0-0.264-0.238-0.264-0.318-0.264c-0.265,0-0.292,0.106-0.371,0.477
		c-0.369,1.481-0.872,3.278-1.979,3.278c-0.555,0-0.818-0.342-0.818-1.214c0-0.582,0.316-1.824,0.527-2.748
		c0.237-0.952,0.501-1.902,0.738-2.854c0.08-0.396,0.344-1.4,0.45-1.796c0.131-0.608,0.395-1.612,0.395-1.771
		c0-0.475-0.37-0.714-0.765-0.714c-0.132,0-0.818,0.028-1.03,0.926c-0.501,1.928-1.664,6.552-1.98,7.953
		c-0.026,0.104-1.083,2.218-3.008,2.218c-1.373,0-1.637-1.186-1.637-2.16c0-1.476,0.746-3.559,1.44-5.378
		c0.319-0.79,0.453-1.159,0.453-1.66c0-1.186-0.848-2.162-2.172-2.162c-2.518,0-3.499,3.805-3.499,4.041
		c0,0.262,0.264,0.262,0.316,0.262c0.264,0,0.29-0.052,0.422-0.474c0.659-2.288,1.661-3.261,2.664-3.261
		c0.238,0,0.659,0.028,0.659,0.871c0,0.632-0.292,1.396-0.451,1.792c-0.981,2.609-1.537,4.243-1.537,5.534
		c0,2.503,1.824,3.162,3.251,3.162c1.744,0,2.696-1.183,3.145-1.762"/>
</g>
<g>
	<defs>
		<rect id="SVGID_3_" x="149.556" y="160.377" width="13.253" height="13.062"/>
	</defs>
	<clipPath id="SVGID_4_">
		<use xlink:href="#SVGID_3_"  overflow="visible"/>
	</clipPath>
	<path clip-path="url(#SVGID_4_)" d="M161.863,162.786c0-1.421-0.688-1.843-1.164-1.843c-0.662,0-1.297,0.686-1.297,1.267
		c0,0.342,0.138,0.5,0.44,0.789c0.579,0.527,0.938,1.213,0.938,2.162c0,1.105-1.618,7.142-4.719,7.142
		c-1.351,0-1.96-0.921-1.96-2.293c0-1.475,0.729-3.4,1.568-5.585c0.189-0.449,0.326-0.817,0.326-1.319c0-1.186-0.85-2.16-2.175-2.16
		c-2.491,0-3.498,3.804-3.498,4.039c0,0.264,0.264,0.264,0.317,0.264c0.263,0,0.289-0.053,0.421-0.474
		c0.766-2.657,1.899-3.262,2.664-3.262c0.211,0,0.66,0,0.66,0.843c0,0.66-0.27,1.372-0.458,1.846
		c-1.182,3.059-1.531,4.269-1.531,5.403c0,2.846,2.363,3.267,3.598,3.267C160.375,172.871,161.863,164.157,161.863,162.786"/>
</g>
<g>
	<g>
		<line fill="none" stroke="#000000" stroke-width="2.6907" x1="10.209" y1="125.179" x2="66.222" y2="208.713"/>
		<polygon points="71.512,216.603 59.516,208.53 65.827,208.123 68.599,202.439 		"/>
	</g>
</g>
<g>
	<defs>
		<rect id="SVGID_5_" x="16.588" y="200.812" width="40.174" height="16.817"/>
	</defs>
	<clipPath id="SVGID_6_">
		<use xlink:href="#SVGID_5_"  overflow="visible"/>
	</clipPath>
	<path clip-path="url(#SVGID_6_)" d="M28.082,203.378c0-1.403-0.68-1.82-1.149-1.82c-0.653,0-1.28,0.678-1.28,1.25
		c0,0.339,0.136,0.495,0.435,0.779c0.571,0.522,0.925,1.198,0.925,2.135c0,1.092-1.597,7.048-4.657,7.048
		c-1.333,0-1.935-0.91-1.935-2.262c0-1.457,0.72-3.355,1.547-5.515c0.188-0.442,0.321-0.806,0.321-1.301
		c0-1.171-0.838-2.133-2.145-2.133c-2.458,0-3.452,3.756-3.452,3.988c0,0.258,0.26,0.258,0.312,0.258
		c0.261,0,0.286-0.051,0.417-0.467c0.755-2.622,1.874-3.218,2.629-3.218c0.208,0,0.65,0,0.65,0.831c0,0.65-0.265,1.354-0.451,1.822
		c-1.167,3.017-1.512,4.213-1.512,5.331c0,2.81,2.332,3.226,3.552,3.226C26.613,213.331,28.082,204.73,28.082,203.378"/>
	<path clip-path="url(#SVGID_6_)" d="M37.143,204.945c0-0.237,0-0.677-0.458-0.677c-0.477,0-0.477,0.422-0.477,0.695v11.075H30.66
		c-0.254,0-0.689,0-0.689,0.459c0,0.477,0.42,0.477,0.693,0.477h12.078c0.237,0,0.675,0,0.675-0.457
		c0-0.479-0.421-0.479-0.675-0.479h-5.598"/>
	<path clip-path="url(#SVGID_6_)" d="M52.597,214.05c-0.092,0.366-0.257,1.065-0.293,1.082c-0.348,0.569-1.082,1.562-2.218,1.562
		c-1.265,0-1.265-1.192-1.265-1.522c0-1.081,0.525-2.384,1.049-3.722c0.15-0.366,0.263-0.642,0.263-0.935
		c0-0.953-0.803-1.577-1.733-1.577c-1.824,0-2.646,2.491-2.646,2.781c0,0.237,0.255,0.237,0.31,0.237
		c0.255,0,0.274-0.093,0.329-0.295c0.438-1.516,1.241-2.255,1.953-2.255c0.31,0,0.456,0.2,0.456,0.642
		c0,0.422-0.144,0.807-0.323,1.228c-0.966,2.531-0.966,3.062-0.966,3.557c0,0.312,0,1.155,0.672,1.742
		c0.528,0.44,1.237,0.586,1.874,0.586c1.146,0,1.763-0.621,2.364-1.207c0.4,1.171,1.619,1.207,1.836,1.207
		c0.619,0,1.091-0.365,1.437-0.968c0.4-0.712,0.656-1.771,0.656-1.826c0-0.237-0.257-0.237-0.312-0.237
		c-0.255,0-0.275,0.075-0.402,0.576c-0.221,0.875-0.569,1.99-1.338,1.99c-0.477,0-0.605-0.423-0.605-0.899
		c0-0.312,0.147-0.975,0.275-1.451c0.128-0.496,0.312-1.249,0.403-1.652l0.422-1.634c0.111-0.459,0.312-1.268,0.312-1.359
		c0-0.366-0.292-0.587-0.604-0.587c-0.679,0-0.807,0.533-0.953,1.12"/>
</g>
<path d="M109.05,100.998l5.237-8.78l0.851,8.78 M105.86,104.865c-1.063,1.78-2.101,2.152-3.27,2.23
	c-0.318,0.028-0.558,0.028-0.558,0.555c0,0.166,0.132,0.304,0.346,0.304c0.718,0,1.542-0.081,2.286-0.081
	c0.877,0,1.808,0.081,2.659,0.081c0.16,0,0.504,0,0.504-0.526c0-0.306-0.24-0.333-0.425-0.333c-0.612-0.051-1.25-0.261-1.25-0.916
	c0-0.314,0.161-0.603,0.373-0.97c0.186-0.315,0.213-0.315,2.021-3.354h6.673c0.053,0.551,0.424,4.114,0.424,4.376
	c0,0.786-1.381,0.863-1.914,0.863c-0.372,0-0.639,0-0.639,0.555c0,0.304,0.32,0.304,0.373,0.304c1.089,0,2.232-0.081,3.323-0.081
	c0.664,0,2.339,0.081,3.003,0.081c0.16,0,0.479,0,0.479-0.554c0-0.305-0.267-0.305-0.612-0.305c-1.647,0-1.647-0.185-1.728-0.957
	l-1.622-16.602c-0.053-0.529-0.053-0.641-0.504-0.641c-0.425,0-0.532,0.19-0.69,0.457L105.86,104.865z"/>
<g>
	<defs>
		<rect id="SVGID_7_" x="56.984" y="104" width="15" height="17.8"/>
	</defs>
	<clipPath id="SVGID_8_">
		<use xlink:href="#SVGID_7_"  overflow="visible"/>
	</clipPath>
	<path clip-path="url(#SVGID_8_)" d="M63.861,114.6c-0.207,0-0.259,0-0.466,0c-0.311,0-0.336-0.025-0.336-0.104
		c0-0.052,0.439-2.408,0.518-2.796c0.802-3.314,2.82-5.802,5.122-5.802c1.785,0,2.486,1.396,2.486,2.635
		C71.186,111.45,67.847,114.599,63.861,114.6 M60.284,120.164c-0.104,0.335-0.129,0.386-0.129,0.515
		c0,0.566,0.491,0.722,0.749,0.722c0.129,0,0.698-0.077,0.956-0.668c0.077-0.205,0.207-1.054,0.904-4.699
		c0.232,0.033,0.413,0.065,0.852,0.065c4.288,0,8.268-4.055,8.268-8.136c0-2.014-1.006-3.564-2.94-3.564
		c-3.739,0-5.286,4.998-6.832,10.021c-2.785-0.515-4.229-1.957-4.229-3.812c0-0.722,0.588-3.555,2.121-5.332
		c0.205-0.232,0.205-0.283,0.205-0.336c0-0.103-0.052-0.258-0.311-0.258c-0.724,0-2.715,3.735-2.715,6.208
		c0,2.421,1.705,4.303,4.469,4.945L60.284,120.164z"/>
</g>
</svg>
