<?xml version="1.0" encoding="utf-8"?>
<!-- Generator: Adobe Illustrator 14.0.0, SVG Export Plug-In . SVG Version: 6.00 Build 43363)  -->
<!DOCTYPE svg PUBLIC "-//W3C//DTD SVG 1.1//EN" "http://www.w3.org/Graphics/SVG/1.1/DTD/svg11.dtd">
<svg version="1.1" id="Layer_1" xmlns="http://www.w3.org/2000/svg" xmlns:xlink="http://www.w3.org/1999/xlink" x="0px" y="0px"
	 width="337.333px" height="141px" viewBox="0 0 337.333 141" enable-background="new 0 0 337.333 141" xml:space="preserve">
<circle cx="13.734" cy="111.044" r="3.329"/>
<circle cx="283.665" cy="131.969" r="3.328"/>
<circle cx="156.186" cy="60.685" r="3.329"/>
<g>
	<g>
		<line fill="none" stroke="#000000" stroke-width="2.6907" x1="156.389" y1="60.725" x2="272.982" y2="125.702"/>
		<polygon points="281.28,130.326 266.925,128.587 272.362,125.356 272.249,119.034 		"/>
	</g>
</g>
<path fill="none" stroke="#000000" stroke-width="2.6907" d="M13.734,111.044"/>
<g>
	<g>
		<line fill="none" stroke="#000000" stroke-width="2.6907" x1="13.734" y1="111.044" x2="143.925" y2="65.121"/>
		<polygon points="152.883,61.961 142.079,71.571 143.255,65.357 138.44,61.257 		"/>
	</g>
</g>
<line fill="none" stroke="#000000" stroke-width="1.4099" stroke-dasharray="5.6396" x1="156.186" y1="60.685" x2="298.841" y2="10.365"/>
<path fill="none" stroke="#000000" stroke-width="1.0763" d="M213.22,92.396c3.271-5.873,5.681-12.357,7.027-19.317
	c2.287-11.822,1.217-23.516-2.546-34.095"/>
<g>
	<defs>
		<rect id="SVGID_1_" x="143.003" y="35.979" width="20" height="17.8"/>
	</defs>
	<clipPath id="SVGID_2_">
		<use xlink:href="#SVGID_1_"  overflow="visible"/>
	</clipPath>
	<path clip-path="url(#SVGID_2_)" d="M144.066,41.203c1.013-2.899,3.843-2.925,4.129-2.925c3.92,0,4.208,4.521,4.208,6.559
		c0,1.574-0.132,2.014-0.315,2.529c-0.578,1.885-1.365,4.878-1.365,5.549c0,0.283,0.127,0.465,0.329,0.465
		c0.329,0,0.532-0.569,0.812-1.553c0.583-2.173,0.836-3.647,0.938-4.449c0.05-0.336,0.101-0.674,0.203-1.01
		c0.839-2.561,2.518-6.416,3.568-8.46c0.184-0.311,0.498-0.88,0.498-0.982c0-0.259-0.262-0.259-0.313-0.259
		c-0.078,0-0.234,0-0.312,0.181c-1.355,2.457-2.398,5.045-3.44,7.658c-0.026-0.803-0.052-2.769-1.06-5.278
		c-0.621-1.578-1.653-2.85-3.437-2.85c-3.229,0-5.037,3.899-5.037,4.694c0,0.257,0.234,0.257,0.493,0.257"/>
	<path clip-path="url(#SVGID_2_)" d="M158.566,49.568c-0.072,0.237-0.162,0.455-0.162,0.765c0,0.855,0.727,1.548,1.727,1.548
		c1.819,0,2.619-2.519,2.619-2.791c0-0.238-0.239-0.238-0.294-0.238c-0.257,0-0.275,0.11-0.349,0.312
		c-0.422,1.467-1.229,2.218-1.945,2.218c-0.367,0-0.459-0.236-0.459-0.638c0-0.418,0.129-0.764,0.295-1.165
		c0.184-0.491,0.388-0.982,0.59-1.456c0.166-0.437,0.83-2.093,0.904-2.312c0.055-0.183,0.111-0.4,0.111-0.582
		c0-0.854-0.725-1.548-1.722-1.548c-1.793,0-2.626,2.469-2.626,2.777c0,0.235,0.255,0.235,0.31,0.235
		c0.255,0,0.274-0.091,0.329-0.291c0.475-1.565,1.278-2.222,1.953-2.222c0.292,0,0.457,0.146,0.457,0.637
		c0,0.419-0.116,0.692-0.6,1.82 M162.278,40.374c0-0.291-0.218-0.694-0.725-0.694c-0.49,0-1.016,0.476-1.016,1.006
		c0,0.312,0.236,0.695,0.725,0.695c0.526,0,1.015-0.513,1.015-1.005L162.278,40.374z"/>
</g>
<g>
	<defs>
		<rect id="SVGID_3_" x="4.004" y="118.197" width="46" height="17.8"/>
	</defs>
	<clipPath id="SVGID_4_">
		<use xlink:href="#SVGID_3_"  overflow="visible"/>
	</clipPath>
	<path clip-path="url(#SVGID_4_)" d="M4.767,123.421c1.014-2.899,3.843-2.925,4.129-2.925c3.921,0,4.208,4.521,4.208,6.559
		c0,1.574-0.132,2.014-0.315,2.529c-0.578,1.885-1.365,4.878-1.365,5.549c0,0.283,0.127,0.465,0.329,0.465
		c0.329,0,0.532-0.569,0.811-1.553c0.583-2.173,0.836-3.647,0.938-4.449c0.05-0.336,0.101-0.674,0.203-1.01
		c0.839-2.561,2.518-6.416,3.568-8.46c0.184-0.311,0.498-0.88,0.498-0.982c0-0.259-0.261-0.259-0.313-0.259
		c-0.078,0-0.234,0-0.312,0.181c-1.355,2.457-2.398,5.045-3.44,7.658c-0.026-0.803-0.052-2.769-1.06-5.278
		c-0.62-1.578-1.653-2.85-3.436-2.85c-3.229,0-5.037,3.899-5.037,4.694c0,0.257,0.234,0.257,0.493,0.257"/>
	<path clip-path="url(#SVGID_4_)" d="M19.267,131.786c-0.072,0.237-0.162,0.455-0.162,0.765c0,0.855,0.727,1.548,1.727,1.548
		c1.819,0,2.619-2.519,2.619-2.791c0-0.238-0.239-0.238-0.293-0.238c-0.257,0-0.275,0.11-0.35,0.312
		c-0.422,1.467-1.229,2.218-1.945,2.218c-0.367,0-0.459-0.236-0.459-0.638c0-0.418,0.129-0.764,0.295-1.165
		c0.184-0.491,0.388-0.982,0.59-1.456c0.166-0.437,0.83-2.093,0.904-2.312c0.055-0.183,0.111-0.4,0.111-0.582
		c0-0.854-0.725-1.548-1.722-1.548c-1.793,0-2.626,2.469-2.626,2.777c0,0.235,0.255,0.235,0.31,0.235
		c0.255,0,0.274-0.091,0.329-0.291c0.475-1.565,1.278-2.222,1.953-2.222c0.292,0,0.457,0.146,0.457,0.637
		c0,0.419-0.116,0.692-0.6,1.82 M22.979,122.592c0-0.291-0.218-0.694-0.725-0.694c-0.49,0-1.016,0.476-1.016,1.006
		c0,0.312,0.236,0.695,0.725,0.695c0.526,0,1.015-0.513,1.015-1.005L22.979,122.592z"/>
	<path clip-path="url(#SVGID_4_)" d="M37.928,129.797c0.237,0,0.675,0,0.675-0.44c0-0.459-0.42-0.459-0.675-0.459H26.975
		c-0.255,0-0.673,0-0.673,0.459c0,0.44,0.438,0.44,0.673,0.44"/>
	<path clip-path="url(#SVGID_4_)" d="M46.604,122.403c0-0.486-0.036-0.506-0.535-0.506c-1.139,1.083-2.759,1.1-3.489,1.1v0.7
		c0.434,0,1.628,0,2.623-0.534v9.204c0,0.595,0,0.83-1.809,0.83h-0.687v0.7c0.327-0.019,2.557-0.073,3.228-0.073
		c0.562,0,2.846,0.055,3.246,0.073v-0.7h-0.709c-1.867,0-1.867-0.234-1.867-0.828"/>
</g>
<g>
	<defs>
		<rect id="SVGID_5_" x="287.125" y="115.042" width="46" height="19"/>
	</defs>
	<clipPath id="SVGID_6_">
		<use xlink:href="#SVGID_5_"  overflow="visible"/>
	</clipPath>
	<path clip-path="url(#SVGID_6_)" d="M287.988,120.666c1.013-2.9,3.843-2.925,4.129-2.925c3.921,0,4.208,4.52,4.208,6.559
		c0,1.574-0.132,2.014-0.314,2.529c-0.578,1.884-1.366,4.878-1.366,5.548c0,0.284,0.127,0.465,0.329,0.465
		c0.33,0,0.532-0.569,0.812-1.552c0.583-2.173,0.836-3.648,0.938-4.45c0.05-0.336,0.101-0.673,0.203-1.009
		c0.838-2.561,2.518-6.416,3.567-8.46c0.185-0.312,0.498-0.88,0.498-0.983c0-0.259-0.261-0.259-0.313-0.259
		c-0.077,0-0.233,0-0.312,0.181c-1.354,2.457-2.397,5.045-3.44,7.658c-0.025-0.802-0.052-2.768-1.06-5.277
		c-0.62-1.578-1.653-2.85-3.437-2.85c-3.229,0-5.037,3.899-5.037,4.694c0,0.257,0.234,0.257,0.493,0.257"/>
	<path clip-path="url(#SVGID_6_)" d="M302.488,129.031c-0.072,0.237-0.162,0.455-0.162,0.765c0,0.855,0.728,1.547,1.728,1.547
		c1.818,0,2.618-2.518,2.618-2.791c0-0.238-0.239-0.238-0.294-0.238c-0.257,0-0.274,0.11-0.349,0.312
		c-0.422,1.466-1.229,2.217-1.945,2.217c-0.366,0-0.459-0.236-0.459-0.637c0-0.418,0.129-0.764,0.295-1.165
		c0.185-0.491,0.388-0.983,0.591-1.456c0.166-0.438,0.829-2.093,0.903-2.312c0.056-0.182,0.111-0.399,0.111-0.582
		c0-0.854-0.726-1.547-1.722-1.547c-1.793,0-2.627,2.469-2.627,2.776c0,0.236,0.256,0.236,0.311,0.236
		c0.255,0,0.273-0.091,0.329-0.291c0.475-1.566,1.278-2.222,1.953-2.222c0.292,0,0.457,0.146,0.457,0.637
		c0,0.419-0.116,0.691-0.601,1.819 M306.2,119.837c0-0.292-0.218-0.695-0.725-0.695c-0.49,0-1.017,0.477-1.017,1.006
		c0,0.312,0.236,0.695,0.726,0.695C305.71,120.843,306.199,120.331,306.2,119.837L306.2,119.837z"/>
	<path clip-path="url(#SVGID_6_)" d="M316.125,127.042h5.544c0.236,0,0.671,0,0.671-0.441c0-0.459-0.417-0.459-0.671-0.459h-5.544
		v-5.532c0-0.234,0-0.667-0.44-0.667c-0.459,0-0.459,0.414-0.459,0.667v5.532h-5.561c-0.236,0-0.67,0-0.67,0.441
		c0,0.459,0.416,0.459,0.67,0.459h5.561v5.533c0,0.234,0,0.667,0.44,0.667c0.459,0,0.459-0.414,0.459-0.667"/>
	<path clip-path="url(#SVGID_6_)" d="M329.625,119.647c0-0.485-0.036-0.506-0.535-0.506c-1.139,1.083-2.759,1.101-3.488,1.101v0.7
		c0.434,0,1.628,0,2.622-0.534v9.204c0,0.595,0,0.83-1.809,0.83h-0.687v0.699c0.327-0.018,2.557-0.072,3.228-0.072
		c0.562,0,2.846,0.055,3.246,0.072v-0.699h-0.71c-1.867,0-1.867-0.234-1.867-0.828"/>
</g>
<g>
	<path d="M88.205,103.471c0.285,1.071,1.191,1.75,2.304,1.75c0.907,0,1.502-0.598,1.917-1.43c0.439-0.937,0.778-2.521,0.778-2.573
		c0-0.26-0.233-0.26-0.311-0.26c-0.258,0-0.284,0.104-0.361,0.465c-0.36,1.444-0.85,3.198-1.933,3.198
		c-0.541,0-0.799-0.336-0.799-1.189c0-0.568,0.309-1.785,0.516-2.689c0.232-0.932,0.49-1.862,0.722-2.793
		c0.077-0.389,0.335-1.371,0.438-1.76c0.129-0.595,0.386-1.578,0.386-1.732c0-0.465-0.36-0.699-0.747-0.699
		c-0.129,0-0.799,0.027-1.005,0.906c-0.489,1.888-1.624,6.414-1.933,7.785c-0.026,0.104-1.057,2.173-2.938,2.173
		c-1.341,0-1.598-1.159-1.598-2.111c0-1.442,0.709-3.478,1.368-5.254c0.304-0.772,0.431-1.133,0.431-1.622
		c0-1.159-0.83-2.113-2.127-2.113c-2.462,0-3.421,3.713-3.421,3.943c0,0.256,0.256,0.256,0.307,0.256
		c0.257,0,0.282-0.051,0.411-0.456c0.641-2.205,1.615-3.144,2.589-3.144c0.231,0,0.641,0.026,0.641,0.852
		c0,0.618-0.279,1.365-0.432,1.751c-0.936,2.55-1.468,4.146-1.468,5.408c0,2.446,1.786,3.09,3.184,3.09
		C86.834,105.222,87.766,104.047,88.205,103.471"/>
</g>
<g>
	<path d="M205.467,97.332c0-1.395-0.671-1.808-1.136-1.808c-0.645,0-1.264,0.671-1.264,1.237c0,0.335,0.131,0.489,0.418,0.773
		c0.55,0.515,0.89,1.184,0.89,2.11c0,1.082-1.576,6.979-4.597,6.979c-1.317,0-1.912-0.901-1.912-2.24
		c0-1.442,0.693-3.322,1.49-5.459c0.18-0.438,0.309-0.798,0.309-1.288c0-1.159-0.83-2.113-2.127-2.113
		c-2.436,0-3.422,3.713-3.422,3.943c0,0.256,0.256,0.256,0.308,0.256c0.257,0,0.282-0.051,0.411-0.456
		c0.742-2.561,1.846-3.145,2.589-3.145c0.205,0,0.642,0,0.642,0.826c0,0.645-0.258,1.34-0.437,1.803
		c-1.13,2.986-1.462,4.172-1.462,5.278c0,2.781,2.297,3.193,3.498,3.193C203.995,107.223,205.466,98.674,205.467,97.332"/>
</g>
<g>
	<defs>
		<rect id="SVGID_7_" x="228.067" y="63" width="23" height="17.8"/>
	</defs>
	<clipPath id="SVGID_8_">
		<use xlink:href="#SVGID_7_"  overflow="visible"/>
	</clipPath>
	<path clip-path="url(#SVGID_8_)" d="M235.244,73.6c-0.207,0-0.259,0-0.466,0c-0.311,0-0.336-0.025-0.336-0.104
		c0-0.052,0.44-2.408,0.518-2.796c0.802-3.314,2.82-5.802,5.122-5.802c1.785,0,2.486,1.396,2.486,2.635
		c0,2.917-3.339,6.065-7.323,6.065 M231.667,79.164c-0.104,0.335-0.129,0.386-0.129,0.515c0,0.566,0.491,0.722,0.749,0.722
		c0.129,0,0.698-0.077,0.957-0.668c0.077-0.205,0.207-1.054,0.904-4.699c0.232,0.033,0.413,0.065,0.852,0.065
		c4.288,0,8.268-4.055,8.268-8.136c0-2.014-1.006-3.564-2.94-3.564c-3.739,0-5.287,4.998-6.832,10.021
		c-2.785-0.515-4.229-1.957-4.229-3.812c0-0.722,0.588-3.555,2.121-5.332c0.205-0.232,0.205-0.283,0.205-0.336
		c0-0.103-0.052-0.258-0.311-0.258c-0.724,0-2.715,3.735-2.715,6.208c0,2.421,1.705,4.303,4.469,4.945L231.667,79.164z"/>
	<path clip-path="url(#SVGID_8_)" d="M246.33,76.589c-0.072,0.237-0.162,0.455-0.162,0.765c0,0.855,0.727,1.548,1.727,1.548
		c1.819,0,2.619-2.519,2.619-2.791c0-0.238-0.239-0.238-0.293-0.238c-0.257,0-0.275,0.11-0.35,0.312
		c-0.422,1.467-1.229,2.218-1.945,2.218c-0.367,0-0.459-0.236-0.459-0.638c0-0.418,0.129-0.764,0.295-1.165
		c0.184-0.491,0.388-0.982,0.59-1.456c0.166-0.437,0.83-2.093,0.904-2.312c0.055-0.183,0.111-0.4,0.111-0.582
		c0-0.854-0.725-1.548-1.722-1.548c-1.793,0-2.626,2.469-2.626,2.777c0,0.235,0.255,0.235,0.31,0.235
		c0.255,0,0.274-0.091,0.329-0.291c0.475-1.565,1.278-2.222,1.953-2.222c0.292,0,0.457,0.146,0.457,0.637
		c0,0.419-0.116,0.692-0.6,1.82 M250.042,67.395c0-0.291-0.218-0.694-0.725-0.694c-0.49,0-1.016,0.476-1.016,1.006
		c0,0.312,0.236,0.695,0.725,0.695c0.526,0,1.015-0.513,1.015-1.005L250.042,67.395z"/>
</g>
</svg>
