<?xml version="1.0" encoding="utf-8"?>
<!-- Generator: Adobe Illustrator 14.0.0, SVG Export Plug-In . SVG Version: 6.00 Build 43363)  -->
<!DOCTYPE svg PUBLIC "-//W3C//DTD SVG 1.1//EN" "http://www.w3.org/Graphics/SVG/1.1/DTD/svg11.dtd">
<svg version="1.1" id="Layer_1" xmlns="http://www.w3.org/2000/svg" xmlns:xlink="http://www.w3.org/1999/xlink" x="0px" y="0px"
	 width="906px" height="175px" viewBox="0 0 906 175" enable-background="new 0 0 906 175" xml:space="preserve">
<g>
	<linearGradient id="SVGID_1_" gradientUnits="userSpaceOnUse" x1="229.1201" y1="124.0225" x2="598.9188" y2="98.6403">
		<stop  offset="0" style="stop-color:#FFFFFF"/>
		<stop  offset="1" style="stop-color:#000000"/>
	</linearGradient>
	<path fill-rule="evenodd" clip-rule="evenodd" fill="url(#SVGID_1_)" d="M259.268,166.283c-6.047-2.968-8.874-8.874-13.135-13.134
		c-10.579-10.579-21.018-22.401-32.146-33.529c-2.274-2.275-5.703-4.656-5.53-7.259c0.251-3.79,9.57-6.439,14.172-8.641
		c11.262-5.386,19.993-9.377,31.108-14.517c5.513-2.548,10.942-5.861,15.209-7.258c2.329-0.764,5.467-0.721,8.295-1.384
		c6.825-1.598,16.459-3.457,22.813-5.875c5.557-2.115,9.803,1.646,13.826,3.802c7.758,4.158,15.284,6.62,23.504,10.715
		c4.62,2.302,9.667,5.28,15.208,7.951c4.853,2.338,14.218,4.382,14.172,8.641c-0.029,2.614-9.636,8.626-11.753,10.369
		c-8.647,7.119-15.315,12.863-23.85,19.702c-4.263,3.417-7.822,8.896-12.79,11.061c-1.626,0.709-4.67,1.075-6.913,1.728
		c-6.734,1.963-14.374,5.771-22.122,8.642c-3.525,1.307-7.329,2.732-11.061,4.148C271.403,164.054,268.928,167.489,259.268,166.283z
		"/>
	<g opacity="0.2" enable-background="new    ">
		<g>
			<path fill-rule="evenodd" clip-rule="evenodd" fill="#1B1F8A" d="M271.191,10.714c3.439-0.318,5.916,1.259,9.176,2.343
				c2.885,0.958,6.112,1.431,8.982,2.148c11.858,2.961,24.208,6.088,35.535,9.176c3.038,0.828,5.521,1.394,9.176,1.952
				c7.062,1.078,12.885,2.078,14.253,8.787c0.641,3.145-0.517,7.146-1.562,10.543c-2.725,8.857-5.2,21.842-6.638,30.458
				c-1.816,10.877-4.485,19.846-6.638,30.653c-0.846,4.245-0.521,8.271-2.148,11.325c-1.621,3.042-4.854,4.514-8.005,6.443
				c-8.837,5.41-16.296,12.62-24.602,18.158c-5.712,3.811-10.827,7.845-16.596,11.91c-2.454,1.73-5.606,3.697-8.2,6.053
				c-3.903,3.545-7.76,7.837-14.448,5.467c-2.906-1.03-4.978-3.527-7.029-6.248c-5.399-7.163-13.243-14.415-19.134-20.305
				c-6.666-6.665-11.919-13.858-19.135-20.306c-2.136-1.91-5.008-3.96-6.247-6.833c-1.286-2.978-1.105-7.008-1.758-10.348
				c-1.99-10.19-4.401-18.246-6.443-29.287c-1.109-5.997-2.785-13.179-4.1-19.719c-0.604-3.004-1.407-6.647-2.343-9.567
				c-0.835-2.605-2.478-6.179-2.147-9.762c0.895-9.717,12.208-8.264,21.672-10.349c5.78-1.272,11.488-2.372,16.596-3.515
				c11.68-2.613,23.037-4.232,33.388-6.833C265.452,12.39,267.876,11.021,271.191,10.714z"/>
		</g>
	</g>
	<g>
		<g>
			<path fill-rule="evenodd" clip-rule="evenodd" fill="none" stroke="#000000" stroke-width="1.2775" d="M271.191,10.714
				c3.439-0.318,5.916,1.259,9.176,2.343c2.885,0.958,6.112,1.431,8.982,2.148c11.858,2.961,24.208,6.088,35.535,9.176
				c3.038,0.828,5.521,1.394,9.176,1.952c7.062,1.078,12.885,2.078,14.253,8.787c0.641,3.145-0.517,7.146-1.562,10.543
				c-2.725,8.857-5.2,21.842-6.638,30.458c-1.816,10.877-4.485,19.846-6.638,30.653c-0.846,4.245-0.521,8.271-2.148,11.325
				c-1.621,3.042-4.854,4.514-8.005,6.443c-8.837,5.41-16.296,12.62-24.602,18.158c-5.712,3.811-10.827,7.845-16.596,11.91
				c-2.454,1.73-5.606,3.697-8.2,6.053c-3.903,3.545-7.76,7.837-14.448,5.467c-2.906-1.03-4.978-3.527-7.029-6.248
				c-5.399-7.163-13.243-14.415-19.134-20.305c-6.666-6.665-11.919-13.858-19.135-20.306c-2.136-1.91-5.008-3.96-6.247-6.833
				c-1.286-2.978-1.105-7.008-1.758-10.348c-1.99-10.19-4.401-18.246-6.443-29.287c-1.109-5.997-2.785-13.179-4.1-19.719
				c-0.604-3.004-1.407-6.647-2.343-9.567c-0.835-2.605-2.478-6.179-2.147-9.762c0.895-9.717,12.208-8.264,21.672-10.349
				c5.78-1.272,11.488-2.372,16.596-3.515c11.68-2.613,23.037-4.232,33.388-6.833C265.452,12.39,267.876,11.021,271.191,10.714z"/>
		</g>
	</g>
	<path fill-rule="evenodd" clip-rule="evenodd" fill="none" stroke="#000000" stroke-width="0.4258" stroke-linecap="round" d="
		M219.548,124.836c-1.907-2.539-1.492-6.806-1.855-9.554c-1.923-14.546-6.014-31.368-8.005-43.346
		c-0.577-3.47-1.438-8.018-2.148-11.909c-2.225-12.207-9.888-25.427,5.679-28.042c21.673-3.642,39.865-8.657,60.594-13.462
		c4.531-1.05,11.083-3.723,14.266-3.612"/>
	<path fill-rule="evenodd" clip-rule="evenodd" fill="none" stroke="#000000" stroke-width="0.4258" stroke-linecap="round" d="
		M230.678,136.941c-1.719-2.112-1.26-6.891-1.661-10.139c-2.21-17.912-5.935-37.78-8.591-56.23c-1.09-7.57-3.192-14.75-3.905-21.673
		c-1.042-10.102,9.618-9.285,18.244-11.433c18.566-4.621,37.958-10.145,56.816-15.034c4.063-1.054,9.956-3.729,12.898-3.485"/>
	<path fill-rule="evenodd" clip-rule="evenodd" fill="none" stroke="#000000" stroke-width="0.4258" stroke-linecap="round" d="
		M243.134,149.476c-1.927-2.508-1.101-8.71-1.426-12.13c-1.764-18.568-4.384-38.303-6.443-57.793
		c-0.677-6.403-3.751-15.726-3.123-21.673c1.234-11.668,16.215-11.718,25.922-14.738c16.327-5.079,34.139-10.396,51.316-15.596
		c4.448-1.347,9.365-4.102,12.477-3.913"/>
	<path fill-rule="evenodd" clip-rule="evenodd" fill="none" stroke="#000000" stroke-width="0.4258" stroke-linecap="round" d="
		M257.621,165.446c-2.917-2.48-1.277-9.729-1.465-13.458c-0.807-15.987-2.696-39.002-3.515-57.011
		c-0.096-2.107-0.214-4.407-0.39-6.64c-0.619-7.836-3.822-16.681-0.743-23.213c4.526-9.601,10.739-8.807,22.111-12.234
		c9.808-2.957,22.538-7.78,34.366-12.095c8.266-3.016,15.321-5.436,23.039-8.2c4.017-1.438,9.493-5.223,11.948-4.267"/>
	<path fill-rule="evenodd" clip-rule="evenodd" fill="none" stroke="#000000" stroke-width="0.4258" stroke-linecap="round" d="
		M255.669,14.651c2.292-0.327,6.295,2.077,9.39,3.051c11.013,3.465,22.993,6.787,33.812,9.981c6.201,1.832,13.601,4.189,21.606,5.68
		c7.328,1.364,12.153,4.938,10.654,13.75c-1.132,6.654-2.893,12.807-3.905,19.134c-1.777,11.107-3.614,21.997-5.467,33.582
		c-1.242,7.766-2.949,15.639-3.515,23.234c-0.19,2.553-0.311,5.708-1.854,6.848"/>
	<path fill-rule="evenodd" clip-rule="evenodd" fill="none" stroke="#000000" stroke-width="0.4258" stroke-linecap="round" d="
		M237.902,18.166c3.063,0.542,7.764,2.741,12.096,4.25c16.161,5.626,35.33,13.107,50.371,17.192
		c7.712,2.094,13.906,3.364,12.799,13.363c-0.67,6.051-2.061,12.011-2.733,18.158c-2.211,20.198-5.691,41.008-7.029,61.698
		c-0.166,2.564-0.062,4.979-0.817,7.415c-0.166,0.246-0.392,0.441-0.598,0.651c-0.029,0.037-0.058,0.072-0.087,0.109"/>
	<path fill-rule="evenodd" clip-rule="evenodd" fill="none" stroke="#000000" stroke-width="0.4258" stroke-linecap="round" d="
		M219.158,22.267c2.492,0.347,7.561,3.429,10.158,4.453c10.982,4.334,30.029,12.837,44.111,18.149
		c5.76,2.174,12.906,3.717,15.599,7.019c3.38,4.147,3.258,9.615,2.683,14.23c-2.422,19.443-2.997,39.373-3.923,59.289
		c-0.332,7.132-1.722,14.6-0.974,21.868c0.158,1.54,0.401,3.251-1.024,4.938c-0.026,0.032-0.052,0.064-0.079,0.098"/>
	<path fill-rule="evenodd" clip-rule="evenodd" fill="none" stroke="#000000" stroke-width="0.4258" stroke-linecap="round" d="
		M197.681,26.042c0.112-0.043,0.177-0.064,0.239-0.086c0.339-0.246,2.626,1.389,4.032,2.36c5.095,3.518,11.757,6.115,18.345,9.564
		c7.491,3.921,15.458,7.653,22.843,11.519c3.076,1.611,5.956,3.106,9.004,4.256c8.305,3.133,13.966,5.887,15.533,15.913
		c0.769,4.914,0.036,10.452-0.196,15.619c-0.258,5.71-0.283,10.246,0.001,16.596c0.881,19.626,0.281,40.032,1.367,60.331
		c0.095,1.787,0.577,3.015-1.075,3.919"/>
	<path fill-rule="evenodd" clip-rule="evenodd" fill="none" stroke="#000000" stroke-width="0.4258" stroke-linecap="round" d="
		M191.303,35.803c0.015,0.076,0.032,0.223,0.069,0.357c15.274,8.206,30.387,17.907,44.544,26.125
		c6.94,4.029,12.584,10.761,21.495,11.3c5.631,0.34,9.811-0.485,15.797-3.542c12.146-6.201,28.063-12.447,42.586-18.118
		c9.924-3.875,18.674-8.21,27.753-11.102c2.214-0.705,4.906-0.97,5.252-2.872"/>
	<path fill-rule="evenodd" clip-rule="evenodd" fill="none" stroke="#000000" stroke-width="0.4258" stroke-linecap="round" d="
		M343.334,61.38c-0.808,1.585-3.142,2.254-5.457,3.208c-10.088,4.152-20.243,9.767-29.264,14.488
		c-11.939,6.25-21.588,10.224-32.801,16.791c-5.131,3.006-9.806,6.716-16.029,6.417c-3.669-0.177-7.068-2.129-9.846-4.545
		c-12.593-10.949-26.169-20.08-40.81-30.861c-1.621-1.193-3.456-2.626-5.272-3.905c-2.708-1.906-5.829-2.975-7.151-4.912"/>
	<path fill-rule="evenodd" clip-rule="evenodd" fill="none" stroke="#000000" stroke-width="0.4258" stroke-linecap="round" d="
		M339.486,81.714c-1.391,2.384-6.239,3.9-9.786,5.953c-6.875,3.979-15.281,9.03-21.478,12.691
		c-13.368,7.898-26.165,14.85-36.421,21.909c-3.462,2.382-7.26,5.302-11.627,4.813c-4.804-0.538-9.589-7.041-13.951-10.805
		c-6.951-5.998-14.168-12.101-21.281-18.157c-6.282-5.349-12.546-11.419-19.525-16.596c-1.29-0.957-4.102-2.252-4.807-4.13"/>
	<path fill-rule="evenodd" clip-rule="evenodd" fill="none" stroke="#000000" stroke-width="0.4258" stroke-linecap="round" d="
		M335.329,99.845c0.497,1.488-3.174,3.307-5.239,4.417c-7.059,3.797-13.392,8.588-20.314,13.085
		c-13.726,8.917-27.605,18.173-38.952,26.591c-5.665,4.204-11.895,4.483-16.669-0.243c-0.935-0.926-1.734-1.95-2.556-2.925
		c-6.453-7.659-12.976-13.37-20.286-20.078c-6.069-5.57-12.941-12.632-18.672-17.89c-2.001-1.836-6.981-5.029-7.931-7.45"/>
</g>
<g>
	<g>
		<g>
			<linearGradient id="SVGID_2_" gradientUnits="userSpaceOnUse" x1="412.0293" y1="127.6416" x2="730.702" y2="90.7365">
				<stop  offset="0" style="stop-color:#FFFFFF"/>
				<stop  offset="1" style="stop-color:#000000"/>
			</linearGradient>
			<path fill-rule="evenodd" clip-rule="evenodd" fill="url(#SVGID_2_)" d="M476.122,78.529c10.547-1.406,18.308,2.964,26.155,6.371
				c9.058,3.934,18.366,8.81,27.831,13.749c4.365,2.278,10.788,5.7,11.4,9.39c0.867,5.219-3.962,8.839-7.376,11.735
				c-4.292,3.64-7.175,6.166-10.396,8.719c-7.64,6.056-13.464,12.598-20.79,17.102c-9.951,6.117-23.506,10.464-35.879,15.089
				c-7.566,2.828-18.59,6.394-28.502,2.683c-9.606-3.595-16.872-13.183-25.15-21.46c-3.914-3.914-7.479-7.66-11.4-12.072
				c-3.289-3.7-9.107-9.139-8.718-14.418c0.448-6.102,10.233-10.696,16.43-13.414c8.307-3.642,13.82-6.424,20.455-9.39
				c7.305-3.263,14.015-6.396,21.461-8.382C459.444,82.149,467.528,79.675,476.122,78.529z"/>
		</g>
	</g>
	<g>
		<g>
			<g opacity="0.2">
				<g>
					<path fill-rule="evenodd" clip-rule="evenodd" fill="#1B1F8A" d="M449.251,12.66c6.786-0.53,13.969,0.596,19.916,1.953
						c11.293,2.578,23.525,5.729,34.559,8.786c10.403,2.882,20.156,6.228,23.43,16.206c2.267,6.912,0.811,15.761-0.586,23.234
						c-1.377,7.368-3.1,14.727-4.49,21.478c-2.869,13.925-5.401,30.799-12.887,39.244c-4.178,4.713-9.219,8.172-14.252,11.91
						c-9.981,7.411-19.085,14.614-30.069,21.868c-5.064,3.345-11.45,7.436-18.353,7.616c-4.068,0.104-7.432-1.159-9.762-2.344
						c-9.465-4.816-16.625-14.281-24.21-21.868c-3.841-3.84-7.477-7.962-11.13-11.91c-3.665-3.961-7.418-8.076-10.153-12.691
						c-5.527-9.331-7.549-23.854-10.153-35.926c-1.883-8.725-4.559-18.402-5.857-28.701c-1.418-11.25,1.057-19.25,8.004-23.625
						c7.988-5.028,20.697-6.695,31.436-8.981c6.082-1.294,11.533-2.238,16.985-3.319C437.286,14.478,442.734,13.17,449.251,12.66z"
						/>
				</g>
			</g>
			<g>
				<g>
					<path fill-rule="evenodd" clip-rule="evenodd" fill="none" stroke="#000000" stroke-width="1.2775" d="M449.251,12.66
						c6.786-0.53,13.969,0.596,19.916,1.953c11.293,2.578,23.525,5.729,34.559,8.786c10.403,2.882,20.156,6.228,23.43,16.206
						c2.267,6.912,0.811,15.761-0.586,23.234c-1.377,7.368-3.1,14.727-4.49,21.478c-2.869,13.925-5.401,30.799-12.887,39.244
						c-4.178,4.713-9.219,8.172-14.252,11.91c-9.981,7.411-19.085,14.614-30.069,21.868c-5.064,3.345-11.45,7.436-18.353,7.616
						c-4.068,0.104-7.432-1.159-9.762-2.344c-9.465-4.816-16.625-14.281-24.21-21.868c-3.841-3.84-7.477-7.962-11.13-11.91
						c-3.665-3.961-7.418-8.076-10.153-12.691c-5.527-9.331-7.549-23.854-10.153-35.926c-1.883-8.725-4.559-18.402-5.857-28.701
						c-1.418-11.25,1.057-19.25,8.004-23.625c7.988-5.028,20.697-6.695,31.436-8.981c6.082-1.294,11.533-2.238,16.985-3.319
						C437.286,14.478,442.734,13.17,449.251,12.66z"/>
				</g>
			</g>
		</g>
		<path fill-rule="evenodd" clip-rule="evenodd" fill="none" stroke="#000000" stroke-width="0.4258" stroke-linecap="round" d="
			M527.059,39.506c0.022,0.203,0.064,0.322,0.086,0.44c-2.097,1.799-7.91,3.771-13.55,6.086
			c-20.714,8.507-42.158,17.795-62.868,25.383c-8.371,3.067-14.548,2.169-23.408-2.551c-15.365-8.187-36.024-20.101-49.991-29.484
			c-0.531-0.358-1.512-1.14-1.781-1.631"/>
		<path fill-rule="evenodd" clip-rule="evenodd" fill="none" stroke="#000000" stroke-width="0.4258" stroke-linecap="round" d="
			M526.668,61.569c-1.297,4.871-10.931,8.853-18.125,12.62c-8.697,4.553-18.898,9.706-28.702,14.839
			c-13.709,7.176-25.715,13.818-38.482,13.249c-12.986-0.578-24.235-9.512-33.155-16.344c-8.685-6.651-18.841-13.798-27.069-20.818
			c-1.777-1.517-4.109-3.193-4.806-5.888"/>
		<path fill-rule="evenodd" clip-rule="evenodd" fill="none" stroke="#000000" stroke-width="0.4258" stroke-linecap="round" d="
			M521.981,84.608c-0.705,3.012-3.587,5.227-6.126,6.998c-12.096,8.433-32.204,20.335-48.12,29.44
			c-9.921,5.677-19.224,9.953-29.11,7.979c-8.665-1.73-15.415-7.491-21.955-13.148c-7.131-6.167-14.619-12.917-22.064-19.72
			c-4.086-3.736-8.742-7.106-11.805-11.234c-0.657-0.884-1.756-2.771-1.788-3.635"/>
		<path fill-rule="evenodd" clip-rule="evenodd" fill="none" stroke="#000000" stroke-width="0.4258" stroke-linecap="round" d="
			M517.49,104.914c-0.044,1.885-3.178,5.186-5.149,6.803c-13.084,10.731-31.991,22.125-46.566,32.178
			c-6.708,4.626-16.859,9.329-25.589,7.585c-5.134-1.026-10.312-4.251-14.729-8.071c-8.536-7.381-18.952-17.706-26.449-25.877
			c-3.106-3.386-7.838-7.708-10.618-11.201c-1.248-1.569-2.446-3.473-2.885-5.321"/>
		<path fill-rule="evenodd" clip-rule="evenodd" fill="none" stroke="#000000" stroke-width="0.4258" stroke-linecap="round" d="
			M440.174,13.832c3.018-0.823,6.842-0.17,10.919,0.78c8.46,1.971,21.057,5.548,33.425,8.94
			c17.903,4.912,31.321,8.414,32.683,27.068c0.229,3.179,0.159,6.122-0.199,9.373c-1.877,17.051-6.017,34.897-8.963,50.439
			c-1.082,5.71-2.048,15.982-6.977,20.589"/>
		<path fill-rule="evenodd" clip-rule="evenodd" fill="none" stroke="#000000" stroke-width="0.4258" stroke-linecap="round" d="
			M421.43,17.443c2.488-0.416,5.627,0.111,8.579,0.876c6.519,1.688,17.217,5.33,27.95,8.748c15.859,5.05,28.587,8.727,34.705,16.808
			c7.398,9.773,5.572,24.345,4.227,35.642c-1.34,11.259-3.53,27.547-5.271,40.221c-0.993,7.225-1.498,18.592-6.736,23.444"/>
		<path fill-rule="evenodd" clip-rule="evenodd" fill="none" stroke="#000000" stroke-width="0.4258" stroke-linecap="round" d="
			M399.98,21.99c6.362-0.589,17.924,4.886,24.415,7.42C447.88,38.58,471.812,43,474.635,70.537
			c1.438,14.014-0.529,29.516-1.378,43.862c-0.547,9.239-1.126,19.83-2.138,29.745c-0.405,3.969-1.026,9.771-4.002,11.729"/>
		<path fill-rule="evenodd" clip-rule="evenodd" fill="none" stroke="#000000" stroke-width="0.4258" stroke-linecap="round" d="
			M380.428,30.134c0.183-0.047,0.482-0.222,0.772-0.277c6.565,2.399,14.225,6.071,22.039,10.163
			c13.102,6.859,29.425,14.247,37.789,21.519c7.469,6.494,6.603,17.116,7.054,27.155c0.676,15.043,0.251,32.867,0.976,49.007
			c0.308,6.854,1.018,18.344,0.193,25.578c-0.116,1.024-0.885,1.714-2.049,1.575"/>
		<path fill-rule="evenodd" clip-rule="evenodd" fill="none" stroke="#000000" stroke-width="0.4258" stroke-linecap="round" d="
			M397.804,125.414c-4.914-5.919-6.186-17.112-8.102-26.344c-3.237-15.591-7.67-32.178-8.593-47.249
			c-0.462-7.564,0.978-14.115,7.202-19.313c7.169-5.987,18.793-7.667,29.981-10.085c14.409-3.116,25.847-6.472,39.634-8.202
			c2.734-0.342,5.778-0.655,7.815-0.081c0.192,0.116,0.471,0.172,0.789,0.18"/>
		<path fill-rule="evenodd" clip-rule="evenodd" fill="none" stroke="#000000" stroke-width="0.4258" stroke-linecap="round" d="
			M409.911,138.496c-3.65-3.437-4.583-10.3-5.565-15.606c-3.224-17.413-6.596-35.497-8.787-52.521
			c-1.564-12.163-1.35-24.51,8.373-31.418c10.693-7.597,31.235-10.967,46.381-14.576c9.224-2.199,20.274-6.009,29.021-6.259
			c1.492-0.042,2.878-0.041,4.38,0.304"/>
		<path fill-rule="evenodd" clip-rule="evenodd" fill="none" stroke="#000000" stroke-width="0.4258" stroke-linecap="round" d="
			M423.772,152.944c-4.168-4.017-4.682-13.859-5.565-20.486c-2.309-17.312-5.002-34.734-6.248-51.936
			c-1.09-15.058,1.175-27.459,14.125-35.087c11.466-6.754,25.956-9.484,40.452-13.637c11.693-3.351,21.573-7.275,31.611-8.401
			c2.702-0.303,3.942-0.312,6.066,0.293"/>
		<path fill-rule="evenodd" clip-rule="evenodd" fill="none" stroke="#000000" stroke-width="0.4258" stroke-linecap="round" d="
			M441.93,164.854c-0.132-0.004-0.229-0.036-0.323-0.07c-4.725-1.678-3.909-8.078-4.265-12.215
			c-1.55-18.022-2.494-36.098-3.32-54.474c-0.531-11.815-2.544-29.236,7.396-36.299c8.333-5.919,20.655-9.911,34.085-14.758
			c15.582-5.623,29.869-11.671,42.755-14.461c1.611-0.349,4.239-0.853,5.09,1.073"/>
	</g>
</g>
<g>
	<linearGradient id="SVGID_3_" gradientUnits="userSpaceOnUse" x1="39.9204" y1="124.687" x2="520.8586" y2="96.5689">
		<stop  offset="0" style="stop-color:#FFFFFF"/>
		<stop  offset="1" style="stop-color:#000000"/>
	</linearGradient>
	<polygon fill="url(#SVGID_3_)" points="25.333,113.166 89.469,83.002 126.954,73.923 191.382,105.259 139.547,147.137 
		81.562,167.93 	"/>
	<g>
		<g>
			<polygon opacity="0.2" fill="#1B1F8A" points="9.861,28.018 25.304,112.948 81.646,168.247 150.091,118.583 168.456,30.522 
				90.828,9.236 			"/>
			<polygon fill="none" stroke="#000000" stroke-width="1.2775" points="9.861,28.018 25.304,112.948 81.646,168.247 
				150.091,118.583 168.456,30.522 90.828,9.236 			"/>
		</g>
		<polyline fill="none" stroke="#000000" stroke-width="0.4258" stroke-linecap="round" points="77.119,163.805 73.716,62.241 
			162.013,28.755 		"/>
		<polyline fill="none" stroke="#000000" stroke-width="0.4258" stroke-linecap="round" points="62.268,149.229 54.518,51.958 
			142.191,23.321 		"/>
		<polyline fill="none" stroke="#000000" stroke-width="0.4258" stroke-linecap="round" points="49.527,136.723 38.241,43.042 
			123.994,18.331 		"/>
		<polyline fill="none" stroke="#000000" stroke-width="0.4258" stroke-linecap="round" points="38.241,125.469 24.469,35.948 
			108.148,14.037 		"/>
		<path fill="none" stroke="#000000" stroke-width="0.4258" stroke-linecap="round" d="M87.16,164.247"/>
		<polyline fill="none" stroke="#000000" stroke-width="0.4258" stroke-linecap="round" points="87.16,164.247 87.489,62.658 
			16.122,26.349 		"/>
		<polyline fill="none" stroke="#000000" stroke-width="0.4258" stroke-linecap="round" points="104.392,151.554 111.278,53.267 
			36.78,21.757 		"/>
		<polyline fill="none" stroke="#000000" stroke-width="0.4258" stroke-linecap="round" points="120.042,140.077 131.52,45.338 
			55.144,17.584 		"/>
		<polyline fill="none" stroke="#000000" stroke-width="0.4258" stroke-linecap="round" points="134.023,130.269 149.048,38.243 
			71.839,13.827 		"/>
		<polyline fill="none" stroke="#000000" stroke-width="0.4258" stroke-linecap="round" points="11.113,34.486 80.186,74.135 
			166.995,37.408 		"/>
		<polyline fill="none" stroke="#000000" stroke-width="0.4258" stroke-linecap="round" points="15.287,56.189 80.603,101.68 
			162.404,59.737 		"/>
		<polyline fill="none" stroke="#000000" stroke-width="0.4258" stroke-linecap="round" points="18.834,75.388 80.812,125.469 
			158.021,80.187 		"/>
		<polyline fill="none" stroke="#000000" stroke-width="0.4258" stroke-linecap="round" points="22.382,93.125 81.437,145.711 
			154.265,98.342 		"/>
		
			<line fill="none" stroke="#000000" stroke-width="0.4258" stroke-linecap="round" stroke-dasharray="1.7033" x1="80.186" y1="65.58" x2="81.646" y2="168.247"/>
		
			<line fill="none" stroke="#000000" stroke-width="0.4258" stroke-linecap="round" stroke-dasharray="1.7033" x1="80.186" y1="65.58" x2="168.456" y2="30.522"/>
		
			<line fill="none" stroke="#000000" stroke-width="0.4258" stroke-linecap="round" stroke-dasharray="1.7033" x1="80.186" y1="65.58" x2="9.861" y2="28.018"/>
	</g>
</g>
<g>
	<linearGradient id="SVGID_4_" gradientUnits="userSpaceOnUse" x1="768.7803" y1="130.1113" x2="1113.0555" y2="97.0657">
		<stop  offset="0" style="stop-color:#FFFFFF"/>
		<stop  offset="1" style="stop-color:#000000"/>
	</linearGradient>
	<path fill="url(#SVGID_4_)" d="M897.515,121.817C896.68,98.573,865.7,80.818,828.32,82.162
		c-37.38,1.343-67.004,21.277-66.169,44.522c0.836,23.245,31.815,41,69.194,39.655C868.727,164.997,898.352,145.064,897.515,121.817
		z"/>
	<path fill-rule="evenodd" clip-rule="evenodd" fill="none" stroke="#000000" stroke-width="0.4258" stroke-linecap="round" d="
		M759.938,134.784c-9.259-9.619-12.633-24.404-11.421-39.035c3.102-37.419,35.948-80.975,73.622-83.492
		c6.174-0.413,9.892,0.416,15.896,2.354"/>
	<path fill-rule="evenodd" clip-rule="evenodd" fill="none" stroke="#000000" stroke-width="0.4258" stroke-linecap="round" d="
		M742.073,100.03c-7.117-36.75,18.806-78.124,55.352-87.177"/>
	<path fill-rule="evenodd" clip-rule="evenodd" fill="none" stroke="#000000" stroke-width="0.4258" stroke-linecap="round" d="
		M787.662,153.82c-16.213-4.33-20.053-26.583-18.645-44.209c1.986-24.858,14.236-49.972,33.825-66.245
		c4.499-3.739,9.532-7.308,14.129-9.972c13.976-8.097,33.794-15.701,47.423-3.457"/>
	<path fill-rule="evenodd" clip-rule="evenodd" fill="none" stroke="#000000" stroke-width="0.4258" stroke-linecap="round" d="
		M810.896,158.8c-1.304,0.023-3.195-0.071-4.409-0.304c-6.455-1.232-7.278-13.468-7.794-19.792
		c-1.354-16.584-0.693-33.677,1.955-49.983c0.803-4.946,2.668-10.988,8.176-15.408c13.34-10.704,45.435-27.23,59.657-29.415
		c1.479-0.228,4.076-0.541,5.075-0.389c4.157,0.632,5.311,4.617,7.238,8.102"/>
	<path fill-rule="evenodd" clip-rule="evenodd" fill="none" stroke="#000000" stroke-width="0.4258" stroke-linecap="round" d="
		M858.342,144.547c14.187-9.578,16.647-31.487,13.959-48.993c-5.135-33.453-31.809-80.829-66.076-83.483
		c-3.911-0.303-6.401,0.09-9.776,0.88"/>
	<path fill-rule="evenodd" clip-rule="evenodd" fill="none" stroke="#000000" stroke-width="0.4258" stroke-linecap="round" d="
		M830.812,12.658c29.325,5.512,53.455,44.252,55.547,76.62c0.685,10.562-1.066,19.917-5.564,28.52"/>
	<path fill-rule="evenodd" clip-rule="evenodd" fill="none" stroke="#000000" stroke-width="0.4258" stroke-linecap="round" d="
		M769.895,25.642c3.13-2.906,8.759-3.645,13.85-2.635c12.155,2.409,24.894,12.072,34.932,23.014
		c18.117,19.749,26.455,43.156,28.245,69.224c0.971,14.126,0.809,39.389-15.719,41.7"/>
	<path fill-rule="evenodd" clip-rule="evenodd" fill="none" stroke="#000000" stroke-width="0.4258" stroke-linecap="round" d="
		M754.081,41.848c0.285-0.864,1.994-0.964,3.109-0.684c7.747,1.947,22.946,12.588,30.74,18.029
		c5.662,3.953,11.671,8.221,16.401,12.3c4.936,4.257,8.182,8.786,9.006,18.37c1.111,12.903,1.17,26.157,1.757,39.245
		c0.372,8.276,0.763,17.836-0.196,25.772c-0.546,4.52-2.133,4.282-6.149,3.857c-0.195-0.168-0.39-0.25-0.585-0.312
		c-0.131,0.015-0.261,0.095-0.391,0.178"/>
	<path fill-rule="evenodd" clip-rule="evenodd" fill="none" stroke="#000000" stroke-width="0.4258" stroke-linecap="round" d="
		M878.061,46.729c1.117,1.767,2.378,3.598,2.83,5.655c-2.103,2.87-6.631,4.687-10.997,6.963
		c-14.082,7.345-35.238,16.723-51.567,22.805c-4.677,1.742-9.485,3.145-14.249,2.161c-6.251-1.291-14.938-6.426-22.436-10.568
		c-12.116-6.695-23.689-13.166-30.424-20.066c-0.908-0.931-2.652-2.598-1.823-4.216"/>
	<path fill-rule="evenodd" clip-rule="evenodd" fill="none" stroke="#000000" stroke-width="0.4258" stroke-linecap="round" d="
		M886.945,68.986c1.517,4.326,0.365,10.092-3.387,14.717c-12.518,15.436-43.505,24.852-64.643,26.383
		c-14.608,1.058-28.053-0.688-41.64-5.623c-10.517-3.82-24.747-10.769-31.951-20.322c-3.214-4.262-4.812-9.354-3.35-13.984"/>
	<path fill-rule="evenodd" clip-rule="evenodd" fill="none" stroke="#000000" stroke-width="0.4258" stroke-linecap="round" d="
		M887.237,99.055c-0.032,0.129-0.093,0.26-0.155,0.39c-4.958,23.889-35.987,35.128-60.746,37.586
		c-7.876,0.783-16.388,1.003-24.602,0.193c-24.145-2.378-55.234-13.594-59.759-37.584"/>
	<path fill-rule="evenodd" clip-rule="evenodd" fill="none" stroke="#000000" stroke-width="0.4258" stroke-linecap="round" d="
		M872.984,130.099c-0.019,0.065-0.038,0.13-0.059,0.195c-8.931,12.331-24.177,19.431-39.237,22.144
		c-26.263,4.73-58.554,0.177-75.899-19.996"/>
	<g>
		<circle opacity="0.2" fill="#1B1F8A" cx="814.408" cy="85.099" r="74.026"/>
		<circle fill="none" stroke="#000000" stroke-width="1.2631" cx="814.408" cy="85.099" r="74.026"/>
	</g>
</g>
<g>
	<linearGradient id="SVGID_5_" gradientUnits="userSpaceOnUse" x1="589.0781" y1="126.9653" x2="908.3477" y2="108.3389">
		<stop  offset="0" style="stop-color:#FFFFFF"/>
		<stop  offset="1" style="stop-color:#000000"/>
	</linearGradient>
	<path fill-rule="evenodd" clip-rule="evenodd" fill="url(#SVGID_5_)" d="M655.723,79.405c22.703-2.215,43.794,9.113,57.879,19.417
		c5.162,3.776,13.351,9.556,11.203,21.658c-1.235,6.947-10.717,16.407-16.431,21.285c-14.723,12.57-36.676,23.689-58.999,25.391
		c-23.1,1.762-42.091-10.839-53.024-22.404c-4.713-4.984-11.519-12.708-12.697-20.164c-1.831-11.604,6.117-17.908,12.322-22.404
		C611.553,90.898,632.599,81.662,655.723,79.405z"/>
	<g>
		<g opacity="0.2">
			<g>
				<path fill-rule="evenodd" clip-rule="evenodd" fill="#1B1F8A" d="M629.316,10.647c11.688-0.557,23.189,1.458,32.599,4.269
					c18.751,5.599,34.226,15.305,40.552,32.791c3.484,9.626,3.771,21.027,2.135,32.597c-2.962,20.929-10.715,37.88-23.089,50.255
					c-11.604,11.604-27.805,24.2-46.762,26.583c-23.54,2.958-39.179-11.969-49.674-23.479
					c-12.086-13.254-19.885-28.89-24.253-49.089c-2.21-10.219-3.261-23.645-1.165-33.181c4.388-19.967,19.246-29.285,38.03-35.313
					C607.427,12.955,616.986,11.234,629.316,10.647z"/>
			</g>
		</g>
		<g>
			<g>
				<path fill-rule="evenodd" clip-rule="evenodd" fill="none" stroke="#000000" stroke-width="1.2631" d="M629.316,10.647
					c11.688-0.557,23.189,1.458,32.599,4.269c18.751,5.599,34.226,15.305,40.552,32.791c3.484,9.626,3.771,21.027,2.135,32.597
					c-2.962,20.929-10.715,37.88-23.089,50.255c-11.604,11.604-27.805,24.2-46.762,26.583c-23.54,2.958-39.179-11.969-49.674-23.479
					c-12.086-13.254-19.885-28.89-24.253-49.089c-2.21-10.219-3.261-23.645-1.165-33.181c4.388-19.967,19.246-29.285,38.03-35.313
					C607.427,12.955,616.986,11.234,629.316,10.647z"/>
			</g>
		</g>
		<g>
			<path fill-rule="evenodd" clip-rule="evenodd" fill="none" stroke="#000000" stroke-width="0.4258" stroke-linecap="round" d="
				M700.043,42.177c0.466,0.884,1.245,1.812,1.023,2.875c-0.406,0.603-0.694,0.811-1.575,1.322
				c-10.438,6.056-34.109,16.082-51.246,23.438c-7.835,3.362-19.978,9.354-27.742,7.582c-6.653-1.518-14.808-6.062-22.878-10.698
				c-12.57-7.221-24.018-14.102-32.51-21.385c-0.952-0.816-2.609-1.672-2.061-3.521"/>
			<path fill-rule="evenodd" clip-rule="evenodd" fill="none" stroke="#000000" stroke-width="0.4258" stroke-linecap="round" d="
				M705.476,62.745c0.686,8.451-11.938,15.391-18.805,19.536c-17.65,10.658-41.067,21.503-60.542,21.501
				c-20.21,0.404-40.523-11.353-55.387-24.514c-5.258-4.657-12.438-11.079-12.259-17.026c-0.056-0.155-0.074-0.418-0.086-0.661"/>
			<path fill-rule="evenodd" clip-rule="evenodd" fill="none" stroke="#000000" stroke-width="0.4258" stroke-linecap="round" d="
				M703.342,87.581c-0.019,0.188-0.083,0.307-0.137,0.437c-1.681,6.531-5.336,10.458-11.192,15.443
				c-15.476,13.177-38.817,26.056-58.898,27.875c-6.135,0.556-11.254,0.539-17.269-0.584c-17.355-3.237-35.528-16.555-46.744-30.05
				c-3.686-4.433-7.253-9.54-8.182-15.061"/>
			<path fill-rule="evenodd" clip-rule="evenodd" fill="none" stroke="#000000" stroke-width="0.4258" stroke-linecap="round" d="
				M569.265,110.477c12.363,24.292,37.919,42.871,65.113,40.057c17.172-1.777,33.034-10.892,46.432-22.138
				c5.644-4.739,11.006-9.948,14.575-17.337"/>
			<path fill-rule="evenodd" clip-rule="evenodd" fill="none" stroke="#000000" stroke-width="0.4258" stroke-linecap="round" d="
				M634.459,10.355c2.403-0.132,5.541,0.287,8.008,0.663c37.004,5.638,59.978,29.955,58.253,67.04
				c-0.129,2.807-0.511,5.967-0.953,9.186c-1.65,12.031-4.193,25.255-12.53,36.621"/>
			<path fill-rule="evenodd" clip-rule="evenodd" fill="none" stroke="#000000" stroke-width="0.4258" stroke-linecap="round" d="
				M606.324,13.363c3.704-1.039,8.691-0.997,13.374-0.193c31.724,5.443,59.638,25.734,63.562,60.814
				c1.081,9.676,0.881,19.913-0.392,30.075c-1.6,12.792-4.088,28.556-13.289,36.881"/>
			<path fill-rule="evenodd" clip-rule="evenodd" fill="none" stroke="#000000" stroke-width="0.4258" stroke-linecap="round" d="
				M583.429,21.61c5.39-3.109,13.569-0.387,19.989,2.033c27.278,10.282,49.51,27.894,54.422,61.013
				c1.88,12.663,1.902,25.887,0.582,39.777c-1.062,11.151-2.116,25.976-10.963,29.119"/>
			<path fill-rule="evenodd" clip-rule="evenodd" fill="none" stroke="#000000" stroke-width="0.4258" stroke-linecap="round" d="
				M567.518,34.416c2.097-1.859,6.631,0.731,10.057,2.452c14.45,7.254,32.141,18.407,41.823,26.429
				c1.95,1.615,4.249,3.715,5.681,5.44c6.438,7.765,5.162,21.927,5.598,31.636c0.279,6.18,0.109,12.391,0.39,18.627
				c0.571,12.737,0.582,25.591-0.429,37.428c-0.184,0.259-0.394,0.533-0.683,0.675c-0.944,0.186-1.908,0.131-2.868,0.136"/>
			<path fill-rule="evenodd" clip-rule="evenodd" fill="none" stroke="#000000" stroke-width="0.4258" stroke-linecap="round" d="
				M570.623,112.999c-7.871-17.086-12.722-37.449-9.605-55.479c5.045-29.179,31.836-43.159,62.102-46.689
				c2.72-0.317,6.005-0.524,9.011-0.669"/>
			<path fill-rule="evenodd" clip-rule="evenodd" fill="none" stroke="#000000" stroke-width="0.4258" stroke-linecap="round" d="
				M586.34,134.925c-10.432-11.079-14.079-34.213-14.846-49.464c-0.887-17.628,2.812-34.872,15.16-47.522
				c14.186-14.536,40.77-23.368,61.18-24.77c5.499-0.378,9.795,0.132,13.401,1.359"/>
			<path fill-rule="evenodd" clip-rule="evenodd" fill="none" stroke="#000000" stroke-width="0.4258" stroke-linecap="round" d="
				M604.771,150.253c-10.407-6.273-12.421-25.144-13.681-37.822c-2.177-21.932-0.312-44.673,14.232-61.014
				c7.913-8.891,17.893-14.886,29.173-19.774c10.287-4.458,28.481-11.242,40.24-10.313c3.173,0.25,6.294,1.296,8.231,2.609"/>
			<path fill-rule="evenodd" clip-rule="evenodd" fill="none" stroke="#000000" stroke-width="0.4258" stroke-linecap="round" d="
				M625.341,157.044c-8.134,0.946-8.142-12.357-8.831-19.971c-1.35-14.914-2.04-31.605-0.775-46.762
				c0.664-7.93,2.364-18.143,7.932-23.074c3.279-2.905,9.346-6.677,14.448-9.467c16.646-9.102,38.42-18.985,52.018-21.318
				c3.982-0.684,6.885-0.908,8.745,3.396"/>
		</g>
	</g>
</g>
</svg>
