<?xml version="1.0" encoding="utf-8"?>
<!-- Generator: Adobe Illustrator 14.0.0, SVG Export Plug-In . SVG Version: 6.00 Build 43363)  -->
<!DOCTYPE svg PUBLIC "-//W3C//DTD SVG 1.1//EN" "http://www.w3.org/Graphics/SVG/1.1/DTD/svg11.dtd">
<svg version="1.1" id="Layer_1" xmlns="http://www.w3.org/2000/svg" xmlns:xlink="http://www.w3.org/1999/xlink" x="0px" y="0px"
	 width="683px" height="283px" viewBox="0 0 683 283" enable-background="new 0 0 683 283" xml:space="preserve">
<g>
	<g>
		<polyline fill="none" stroke="#000000" stroke-width="1.6654" stroke-linecap="round" stroke-miterlimit="3.25" points="
			33.843,193.661 37.136,197.851 41.275,201.27 45.098,205.04 49.109,208.606 53.488,211.707 58.226,214.219 63.218,216.188 
			68.335,217.815 73.479,219.353 77.857,221.189 73.462,224.223 68.619,226.536 64.258,229.617 61.568,234.207 59.474,239.127 
			60.606,244.068 64.764,247.443 67.43,250.66 65.656,255.729 64.459,260.945 64.985,266.213 68.182,270.434 72.997,272.724 
			78.253,273.754 83.613,273.696 88.912,272.859 94.15,271.683 99.393,270.528 104.712,269.863 110.007,270.512 114.84,272.815 
			119.6,275.295 124.632,277.156 129.893,278.154 135.243,277.907 140.531,276.989 145.762,275.78 150.989,274.557 156.269,273.589 
			161.621,273.164 166.896,272.203 172.063,270.741 177.312,269.632 182.627,268.881 187.953,268.201 193.238,267.269 
			198.343,265.628 202.941,262.891 206.752,259.132 209.977,254.841 213.077,250.457 216.969,247.051 222.103,245.481 
			227.176,243.726 232.149,241.703 236.991,239.39 241.647,236.724 246.038,233.644 250.125,230.164 253.868,226.32 
			257.103,222.043 259.333,217.178 260.669,211.987 261.141,206.646 260.709,201.308 259.197,196.184 256.328,191.697 
			252.042,188.531 246.787,187.646 241.914,186.367 241.658,181.003 241.402,175.64 240.842,170.311 239.871,165.031 
			238.896,159.75 237.289,154.635 235.583,149.543 233.594,144.571 231.157,139.787 228.718,135.004 225.582,130.647 
			222.434,126.299 218.876,122.301 215.06,118.523 211.087,114.932 206.69,111.85 202.296,108.768 197.477,106.415 192.616,104.132 
			187.611,102.236 182.387,101.041 177.058,100.448 171.695,100.366 166.34,100.707 161.016,101.38 155.729,102.316 
			150.481,103.456 145.269,104.745 140.128,106.288 135.035,107.987 129.881,109.489 124.597,110.385 119.261,110.068 
			114.094,108.632 109.046,106.806 103.94,105.15 98.64,104.484 94.006,102.282 90.617,98.146 88.514,93.223 87.495,87.966 
			87.54,82.624 91.224,78.826 95.753,75.952 100.156,72.879 104.6,69.865 109.119,66.966 113.725,64.208 118.447,61.653 
			123.259,59.272 128.104,56.961 132.924,54.593 137.594,51.948 141.787,48.617 145.364,44.619 148.141,40.059 149.523,34.891 
			149.735,29.545 148.975,24.246 147.385,19.131 145.04,14.313 141.945,9.938 137.747,6.707 132.612,7.715 128.074,10.566 
			123.827,13.85 119.489,17.015 115.086,20.089 110.656,23.121 106.242,26.179 101.893,29.325 97.67,32.641 93.605,36.146 
			89.689,39.818 85.876,43.598 82.12,47.433 78.362,51.269 74.547,55.046 70.617,58.704 70.256,54.433 70.109,49.065 70.675,43.741 
			72.625,38.742 73.618,33.478 73.683,28.121 72.607,22.883 69.948,18.273 65.511,15.405 60.245,14.625 54.991,15.601 
			50.426,18.344 47.076,22.485 45.882,27.72 45.059,33.026 44.523,38.366 44.19,43.724 43.98,49.09 43.816,54.458 43.62,59.822 
			41.062,63.874 35.875,65.254 30.658,66.527 25.493,67.987 20.534,70.028 16.089,72.99 12.752,77.135 11.227,82.231 11.323,87.587 
			12.27,92.869 12.101,98.096 11.35,103.411 10.887,108.76 10.308,114.097 9.251,119.356 7.7,124.496 6.433,129.706 6.294,135.049 
			7.468,140.271 10.244,144.846 14.236,148.416 18.852,151.146 23.722,153.406 23.75,158.493 23.35,163.847 23.37,169.213 
			24.271,174.492 26.632,179.28 29.337,183.916 31.615,188.777 33.843,193.661 		"/>
	</g>
	<g>
		<polyline fill="none" stroke="#000000" stroke-width="1.6654" stroke-linecap="round" stroke-miterlimit="3.25" points="
			464.668,184.882 467.917,188.22 471.493,191.262 475.223,194.112 479.102,196.755 483.126,199.164 487.26,201.382 
			491.414,203.565 495.426,206.004 498.954,209.102 501.029,212.697 500.998,217.367 499.639,221.859 498.043,226.246 
			496.934,230.767 496.595,235.429 497.317,239.804 498.943,244.195 500.196,247.63 501.35,252.18 502.711,256.656 504.849,260.764 
			508.03,264.126 512.064,266.464 516.557,267.787 521.222,268.257 525.912,268.126 530.586,267.694 535.259,267.251 
			539.944,267.075 544.599,267.385 549.213,268.18 553.811,269.129 558.438,269.897 563.105,270.267 567.787,270.146 
			572.451,269.62 577.08,268.841 581.691,267.95 586.298,267.059 590.911,266.193 595.504,265.233 600.078,264.177 604.65,263.127 
			609.227,262.079 613.779,260.934 618.258,259.533 622.58,257.715 626.645,255.392 630.416,252.62 633.998,249.589 
			637.592,246.567 641.283,243.953 645.388,241.677 649.588,239.578 653.78,237.463 657.894,235.205 661.867,232.71 
			665.632,229.915 669.121,226.776 672.245,223.272 674.872,219.387 676.846,215.145 678.093,210.626 678.546,205.959 
			678.157,201.291 676.892,196.795 674.77,192.649 671.934,188.951 668.732,185.564 665.992,182.116 664.127,177.807 
			662.886,173.277 661.901,168.698 660.948,164.101 659.926,159.519 658.715,154.986 657.309,150.506 655.675,146.118 
			653.783,141.823 651.648,137.64 649.22,133.621 646.546,129.763 643.62,126.11 640.438,122.655 637.037,119.439 633.389,116.484 
			629.544,113.789 625.49,111.428 621.269,109.373 616.901,107.689 612.389,106.43 607.772,105.603 603.103,105.179 598.41,105.11 
			593.722,105.338 589.051,105.805 584.399,106.456 579.77,107.23 575.15,108.068 570.522,108.857 565.863,109.419 561.177,109.56 
			556.524,109.121 551.945,108.104 547.481,106.648 543.145,104.856 539.008,102.684 535.51,99.875 532.712,96.128 530.99,91.777 
			530.462,87.124 531.239,82.516 533.411,78.43 536.48,74.883 539.975,71.746 543.705,68.896 547.587,66.252 551.567,63.768 
			555.62,61.396 559.701,59.076 563.761,56.717 567.721,54.197 571.475,51.375 574.848,48.127 577.683,44.389 579.786,40.222 
			580.992,35.703 581.239,31.03 580.538,26.4 578.915,22.006 576.381,18.065 572.94,14.883 568.734,12.942 564.166,12.678 
			559.609,13.772 555.322,15.687 551.249,18.022 547.312,20.582 543.467,23.275 539.699,26.074 536.006,28.974 532.395,31.974 
			528.852,35.055 525.339,38.167 521.783,41.233 518.072,44.112 514.066,46.558 509.639,48.123 504.945,47.989 501.854,45.866 
			499.252,41.962 497.752,37.522 496.901,32.909 495.985,28.315 494.54,23.859 492.247,19.782 488.954,16.496 484.799,14.478 
			480.168,13.991 475.621,15.066 471.672,17.534 468.642,21.071 466.644,25.321 465.395,29.846 464.621,34.476 464.089,39.141 
			463.568,43.807 462.807,48.44 461.458,52.937 459.368,56.57 456.1,59.94 452.438,62.88 448.73,65.757 445.238,68.886 
			442.236,72.466 440.008,76.552 438.71,81.019 438.24,85.679 438.272,90.372 438.365,94.945 438.42,99.638 438.48,104.333 
			438.513,109.026 438.5,113.719 438.548,118.412 438.93,123.086 439.925,127.651 441.681,131.993 444.186,135.944 447.247,139.488 
			450.541,142.828 453.637,146.358 455.742,150.275 457.46,154.646 459.094,159.043 460.965,163.336 463.22,167.425 
			465.758,171.373 468.459,175.21 471.386,178.882 		"/>
		<path fill="#FF4013" d="M491.46,186.356c-0.005,0.003-0.006,0.006-0.011,0.009C491.452,186.362,491.455,186.359,491.46,186.356
			L491.46,186.356z M462.771,166.155c-0.402,0.216-1.958,1.109-2.858,1.651C459.759,167.77,463.328,165.795,462.771,166.155
			L462.771,166.155z M457.055,169.635c-0.385,0.262-1.819,1.294-2.629,1.902C454.274,171.516,457.566,169.227,457.055,169.635
			L457.055,169.635z M458.302,204.699c-1.02,0.102-1.903,0.179-0.289,0.05c0.616-0.05,1.235-0.112,1.876-0.194
			C459.361,204.613,458.838,204.661,458.302,204.699z M455.891,202.321c-0.026,0.016-0.382,0.053-1.391,0.046
			c2.056,0.021,4.685-0.265,4.541-0.278C458.047,202.201,456.97,202.286,455.891,202.321L455.891,202.321z M454.196,202.359
			c-2.994-0.057-5.511-0.521-2.82-0.174c0.606,0.077,1.235,0.135,1.911,0.17C453.583,202.361,453.884,202.363,454.196,202.359z
			 M452.373,202.318c-1.373-0.112-2.882-0.354-4.214-0.741c1.153,0.341,2.438,0.59,3.896,0.731
			C452.16,202.312,452.265,202.315,452.373,202.318z M442.916,198.691c-0.176-0.173-0.126-0.088,0.315,0.321
			c1.179,1.091,2.521,1.744,3.204,2.046c0.682,0.3,0.609,0.315-0.464-0.187c-1.833-0.856-4.354-3.567-3.686-2.732
			c0.899,1.103,2.113,2.049,3.729,2.8c1.246,0.561,2.665,0.951,4.296,1.182C446.807,201.515,444.418,200.208,442.916,198.691
			L442.916,198.691z M455.798,204.798c-0.937,0.008-2.968-0.027-4.619-0.232c-1.652-0.203-3.257-0.568-4.602-1.036
			c-2.689-0.938-4.302-2.3-4.482-2.484c-0.62-0.509-1.178-1.066-1.675-1.691c1.555,1.988,3.958,3.513,6.75,4.393
			c1.396,0.438,2.883,0.727,4.374,0.891C453.035,204.798,454.861,204.826,455.798,204.798L455.798,204.798z M457.313,167.039
			c-0.582,0.384-1.157,0.773-1.74,1.185c0.839-0.587,1.5-1.02,2.113-1.409C457.562,166.889,457.439,166.963,457.313,167.039z
			 M466.625,163.564c0.704-0.324,1.54-0.734,2.341-1.058c0.755-0.312,1.539-0.638,2.698-1.038c-0.095,0.059-1.981,0.787-3.443,1.412
			c0.005,0.013,0.01,0.021,0.014,0.034c0.715-0.29,1.559-0.628,2.563-1.012c0.34-0.133,0.679-0.262,1.03-0.392
			c0.022-0.03-0.522,0.151-0.725,0.232c0.25-0.129,1.134-0.479,2.284-0.87c0.139-0.052,0.276-0.104,0.418-0.157
			c0.15-0.081-0.73,0.182,0.249-0.124c-0.697,0.183-2.472,0.825-3.584,1.244c1.267-0.41-3.413,1.454-4.527,2.022
			C466.168,163.761,466.393,163.663,466.625,163.564z M474.633,159.807c1.073-0.342,3.019-0.838,4.14-1.101
			c-1.295,0.238-2.9,0.659-4.534,1.183C474.369,159.861,474.498,159.833,474.633,159.807L474.633,159.807z M487.555,157.957
			c0.436-0.411,3.565-0.729,6.414-0.254c0.707,0.123,1.39,0.277,2.061,0.473c4.721,1.593,7.781,5.158,8.184,9.734
			c0.077,0.906,0.06,1.846-0.061,2.841c-0.355,2.993-1.642,6.246-3.883,9.649c-0.742,1.129-1.146,1.663-1.743,2.432
			c-2.063,2.73-4.544,5.147-7.326,7.482c-1.391,1.167-2.87,2.319-4.433,3.473c-0.781,0.578-4.33,2.808-5.646,3.503
			c1.3-0.626-4.841,2.518-4.561,2.386c-0.708,0.294-1.444,0.601-2.179,0.902c-0.736,0.3,0.186-0.098,1.103-0.517
			c-0.822,0.349-1.648,0.688-2.487,1.019c-0.88,0.353-1.764,0.684-2.676,1.003c-2.958,1.062-6.181,1.857-8.905,2.269
			c-1.857,0.311-3.945,0.7-7.863,0.556c-3.919-0.146-7.429-1.097-9.865-2.544c-4.871-2.895-5.526-7.2-4.882-5.598
			c0.727,1.811,1.156,2.115,1.086,1.988c-0.069-0.126-0.461-0.774-0.688-1.241c-0.265-0.545-0.569-1.306-0.784-2.207
			c-0.009,0.031-0.006,0.104,0.021,0.24c-0.462-1.694-0.633-4.309,0.132-7.048c-0.127,0.514-0.256,1.158-0.276,1.397
			c0.237-1.358,0.069-0.269,0.309-1.169c0.641-2.519,1.124-3.758,0.241-0.809c0.429-1.364,0.942-2.512,1.555-3.669
			c0.306-0.579,0.641-1.159,1.025-1.777c0.384-0.617,0.927-1.431,1.283-1.914c0.514-0.749,0.229-0.338,0.057-0.128
			c0.895-1.318,3.35-4.2,3.578-4.479c0.112-0.142-1.667,1.777-3.042,3.636c-1.374,1.86-2.978,4.758-2.391,3.666
			c0.478-0.888,1.662-2.692,1.988-3.179c-0.759,1.057-2.055,3.205-2.558,4.172c0.521-1.062,1.446-2.583,1.999-3.439
			c-0.701,1.059-1.121,1.766-1.311,2.064c0.863-1.519,1.572-2.557,2.502-3.776c0.424-0.535-0.343,0.476,0.564-0.667
			c0.18-0.192-0.581,0.762-0.514,0.705c0.717-0.926,2.272-2.733,2.687-3.17c0.406-0.42-0.974,1.091-0.992,1.134
			c3.039-3.499,7.469-7.049,8.89-8.084c1.433-1.046,0.093-0.062-0.499,0.397c1.65-1.227,2.933-2.123,5.044-3.423
			c1.354-0.83,0.821-0.488,0.316-0.168c0.361-0.215,0.684-0.403,0.896-0.523c0.155-0.088,0.55-0.314,0.82-0.46
			c-0.841,0.491-2.395,1.431-3.053,1.871c1.238-0.764,4.231-2.527,5.369-3.084c-1.772,0.952-3.651,2.029-5.524,3.261
			c3.678-2.364,7.706-4.502,10.969-5.772c-0.575,0.246-0.817,0.379-1.284,0.6c1.215-0.56,3.037-1.315,4.16-1.665
			c0.614-0.216,1.831-0.618,3.045-0.976c-2.121,0.652-3.538,1.189-5.015,1.761c0.032-0.005,0.169-0.051,0.425-0.145
			c-3.279,1.346-5.181,2.17-7.448,3.366c-0.171,0.098-0.345,0.193-0.522,0.295c-0.706,0.433,1.859-0.957,2.134-1.064
			c-3.376,1.721-6.868,3.935-8.351,5.025c3.649-2.541,7.168-4.48,10.238-5.873c-0.771,0.41-3.812,1.926-5.201,2.756
			c6.396-3.64,7.245-3.582,7.795-3.803c-0.515,0.219-1.028,0.445-1.556,0.686c0.134-0.051,0.269-0.102,0.407-0.154
			c2.939-1.289,6.453-2.435,6.277-2.365c-0.131,0.052-2.864,0.935-5.705,2.154c0.302-0.111,0.607-0.219,0.92-0.328
			c3.339-1.364,7.197-2.49,10.512-3.194c-0.536,0.149-0.258,0.083,0.436-0.027c-1.035,0.225-2.525,0.569-3.646,0.894
			c0.388-0.095,1.081-0.276,1.308-0.312c-0.558,0.147-1.447,0.379-1.722,0.483c1.588-0.428,3.285-0.813,4.932-1.09
			c0.34-0.021-0.714,0.139-0.621,0.146c1.563-0.28,3.714-0.562,4.814-0.606c-1.266,0.122-3.804,0.457-4.601,0.625
			c0.521-0.083,1.04-0.158,1.569-0.225c1.054-0.152,1.555-0.208,0.379-0.026c-0.63,0.099-0.617,0.102-0.457,0.082
			c0.724-0.083,3.188-0.336,3.122-0.275c-0.616,0.046-3.096,0.343-3.725,0.486c0.482-0.038,1.752-0.237,1.884-0.214
			c-2.746,0.313-2.667,0.403-3.37,0.514c0.306-0.065,1.102-0.201,1.069-0.22c-1.718,0.3-3.459,0.704-5.261,1.22l0,0
			c0.171-0.017,0.121,0.034-0.036,0.099c0.766-0.217,1.563-0.433,2.978-0.758c-0.367,0.142-1.668,0.442-2.879,0.769
			c0.013,0.006,0.024,0.013,0.037,0.017c1.951-0.558,4.916-1.177,6.855-1.41c-0.881,0.132-4.187,0.729-6.475,1.354
			c0.075-0.011,0.148-0.021,0.226-0.029c-2.872,0.771-6.256,2.038-9.439,3.475c1.558-0.641,3.346-1.451,5.36-2.148
			c0.927-0.32,1.785-0.577,2.686-0.827c1.272-0.392,3.803-1.069,6.076-1.463c2.271-0.395,4.271-0.52,4.679-0.53
			c0.45-0.012-1.127,0.064-2.871,0.299c-1.745,0.234-3.653,0.643-3.673,0.654c-0.04,0.025,3.47-0.606,1.82-0.323
			c-0.859,0.145-2.755,0.535-4.143,0.894c-0.04,0.045-0.079,0.089-0.12,0.136c1.209-0.32,2.629-0.611,2.673-0.686
			c0.595-0.117,1.822-0.363,2.014-0.363c-0.199,0.037-0.501,0.086-0.498,0.102c0.287-0.05,0.699-0.122,0.746-0.111
			c-1.425,0.232-3.415,0.673-5.003,1.097c-0.131,0.05-0.26,0.102-0.396,0.154c0.03-0.002,1.272-0.325,2.328-0.56
			c1.115-0.243-1.191,0.279-3.043,0.815c-0.288,0.102-0.577,0.204-0.875,0.313c0.641-0.2,1.384-0.419,2.257-0.644
			c1.021-0.248,0.999-0.209,2.011-0.413c-1.853,0.424-4.124,1.074-5.947,1.688c-0.653,0.256-1.307,0.525-1.975,0.814
			c1.514-0.564,2.918-0.998,3.753-1.233c0.666-0.209,1.36-0.409,1.612-0.456c-0.619,0.185,1.003-0.246,0.768-0.145
			c-0.891,0.192-2.653,0.736-3.31,0.896c-1.395,0.457-2.919,1.024-4.264,1.575c-0.169,0.076-0.339,0.151-0.513,0.231
			c1.14-0.476,2.23-0.894,3.455-1.308c-0.533,0.246-3.896,1.532-6.294,2.647c-4.837,2.364-9.635,5.178-13.638,8.497
			c-0.163,0.137-0.392,0.339-0.638,0.562c-0.274,0.255-0.542,0.513-0.816,0.78c0.915-0.819,1.774-1.526,2.498-2.09
			c-2.864,2.349,4.344-3.144,4.865-3.435c-2.553,1.711-6.072,4.348-9.071,7.33c-1.5,1.492-2.872,3.057-4.012,4.57
			c-1.139,1.515-2.519,3.723-3.298,5.451c0.764-1.657,1.069-2.202,0.216-0.402c-0.231,0.487-0.439,0.968-0.628,1.452
			c0.345-0.852,0.767-1.735,1.267-2.644c0.503-0.909,1.221-2.035,1.664-2.668c0.887-1.27,1.868-2.519,2.922-3.704
			c2.106-2.37,4.481-4.499,6.718-6.199c-2.621,2.065-6.063,5.473-6.875,6.472c0.599-0.678,1.521-1.652,1.668-1.772
			c-1.109,1.188-4.371,5.095-5.401,6.869c1.311-2.14,2.41-3.514,3.816-5.104s3.021-3.174,4.722-4.642
			c3.404-2.935,7.146-5.36,9.868-6.869c-4.096,2.322-8.602,5.559-12.17,9.042c-1.785,1.74-3.341,3.53-4.601,5.236
			c-1.259,1.708-2.831,4.397-3.562,6.269c0.491-1.306,0.529-1.343,0.214-0.651c-1.009,2.367-1.436,4.536-1.329,6.479
			c0.034,0.392-0.006,0.278,0.011-0.687c0.016-0.795,0.085-1.296,0.144-1.566c-0.069,0.576,0.004,6.693-0.091,1.855
			c-0.047-2.412,1.255-6.383,2.904-9.124c0.824-1.37,1.396-2.117,1.511-2.271c0.116-0.152-0.048-0.016-1.076,1.614
			c-2.057,3.262-2.557,5.263-2.781,6.144c-0.224,0.88-0.229,0.701,0.291-0.873c0.263-0.79,0.75-2.043,1.535-3.488
			s1.819-2.95,2.53-3.888c1.425-1.876,2.57-3.093,1.511-1.838c-0.528,0.626-1.175,1.432-1.829,2.343
			c-0.654,0.913-1.681,2.486-2.407,3.925c-1.456,2.877-1.961,5.485-1.975,7.157c-0.014,1.677,0.005,1.087-0.054,0.731
			c-0.059-0.357-0.359-0.382,0.217,1.788s0.937,2.175,0.819,1.945c-0.118-0.229-0.413-0.859-0.231-0.487
			c0.57,1.182,2.086,3.124,4.688,4.318c1.828,0.832,4.933,1.421,6.699,1.513c-0.062-0.016-2.133-0.189-3.55-0.513
			c-1.415-0.322-2.348-0.651-1.054-0.286c1.588,0.462,3.499,0.745,5.489,0.812c1.988,0.066,3.272-0.043,4.345-0.142
			c2.144-0.198,3.203-0.391,1.762-0.163c3.889-0.547,6.896-1.438,9.423-2.293c3.907-1.397,8.374-3.618,8.856-3.886
			c0.279-0.156,3.037-1.562,5.965-3.498c2.926-1.936,5.915-4.416,7.371-5.869c0.113-0.104,1.529-1.403,2.815-2.783
			c1.284-1.382,2.421-2.834,2.612-3.055c0.951-1.293,1.831-2.71,2.395-3.767s0.891-1.819,1.175-2.559
			c0.57-1.481,1.203-3.014,1.094-5.738c-0.091-2.279-0.753-3.421-1.228-4.194c-0.476-0.772-0.83-1.135-1.081-1.392
			c-1.562-1.613-2.931-2.104-3.896-2.497c-0.962-0.391-1.618-0.656-3.203-1.049c-0.958-0.235-2.604-0.388-3.187-0.521
			C487.781,158.546,487.158,158.298,487.555,157.957L487.555,157.957z M464.577,165.264c0.908-0.467,1.706-0.838,2.24-1.062
			C465.872,164.655,464.98,165.119,464.577,165.264L464.577,165.264z M464.398,165.191c-2.521,1.262-6.346,3.648-8.003,4.802
			c-1.645,1.145,2.864-2.202,7.479-4.615c4.629-2.418,0.842-0.374,2.767-1.257c1.913-0.877-1.82,0.89-3.683,1.884
			C461.108,166.988,464.188,165.333,464.398,165.191L464.398,165.191z M460.823,164.708c0.157-0.117,4.125-2.233,6.399-3.197
			C465.304,162.36,460.665,164.825,460.823,164.708L460.823,164.708z M454.488,168.748c-0.699,0.508-1.245,0.919-1.584,1.154
			C453.532,169.418,454.424,168.74,454.488,168.748L454.488,168.748z M473.667,161.279c-1.165,0.365-1.995,0.704-2.775,1.001
			C466.974,163.772,472.877,161.464,473.667,161.279L473.667,161.279z M447.643,174.385c0.814-0.808,1.732-1.644,1.588-1.457
			C448.934,173.154,447.763,174.332,447.643,174.385L447.643,174.385z M444.422,177.956c0.31-0.428,1.091-1.305,1.358-1.566
			C445.355,176.852,444.568,177.83,444.422,177.956L444.422,177.956z M439.363,186.051c0.132-0.388,0.903-2.054,0.94-2.036
			C439.988,184.62,439.439,185.948,439.363,186.051L439.363,186.051z M474.102,159.391c0.791-0.233,2.243-0.663,2.607-0.722
			C475.92,158.861,474.468,159.312,474.102,159.391L474.102,159.391z M469.521,160.882c0.523-0.237,1.707-0.66,2.089-0.77
			C470.979,160.326,469.726,160.837,469.521,160.882L469.521,160.882z M472.49,159.811c0.336-0.136,1.812-0.615,1.839-0.58
			C473.774,159.393,472.604,159.807,472.49,159.811L472.49,159.811z"/>
	</g>
	<g>
		<g>
			<path fill="none" stroke="#231F20" stroke-width="3.1542" d="M413.504,107.087c-17.389-3.096-35.288-4.711-53.565-4.711
				c-41.569,0-81.188,8.354-117.267,23.476"/>
			<polygon fill="#231F20" points="424.467,109.039 407.895,112.6 412.685,106.941 410.142,99.978 			"/>
		</g>
	</g>
</g>
</svg>
