<?xml version="1.0" encoding="utf-8"?>
<!-- Generator: Adobe Illustrator 14.0.0, SVG Export Plug-In . SVG Version: 6.00 Build 43363)  -->
<!DOCTYPE svg PUBLIC "-//W3C//DTD SVG 1.1//EN" "http://www.w3.org/Graphics/SVG/1.1/DTD/svg11.dtd">
<svg version="1.1" id="Layer_1" xmlns="http://www.w3.org/2000/svg" xmlns:xlink="http://www.w3.org/1999/xlink" x="0px" y="0px"
	 width="475px" height="224px" viewBox="0 0 475 224" enable-background="new 0 0 475 224" xml:space="preserve">
<g>
	<circle opacity="0.2" fill="#1B1F8A" enable-background="new    " cx="370.756" cy="131.296" r="44.967"/>
	<path fill="none" stroke="#000000" stroke-width="1.7127" d="M464.266,7.458c0,0,15.896,70.656-52.19,146.605
		c-63.482,70.812-110.276-48.896-214.749-60.037"/>
	<circle fill="none" stroke="#000000" stroke-width="1.713" cx="370.756" cy="131.296" r="44.967"/>
	<circle cx="370.757" cy="131.296" r="1.966"/>
	<circle cx="380.404" cy="175.16" r="2.818"/>
	<line fill="none" stroke="#000000" x1="370.756" y1="131.297" x2="337.274" y2="101.28"/>
</g>
<g>
	<path d="M359.751,99.192c0-0.461,0-0.502-0.439-0.502c-1.184,1.257-2.864,1.257-3.475,1.257v0.592c0.383,0,1.513,0,2.51-0.491
		v9.925c0,0.689-0.058,0.92-1.782,0.92h-0.612v0.592c0.67-0.059,2.336-0.059,3.102-0.059c0.768,0,2.433,0,3.104,0.059v-0.592h-0.617
		c-1.731,0-1.789-0.212-1.789-0.923"/>
	<path d="M372.079,97.867c0.096-0.249,0.096-0.326,0.096-0.344c0-0.211-0.173-0.386-0.383-0.386c-0.133,0-0.265,0.06-0.322,0.175
		l-6.594,18.25c-0.096,0.25-0.096,0.326-0.096,0.346c0,0.211,0.172,0.382,0.381,0.382c0.246,0,0.304-0.133,0.418-0.458"/>
	<path d="M374.415,110.746c-0.078,0.27-0.078,0.308-0.078,0.441c0,0.346,0.268,0.518,0.551,0.518c0.571,0,0.686-0.461,0.837-1.076
		c0.189-0.689,0.076-0.325,0.893-3.553c1.597,0.06,3.249,0.385,3.249,1.634c0,0.134,0,0.229-0.025,0.423
		c-0.051,0.307-0.062,0.519-0.062,0.671c0,1.134,0.766,1.901,1.762,1.901c0.613,0,1.11-0.347,1.494-1
		c0.479-0.808,0.709-1.922,0.709-1.96c0-0.192-0.172-0.192-0.23-0.192c-0.191,0-0.21,0.076-0.267,0.343
		c-0.364,1.316-0.806,2.366-1.667,2.366c-0.403,0-0.613-0.248-0.613-0.918c0-0.287,0.07-0.745,0.141-1.071
		c0.036-0.172,0.091-0.42,0.091-0.632c0-1.796-2.632-1.931-3.7-1.969c0.633-0.345,1.246-0.861,1.764-1.3
		c0.88-0.746,1.437-1.206,2.203-1.532c-0.049,0.094-0.119,0.316-0.119,0.409c0,0.224,0.135,0.651,0.732,0.651
		c0.617,0,1.043-0.553,1.043-1.03c0-0.173-0.08-0.669-0.766-0.669c-1.168,0-2.298,0.965-3.139,1.681
		c-1.301,1.119-1.76,1.408-2.449,1.641c0.059-0.211,0.287-1.169,0.383-1.494c0.114-0.498,0.345-1.398,0.345-1.494
		c0-0.325-0.229-0.517-0.555-0.517c-0.057,0-0.594,0-0.765,0.69"/>
</g>
<line fill="none" stroke="#000000" stroke-width="1.7616" stroke-miterlimit="10" x1="7.902" y1="196.126" x2="165.768" y2="196.126"/>
<path d="M89.337,204.904c0.202-0.807,0.268-1.029,2.034-1.029c0.536,0,0.715,0,0.715-0.42c0-0.266-0.246-0.266-0.335-0.266
	c-0.648,0-2.301,0.066-2.95,0.066c-0.67,0-2.302-0.066-2.973-0.066c-0.156,0-0.447,0-0.447,0.442c0,0.243,0.201,0.243,0.626,0.243
	c0.939,0,1.542,0,1.542,0.425c0,0.113,0,0.157-0.045,0.358l-3.018,12.062c-0.201,0.828-0.268,1.052-2.034,1.052
	c-0.515,0-0.715,0-0.715,0.441c0,0.243,0.268,0.243,0.335,0.243c0.648,0,2.28-0.065,2.927-0.065c0.67,0,2.325,0.065,2.995,0.065
	c0.178,0,0.447,0,0.447-0.42c0-0.267-0.179-0.267-0.67-0.267c-0.402,0-0.515,0-0.961-0.045c-0.469-0.043-0.559-0.134-0.559-0.38
	c0-0.179,0.044-0.358,0.089-0.515"/>
<path fill="none" stroke="#000000" stroke-width="3.4254" stroke-miterlimit="10" d="M261.214,138.657
	c-39.696,5.723-75.515,23.438-103.664,49.356"/>
<polygon points="270.789,137.276 258.091,144.734 260.499,138.759 256.501,133.71 "/>
<path d="M196.6,133.64c1.236-3.666,4.693-3.698,5.043-3.698c4.788,0,5.137,5.547,5.137,8.051c0,1.934-0.159,2.473-0.383,3.106
	c-0.701,2.312-1.658,5.989-1.658,6.813c0,0.348,0.158,0.57,0.41,0.57c0.41,0,0.662-0.698,1.008-1.902
	c0.726-2.664,1.041-4.473,1.166-5.455c0.062-0.414,0.125-0.825,0.252-1.237c1.018-3.141,3.051-7.866,4.32-10.371
	c0.221-0.382,0.604-1.079,0.604-1.206c0-0.317-0.317-0.317-0.381-0.317c-0.094,0-0.282,0-0.377,0.222
	c-1.642,3.015-2.902,6.186-4.166,9.389c-0.034-0.983-0.066-3.394-1.303-6.47c-0.762-1.936-2.029-3.489-4.218-3.489
	c-3.965,0-6.183,4.847-6.183,5.835c0,0.318,0.285,0.318,0.602,0.318"/>
</svg>
