<?xml version="1.0" encoding="utf-8"?>
<!-- Generator: Adobe Illustrator 14.0.0, SVG Export Plug-In . SVG Version: 6.00 Build 43363)  -->
<!DOCTYPE svg PUBLIC "-//W3C//DTD SVG 1.1//EN" "http://www.w3.org/Graphics/SVG/1.1/DTD/svg11.dtd">
<svg version="1.1" id="Layer_1" xmlns="http://www.w3.org/2000/svg" xmlns:xlink="http://www.w3.org/1999/xlink" x="0px" y="0px"
	 width="384px" height="245px" viewBox="0 0 384 245" enable-background="new 0 0 384 245" xml:space="preserve">
<linearGradient id="SVGID_1_" gradientUnits="userSpaceOnUse" x1="195.3545" y1="132.127" x2="47.688" y2="156.127">
	<stop  offset="0" style="stop-color:#000000;stop-opacity:0"/>
	<stop  offset="1" style="stop-color:#000000"/>
</linearGradient>
<polygon fill="url(#SVGID_1_)" points="34.75,156.417 35.125,159.042 178.5,136.167 176.75,140.792 189.25,133.167 175,129.792 
	177.875,133.542 "/>
<polygon opacity="0.2" fill="#1B1F8A" points="34.839,157.801 336.081,237.763 377.823,125.615 179.174,94.937 "/>
<polygon fill="none" stroke="#000000" stroke-linejoin="round" points="55.46,163.274 73.375,154.21 53.179,149.812 34.25,157.801 
	"/>
<polygon fill="none" stroke="#231F20" stroke-width="1.4635" stroke-linejoin="round" points="34.839,157.801 336.081,237.763 
	377.823,125.615 179.174,94.937 "/>
<g>
	<g>
		
			<line fill="none" stroke="#231F20" stroke-width="1.4635" stroke-linejoin="round" x1="90.093" y1="124.17" x2="138.472" y2="103.1"/>
		<polygon fill="#231F20" points="143.209,101.037 137.722,106.671 138.118,103.254 135.346,101.217 		"/>
	</g>
</g>
<g>
	<g>
		
			<line fill="none" stroke="#231F20" stroke-width="1.4635" stroke-linejoin="round" x1="117.062" y1="189.191" x2="213.402" y2="214.764"/>
		<polygon fill="#231F20" points="218.396,216.089 210.596,217.096 213.029,214.665 212.122,211.347 		"/>
	</g>
</g>
<g>
	<g>
		<line fill="#FFFFFF" x1="34.839" y1="157.801" x2="179.677" y2="25.535"/>
		<polygon fill="#FFFFFF" points="182.284,23.155 179.98,28.01 179.482,25.713 177.24,25.009 		"/>
	</g>
	<g>
		<line fill="none" stroke="#231F20" stroke-width="2.7305" x1="34.839" y1="157.801" x2="179.677" y2="25.535"/>
		<polygon fill="#231F20" points="186.795,19.035 180.506,32.293 179.145,26.021 173.022,24.098 		"/>
	</g>
</g>
<g>
	<g>
		<line fill="#FFFFFF" x1="34.839" y1="157.801" x2="21.139" y2="44.224"/>
		<polygon fill="#FFFFFF" points="20.716,40.719 23.33,45.415 21.17,44.486 19.294,45.902 		"/>
	</g>
	<g>
		<line fill="none" stroke="#231F20" stroke-width="2.7305" x1="34.839" y1="157.801" x2="21.139" y2="44.224"/>
		<polygon fill="#231F20" points="19.984,34.654 27.121,47.476 21.225,44.939 16.102,48.805 		"/>
	</g>
</g>
<circle fill="#231F20" cx="34.839" cy="157.801" r="3.591"/>
<g>
	<defs>
		<rect id="SVGID_2_" x="190" y="4.908" width="14" height="18.8"/>
	</defs>
	<clipPath id="SVGID_3_">
		<use xlink:href="#SVGID_2_"  overflow="visible"/>
	</clipPath>
	<path clip-path="url(#SVGID_3_)" d="M198.199,6.858c0-0.688-0.603-1.351-1.387-1.351c-0.889,0-1.412,0.713-1.412,1.351
		c0,0.687,0.602,1.349,1.386,1.349C197.675,8.207,198.199,7.494,198.199,6.858"/>
	<path clip-path="url(#SVGID_3_)" d="M190.828,21.911c-0.104,0.363-0.104,0.415-0.104,0.596c0,0.468,0.36,0.7,0.746,0.7
		c0.771,0,0.925-0.623,1.129-1.454c0.257-0.934,0.104-0.44,1.207-4.804c2.158,0.079,4.394,0.52,4.394,2.208
		c0,0.182,0,0.312-0.034,0.571c-0.068,0.415-0.085,0.701-0.085,0.908c0,1.532,1.036,2.57,2.383,2.57c0.829,0,1.502-0.468,2.02-1.352
		c0.648-1.092,0.96-2.6,0.96-2.651c0-0.26-0.233-0.26-0.312-0.26c-0.259,0-0.285,0.104-0.361,0.465
		c-0.492,1.779-1.089,3.198-2.255,3.198c-0.544,0-0.829-0.336-0.829-1.241c0-0.388,0.097-1.009,0.192-1.448
		c0.048-0.232,0.12-0.568,0.12-0.854c0-2.43-3.557-2.612-5.001-2.663c0.855-0.466,1.684-1.164,2.383-1.759
		c1.191-1.008,1.943-1.629,2.979-2.07c-0.064,0.126-0.16,0.428-0.16,0.554c0,0.302,0.182,0.881,0.99,0.881
		c0.834,0,1.409-0.749,1.409-1.395c0-0.232-0.106-0.904-1.036-0.904c-1.578,0-3.104,1.306-4.242,2.272
		c-1.759,1.514-2.38,1.904-3.312,2.219c0.078-0.285,0.388-1.58,0.518-2.02c0.154-0.674,0.466-1.892,0.466-2.021
		c0-0.44-0.31-0.699-0.75-0.699c-0.077,0-0.802,0-1.034,0.935"/>
</g>
<line fill="#FFFFFF" stroke="#231F20" stroke-dasharray="5.6396" x1="21.139" y1="44.225" x2="179.677" y2="25.535"/>
<g>
	<defs>
		<rect id="SVGID_4_" x="147.97" y="204.065" width="20" height="23"/>
	</defs>
	<clipPath id="SVGID_5_">
		<use xlink:href="#SVGID_4_"  overflow="visible"/>
	</clipPath>
	<polyline clip-path="url(#SVGID_5_)" points="154.533,205.089 151.072,208.6 151.537,209.064 154.533,206.464 157.504,209.064 
		157.969,208.6 	"/>
	<path clip-path="url(#SVGID_5_)" d="M157.827,213.167c-0.427,0-0.802,0-1.175,0.366c-0.428,0.393-0.481,0.836-0.481,1.02
		c0,0.627,0.464,0.914,0.955,0.914c0.748,0,1.445-0.608,1.445-1.622c0-1.241-1.207-2.18-3.027-2.18
		c-3.462,0-6.873,3.694-6.873,7.336c0,2.324,1.496,4.364,4.18,4.364c3.689,0,5.858-2.757,5.858-3.069
		c0-0.155-0.156-0.338-0.312-0.338c-0.129,0-0.181,0.052-0.336,0.258c-2.04,2.55-4.856,2.55-5.165,2.55
		c-1.629,0-2.325-1.258-2.325-2.798c0-1.054,0.516-3.542,1.395-5.135c0.801-1.463,2.222-2.568,3.642-2.568
		C156.484,212.265,157.467,212.558,157.827,213.167"/>
	<path clip-path="url(#SVGID_5_)" d="M164.77,215.472c0-0.486-0.036-0.506-0.535-0.506c-1.139,1.082-2.759,1.1-3.488,1.1v0.7
		c0.434,0,1.628,0,2.622-0.534v9.204c0,0.595,0,0.83-1.809,0.83h-0.687v0.7c0.327-0.019,2.557-0.073,3.228-0.073
		c0.562,0,2.846,0.055,3.246,0.073v-0.7h-0.71c-1.867,0-1.867-0.234-1.867-0.828"/>
</g>
<g>
	<defs>
		<rect id="SVGID_6_" x="137.962" y="76.965" width="20" height="23"/>
	</defs>
	<clipPath id="SVGID_7_">
		<use xlink:href="#SVGID_6_"  overflow="visible"/>
	</clipPath>
	<polyline clip-path="url(#SVGID_7_)" points="144.525,77.988 141.064,81.499 141.529,81.964 144.525,79.363 147.496,81.964 
		147.961,81.499 	"/>
	<path clip-path="url(#SVGID_7_)" d="M147.819,86.066c-0.427,0-0.801,0-1.175,0.366c-0.427,0.393-0.481,0.836-0.481,1.02
		c0,0.627,0.464,0.914,0.955,0.914c0.748,0,1.446-0.608,1.446-1.622c0-1.241-1.208-2.18-3.028-2.18
		c-3.461,0-6.873,3.694-6.873,7.336c0,2.324,1.496,4.364,4.18,4.364c3.689,0,5.858-2.757,5.858-3.069
		c0-0.155-0.156-0.338-0.312-0.338c-0.129,0-0.181,0.052-0.336,0.258c-2.041,2.55-4.856,2.55-5.166,2.55
		c-1.628,0-2.325-1.258-2.325-2.798c0-1.054,0.516-3.542,1.395-5.135c0.801-1.463,2.221-2.568,3.641-2.568
		C146.477,85.164,147.459,85.457,147.819,86.066"/>
	<path clip-path="url(#SVGID_7_)" d="M157.862,96.564h-0.612c-0.054,0.409-0.234,1.504-0.467,1.689
		c-0.145,0.111-1.527,0.111-1.779,0.111h-3.305c1.886-1.687,2.515-2.194,3.593-3.047c1.329-1.069,2.57-2.193,2.57-3.916
		c0-2.194-1.896-3.537-4.184-3.537c-2.216,0-3.718,1.556-3.718,3.199c0,0.911,0.771,1.002,0.95,1.002c0.43,0,0.949-0.306,0.949-0.95
		c0-0.323-0.131-0.95-1.104-0.95c0.562-1.221,1.795-1.6,2.648-1.6c1.812,0,2.757,1.404,2.757,2.861c0,1.565-1.114,2.807-1.69,3.454
		l-4.331,4.282c-0.18,0.162-0.18,0.197-0.18,0.702h7.364"/>
</g>
<g>
	<defs>
		<rect id="SVGID_8_" x="3.864" y="6.911" width="40" height="23"/>
	</defs>
	<clipPath id="SVGID_9_">
		<use xlink:href="#SVGID_8_"  overflow="visible"/>
	</clipPath>
	<path clip-path="url(#SVGID_9_)" d="M11.663,8.861c0-0.688-0.602-1.351-1.387-1.351c-0.889,0-1.412,0.713-1.412,1.351
		c0,0.687,0.602,1.349,1.386,1.349C11.139,10.21,11.663,9.497,11.663,8.861"/>
	<path clip-path="url(#SVGID_9_)" d="M4.292,23.914c-0.104,0.363-0.104,0.415-0.104,0.596c0,0.468,0.36,0.7,0.746,0.7
		c0.771,0,0.925-0.623,1.129-1.454c0.257-0.934,0.103-0.44,1.207-4.804c2.158,0.079,4.393,0.52,4.393,2.208
		c0,0.182,0,0.312-0.034,0.571c-0.068,0.415-0.084,0.701-0.084,0.908c0,1.532,1.036,2.57,2.383,2.57c0.829,0,1.502-0.468,2.02-1.352
		c0.648-1.092,0.959-2.6,0.959-2.651c0-0.26-0.233-0.26-0.311-0.26c-0.259,0-0.285,0.104-0.362,0.465
		c-0.492,1.779-1.088,3.198-2.254,3.198c-0.543,0-0.829-0.336-0.829-1.241c0-0.388,0.096-1.009,0.192-1.448
		c0.048-0.232,0.12-0.568,0.12-0.854c0-2.43-3.557-2.612-5.001-2.663c0.855-0.466,1.684-1.164,2.383-1.759
		c1.191-1.008,1.943-1.629,2.979-2.07c-0.064,0.126-0.16,0.428-0.16,0.554c0,0.302,0.182,0.881,0.991,0.881
		c0.834,0,1.409-0.749,1.409-1.395c0-0.232-0.106-0.904-1.037-0.904c-1.578,0-3.104,1.306-4.242,2.272
		c-1.759,1.514-2.38,1.904-3.311,2.219c0.078-0.285,0.388-1.58,0.517-2.02c0.155-0.674,0.466-1.892,0.466-2.021
		c0-0.44-0.31-0.699-0.75-0.699c-0.078,0-0.802,0-1.035,0.935"/>
	<path clip-path="url(#SVGID_9_)" d="M26.265,16.884c0-0.235,0-0.673-0.441-0.673c-0.459,0-0.459,0.42-0.459,0.692v11.009h-5.503
		c-0.252,0-0.683,0-0.683,0.441c0,0.459,0.417,0.459,0.689,0.459h12.004c0.236,0,0.671,0,0.671-0.441
		c0-0.459-0.42-0.459-0.675-0.459h-5.602"/>
	<path clip-path="url(#SVGID_9_)" d="M41.807,21.911c-0.665,0.11-0.942,0.622-0.942,1.023c0,0.494,0.372,0.677,0.691,0.677
		c0.389,0,1.009-0.297,1.009-1.188c0-1.261-1.409-1.614-2.384-1.614c-2.707,0-5.217,2.511-5.217,5.037
		c0,1.564,1.092,3.163,3.364,3.163c3.073,0,4.511-1.809,4.511-2.064c0-0.11-0.164-0.312-0.311-0.312
		c-0.109,0-0.146,0.037-0.291,0.185c-1.42,1.691-3.551,1.691-3.879,1.691c-1.312,0-1.895-0.893-1.895-2.022
		c0-0.529,0.256-2.516,1.203-3.773c0.693-0.893,1.642-1.404,2.553-1.404c0.255,0,1.13,0.039,1.586,0.6"/>
</g>
</svg>
