<?xml version="1.0" encoding="utf-8"?>
<!-- Generator: Adobe Illustrator 14.0.0, SVG Export Plug-In . SVG Version: 6.00 Build 43363)  -->
<!DOCTYPE svg PUBLIC "-//W3C//DTD SVG 1.1//EN" "http://www.w3.org/Graphics/SVG/1.1/DTD/svg11.dtd">
<svg version="1.1" id="Layer_1" xmlns="http://www.w3.org/2000/svg" xmlns:xlink="http://www.w3.org/1999/xlink" x="0px" y="0px"
	 width="743px" height="263px" viewBox="0 0 743 263" enable-background="new 0 0 743 263" xml:space="preserve">
<g>
	<path opacity="0.3" fill="#010101" enable-background="new    " d="M648.849,52.853c15.205-18.886,28.431-33.674,28.431-33.674
		s-16.716,23.787-22.455,33.208c-17.792,29.212-34.539,34.54-43.864,37.014c-9.324,2.474-65.796,18.031-78.594-6.47
		c-12.799-24.502-8.266-45.563-3.807-45.292c6.66,0.404,45.48,45.482,78.402,46.147C619.229,84.034,634.197,71.051,648.849,52.853z"
		/>
	<path fill="none" stroke="#010101" stroke-width="0.8564" stroke-dasharray="5.709" d="M677.279,19.173
		c0,0-16.716,23.787-22.455,33.208c-17.792,29.212-34.539,34.54-43.864,37.014c-6.018,1.597-31.664,8.642-52.541,6.854"/>
	<path opacity="0.2" fill="#2D3082" enable-background="new    " d="M558.628,96.764c-24.645-60.587-30.068-58.971-30.068-58.971
		s-1.426-2.854,19.051,14.344c16.537,13.89,41.712,31.805,58.402,31.805c15.519,0,34.437-20.139,51.537-41.104
		c13.412-16.444,26.869-35.111,38.666-35.111c28.26,0,46.688,82.502,31.398,110.756c-13.132,24.264-42.391,52.379-92.771,45.957
		C589.533,158.662,568.164,120.207,558.628,96.764z"/>
	<g>
		<path fill="none" stroke="#010101" stroke-width="0.8564" d="M550.974,78.655c0,0,56.181,40.968,97.854,27.265
			c41.677-13.7,74.519-68.737,74.519-68.737"/>
		<path fill="none" stroke="#010101" stroke-width="0.8564" d="M611.388,83.197c0,0,9.011-3.053,22.026,5.312
			c31.386,20.167,50.767,76.21,49.075,70.55"/>
		<path fill="none" stroke="#010101" stroke-width="0.8564" d="M586.957,78.934c0,0,10.979,10.826,19.155,26.33
			c2.025,3.842,4.812,9.412,7.857,15.619l5.817,11.969c7.677,15.904,15.058,31.588,15.058,31.588"/>
		<path fill="none" stroke="#010101" stroke-width="0.8564" d="M696.216,7.726c0,0-20.976,35.306-44.594,58.24l-7.865,7.056
			c-6.529,5.347-13.105,9.388-19.357,11.159c-11.246,3.186-29.027-2.043-29.027-2.043"/>
	</g>
	<path fill="none" stroke="#010101" stroke-width="1.7127" d="M558.628,96.764c-24.645-60.587-30.068-58.971-30.068-58.971
		s-1.426-2.854,19.051,14.344c16.537,13.89,41.712,31.805,58.402,31.805c15.519,0,34.437-20.139,51.537-41.104
		c13.412-16.444,26.869-35.111,38.666-35.111c28.26,0,46.688,82.502,31.398,110.756c-13.132,24.264-42.391,52.379-92.771,45.957
		C589.533,158.662,568.164,120.207,558.628,96.764z"/>
	<path fill="none" stroke="#010101" stroke-width="1.7127" d="M558.419,96.248c-11.479-0.98-21.514-4.632-26.053-13.323
		c-12.799-24.502-8.255-45.697-3.807-45.292"/>
	<path fill="none" stroke="#010101" stroke-width="0.8564" d="M640.287,62.553c0,0,9.938-9.874,20.817-7.441
		c24.264,5.423,54.31,80.848,54.31,80.848"/>
</g>
<g>
	<path fill="none" stroke="#000000" stroke-width="0.6681" d="M421.055,146.492"/>
	<g>
		<g>
			<path opacity="0.3" enable-background="new    " d="M229.941,100.829l176.191,20.754l-0.079-0.383
				c6.436,20.59,21.56,35.252,39.694,35.904l2.095,0.174l-212.028-9.461C230.047,146.876,228.031,127.819,229.941,100.829z"/>
			<path opacity="0.2" fill="#1B1F8A" enable-background="new    " d="M447.843,157.278l-212.028-9.461
				c8.152,1.332,20.713-34.041,28.054-79.01c3.261-19.974,4.942-38.479,5.093-52.998l219.935,55.848
				c2.953,8.326,4.451,17.729,4.097,27.629c-1.145,31.791-20.997,57.241-44.873,57.998L447.843,157.278z"/>
		</g>
		<g>
			<g>
				<path fill="none" stroke="#000000" stroke-width="0.8564" d="M449.146,61.931c2.937,10.169,4.011,21.951,2.703,34.316
					c-3.705,34.961-25.064,61.354-47.711,58.958"/>
				<path fill="none" stroke="#000000" stroke-width="0.8564" d="M357.254,153.021c19.728,2.934,40.233-25.056,45.799-62.515
					c2.174-14.626,1.75-28.534-0.751-40.229"/>
				<path fill="none" stroke="#000000" stroke-width="0.8564" d="M343.289,34.784c0.88,11.842,0.553,25.336-1.184,39.53
					c-5.412,44.207-22.469,78.491-38.1,76.579"/>
				<line fill="none" stroke="#000000" stroke-width="0.8564" x1="262.793" y1="75.358" x2="491.493" y2="112.103"/>
				<line fill="none" stroke="#000000" stroke-width="0.8564" x1="248.969" y1="128.879" x2="473.305" y2="146.327"/>
			</g>
			<path fill="none" stroke="#000000" stroke-width="0.8564" stroke-dasharray="5.709" d="M256.406,103.946l149.727,17.637
				l0.074,0.099c6.519,20.337,21.547,34.776,39.541,35.423"/>
			<g>
				<path fill="none" stroke="#000000" stroke-width="1.7127" d="M235.814,147.817c8.152,1.332,20.713-34.041,28.054-79.01
					c3.261-19.974,4.942-38.479,5.093-52.998l219.935,55.848c2.953,8.326,4.451,17.729,4.097,27.629
					c-1.183,32.828-22.335,58.714-47.244,57.818"/>
				<line fill="none" stroke="#000000" stroke-width="1.7127" x1="235.814" y1="147.817" x2="447.843" y2="157.278"/>
				<path fill="none" stroke="#000000" stroke-width="1.7127" d="M256.406,103.946l-26.465-3.117
					c-1.91,26.99,0.105,46.047,5.873,46.988"/>
			</g>
		</g>
	</g>
	<path fill="none" stroke="#000000" stroke-width="0.6681" d="M421.055,146.492"/>
	<path fill="none" stroke="#000000" stroke-width="0.6681" d="M421.055,146.492"/>
	<path fill="none" stroke="#000000" stroke-width="0.6681" d="M421.055,146.492"/>
</g>
<g>
	<path opacity="0.2" fill="#2E3280" enable-background="new    " d="M202.229,65.581c-2.874,49.87-44.228,89.424-94.816,89.424
		c-48.192,0-88-35.893-94.153-82.403l-0.674-5.344c-0.337-26.669,41.796-48.824,94.107-49.483
		c52.31-0.661,95.177,20.545,95.514,47.214L202.229,65.581z"/>
	<path fill="none" stroke="#020202" stroke-width="0.8564" d="M202.519,64.99c0.338,26.738-41.907,48.953-94.354,49.615
		c-52.449,0.662-95.24-20.477-95.578-47.216"/>
	<path fill="none" stroke="#020202" stroke-width="1.7127" d="M202.229,65.581c-2.874,49.87-44.228,89.424-94.816,89.424
		c-48.192,0-88-35.893-94.153-82.403l-0.674-5.344c-0.337-26.669,41.796-48.824,94.107-49.483
		c52.31-0.661,95.177,20.545,95.514,47.214L202.229,65.581z"/>
	<path fill="none" stroke="#020202" stroke-width="0.8564" d="M42.272,101.96c12.423-8.671,36.902-14.613,65.148-15
		c28.264-0.388,52.918,5.183,65.573,13.704"/>
	<path fill="none" stroke="#020202" stroke-width="0.8564" stroke-dasharray="5.71" d="M38.145,124.515
		c-2.911-2.92-4.516-6.08-4.562-9.409c-0.065-4.765,3.085-9.233,8.69-13.146"/>
	<path fill="none" stroke="#020202" stroke-width="0.8564" stroke-dasharray="5.71" d="M172.994,100.663
		c5.698,3.836,8.963,8.271,9.028,13.029c0.041,3.016-1.205,5.938-3.547,8.688"/>
	<path fill="none" stroke="#020202" stroke-width="0.8564" d="M138.985,111.605c5.949-12.349,11.222-26.766,15.25-42.456
		c3.943-15.359,6.256-30.226,7.041-43.686"/>
	<path fill="none" stroke="#020202" stroke-width="0.8564" d="M93.69,154.198"/>
	<path fill="none" stroke="#020202" stroke-width="0.8564" stroke-dasharray="5.71" d="M93.69,154.198
		c14.018,3.599,31.481-13.921,45.295-42.593"/>
	<path fill="none" stroke="#020202" stroke-width="0.8564" d="M182.327,95.346c8.875-15.105,13.982-31,15.226-45.915"/>
	<path fill="none" stroke="#020202" stroke-width="0.8564" d="M84.613,152.297"/>
	<path fill="none" stroke="#020202" stroke-width="0.8564" d="M144.931,147.585"/>
	<path fill="none" stroke="#020202" stroke-width="0.8564" d="M15.121,56.485c1.363,11.836,5.269,24.106,11.614,35.906"/>
	<path fill="none" stroke="#020202" stroke-width="0.8564" stroke-dasharray="5.71" d="M26.735,92.391
		c4.835,8.991,11.086,17.708,18.706,25.753c29.66,31.312,70.618,42.454,99.489,29.44"/>
	<path fill="none" stroke="#020202" stroke-width="0.8564" d="M127.359,152.54"/>
	<path fill="none" stroke="#020202" stroke-width="0.8564" d="M41.701,32.353c1.387,14.37,5.044,30.27,11.068,46.431
		c4.327,11.609,9.49,22.317,15.153,31.791"/>
	<path fill="none" stroke="#020202" stroke-width="0.8564" stroke-dasharray="5.71" d="M67.923,110.574
		c18.363,30.718,41.983,48.473,59.437,41.966"/>
	<path fill="none" stroke="#020202" stroke-width="0.8564" d="M109.312,155.334"/>
	<path fill="none" stroke="#020202" stroke-width="0.8564" d="M99.58,17.886c0.268,12.811,0.732,27.265,1.393,42.554
		c0.871,20.145,1.958,38.814,3.099,54.169"/>
	<path fill="none" stroke="#020202" stroke-width="0.8564" stroke-dasharray="5.71" d="M104.071,114.609
		c1.832,24.67,3.802,40.787,5.241,40.725"/>
	
		<ellipse transform="matrix(1 -0.0071 0.0071 1 -1.0445 0.775)" fill="none" stroke="#020202" stroke-width="0.8564" stroke-dasharray="5.71" cx="107.933" cy="146.553" rx="29.656" ry="8.446"/>
	<path opacity="0.2" fill="#2E3280" enable-background="new    " d="M202.207,64.989l0.022,0.592
		c-2.874,49.87-44.228,89.424-94.816,89.424c-48.192,0-88-35.893-94.153-82.403l-0.674-5.344v0.13
		c0.338,26.74,43.129,47.878,95.578,47.216c52.447-0.662,94.692-22.876,94.354-49.615L202.207,64.989z"/>
	<path fill="none" stroke="#020202" stroke-width="0.8564" d="M171.642,110.82c4.02-5.011,7.583-10.194,10.686-15.475"/>
	<path fill="none" stroke="#020202" stroke-width="0.8564" stroke-dasharray="5.71" d="M84.613,152.297
		c27.877,4.545,62.449-10.836,87.028-41.477"/>
</g>
<g>
	<defs>
		<rect id="SVGID_1_" x="68.352" y="180" width="78.4" height="28"/>
	</defs>
	<clipPath id="SVGID_2_">
		<use xlink:href="#SVGID_1_"  overflow="visible"/>
	</clipPath>
	<path clip-path="url(#SVGID_2_)" d="M76.107,194.66c0.15-0.654,0.728-2.97,2.486-2.97c0.125,0,0.728,0,1.255,0.349
		c-0.703,0.126-1.206,0.756-1.206,1.359c0,0.402,0.276,0.882,0.954,0.882c0.552,0,1.357-0.457,1.357-1.474
		c0-1.319-1.467-1.676-2.311-1.676c-1.462,0-2.342,1.354-2.645,1.94c-0.629-1.686-1.988-1.94-2.718-1.94
		c-2.618,0-4.052,3.265-4.052,3.897c0,0.253,0.251,0.253,0.301,0.253c0.201,0,0.277-0.051,0.326-0.278
		c0.854-2.679,2.512-3.312,3.365-3.312c0.477,0,1.355,0.228,1.355,1.687c0,0.779-0.427,2.464-1.355,5.986
		c-0.402,1.559-1.28,2.615-2.385,2.615c-0.15,0-0.728,0-1.255-0.349c0.613-0.126,1.153-0.654,1.153-1.359
		c0-0.68-0.553-0.881-0.93-0.881c-0.753,0-1.381,0.66-1.381,1.473c0,1.169,1.258,1.677,2.365,1.677c1.66,0,2.566-1.761,2.642-1.912
		c0.301,0.932,1.207,1.912,2.717,1.912c2.591,0,4.027-3.241,4.027-3.869c0-0.251-0.226-0.251-0.301-0.251
		c-0.226,0-0.277,0.101-0.326,0.276c-0.83,2.682-2.536,3.283-3.339,3.283c-0.979,0-1.381-0.805-1.381-1.66
		c0-0.554,0.15-1.106,0.426-2.213"/>
	<path clip-path="url(#SVGID_2_)" d="M90.962,188.701h-0.6c-0.052,0.393-0.228,1.443-0.457,1.622
		c-0.142,0.107-1.498,0.107-1.745,0.107h-3.241c1.85-1.642,2.466-2.136,3.523-2.965c1.304-1.042,2.52-2.135,2.52-3.812
		c0-2.136-1.863-3.443-4.114-3.443c-2.18,0-3.656,1.529-3.656,3.146c0,0.896,0.766,0.984,0.945,0.984
		c0.428,0,0.946-0.304,0.946-0.944c0-0.321-0.128-0.946-1.077-0.946c0.548-1.229,1.753-1.609,2.584-1.609
		c1.771,0,2.692,1.375,2.692,2.802c0,1.532-1.095,2.746-1.66,3.381l-4.252,4.19c-0.177,0.158-0.177,0.194-0.177,0.687h7.242"/>
	<path clip-path="url(#SVGID_2_)" d="M109.232,196.451h6.984c0.351,0,0.827,0,0.827-0.49s-0.477-0.49-0.827-0.49h-6.984v-7.014
		c0-0.351,0-0.827-0.49-0.827c-0.49,0-0.49,0.477-0.49,0.827v7.014h-7.072c-0.354,0-0.833,0-0.833,0.49s0.479,0.49,0.833,0.49h7.072
		v7.074c0,0.354,0,0.834,0.49,0.834c0.49,0,0.49-0.48,0.49-0.834"/>
	<path clip-path="url(#SVGID_2_)" d="M136.203,192.698c0.101-0.352,0.101-0.401,0.101-0.578c0-0.453-0.352-0.682-0.727-0.682
		c-0.25,0-0.651,0.151-0.876,0.527c-0.05,0.126-0.25,0.903-0.35,1.355c-0.176,0.652-0.351,1.329-0.501,2.008l-1.127,4.516
		c-0.1,0.377-1.176,2.133-2.829,2.133c-1.277,0-1.553-1.107-1.553-2.038c0-1.158,0.419-2.719,1.257-4.934
		c0.394-1.031,0.494-1.308,0.494-1.812c0-1.133-0.803-2.065-2.056-2.065c-2.379,0-3.306,3.669-3.306,3.897
		c0,0.253,0.248,0.253,0.297,0.253c0.248,0,0.273-0.051,0.397-0.455c0.67-2.377,1.663-3.136,2.506-3.136c0.199,0,0.62,0,0.62,0.808
		c0,0.629-0.243,1.284-0.412,1.762c-0.971,2.667-1.408,4.103-1.408,5.285c0,2.24,1.577,2.994,3.053,2.994
		c0.976,0,1.827-0.428,2.528-1.133c-0.326,1.312-0.626,2.548-1.631,3.885c-0.652,0.858-1.606,1.589-2.762,1.589
		c-0.352,0-1.481-0.075-1.908-1.051c0.402,0,0.728,0,1.08-0.305c0.251-0.229,0.502-0.56,0.502-1.044
		c0-0.789-0.678-0.891-0.929-0.891c-0.577,0-1.405,0.405-1.405,1.646c0,1.268,1.104,2.204,2.661,2.204
		c2.586,0,5.172-2.289,5.875-5.132"/>
	<path clip-path="url(#SVGID_2_)" d="M146.122,188.701h-0.6c-0.053,0.393-0.229,1.443-0.458,1.622
		c-0.142,0.107-1.497,0.107-1.744,0.107h-3.242c1.85-1.642,2.466-2.136,3.523-2.965c1.305-1.042,2.52-2.135,2.52-3.812
		c0-2.136-1.864-3.443-4.114-3.443c-2.18,0-3.656,1.529-3.656,3.146c0,0.896,0.767,0.984,0.945,0.984
		c0.428,0,0.946-0.304,0.946-0.944c0-0.321-0.128-0.946-1.078-0.946c0.548-1.229,1.753-1.609,2.584-1.609
		c1.771,0,2.693,1.375,2.693,2.802c0,1.532-1.096,2.746-1.66,3.381l-4.253,4.19c-0.176,0.158-0.176,0.194-0.176,0.687h7.243"/>
</g>
<g>
	<defs>
		<rect id="SVGID_3_" x="349.262" y="185.95" width="23.761" height="23.1"/>
	</defs>
	<clipPath id="SVGID_4_">
		<use xlink:href="#SVGID_3_"  overflow="visible"/>
	</clipPath>
	<path clip-path="url(#SVGID_4_)" d="M357.577,200.609c0.15-0.654,0.728-2.969,2.485-2.969c0.126,0,0.728,0,1.255,0.349
		c-0.703,0.126-1.206,0.756-1.206,1.359c0,0.402,0.276,0.882,0.954,0.882c0.553,0,1.356-0.457,1.356-1.474
		c0-1.319-1.466-1.676-2.311-1.676c-1.461,0-2.341,1.354-2.644,1.94c-0.629-1.686-1.989-1.94-2.719-1.94
		c-2.616,0-4.051,3.264-4.051,3.897c0,0.253,0.251,0.253,0.301,0.253c0.201,0,0.276-0.051,0.326-0.278
		c0.854-2.68,2.511-3.312,3.364-3.312c0.477,0,1.356,0.228,1.356,1.686c0,0.779-0.428,2.465-1.356,5.986
		c-0.402,1.56-1.28,2.616-2.385,2.616c-0.15,0-0.729,0-1.256-0.349c0.613-0.126,1.154-0.654,1.154-1.359
		c0-0.68-0.553-0.881-0.93-0.881c-0.753,0-1.381,0.66-1.381,1.473c0,1.168,1.258,1.676,2.365,1.676c1.66,0,2.566-1.76,2.642-1.911
		c0.302,0.932,1.208,1.911,2.717,1.911c2.592,0,4.028-3.24,4.028-3.869c0-0.25-0.226-0.25-0.301-0.25
		c-0.226,0-0.276,0.1-0.326,0.275c-0.829,2.683-2.536,3.284-3.34,3.284c-0.979,0-1.381-0.805-1.381-1.66
		c0-0.554,0.15-1.106,0.428-2.214"/>
	<path clip-path="url(#SVGID_4_)" d="M372.432,194.651h-0.6c-0.053,0.393-0.229,1.443-0.458,1.622
		c-0.142,0.106-1.497,0.106-1.745,0.106h-3.24c1.851-1.641,2.466-2.135,3.522-2.964c1.305-1.042,2.521-2.136,2.521-3.812
		c0-2.135-1.864-3.443-4.114-3.443c-2.18,0-3.656,1.529-3.656,3.146c0,0.896,0.767,0.984,0.945,0.984
		c0.428,0,0.946-0.304,0.946-0.945c0-0.321-0.129-0.945-1.078-0.945c0.55-1.229,1.753-1.609,2.584-1.609
		c1.771,0,2.693,1.375,2.693,2.801c0,1.533-1.096,2.747-1.66,3.382l-4.253,4.19c-0.177,0.158-0.177,0.193-0.177,0.687h7.242"/>
</g>
<g>
	<defs>
		<rect id="SVGID_5_" x="589.36" y="180" width="78.4" height="28"/>
	</defs>
	<clipPath id="SVGID_6_">
		<use xlink:href="#SVGID_5_"  overflow="visible"/>
	</clipPath>
	<path clip-path="url(#SVGID_6_)" d="M597.116,194.66c0.15-0.654,0.728-2.97,2.485-2.97c0.125,0,0.728,0,1.255,0.349
		c-0.703,0.126-1.206,0.756-1.206,1.359c0,0.402,0.276,0.882,0.954,0.882c0.552,0,1.356-0.457,1.356-1.474
		c0-1.319-1.466-1.676-2.311-1.676c-1.461,0-2.341,1.354-2.644,1.94c-0.63-1.686-1.989-1.94-2.718-1.94
		c-2.618,0-4.052,3.265-4.052,3.897c0,0.253,0.251,0.253,0.301,0.253c0.2,0,0.276-0.051,0.326-0.278
		c0.854-2.679,2.511-3.312,3.364-3.312c0.477,0,1.355,0.228,1.355,1.687c0,0.779-0.427,2.464-1.355,5.986
		c-0.402,1.559-1.28,2.615-2.385,2.615c-0.15,0-0.729,0-1.256-0.349c0.613-0.126,1.154-0.654,1.154-1.359
		c0-0.68-0.553-0.881-0.93-0.881c-0.753,0-1.381,0.66-1.381,1.473c0,1.169,1.258,1.677,2.365,1.677c1.66,0,2.566-1.761,2.642-1.912
		c0.302,0.932,1.207,1.912,2.717,1.912c2.592,0,4.028-3.241,4.028-3.869c0-0.251-0.226-0.251-0.301-0.251
		c-0.227,0-0.277,0.101-0.326,0.276c-0.829,2.682-2.535,3.283-3.34,3.283c-0.979,0-1.381-0.805-1.381-1.66
		c0-0.554,0.15-1.106,0.428-2.213"/>
	<path clip-path="url(#SVGID_6_)" d="M611.971,188.701h-0.6c-0.053,0.393-0.229,1.443-0.458,1.622
		c-0.142,0.107-1.497,0.107-1.745,0.107h-3.24c1.851-1.642,2.466-2.136,3.523-2.965c1.303-1.042,2.52-2.135,2.52-3.812
		c0-2.136-1.863-3.443-4.114-3.443c-2.18,0-3.655,1.529-3.655,3.146c0,0.896,0.766,0.984,0.944,0.984
		c0.428,0,0.946-0.304,0.946-0.944c0-0.321-0.129-0.946-1.078-0.946c0.55-1.229,1.753-1.609,2.584-1.609
		c1.771,0,2.693,1.375,2.693,2.802c0,1.532-1.096,2.746-1.66,3.381l-4.253,4.19c-0.177,0.158-0.177,0.194-0.177,0.687h7.242"/>
	<path clip-path="url(#SVGID_6_)" d="M636.55,196.449c0.352,0,0.83,0,0.83-0.49s-0.479-0.49-0.83-0.49h-13.676
		c-0.352,0-0.828,0-0.828,0.49s0.477,0.49,0.828,0.49"/>
	<path clip-path="url(#SVGID_6_)" d="M657.211,192.698c0.102-0.352,0.102-0.401,0.102-0.578c0-0.453-0.352-0.682-0.727-0.682
		c-0.25,0-0.651,0.151-0.877,0.527c-0.05,0.126-0.25,0.903-0.35,1.355c-0.176,0.652-0.351,1.329-0.501,2.008l-1.127,4.516
		c-0.101,0.377-1.177,2.133-2.83,2.133c-1.276,0-1.552-1.107-1.552-2.038c0-1.158,0.419-2.719,1.257-4.934
		c0.394-1.031,0.493-1.308,0.493-1.812c0-1.133-0.802-2.065-2.055-2.065c-2.38,0-3.307,3.669-3.307,3.897
		c0,0.253,0.248,0.253,0.298,0.253c0.248,0,0.273-0.051,0.397-0.455c0.67-2.377,1.662-3.136,2.506-3.136c0.198,0,0.62,0,0.62,0.808
		c0,0.629-0.243,1.284-0.413,1.762c-0.971,2.667-1.407,4.103-1.407,5.285c0,2.24,1.576,2.994,3.053,2.994
		c0.977,0,1.827-0.428,2.529-1.133c-0.326,1.312-0.627,2.548-1.632,3.885c-0.652,0.858-1.606,1.589-2.762,1.589
		c-0.352,0-1.48-0.075-1.908-1.051c0.402,0,0.729,0,1.079-0.305c0.252-0.229,0.503-0.56,0.503-1.044
		c0-0.789-0.678-0.891-0.929-0.891c-0.577,0-1.406,0.405-1.406,1.646c0,1.268,1.105,2.204,2.661,2.204
		c2.587,0,5.173-2.289,5.876-5.132"/>
	<path clip-path="url(#SVGID_6_)" d="M667.13,188.701h-0.599c-0.053,0.393-0.229,1.443-0.459,1.622
		c-0.141,0.107-1.496,0.107-1.743,0.107h-3.242c1.851-1.642,2.467-2.136,3.523-2.965c1.305-1.042,2.52-2.135,2.52-3.812
		c0-2.136-1.863-3.443-4.113-3.443c-2.18,0-3.656,1.529-3.656,3.146c0,0.896,0.768,0.984,0.945,0.984
		c0.428,0,0.945-0.304,0.945-0.944c0-0.321-0.128-0.946-1.077-0.946c0.549-1.229,1.753-1.609,2.584-1.609
		c1.771,0,2.693,1.375,2.693,2.802c0,1.532-1.097,2.746-1.66,3.381l-4.254,4.19c-0.176,0.158-0.176,0.194-0.176,0.687h7.242"/>
</g>
<g>
	<defs>
		<rect id="SVGID_7_" x="59.602" y="225.516" width="95.9" height="25.199"/>
	</defs>
	<clipPath id="SVGID_8_">
		<use xlink:href="#SVGID_7_"  overflow="visible"/>
	</clipPath>
	<path clip-path="url(#SVGID_8_)" d="M65.742,250.394c0-0.075,0-0.125-0.429-0.552c-3.154-3.165-3.961-7.914-3.961-11.758
		c0-4.372,0.959-8.744,4.061-11.884c0.329-0.302,0.329-0.352,0.329-0.427c0-0.176-0.101-0.257-0.253-0.257
		c-0.253,0-2.526,1.714-4.016,4.905c-1.289,2.764-1.591,5.553-1.591,7.662c0,1.96,0.278,5,1.667,7.839
		c1.516,3.091,3.688,4.724,3.941,4.724c0.152,0,0.253-0.075,0.253-0.251"/>
	<path clip-path="url(#SVGID_8_)" d="M76.772,236.216v5.157c0,0.452,0,0.503-0.276,0.93c-0.753,1.208-1.883,1.762-2.961,1.762
		c-1.129,0-2.032-0.654-2.635-1.609c-0.652-1.031-0.727-2.466-0.727-3.497c0-0.931,0.05-2.44,0.778-3.571
		c0.527-0.78,1.48-1.611,2.835-1.611c0.878,0,1.932,0.378,2.71,1.511C76.772,235.714,76.772,235.764,76.772,236.216 M76.767,242.964
		v1.66l3.696-0.275v-0.774c-1.759,0-1.96-0.176-1.96-1.407v-15.252l-3.613,0.275v0.774c1.735,0,1.932,0.177,1.932,1.408v5.431
		c-0.729-0.922-1.806-1.589-3.159-1.589c-2.958,0-5.591,2.471-5.591,5.719c0,3.197,2.463,5.69,5.328,5.69
		C75.008,244.624,76.139,243.77,76.767,242.964L76.767,242.964z"/>
	<path clip-path="url(#SVGID_8_)" d="M83.963,237.975c0.15-3.715,2.259-4.338,3.112-4.338c2.584,0,2.836,3.365,2.836,4.338
		 M90.963,238.534c0.552,0,0.629,0,0.629-0.56c0-2.475-1.36-4.898-4.502-4.898c-2.917,0-5.228,2.593-5.228,5.737
		c0,3.37,2.639,5.811,5.53,5.811c3.066,0,4.2-2.789,4.2-3.266c0-0.252-0.202-0.303-0.328-0.303c-0.226,0-0.276,0.151-0.326,0.353
		c-0.878,2.586-3.136,2.586-3.387,2.586c-1.255,0-2.258-0.755-2.835-1.686c-0.752-1.208-0.752-2.867-0.752-3.775L90.963,238.534z"/>
	<path clip-path="url(#SVGID_8_)" d="M100.563,234.266c1.145,0,1.32,0.328,1.32,1.362v6.812c0,1.136-0.273,1.136-1.933,1.136v0.771
		c0.828-0.025,2.159-0.075,2.787-0.075s1.857,0.05,2.787,0.075v-0.771c-1.684,0-1.96,0-1.96-1.132v-9.228l-3.162,0.21
		c-0.402,0.023-0.427,0.047-0.453,0.047c-0.049,0.022-0.1,0.022-0.451,0.022h-2.962v-2.824c0-2.475,2.159-3.476,3.715-3.476
		c0.753,0,1.657,0.252,2.16,0.831c-1.011,0.051-1.158,0.757-1.158,1.16c0,0.831,0.66,1.159,1.142,1.159
		c0.584,0,1.168-0.404,1.168-1.162c0-1.488-1.391-2.55-3.259-2.55c-2.347,0-5.352,1.278-5.352,4.007v2.854h-1.982v0.77h1.982v8.175
		c0,1.136-0.277,1.136-1.957,1.136v0.77c0.829-0.025,2.159-0.075,2.786-0.075c0.628,0,1.858,0.05,2.787,0.075v-0.77
		c-1.663,0-1.937,0-1.937-1.136v-8.175"/>
	<path clip-path="url(#SVGID_8_)" d="M109.022,235.681v6.759c0,1.135-0.272,1.135-1.927,1.135v0.77
		c0.878-0.024,2.159-0.074,2.838-0.074c0.652,0,1.958,0.05,2.812,0.074v-0.77c-1.694,0-1.971,0-1.971-1.133v-4.634
		c0-2.619,1.783-4.032,3.391-4.032c1.583,0,1.858,1.362,1.858,2.798v5.868c0,1.133-0.275,1.133-1.947,1.133v0.77
		c0.878-0.024,2.159-0.074,2.837-0.074c0.652,0,1.958,0.05,2.812,0.074v-0.77c-1.299,0-1.926,0-1.95-0.756v-4.813
		c0-2.167,0-2.949-0.781-3.856c-0.353-0.429-1.181-0.934-2.639-0.934c-1.835,0-3.016,1.094-3.72,2.669v-2.669l-3.538,0.275v0.775
		c1.729,0,1.928,0.178,1.928,1.415"/>
	<path clip-path="url(#SVGID_8_)" d="M124.773,228.875c0-0.803-0.628-1.331-1.331-1.331c-0.778,0-1.33,0.679-1.33,1.331
		c0,0.678,0.552,1.33,1.33,1.33C124.145,230.205,124.773,229.679,124.773,228.875 M124.702,233.215l-3.551,0.275v0.775
		c1.643,0,1.871,0.153,1.871,1.39v6.784c0,1.135-0.278,1.135-1.97,1.135v0.77c0.803-0.025,2.159-0.075,2.761-0.075
		c0.879,0,1.758,0.05,2.611,0.075v-0.77c-1.623,0-1.721-0.126-1.721-1.109V233.215z"/>
	<path clip-path="url(#SVGID_8_)" d="M131.562,234.266h3.594v-0.771h-3.594v-4.62h-0.628c-0.025,2.057-0.777,4.738-3.235,4.839
		v0.551h2.112v6.957c0,3.101,2.34,3.402,3.247,3.402c1.788,0,2.494-1.785,2.494-3.396v-1.433h-0.629v1.383
		c0,1.861-0.753,2.816-1.681,2.816c-1.679,0-1.679-2.294-1.679-2.723"/>
	<path clip-path="url(#SVGID_8_)" d="M139.753,237.975c0.15-3.715,2.259-4.338,3.112-4.338c2.585,0,2.836,3.365,2.836,4.338
		 M146.753,238.534c0.553,0,0.629,0,0.629-0.56c0-2.475-1.36-4.898-4.502-4.898c-2.916,0-5.228,2.593-5.228,5.737
		c0,3.37,2.639,5.811,5.53,5.811c3.066,0,4.2-2.789,4.2-3.266c0-0.252-0.202-0.303-0.328-0.303c-0.226,0-0.276,0.151-0.326,0.353
		c-0.878,2.586-3.137,2.586-3.387,2.586c-1.255,0-2.259-0.755-2.836-1.686c-0.752-1.208-0.752-2.867-0.752-3.775L146.753,238.534z"
		/>
	<path clip-path="url(#SVGID_8_)" d="M155.431,238.083c0-1.96-0.277-5-1.664-7.839c-1.512-3.09-3.68-4.729-3.932-4.729
		c-0.152,0-0.252,0.106-0.252,0.257c0,0.075,0,0.126,0.478,0.577c2.465,2.488,3.9,6.482,3.9,11.733c0,4.296-0.932,8.718-4.05,11.884
		c-0.328,0.302-0.328,0.352-0.328,0.427c0,0.151,0.101,0.252,0.252,0.252c0.251,0,2.52-1.709,4.007-4.899
		C155.127,242.982,155.431,240.193,155.431,238.083"/>
</g>
<g>
	<defs>
		<rect id="SVGID_9_" x="288.692" y="225.516" width="144.9" height="25.199"/>
	</defs>
	<clipPath id="SVGID_10_">
		<use xlink:href="#SVGID_9_"  overflow="visible"/>
	</clipPath>
	<path clip-path="url(#SVGID_10_)" d="M294.832,250.394c0-0.075,0-0.125-0.43-0.552c-3.154-3.165-3.961-7.915-3.961-11.758
		c0-4.372,0.959-8.745,4.062-11.884c0.329-0.302,0.329-0.352,0.329-0.428c0-0.175-0.102-0.256-0.253-0.256
		c-0.253,0-2.525,1.713-4.016,4.904c-1.289,2.765-1.591,5.554-1.591,7.663c0,1.959,0.278,5,1.667,7.839
		c1.516,3.09,3.688,4.724,3.94,4.724c0.152,0,0.253-0.076,0.253-0.251"/>
	<path clip-path="url(#SVGID_10_)" d="M301.552,239.463c0.552,0.102,2.609,0.504,2.609,2.313c0,1.282-0.878,2.287-2.835,2.287
		c-2.107,0-3.01-1.429-3.487-3.56c-0.075-0.327-0.101-0.427-0.352-0.427c-0.327,0-0.327,0.177-0.327,0.629v3.315
		c0,0.427,0,0.603,0.276,0.603c0.125,0,0.149-0.025,0.625-0.503c0.05-0.051,0.05-0.101,0.501-0.579
		c1.102,1.058,2.229,1.082,2.755,1.082c2.88,0,4.033-1.683,4.033-3.493c0-1.331-0.753-2.086-1.054-2.387
		c-0.828-0.806-1.806-1.006-2.86-1.207c-1.404-0.276-3.085-0.602-3.085-2.061c0-0.879,0.652-1.911,2.809-1.911
		c2.758,0,2.884,2.267,2.934,3.047c0.025,0.226,0.25,0.226,0.301,0.226c0.326,0,0.326-0.125,0.326-0.605v-2.551
		c0-0.43,0-0.607-0.276-0.607c-0.125,0-0.175,0-0.5,0.303c-0.075,0.1-0.326,0.325-0.426,0.4c-0.951-0.703-1.978-0.703-2.353-0.703
		c-3.054,0-4.006,1.688-4.006,3.094c0,0.881,0.401,1.585,1.079,2.139C299.043,238.96,299.745,239.11,301.552,239.463"/>
	<path clip-path="url(#SVGID_10_)" d="M308.993,237.975c0.15-3.715,2.259-4.338,3.112-4.338c2.585,0,2.836,3.365,2.836,4.338
		 M315.994,238.533c0.552,0,0.628,0,0.628-0.559c0-2.475-1.36-4.898-4.501-4.898c-2.916,0-5.229,2.593-5.229,5.737
		c0,3.37,2.639,5.811,5.53,5.811c3.067,0,4.2-2.789,4.2-3.266c0-0.252-0.201-0.303-0.327-0.303c-0.227,0-0.277,0.15-0.327,0.352
		c-0.878,2.587-3.136,2.587-3.387,2.587c-1.255,0-2.259-0.755-2.835-1.686c-0.753-1.209-0.753-2.867-0.753-3.775H315.994z"/>
	<path clip-path="url(#SVGID_10_)" d="M320.122,235.681v6.759c0,1.135-0.272,1.135-1.927,1.135v0.77
		c0.878-0.024,2.158-0.075,2.837-0.075c0.652,0,1.959,0.051,2.812,0.075v-0.77c-1.693,0-1.971,0-1.971-1.133v-4.634
		c0-2.619,1.783-4.033,3.391-4.033c1.583,0,1.858,1.363,1.858,2.799v5.868c0,1.133-0.275,1.133-1.947,1.133v0.77
		c0.879-0.024,2.159-0.075,2.837-0.075c0.652,0,1.959,0.051,2.812,0.075v-0.77c-1.676,0-1.951,0-1.951-1.133v-4.634
		c0-2.619,1.783-4.033,3.391-4.033c1.582,0,1.858,1.363,1.858,2.799v5.868c0,1.133-0.278,1.133-1.968,1.133v0.77
		c0.879-0.024,2.16-0.075,2.837-0.075c0.652,0,1.958,0.051,2.812,0.075v-0.77c-1.287,0-1.905,0-1.93-0.756v-4.813
		c0-2.167,0-2.949-0.783-3.857c-0.352-0.428-1.182-0.933-2.641-0.933c-2.113,0-3.22,1.526-3.647,2.494
		c-0.353-2.214-2.214-2.494-3.346-2.494c-1.836,0-3.019,1.094-3.723,2.669v-2.669l-3.538,0.275v0.775
		C319.925,234.266,320.123,234.443,320.122,235.681"/>
	<path clip-path="url(#SVGID_10_)" d="M342.803,228.874c0-0.802-0.628-1.33-1.331-1.33c-0.776,0-1.329,0.679-1.329,1.33
		c0,0.679,0.553,1.331,1.329,1.331C342.175,230.205,342.803,229.679,342.803,228.874 M342.732,233.215l-3.551,0.275v0.775
		c1.642,0,1.87,0.152,1.87,1.389v6.784c0,1.135-0.278,1.135-1.971,1.135v0.771c0.803-0.025,2.158-0.075,2.761-0.075
		c0.879,0,1.758,0.05,2.611,0.075v-0.771c-1.623,0-1.721-0.126-1.721-1.109V233.215z"/>
	<path clip-path="url(#SVGID_10_)" d="M354.792,236.216v5.157c0,0.451,0,0.502-0.276,0.93c-0.752,1.207-1.883,1.761-2.961,1.761
		c-1.129,0-2.032-0.653-2.635-1.608c-0.652-1.031-0.728-2.466-0.728-3.498c0-0.931,0.05-2.44,0.778-3.57
		c0.526-0.781,1.48-1.611,2.835-1.611c0.88,0,1.933,0.378,2.71,1.51C354.792,235.713,354.792,235.764,354.792,236.216
		 M354.786,242.963v1.66l3.697-0.274v-0.775c-1.76,0-1.961-0.175-1.961-1.407v-15.251l-3.613,0.275v0.774
		c1.735,0,1.934,0.177,1.934,1.408v5.431c-0.729-0.923-1.807-1.59-3.16-1.59c-2.958,0-5.59,2.471-5.59,5.719
		c0,3.198,2.462,5.69,5.327,5.69c1.608,0,2.739-0.854,3.368-1.66H354.786z"/>
	<path clip-path="url(#SVGID_10_)" d="M362.053,237.975c0.15-3.715,2.259-4.338,3.112-4.338c2.585,0,2.837,3.365,2.837,4.338
		 M369.053,238.533c0.553,0,0.629,0,0.629-0.559c0-2.475-1.36-4.898-4.5-4.898c-2.917,0-5.23,2.593-5.23,5.737
		c0,3.37,2.641,5.811,5.531,5.811c3.066,0,4.199-2.789,4.199-3.266c0-0.252-0.201-0.303-0.326-0.303
		c-0.228,0-0.277,0.15-0.327,0.352c-0.878,2.587-3.136,2.587-3.388,2.587c-1.255,0-2.259-0.755-2.836-1.686
		c-0.752-1.209-0.752-2.867-0.752-3.775H369.053z"/>
	<path clip-path="url(#SVGID_10_)" d="M378.653,234.266c1.145,0,1.319,0.328,1.319,1.362v6.812c0,1.135-0.271,1.135-1.932,1.135
		v0.771c0.828-0.026,2.158-0.075,2.786-0.075s1.858,0.049,2.786,0.075v-0.771c-1.683,0-1.96,0-1.96-1.131v-9.229l-3.163,0.211
		c-0.401,0.023-0.426,0.047-0.451,0.047c-0.05,0.022-0.101,0.022-0.452,0.022h-2.961v-2.824c0-2.475,2.158-3.476,3.716-3.476
		c0.753,0,1.657,0.252,2.158,0.831c-1.01,0.051-1.157,0.757-1.157,1.16c0,0.831,0.66,1.159,1.143,1.159
		c0.584,0,1.168-0.405,1.168-1.162c0-1.489-1.39-2.55-3.259-2.55c-2.347,0-5.352,1.278-5.352,4.006v2.854h-1.981v0.77h1.981v8.175
		c0,1.135-0.276,1.135-1.957,1.135v0.771c0.83-0.025,2.159-0.075,2.788-0.075c0.627,0,1.856,0.05,2.786,0.075v-0.771
		c-1.664,0-1.936,0-1.936-1.135v-8.175"/>
	<path clip-path="url(#SVGID_10_)" d="M387.043,235.681v6.759c0,1.135-0.272,1.135-1.928,1.135v0.77
		c0.879-0.024,2.158-0.075,2.836-0.075c0.654,0,1.96,0.051,2.812,0.075v-0.77c-1.693,0-1.971,0-1.971-1.133v-4.634
		c0-2.619,1.783-4.033,3.392-4.033c1.582,0,1.858,1.363,1.858,2.799v5.868c0,1.133-0.275,1.133-1.949,1.133v0.77
		c0.88-0.024,2.159-0.075,2.839-0.075c0.652,0,1.958,0.051,2.811,0.075v-0.77c-1.299,0-1.925,0-1.949-0.756v-4.813
		c0-2.167,0-2.949-0.78-3.857c-0.354-0.428-1.182-0.933-2.641-0.933c-1.835,0-3.016,1.094-3.72,2.669v-2.669l-3.537,0.275v0.775
		C386.844,234.266,387.043,234.443,387.043,235.681"/>
	<path clip-path="url(#SVGID_10_)" d="M402.863,228.874c0-0.802-0.629-1.33-1.331-1.33c-0.778,0-1.331,0.679-1.331,1.33
		c0,0.679,0.553,1.331,1.331,1.331C402.234,230.205,402.863,229.679,402.863,228.874 M402.793,233.215l-3.553,0.275v0.775
		c1.644,0,1.872,0.152,1.872,1.389v6.784c0,1.135-0.279,1.135-1.972,1.135v0.771c0.804-0.025,2.159-0.075,2.762-0.075
		c0.879,0,1.758,0.05,2.611,0.075v-0.771c-1.623,0-1.721-0.126-1.721-1.109V233.215z"/>
	<path clip-path="url(#SVGID_10_)" d="M409.651,234.266h3.595v-0.771h-3.595v-4.621h-0.627c-0.024,2.058-0.778,4.739-3.235,4.839
		v0.551h2.112v6.958c0,3.101,2.341,3.402,3.247,3.402c1.789,0,2.494-1.785,2.494-3.396v-1.433h-0.629v1.383
		c0,1.861-0.754,2.816-1.682,2.816c-1.679,0-1.679-2.294-1.679-2.723"/>
	<path clip-path="url(#SVGID_10_)" d="M417.843,237.975c0.15-3.715,2.26-4.338,3.112-4.338c2.586,0,2.836,3.365,2.836,4.338
		 M424.844,238.533c0.553,0,0.629,0,0.629-0.559c0-2.475-1.36-4.898-4.502-4.898c-2.916,0-5.229,2.593-5.229,5.737
		c0,3.37,2.639,5.811,5.53,5.811c3.067,0,4.2-2.789,4.2-3.266c0-0.252-0.202-0.303-0.328-0.303c-0.226,0-0.276,0.15-0.326,0.352
		c-0.878,2.587-3.137,2.587-3.387,2.587c-1.256,0-2.259-0.755-2.836-1.686c-0.753-1.209-0.753-2.867-0.753-3.775H424.844z"/>
	<path clip-path="url(#SVGID_10_)" d="M433.521,238.082c0-1.959-0.277-4.999-1.664-7.838c-1.512-3.09-3.681-4.729-3.932-4.729
		c-0.152,0-0.253,0.106-0.253,0.257c0,0.075,0,0.126,0.479,0.577c2.465,2.488,3.899,6.481,3.899,11.732
		c0,4.296-0.932,8.719-4.05,11.884c-0.328,0.303-0.328,0.353-0.328,0.428c0,0.15,0.101,0.252,0.253,0.252
		c0.251,0,2.52-1.709,4.007-4.9C433.218,242.982,433.521,240.193,433.521,238.082"/>
</g>
<g>
	<defs>
		<rect id="SVGID_11_" x="570.11" y="225.516" width="116.9" height="25.199"/>
	</defs>
	<clipPath id="SVGID_12_">
		<use xlink:href="#SVGID_11_"  overflow="visible"/>
	</clipPath>
	<path clip-path="url(#SVGID_12_)" d="M576.251,250.394c0-0.075,0-0.125-0.431-0.552c-3.153-3.165-3.961-7.914-3.961-11.758
		c0-4.372,0.96-8.744,4.062-11.884c0.33-0.302,0.33-0.352,0.33-0.427c0-0.176-0.103-0.257-0.254-0.257
		c-0.253,0-2.526,1.714-4.017,4.905c-1.288,2.764-1.591,5.553-1.591,7.662c0,1.96,0.278,5,1.668,7.839
		c1.516,3.091,3.688,4.724,3.94,4.724c0.151,0,0.253-0.075,0.253-0.251"/>
	<path clip-path="url(#SVGID_12_)" d="M582.291,228.875c0-0.803-0.628-1.331-1.33-1.331c-0.778,0-1.331,0.679-1.331,1.331
		c0,0.678,0.553,1.33,1.331,1.33C581.663,230.205,582.291,229.679,582.291,228.875 M582.221,233.215l-3.552,0.275v0.775
		c1.643,0,1.87,0.153,1.87,1.39v6.784c0,1.135-0.277,1.135-1.97,1.135v0.77c0.804-0.025,2.159-0.075,2.762-0.075
		c0.878,0,1.758,0.05,2.61,0.075v-0.77c-1.622,0-1.721-0.126-1.721-1.109V233.215z"/>
	<path clip-path="url(#SVGID_12_)" d="M587.4,235.681v6.759c0,1.135-0.272,1.135-1.927,1.135v0.77
		c0.878-0.024,2.159-0.074,2.837-0.074c0.652,0,1.959,0.05,2.812,0.074v-0.77c-1.695,0-1.972,0-1.972-1.133v-4.634
		c0-2.619,1.783-4.032,3.391-4.032c1.583,0,1.858,1.362,1.858,2.798v5.868c0,1.133-0.275,1.133-1.947,1.133v0.77
		c0.879-0.024,2.159-0.074,2.837-0.074c0.653,0,1.959,0.05,2.812,0.074v-0.77c-1.301,0-1.926,0-1.95-0.756v-4.813
		c0-2.167,0-2.949-0.781-3.856c-0.353-0.429-1.182-0.934-2.639-0.934c-1.835,0-3.018,1.094-3.721,2.669v-2.669l-3.537,0.275v0.775
		C587.203,234.266,587.401,234.443,587.4,235.681"/>
	<path clip-path="url(#SVGID_12_)" d="M608.211,236.216v5.157c0,0.452,0,0.503-0.276,0.93c-0.753,1.208-1.883,1.762-2.962,1.762
		c-1.128,0-2.032-0.654-2.634-1.609c-0.653-1.031-0.728-2.466-0.728-3.497c0-0.931,0.05-2.44,0.777-3.571
		c0.527-0.78,1.48-1.611,2.836-1.611c0.879,0,1.932,0.378,2.71,1.511C608.211,235.714,608.211,235.764,608.211,236.216
		 M608.205,242.964v1.66l3.696-0.275v-0.774c-1.76,0-1.96-0.176-1.96-1.407v-15.252l-3.613,0.275v0.774
		c1.734,0,1.933,0.177,1.933,1.408v5.431c-0.729-0.922-1.807-1.589-3.16-1.589c-2.958,0-5.59,2.471-5.59,5.719
		c0,3.197,2.462,5.69,5.328,5.69C606.447,244.624,607.577,243.77,608.205,242.964L608.205,242.964z"/>
	<path clip-path="url(#SVGID_12_)" d="M615.401,237.975c0.15-3.715,2.259-4.338,3.111-4.338c2.586,0,2.837,3.365,2.837,4.338
		 M622.402,238.534c0.552,0,0.628,0,0.628-0.56c0-2.475-1.359-4.898-4.501-4.898c-2.917,0-5.229,2.593-5.229,5.737
		c0,3.37,2.639,5.811,5.529,5.811c3.066,0,4.2-2.789,4.2-3.266c0-0.252-0.201-0.303-0.327-0.303c-0.227,0-0.276,0.151-0.326,0.353
		c-0.879,2.586-3.137,2.586-3.388,2.586c-1.255,0-2.259-0.755-2.835-1.686c-0.753-1.208-0.753-2.867-0.753-3.775L622.402,238.534z"
		/>
	<path clip-path="url(#SVGID_12_)" d="M632.071,234.266c1.146,0,1.32,0.328,1.32,1.362v6.812c0,1.136-0.272,1.136-1.934,1.136v0.771
		c0.829-0.025,2.159-0.075,2.787-0.075s1.858,0.05,2.786,0.075v-0.771c-1.683,0-1.959,0-1.959-1.132v-9.228l-3.163,0.21
		c-0.401,0.023-0.427,0.047-0.452,0.047c-0.049,0.022-0.1,0.022-0.451,0.022h-2.962v-2.824c0-2.475,2.158-3.476,3.716-3.476
		c0.753,0,1.657,0.252,2.159,0.831c-1.01,0.051-1.157,0.757-1.157,1.16c0,0.831,0.66,1.159,1.142,1.159
		c0.584,0,1.169-0.404,1.169-1.162c0-1.488-1.391-2.55-3.259-2.55c-2.348,0-5.353,1.278-5.353,4.007v2.854h-1.981v0.77h1.981v8.175
		c0,1.136-0.276,1.136-1.956,1.136v0.77c0.828-0.025,2.159-0.075,2.787-0.075c0.627,0,1.857,0.05,2.786,0.075v-0.77
		c-1.663,0-1.936,0-1.936-1.136v-8.175"/>
	<path clip-path="url(#SVGID_12_)" d="M640.461,235.681v6.759c0,1.135-0.272,1.135-1.928,1.135v0.77
		c0.879-0.024,2.159-0.074,2.837-0.074c0.653,0,1.959,0.05,2.812,0.074v-0.77c-1.693,0-1.971,0-1.971-1.133v-4.634
		c0-2.619,1.784-4.032,3.392-4.032c1.582,0,1.858,1.362,1.858,2.798v5.868c0,1.133-0.275,1.133-1.948,1.133v0.77
		c0.879-0.024,2.159-0.074,2.838-0.074c0.652,0,1.958,0.05,2.812,0.074v-0.77c-1.3,0-1.926,0-1.95-0.756v-4.813
		c0-2.167,0-2.949-0.78-3.856c-0.354-0.429-1.182-0.934-2.64-0.934c-1.835,0-3.017,1.094-3.72,2.669v-2.669l-3.538,0.275v0.775
		C640.263,234.266,640.461,234.443,640.461,235.681"/>
	<path clip-path="url(#SVGID_12_)" d="M656.211,228.875c0-0.803-0.628-1.331-1.331-1.331c-0.777,0-1.329,0.679-1.329,1.331
		c0,0.678,0.552,1.33,1.329,1.33C655.583,230.205,656.211,229.679,656.211,228.875 M656.141,233.215l-3.551,0.275v0.775
		c1.642,0,1.87,0.153,1.87,1.39v6.784c0,1.135-0.278,1.135-1.971,1.135v0.77c0.804-0.025,2.158-0.075,2.762-0.075
		c0.878,0,1.758,0.05,2.611,0.075v-0.77c-1.623,0-1.722-0.126-1.722-1.109V233.215z"/>
	<path clip-path="url(#SVGID_12_)" d="M663.001,234.266h3.593v-0.771h-3.593v-4.62h-0.629c-0.024,2.057-0.777,4.738-3.234,4.839
		v0.551h2.112v6.957c0,3.101,2.341,3.402,3.247,3.402c1.788,0,2.494-1.785,2.494-3.396v-1.433h-0.63v1.383
		c0,1.861-0.754,2.816-1.681,2.816c-1.68,0-1.68-2.294-1.68-2.723"/>
	<path clip-path="url(#SVGID_12_)" d="M671.19,237.975c0.151-3.715,2.26-4.338,3.113-4.338c2.585,0,2.836,3.365,2.836,4.338
		 M678.192,238.534c0.552,0,0.628,0,0.628-0.56c0-2.475-1.359-4.898-4.501-4.898c-2.917,0-5.229,2.593-5.229,5.737
		c0,3.37,2.639,5.811,5.529,5.811c3.067,0,4.2-2.789,4.2-3.266c0-0.252-0.201-0.303-0.327-0.303c-0.227,0-0.276,0.151-0.326,0.353
		c-0.879,2.586-3.137,2.586-3.388,2.586c-1.255,0-2.259-0.755-2.835-1.686c-0.754-1.208-0.754-2.867-0.754-3.775L678.192,238.534z"
		/>
	<path clip-path="url(#SVGID_12_)" d="M686.87,238.083c0-1.96-0.278-5-1.665-7.839c-1.512-3.09-3.68-4.729-3.932-4.729
		c-0.151,0-0.253,0.106-0.253,0.257c0,0.075,0,0.126,0.479,0.577c2.466,2.488,3.9,6.482,3.9,11.733
		c0,4.296-0.932,8.718-4.051,11.884c-0.328,0.302-0.328,0.352-0.328,0.427c0,0.151,0.102,0.252,0.253,0.252
		c0.252,0,2.521-1.709,4.008-4.899C686.566,242.982,686.87,240.193,686.87,238.083"/>
</g>
</svg>
