<?xml version="1.0" encoding="utf-8"?>
<!-- Generator: Adobe Illustrator 14.0.0, SVG Export Plug-In . SVG Version: 6.00 Build 43363)  -->
<!DOCTYPE svg PUBLIC "-//W3C//DTD SVG 1.1//EN" "http://www.w3.org/Graphics/SVG/1.1/DTD/svg11.dtd">
<svg version="1.1" id="Layer_1" xmlns="http://www.w3.org/2000/svg" xmlns:xlink="http://www.w3.org/1999/xlink" x="0px" y="0px"
	 width="765px" height="127px" viewBox="0 0 765 127" enable-background="new 0 0 765 127" xml:space="preserve">
<g>
	<g>
		<path opacity="0.2" fill-rule="evenodd" clip-rule="evenodd" fill="#1B1F8A" enable-background="new    " d="M34.08,53.411
			c-0.767-12.705,8.684-24.299,21.398-25.744c7.104-0.807,15.224,1.546,20.188,6.865c4.626,4.957,5.619,12.042,4.455,18.505
			c-1.286,7.15-4.934,15.544-1.014,22.504c2.9,5.149,9.385,5.879,14.39,3.582c6.391-2.933,9.049-9.641,12.895-15.034
			c3.963-5.561,10.202-8.558,16.923-6.308c6.75,2.26,11.234,8.45,11.08,15.579c-0.153,7.038-3.566,14.299-8.435,19.311
			c-5.464,5.624-12.671,7.694-19.964,9.899c-8.253,2.494-16.63,5.287-25.369,4.829c-8.634-0.454-17.007-2.955-25.639-3.44
			c-8.038-0.451-16.174,0.32-24.179-0.679c-7.031-0.878-13.545-3.758-17.296-10.028c-3.396-5.674-3.726-12.592-1.637-18.786
			c2.108-6.249,6.44-11.71,11.825-15.472c4.857-3.393,10.535-5.074,16.395-5.596c5.356-0.477,11.047-0.013,15.953,2.338
			c5.22,2.5,8.881,7.317,9.593,13.11c0.583,4.741-0.962,10.043-5.052,12.841c-3.801,2.599-8.718,2.057-12.518-0.241
			C38.83,75.858,35.007,63.525,34.08,53.411z"/>
		<path opacity="0.2" fill-rule="evenodd" clip-rule="evenodd" fill="#1B1F8A" enable-background="new    " d="M190.42,53.92
			c5.283-0.611,11.17,0.747,15.57,3.753c4.265,2.913,8.061,9.747,3.162,14.002c-2.714,2.357-6.636,1.503-9.438-0.199
			c-3.02-1.834-5.289-4.681-6.901-7.788c-2.661-5.128-3.878-11.387-3.138-17.132c1.501-11.668,10.85-22.039,23.126-21.814
			c7.427,0.136,14.073,4.238,18.107,10.379c3.992,6.078,5.293,13.259,7.12,20.165c1.689,6.387,4.621,12.864,11.458,14.924
			c6.462,1.946,13.462-2.196,19.153-4.761c6.172-2.781,12.678-5.208,19.224-2.09c6.008,2.861,8.059,9.632,6.851,15.832
			c-2.614,13.413-15.223,21.765-27.262,25.998c-14.624,5.141-29.993,5.491-45.303,4.727c-8.155-0.404-16.306-1.137-24.389-2.303
			c-7.235-1.042-14.537-2.647-21.052-6.082c-5.891-3.105-10.663-7.858-12.591-14.369c-1.861-6.283-0.69-13.045,2.656-18.612
			C171.612,60.501,180.955,54.414,190.42,53.92z"/>
		<path opacity="0.2" fill-rule="evenodd" clip-rule="evenodd" fill="#1B1F8A" enable-background="new    " d="M323.385,81.752
			c4.685,23.82,35.093,27.931,56.526,29.347c5.688,0.375,12.096,0.426,17.888,0.176c15.827-0.681,36.541-4.76,49.36-16.104
			c5.228-4.627,9.435-10.596,9.85-17.065c0.163-2.526-0.447-5.574-1.873-7.862c-3.473-5.568-10.419-7.111-16.701-7.417
			c-7.166-0.35-15.895,0.215-22.792-2.751c-12.029-5.171-16.193-17.412-24.836-26.728c-0.841-0.907-1.82-1.919-2.86-2.869
			c-4.823-4.409-10.875-7.348-17.24-6.902c-10.546,0.74-18.121,10.01-18.921,19.624c-0.374,4.494,0.382,8.209,2.41,12.715
			C338.84,51.262,320.904,65.47,323.385,81.752"/>
		<path opacity="0.2" fill-rule="evenodd" clip-rule="evenodd" fill="#1B1F8A" enable-background="new    " d="M481.594,79.683
			c0.611,7.756,5.031,13.912,10.025,18.278c12.39,10.829,32.921,15.01,50.233,15.756c6.012,0.259,11.919,0.178,18.06-0.17
			c17.793-1.015,41.528-6.53,54.484-20.539c4.049-4.377,7.125-9.958,6.644-15.931c-0.356-4.438-3.31-8.48-5.336-10.29
			c-6.897-6.16-18.52-7.813-27.913-11.584c-8.675-3.484-16.824-9.412-24.186-16.028c-9.44-8.487-19.768-19.007-33.212-18.018
			c-9.685,0.712-16.206,7.932-19.868,16.011c-2.064,4.55-3.346,9.077-7.353,12.516c-3.946,3.387-8.925,5.56-12.678,9.031
			c-0.819,0.757-1.684,1.613-2.431,2.432C483.523,66.121,480.801,72.975,481.594,79.683"/>
		<path opacity="0.2" fill-rule="evenodd" clip-rule="evenodd" fill="#1B1F8A" enable-background="new    " d="M647.55,68.053
			c2.245,27.706,26.998,49.154,54.128,47.364c27.35-1.803,48.13-22.221,49.723-49.724c1.656-28.61-22.417-55.987-54.128-54.288
			C667.948,12.976,644.555,38.023,647.55,68.053"/>
	</g>
	<g>
		<path fill-rule="evenodd" clip-rule="evenodd" fill="none" stroke="#000000" stroke-width="1.0123" stroke-linecap="round" d="
			M34.08,53.411c-0.767-12.705,8.684-24.299,21.398-25.744c7.104-0.807,15.224,1.546,20.188,6.865
			c4.626,4.957,5.619,12.042,4.455,18.505c-1.286,7.15-4.934,15.544-1.014,22.504c2.9,5.149,9.385,5.879,14.39,3.582
			c6.391-2.933,9.049-9.641,12.895-15.034c3.963-5.561,10.202-8.558,16.923-6.308c6.75,2.26,11.234,8.45,11.08,15.579
			c-0.153,7.038-3.566,14.299-8.435,19.311c-5.464,5.624-12.671,7.694-19.964,9.899c-8.253,2.494-16.63,5.287-25.369,4.829
			c-8.634-0.454-17.007-2.955-25.639-3.44c-8.038-0.451-16.174,0.32-24.179-0.679c-7.031-0.878-13.545-3.758-17.296-10.028
			c-3.396-5.674-3.726-12.592-1.637-18.786c2.108-6.249,6.44-11.71,11.825-15.472c4.857-3.393,10.535-5.074,16.395-5.596
			c5.356-0.477,11.047-0.013,15.953,2.338c5.22,2.5,8.881,7.317,9.593,13.11c0.583,4.741-0.962,10.043-5.052,12.841
			c-3.801,2.599-8.718,2.057-12.518-0.241C38.83,75.858,35.007,63.525,34.08,53.411z"/>
		<path fill-rule="evenodd" clip-rule="evenodd" fill="none" stroke="#000000" stroke-width="1.0123" stroke-linecap="round" d="
			M189.848,67.48"/>
		<path fill-rule="evenodd" clip-rule="evenodd" fill="none" stroke="#000000" stroke-width="1.0123" stroke-linecap="round" d="
			M190.42,53.92c5.283-0.611,11.17,0.747,15.57,3.753c4.265,2.913,8.061,9.747,3.162,14.002c-2.714,2.357-6.636,1.503-9.438-0.199
			c-3.02-1.834-5.289-4.681-6.901-7.788c-2.661-5.128-3.878-11.387-3.138-17.132c1.501-11.668,10.85-22.039,23.126-21.814
			c7.427,0.136,14.073,4.238,18.107,10.379c3.992,6.078,5.293,13.259,7.12,20.165c1.689,6.387,4.621,12.864,11.458,14.924
			c6.462,1.946,13.462-2.196,19.153-4.761c6.172-2.781,12.678-5.208,19.224-2.09c6.008,2.861,8.059,9.632,6.851,15.832
			c-2.614,13.413-15.223,21.765-27.262,25.998c-14.624,5.141-29.993,5.491-45.303,4.727c-8.155-0.404-16.306-1.137-24.389-2.303
			c-7.235-1.042-14.537-2.647-21.052-6.082c-5.891-3.105-10.663-7.858-12.591-14.369c-1.861-6.283-0.69-13.045,2.656-18.612
			C171.612,60.501,180.955,54.414,190.42,53.92z"/>
		<path fill-rule="evenodd" clip-rule="evenodd" fill="none" stroke="#000000" stroke-width="1.0123" stroke-linecap="round" d="
			M323.385,81.752c4.685,23.82,35.093,27.931,56.526,29.347c5.688,0.375,12.096,0.426,17.888,0.176
			c15.827-0.681,36.541-4.76,49.36-16.104c5.228-4.627,9.435-10.596,9.85-17.065c0.163-2.526-0.447-5.574-1.873-7.862
			c-3.473-5.568-10.419-7.111-16.701-7.417c-7.166-0.35-15.895,0.215-22.792-2.751c-12.029-5.171-16.193-17.412-24.836-26.728
			c-0.841-0.907-1.82-1.919-2.86-2.869c-4.823-4.409-10.875-7.348-17.24-6.902c-10.546,0.74-18.121,10.01-18.921,19.624
			c-0.374,4.494,0.382,8.209,2.41,12.715C338.84,51.262,320.904,65.47,323.385,81.752"/>
		<path fill-rule="evenodd" clip-rule="evenodd" fill="none" stroke="#000000" stroke-width="1.0123" stroke-linecap="round" d="
			M481.594,79.683c0.611,7.756,5.031,13.912,10.025,18.278c12.39,10.829,32.921,15.01,50.233,15.756
			c6.012,0.259,11.919,0.178,18.06-0.17c17.793-1.015,41.528-6.53,54.484-20.539c4.049-4.377,7.125-9.958,6.644-15.931
			c-0.356-4.438-3.31-8.48-5.336-10.29c-6.897-6.16-18.52-7.813-27.913-11.584c-8.675-3.484-16.824-9.412-24.186-16.028
			c-9.44-8.487-19.768-19.007-33.212-18.018c-9.685,0.712-16.206,7.932-19.868,16.011c-2.064,4.55-3.346,9.077-7.353,12.516
			c-3.946,3.387-8.925,5.56-12.678,9.031c-0.819,0.757-1.684,1.613-2.431,2.432C483.523,66.121,480.801,72.975,481.594,79.683"/>
		<path fill-rule="evenodd" clip-rule="evenodd" fill="none" stroke="#000000" stroke-width="1.0123" stroke-linecap="round" d="
			M647.55,68.053c2.245,27.706,26.998,49.154,54.128,47.364c27.35-1.803,48.13-22.221,49.723-49.724
			c1.656-28.61-22.417-55.987-54.128-54.288C667.948,12.976,644.555,38.023,647.55,68.053"/>
	</g>
</g>
</svg>
