<?xml version="1.0" encoding="utf-8"?>
<!-- Generator: Adobe Illustrator 14.0.0, SVG Export Plug-In . SVG Version: 6.00 Build 43363)  -->
<!DOCTYPE svg PUBLIC "-//W3C//DTD SVG 1.1//EN" "http://www.w3.org/Graphics/SVG/1.1/DTD/svg11.dtd">
<svg version="1.1" id="Layer_1" xmlns="http://www.w3.org/2000/svg" xmlns:xlink="http://www.w3.org/1999/xlink" x="0px" y="0px"
	 width="436px" height="135px" viewBox="0 0 436 135" enable-background="new 0 0 436 135" xml:space="preserve">
<polyline fill="none" stroke="#000000" stroke-width="2.6907" points="38.223,90.018 99,41.93 194,94.93 303,47.93 388.391,74.36 
	"/>
<circle fill="#231F20" cx="194" cy="94.93" r="3.597"/>
<circle fill="#231F20" cx="99.018" cy="41.93" r="3.597"/>
<circle fill="#231F20" cx="302.89" cy="48.122" r="3.597"/>
<line fill="none" stroke="#000000" stroke-width="1.4099" stroke-dasharray="5.6396" x1="388.391" y1="74.36" x2="429" y2="86.93"/>
<line fill="none" stroke="#000000" stroke-width="1.4099" stroke-dasharray="5.6396" x1="8" y1="113.93" x2="38.223" y2="90.018"/>
<g>
	<defs>
		<rect id="SVGID_1_" x="73.779" y="16.94" width="46" height="17.8"/>
	</defs>
	<clipPath id="SVGID_2_">
		<use xlink:href="#SVGID_1_"  overflow="visible"/>
	</clipPath>
	<path clip-path="url(#SVGID_2_)" d="M74.542,22.164c1.014-2.899,3.843-2.925,4.13-2.925c3.92,0,4.207,4.521,4.207,6.559
		c0,1.574-0.132,2.014-0.314,2.529c-0.578,1.885-1.365,4.878-1.365,5.549c0,0.283,0.127,0.465,0.329,0.465
		c0.329,0,0.532-0.569,0.812-1.553c0.582-2.173,0.836-3.647,0.938-4.449c0.05-0.336,0.101-0.674,0.203-1.01
		c0.839-2.561,2.518-6.416,3.568-8.46c0.184-0.311,0.498-0.88,0.498-0.982c0-0.259-0.262-0.259-0.313-0.259
		c-0.078,0-0.234,0-0.312,0.181c-1.355,2.457-2.398,5.045-3.44,7.658c-0.026-0.803-0.052-2.769-1.06-5.278
		c-0.621-1.578-1.653-2.85-3.437-2.85c-3.229,0-5.037,3.899-5.037,4.694c0,0.257,0.234,0.257,0.493,0.257"/>
	<path clip-path="url(#SVGID_2_)" d="M89.042,30.529c-0.071,0.237-0.161,0.455-0.161,0.765c0,0.855,0.727,1.548,1.727,1.548
		c1.818,0,2.619-2.519,2.619-2.791c0-0.238-0.239-0.238-0.294-0.238c-0.257,0-0.275,0.11-0.35,0.312
		c-0.422,1.467-1.229,2.218-1.944,2.218c-0.367,0-0.459-0.236-0.459-0.638c0-0.418,0.129-0.764,0.295-1.165
		c0.184-0.491,0.388-0.982,0.59-1.456c0.166-0.437,0.83-2.093,0.904-2.312c0.055-0.183,0.11-0.4,0.11-0.582
		c0-0.854-0.725-1.548-1.722-1.548c-1.793,0-2.626,2.469-2.626,2.777c0,0.235,0.255,0.235,0.31,0.235
		c0.256,0,0.274-0.091,0.329-0.291c0.476-1.565,1.278-2.222,1.953-2.222c0.292,0,0.457,0.146,0.457,0.637
		c0,0.419-0.116,0.692-0.6,1.82 M92.754,21.335c0-0.291-0.218-0.694-0.725-0.694c-0.49,0-1.016,0.476-1.016,1.006
		c0,0.312,0.235,0.695,0.725,0.695c0.526,0,1.015-0.513,1.015-1.005L92.754,21.335z"/>
	<path clip-path="url(#SVGID_2_)" d="M107.703,28.54c0.237,0,0.675,0,0.675-0.44c0-0.459-0.421-0.459-0.675-0.459H96.75
		c-0.255,0-0.673,0-0.673,0.459c0,0.44,0.438,0.44,0.673,0.44"/>
	<path clip-path="url(#SVGID_2_)" d="M116.379,21.146c0-0.486-0.035-0.506-0.535-0.506c-1.139,1.083-2.759,1.1-3.488,1.1v0.7
		c0.434,0,1.628,0,2.623-0.534v9.204c0,0.595,0,0.83-1.81,0.83h-0.687v0.7c0.327-0.019,2.557-0.073,3.228-0.073
		c0.562,0,2.847,0.055,3.246,0.073v-0.7h-0.71c-1.867,0-1.867-0.234-1.867-0.828"/>
</g>
<g>
	<defs>
		<rect id="SVGID_3_" x="183.854" y="104.008" width="20" height="17.8"/>
	</defs>
	<clipPath id="SVGID_4_">
		<use xlink:href="#SVGID_3_"  overflow="visible"/>
	</clipPath>
	<path clip-path="url(#SVGID_4_)" d="M184.917,109.231c1.014-2.899,3.844-2.925,4.13-2.925c3.921,0,4.208,4.521,4.208,6.559
		c0,1.574-0.133,2.014-0.315,2.529c-0.578,1.885-1.365,4.878-1.365,5.549c0,0.283,0.127,0.465,0.329,0.465
		c0.329,0,0.532-0.569,0.812-1.553c0.583-2.173,0.836-3.647,0.938-4.449c0.05-0.336,0.101-0.674,0.203-1.01
		c0.839-2.561,2.519-6.416,3.568-8.46c0.184-0.311,0.498-0.88,0.498-0.982c0-0.259-0.262-0.259-0.313-0.259
		c-0.078,0-0.234,0-0.312,0.181c-1.355,2.457-2.398,5.045-3.44,7.658c-0.025-0.803-0.052-2.769-1.06-5.278
		c-0.62-1.578-1.653-2.85-3.437-2.85c-3.229,0-5.037,3.899-5.037,4.694c0,0.257,0.234,0.257,0.493,0.257"/>
	<path clip-path="url(#SVGID_4_)" d="M199.417,117.597c-0.071,0.237-0.161,0.455-0.161,0.765c0,0.855,0.727,1.548,1.727,1.548
		c1.819,0,2.619-2.519,2.619-2.791c0-0.238-0.239-0.238-0.294-0.238c-0.257,0-0.275,0.11-0.35,0.312
		c-0.422,1.467-1.229,2.218-1.944,2.218c-0.367,0-0.459-0.236-0.459-0.638c0-0.418,0.129-0.764,0.295-1.165
		c0.184-0.491,0.388-0.982,0.59-1.456c0.166-0.437,0.83-2.093,0.904-2.312c0.055-0.183,0.11-0.4,0.11-0.582
		c0-0.854-0.725-1.548-1.722-1.548c-1.793,0-2.626,2.469-2.626,2.777c0,0.235,0.255,0.235,0.311,0.235
		c0.255,0,0.273-0.091,0.328-0.291c0.476-1.565,1.278-2.222,1.953-2.222c0.292,0,0.457,0.146,0.457,0.637
		c0,0.419-0.115,0.692-0.6,1.82 M203.13,108.402c0-0.291-0.219-0.694-0.726-0.694c-0.489,0-1.016,0.476-1.016,1.006
		c0,0.312,0.235,0.695,0.725,0.695c0.526,0,1.015-0.513,1.015-1.005L203.13,108.402z"/>
</g>
<g>
	<defs>
		<rect id="SVGID_5_" x="275.938" y="22.945" width="46" height="19"/>
	</defs>
	<clipPath id="SVGID_6_">
		<use xlink:href="#SVGID_5_"  overflow="visible"/>
	</clipPath>
	<path clip-path="url(#SVGID_6_)" d="M276.801,28.569c1.013-2.9,3.843-2.925,4.129-2.925c3.921,0,4.208,4.52,4.208,6.559
		c0,1.574-0.132,2.014-0.315,2.529c-0.578,1.884-1.365,4.878-1.365,5.548c0,0.284,0.127,0.465,0.329,0.465
		c0.329,0,0.532-0.569,0.812-1.552c0.583-2.173,0.836-3.648,0.938-4.45c0.051-0.336,0.102-0.673,0.203-1.009
		c0.839-2.561,2.519-6.416,3.568-8.46c0.184-0.312,0.498-0.88,0.498-0.983c0-0.259-0.262-0.259-0.313-0.259
		c-0.077,0-0.233,0-0.312,0.181c-1.355,2.457-2.398,5.045-3.44,7.658c-0.025-0.802-0.052-2.768-1.06-5.277
		c-0.62-1.578-1.653-2.85-3.437-2.85c-3.229,0-5.036,3.899-5.036,4.694c0,0.257,0.233,0.257,0.492,0.257"/>
	<path clip-path="url(#SVGID_6_)" d="M291.301,36.935c-0.072,0.237-0.162,0.455-0.162,0.765c0,0.855,0.727,1.547,1.727,1.547
		c1.819,0,2.619-2.518,2.619-2.791c0-0.238-0.239-0.238-0.294-0.238c-0.257,0-0.274,0.11-0.349,0.312
		c-0.422,1.466-1.229,2.217-1.945,2.217c-0.367,0-0.459-0.236-0.459-0.637c0-0.418,0.129-0.764,0.295-1.165
		c0.184-0.491,0.388-0.983,0.59-1.456c0.166-0.438,0.83-2.093,0.904-2.312c0.055-0.182,0.111-0.399,0.111-0.582
		c0-0.854-0.726-1.547-1.723-1.547c-1.793,0-2.626,2.469-2.626,2.776c0,0.236,0.255,0.236,0.311,0.236
		c0.255,0,0.273-0.091,0.329-0.291c0.475-1.566,1.277-2.222,1.953-2.222c0.291,0,0.457,0.146,0.457,0.637
		c0,0.419-0.116,0.691-0.601,1.819 M295.013,27.74c0-0.292-0.218-0.695-0.726-0.695c-0.489,0-1.016,0.477-1.016,1.006
		c0,0.312,0.236,0.695,0.725,0.695C294.522,28.746,295.012,28.234,295.013,27.74L295.013,27.74z"/>
	<path clip-path="url(#SVGID_6_)" d="M304.938,34.945h5.544c0.236,0,0.671,0,0.671-0.441c0-0.459-0.417-0.459-0.671-0.459h-5.544
		v-5.532c0-0.234,0-0.667-0.441-0.667c-0.459,0-0.459,0.414-0.459,0.667v5.532h-5.56c-0.236,0-0.67,0-0.67,0.441
		c0,0.459,0.416,0.459,0.67,0.459h5.56v5.533c0,0.234,0,0.667,0.441,0.667c0.459,0,0.459-0.414,0.459-0.667"/>
	<path clip-path="url(#SVGID_6_)" d="M318.438,27.551c0-0.485-0.036-0.506-0.535-0.506c-1.139,1.083-2.759,1.101-3.488,1.101v0.7
		c0.434,0,1.627,0,2.622-0.534v9.204c0,0.595,0,0.83-1.809,0.83h-0.687v0.699c0.326-0.018,2.557-0.072,3.228-0.072
		c0.562,0,2.846,0.055,3.246,0.072v-0.699h-0.71c-1.867,0-1.867-0.234-1.867-0.828"/>
</g>
</svg>
