<?xml version="1.0" encoding="utf-8"?>
<!-- Generator: Adobe Illustrator 14.0.0, SVG Export Plug-In . SVG Version: 6.00 Build 43363)  -->
<!DOCTYPE svg PUBLIC "-//W3C//DTD SVG 1.1//EN" "http://www.w3.org/Graphics/SVG/1.1/DTD/svg11.dtd">
<svg version="1.1" id="Layer_1" xmlns="http://www.w3.org/2000/svg" xmlns:xlink="http://www.w3.org/1999/xlink" x="0px" y="0px"
	 width="722.964px" height="241.487px" viewBox="0 0 722.964 241.487" enable-background="new 0 0 722.964 241.487"
	 xml:space="preserve">
<g>
	<g>
		<defs>
			<path id="SVGID_1_" d="M233.39,155.331c21.021-61.187,22.04-140.979-77.45-133.869C91.403,26.076,5.6-21.669,11.808,79.215
				c3.975,64.574,9.504,156.127,72.732,142.401C182.509,200.362,212.374,216.521,233.39,155.331z"/>
		</defs>
		<clipPath id="SVGID_2_">
			<use xlink:href="#SVGID_1_"  overflow="visible"/>
		</clipPath>
		<g clip-path="url(#SVGID_2_)">
			
				<line fill="none" stroke="#3C3D47" stroke-width="2.2" stroke-miterlimit="10" x1="229.445" y1="105.797" x2="250.379" y2="69.299"/>
			
				<line fill="none" stroke="#5F5F70" stroke-width="2.2" stroke-miterlimit="10" x1="250.379" y1="69.299" x2="210.324" y2="64.046"/>
			
				<line fill="none" stroke="#78788D" stroke-width="2.2" stroke-miterlimit="10" x1="210.324" y1="64.046" x2="229.445" y2="105.797"/>
			<line fill="none" stroke="#9C9FB8" stroke-width="2.2" stroke-miterlimit="10" x1="1.156" y1="10.653" x2="42.01" y2="-15.995"/>
			
				<line fill="none" stroke="#9597AF" stroke-width="2.2" stroke-miterlimit="10" x1="202.688" y1="139.72" x2="174.042" y2="170.647"/>
			
				<line fill="none" stroke="#BEC8E0" stroke-width="2.2" stroke-miterlimit="10" x1="174.042" y1="170.647" x2="220.13" y2="178.491"/>
			
				<line fill="none" stroke="#666678" stroke-width="2.2" stroke-miterlimit="10" x1="220.13" y1="178.491" x2="202.688" y2="139.72"/>
			
				<line fill="none" stroke="#4D4D5A" stroke-width="2.2" stroke-miterlimit="10" x1="250.379" y1="69.299" x2="276.338" y2="32.977"/>
			
				<line fill="none" stroke="#474754" stroke-width="2.2" stroke-miterlimit="10" x1="276.338" y1="32.977" x2="234.528" y2="26.909"/>
			
				<line fill="none" stroke="#747488" stroke-width="2.2" stroke-miterlimit="10" x1="234.528" y1="26.909" x2="250.379" y2="69.299"/>
			
				<line fill="none" stroke="#69697C" stroke-width="2.2" stroke-miterlimit="10" x1="147.725" y1="205.614" x2="126.986" y2="244.412"/>
			
				<line fill="none" stroke="#3C3C47" stroke-width="2.2" stroke-miterlimit="10" x1="126.986" y1="244.412" x2="168.602" y2="242.959"/>
			
				<line fill="none" stroke="#9EA0BA" stroke-width="2.2" stroke-miterlimit="10" x1="168.602" y1="242.959" x2="147.725" y2="205.614"/>
			
				<line fill="none" stroke="#3C4047" stroke-width="2.2" stroke-miterlimit="10" x1="250.379" y1="69.299" x2="274.974" y2="111.169"/>
			
				<line fill="none" stroke="#585867" stroke-width="2.2" stroke-miterlimit="10" x1="69.925" y1="96.324" x2="32.71" y2="119.283"/>
			
				<line fill="none" stroke="#7E7E94" stroke-width="2.2" stroke-miterlimit="10" x1="32.71" y1="119.283" x2="68.026" y2="135.461"/>
			
				<line fill="none" stroke="#455150" stroke-width="2.2" stroke-miterlimit="10" x1="68.026" y1="135.461" x2="69.925" y2="96.324"/>
			
				<line fill="none" stroke="#3C3C47" stroke-width="2.2" stroke-miterlimit="10" x1="34.673" y1="73.909" x2="-2.279" y2="98.456"/>
			
				<line fill="none" stroke="#9292AC" stroke-width="2.2" stroke-miterlimit="10" x1="-2.279" y1="98.456" x2="32.71" y2="119.283"/>
			
				<line fill="none" stroke="#3C4047" stroke-width="2.2" stroke-miterlimit="10" x1="32.71" y1="119.283" x2="34.673" y2="73.909"/>
			
				<line fill="none" stroke="#3C3C47" stroke-width="2.2" stroke-miterlimit="10" x1="174.042" y1="170.647" x2="129.229" y2="166.647"/>
			
				<line fill="none" stroke="#3C3C47" stroke-width="2.2" stroke-miterlimit="10" x1="129.229" y1="166.647" x2="147.725" y2="205.614"/>
			
				<line fill="none" stroke="#51515F" stroke-width="2.2" stroke-miterlimit="10" x1="147.725" y1="205.614" x2="174.042" y2="170.647"/>
			
				<line fill="none" stroke="#3C3C47" stroke-width="2.2" stroke-miterlimit="10" x1="34.673" y1="73.909" x2="-1.062" y2="53.818"/>
			
				<line fill="none" stroke="#B8B8D8" stroke-width="2.2" stroke-miterlimit="10" x1="-1.062" y1="53.818" x2="-2.279" y2="98.456"/>
			
				<line fill="none" stroke="#3C4647" stroke-width="2.2" stroke-miterlimit="10" x1="109.383" y1="125.228" x2="156.939" y2="133.083"/>
			
				<line fill="none" stroke="#5F5F70" stroke-width="2.2" stroke-miterlimit="10" x1="156.939" y1="133.083" x2="143.473" y2="94.984"/>
			
				<line fill="none" stroke="#3C3C47" stroke-width="2.2" stroke-miterlimit="10" x1="143.473" y1="94.984" x2="109.383" y2="125.228"/>
			
				<line fill="none" stroke="#6A6A7D" stroke-width="2.2" stroke-miterlimit="10" x1="234.528" y1="26.909" x2="191.107" y2="22.683"/>
			
				<line fill="none" stroke="#3C3C47" stroke-width="2.2" stroke-miterlimit="10" x1="191.107" y1="22.683" x2="210.324" y2="64.046"/>
			
				<line fill="none" stroke="#C4C4E6" stroke-width="2.2" stroke-miterlimit="10" x1="210.324" y1="64.046" x2="234.528" y2="26.909"/>
			<path fill="none" stroke="#B5B6D5" stroke-width="2.2" stroke-miterlimit="10" d="M208.387,236.945"/>
			<path fill="none" stroke="#3E3E49" stroke-width="2.2" stroke-miterlimit="10" d="M208.387,236.945"/>
			
				<line fill="none" stroke="#3C3C47" stroke-width="2.2" stroke-miterlimit="10" x1="129.229" y1="166.647" x2="106.37" y2="205.589"/>
			
				<line fill="none" stroke="#595969" stroke-width="2.2" stroke-miterlimit="10" x1="106.37" y1="205.589" x2="147.725" y2="205.614"/>
			<path fill="none" stroke="#A8A8C6" stroke-width="2.2" stroke-miterlimit="10" d="M168.602,242.959"/>
			<path fill="none" stroke="#3C3C47" stroke-width="2.2" stroke-miterlimit="10" d="M126.986,244.412"/>
			
				<line fill="none" stroke="#3C3C47" stroke-width="2.2" stroke-miterlimit="10" x1="24.832" y1="207.093" x2="63.692" y2="204.433"/>
			
				<line fill="none" stroke="#3C3C47" stroke-width="2.2" stroke-miterlimit="10" x1="63.692" y1="204.433" x2="37.591" y2="166.214"/>
			
				<line fill="none" stroke="#3C4347" stroke-width="2.2" stroke-miterlimit="10" x1="37.591" y1="166.214" x2="24.832" y2="207.093"/>
			<path fill="none" stroke="#3C3C47" stroke-width="2.2" stroke-miterlimit="10" d="M168.602,242.959"/>
			
				<line fill="none" stroke="#464652" stroke-width="2.2" stroke-miterlimit="10" x1="208.387" y1="236.945" x2="168.602" y2="242.959"/>
			
				<line fill="none" stroke="#3C3C47" stroke-width="2.2" stroke-miterlimit="10" x1="214.847" y1="-11.797" x2="234.528" y2="26.909"/>
			
				<line fill="none" stroke="#494956" stroke-width="2.2" stroke-miterlimit="10" x1="234.528" y1="26.909" x2="263.84" y2="-10.07"/>
			
				<line fill="none" stroke="#3C3C47" stroke-width="2.2" stroke-miterlimit="10" x1="263.84" y1="-10.07" x2="214.847" y2="-11.797"/>
			
				<line fill="none" stroke="#3C3F47" stroke-width="2.2" stroke-miterlimit="10" x1="133.572" y1="56.634" x2="104.166" y2="78.133"/>
			
				<line fill="none" stroke="#3C3C47" stroke-width="2.2" stroke-miterlimit="10" x1="104.166" y1="78.133" x2="143.473" y2="94.984"/>
			
				<line fill="none" stroke="#3C3C47" stroke-width="2.2" stroke-miterlimit="10" x1="143.473" y1="94.984" x2="133.572" y2="56.634"/>
			<path fill="none" stroke="#6C6C7F" stroke-width="2.2" stroke-miterlimit="10" d="M126.986,244.412"/>
			<line fill="none" stroke="#84849B" stroke-width="2.2" stroke-miterlimit="10" x1="38.12" y1="28.9" x2="77.219" y2="3.599"/>
			<line fill="none" stroke="#B1B3D0" stroke-width="2.2" stroke-miterlimit="10" x1="77.219" y1="3.599" x2="42.01" y2="-15.995"/>
			<line fill="none" stroke="#3C4147" stroke-width="2.2" stroke-miterlimit="10" x1="42.01" y1="-15.995" x2="38.12" y2="28.9"/>
			
				<line fill="none" stroke="#646476" stroke-width="2.2" stroke-miterlimit="10" x1="191.107" y1="22.683" x2="170.124" y2="60.118"/>
			
				<line fill="none" stroke="#6F6F83" stroke-width="2.2" stroke-miterlimit="10" x1="170.124" y1="60.118" x2="210.324" y2="64.046"/>
			
				<line fill="none" stroke="#9999B4" stroke-width="2.2" stroke-miterlimit="10" x1="148.781" y1="20.456" x2="170.124" y2="60.118"/>
			
				<line fill="none" stroke="#9595AF" stroke-width="2.2" stroke-miterlimit="10" x1="191.107" y1="22.683" x2="148.781" y2="20.456"/>
			
				<line fill="none" stroke="#3C4047" stroke-width="2.2" stroke-miterlimit="10" x1="229.445" y1="105.797" x2="247.253" y2="146.394"/>
			
				<line fill="none" stroke="#787D8D" stroke-width="2.2" stroke-miterlimit="10" x1="247.253" y1="146.394" x2="274.974" y2="111.169"/>
			
				<line fill="none" stroke="#9E9EBA" stroke-width="2.2" stroke-miterlimit="10" x1="274.974" y1="111.169" x2="229.445" y2="105.797"/>
			
				<line fill="none" stroke="#AFB0CE" stroke-width="2.2" stroke-miterlimit="10" x1="106.37" y1="205.589" x2="63.692" y2="204.433"/>
			
				<line fill="none" stroke="#5B5B6B" stroke-width="2.2" stroke-miterlimit="10" x1="63.692" y1="204.433" x2="83.317" y2="242.853"/>
			
				<line fill="none" stroke="#757A8A" stroke-width="2.2" stroke-miterlimit="10" x1="83.317" y1="242.853" x2="106.37" y2="205.589"/>
			<line fill="none" stroke="#6C6C7F" stroke-width="2.2" stroke-miterlimit="10" x1="-1.062" y1="53.818" x2="1.156" y2="10.653"/>
			
				<line fill="none" stroke="#585868" stroke-width="2.2" stroke-miterlimit="10" x1="107.458" y1="30.341" x2="71.825" y2="50.535"/>
			
				<line fill="none" stroke="#454551" stroke-width="2.2" stroke-miterlimit="10" x1="71.825" y1="50.535" x2="104.166" y2="78.133"/>
			
				<line fill="none" stroke="#3C3C47" stroke-width="2.2" stroke-miterlimit="10" x1="104.166" y1="78.133" x2="107.458" y2="30.341"/>
			
				<line fill="none" stroke="#9292AC" stroke-width="2.2" stroke-miterlimit="10" x1="276.338" y1="32.977" x2="263.84" y2="-10.07"/>
			
				<line fill="none" stroke="#3F4A4A" stroke-width="2.2" stroke-miterlimit="10" x1="86.201" y1="167.71" x2="37.591" y2="166.214"/>
			
				<line fill="none" stroke="#3C3E47" stroke-width="2.2" stroke-miterlimit="10" x1="63.692" y1="204.433" x2="86.201" y2="167.71"/>
			
				<line fill="none" stroke="#3C3F47" stroke-width="2.2" stroke-miterlimit="10" x1="214.847" y1="-11.797" x2="191.107" y2="22.683"/>
			
				<line fill="none" stroke="#3C3C47" stroke-width="2.2" stroke-miterlimit="10" x1="104.166" y1="78.133" x2="109.383" y2="125.228"/>
			
				<line fill="none" stroke="#9898B3" stroke-width="2.2" stroke-miterlimit="10" x1="107.458" y1="30.341" x2="120.438" y2="-13.199"/>
			
				<line fill="none" stroke="#3C3D47" stroke-width="2.2" stroke-miterlimit="10" x1="120.438" y1="-13.199" x2="77.219" y2="3.599"/>
			
				<line fill="none" stroke="#5C5C6C" stroke-width="2.2" stroke-miterlimit="10" x1="77.219" y1="3.599" x2="107.458" y2="30.341"/>
			
				<line fill="none" stroke="#5C5C6C" stroke-width="2.2" stroke-miterlimit="10" x1="-6.974" y1="236.235" x2="24.832" y2="207.093"/>
			
				<line fill="none" stroke="#3D3D48" stroke-width="2.2" stroke-miterlimit="10" x1="24.832" y1="207.093" x2="-6.471" y2="188.19"/>
			
				<line fill="none" stroke="#B9B9DA" stroke-width="2.2" stroke-miterlimit="10" x1="-6.471" y1="188.19" x2="-6.974" y2="236.235"/>
			
				<line fill="none" stroke="#5F5F70" stroke-width="2.2" stroke-miterlimit="10" x1="191.227" y1="206.734" x2="147.725" y2="205.614"/>
			
				<line fill="none" stroke="#D4D7F9" stroke-width="2.2" stroke-miterlimit="10" x1="168.602" y1="242.959" x2="191.227" y2="206.734"/>
			
				<line fill="none" stroke="#9191AB" stroke-width="2.2" stroke-miterlimit="10" x1="174.042" y1="170.647" x2="191.227" y2="206.734"/>
			
				<line fill="none" stroke="#9D9DB9" stroke-width="2.2" stroke-miterlimit="10" x1="191.227" y1="206.734" x2="220.13" y2="178.491"/>
			<path fill="none" stroke="#3C3C47" stroke-width="2.2" stroke-miterlimit="10" d="M-6.974,236.235"/>
			<path fill="none" stroke="#A3A3C0" stroke-width="2.2" stroke-miterlimit="10" d="M-6.974,236.235"/>
			
				<line fill="none" stroke="#6E6E81" stroke-width="2.2" stroke-miterlimit="10" x1="37.591" y1="166.214" x2="-6.471" y2="188.19"/>
			
				<line fill="none" stroke="#83839A" stroke-width="2.2" stroke-miterlimit="10" x1="63.692" y1="204.433" x2="39.724" y2="242.959"/>
			
				<line fill="none" stroke="#9393AD" stroke-width="2.2" stroke-miterlimit="10" x1="39.724" y1="242.959" x2="83.317" y2="242.853"/>
			
				<line fill="none" stroke="#535362" stroke-width="2.2" stroke-miterlimit="10" x1="32.71" y1="119.283" x2="-2.291" y2="144.425"/>
			
				<line fill="none" stroke="#3C3C47" stroke-width="2.2" stroke-miterlimit="10" x1="-2.291" y1="144.425" x2="37.591" y2="166.214"/>
			
				<line fill="none" stroke="#535362" stroke-width="2.2" stroke-miterlimit="10" x1="37.591" y1="166.214" x2="32.71" y2="119.283"/>
			
				<line fill="none" stroke="#3C3C47" stroke-width="2.2" stroke-miterlimit="10" x1="120.438" y1="-13.199" x2="167.142" y2="-16.445"/>
			
				<line fill="none" stroke="#7B7B91" stroke-width="2.2" stroke-miterlimit="10" x1="68.026" y1="135.461" x2="109.383" y2="125.228"/>
			
				<line fill="none" stroke="#3C3C47" stroke-width="2.2" stroke-miterlimit="10" x1="109.383" y1="125.228" x2="69.925" y2="96.324"/>
			
				<line fill="none" stroke="#3C4147" stroke-width="2.2" stroke-miterlimit="10" x1="37.591" y1="166.214" x2="68.026" y2="135.461"/>
			
				<line fill="none" stroke="#3C3F47" stroke-width="2.2" stroke-miterlimit="10" x1="220.13" y1="178.491" x2="247.253" y2="146.394"/>
			
				<line fill="none" stroke="#717185" stroke-width="2.2" stroke-miterlimit="10" x1="247.253" y1="146.394" x2="202.688" y2="139.72"/>
			
				<line fill="none" stroke="#A2A2BE" stroke-width="2.2" stroke-miterlimit="10" x1="-2.291" y1="144.425" x2="-2.279" y2="98.456"/>
			
				<line fill="none" stroke="#3F3F4A" stroke-width="2.2" stroke-miterlimit="10" x1="106.37" y1="205.589" x2="126.986" y2="244.412"/>
			
				<line fill="none" stroke="#3C3F47" stroke-width="2.2" stroke-miterlimit="10" x1="202.688" y1="139.72" x2="229.445" y2="105.797"/>
			
				<line fill="none" stroke="#7E7E94" stroke-width="2.2" stroke-miterlimit="10" x1="229.445" y1="105.797" x2="186.384" y2="100.481"/>
			
				<line fill="none" stroke="#585868" stroke-width="2.2" stroke-miterlimit="10" x1="186.384" y1="100.481" x2="202.688" y2="139.72"/>
			
				<line fill="none" stroke="#636A75" stroke-width="2.2" stroke-miterlimit="10" x1="120.438" y1="-13.199" x2="148.781" y2="20.456"/>
			
				<line fill="none" stroke="#A7ADC4" stroke-width="2.2" stroke-miterlimit="10" x1="148.781" y1="20.456" x2="167.142" y2="-16.445"/>
			<path fill="none" stroke="#3C3C47" stroke-width="2.2" stroke-miterlimit="10" d="M39.724,242.959"/>
			<path fill="none" stroke="#525260" stroke-width="2.2" stroke-miterlimit="10" d="M39.724,242.959"/>
			
				<line fill="none" stroke="#6C6C7F" stroke-width="2.2" stroke-miterlimit="10" x1="133.572" y1="56.634" x2="107.458" y2="30.341"/>
			
				<line fill="none" stroke="#424E4D" stroke-width="2.2" stroke-miterlimit="10" x1="143.473" y1="94.984" x2="170.124" y2="60.118"/>
			
				<line fill="none" stroke="#C0C9E2" stroke-width="2.2" stroke-miterlimit="10" x1="170.124" y1="60.118" x2="133.572" y2="56.634"/>
			<line fill="none" stroke="#9C9CB8" stroke-width="2.2" stroke-miterlimit="10" x1="1.156" y1="10.653" x2="38.12" y2="28.9"/>
			
				<line fill="none" stroke="#CFCFF3" stroke-width="2.2" stroke-miterlimit="10" x1="156.939" y1="133.083" x2="202.688" y2="139.72"/>
			
				<line fill="none" stroke="#50505E" stroke-width="2.2" stroke-miterlimit="10" x1="186.384" y1="100.481" x2="156.939" y2="133.083"/>
			
				<line fill="none" stroke="#40414B" stroke-width="2.2" stroke-miterlimit="10" x1="191.107" y1="22.683" x2="167.142" y2="-16.445"/>
			
				<line fill="none" stroke="#3C3C47" stroke-width="2.2" stroke-miterlimit="10" x1="148.781" y1="20.456" x2="133.572" y2="56.634"/>
			
				<line fill="none" stroke="#50505E" stroke-width="2.2" stroke-miterlimit="10" x1="170.124" y1="60.118" x2="186.384" y2="100.481"/>
			
				<line fill="none" stroke="#494956" stroke-width="2.2" stroke-miterlimit="10" x1="186.384" y1="100.481" x2="210.324" y2="64.046"/>
			
				<line fill="none" stroke="#7A7A90" stroke-width="2.2" stroke-miterlimit="10" x1="83.317" y1="242.853" x2="126.986" y2="244.412"/>
			
				<line fill="none" stroke="#565E65" stroke-width="2.2" stroke-miterlimit="10" x1="208.387" y1="236.945" x2="191.227" y2="206.734"/>
			<path fill="none" stroke="#727286" stroke-width="2.2" stroke-miterlimit="10" d="M83.317,242.853"/>
			
				<line fill="none" stroke="#3C3C47" stroke-width="2.2" stroke-miterlimit="10" x1="86.201" y1="167.71" x2="68.026" y2="135.461"/>
			<line fill="none" stroke="#3C3C47" stroke-width="2.2" stroke-miterlimit="10" x1="71.825" y1="50.535" x2="38.12" y2="28.9"/>
			<line fill="none" stroke="#747489" stroke-width="2.2" stroke-miterlimit="10" x1="38.12" y1="28.9" x2="34.673" y2="73.909"/>
			
				<line fill="none" stroke="#43434F" stroke-width="2.2" stroke-miterlimit="10" x1="34.673" y1="73.909" x2="71.825" y2="50.535"/>
			<line fill="none" stroke="#6B6B7E" stroke-width="2.2" stroke-miterlimit="10" x1="-1.062" y1="53.818" x2="38.12" y2="28.9"/>
			
				<line fill="none" stroke="#C8C8EB" stroke-width="2.2" stroke-miterlimit="10" x1="266.017" y1="186.493" x2="238.561" y2="215.27"/>
			
				<line fill="none" stroke="#A1A1BD" stroke-width="2.2" stroke-miterlimit="10" x1="214.847" y1="-11.797" x2="167.142" y2="-16.445"/>
			
				<line fill="none" stroke="#B7B7D7" stroke-width="2.2" stroke-miterlimit="10" x1="69.925" y1="96.324" x2="34.673" y2="73.909"/>
			
				<line fill="none" stroke="#6F6F82" stroke-width="2.2" stroke-miterlimit="10" x1="109.383" y1="125.228" x2="129.229" y2="166.647"/>
			
				<line fill="none" stroke="#B3B3D2" stroke-width="2.2" stroke-miterlimit="10" x1="129.229" y1="166.647" x2="156.939" y2="133.083"/>
			
				<line fill="none" stroke="#5E5E6E" stroke-width="2.2" stroke-miterlimit="10" x1="143.473" y1="94.984" x2="186.384" y2="100.481"/>
			
				<line fill="none" stroke="#9696B1" stroke-width="2.2" stroke-miterlimit="10" x1="191.227" y1="206.734" x2="238.561" y2="215.27"/>
			
				<line fill="none" stroke="#3C4147" stroke-width="2.2" stroke-miterlimit="10" x1="238.561" y1="215.27" x2="220.13" y2="178.491"/>
			
				<line fill="none" stroke="#666678" stroke-width="2.2" stroke-miterlimit="10" x1="107.458" y1="30.341" x2="148.781" y2="20.456"/>
			
				<line fill="none" stroke="#535362" stroke-width="2.2" stroke-miterlimit="10" x1="266.017" y1="186.493" x2="220.13" y2="178.491"/>
			<path fill="none" stroke="#3C3C47" stroke-width="2.2" stroke-miterlimit="10" d="M83.317,242.853"/>
			
				<line fill="none" stroke="#C9CEED" stroke-width="2.2" stroke-miterlimit="10" x1="104.166" y1="78.133" x2="69.925" y2="96.324"/>
			
				<line fill="none" stroke="#68687A" stroke-width="2.2" stroke-miterlimit="10" x1="-6.471" y1="188.19" x2="-2.291" y2="144.425"/>
			
				<line fill="none" stroke="#3F3F4A" stroke-width="2.2" stroke-miterlimit="10" x1="39.724" y1="242.959" x2="-6.974" y2="236.235"/>
			
				<line fill="none" stroke="#5E5E6E" stroke-width="2.2" stroke-miterlimit="10" x1="71.825" y1="50.535" x2="69.925" y2="96.324"/>
			
				<line fill="none" stroke="#3C3C47" stroke-width="2.2" stroke-miterlimit="10" x1="208.387" y1="236.945" x2="238.561" y2="215.27"/>
			<line fill="none" stroke="#636374" stroke-width="2.2" stroke-miterlimit="10" x1="71.825" y1="50.535" x2="77.219" y2="3.599"/>
			
				<line fill="none" stroke="#3E3E49" stroke-width="2.2" stroke-miterlimit="10" x1="24.832" y1="207.093" x2="39.724" y2="242.959"/>
			
				<line fill="none" stroke="#85859C" stroke-width="2.2" stroke-miterlimit="10" x1="106.37" y1="205.589" x2="86.201" y2="167.71"/>
			
				<line fill="none" stroke="#83849A" stroke-width="2.2" stroke-miterlimit="10" x1="174.042" y1="170.647" x2="156.939" y2="133.083"/>
			
				<line fill="none" stroke="#3C3C47" stroke-width="2.2" stroke-miterlimit="10" x1="129.229" y1="166.647" x2="86.201" y2="167.71"/>
			
				<line fill="none" stroke="#3C3C47" stroke-width="2.2" stroke-miterlimit="10" x1="109.383" y1="125.228" x2="86.201" y2="167.71"/>
			
				<line fill="none" stroke="#3C3C47" stroke-width="2.2" stroke-miterlimit="10" x1="266.017" y1="186.493" x2="247.253" y2="146.394"/>
			<path fill="none" stroke="#3E3E49" stroke-width="2.2" stroke-miterlimit="10" d="M238.561,215.27"/>
			<path d="M160.135,132.593c0-1.773-1.446-3.221-3.22-3.221c-1.78,0-3.221,1.447-3.221,3.221c0,1.78,1.44,3.221,3.221,3.221
				C158.688,135.813,160.135,134.373,160.135,132.593L160.135,132.593z"/>
			<path d="M110.667,30.567c0-1.777-1.444-3.221-3.221-3.221s-3.22,1.443-3.22,3.221c0,1.777,1.443,3.221,3.22,3.221
				S110.667,32.344,110.667,30.567L110.667,30.567z"/>
			<path d="M206.512,140.323c0-1.78-1.446-3.221-3.22-3.221c-1.78,0-3.221,1.44-3.221,3.221s1.44,3.221,3.221,3.221
				C205.065,143.544,206.512,142.104,206.512,140.323L206.512,140.323z"/>
			<path d="M170.954-15.81c0-1.777-1.44-3.221-3.221-3.221s-3.221,1.443-3.221,3.221c0,1.78,1.44,3.221,3.221,3.221
				S170.954-14.029,170.954-15.81L170.954-15.81z"/>
			<path d="M45.74-15.81c0-1.777-1.444-3.221-3.221-3.221s-3.221,1.443-3.221,3.221c0,1.78,1.444,3.221,3.221,3.221
				S45.74-14.029,45.74-15.81L45.74-15.81z"/>
			<path d="M80.521,3.514c0-1.777-1.443-3.221-3.22-3.221c-1.777,0-3.221,1.443-3.221,3.221c0,1.78,1.443,3.221,3.221,3.221
				C79.078,6.734,80.521,5.294,80.521,3.514L80.521,3.514z"/>
			<path d="M279.162,32.885c0-1.776-1.439-3.22-3.22-3.22c-1.774,0-3.221,1.444-3.221,3.22c0,1.777,1.446,3.221,3.221,3.221
				C277.723,36.105,279.162,34.662,279.162,32.885L279.162,32.885z"/>
			<path d="M171.728,242.349c0-1.78-1.44-3.221-3.221-3.221c-1.78,0-3.22,1.44-3.22,3.221s1.44,3.221,3.22,3.221
				C170.287,245.569,171.728,244.129,171.728,242.349L171.728,242.349z"/>
			<path d="M-3.729,236.165c0-1.779-1.44-3.22-3.221-3.22c-1.777,0-3.22,1.44-3.22,3.22c0,1.781,1.443,3.221,3.22,3.221
				C-5.169,239.386-3.729,237.946-3.729,236.165L-3.729,236.165z"/>
			<path d="M75.112,50.664c0-1.78-1.444-3.221-3.221-3.221s-3.221,1.44-3.221,3.221c0,1.777,1.444,3.221,3.221,3.221
				S75.112,52.441,75.112,50.664L75.112,50.664z"/>
			<path d="M-3.729,188.247c0-1.779-1.44-3.22-3.221-3.22c-1.777,0-3.22,1.44-3.22,3.22c0,1.774,1.443,3.221,3.22,3.221
				C-5.169,191.468-3.729,190.021-3.729,188.247L-3.729,188.247z"/>
			<path d="M0.91,144.959c0-1.773-1.443-3.221-3.22-3.221s-3.221,1.447-3.221,3.221c0,1.78,1.444,3.221,3.221,3.221
				S0.91,146.739,0.91,144.959L0.91,144.959z"/>
			<path d="M123.033-12.718c0-1.777-1.443-3.221-3.22-3.221c-1.777,0-3.221,1.443-3.221,3.221c0,1.78,1.443,3.22,3.221,3.22
				C121.589-9.498,123.033-10.938,123.033-12.718L123.033-12.718z"/>
			<path d="M41.101,29.02c0-1.776-1.44-3.22-3.221-3.22c-1.777,0-3.22,1.444-3.22,3.22c0,1.78,1.443,3.221,3.22,3.221
				C39.661,32.24,41.101,30.8,41.101,29.02L41.101,29.02z"/>
			<path d="M136.943,56.847c0-1.78-1.44-3.22-3.221-3.22c-1.777,0-3.217,1.44-3.217,3.22c0,1.777,1.44,3.221,3.217,3.221
				C135.503,60.068,136.943,58.624,136.943,56.847L136.943,56.847z"/>
			<path d="M218.104-11.171c0-1.777-1.446-3.221-3.221-3.221c-1.78,0-3.22,1.444-3.22,3.221c0,1.777,1.44,3.221,3.22,3.221
				C216.658-7.95,218.104-9.394,218.104-11.171L218.104-11.171z"/>
			<path d="M112.211,124.862c0-1.773-1.44-3.221-3.221-3.221c-1.777,0-3.221,1.447-3.221,3.221c0,1.78,1.444,3.221,3.221,3.221
				C110.771,128.083,112.211,126.643,112.211,124.862L112.211,124.862z"/>
			<path d="M237.428,27.476c0-1.777-1.446-3.221-3.221-3.221c-1.78,0-3.22,1.444-3.22,3.221c0,1.777,1.44,3.221,3.22,3.221
				C235.981,30.696,237.428,29.253,237.428,27.476L237.428,27.476z"/>
			<path d="M194.139,206.797c0-1.78-1.44-3.22-3.22-3.22c-1.774,0-3.221,1.439-3.221,3.22c0,1.774,1.447,3.221,3.221,3.221
				C192.699,210.018,194.139,208.571,194.139,206.797L194.139,206.797z"/>
			<path d="M4.002,10.471c0-1.777-1.443-3.221-3.221-3.221c-1.777,0-3.22,1.443-3.22,3.221c0,1.776,1.443,3.22,3.22,3.22
				C2.559,13.691,4.002,12.247,4.002,10.471L4.002,10.471z"/>
			<path d="M253.656,69.214c0-1.777-1.44-3.221-3.221-3.221c-1.773,0-3.221,1.443-3.221,3.221c0,1.776,1.447,3.22,3.221,3.22
				C252.216,72.434,253.656,70.99,253.656,69.214L253.656,69.214z"/>
			<path d="M41.101,166.604c0-1.78-1.44-3.221-3.221-3.221c-1.777,0-3.22,1.44-3.22,3.221s1.443,3.221,3.22,3.221
				C39.661,169.824,41.101,168.384,41.101,166.604L41.101,166.604z"/>
			<path d="M67.381,204.476c0-1.779-1.44-3.22-3.22-3.22c-1.777,0-3.221,1.44-3.221,3.22c0,1.78,1.444,3.221,3.221,3.221
				C65.94,207.696,67.381,206.256,67.381,204.476L67.381,204.476z"/>
			<path d="M107.575,78.488c0-1.777-1.443-3.221-3.22-3.221c-1.78,0-3.221,1.444-3.221,3.221c0,1.777,1.44,3.221,3.221,3.221
				C106.131,81.709,107.575,80.266,107.575,78.488L107.575,78.488z"/>
			<path d="M146.221,95.494c0-1.78-1.44-3.22-3.22-3.22c-1.78,0-3.221,1.44-3.221,3.22c0,1.777,1.44,3.22,3.221,3.22
				C144.781,98.714,146.221,97.271,146.221,95.494L146.221,95.494z"/>
			<path d="M189.503,100.129c0-1.777-1.44-3.22-3.22-3.22c-1.774,0-3.221,1.443-3.221,3.22c0,1.78,1.447,3.221,3.221,3.221
				C188.063,103.35,189.503,101.91,189.503,100.129L189.503,100.129z"/>
			<path d="M36.465,118.679c0-1.773-1.444-3.22-3.221-3.22s-3.22,1.447-3.22,3.22c0,1.78,1.443,3.221,3.22,3.221
				S36.465,120.459,36.465,118.679L36.465,118.679z"/>
			<path d="M85.931,242.349c0-1.78-1.44-3.221-3.221-3.221c-1.777,0-3.221,1.44-3.221,3.221s1.444,3.221,3.221,3.221
				C84.49,245.569,85.931,244.129,85.931,242.349L85.931,242.349z"/>
			<path d="M132.308,166.604c0-1.78-1.443-3.221-3.221-3.221c-1.777,0-3.221,1.44-3.221,3.221s1.444,3.221,3.221,3.221
				C130.864,169.824,132.308,168.384,132.308,166.604L132.308,166.604z"/>
			<path d="M250.568,146.507c0-1.78-1.447-3.221-3.221-3.221c-1.78,0-3.221,1.44-3.221,3.221c0,1.779,1.44,3.221,3.221,3.221
				C249.121,149.728,250.568,148.286,250.568,146.507L250.568,146.507z"/>
			<path d="M71.246,135.688c0-1.78-1.443-3.221-3.22-3.221s-3.221,1.44-3.221,3.221c0,1.773,1.444,3.221,3.221,3.221
				S71.246,137.461,71.246,135.688L71.246,135.688z"/>
			<path d="M150.857,205.25c0-1.78-1.44-3.221-3.22-3.221c-1.774,0-3.221,1.44-3.221,3.221s1.447,3.22,3.221,3.22
				C149.417,208.47,150.857,207.03,150.857,205.25L150.857,205.25z"/>
			<path d="M173.275,59.939c0-1.777-1.447-3.221-3.22-3.221c-1.78,0-3.221,1.444-3.221,3.221s1.44,3.22,3.221,3.22
				C171.828,63.159,173.275,61.716,173.275,59.939L173.275,59.939z"/>
			<path d="M269.117,186.7c0-1.78-1.446-3.221-3.221-3.221c-1.779,0-3.221,1.44-3.221,3.221c0,1.773,1.441,3.221,3.221,3.221
				C267.671,189.921,269.117,188.474,269.117,186.7L269.117,186.7z"/>
			<path d="M73.564,96.268c0-1.78-1.44-3.221-3.221-3.221c-1.777,0-3.221,1.44-3.221,3.221c0,1.777,1.444,3.22,3.221,3.22
				C72.124,99.488,73.564,98.044,73.564,96.268L73.564,96.268z"/>
			<path d="M277.615,110.955c0-1.78-1.44-3.221-3.221-3.221c-1.773,0-3.221,1.44-3.221,3.221c0,1.773,1.447,3.22,3.221,3.22
				C276.175,114.175,277.615,112.729,277.615,110.955L277.615,110.955z"/>
			<path d="M232.786,106.312c0-1.78-1.44-3.221-3.22-3.221c-1.774,0-3.221,1.44-3.221,3.221s1.446,3.221,3.221,3.221
				C231.345,109.533,232.786,108.093,232.786,106.312L232.786,106.312z"/>
			<path d="M177.137,171.239c0-1.773-1.44-3.221-3.221-3.221c-1.78,0-3.22,1.447-3.22,3.221c0,1.78,1.44,3.221,3.22,3.221
				C175.697,174.46,177.137,173.02,177.137,171.239L177.137,171.239z"/>
			<path d="M0.91,98.585c0-1.776-1.443-3.22-3.22-3.22s-3.221,1.444-3.221,3.22c0,1.777,1.444,3.218,3.221,3.218
				S0.91,100.362,0.91,98.585L0.91,98.585z"/>
			<path d="M152.404,20.519c0-1.776-1.44-3.22-3.22-3.22c-1.78,0-3.221,1.444-3.221,3.22c0,1.777,1.44,3.221,3.221,3.221
				C150.964,23.739,152.404,22.296,152.404,20.519L152.404,20.519z"/>
			<path d="M27.961,206.797c0-1.78-1.44-3.22-3.221-3.22c-1.777,0-3.22,1.439-3.22,3.22c0,1.774,1.443,3.221,3.22,3.221
				C26.521,210.018,27.961,208.571,27.961,206.797L27.961,206.797z"/>
			<path d="M242.063,215.295c0-1.773-1.44-3.221-3.221-3.221s-3.22,1.447-3.22,3.221c0,1.78,1.44,3.221,3.22,3.221
				S242.063,217.075,242.063,215.295L242.063,215.295z"/>
			<path d="M38.009,73.85c0-1.777-1.44-3.221-3.22-3.221c-1.777,0-3.221,1.443-3.221,3.221c0,1.78,1.443,3.221,3.221,3.221
				C36.569,77.07,38.009,75.63,38.009,73.85L38.009,73.85z"/>
			<path d="M213.462,64.575c0-1.777-1.44-3.22-3.22-3.22c-1.774,0-3.221,1.443-3.221,3.22c0,1.78,1.447,3.22,3.221,3.22
				C212.022,67.795,213.462,66.354,213.462,64.575L213.462,64.575z"/>
			<path d="M89.025,168.15c0-1.78-1.443-3.22-3.221-3.22c-1.78,0-3.221,1.439-3.221,3.22c0,1.774,1.441,3.221,3.221,3.221
				C87.582,171.371,89.025,169.925,89.025,168.15L89.025,168.15z"/>
			<path d="M109.119,205.25c0-1.78-1.443-3.221-3.221-3.221c-1.777,0-3.221,1.44-3.221,3.221s1.444,3.22,3.221,3.22
				C107.676,208.47,109.119,207.03,109.119,205.25L109.119,205.25z"/>
			<path d="M42.648,242.349c0-1.78-1.443-3.221-3.221-3.221c-1.777,0-3.22,1.44-3.22,3.221s1.443,3.221,3.22,3.221
				C41.205,245.569,42.648,244.129,42.648,242.349L42.648,242.349z"/>
			<path d="M194.139,22.837c0-1.777-1.44-3.221-3.22-3.221c-1.774,0-3.221,1.443-3.221,3.221c0,1.78,1.447,3.22,3.221,3.22
				C192.699,26.057,194.139,24.617,194.139,22.837L194.139,22.837z"/>
			<path d="M130.763,243.896L130.763,243.896c0-1.78-1.443-3.221-3.22-3.221c-1.78,0-3.221,1.44-3.221,3.221"/>
			<path d="M2.455,53.756c0-1.777-1.44-3.221-3.22-3.221c-1.777,0-3.221,1.443-3.221,3.221c0,1.777,1.443,3.221,3.221,3.221
				C1.014,56.977,2.455,55.533,2.455,53.756L2.455,53.756z"/>
			<path d="M223.514,178.97c0-1.78-1.44-3.221-3.221-3.221c-1.78,0-3.22,1.44-3.22,3.221s1.44,3.221,3.22,3.221
				C222.074,182.19,223.514,180.75,223.514,178.97L223.514,178.97z"/>
			<path d="M266.797-9.626c0-1.777-1.441-3.221-3.221-3.221c-1.774,0-3.221,1.444-3.221,3.221c0,1.78,1.446,3.22,3.221,3.22
				C265.355-6.406,266.797-7.847,266.797-9.626L266.797-9.626z"/>
			<path d="M211.147,236.939c0-1.78-1.446-3.221-3.22-3.221c-1.78,0-3.221,1.44-3.221,3.221s1.44,3.221,3.221,3.221
				C209.701,240.16,211.147,238.72,211.147,236.939L211.147,236.939z"/>
		</g>
	</g>
	<path fill="none" stroke="#000000" stroke-dasharray="6" d="M233.39,155.331c21.021-61.187,22.04-140.979-77.45-133.869
		C91.403,26.076,5.6-21.669,11.808,79.215c3.975,64.574,9.504,156.127,72.732,142.401
		C182.509,200.362,212.374,216.521,233.39,155.331z"/>
</g>
<g>
	<g>
		<defs>
			<path id="SVGID_3_" d="M697.816,155.331c21.021-61.187,22.041-140.979-77.45-133.869c-64.536,4.614-150.34-43.131-144.131,57.752
				c3.975,64.574,9.504,156.127,72.732,142.401C646.936,200.362,676.801,216.521,697.816,155.331z"/>
		</defs>
		<clipPath id="SVGID_4_">
			<use xlink:href="#SVGID_3_"  overflow="visible"/>
		</clipPath>
		<g clip-path="url(#SVGID_4_)">
			<polyline fill="#969CB0" points="693.834,105.791 692.86,80.982 714.768,69.292 718.127,95.475 			"/>
			<polyline fill="#7C7C92" points="714.768,69.292 692.86,80.982 674.712,64.04 696.678,51.9 			"/>
			<polyline fill="#86869E" points="674.712,64.04 692.86,80.982 693.834,105.791 673.964,89.638 			"/>
			<polyline fill="#999CB4" points="667.077,139.713 663.139,164.792 638.431,170.642 642.815,145.972 			"/>
			<polyline fill="#C1CAE3" points="638.431,170.642 663.139,164.792 684.519,178.485 660.132,182.442 			"/>
			<polyline fill="#69697B" points="684.519,178.485 663.139,164.792 667.077,139.713 687.764,153.715 			"/>
			<polyline fill="#7D7D93" points="698.917,26.903 717.775,44.009 714.768,69.292 696.678,51.9 			"/>
			<polyline fill="#747488" points="612.114,205.608 611.723,230.335 591.375,244.405 591.432,219.49 			"/>
			<polyline fill="#9EA1BA" points="632.991,242.952 611.723,230.335 612.114,205.608 633.55,218.132 			"/>
			<polyline fill="#656577" points="534.317,96.317 520.303,115.257 497.099,119.276 509.082,97.072 			"/>
			<polyline fill="#7E7E94" points="497.099,119.276 520.303,115.257 532.417,135.455 508.12,141.852 			"/>
			<polyline fill="#A5B1C2" points="532.417,135.455 520.303,115.257 534.317,96.317 549.709,116.685 			"/>
			<polyline fill="#5E5E6E" points="499.061,73.903 487.192,96.12 462.107,98.45 474.122,76.441 			"/>
			<polyline fill="#9A9AB5" points="462.107,98.45 487.192,96.12 497.099,119.276 472.121,121.435 			"/>
			<polyline fill="#84889B" points="497.099,119.276 487.192,96.12 499.061,73.903 509.082,97.072 			"/>
			<polyline fill="#828299" points="638.431,170.642 614.975,180.379 593.621,166.642 616.995,157.722 			"/>
			<polyline fill="#525261" points="593.621,166.642 614.975,180.379 612.114,205.608 591.444,191.55 			"/>
			<polyline fill="#585868" points="612.114,205.608 614.975,180.379 638.431,170.642 634.161,194.808 			"/>
			<polyline fill="#888BA0" points="499.061,73.903 474.122,76.441 463.328,53.812 488.727,50.476 			"/>
			<polyline fill="#99A2B4" points="573.769,125.221 599.143,119.484 621.329,133.077 595.734,140.159 			"/>
			<polyline fill="#6B6B7E" points="621.329,133.077 599.143,119.484 607.862,94.978 627.82,109.351 			"/>
			<polyline fill="#6C6C7F" points="607.862,94.978 599.143,119.484 573.769,125.221 582.249,100.447 			"/>
			<polyline fill="#6A6A7D" points="698.917,26.903 675.889,38.348 655.497,22.676 678.354,13.002 			"/>
			<polyline fill="#77778C" points="655.497,22.676 675.889,38.348 674.712,64.04 656.025,47.572 			"/>
			<polyline fill="#C4C6E6" points="674.712,64.04 675.889,38.348 698.917,26.903 696.678,51.9 			"/>
			<polyline fill="#717185" points="593.621,166.642 591.444,191.55 570.762,205.583 572.422,180.385 			"/>
			<polyline fill="#7C7C92" points="570.762,205.583 591.444,191.55 612.114,205.608 591.432,219.49 			"/>
			<polyline fill="#8B8DA4" points="489.217,207.087 507.597,190.399 528.078,204.426 509.597,219.654 			"/>
			<polyline fill="#575766" points="528.078,204.426 507.597,190.399 501.98,166.207 525.952,177.862 			"/>
			<polyline fill="#969DB0" points="501.98,166.207 507.597,190.399 489.217,207.087 482.644,182.605 			"/>
			<polyline fill="#808296" points="597.96,56.627 591.557,78.733 568.554,78.127 573.826,54.482 			"/>
			<polyline fill="#68687A" points="568.554,78.127 591.557,78.733 607.862,94.978 582.249,100.447 			"/>
			<polyline fill="#6C6C7F" points="607.862,94.978 591.557,78.733 597.96,56.627 614.869,72.717 			"/>
			<polyline fill="#84849B" points="502.508,28.894 516.391,7.482 541.608,3.592 528.266,25.84 			"/>
			<polyline fill="#858A9D" points="506.402,-16.001 516.391,7.482 502.508,28.894 491.167,5.3 			"/>
			<polyline fill="#8D8DA6" points="655.497,22.676 656.025,47.572 634.512,60.112 633.631,35.018 			"/>
			<polyline fill="#77778C" points="634.512,60.112 656.025,47.572 674.712,64.04 653.25,76.029 			"/>
			<polyline fill="#9999B4" points="613.17,20.45 633.631,35.018 634.512,60.112 617.643,43.616 			"/>
			<polyline fill="#9595AF" points="655.497,22.676 633.631,35.018 613.17,20.45 635.035,8.307 			"/>
			<polyline fill="#85899C" points="693.834,105.791 715.158,120.642 711.642,146.387 691.142,131.178 			"/>
			<polyline fill="#9E9EBA" points="739.362,111.162 715.158,120.642 693.834,105.791 718.127,95.475 			"/>
			<polyline fill="#AFB4CE" points="570.762,205.583 549.061,217.925 528.078,204.426 549.76,192.456 			"/>
			<polyline fill="#606071" points="528.078,204.426 549.061,217.925 547.703,242.846 525.876,229.774 			"/>
			<polyline fill="#9A9FB5" points="547.703,242.846 549.061,217.925 570.762,205.583 569.995,230.876 			"/>
			<polyline fill="#676779" points="571.844,30.334 561.516,53.633 536.217,50.529 546.979,27.991 			"/>
			<polyline fill="#6C6C7F" points="536.217,50.529 561.516,53.633 568.554,78.127 544.299,73.799 			"/>
			<polyline fill="#979CB2" points="568.554,78.127 561.516,53.633 571.844,30.334 573.826,54.482 			"/>
			<polyline fill="#A1ACBD" points="550.59,167.704 525.952,177.862 501.98,166.207 526.505,160.036 			"/>
			<polyline fill="#85889C" points="528.078,204.426 525.952,177.862 550.59,167.704 549.76,192.456 			"/>
			<polyline fill="#85899D" points="679.235,-11.803 678.354,13.002 655.497,22.676 654.352,-3.525 			"/>
			<polyline fill="#7E7E94" points="568.554,78.127 582.249,100.447 573.769,125.221 559.78,102.932 			"/>
			<polyline fill="#9898B3" points="571.844,30.334 567.114,5.215 584.827,-13.206 589.268,11.823 			"/>
			<polyline fill="#5C5C6C" points="541.608,3.592 567.114,5.215 571.844,30.334 546.979,27.991 			"/>
			<polyline fill="#545463" points="489.217,207.087 464.723,212.282 457.917,188.185 482.644,182.605 			"/>
			<polyline fill="#A7A9C4" points="655.616,206.728 633.55,218.132 612.114,205.608 634.161,194.808 			"/>
			<polyline fill="#D4DEF9" points="632.991,242.952 633.55,218.132 655.616,206.728 651.256,229.184 			"/>
			<polyline fill="#9797B2" points="638.431,170.642 660.132,182.442 655.616,206.728 634.161,194.808 			"/>
			<polyline fill="#9D9DB9" points="655.616,206.728 660.132,182.442 684.519,178.485 680.644,203.432 			"/>
			<polyline fill="#6E6E81" points="501.98,166.207 482.644,182.605 457.917,188.185 475.241,167.755 			"/>
			<polyline fill="#83839A" points="528.078,204.426 525.876,229.774 504.112,242.952 509.597,219.654 			"/>
			<polyline fill="#636374" points="497.099,119.276 488.268,143.915 462.094,144.418 472.121,121.435 			"/>
			<polyline fill="#6A6A7D" points="462.094,144.418 488.268,143.915 501.98,166.207 475.241,167.755 			"/>
			<polyline fill="#535362" points="501.98,166.207 488.268,143.915 497.099,119.276 508.12,141.852 			"/>
			<polyline fill="#7B7B91" points="532.417,135.455 549.709,116.685 573.769,125.221 556.283,143.248 			"/>
			<polyline fill="#4E4E5C" points="573.769,125.221 549.709,116.685 534.317,96.317 559.78,102.932 			"/>
			<polyline fill="#8E94A7" points="501.98,166.207 508.12,141.852 532.417,135.455 526.505,160.036 			"/>
			<polyline fill="#808296" points="684.519,178.485 687.764,153.715 711.642,146.387 709.308,171.919 			"/>
			<polyline fill="#7C7C92" points="711.642,146.387 687.764,153.715 667.077,139.713 691.142,131.178 			"/>
			<polyline fill="#A2A3BE" points="462.094,144.418 451.207,121.435 462.107,98.45 472.121,121.435 			"/>
			<polyline fill="#6E6E81" points="570.762,205.583 591.432,219.49 591.375,244.405 569.995,230.876 			"/>
			<polyline fill="#9298AC" points="667.077,139.713 670.819,115.15 693.834,105.791 691.142,131.178 			"/>
			<polyline fill="#7E7E94" points="693.834,105.791 670.819,115.15 650.772,100.479 673.964,89.638 			"/>
			<polyline fill="#585868" points="650.772,100.479 670.819,115.15 667.077,139.713 645.772,125.561 			"/>
			<polyline fill="#9CA2B7" points="584.827,-13.206 608.88,-4.705 613.17,20.45 589.268,11.823 			"/>
			<polyline fill="#AEB5CD" points="613.17,20.45 608.88,-4.705 631.531,-16.451 635.035,8.307 			"/>
			<polyline fill="#6C6C7F" points="597.96,56.627 573.826,54.482 571.844,30.334 594.545,33.904 			"/>
			<polyline fill="#A2AEBF" points="607.862,94.978 614.869,72.717 634.512,60.112 630.946,85.008 			"/>
			<polyline fill="#C0C9E2" points="634.512,60.112 614.869,72.717 597.96,56.627 617.643,43.616 			"/>
			<polyline fill="#9C9CB8" points="465.542,10.646 491.167,5.3 502.508,28.894 477.543,32.897 			"/>
			<polyline fill="#CFD3F3" points="621.329,133.077 645.772,125.561 667.077,139.713 642.815,145.972 			"/>
			<polyline fill="#86869E" points="650.772,100.479 645.772,125.561 621.329,133.077 627.82,109.351 			"/>
			<polyline fill="#78798D" points="655.497,22.676 635.035,8.307 631.531,-16.451 654.352,-3.525 			"/>
			<polyline fill="#6C6C7F" points="613.17,20.45 617.643,43.616 597.96,56.627 594.545,33.904 			"/>
			<polyline fill="#666678" points="634.512,60.112 653.25,76.029 650.772,100.479 630.946,85.008 			"/>
			<polyline fill="#555564" points="650.772,100.479 653.25,76.029 674.712,64.04 673.964,89.638 			"/>
			<polyline fill="#9DA6B9" points="672.775,236.939 651.256,229.184 655.616,206.728 678.827,213.521 			"/>
			<polyline fill="#606071" points="550.59,167.704 526.505,160.036 532.417,135.455 556.283,143.248 			"/>
			<polyline fill="#747488" points="536.217,50.529 511.339,52.208 502.508,28.894 528.266,25.84 			"/>
			<polyline fill="#747489" points="502.508,28.894 511.339,52.208 499.061,73.903 488.727,50.476 			"/>
			<polyline fill="#535362" points="499.061,73.903 511.339,52.208 536.217,50.529 524.405,72.975 			"/>
			<polyline fill="#6B6B7E" points="463.328,53.812 477.543,32.897 502.508,28.894 488.727,50.476 			"/>
			<polyline fill="#B7B8D7" points="534.317,96.317 509.082,97.072 499.061,73.903 524.405,72.975 			"/>
			<polyline fill="#737387" points="573.769,125.221 595.734,140.159 593.621,166.642 571.725,151.664 			"/>
			<polyline fill="#B3B4D2" points="593.621,166.642 595.734,140.159 621.329,133.077 616.995,157.722 			"/>
			<polyline fill="#666678" points="607.862,94.978 630.946,85.008 650.772,100.479 627.82,109.351 			"/>
			<polyline fill="#9696B1" points="655.616,206.728 680.644,203.432 702.949,215.264 678.827,213.521 			"/>
			<polyline fill="#888DA0" points="702.949,215.264 680.644,203.432 684.519,178.485 706.025,190.714 			"/>
			<polyline fill="#666678" points="571.844,30.334 589.268,11.823 613.17,20.45 594.545,33.904 			"/>
			<polyline fill="#6F6F83" points="730.405,186.486 706.025,190.714 684.519,178.485 709.308,171.919 			"/>
			<polyline fill="#C9D2ED" points="568.554,78.127 559.78,102.932 534.317,96.317 544.299,73.799 			"/>
			<polyline fill="#5E5E6E" points="536.217,50.529 544.299,73.799 534.317,96.317 524.405,72.975 			"/>
			<polyline fill="#646476" points="536.217,50.529 528.266,25.84 541.608,3.592 546.979,27.991 			"/>
			<polyline fill="#51515F" points="489.217,207.087 509.597,219.654 504.112,242.952 481.984,231.114 			"/>
			<polyline fill="#85859C" points="570.762,205.583 549.76,192.456 550.59,167.704 572.422,180.385 			"/>
			<polyline fill="#8C8DA5" points="638.431,170.642 616.995,157.722 621.329,133.077 642.815,145.972 			"/>
			<polyline fill="#8989A1" points="593.621,166.642 572.422,180.385 550.59,167.704 571.725,151.664 			"/>
			<polyline fill="#545463" points="573.769,125.221 571.725,151.664 550.59,167.704 556.283,143.248 			"/>
		</g>
	</g>
	<path fill="none" stroke="#000000" stroke-dasharray="6" d="M697.816,155.331c21.021-61.187,22.041-140.979-77.45-133.869
		c-64.536,4.614-150.34-43.131-144.131,57.752c3.975,64.574,9.504,156.127,72.732,142.401
		C646.936,200.362,676.801,216.521,697.816,155.331z"/>
</g>
<g>
	<g>
		<line fill="#FFFFFF" x1="275.743" y1="117.361" x2="430.672" y2="117.361"/>
		<polygon fill="#FFFFFF" points="434.203,117.361 429.228,119.394 430.409,117.361 429.228,115.329 		"/>
	</g>
	<g>
		<line fill="none" stroke="#000000" stroke-width="4" x1="275.743" y1="117.361" x2="430.672" y2="117.361"/>
		<polygon points="444.793,117.361 424.894,125.491 429.617,117.361 424.894,109.232 		"/>
	</g>
</g>
<g>
	<defs>
		<rect id="SVGID_5_" x="295.886" y="126.408" width="104.641" height="20.641"/>
	</defs>
	<clipPath id="SVGID_6_">
		<use xlink:href="#SVGID_5_"  overflow="visible"/>
	</clipPath>
	<path clip-path="url(#SVGID_6_)" d="M301.741,128.084c0-0.577-0.457-0.763-0.776-0.763c-0.479,0-1.095,0.463-1.095,1.109
		c0,0.577,0.456,0.761,0.776,0.761C301.102,129.191,301.741,128.754,301.741,128.084 M301.852,139.109
		c0-0.229-0.184-0.229-0.344-0.229c-0.299,0-0.299,0.045-0.391,0.385c-0.184,0.659-0.804,2.839-2.135,2.839
		c-0.184,0-0.504-0.022-0.504-0.64c0-0.594,0.3-1.347,0.6-2.191c0.507-1.302,0.991-2.603,1.476-3.904
		c0.23-0.662,0.277-0.845,0.277-1.279c0-1.255-0.874-1.825-1.725-1.825c-2.163,0-2.945,3.403-2.945,3.518
		c0,0.229,0.231,0.229,0.347,0.229c0.3,0,0.324-0.046,0.417-0.363c0.208-0.747,0.809-2.856,2.151-2.856
		c0.254,0,0.51,0.114,0.51,0.64c0,0.549-0.254,1.21-0.415,1.644c-0.253,0.708-0.506,1.37-0.69,1.896
		c-0.307,0.753-0.589,1.507-0.872,2.26c-0.33,0.868-0.423,1.12-0.423,1.576c0,0.891,0.552,1.826,1.747,1.826
		C301.093,142.633,301.853,139.203,301.852,139.109L301.852,139.109z"/>
	<path clip-path="url(#SVGID_6_)" d="M306.55,138.385c0.115-0.502,0.253-0.981,0.368-1.482c0.299-1.164,0.299-1.188,0.69-1.851
		c0.322-0.548,1.358-2.261,3.107-2.261c1.012,0,1.059,1.028,1.059,1.508c0,1.416-1.027,4.132-1.354,5.045
		c-0.304,0.777-0.374,0.981-0.374,1.462c0,1.004,0.643,1.826,1.747,1.826c2.138,0,2.92-3.408,2.92-3.522
		c0-0.229-0.184-0.229-0.344-0.229c-0.298,0-0.298,0.046-0.39,0.386c-0.183,0.613-0.803,2.839-2.133,2.839
		c-0.481,0-0.504-0.343-0.504-0.663c0-0.57,0.24-1.164,0.432-1.712c0.456-1.21,1.391-3.767,1.391-5.092
		c0-1.872-1.264-2.375-2.391-2.375c-1.885,0-2.987,1.364-3.286,1.797c-0.161-1.114-0.942-1.797-1.931-1.797
		c-0.826,0-1.287,0.526-1.654,1.212c-0.437,0.914-0.735,2.261-0.735,2.307c0,0.229,0.229,0.229,0.345,0.229
		c0.299,0,0.323-0.022,0.438-0.521c0.414-1.587,0.852-2.698,1.565-2.698c0.598,0,0.598,0.662,0.598,0.914
		c0,0.365-0.069,0.799-0.161,1.164l-1.726,6.85c-0.046,0.137-0.069,0.25-0.069,0.32c0,0.25,0.185,0.593,0.645,0.593
		c0.276,0,0.667-0.16,0.828-0.593"/>
	<path clip-path="url(#SVGID_6_)" d="M320.153,133.224h1.943c0.389,0,0.64,0,0.64-0.44c0-0.278-0.208-0.278-0.575-0.278h-1.835
		l0.849-3.388c0.092-0.32,0.092-0.367,0.092-0.48c0-0.481-0.39-0.596-0.619-0.596c-0.573,0-0.802,0.48-0.895,0.823l-0.894,3.641
		h-1.95c-0.394,0-0.647,0-0.647,0.44c0,0.278,0.206,0.278,0.574,0.278h1.835l-1.648,6.569c-0.023,0.092-0.114,0.459-0.114,0.778
		c0,1.145,0.757,2.06,1.95,2.06c2.315,0,3.486-3.407,3.486-3.521c0-0.229-0.184-0.229-0.344-0.229c-0.274,0-0.274,0.022-0.457,0.432
		c-0.412,1.089-1.325,2.793-2.627,2.793c-0.617,0-0.617-0.571-0.617-0.937c0-0.16,0-0.525,0.16-1.164"/>
	<path clip-path="url(#SVGID_6_)" d="M326.535,136.585c0.984-3.725,3.342-3.793,3.571-3.793c0.916,0,1.443,0.614,1.443,1.386
		c0,2.407-3.779,2.407-4.534,2.407 M327.307,137.113c0.684,0,2.211-0.072,3.305-0.528c1.802-0.731,1.802-2.218,1.802-2.378
		c0-1.051-0.846-1.942-2.306-1.942c-2.396,0-5.661,2.311-5.661,6.362c0,2.06,1.099,4.005,3.272,4.005c2.929,0,4.83-2.285,4.83-2.628
		c0-0.114-0.185-0.366-0.367-0.366c-0.092,0-0.115,0.023-0.297,0.249c-1.693,2.126-3.728,2.218-4.117,2.218
		c-1.486,0-1.738-1.611-1.738-2.496c0-0.862,0.229-1.883,0.388-2.496L327.307,137.113z"/>
	<path clip-path="url(#SVGID_6_)" d="M338.289,135.806c0.022-0.067,1.056-3.014,3.03-3.014c0.114,0,0.757,0,1.217,0.289
		c-0.79,0.25-0.858,0.979-0.858,1.094c0,0.296,0.206,0.729,0.799,0.729c0.411,0,1.119-0.318,1.119-1.205
		c0-1.184-1.494-1.434-2.251-1.434c-1.585,0-2.412,1.135-2.779,1.635c-0.253-1.203-1.148-1.635-1.906-1.635
		c-0.828,0-1.287,0.524-1.654,1.21c-0.437,0.914-0.735,2.263-0.735,2.308c0,0.229,0.229,0.229,0.344,0.229
		c0.299,0,0.322-0.023,0.437-0.521c0.414-1.587,0.85-2.698,1.561-2.698c0.597,0,0.597,0.663,0.597,0.914
		c0,0.365-0.069,0.799-0.161,1.165l-1.722,6.849c-0.046,0.138-0.068,0.251-0.068,0.319c0,0.252,0.184,0.594,0.643,0.594
		c0.688,0,0.849-0.662,0.895-0.845"/>
	<path clip-path="url(#SVGID_6_)" d="M348.1,135.364c0.185-0.774,1.609-2.573,2.874-2.573c1.035,0,1.265,1.299,1.265,2.026
		c0,0.956-0.621,3.666-1.289,5.124c-0.275,0.569-1.264,2.163-2.436,2.163c-1.333,0-1.563-1.936-1.563-2.118
		c0-0.067,0.023-0.136,0.068-0.318 M344.128,145.336c-0.184,0.71-0.367,0.777-1.263,0.801c-0.206,0-0.482,0-0.482,0.441
		c0,0.163,0.115,0.279,0.276,0.279c0.62,0,1.286-0.069,1.928-0.069c0.735,0,1.516,0.069,2.227,0.069c0.138,0,0.437,0,0.437-0.441
		c0-0.279-0.23-0.279-0.551-0.279c-1.171,0-1.171-0.137-1.171-0.367c0-0.138,0.161-0.734,0.252-1.102l0.827-3.355
		c0.16,0.388,0.734,1.319,1.928,1.319c2.504,0,5.237-3.387,5.237-6.798c0-2.448-1.379-3.569-2.757-3.569
		c-1.125,0-2.113,0.817-2.779,1.589c-0.275-1.316-1.309-1.589-1.882-1.589c-0.827,0-1.286,0.524-1.653,1.21
		c-0.437,0.914-0.735,2.262-0.735,2.308c0,0.229,0.229,0.229,0.345,0.229c0.298,0,0.322-0.022,0.436-0.521
		c0.414-1.587,0.85-2.698,1.562-2.698c0.597,0,0.597,0.667,0.597,0.919c0,0.137,0,0.503-0.161,1.144L344.128,145.336z"/>
	<path clip-path="url(#SVGID_6_)" d="M358.497,142.104c-0.896,0-1.746-0.706-1.746-2.345c0-1.139,0.597-3.667,1.333-4.896
		c0.85-1.389,1.954-2.071,2.85-2.071c1.126,0,1.771,1.001,1.771,2.346c0,0.979-0.507,3.323-1.243,4.689
		C360.795,141.079,359.624,142.104,358.497,142.104 M364.287,136.018c0-2.174-1.351-3.753-3.339-3.753
		c-2.833,0-5.781,3.25-5.781,6.591c0,2.358,1.44,3.776,3.337,3.776C361.337,142.632,364.287,139.383,364.287,136.018z"/>
	<path clip-path="url(#SVGID_6_)" d="M371.306,127.03c0.023-0.069,0.069-0.253,0.069-0.299c0-0.206-0.139-0.274-0.322-0.274
		c-0.068,0-0.298,0.023-0.367,0.045l-2.271,0.183c-0.276,0.022-0.529,0.046-0.529,0.479c0,0.251,0.229,0.251,0.552,0.251
		c1.102,0,1.147,0.163,1.147,0.393c0,0.067-0.068,0.366-0.068,0.39l-2.882,11.475c-0.023,0.091-0.139,0.55-0.139,0.895
		c0,1.216,0.825,2.064,1.927,2.064c0.872,0,1.329-0.616,1.628-1.188c0.39-0.801,0.712-2.264,0.712-2.333
		c0-0.229-0.183-0.229-0.343-0.229c-0.114,0-0.252,0-0.32,0.113l-0.16,0.567c-0.387,1.589-0.82,2.543-1.46,2.543
		c-0.594,0-0.594-0.619-0.594-0.939c0-0.16,0-0.504,0.139-1.055"/>
	<path clip-path="url(#SVGID_6_)" d="M378.36,139.531c-0.185,0.729-1.609,2.573-2.874,2.573c-1.08,0-1.264-1.344-1.264-2.026
		c0-1.139,0.713-3.804,1.126-4.759c0.575-1.39,1.632-2.528,2.574-2.528c1.012,0,1.587,1.185,1.587,2.141
		c0,0.045-0.023,0.159-0.069,0.296 M381.272,133.794c0.093-0.319,0.093-0.365,0.093-0.479c0-0.479-0.393-0.594-0.622-0.594
		c-0.737,0-0.898,0.776-0.922,0.891c-0.437-0.981-1.174-1.347-1.91-1.347c-2.555,0-5.272,3.479-5.272,6.82
		c0,1.945,1.059,3.547,2.785,3.547c0.829,0,1.842-0.479,2.763-1.594c0.254,1.115,1.104,1.594,1.911,1.594
		c0.852,0,1.335-0.572,1.681-1.28c0.415-0.869,0.692-2.195,0.692-2.242c0-0.229-0.187-0.229-0.348-0.229
		c-0.275,0-0.299,0.023-0.438,0.522c-0.322,1.271-0.759,2.702-1.542,2.702c-0.599,0-0.599-0.617-0.599-0.937
		c0-0.16,0-0.525,0.161-1.164L381.272,133.794z"/>
	<path clip-path="url(#SVGID_6_)" d="M387.928,133.224h1.944c0.389,0,0.64,0,0.64-0.44c0-0.278-0.208-0.278-0.574-0.278h-1.835
		l0.849-3.388c0.092-0.32,0.092-0.367,0.092-0.48c0-0.481-0.39-0.596-0.619-0.596c-0.574,0-0.802,0.48-0.895,0.823l-0.895,3.641
		h-1.949c-0.392,0-0.646,0-0.646,0.44c0,0.278,0.206,0.278,0.574,0.278h1.835l-1.647,6.569c-0.023,0.092-0.115,0.459-0.115,0.778
		c0,1.145,0.757,2.06,1.949,2.06c2.316,0,3.487-3.407,3.487-3.521c0-0.229-0.184-0.229-0.344-0.229
		c-0.274,0-0.274,0.022-0.457,0.432c-0.412,1.089-1.324,2.793-2.627,2.793c-0.617,0-0.617-0.571-0.617-0.937
		c0-0.16,0-0.525,0.159-1.164"/>
	<path clip-path="url(#SVGID_6_)" d="M394.311,136.585c0.984-3.725,3.343-3.793,3.572-3.793c0.915,0,1.442,0.614,1.442,1.386
		c0,2.407-3.779,2.407-4.535,2.407 M395.083,137.113c0.685,0,2.212-0.072,3.306-0.528c1.802-0.731,1.802-2.218,1.802-2.378
		c0-1.051-0.846-1.942-2.306-1.942c-2.396,0-5.661,2.311-5.661,6.362c0,2.06,1.099,4.005,3.272,4.005c2.93,0,4.83-2.285,4.83-2.628
		c0-0.114-0.185-0.366-0.367-0.366c-0.092,0-0.114,0.023-0.297,0.249c-1.693,2.126-3.728,2.218-4.117,2.218
		c-1.486,0-1.738-1.611-1.738-2.496c0-0.862,0.229-1.883,0.388-2.496L395.083,137.113z"/>
</g>
</svg>
