<?xml version="1.0" encoding="utf-8"?>
<!-- Generator: Adobe Illustrator 14.0.0, SVG Export Plug-In . SVG Version: 6.00 Build 43363)  -->
<!DOCTYPE svg PUBLIC "-//W3C//DTD SVG 1.1//EN" "http://www.w3.org/Graphics/SVG/1.1/DTD/svg11.dtd">
<svg version="1.1" id="Layer_1" xmlns="http://www.w3.org/2000/svg" xmlns:xlink="http://www.w3.org/1999/xlink" x="0px" y="0px"
	 width="398.5px" height="164.5px" viewBox="0 0 398.5 164.5" enable-background="new 0 0 398.5 164.5" xml:space="preserve">
<g>
	<line fill="none" stroke="#231F20" stroke-width="5.9467" x1="167.19" y1="57.947" x2="167.19" y2="81.733"/>
	<polygon fill="#231F20" points="159.754,79.564 167.167,92.403 174.579,79.564 	"/>
</g>
<g>
	<line fill="none" stroke="#231F20" stroke-width="5.9467" x1="334.406" y1="57.947" x2="334.406" y2="81.733"/>
	<polygon fill="#231F20" points="326.971,79.564 334.383,92.403 341.795,79.564 	"/>
</g>
<g>
	<defs>
		<rect id="SVGID_1_" x="9.826" y="27.096" width="50.08" height="16.075"/>
	</defs>
	<clipPath id="SVGID_2_">
		<use xlink:href="#SVGID_1_"  overflow="visible"/>
	</clipPath>
	<path clip-path="url(#SVGID_2_)" d="M12.917,38.662c0.089,0.281,0.84,1.232,2.197,1.232c2.127,0,3.985-1.739,3.985-4.027
		c0-2.252-1.728-4.01-3.722-4.01c-1.389,0-2.136,0.789-2.491,1.182v-1.182l-2.563,0.193v0.548c1.236,0,1.357,0.109,1.357,0.892
		v8.324c0,0.801-0.191,0.801-1.357,0.801v0.557c0.603-0.018,1.526-0.053,1.986-0.053c0.479,0,1.384,0.035,2.004,0.053v-0.557
		c-1.2,0-1.396,0-1.396-0.801v-2.992 M12.917,33.716c0.518-0.908,1.394-1.427,2.304-1.427c1.304,0,2.395,1.569,2.395,3.582
		c0,2.155-1.251,3.651-2.573,3.651c-0.714,0-1.394-0.356-1.875-1.087c-0.25-0.373-0.25-0.391-0.25-0.748V33.716z"/>
	<path clip-path="url(#SVGID_2_)" d="M22.686,38.315v-2.741c0-1.762,0.751-3.347,2.114-3.347c0.125,0,0.161,0,0.197,0
		c-0.051,0.019-0.394,0.238-0.394,0.715c0,0.513,0.377,0.788,0.773,0.788c0.323,0,0.773-0.214,0.773-0.785
		c0-0.57-0.554-1.088-1.321-1.088c-1.302,0-1.944,1.195-2.194,1.962v-1.962l-2.479,0.193v0.547c1.218,0,1.357,0.124,1.357,0.995
		v4.761c0,0.799-0.191,0.799-1.357,0.799v0.557c0.691-0.019,1.525-0.053,2.022-0.053c0.71,0,1.543,0,2.253,0.053v-0.557h-0.377
		C22.721,39.152,22.686,38.956,22.686,38.315"/>
	<path clip-path="url(#SVGID_2_)" d="M29.857,28.765c0-0.56-0.438-0.927-0.927-0.927c-0.542,0-0.927,0.472-0.927,0.927
		c0,0.472,0.385,0.928,0.927,0.928C29.419,29.692,29.857,29.325,29.857,28.765 M29.795,31.857L27.3,32.051v0.547
		c1.16,0,1.321,0.107,1.321,0.977v4.779c0,0.799-0.196,0.799-1.392,0.799v0.557c0.568-0.019,1.526-0.053,1.951-0.053
		c0.621,0,1.242,0.034,1.845,0.053v-0.557c-1.16,0-1.229-0.09-1.229-0.781L29.795,31.857z"/>
	<path clip-path="url(#SVGID_2_)" d="M33.444,33.594v4.76c0,0.799-0.19,0.799-1.349,0.799v0.557c0.62-0.018,1.526-0.053,2.004-0.053
		c0.461,0,1.384,0.035,1.987,0.053v-0.557c-1.207,0-1.406,0-1.406-0.801v-3.275c0-1.851,1.26-2.848,2.396-2.848
		c1.119,0,1.314,0.961,1.314,1.976v4.147c0,0.801-0.193,0.801-1.364,0.801v0.557c0.621-0.018,1.526-0.053,2.005-0.053
		c0.461,0,1.383,0.035,1.987,0.053v-0.557c-1.195,0-1.391,0-1.391-0.801v-3.275c0-1.851,1.26-2.848,2.396-2.848
		c1.118,0,1.314,0.961,1.314,1.976v4.147c0,0.801-0.194,0.801-1.379,0.801v0.557c0.621-0.018,1.526-0.053,2.005-0.053
		c0.461,0,1.384,0.035,1.987,0.053v-0.557c-0.918,0-1.359,0-1.376-0.532v-3.39c0-1.527,0-2.077-0.555-2.715
		c-0.25-0.302-0.838-0.658-1.87-0.658c-1.497,0-2.282,1.07-2.585,1.75c-0.249-1.553-1.568-1.75-2.37-1.75
		c-1.301,0-2.138,0.768-2.637,1.874v-1.874l-2.462,0.193v0.548c1.211,0,1.349,0.124,1.349,0.995"/>
	<path clip-path="url(#SVGID_2_)" d="M52.116,35.442v1.782c0,1.692-1.27,2.298-2.062,2.298c-0.864,0-1.586-0.623-1.586-1.514
		C48.467,37.028,49.207,35.55,52.116,35.442 M52.254,38.36c0.07,0.719,0.548,1.474,1.378,1.474c0.372,0,1.451-0.251,1.451-1.697v-1
		H54.65v0.999c0,1.034-0.444,1.142-0.641,1.142c-0.586,0-0.657-0.803-0.657-0.893v-3.565c0-0.749,0-1.444-0.634-2.104
		c-0.684-0.695-1.562-0.982-2.404-0.982c-1.439,0-2.65,0.836-2.65,2.01c0,0.533,0.349,0.836,0.803,0.836
		c0.489,0,0.804-0.359,0.804-0.824c0-0.216-0.09-0.808-0.919-0.826c0.475-0.627,1.336-0.824,1.898-0.824
		c0.862,0,1.865,0.701,1.865,2.303v0.666c-0.9,0.054-2.135,0.107-3.246,0.639c-1.323,0.604-1.763,1.525-1.763,2.305
		c0,1.436,1.715,1.879,2.829,1.879C51.104,39.895,51.918,39.189,52.254,38.36z"/>
	<path clip-path="url(#SVGID_2_)" d="M58.36,27.405L55.792,27.6v0.547c1.25,0,1.393,0.127,1.393,0.994v9.215
		c0,0.797-0.197,0.797-1.393,0.797v0.557c0.585-0.019,1.525-0.053,1.969-0.053c0.443,0,1.312,0.034,1.969,0.053v-0.557
		c-1.178,0-1.371,0-1.371-0.797"/>
</g>
<g>
	<defs>
		<rect id="SVGID_3_" x="17.941" y="119.96" width="33.387" height="12.934"/>
	</defs>
	<clipPath id="SVGID_4_">
		<use xlink:href="#SVGID_3_"  overflow="visible"/>
	</clipPath>
	<path clip-path="url(#SVGID_4_)" d="M24.682,126.699v3.655c0,0.321,0,0.356-0.195,0.66c-0.529,0.856-1.323,1.249-2.082,1.249
		c-0.793,0-1.428-0.463-1.851-1.143c-0.458-0.73-0.512-1.748-0.512-2.479c0-0.659,0.036-1.73,0.547-2.532
		c0.37-0.554,1.041-1.143,1.993-1.143c0.617,0,1.358,0.268,1.905,1.07C24.682,126.342,24.682,126.378,24.682,126.699
		 M24.686,131.473v1.161l2.604-0.194v-0.547c-1.232,0-1.373-0.124-1.373-0.992v-10.755l-2.565,0.195v0.547
		c1.248,0,1.391,0.125,1.391,0.992v3.827c-0.514-0.644-1.275-1.11-2.233-1.11c-2.089,0-3.95,1.74-3.95,4.028
		c0,2.253,1.735,4.009,3.753,4.009C23.447,132.634,24.243,132.036,24.686,131.473z"/>
	<path clip-path="url(#SVGID_4_)" d="M34.695,131.047v1.587l2.567-0.194v-0.548c-1.249,0-1.391-0.124-1.391-0.993v-6.302
		l-2.601,0.194v0.547c1.224,0,1.364,0.126,1.364,0.998v3.168c0,1.549-0.853,2.759-2.147,2.759c-1.491,0-1.562-0.836-1.562-1.761
		v-5.905l-2.585,0.194v0.547c1.349,0,1.349,0.055,1.349,1.634v2.663c0,1.384,0,2.999,2.708,2.999
		C33.395,132.634,34.178,132.142,34.695,131.047"/>
	<path clip-path="url(#SVGID_4_)" d="M43.414,128.183v1.782c0,1.692-1.27,2.298-2.062,2.298c-0.864,0-1.586-0.623-1.586-1.515
		C39.766,129.769,40.505,128.29,43.414,128.183 M43.552,131.101c0.07,0.719,0.549,1.473,1.379,1.473c0.371,0,1.45-0.249,1.45-1.696
		v-1.001h-0.433v0.999c0,1.035-0.444,1.142-0.64,1.142c-0.587,0-0.658-0.803-0.658-0.893v-3.565c0-0.748,0-1.443-0.633-2.104
		c-0.685-0.696-1.562-0.983-2.404-0.983c-1.438,0-2.65,0.837-2.65,2.01c0,0.534,0.35,0.837,0.804,0.837
		c0.489,0,0.804-0.359,0.804-0.825c0-0.215-0.09-0.807-0.919-0.826c0.475-0.626,1.336-0.824,1.898-0.824
		c0.862,0,1.865,0.703,1.865,2.304v0.666c-0.9,0.054-2.134,0.106-3.246,0.639c-1.323,0.603-1.763,1.524-1.763,2.305
		c0,1.437,1.715,1.878,2.829,1.878C42.403,132.634,43.216,131.93,43.552,131.101z"/>
	<path clip-path="url(#SVGID_4_)" d="M49.657,120.145l-2.567,0.195v0.547c1.25,0,1.392,0.127,1.392,0.995v9.214
		c0,0.797-0.196,0.797-1.392,0.797v0.556c0.585-0.018,1.526-0.053,1.969-0.053c0.443,0,1.312,0.035,1.97,0.053v-0.556
		c-1.179,0-1.373,0-1.373-0.797"/>
</g>
<path fill="none" stroke="#000000" stroke-width="1.2459" stroke-linecap="round" stroke-linejoin="round" d="M229.764,52.644"/>
<g>
	
		<line fill="none" stroke="#000000" stroke-width="1.2459" stroke-linecap="round" stroke-linejoin="round" x1="105.057" y1="52.644" x2="167.41" y2="16.644"/>
	
		<line fill="none" stroke="#000000" stroke-width="1.2459" stroke-linecap="round" stroke-linejoin="round" x1="167.41" y1="16.644" x2="229.764" y2="52.644"/>
	<path fill="#A39DCF" d="M172.728,16.645c0-2.938-2.378-5.318-5.317-5.318c-2.937,0-5.316,2.381-5.316,5.318
		c0,2.937,2.38,5.317,5.316,5.317C170.35,21.962,172.728,19.581,172.728,16.645z"/>
</g>
<g>
	
		<line fill="none" stroke="#000000" stroke-width="1.2459" stroke-linecap="round" stroke-linejoin="round" x1="105.057" y1="143.016" x2="167.41" y2="107.016"/>
	<path fill="none" stroke="#000000" stroke-width="1.2459" stroke-linecap="round" stroke-linejoin="round" d="M229.764,143.016"/>
	
		<line fill="none" stroke="#000000" stroke-width="1.2459" stroke-linecap="round" stroke-linejoin="round" x1="167.41" y1="107.016" x2="229.764" y2="143.016"/>
	<polyline fill="none" stroke="#A39DCF" stroke-width="6" points="136.233,125.018 167.41,107.016 198.591,125.018 	"/>
</g>
<line fill="none" stroke="#A39DCF" stroke-width="6" x1="286.919" y1="26.638" x2="381.846" y2="26.638"/>
<g>
	
		<line fill="none" stroke="#000000" stroke-width="1.2459" stroke-linecap="round" stroke-linejoin="round" x1="286.918" y1="126.01" x2="381.846" y2="126.01"/>
	<circle fill="#A39DCF" cx="334.382" cy="126.011" r="5.317"/>
</g>
</svg>
