<?xml version="1.0" encoding="utf-8"?>
<!-- Generator: Adobe Illustrator 14.0.0, SVG Export Plug-In . SVG Version: 6.00 Build 43363)  -->
<!DOCTYPE svg PUBLIC "-//W3C//DTD SVG 1.1//EN" "http://www.w3.org/Graphics/SVG/1.1/DTD/svg11.dtd">
<svg version="1.1" id="Layer_1" xmlns="http://www.w3.org/2000/svg" xmlns:xlink="http://www.w3.org/1999/xlink" x="0px" y="0px"
	 width="297.333px" height="110px" viewBox="0 0 297.333 110" enable-background="new 0 0 297.333 110" xml:space="preserve">
<g>
	<circle cx="77.088" cy="86.812" r="3.329"/>
	<circle cx="219.402" cy="28.393" r="3.329"/>
	<g>
		<g>
			<line fill="none" stroke="#000000" stroke-width="2.6907" x1="77.087" y1="86.812" x2="207.525" y2="33.269"/>
			<polygon points="216.312,29.661 206.006,39.804 206.868,33.538 201.854,29.687 			"/>
		</g>
	</g>
	<g>
		<g>
			<line fill="none" stroke="#000000" stroke-dasharray="3" x1="77.087" y1="86.812" x2="42.859" y2="100.862"/>
			<polygon points="39.594,102.203 43.424,98.434 43.104,100.762 44.967,102.193 			"/>
		</g>
	</g>
	<g>
		<g>
			<line fill="none" stroke="#000000" stroke-dasharray="3" x1="219.403" y1="28.393" x2="253.632" y2="14.343"/>
			<polygon points="256.897,13.002 253.067,16.771 253.388,14.443 251.523,13.012 			"/>
		</g>
	</g>
</g>
<g>
	<defs>
		<rect id="SVGID_1_" x="134.999" y="41.003" width="14" height="12.6"/>
	</defs>
	<clipPath id="SVGID_2_">
		<use xlink:href="#SVGID_1_"  overflow="visible"/>
	</clipPath>
	<path clip-path="url(#SVGID_2_)" d="M143.465,51.353c0.285,1.071,1.191,1.75,2.304,1.75c0.906,0,1.502-0.598,1.916-1.43
		c0.44-0.936,0.779-2.521,0.779-2.573c0-0.26-0.234-0.26-0.311-0.26c-0.258,0-0.284,0.104-0.361,0.465
		c-0.361,1.444-0.85,3.198-1.933,3.198c-0.541,0-0.8-0.336-0.8-1.189c0-0.568,0.31-1.784,0.517-2.689
		c0.231-0.932,0.49-1.862,0.722-2.793c0.077-0.389,0.335-1.371,0.438-1.759c0.129-0.596,0.386-1.578,0.386-1.733
		c0-0.465-0.361-0.699-0.747-0.699c-0.129,0-0.799,0.027-1.005,0.906c-0.489,1.888-1.624,6.414-1.934,7.785
		c-0.025,0.104-1.057,2.173-2.938,2.173c-1.341,0-1.599-1.159-1.599-2.111c0-1.441,0.709-3.477,1.368-5.254
		c0.304-0.771,0.432-1.133,0.432-1.622c0-1.158-0.83-2.112-2.128-2.112c-2.461,0-3.42,3.713-3.42,3.942
		c0,0.256,0.256,0.256,0.307,0.256c0.257,0,0.282-0.051,0.411-0.455c0.641-2.205,1.614-3.145,2.589-3.145
		c0.23,0,0.641,0.027,0.641,0.852c0,0.618-0.279,1.365-0.431,1.752c-0.937,2.55-1.468,4.146-1.468,5.407
		c0,2.446,1.785,3.091,3.184,3.091c1.709,0,2.641-1.176,3.081-1.75"/>
</g>
<g>
	<defs>
		<rect id="SVGID_3_" x="69.947" y="94.397" width="13" height="12.6"/>
	</defs>
	<clipPath id="SVGID_4_">
		<use xlink:href="#SVGID_3_"  overflow="visible"/>
	</clipPath>
	<path clip-path="url(#SVGID_4_)" d="M77.829,103.124c-0.129,0.463-0.129,0.515-0.516,0.95c-1.135,1.412-2.193,1.822-2.916,1.822
		c-1.29,0-1.651-1.412-1.651-2.413c0-1.283,0.825-4.441,1.419-5.621c0.8-1.514,1.961-2.466,2.993-2.466
		c1.677,0,2.039,2.106,2.039,2.261s-0.052,0.309-0.078,0.437 M79.499,96.446c-0.468-0.953-1.221-1.65-2.39-1.65
		c-3.039,0-6.261,3.798-6.261,7.568c0,2.428,1.429,4.132,3.455,4.132c0.52,0,1.819-0.104,3.377-1.956
		c0.208,1.096,1.117,1.956,2.364,1.956c0.909,0,1.507-0.598,1.923-1.43c0.44-0.937,0.779-2.521,0.779-2.573
		c0-0.26-0.234-0.26-0.312-0.26c-0.26,0-0.286,0.104-0.363,0.465c-0.442,1.676-0.909,3.198-1.975,3.198
		c-0.702,0-0.779-0.67-0.779-1.185c0-0.566,0.052-0.772,0.338-1.904c0.286-1.082,0.338-1.339,0.571-2.318
		c0.441-1.647,0.545-2.137,0.936-3.604c0.183-0.722,0.183-0.772,0.183-0.875c0-0.438-0.312-0.695-0.753-0.695
		C79.967,95.314,79.577,95.88,79.499,96.446L79.499,96.446z"/>
</g>
<g>
	<defs>
		<rect id="SVGID_5_" x="214.059" y="2.977" width="10" height="19"/>
	</defs>
	<clipPath id="SVGID_6_">
		<use xlink:href="#SVGID_5_"  overflow="visible"/>
	</clipPath>
	<path clip-path="url(#SVGID_6_)" d="M217.04,13.729c0.154-0.565,0.154-0.616,0.388-0.897c1.267-1.668,2.43-2.056,3.103-2.056
		c0.93,0,1.629,0.772,1.629,2.415c0,1.514-0.854,4.466-1.319,5.442c-0.853,1.72-2.042,2.644-3.05,2.644
		c-0.879,0-1.732-0.693-1.732-2.593c0-0.488,0-0.976,0.413-2.592 M219.466,3.863c0-0.025,0-0.287-0.339-0.287
		c-0.601,0-2.504,0.211-3.183,0.263c-0.209,0.026-0.494,0.053-0.494,0.523c0,0.314,0.234,0.314,0.626,0.314
		c1.252,0,1.304,0.182,1.304,0.44c0,0.183-0.235,1.064-0.365,1.608l-2.139,8.457c-0.313,1.297-0.417,1.712-0.417,2.62
		c0,2.464,1.382,4.072,3.312,4.072c3.077,0,6.287-3.848,6.287-7.566c0-2.35-1.384-4.133-3.47-4.133c-1.2,0-2.269,0.728-3.052,1.505
		L219.466,3.863z"/>
</g>
<g>
	<defs>
		<rect id="SVGID_7_" x="2.51" y="72.13" width="50" height="23"/>
	</defs>
	<clipPath id="SVGID_8_">
		<use xlink:href="#SVGID_7_"  overflow="visible"/>
	</clipPath>
	<path clip-path="url(#SVGID_8_)" d="M6.014,74.229H20.26l-7.097,14.32h-0.026 M21.813,72.953c0.129-0.234,0.129-0.286,0.129-0.312
		c0-0.211-0.154-0.211-0.57-0.211H3.396c-0.414,0-0.57,0-0.57,0.211c0,0.026,0,0.078,0.129,0.312l8.755,17.608
		c0.181,0.338,0.232,0.467,0.673,0.467c0.441,0,0.492-0.129,0.673-0.467L21.813,72.953z"/>
	<path clip-path="url(#SVGID_8_)" d="M29.706,91.78c-0.127,0.511-0.523,0.875-0.92,1.221c-0.162,0.146-0.884,0.729-1.659,0.729
		c-0.667,0-1.316-0.474-1.316-1.768c0-0.966,0.522-2.971,0.938-3.7c0.83-1.458,1.749-1.733,2.254-1.733
		c1.263,0,1.604,1.387,1.604,1.588c0,0.072-0.035,0.199-0.054,0.255 M30.858,87.104c-0.381-0.6-0.997-1.073-1.868-1.073
		c-2.321,0-4.679,2.563-4.679,5.182c0,1.763,1.179,3.019,2.739,3.019c0.979,0,1.85-0.57,2.576-1.289
		c0.345,1.104,1.396,1.289,1.868,1.289c0.652,0,1.106-0.401,1.433-0.968c0.399-0.712,0.636-1.752,0.636-1.825
		c0-0.237-0.236-0.237-0.291-0.237c-0.254,0-0.271,0.073-0.398,0.567c-0.219,0.881-0.562,1.961-1.325,1.961
		c-0.471,0-0.599-0.399-0.599-0.892c0-0.31,0.146-0.965,0.272-1.438c0.127-0.49,0.308-1.237,0.399-1.638
		c0.182-0.673,0.199-0.783,0.362-1.384c0.109-0.473,0.327-1.329,0.327-1.42c0-0.401-0.327-0.583-0.617-0.583
		c-0.308,0-0.726,0.219-0.834,0.728L30.858,87.104z"/>
	<path clip-path="url(#SVGID_8_)" d="M45.397,74.452c0.233-0.936,0.312-1.223,2.746-1.223c0.777,0,0.984,0,0.984-0.489
		c0-0.311-0.285-0.311-0.414-0.311c-0.855,0-2.979,0.078-3.834,0.078c-0.777,0-2.668-0.078-3.445-0.078
		c-0.181,0-0.492,0-0.492,0.517c0,0.283,0.233,0.283,0.726,0.283c0.052,0,0.544,0,0.984,0.056c0.465,0.052,0.699,0.077,0.699,0.415
		c0,0.104-0.025,0.182-0.104,0.492l-3.471,13.92c-0.26,1.012-0.312,1.219-2.357,1.219c-0.441,0-0.7,0-0.7,0.516
		c0,0.284,0.233,0.284,0.7,0.284h11.993c0.62,0,0.646,0,0.803-0.44l2.046-5.595c0.104-0.285,0.104-0.337,0.104-0.362
		c0-0.104-0.077-0.285-0.311-0.285c-0.232,0-0.259,0.13-0.439,0.545c-0.882,2.384-2.021,5.339-6.502,5.339h-2.436
		c-0.363,0-0.414,0-0.57,0c-0.259-0.026-0.337-0.052-0.337-0.26c0-0.078,0-0.13,0.129-0.598"/>
</g>
<g>
	<defs>
		<rect id="SVGID_9_" x="246.094" y="23.984" width="48" height="23"/>
	</defs>
	<clipPath id="SVGID_10_">
		<use xlink:href="#SVGID_9_"  overflow="visible"/>
	</clipPath>
	<path clip-path="url(#SVGID_10_)" d="M249.698,26.084h14.246l-7.098,14.32h-0.025 M265.498,24.808
		c0.129-0.234,0.129-0.286,0.129-0.312c0-0.211-0.155-0.211-0.57-0.211H247.08c-0.414,0-0.57,0-0.57,0.211
		c0,0.026,0,0.078,0.129,0.312l8.755,17.608c0.182,0.338,0.233,0.467,0.674,0.467s0.491-0.129,0.673-0.467L265.498,24.808z"/>
	<path clip-path="url(#SVGID_10_)" d="M270.688,45.584c-0.887,0-1.394-0.783-1.394-1.858c0-0.675,0.163-1.294,0.67-3.354
		c0.108-0.346,0.108-0.383,0.453-0.783c0.688-0.803,1.503-1.205,2.155-1.205c0.705,0,1.321,0.53,1.321,1.77
		c0,0.747-0.398,2.605-0.942,3.663C272.518,44.708,271.611,45.583,270.688,45.584 M271.606,33.83
		c0.019-0.035,0.073-0.272,0.073-0.291c0-0.091-0.073-0.255-0.293-0.255c-0.366,0-1.884,0.153-2.341,0.191
		c-0.146,0.019-0.402,0.038-0.402,0.44c0,0.269,0.254,0.269,0.472,0.269c0.869,0,0.869,0.127,0.869,0.271
		c0,0.127-0.177,0.852-0.283,1.269l-0.407,1.666c-0.165,0.615-1.172,4.583-1.209,4.817c-0.092,0.436-0.092,0.671-0.092,0.888
		c0,1.83,1.169,2.988,2.686,2.988c2.284,0,4.714-2.472,4.714-5.162c0-2.127-1.482-3.037-2.745-3.037
		c-0.95,0-1.756,0.527-2.305,1.001L271.606,33.83z"/>
	<path clip-path="url(#SVGID_10_)" d="M286.981,26.307c0.233-0.936,0.312-1.223,2.746-1.223c0.777,0,0.984,0,0.984-0.489
		c0-0.311-0.285-0.311-0.414-0.311c-0.855,0-2.979,0.078-3.834,0.078c-0.777,0-2.668-0.078-3.445-0.078
		c-0.181,0-0.492,0-0.492,0.517c0,0.283,0.233,0.283,0.726,0.283c0.052,0,0.544,0,0.984,0.056c0.465,0.052,0.699,0.077,0.699,0.415
		c0,0.104-0.025,0.182-0.104,0.492l-3.471,13.92c-0.26,1.012-0.312,1.219-2.357,1.219c-0.441,0-0.7,0-0.7,0.516
		c0,0.284,0.233,0.284,0.7,0.284h11.993c0.62,0,0.646,0,0.803-0.44l2.046-5.595c0.104-0.285,0.104-0.337,0.104-0.362
		c0-0.104-0.077-0.285-0.311-0.285c-0.232,0-0.259,0.13-0.439,0.545c-0.882,2.384-2.021,5.339-6.502,5.339h-2.436
		c-0.363,0-0.414,0-0.57,0c-0.259-0.026-0.337-0.052-0.337-0.26c0-0.078,0-0.13,0.129-0.598"/>
</g>
<g>
	<path d="M99.386,93.126c-0.229-0.548-0.278-0.667-0.612-0.527c-1.465,0.583-3.909,1.375-6.5,1.209
		c-3.122-0.228-4.735-1.341-5.725-2.033c-0.122-0.092-0.265-0.032-0.576,0.098c-0.549,0.229-0.562,0.266-0.312,0.866l0.161,0.384
		c5.703,4.533,11.543,3.421,13.978,2.405c0.501-0.21,0.491-0.234,0.223-0.877"/>
	
		<rect x="97.644" y="83.455" transform="matrix(-0.9228 0.3852 -0.3852 -0.9228 265.5789 116.8127)" width="46.889" height="3.108"/>
	<path d="M156.344,76.711c-5.688-4.46-11.542-3.331-13.984-2.312c-0.503,0.21-0.492,0.235-0.224,0.879l0.637,1.524
		c0.229,0.549,0.278,0.667,0.614,0.527c1.471-0.585,3.921-1.385,6.512-1.241c3.119,0.201,4.725,1.286,5.71,1.961
		c0.122,0.089,0.265,0.028,0.577-0.102c0.551-0.229,0.565-0.265,0.317-0.858"/>
	<path d="M164.168,66.081c-0.269-0.643-0.279-0.668-0.78-0.459c-2.434,1.016-7.327,4.399-8.152,11.551l0.159,0.381
		c0.248,0.594,0.281,0.608,0.831,0.379c0.452-0.188,0.467-0.224,0.517-0.438c0.659-3.925,3.25-6.981,8.054-9.101
		c0.287-0.119,0.218-0.286,0.009-0.786"/>
	<rect x="162.426" y="56.413" transform="matrix(-0.9228 0.3852 -0.3852 -0.9228 379.7265 39.859)" width="46.889" height="3.108"/>
	<path d="M216.333,38.189c-0.25-0.6-0.285-0.616-0.836-0.386c-0.456,0.19-0.469,0.225-0.519,0.445
		c-0.642,3.983-3.23,7.077-8.051,9.203c-0.287,0.12-0.218,0.287-0.009,0.787l0.637,1.525c0.269,0.643,0.278,0.667,0.781,0.457
		c2.442-1.02,7.348-4.422,8.157-11.645"/>
</g>
<path d="M158.418,83.134c0.163-0.647,0.218-0.83,1.886-0.83c0.562,0,0.744,0,0.744-0.418c0-0.019-0.018-0.266-0.308-0.266
	c-0.417,0-0.906,0.056-1.342,0.084c-0.454,0-0.997,0-1.451,0c-0.381,0-0.87,0-1.251,0c-0.38,0-0.816-0.084-1.179-0.084
	c-0.109,0-0.382,0-0.382,0.418c0,0.266,0.219,0.266,0.58,0.266c0.019,0,0.363,0,0.689,0.039c0.38,0.036,0.417,0.072,0.417,0.252
	c0,0.036,0,0.126-0.072,0.396l-2.412,9.558c-0.163,0.612-0.2,0.756-1.596,0.756c-0.308,0-0.544,0-0.544,0.409
	c0,0.291,0.218,0.291,0.544,0.291h9.12c0.454,0,0.472-0.019,0.616-0.363c0.182-0.489,1.541-4.007,1.541-4.151
	c0-0.055-0.035-0.254-0.308-0.254c-0.218,0-0.253,0.091-0.362,0.377c-0.688,1.701-1.486,3.69-4.805,3.69h-2.049
	c-0.562,0-0.58-0.018-0.58-0.18c0-0.019,0-0.108,0.073-0.378"/>
</svg>
