<?xml version="1.0" encoding="utf-8"?>
<!-- Generator: Adobe Illustrator 14.0.0, SVG Export Plug-In . SVG Version: 6.00 Build 43363)  -->
<!DOCTYPE svg PUBLIC "-//W3C//DTD SVG 1.1//EN" "http://www.w3.org/Graphics/SVG/1.1/DTD/svg11.dtd">
<svg version="1.1" id="Layer_1" xmlns="http://www.w3.org/2000/svg" xmlns:xlink="http://www.w3.org/1999/xlink" x="0px" y="0px"
	 width="262px" height="320px" viewBox="0 0 262 320" enable-background="new 0 0 262 320" xml:space="preserve">
<polygon opacity="0.2" fill="#1B1F8A" enable-background="new    " points="131.929,280.104 14.15,212.104 14.15,76.104 
	131.931,8.104 249.711,76.104 249.709,212.104 "/>
<polygon fill="none" stroke="#000000" stroke-width="1.7127" points="131.929,280.104 14.15,212.104 14.15,76.104 131.931,8.104 
	249.711,76.104 249.709,212.104 "/>
<line fill="none" stroke="#000000" stroke-width="0.8564" x1="131.931" y1="8.104" x2="131.931" y2="280.104"/>
<line fill="none" stroke="#000000" stroke-width="0.8564" x1="249.711" y1="76.104" x2="14.15" y2="212.104"/>
<line fill="none" stroke="#000000" stroke-width="0.8564" x1="93.342" y1="121.826" x2="14.15" y2="76.104"/>
<line fill="none" stroke="#000000" stroke-width="0.8564" x1="249.709" y1="212.104" x2="123.998" y2="139.525"/>
<circle fill="#231F20" cx="131.929" cy="144.104" r="4.012"/>
<g>
	<defs>
		<rect id="SVGID_1_" x="114" y="286" width="31" height="27"/>
	</defs>
	<clipPath id="SVGID_2_">
		<use xlink:href="#SVGID_1_"  overflow="visible"/>
	</clipPath>
	<path clip-path="url(#SVGID_2_)" d="M123.527,291.182c0.252-0.97,1.221-1.977,1.865-2.516c1.256-1.114,2.297-1.366,2.907-1.366
		c1.437,0,2.297,1.258,2.297,3.379c0,2.12-1.185,6.253-1.829,7.618c-1.222,2.516-2.943,3.701-4.271,3.701
		c-2.369,0-2.835-2.983-2.835-3.198c0-0.071,0-0.144,0.106-0.575 M117.217,306.823c-0.287,1.225-0.359,1.477-1.938,1.477
		c-0.432,0-0.826,0-0.826,0.675c0,0.284,0.179,0.427,0.467,0.427c0.97,0,2.011-0.107,3.017-0.107c1.185,0,2.405,0.107,3.555,0.107
		c0.179,0,0.646,0,0.646-0.71c0-0.392-0.358-0.392-0.862-0.392c-1.795,0-1.795-0.253-1.795-0.578c0-0.433,1.508-6.318,1.76-7.223
		c0.467,1.042,1.472,2.3,3.304,2.3c4.166,0,8.657-5.252,8.657-10.539c0-3.381-2.049-5.759-4.778-5.759
		c-1.796,0-3.52,1.313-4.704,2.737c-0.359-1.971-1.902-2.737-3.231-2.737c-1.652,0-2.334,1.411-2.657,2.062
		c-0.646,1.229-1.113,3.397-1.113,3.506c0,0.36,0.359,0.36,0.432,0.36c0.358,0,0.395-0.036,0.61-0.83
		c0.611-2.563,1.329-4.298,2.621-4.298c0.61,0,1.113,0.291,1.113,1.66c0,0.828-0.108,1.225-0.252,1.837L117.217,306.823z"/>
	<path clip-path="url(#SVGID_2_)" d="M139.408,309.009c-0.428,1.734-1.762,3.191-3.246,3.191c-0.327,0-0.629-0.033-0.906-0.101
		c0.646-0.3,0.844-0.899,0.844-1.274c0-0.601-0.475-0.925-0.975-0.925c-0.775,0-1.425,0.664-1.425,1.451
		c0,0.935,0.979,1.55,2.487,1.55c1.507,0,4.446-0.904,5.226-3.969l2.261-8.989c0.075-0.276,0.127-0.502,0.127-0.879
		c0-1.382-1.182-2.363-2.689-2.363c-2.789,0-4.398,3.514-4.398,3.868c0,0.329,0.354,0.329,0.428,0.329
		c0.303,0,0.327-0.076,0.504-0.456c0.631-1.47,1.939-3.04,3.399-3.04c0.63,0,0.857,0.428,0.857,1.231
		c0,0.276-0.052,0.628-0.077,0.754 M144.721,292.139c0-0.421-0.326-0.939-1.004-0.939c-0.728,0-1.406,0.693-1.406,1.361
		c0,0.396,0.302,0.939,1.004,0.939C143.993,293.5,144.721,292.857,144.721,292.139z"/>
</g>
<path fill="none" stroke="#000000" stroke-width="1.7127" d="M37.407,225.53c2.285-3.95,3.593-8.536,3.593-13.427
	c0-4.895-1.31-9.483-3.598-13.435"/>
<path fill="none" stroke="#000000" stroke-width="1.7127" d="M226.452,198.678c-2.285,3.949-3.593,8.535-3.593,13.426
	c0,4.892,1.308,9.477,3.593,13.426"/>
<g>
	<defs>
		<rect id="SVGID_3_" x="92.667" y="120.271" width="29" height="24"/>
	</defs>
	<clipPath id="SVGID_4_">
		<use xlink:href="#SVGID_3_"  overflow="visible"/>
	</clipPath>
	<path clip-path="url(#SVGID_4_)" d="M102.194,125.452c0.252-0.97,1.221-1.977,1.865-2.516c1.256-1.114,2.297-1.366,2.907-1.366
		c1.437,0,2.297,1.258,2.297,3.379c0,2.12-1.185,6.253-1.829,7.618c-1.222,2.516-2.943,3.701-4.271,3.701
		c-2.369,0-2.835-2.983-2.835-3.198c0-0.071,0-0.144,0.106-0.575 M95.884,141.094c-0.287,1.225-0.359,1.477-1.938,1.477
		c-0.432,0-0.826,0-0.826,0.675c0,0.284,0.179,0.427,0.467,0.427c0.97,0,2.011-0.107,3.017-0.107c1.185,0,2.405,0.107,3.555,0.107
		c0.179,0,0.646,0,0.646-0.71c0-0.392-0.358-0.392-0.862-0.392c-1.795,0-1.795-0.253-1.795-0.578c0-0.433,1.508-6.318,1.76-7.223
		c0.467,1.042,1.472,2.3,3.304,2.3c4.166,0,8.657-5.252,8.657-10.539c0-3.381-2.049-5.759-4.778-5.759
		c-1.796,0-3.52,1.313-4.704,2.737c-0.359-1.971-1.902-2.737-3.231-2.737c-1.652,0-2.334,1.411-2.657,2.062
		c-0.646,1.229-1.113,3.397-1.113,3.506c0,0.36,0.359,0.36,0.432,0.36c0.358,0,0.395-0.036,0.61-0.83
		c0.611-2.563,1.329-4.298,2.621-4.298c0.61,0,1.113,0.291,1.113,1.66c0,0.828-0.108,1.225-0.252,1.837L95.884,141.094z"/>
	<path clip-path="url(#SVGID_4_)" d="M115.292,139.158c-0.1,0.329-0.225,0.632-0.225,1.062c0,1.188,1.002,2.149,2.379,2.149
		c2.504,0,3.607-3.504,3.607-3.885c0-0.331-0.329-0.331-0.404-0.331c-0.353,0-0.377,0.154-0.479,0.435
		c-0.58,2.037-1.689,3.082-2.673,3.082c-0.504,0-0.63-0.329-0.63-0.886c0-0.582,0.177-1.062,0.404-1.618
		c0.252-0.684,0.529-1.366,0.808-2.023c0.227-0.607,1.136-2.908,1.237-3.212c0.076-0.253,0.151-0.556,0.151-0.81
		c0-1.188-1.005-2.151-2.384-2.151c-2.482,0-3.637,3.438-3.637,3.868c0,0.328,0.354,0.328,0.429,0.328
		c0.354,0,0.379-0.127,0.455-0.404c0.657-2.178,1.769-3.09,2.704-3.09c0.404,0,0.632,0.203,0.632,0.887
		c0,0.582-0.155,0.961-0.799,2.529 M120.401,126.409c0-0.396-0.303-0.939-1.004-0.939c-0.679,0-1.406,0.643-1.406,1.361
		c0,0.42,0.326,0.939,1.004,0.939C119.723,127.771,120.401,127.077,120.401,126.409z"/>
</g>
<g>
	<defs>
		<rect id="SVGID_5_" x="50" y="203" width="34" height="27"/>
	</defs>
	<clipPath id="SVGID_6_">
		<use xlink:href="#SVGID_5_"  overflow="visible"/>
	</clipPath>
	<path clip-path="url(#SVGID_6_)" d="M63.898,215.836c-3.163,2.768-5.93,3.162-7.366,3.162c-2.155,0-3.232-1.617-3.232-3.917
		c0-1.761,0.94-5.642,2.097-7.476c1.7-2.623,3.652-3.307,4.918-3.307c3.582,0,3.582,4.708,3.582,7.512c0,1.329,0,3.413,0,4.024
		 M66.299,210.909c0-5.646-3.35-7.409-6.014-7.409c-4.932,0-9.686,5.148-9.686,10.22c0,3.345,2.159,6.079,5.83,6.079
		c2.268,0,4.859-0.826,7.594-3.017c0.469,1.903,1.655,3.017,3.275,3.017c1.907,0,3.027-1.975,3.027-2.55
		c0-0.252-0.216-0.359-0.432-0.359c-0.252,0-0.359,0.108-0.468,0.358C68.78,219,67.486,219,67.414,219
		c-1.114,0-1.114-2.804-1.114-3.667c0-0.755,0-0.827,0.359-1.258c3.378-4.243,4.133-8.413,4.133-8.449
		c0-0.072-0.036-0.358-0.432-0.358c-0.359,0-0.359,0.107-0.539,0.754c-0.646,2.266-1.832,4.998-3.521,7.119L66.299,210.909z"/>
	<path clip-path="url(#SVGID_6_)" d="M77.808,226.009c-0.428,1.734-1.761,3.191-3.245,3.191c-0.327,0-0.63-0.033-0.906-0.101
		c0.645-0.3,0.844-0.899,0.844-1.274c0-0.601-0.475-0.925-0.975-0.925c-0.775,0-1.426,0.664-1.426,1.451
		c0,0.935,0.98,1.55,2.487,1.55s4.447-0.904,5.226-3.969l2.262-8.989c0.074-0.276,0.127-0.502,0.127-0.879
		c0-1.382-1.182-2.363-2.69-2.363c-2.789,0-4.397,3.514-4.397,3.868c0,0.329,0.353,0.329,0.428,0.329
		c0.302,0,0.327-0.076,0.504-0.456c0.63-1.47,1.939-3.04,3.399-3.04c0.63,0,0.856,0.428,0.856,1.231
		c0,0.276-0.051,0.628-0.077,0.754 M83.121,209.139c0-0.421-0.327-0.939-1.004-0.939c-0.729,0-1.406,0.693-1.406,1.361
		c0,0.396,0.301,0.939,1.004,0.939C82.393,210.5,83.121,209.857,83.121,209.139z"/>
</g>
<g>
	<defs>
		<rect id="SVGID_7_" x="180" y="197" width="31" height="37"/>
	</defs>
	<clipPath id="SVGID_8_">
		<use xlink:href="#SVGID_7_"  overflow="visible"/>
	</clipPath>
	<path clip-path="url(#SVGID_8_)" d="M195.637,207.501c-1.004-0.401-2.151-0.401-2.474-0.401c-0.861,0-2.797,0-2.797,1.159
		c0,0.941,1.578,0.941,2.438,0.941c0.502,0,1.542,0,2.689-0.444c0.789,0.823,1.076,1.859,1.076,3.004
		c0,1.43-0.718,4.791-1.757,6.758c-0.825,1.502-2.654,3.682-5.235,3.682c-3.191,0-5.021-2.363-5.021-5.228
		c0-0.858,0.144-1.396,0.467-2.686c0.322-1.325,1.434-5.8,1.649-6.623c1.685-6.624,5.952-9.563,9.144-9.563
		c1.076,0,2.582,0.54,2.582,2.908C198.398,201.869,197.967,205.744,195.637,207.501 M191.264,208.186
		c0.359-0.179,0.61-0.285,1.829-0.285c0.538,0,0.968,0,1.436,0.214c-0.646,0.286-1.436,0.286-1.722,0.286
		C191.91,208.4,191.874,208.4,191.264,208.186z M180.504,228.702c-0.036,0.144-0.107,0.358-0.107,0.539
		c0,0.358,0.358,0.358,0.431,0.358c0.18,0,0.252-0.035,0.358-0.144c0.18-0.18,1.187-4.789,2.73-10.623
		c0.539,2.065,2.407,4.165,5.748,4.165c4.742,0,9.557-4.802,9.557-9.891c0-2.545-1.149-4.121-2.406-4.982
		c2.479-1.505,3.885-4.05,3.885-6.236c0-2.33-1.657-4.591-4.819-4.591c-4.67,0-8.729,4.925-9.916,9.632L180.504,228.702z"/>
	<path clip-path="url(#SVGID_8_)" d="M205.508,229.209c-0.428,1.734-1.761,3.191-3.246,3.191c-0.326,0-0.629-0.033-0.906-0.101
		c0.646-0.3,0.845-0.899,0.845-1.274c0-0.601-0.476-0.926-0.976-0.926c-0.774,0-1.425,0.664-1.425,1.451
		c0,0.936,0.98,1.551,2.487,1.551s4.447-0.904,5.226-3.969l2.261-8.99c0.075-0.275,0.128-0.502,0.128-0.879
		c0-1.381-1.183-2.362-2.69-2.362c-2.789,0-4.398,3.514-4.398,3.868c0,0.328,0.354,0.328,0.429,0.328
		c0.302,0,0.327-0.076,0.504-0.455c0.63-1.47,1.938-3.041,3.399-3.041c0.629,0,0.856,0.429,0.856,1.232
		c0,0.276-0.051,0.628-0.077,0.754 M210.821,212.339c0-0.421-0.327-0.94-1.004-0.94c-0.729,0-1.406,0.693-1.406,1.361
		c0,0.396,0.301,0.94,1.004,0.94C210.093,213.7,210.821,213.057,210.821,212.339z"/>
</g>
</svg>
