<?xml version="1.0" encoding="utf-8"?>
<!-- Generator: Adobe Illustrator 14.0.0, SVG Export Plug-In . SVG Version: 6.00 Build 43363)  -->
<!DOCTYPE svg PUBLIC "-//W3C//DTD SVG 1.1//EN" "http://www.w3.org/Graphics/SVG/1.1/DTD/svg11.dtd">
<svg version="1.1" id="Layer_1" xmlns="http://www.w3.org/2000/svg" xmlns:xlink="http://www.w3.org/1999/xlink" x="0px" y="0px"
	 width="272.414px" height="313.793px" viewBox="0 0 272.414 313.793" enable-background="new 0 0 272.414 313.793"
	 xml:space="preserve">
<linearGradient id="SVGID_1_" gradientUnits="userSpaceOnUse" x1="200.6855" y1="195.7012" x2="102.6855" y2="322.7012">
	<stop  offset="0" style="stop-color:#FFFFFF"/>
	<stop  offset="1" style="stop-color:#000000"/>
</linearGradient>
<polygon opacity="0.8" fill="url(#SVGID_1_)" enable-background="new    " points="145.234,282.851 186.771,153.222 
	220.223,128.224 263.518,143.28 259.048,180.58 "/>
<g>
	<polygon opacity="0.8" fill="#7E788D" enable-background="new    " points="33.32,114.528 145.406,281.888 166.96,143.473 	"/>
	<polygon opacity="0.8" fill="#E3DEEF" enable-background="new    " points="126.006,31.387 33.32,114.528 166.96,143.473 	"/>
	<polygon opacity="0.8" fill="#C6C6DB" enable-background="new    " points="126.006,31.387 166.96,143.473 235.321,63.72 	"/>
	<polygon opacity="0.8" fill="#D2D1E5" enable-background="new    " points="126.006,31.387 235.321,63.72 157.722,11.372 	"/>
	<polygon opacity="0.8" fill="#DFDEF0" enable-background="new    " points="157.722,11.372 51.795,34.159 126.006,31.387 	"/>
	<polygon opacity="0.8" fill="#F1F0F7" enable-background="new    " points="126.006,31.387 51.795,34.159 33.32,114.528 	"/>
	<polygon opacity="0.8" fill="#9B9AAF" enable-background="new    " points="166.96,143.473 145.406,281.888 235.321,63.72 	"/>
	
		<line fill="none" stroke="#010101" stroke-width="0.6994" stroke-linejoin="round" stroke-dasharray="4.6626" x1="157.722" y1="11.372" x2="145.406" y2="281.888"/>
	
		<line fill="none" stroke="#010101" stroke-width="0.6994" stroke-linejoin="round" stroke-dasharray="4.6626" x1="126.006" y1="31.387" x2="145.406" y2="281.888"/>
	
		<line fill="none" stroke="#010101" stroke-width="0.6994" stroke-linejoin="round" stroke-dasharray="4.6626" x1="51.795" y1="34.159" x2="145.406" y2="281.888"/>
</g>
<line fill="none" stroke="#010101" stroke-width="1.7127" stroke-linecap="round" stroke-linejoin="round" x1="126.006" y1="31.387" x2="166.96" y2="143.473"/>
<line fill="none" stroke="#010101" stroke-width="1.7127" stroke-linecap="round" stroke-linejoin="round" x1="166.96" y1="143.473" x2="145.406" y2="281.888"/>
<line fill="none" stroke="#010101" stroke-width="1.7127" stroke-linecap="round" stroke-linejoin="round" x1="126.006" y1="31.387" x2="235.321" y2="63.72"/>
<line fill="none" stroke="#010101" stroke-width="1.7127" stroke-linecap="round" stroke-linejoin="round" x1="235.321" y1="63.72" x2="145.406" y2="281.888"/>
<line fill="none" stroke="#010101" stroke-width="1.7127" stroke-linecap="round" stroke-linejoin="round" x1="166.96" y1="143.473" x2="235.321" y2="63.72"/>
<line fill="none" stroke="#010101" stroke-width="1.7127" stroke-linecap="round" stroke-linejoin="round" x1="235.321" y1="63.72" x2="157.722" y2="11.372"/>
<line fill="none" stroke="#010101" stroke-width="1.7127" stroke-linejoin="round" x1="108.874" y1="21.881" x2="51.795" y2="34.159"/>
<line fill="none" stroke="#010101" stroke-width="1.7127" stroke-linejoin="round" x1="157.722" y1="11.372" x2="128.688" y2="17.618"/>
<line fill="none" stroke="#010101" stroke-width="1.7127" stroke-linecap="round" stroke-linejoin="round" x1="51.795" y1="34.159" x2="33.32" y2="114.528"/>
<line fill="none" stroke="#010101" stroke-width="1.7127" stroke-linecap="round" stroke-linejoin="round" x1="33.32" y1="114.528" x2="166.96" y2="143.473"/>
<line fill="none" stroke="#010101" stroke-width="1.7127" stroke-linecap="round" stroke-linejoin="round" x1="126.006" y1="31.387" x2="33.32" y2="114.528"/>
<line fill="none" stroke="#010101" stroke-width="1.7127" stroke-linecap="round" stroke-linejoin="round" x1="126.006" y1="31.387" x2="51.795" y2="34.159"/>
<line fill="none" stroke="#010101" stroke-width="1.7127" stroke-linecap="round" stroke-linejoin="round" x1="126.006" y1="31.387" x2="157.722" y2="11.372"/>
<line fill="none" stroke="#010101" stroke-width="1.7127" stroke-linecap="round" stroke-linejoin="round" x1="33.32" y1="114.528" x2="145.406" y2="281.888"/>
<circle fill="#010101" cx="126.006" cy="32.387" r="4.208"/>
<circle fill="#010101" cx="145.406" cy="281.887" r="4.208"/>
<g>
	<path fill="#FFFFFF" d="M74.34,146.421"/>
	<path fill="none" stroke="#010101" stroke-width="3" d="M74.34,146.421"/>
</g>
<g>
	<g>
		<defs>
			<rect id="SVGID_2_" x="107.511" y="5.241" width="20" height="24"/>
		</defs>
		<clipPath id="SVGID_3_">
			<use xlink:href="#SVGID_2_"  overflow="visible"/>
		</clipPath>
		<path clip-path="url(#SVGID_3_)" fill="#010101" d="M117.438,10.423c0.252-0.97,1.222-1.977,1.866-2.516
			c1.256-1.114,2.297-1.366,2.907-1.366c1.436,0,2.297,1.258,2.297,3.379c0,2.12-1.185,6.253-1.83,7.618
			c-1.221,2.516-2.943,3.701-4.271,3.701c-2.369,0-2.836-2.983-2.836-3.198c0-0.071,0-0.144,0.107-0.575 M111.128,26.064
			c-0.287,1.225-0.359,1.477-1.939,1.477c-0.431,0-0.826,0-0.826,0.675c0,0.284,0.18,0.427,0.468,0.427
			c0.97,0,2.011-0.107,3.016-0.107c1.185,0,2.406,0.107,3.555,0.107c0.18,0,0.646,0,0.646-0.71c0-0.392-0.359-0.392-0.862-0.392
			c-1.796,0-1.796-0.253-1.796-0.578c0-0.433,1.508-6.318,1.76-7.223c0.468,1.042,1.473,2.3,3.305,2.3
			c4.165,0,8.656-5.252,8.656-10.539c0-3.381-2.049-5.759-4.777-5.759c-1.796,0-3.521,1.313-4.704,2.737
			c-0.359-1.971-1.903-2.737-3.232-2.737c-1.652,0-2.334,1.411-2.656,2.062c-0.646,1.229-1.113,3.397-1.113,3.506
			c0,0.36,0.358,0.36,0.431,0.36c0.359,0,0.396-0.036,0.611-0.83c0.61-2.563,1.329-4.298,2.621-4.298
			c0.609,0,1.112,0.291,1.112,1.66c0,0.828-0.107,1.225-0.252,1.837L111.128,26.064z"/>
	</g>
</g>
<g>
	<g>
		<defs>
			<rect id="SVGID_4_" x="150.183" y="284.095" width="15" height="24"/>
		</defs>
		<clipPath id="SVGID_5_">
			<use xlink:href="#SVGID_4_"  overflow="visible"/>
		</clipPath>
		<path clip-path="url(#SVGID_5_)" fill="#010101" d="M155.172,300.095c-2.147,0-2.291-2.747-2.291-3.354
			c0-1.714,1.038-5.604,1.646-7.104c1.109-2.641,2.971-4.144,4.438-4.144c2.325,0,2.829,2.894,2.829,3.144
			c0,0.215-1.971,8.03-2.078,8.174C159.179,297.81,157.175,300.095,155.172,300.095 M165.094,285.056
			c0-0.145-0.108-0.361-0.358-0.361c-0.394,0-1.822,1.425-2.429,2.459c-0.786-1.896-2.178-2.459-3.321-2.459
			c-4.213,0-8.604,5.294-8.604,10.479c0,3.506,2.105,5.722,4.714,5.722c1.535,0,2.929-0.862,4.213-2.155
			c-0.321,1.264-1.5,6.141-1.606,6.465c-0.285,1.012-0.57,1.156-2.57,1.192c-0.465,0-0.821,0-0.821,0.71
			c0,0.036,0,0.391,0.464,0.391c1.144,0,2.394-0.106,3.571-0.106c1.214,0,2.5,0.106,3.679,0.106c0.178,0,0.644,0,0.644-0.711
			c0-0.391-0.357-0.391-0.931-0.391c-1.713,0-1.713-0.251-1.713-0.575c0-0.252,0.07-0.467,0.144-0.79L165.094,285.056z"/>
	</g>
</g>
</svg>
