<?xml version="1.0" encoding="utf-8"?>
<!-- Generator: Adobe Illustrator 14.0.0, SVG Export Plug-In . SVG Version: 6.00 Build 43363)  -->
<!DOCTYPE svg PUBLIC "-//W3C//DTD SVG 1.1//EN" "http://www.w3.org/Graphics/SVG/1.1/DTD/svg11.dtd">
<svg version="1.1" id="Layer_1" xmlns="http://www.w3.org/2000/svg" xmlns:xlink="http://www.w3.org/1999/xlink" x="0px" y="0px"
	 width="549px" height="334px" viewBox="0 0 549 334" enable-background="new 0 0 549 334" xml:space="preserve">
<linearGradient id="SVGID_1_" gradientUnits="userSpaceOnUse" x1="181.8408" y1="210.793" x2="83.8409" y2="337.7929">
	<stop  offset="0" style="stop-color:#FFFFFF"/>
	<stop  offset="1" style="stop-color:#000000"/>
</linearGradient>
<polygon opacity="0.8" fill="url(#SVGID_1_)" enable-background="new    " points="126.388,297.942 167.925,168.313 
	201.377,143.316 244.672,158.372 240.203,195.672 "/>
<g>
	<g>
		<polygon opacity="0.8" fill="#7D788D" enable-background="new    " points="15.475,129.287 127.561,296.646 149.115,158.232 		"/>
		<polygon opacity="0.8" fill="#E3DFF2" enable-background="new    " points="108.161,46.146 15.475,129.287 149.115,158.232 		"/>
		<polygon opacity="0.8" fill="#C6C6DB" enable-background="new    " points="108.161,46.146 149.115,158.232 217.476,78.479 		"/>
		<polygon opacity="0.8" fill="#D1D1E5" enable-background="new    " points="108.161,46.146 217.476,78.479 139.877,26.131 		"/>
		<polygon opacity="0.8" fill="#DFDFF2" enable-background="new    " points="139.877,26.131 33.95,48.918 108.161,46.146 		"/>
		<polygon opacity="0.8" fill="#F0F0F7" enable-background="new    " points="108.161,46.146 33.95,48.918 15.475,129.287 		"/>
		<polygon opacity="0.8" fill="#9A9AAF" enable-background="new    " points="149.115,158.232 127.561,296.646 217.476,78.479 		"/>
		
			<line fill="none" stroke="#000000" stroke-width="0.6994" stroke-linejoin="round" stroke-dasharray="4.6626" x1="139.877" y1="26.131" x2="127.561" y2="296.646"/>
		
			<line fill="none" stroke="#000000" stroke-width="0.6994" stroke-linejoin="round" stroke-dasharray="4.6626" x1="108.161" y1="46.146" x2="127.561" y2="296.646"/>
		
			<line fill="none" stroke="#000000" stroke-width="0.6994" stroke-linejoin="round" stroke-dasharray="4.6626" x1="33.95" y1="48.918" x2="127.561" y2="296.646"/>
	</g>
	
		<line fill="none" stroke="#000000" stroke-width="1.7127" stroke-linecap="round" stroke-linejoin="round" x1="108.161" y1="46.146" x2="149.115" y2="158.232"/>
	
		<line fill="none" stroke="#000000" stroke-width="1.7127" stroke-linecap="round" stroke-linejoin="round" x1="149.115" y1="158.232" x2="127.561" y2="296.646"/>
	
		<line fill="none" stroke="#000000" stroke-width="1.7127" stroke-linecap="round" stroke-linejoin="round" x1="108.161" y1="46.146" x2="217.476" y2="78.479"/>
	
		<line fill="none" stroke="#000000" stroke-width="1.7127" stroke-linecap="round" stroke-linejoin="round" x1="217.476" y1="78.479" x2="127.561" y2="296.646"/>
	
		<line fill="none" stroke="#000000" stroke-width="1.7127" stroke-linecap="round" stroke-linejoin="round" x1="149.115" y1="158.232" x2="217.476" y2="78.479"/>
	
		<line fill="none" stroke="#000000" stroke-width="1.7127" stroke-linecap="round" stroke-linejoin="round" x1="217.476" y1="78.479" x2="139.877" y2="26.131"/>
	
		<line fill="none" stroke="#000000" stroke-width="1.7127" stroke-linejoin="round" x1="91.029" y1="36.64" x2="33.95" y2="48.918"/>
	
		<line fill="none" stroke="#000000" stroke-width="1.7127" stroke-linejoin="round" x1="139.877" y1="26.131" x2="110.843" y2="32.377"/>
	
		<line fill="none" stroke="#000000" stroke-width="1.7127" stroke-linecap="round" stroke-linejoin="round" x1="33.95" y1="48.918" x2="15.475" y2="129.287"/>
	
		<line fill="none" stroke="#000000" stroke-width="1.7127" stroke-linecap="round" stroke-linejoin="round" x1="15.475" y1="129.287" x2="149.115" y2="158.232"/>
	
		<line fill="none" stroke="#000000" stroke-width="1.7127" stroke-linecap="round" stroke-linejoin="round" x1="108.161" y1="46.146" x2="15.475" y2="129.287"/>
	
		<line fill="none" stroke="#000000" stroke-width="1.7127" stroke-linecap="round" stroke-linejoin="round" x1="108.161" y1="46.146" x2="33.95" y2="48.918"/>
	
		<line fill="none" stroke="#000000" stroke-width="1.7127" stroke-linecap="round" stroke-linejoin="round" x1="108.161" y1="46.146" x2="139.877" y2="26.131"/>
	
		<line fill="none" stroke="#000000" stroke-width="1.7127" stroke-linecap="round" stroke-linejoin="round" x1="15.475" y1="129.287" x2="127.561" y2="296.646"/>
</g>
<g>
	<g>
		<g>
			<line fill="none" x1="162.818" y1="176.702" x2="187.5" y2="186.562"/>
			<polygon fill="#FFFFFF" points="190.123,187.609 185.823,187.645 187.304,186.484 187.03,184.624 			"/>
		</g>
		<g>
			<line fill="none" stroke="#000000" stroke-width="3" x1="162.818" y1="176.702" x2="187.5" y2="186.562"/>
			<polygon points="195.368,189.705 182.471,189.807 186.912,186.328 186.09,180.747 			"/>
		</g>
	</g>
	<circle cx="162.818" cy="176.702" r="3.062"/>
</g>
<circle cx="108.161" cy="47.146" r="4.208"/>
<circle cx="127.561" cy="296.646" r="4.208"/>
<g>
	<g>
		<g>
			<line fill="none" x1="101.037" y1="193.1" x2="92.699" y2="215.967"/>
			<polygon fill="#FFFFFF" points="91.731,218.62 91.567,214.324 92.771,215.77 94.622,215.438 			"/>
		</g>
		<g>
			<line fill="none" stroke="#000000" stroke-width="3" x1="101.037" y1="193.1" x2="92.699" y2="215.967"/>
			<polygon points="89.797,223.927 89.304,211.039 92.916,215.372 98.469,214.381 			"/>
		</g>
	</g>
	<circle cx="101.037" cy="193.1" r="3.061"/>
</g>
<g opacity="0.3">
	<g>
		<g>
			<line fill="none" x1="160.761" y1="127.489" x2="171.667" y2="118"/>
			<polygon fill="#FFFFFF" points="173.798,116.146 171.862,119.985 171.508,118.139 169.729,117.532 			"/>
		</g>
		<g>
			<line fill="none" stroke="#000000" stroke-width="3" x1="160.761" y1="127.489" x2="171.667" y2="118"/>
			<polygon points="178.059,112.438 172.253,123.956 171.189,118.416 165.85,116.596 			"/>
		</g>
	</g>
	<circle cx="160.761" cy="127.489" r="3.061"/>
</g>
<g opacity="0.3">
	<g>
		<g>
			<line fill="none" x1="99.114" y1="119.684" x2="93.021" y2="108.195"/>
			<polygon fill="#FFFFFF" points="91.697,105.7 94.998,108.454 93.119,108.381 92.126,109.978 			"/>
		</g>
		<g>
			<line fill="none" stroke="#000000" stroke-width="3" x1="99.114" y1="119.684" x2="93.021" y2="108.195"/>
			<polygon points="89.051,100.71 98.954,108.972 93.317,108.754 90.336,113.543 			"/>
		</g>
	</g>
	<circle cx="99.114" cy="119.684" r="3.061"/>
</g>
<g>
	<path fill="#FFFFFF" d="M56.495,161.18"/>
	<path fill="none" stroke="#000000" stroke-width="3" d="M56.495,161.18"/>
</g>
<g>
	<g>
		<g>
			<line fill="none" x1="40.608" y1="166.814" x2="28.969" y2="168.668"/>
			<polygon fill="#FFFFFF" points="26.18,169.111 29.854,166.88 29.178,168.635 30.365,170.092 			"/>
		</g>
		<g>
			<line fill="none" stroke="#000000" stroke-width="3" x1="40.608" y1="166.814" x2="28.969" y2="168.668"/>
			<polygon points="20.602,169.999 31.626,163.305 29.595,168.568 33.159,172.939 			"/>
		</g>
	</g>
	<g opacity="0.3">
		<line fill="none" stroke="#000000" stroke-width="3" x1="57.256" y1="164.168" x2="40.608" y2="166.814"/>
		<circle cx="57.257" cy="164.167" r="3.06"/>
	</g>
</g>
<g>
	<g>
		<defs>
			<rect id="SVGID_2_" x="89.666" y="20" width="20" height="24"/>
		</defs>
		<clipPath id="SVGID_3_">
			<use xlink:href="#SVGID_2_"  overflow="visible"/>
		</clipPath>
		<path clip-path="url(#SVGID_3_)" d="M99.593,25.182c0.252-0.97,1.222-1.977,1.866-2.516c1.256-1.114,2.297-1.366,2.907-1.366
			c1.436,0,2.297,1.258,2.297,3.379c0,2.12-1.185,6.253-1.83,7.618c-1.221,2.516-2.943,3.701-4.271,3.701
			c-2.369,0-2.836-2.983-2.836-3.198c0-0.071,0-0.144,0.107-0.575 M93.283,40.823c-0.287,1.225-0.359,1.477-1.939,1.477
			c-0.431,0-0.826,0-0.826,0.675c0,0.284,0.18,0.427,0.468,0.427c0.97,0,2.011-0.107,3.016-0.107c1.185,0,2.406,0.107,3.555,0.107
			c0.18,0,0.646,0,0.646-0.71c0-0.392-0.359-0.392-0.862-0.392c-1.796,0-1.796-0.253-1.796-0.578c0-0.433,1.508-6.318,1.76-7.223
			c0.468,1.042,1.473,2.3,3.305,2.3c4.165,0,8.656-5.252,8.656-10.539c0-3.381-2.049-5.759-4.777-5.759
			c-1.796,0-3.521,1.313-4.704,2.737c-0.359-1.971-1.903-2.737-3.232-2.737c-1.652,0-2.334,1.411-2.656,2.062
			c-0.646,1.229-1.113,3.397-1.113,3.506c0,0.36,0.358,0.36,0.431,0.36c0.359,0,0.396-0.036,0.611-0.83
			c0.61-2.563,1.329-4.298,2.621-4.298c0.609,0,1.112,0.291,1.112,1.66c0,0.828-0.107,1.225-0.252,1.837L93.283,40.823z"/>
	</g>
</g>
<g>
	<g>
		<defs>
			<rect id="SVGID_4_" x="132.338" y="298.854" width="15" height="24"/>
		</defs>
		<clipPath id="SVGID_5_">
			<use xlink:href="#SVGID_4_"  overflow="visible"/>
		</clipPath>
		<path clip-path="url(#SVGID_5_)" d="M137.327,314.854c-2.147,0-2.291-2.747-2.291-3.354c0-1.714,1.038-5.604,1.646-7.104
			c1.109-2.641,2.971-4.144,4.438-4.144c2.325,0,2.829,2.894,2.829,3.144c0,0.215-1.971,8.03-2.078,8.174
			C141.334,312.568,139.33,314.854,137.327,314.854 M147.249,299.814c0-0.145-0.109-0.361-0.359-0.361
			c-0.393,0-1.821,1.425-2.428,2.459c-0.786-1.896-2.178-2.459-3.321-2.459c-4.213,0-8.604,5.294-8.604,10.479
			c0,3.506,2.106,5.722,4.714,5.722c1.535,0,2.928-0.862,4.213-2.155c-0.321,1.264-1.5,6.141-1.607,6.465
			c-0.285,1.012-0.57,1.156-2.57,1.192c-0.465,0-0.821,0-0.821,0.71c0,0.036,0,0.391,0.464,0.391c1.143,0,2.393-0.106,3.571-0.106
			c1.214,0,2.5,0.106,3.678,0.106c0.179,0,0.644,0,0.644-0.711c0-0.391-0.357-0.391-0.93-0.391c-1.714,0-1.714-0.251-1.714-0.575
			c0-0.252,0.071-0.467,0.144-0.79L147.249,299.814z"/>
	</g>
</g>
<g>
	<g>
		<defs>
			<rect id="SVGID_6_" x="193.976" y="180.457" width="37" height="31"/>
		</defs>
		<clipPath id="SVGID_7_">
			<use xlink:href="#SVGID_6_"  overflow="visible"/>
		</clipPath>
		<path clip-path="url(#SVGID_7_)" d="M219.89,184.316c0.359-1.437,1.004-2.547,3.874-2.659c0.179,0,0.608-0.035,0.608-0.709
			c0-0.036,0-0.392-0.466-0.392c-1.184,0-2.438,0.106-3.623,0.106c-1.219,0-2.475-0.106-3.657-0.106c-0.215,0-0.646,0-0.646,0.711
			c0,0.39,0.359,0.39,0.646,0.39c2.045,0.038,2.438,0.793,2.438,1.582c0,0.106-0.071,0.646-0.108,0.754l-4.017,15.971l-7.926-18.721
			c-0.287-0.646-0.323-0.687-1.148-0.687h-4.806c-0.717,0-1.04,0-1.04,0.711c0,0.39,0.323,0.39,1.004,0.39
			c0.179,0,2.439,0,2.439,0.323l-4.807,19.283c-0.358,1.437-0.968,2.586-3.873,2.692c-0.215,0-0.609,0.036-0.609,0.71
			c0,0.248,0.179,0.391,0.466,0.391c1.148,0,2.403-0.106,3.587-0.106c1.22,0,2.511,0.106,3.694,0.106c0.179,0,0.646,0,0.646-0.711
			c0-0.354-0.323-0.391-0.718-0.391c-2.08-0.072-2.367-0.861-2.367-1.579c0-0.251,0.036-0.431,0.145-0.825l4.733-18.945
			c0.145,0.215,0.145,0.287,0.323,0.645l8.93,21.125c0.251,0.609,0.359,0.682,0.682,0.682c0.395,0,0.395-0.106,0.574-0.755"/>
	</g>
	<g>
		<defs>
			<rect id="SVGID_8_" x="193.976" y="180.457" width="37" height="31"/>
		</defs>
		<clipPath id="SVGID_9_">
			<use xlink:href="#SVGID_8_"  overflow="visible"/>
		</clipPath>
		<path clip-path="url(#SVGID_9_)" d="M224.601,207.545c-0.1,0.329-0.225,0.632-0.225,1.062c0,1.188,1.002,2.148,2.379,2.148
			c2.504,0,3.607-3.504,3.607-3.885c0-0.331-0.329-0.331-0.404-0.331c-0.353,0-0.377,0.153-0.479,0.435
			c-0.58,2.037-1.689,3.082-2.673,3.082c-0.504,0-0.63-0.328-0.63-0.886c0-0.582,0.177-1.062,0.404-1.619
			c0.252-0.683,0.529-1.364,0.808-2.021c0.227-0.607,1.136-2.908,1.237-3.212c0.076-0.254,0.151-0.558,0.151-0.811
			c0-1.188-1.005-2.15-2.384-2.15c-2.482,0-3.637,3.438-3.637,3.867c0,0.328,0.354,0.328,0.429,0.328
			c0.354,0,0.379-0.127,0.455-0.404c0.657-2.178,1.769-3.09,2.704-3.09c0.404,0,0.632,0.203,0.632,0.887
			c0,0.582-0.155,0.962-0.799,2.529 M229.71,194.796c0-0.396-0.303-0.94-1.004-0.94c-0.679,0-1.406,0.645-1.406,1.361
			c0,0.42,0.326,0.94,1.004,0.94C229.031,196.157,229.71,195.464,229.71,194.796z"/>
	</g>
</g>
<polygon opacity="0.8" fill="#E3DFF2" enable-background="new    " points="376.588,46.146 283.9,129.287 417.542,158.232 "/>
<polygon opacity="0.8" fill="#C6C6DB" enable-background="new    " points="376.588,46.146 417.542,158.232 485.902,78.479 "/>
<polygon opacity="0.8" fill="#D1D1E5" enable-background="new    " points="376.588,46.146 485.902,78.479 408.304,26.131 "/>
<polygon opacity="0.8" fill="#DFDFF2" enable-background="new    " points="408.304,26.131 302.377,48.918 376.588,46.146 "/>
<polygon opacity="0.8" fill="#F0F0F7" enable-background="new    " points="376.588,46.146 302.377,48.918 283.9,129.287 "/>
<line fill="none" stroke="#000000" stroke-width="1.7127" stroke-linecap="round" stroke-linejoin="round" x1="376.588" y1="46.146" x2="417.542" y2="158.232"/>
<line fill="none" stroke="#000000" stroke-width="1.7127" stroke-linecap="round" stroke-linejoin="round" x1="376.588" y1="46.146" x2="485.902" y2="78.479"/>
<line fill="none" stroke="#000000" stroke-width="1.7127" stroke-linejoin="round" x1="470.134" y1="96.875" x2="485.902" y2="78.479"/>
<line fill="none" stroke="#000000" stroke-width="1.7127" stroke-linejoin="round" x1="417.542" y1="158.232" x2="452.486" y2="117.465"/>
<line fill="none" stroke="#000000" stroke-width="1.7127" stroke-linecap="round" stroke-linejoin="round" x1="485.902" y1="78.479" x2="408.304" y2="26.131"/>
<line fill="none" stroke="#000000" stroke-width="1.7127" stroke-linejoin="round" x1="366.766" y1="35.067" x2="302.377" y2="48.918"/>
<line fill="none" stroke="#000000" stroke-width="1.7127" stroke-linejoin="round" x1="408.304" y1="26.131" x2="380.898" y2="32.027"/>
<line fill="none" stroke="#000000" stroke-width="1.7127" stroke-linecap="round" stroke-linejoin="round" x1="302.377" y1="48.918" x2="283.9" y2="129.287"/>
<line fill="none" stroke="#000000" stroke-width="1.7127" stroke-linecap="round" stroke-linejoin="round" x1="283.9" y1="129.287" x2="417.542" y2="158.232"/>
<line fill="none" stroke="#000000" stroke-width="1.7127" stroke-linecap="round" stroke-linejoin="round" x1="376.588" y1="46.146" x2="283.9" y2="129.287"/>
<line fill="none" stroke="#000000" stroke-width="1.7127" stroke-linecap="round" stroke-linejoin="round" x1="376.588" y1="46.146" x2="302.377" y2="48.918"/>
<line fill="none" stroke="#000000" stroke-width="1.7127" stroke-linecap="round" stroke-linejoin="round" x1="376.588" y1="46.146" x2="408.304" y2="26.131"/>
<circle cx="376.588" cy="47.146" r="4.208"/>
<g>
	<path fill="#FFFFFF" d="M324.922,161.18"/>
	<path fill="none" stroke="#000000" stroke-width="3" d="M324.922,161.18"/>
</g>
<linearGradient id="SVGID_10_" gradientUnits="userSpaceOnUse" x1="499.9463" y1="183.0098" x2="419.9463" y2="253.0098">
	<stop  offset="0" style="stop-color:#FFFFFF"/>
	<stop  offset="1" style="stop-color:#000000"/>
</linearGradient>
<polygon opacity="0.2" fill="url(#SVGID_10_)" enable-background="new    " points="474.666,158.296 410,178.296 422,241.629 
	504.666,262.296 533.333,206.296 "/>
<g>
	<path d="M329.622,21.485c0.252-0.97,1.222-1.977,1.866-2.516c1.256-1.114,2.297-1.366,2.906-1.366c1.437,0,2.297,1.258,2.297,3.379
		c0,2.12-1.185,6.253-1.83,7.618c-1.221,2.516-2.942,3.701-4.271,3.701c-2.368,0-2.835-2.983-2.835-3.198
		c0-0.071,0-0.144,0.105-0.575 M323.312,37.126c-0.287,1.225-0.359,1.477-1.938,1.477c-0.433,0-0.826,0-0.826,0.675
		c0,0.284,0.179,0.427,0.468,0.427c0.969,0,2.01-0.107,3.016-0.107c1.186,0,2.406,0.107,3.555,0.107c0.18,0,0.646,0,0.646-0.71
		c0-0.392-0.359-0.392-0.862-0.392c-1.796,0-1.796-0.253-1.796-0.578c0-0.433,1.508-6.318,1.76-7.223
		c0.469,1.042,1.473,2.3,3.305,2.3c4.166,0,8.656-5.252,8.656-10.539c0-3.381-2.049-5.759-4.777-5.759
		c-1.795,0-3.52,1.313-4.703,2.737c-0.359-1.971-1.903-2.737-3.231-2.737c-1.651,0-2.334,1.411-2.657,2.062
		c-0.646,1.229-1.113,3.397-1.113,3.506c0,0.36,0.358,0.36,0.432,0.36c0.359,0,0.396-0.036,0.611-0.83
		c0.61-2.563,1.328-4.298,2.621-4.298c0.608,0,1.112,0.291,1.112,1.66c0,0.828-0.108,1.225-0.252,1.837L323.312,37.126z"/>
	<path d="M359.316,27.905c0.502,0,1.187,0,1.187-0.7c0-0.7-0.685-0.7-1.222-0.7h-13.37c-0.537,0-1.218,0-1.218,0.7
		c0,0.7,0.681,0.7,1.183,0.7 M359.281,21.004c0.537,0,1.222,0,1.222-0.7c0-0.7-0.685-0.7-1.187-0.7h-13.44c-0.5,0-1.181,0-1.181,0.7
		c0,0.7,0.681,0.7,1.218,0.7H359.281z"/>
	<path d="M370.885,32.302c-2.146,0-2.291-2.748-2.291-3.354c0-1.714,1.038-5.604,1.646-7.103c1.109-2.641,2.971-4.144,4.438-4.144
		c2.325,0,2.829,2.894,2.829,3.144c0,0.214-1.971,8.03-2.077,8.173C374.893,30.017,372.889,32.302,370.885,32.302 M380.807,17.263
		c0-0.144-0.108-0.361-0.358-0.361c-0.394,0-1.821,1.425-2.429,2.459c-0.785-1.896-2.178-2.459-3.32-2.459
		c-4.213,0-8.604,5.294-8.604,10.479c0,3.505,2.106,5.721,4.714,5.721c1.535,0,2.928-0.862,4.213-2.155
		c-0.32,1.264-1.5,6.141-1.606,6.465c-0.285,1.012-0.57,1.156-2.57,1.192c-0.465,0-0.821,0-0.821,0.71c0,0.036,0,0.391,0.465,0.391
		c1.143,0,2.393-0.107,3.57-0.107c1.215,0,2.5,0.107,3.678,0.107c0.18,0,0.645,0,0.645-0.711c0-0.391-0.357-0.391-0.93-0.391
		c-1.715,0-1.715-0.251-1.715-0.575c0-0.252,0.072-0.467,0.145-0.79L380.807,17.263z"/>
</g>
<g>
	<g>
		<g>
			<line fill="none" x1="428.04" y1="90.369" x2="437.381" y2="76"/>
			<polygon fill="#FFFFFF" points="438.92,73.632 438.114,77.855 437.266,76.177 435.388,76.083 			"/>
		</g>
		<g>
			<line fill="none" stroke="#000000" stroke-width="3" x1="428.04" y1="90.369" x2="437.381" y2="76"/>
			<polygon points="441.999,68.896 439.581,81.565 437.035,76.531 431.402,76.249 			"/>
		</g>
	</g>
	<circle cx="428.04" cy="90.369" r="3.061"/>
</g>
<g>
	<g>
		<g>
			<line fill="none" x1="423.639" y1="47.859" x2="428.979" y2="32.49"/>
			<polygon fill="#FFFFFF" points="429.906,29.822 430.136,34.115 428.91,32.689 427.064,33.048 			"/>
		</g>
		<g>
			<line fill="none" stroke="#000000" stroke-width="3" x1="423.639" y1="47.859" x2="428.979" y2="32.49"/>
			<polygon points="431.761,24.486 432.449,37.366 428.771,33.088 423.234,34.164 			"/>
		</g>
	</g>
	<circle cx="423.639" cy="47.859" r="3.061"/>
</g>
<g>
	<g>
		<g>
			<line fill="none" x1="359.186" y1="106.844" x2="348.525" y2="91.475"/>
			<polygon fill="#FFFFFF" points="346.916,89.154 350.521,91.498 348.646,91.648 347.848,93.351 			"/>
		</g>
		<g>
			<line fill="none" stroke="#000000" stroke-width="3" x1="359.186" y1="106.844" x2="348.525" y2="91.475"/>
			<polygon points="343.697,84.513 354.51,91.543 348.887,91.995 346.493,97.103 			"/>
		</g>
	</g>
	<circle cx="359.186" cy="106.844" r="3.061"/>
</g>
<g>
	<g>
		<g>
			<line fill="none" x1="321.547" y1="71.5" x2="310.889" y2="58.131"/>
			<polygon fill="#FFFFFF" points="309.127,55.923 312.88,58.021 311.02,58.296 310.337,60.048 			"/>
		</g>
		<g>
			<line fill="none" stroke="#000000" stroke-width="3" x1="321.547" y1="71.5" x2="310.889" y2="58.131"/>
			<polygon points="305.605,51.506 316.863,57.801 311.282,58.626 309.234,63.882 			"/>
		</g>
	</g>
	<circle cx="321.547" cy="71.5" r="3.061"/>
</g>
<g>
	<g>
		<defs>
			<rect id="SVGID_11_" x="435.222" y="89.103" width="37" height="31"/>
		</defs>
		<clipPath id="SVGID_12_">
			<use xlink:href="#SVGID_11_"  overflow="visible"/>
		</clipPath>
		<path clip-path="url(#SVGID_12_)" d="M461.136,92.963c0.359-1.437,1.004-2.548,3.874-2.66c0.18,0,0.608-0.035,0.608-0.709
			c0-0.036,0-0.392-0.466-0.392c-1.185,0-2.438,0.107-3.623,0.107c-1.22,0-2.476-0.107-3.657-0.107c-0.215,0-0.646,0-0.646,0.711
			c0,0.39,0.359,0.39,0.646,0.39c2.045,0.039,2.438,0.793,2.438,1.582c0,0.107-0.07,0.646-0.107,0.754l-4.018,15.971l-7.926-18.721
			c-0.287-0.646-0.323-0.687-1.147-0.687h-4.807c-0.717,0-1.04,0-1.04,0.711c0,0.39,0.323,0.39,1.004,0.39
			c0.18,0,2.439,0,2.439,0.323l-4.807,19.283c-0.358,1.437-0.969,2.586-3.873,2.693c-0.216,0-0.609,0.036-0.609,0.71
			c0,0.248,0.179,0.39,0.466,0.39c1.148,0,2.403-0.106,3.587-0.106c1.221,0,2.512,0.106,3.694,0.106c0.179,0,0.646,0,0.646-0.71
			c0-0.354-0.322-0.391-0.718-0.391c-2.08-0.072-2.367-0.861-2.367-1.579c0-0.251,0.036-0.43,0.146-0.825l4.732-18.946
			c0.146,0.215,0.146,0.287,0.323,0.645l8.931,21.125c0.251,0.609,0.358,0.681,0.682,0.681c0.395,0,0.395-0.106,0.574-0.754"/>
	</g>
	<g>
		<defs>
			<rect id="SVGID_13_" x="435.222" y="89.103" width="37" height="31"/>
		</defs>
		<clipPath id="SVGID_14_">
			<use xlink:href="#SVGID_13_"  overflow="visible"/>
		</clipPath>
		<path clip-path="url(#SVGID_14_)" d="M465.847,116.19c-0.1,0.329-0.225,0.632-0.225,1.062c0,1.188,1.002,2.149,2.379,2.149
			c2.504,0,3.607-3.504,3.607-3.885c0-0.331-0.329-0.331-0.404-0.331c-0.354,0-0.377,0.154-0.479,0.434
			c-0.58,2.038-1.688,3.082-2.673,3.082c-0.504,0-0.63-0.328-0.63-0.885c0-0.582,0.177-1.062,0.404-1.619
			c0.252-0.683,0.528-1.365,0.808-2.022c0.228-0.607,1.136-2.908,1.237-3.212c0.076-0.254,0.15-0.557,0.15-0.81
			c0-1.188-1.005-2.151-2.384-2.151c-2.481,0-3.637,3.438-3.637,3.867c0,0.329,0.354,0.329,0.429,0.329
			c0.354,0,0.379-0.127,0.455-0.404c0.657-2.179,1.77-3.091,2.704-3.091c0.404,0,0.632,0.204,0.632,0.888
			c0,0.582-0.154,0.961-0.799,2.528 M470.956,103.441c0-0.396-0.303-0.94-1.004-0.94c-0.679,0-1.406,0.644-1.406,1.361
			c0,0.42,0.326,0.94,1.004,0.94C470.277,104.803,470.956,104.109,470.956,103.441z"/>
	</g>
</g>
</svg>
