<?xml version="1.0" encoding="utf-8"?>
<!-- Generator: Adobe Illustrator 14.0.0, SVG Export Plug-In . SVG Version: 6.00 Build 43363)  -->
<!DOCTYPE svg PUBLIC "-//W3C//DTD SVG 1.1//EN" "http://www.w3.org/Graphics/SVG/1.1/DTD/svg11.dtd">
<svg version="1.1" id="Layer_1" xmlns="http://www.w3.org/2000/svg" xmlns:xlink="http://www.w3.org/1999/xlink" x="0px" y="0px"
	 width="343px" height="230px" viewBox="0 0 343 230" enable-background="new 0 0 343 230" xml:space="preserve">
<g opacity="0.2" enable-background="new    ">
	<g>
		<g>
			<path fill="#1B1F8A" d="M153.449,12v149.127c2.381,2.104,4.754,4.217,7.124,6.335c6.758,6.038,13.593,11.965,20.573,17.745
				c6.57,5.44,13.627,10.342,20.988,14.641c6.361,3.716,13.493,6.642,20.786,7.839c5.123,0.841,10.358,0.79,15.431-0.362
				c7.632-1.734,14.594-5.846,20.408-11.014c6.182-5.495,11.519-12.006,16.062-18.908c4.593-6.976,8.943-14.288,12.435-21.887
				c2.153-4.685,4.306-9.369,6.458-14.054c1.862-4.054,3.324-8.339,4.971-12.483c3.387-8.526,6.283-17.214,9.286-25.883
				c1.136-3.279,2.086-6.624,3.104-9.941c1.379-4.493,2.826-8.97,4.138-13.483c2.57-8.84,4.867-17.769,7.299-26.648
				c2.448-8.936,4.44-18.02,6.654-27.017c1.136-4.615,2.137-9.267,3.149-13.913L153.449,12z"/>
		</g>
	</g>
</g>
<g>
	<g>
		<g>
			<path fill="none" stroke="#000000" stroke-width="1.7127" stroke-linejoin="round" d="M153.449,161.127
				c2.381,2.104,4.754,4.217,7.124,6.335c6.758,6.038,13.593,11.965,20.573,17.745c6.57,5.44,13.627,10.342,20.988,14.641
				c6.361,3.716,13.493,6.642,20.786,7.839c5.123,0.841,10.358,0.79,15.431-0.362c7.632-1.734,14.594-5.846,20.408-11.014
				c6.182-5.495,11.519-12.006,16.062-18.908c4.593-6.976,8.943-14.288,12.435-21.887c2.153-4.685,4.306-9.369,6.458-14.054
				c1.862-4.054,3.324-8.339,4.971-12.483c3.387-8.526,6.283-17.214,9.286-25.883c1.136-3.279,2.086-6.624,3.104-9.941
				c1.379-4.493,2.826-8.97,4.138-13.483c2.57-8.84,4.867-17.769,7.299-26.648c2.448-8.936,4.44-18.02,6.654-27.017
				c1.515-6.153,2.789-12.372,4.172-18.557"/>
		</g>
	</g>
</g>
<path fill="none" stroke="#000000" stroke-width="1.7127" stroke-linejoin="round" d="M12.2,221.042
	c2.681-7.809,5.509-15.566,8.69-23.185c1.225-2.934,2.45-5.867,3.675-8.801c0.594-1.423,1.122-2.902,1.795-4.29
	c2.192-4.516,4.385-9.031,6.577-13.548c3.616-7.447,8.159-14.53,12.994-21.233c4.649-6.445,10.037-12.611,16.447-17.367
	c5.923-4.394,12.655-7.725,20.025-8.73c5.184-0.707,10.39-0.336,15.479,0.85c7.742,1.804,14.953,5.451,21.681,9.602
	c7.163,4.42,13.956,9.634,20.373,15.069c4.551,3.855,9.044,7.771,13.511,11.719"/>
<path opacity="0.2" fill="#1B1F8A" enable-background="new    " d="M153.449,161.127c-4.467-3.947-8.96-7.863-13.511-11.719
	c-6.417-5.436-13.21-10.649-20.373-15.069c-6.728-4.15-13.938-7.798-21.681-9.602c-5.089-1.186-10.296-1.557-15.479-0.85
	c-7.37,1.006-14.102,4.337-20.025,8.73c-6.411,4.756-11.798,10.922-16.447,17.367c-4.835,6.703-9.378,13.786-12.994,21.233
	c-2.192,4.517-4.385,9.032-6.577,13.548c-0.673,1.388-1.201,2.867-1.795,4.29c-1.225,2.934-2.45,5.867-3.675,8.801
	c-2.768,6.628-5.268,13.361-7.637,20.142h140.196V161.127"/>
<g>
	<defs>
		<rect id="SVGID_1_" x="188.4" y="114.175" width="83.199" height="52.65"/>
	</defs>
	<clipPath id="SVGID_2_">
		<use xlink:href="#SVGID_1_"  overflow="visible"/>
	</clipPath>
	<path clip-path="url(#SVGID_2_)" d="M193.89,133.805c-2.564,0-2.564-2.402-2.564-2.636c0-0.63,0.583-3.896,1.538-5.297
		c0.933-1.329,2.075-2.076,3.52-2.076c2.539,0,2.586,2.613,2.586,3.079C198.969,128.557,197.478,133.805,193.89,133.805
		 M199.38,126.032c-0.232-1.448-1.19-2.757-3.011-2.757c-1.424,0-2.941,0.375-4.763,2.196c-1.937,1.937-2.101,4.107-2.101,4.83
		c0,1.447,1.027,4.154,4.296,4.154c5.56,0,7.989-7.842,7.989-11.181c0-3.71-2.17-6.046-5.037-6.046
		c-3.381,0-4.454,3.064-4.454,3.725c0,0.332,0.187,0.827,0.887,0.827c0.769,0,1.259-0.71,1.259-1.254
		c0-0.827-0.723-0.827-1.094-0.827c1.024-1.743,2.679-1.886,3.354-1.886c1.699,0,3.33,1.215,3.33,4.227
		c0,0.91-0.141,2.102-0.631,3.991H199.38z"/>
	<path clip-path="url(#SVGID_2_)" d="M210.5,122.516h-0.558c-0.048,0.363-0.212,1.34-0.425,1.505c-0.131,0.1-1.391,0.1-1.62,0.1
		h-3.009c1.718-1.523,2.29-1.982,3.271-2.753c1.21-0.967,2.34-1.982,2.34-3.538c0-1.983-1.73-3.198-3.82-3.198
		c-2.024,0-3.395,1.419-3.395,2.921c0,0.832,0.712,0.914,0.877,0.914c0.397,0,0.879-0.281,0.879-0.878c0-0.298-0.119-0.878-1-0.878
		c0.509-1.141,1.627-1.494,2.399-1.494c1.644,0,2.499,1.276,2.499,2.602c0,1.423-1.017,2.551-1.541,3.14l-3.949,3.891
		c-0.163,0.147-0.163,0.181-0.163,0.639h6.724"/>
	<path clip-path="url(#SVGID_2_)" d="M221.446,124.12c1.769,0.096,3.092,1.165,3.092,3.21c0,2.742-1.999,6.066-5.486,6.345
		 M218.447,133.675c-1.396-0.068-3.072-0.882-3.072-3.207c0-2.789,2.002-6.044,5.472-6.348L218.447,133.675z M222.878,118.312
		c0-0.046,0.069-0.304,0.069-0.326c0-0.024,0-0.235-0.277-0.235c-0.232,0-0.256,0.071-0.348,0.467l-1.346,5.383
		c-3.688,0.118-7.097,3.227-7.097,6.405c0,2.221,1.623,4.066,4.453,4.229c-0.187,0.724-0.348,1.473-0.534,2.198
		c-0.278,1.098-0.51,1.986-0.51,2.057c0,0.231,0.163,0.256,0.278,0.256s0.163-0.024,0.232-0.093
		c0.046-0.048,0.186-0.609,0.255-0.936c0.301-1.146,0.58-2.313,0.881-3.482c3.734-0.116,7.101-3.271,7.101-6.403
		c0-1.846-1.232-3.995-4.456-4.23L222.878,118.312z"/>
	
		<line clip-path="url(#SVGID_2_)" fill="none" stroke="#000000" stroke-width="0.9313" stroke-miterlimit="10" x1="188.575" y1="143.872" x2="226.595" y2="143.872"/>
	<path clip-path="url(#SVGID_2_)" d="M194.148,165.59c-2.562,0-2.562-2.403-2.562-2.637c0-0.63,0.581-3.896,1.537-5.295
		c0.932-1.33,2.073-2.077,3.518-2.077c2.539,0,2.588,2.613,2.588,3.079C199.229,160.34,197.736,165.59,194.148,165.59
		 M199.641,157.817c-0.233-1.448-1.191-2.756-3.012-2.756c-1.424,0-2.942,0.374-4.763,2.195c-1.938,1.936-2.101,4.106-2.101,4.83
		c0,1.447,1.026,4.154,4.297,4.154c5.558,0,7.987-7.841,7.987-11.18c0-3.712-2.168-6.048-5.036-6.048
		c-3.381,0-4.453,3.065-4.453,3.728c0,0.33,0.187,0.825,0.885,0.825c0.771,0,1.261-0.71,1.261-1.255
		c0-0.826-0.723-0.826-1.095-0.826c1.024-1.743,2.678-1.886,3.353-1.886c1.7,0,3.332,1.217,3.332,4.227
		c0,0.91-0.142,2.102-0.632,3.991H199.641z"/>
	<path clip-path="url(#SVGID_2_)" d="M210.356,158.662c0.14-0.607,0.677-2.756,2.308-2.756c0.116,0,0.677,0,1.166,0.323
		c-0.654,0.117-1.12,0.701-1.12,1.262c0,0.373,0.257,0.819,0.885,0.819c0.514,0,1.261-0.426,1.261-1.367
		c0-1.227-1.362-1.557-2.146-1.557c-1.356,0-2.175,1.257-2.455,1.801c-0.585-1.564-1.847-1.801-2.523-1.801
		c-2.432,0-3.762,3.03-3.762,3.618c0,0.234,0.232,0.234,0.279,0.234c0.186,0,0.256-0.047,0.302-0.258
		c0.794-2.488,2.332-3.075,3.125-3.075c0.442,0,1.258,0.21,1.258,1.564c0,0.724-0.396,2.288-1.258,5.559
		c-0.374,1.448-1.19,2.43-2.216,2.43c-0.14,0-0.676,0-1.165-0.324c0.569-0.117,1.071-0.607,1.071-1.263
		c0-0.63-0.513-0.817-0.863-0.817c-0.698,0-1.282,0.613-1.282,1.368c0,1.084,1.168,1.557,2.196,1.557
		c1.541,0,2.383-1.635,2.452-1.774c0.281,0.863,1.123,1.774,2.524,1.774c2.407,0,3.74-3.01,3.74-3.593
		c0-0.233-0.21-0.233-0.279-0.233c-0.211,0-0.257,0.094-0.303,0.256c-0.771,2.491-2.354,3.05-3.102,3.05
		c-0.909,0-1.282-0.748-1.282-1.541c0-0.516,0.14-1.028,0.396-2.057"/>
	<path clip-path="url(#SVGID_2_)" d="M224.085,155.991h-0.557c-0.049,0.362-0.214,1.339-0.426,1.504
		c-0.131,0.101-1.39,0.101-1.62,0.101h-3.009c1.718-1.523,2.289-1.983,3.271-2.754c1.212-0.966,2.34-1.981,2.34-3.538
		c0-1.983-1.73-3.198-3.819-3.198c-2.024,0-3.396,1.42-3.396,2.922c0,0.831,0.711,0.914,0.878,0.914
		c0.397,0,0.877-0.282,0.877-0.879c0-0.297-0.118-0.877-1-0.877c0.51-1.142,1.627-1.494,2.4-1.494c1.644,0,2.5,1.275,2.5,2.601
		c0,1.424-1.018,2.551-1.542,3.14l-3.949,3.892c-0.164,0.147-0.164,0.18-0.164,0.639h6.726"/>
	<path clip-path="url(#SVGID_2_)" d="M251.59,144.393c0.256-0.115,0.445-0.233,0.445-0.513s-0.189-0.396-0.445-0.514l-12.909-6.083
		c-0.303-0.164-0.35-0.164-0.419-0.164c-0.258,0-0.467,0.21-0.467,0.466c0,0.211,0.117,0.351,0.441,0.513l12.231,5.782
		l-12.231,5.781c-0.324,0.163-0.441,0.304-0.441,0.513c0,0.258,0.209,0.467,0.467,0.467c0.069,0,0.116,0,0.419-0.162"/>
	<path clip-path="url(#SVGID_2_)" d="M266.291,149.729c-0.905,0-2.273-0.581-2.691-2.821c-0.256-1.398-0.256-3.543-0.256-4.918
		c0-1.493,0-3.031,0.188-4.289c0.44-2.774,2.18-2.986,2.76-2.986c0.764,0,2.295,0.422,2.735,2.729
		c0.232,1.306,0.232,3.077,0.232,4.547c0,1.748,0,3.334-0.255,4.824C268.656,149.03,267.334,149.729,266.291,149.729 M271.21,142.27
		c0-1.867-0.118-3.733-0.935-5.461c-1.072-2.24-2.984-2.613-3.962-2.613c-1.398,0-3.102,0.607-4.058,2.778
		c-0.746,1.609-0.863,3.429-0.863,5.296c0,1.75,0.095,3.851,1.051,5.624c1.002,1.89,2.705,2.356,3.846,2.356
		c1.26,0,3.031-0.49,4.057-2.707C271.092,145.934,271.21,144.113,271.21,142.27z"/>
</g>
<g>
	<defs>
		<rect id="SVGID_3_" x="54.4" y="154.175" width="83.2" height="52.65"/>
	</defs>
	<clipPath id="SVGID_4_">
		<use xlink:href="#SVGID_3_"  overflow="visible"/>
	</clipPath>
	<path clip-path="url(#SVGID_4_)" d="M59.889,173.805c-2.563,0-2.563-2.402-2.563-2.636c0-0.63,0.582-3.896,1.538-5.297
		c0.932-1.329,2.074-2.076,3.519-2.076c2.54,0,2.586,2.613,2.586,3.079C64.969,168.557,63.477,173.805,59.889,173.805
		 M65.38,166.032c-0.233-1.448-1.191-2.757-3.012-2.757c-1.423,0-2.941,0.375-4.762,2.196c-1.938,1.937-2.101,4.107-2.101,4.83
		c0,1.447,1.027,4.154,4.296,4.154c5.559,0,7.989-7.842,7.989-11.181c0-3.71-2.169-6.046-5.038-6.046
		c-3.381,0-4.454,3.064-4.454,3.725c0,0.332,0.187,0.827,0.886,0.827c0.77,0,1.259-0.71,1.259-1.254
		c0-0.827-0.722-0.827-1.094-0.827c1.024-1.743,2.678-1.886,3.354-1.886c1.699,0,3.331,1.215,3.331,4.227
		c0,0.91-0.141,2.102-0.631,3.991H65.38z"/>
	<path clip-path="url(#SVGID_4_)" d="M76.5,162.516h-0.557c-0.048,0.363-0.212,1.34-0.425,1.505c-0.131,0.1-1.391,0.1-1.62,0.1
		h-3.009c1.718-1.523,2.29-1.982,3.271-2.753c1.21-0.967,2.34-1.982,2.34-3.538c0-1.983-1.73-3.198-3.82-3.198
		c-2.024,0-3.395,1.419-3.395,2.921c0,0.832,0.712,0.914,0.877,0.914c0.397,0,0.878-0.281,0.878-0.878c0-0.298-0.119-0.878-1-0.878
		c0.509-1.141,1.627-1.494,2.399-1.494c1.644,0,2.5,1.276,2.5,2.602c0,1.423-1.017,2.551-1.542,3.14l-3.949,3.891
		c-0.164,0.147-0.164,0.181-0.164,0.639h6.725"/>
	<path clip-path="url(#SVGID_4_)" d="M87.446,164.12c1.769,0.096,3.093,1.165,3.093,3.21c0,2.742-2,6.066-5.488,6.345
		 M84.447,173.675c-1.396-0.068-3.072-0.882-3.072-3.207c0-2.789,2.002-6.044,5.471-6.348L84.447,173.675z M88.878,158.312
		c0-0.046,0.07-0.304,0.07-0.326c0-0.024,0-0.235-0.279-0.235c-0.231,0-0.254,0.071-0.347,0.467l-1.346,5.383
		c-3.687,0.118-7.097,3.227-7.097,6.405c0,2.221,1.624,4.066,4.453,4.229c-0.186,0.724-0.348,1.473-0.534,2.198
		c-0.278,1.098-0.509,1.986-0.509,2.057c0,0.231,0.162,0.256,0.278,0.256c0.116,0,0.163-0.024,0.232-0.093
		c0.046-0.048,0.186-0.609,0.255-0.936c0.301-1.146,0.58-2.313,0.881-3.482c3.734-0.116,7.1-3.271,7.1-6.403
		c0-1.846-1.232-3.995-4.456-4.23L88.878,158.312z"/>
	
		<line clip-path="url(#SVGID_4_)" fill="none" stroke="#000000" stroke-width="0.9313" stroke-miterlimit="10" x1="54.575" y1="183.872" x2="92.595" y2="183.872"/>
	<path clip-path="url(#SVGID_4_)" d="M60.148,205.59c-2.562,0-2.562-2.403-2.562-2.637c0-0.63,0.582-3.896,1.538-5.295
		c0.932-1.33,2.074-2.077,3.518-2.077c2.54,0,2.587,2.613,2.587,3.079C65.229,200.34,63.737,205.59,60.148,205.59 M65.641,197.817
		c-0.234-1.448-1.191-2.756-3.012-2.756c-1.424,0-2.942,0.374-4.763,2.195c-1.938,1.936-2.1,4.106-2.1,4.83
		c0,1.447,1.026,4.154,4.296,4.154c5.558,0,7.989-7.841,7.989-11.18c0-3.712-2.169-6.048-5.037-6.048
		c-3.381,0-4.454,3.065-4.454,3.728c0,0.33,0.187,0.825,0.886,0.825c0.77,0,1.26-0.71,1.26-1.255c0-0.826-0.722-0.826-1.094-0.826
		c1.024-1.743,2.678-1.886,3.353-1.886c1.7,0,3.331,1.217,3.331,4.227c0,0.91-0.14,2.102-0.63,3.991H65.641z"/>
	<path clip-path="url(#SVGID_4_)" d="M76.356,198.662c0.14-0.607,0.676-2.756,2.308-2.756c0.116,0,0.676,0,1.166,0.323
		c-0.653,0.117-1.12,0.701-1.12,1.262c0,0.373,0.256,0.819,0.885,0.819c0.513,0,1.26-0.426,1.26-1.367
		c0-1.227-1.362-1.557-2.146-1.557c-1.357,0-2.175,1.257-2.456,1.801c-0.584-1.564-1.847-1.801-2.524-1.801
		c-2.43,0-3.762,3.03-3.762,3.618c0,0.234,0.233,0.234,0.279,0.234c0.187,0,0.257-0.047,0.303-0.258
		c0.793-2.488,2.333-3.075,3.125-3.075c0.442,0,1.259,0.21,1.259,1.564c0,0.724-0.397,2.288-1.259,5.559
		c-0.373,1.448-1.189,2.43-2.215,2.43c-0.14,0-0.676,0-1.166-0.324c0.57-0.117,1.071-0.607,1.071-1.263
		c0-0.63-0.513-0.817-0.863-0.817c-0.699,0-1.282,0.613-1.282,1.368c0,1.084,1.168,1.557,2.196,1.557
		c1.542,0,2.383-1.635,2.453-1.774c0.28,0.863,1.121,1.774,2.523,1.774c2.406,0,3.74-3.01,3.74-3.593
		c0-0.233-0.209-0.233-0.279-0.233c-0.21,0-0.257,0.094-0.303,0.256c-0.77,2.491-2.354,3.05-3.101,3.05
		c-0.909,0-1.282-0.748-1.282-1.541c0-0.516,0.14-1.028,0.396-2.057"/>
	<path clip-path="url(#SVGID_4_)" d="M90.085,195.991h-0.558c-0.049,0.362-0.212,1.339-0.425,1.504
		c-0.131,0.101-1.39,0.101-1.62,0.101h-3.009c1.717-1.523,2.29-1.983,3.271-2.754c1.211-0.966,2.34-1.981,2.34-3.538
		c0-1.983-1.73-3.198-3.82-3.198c-2.024,0-3.395,1.42-3.395,2.922c0,0.831,0.711,0.914,0.877,0.914c0.397,0,0.878-0.282,0.878-0.879
		c0-0.297-0.119-0.877-1-0.877c0.51-1.142,1.628-1.494,2.4-1.494c1.644,0,2.5,1.275,2.5,2.601c0,1.424-1.017,2.551-1.541,3.14
		l-3.95,3.892c-0.164,0.147-0.164,0.18-0.164,0.639h6.725"/>
	<path clip-path="url(#SVGID_4_)" d="M117.589,178.098c0.28-0.14,0.446-0.256,0.446-0.513c0-0.256-0.212-0.466-0.469-0.466
		c-0.069,0-0.116,0-0.419,0.164l-12.91,6.083c-0.255,0.117-0.442,0.234-0.442,0.514s0.187,0.397,0.442,0.513l12.91,6.085
		c0.303,0.163,0.35,0.163,0.419,0.163c0.256,0,0.469-0.21,0.469-0.467s-0.166-0.373-0.446-0.513l-12.242-5.781"/>
	<path clip-path="url(#SVGID_4_)" d="M132.29,189.729c-0.904,0-2.273-0.581-2.69-2.821c-0.255-1.398-0.255-3.543-0.255-4.918
		c0-1.493,0-3.031,0.186-4.289c0.441-2.774,2.18-2.986,2.76-2.986c0.765,0,2.296,0.422,2.737,2.729
		c0.232,1.306,0.232,3.077,0.232,4.547c0,1.748,0,3.334-0.255,4.824C134.656,189.03,133.334,189.729,132.29,189.729 M137.21,182.27
		c0-1.867-0.119-3.733-0.935-5.461c-1.073-2.24-2.984-2.613-3.963-2.613c-1.399,0-3.101,0.607-4.057,2.778
		c-0.747,1.609-0.863,3.429-0.863,5.296c0,1.75,0.093,3.851,1.049,5.624c1.003,1.89,2.705,2.356,3.847,2.356
		c1.259,0,3.031-0.49,4.056-2.707C137.092,185.934,137.21,184.113,137.21,182.27z"/>
</g>
</svg>
