<?xml version="1.0" encoding="utf-8"?>
<!-- Generator: Adobe Illustrator 14.0.0, SVG Export Plug-In . SVG Version: 6.00 Build 43363)  -->
<!DOCTYPE svg PUBLIC "-//W3C//DTD SVG 1.1//EN" "http://www.w3.org/Graphics/SVG/1.1/DTD/svg11.dtd">
<svg version="1.1" id="Layer_1" xmlns="http://www.w3.org/2000/svg" xmlns:xlink="http://www.w3.org/1999/xlink" x="0px" y="0px"
	 width="295px" height="277px" viewBox="0 0 295 277" enable-background="new 0 0 295 277" xml:space="preserve">
<linearGradient id="SVGID_1_" gradientUnits="userSpaceOnUse" x1="146.7285" y1="242.4258" x2="237.3955" y2="212.4253">
	<stop  offset="0" style="stop-color:#FFFFFF"/>
	<stop  offset="1" style="stop-color:#000000"/>
</linearGradient>
<ellipse opacity="0.2" fill="url(#SVGID_1_)" cx="164.043" cy="236.694" rx="90.775" ry="25.937"/>
<circle opacity="0.1" fill="#1B1F8A" cx="136.305" cy="135.408" r="124.946"/>
<g>
	<polygon fill="#B5ACCC" points="139.863,11.594 14.701,158.523 126.469,124.616 	"/>
	<polygon fill="#ADA5C8" points="126.469,124.616 146.143,116.245 139.863,11.594 	"/>
	<polygon fill="#9896BE" points="146.143,116.245 224.002,48.014 139.863,11.594 	"/>
	<polygon fill="#7F84B2" points="146.143,116.245 214.793,190.756 224.002,48.014 	"/>
	<polygon fill="#7980AF" points="146.143,116.245 137.352,195.778 214.793,190.756 	"/>
	<polygon fill="#7F84B2" points="126.469,124.616 137.352,195.778 146.143,116.245 	"/>
	<polygon fill="#9293BB" points="126.469,124.616 33.633,204.058 137.352,195.778 	"/>
	<polygon fill="#A29EC3" points="126.469,124.616 14.701,158.523 33.633,204.058 	"/>
	<polygon fill="#6F75A8" points="137.352,195.778 166.234,232.196 214.793,190.756 	"/>
	<polygon fill="#6E73A7" points="137.352,195.778 62.934,235.29 166.234,232.196 	"/>
	<polygon fill="#7F84B2" points="137.352,195.778 33.633,204.058 62.934,235.29 	"/>
	<polygon fill="#6E73A6" points="166.234,232.196 62.934,235.29 74.561,242.243 	"/>
	<polygon fill="#6C6EA3" points="166.234,232.196 74.561,242.243 153.678,258.987 	"/>
	<polygon fill="#6C6EA3" points="74.561,242.243 88.375,248.104 153.678,258.987 	"/>
	<polygon fill="#767DAD" points="166.234,232.196 153.678,258.987 157.863,258.149 	"/>
	<polygon fill="#777EAE" points="166.234,232.196 157.863,258.149 214.793,190.756 	"/>
</g>
<line fill="none" stroke="#000000" stroke-width="3" stroke-dasharray="10" x1="136.306" y1="135.291" x2="223.947" y2="47.958"/>
<g>
	<line fill="none" stroke="#000000" stroke-width="0.8564" x1="139.863" y1="11.594" x2="126.469" y2="124.616"/>
	<line fill="none" stroke="#000000" stroke-width="0.8564" x1="126.469" y1="124.616" x2="14.701" y2="158.523"/>
	<line fill="none" stroke="#000000" stroke-width="0.8564" x1="126.469" y1="124.616" x2="33.633" y2="204.058"/>
	<line fill="none" stroke="#000000" stroke-width="0.8564" x1="126.469" y1="124.616" x2="146.143" y2="116.245"/>
	<line fill="none" stroke="#000000" stroke-width="0.8564" x1="146.143" y1="116.245" x2="224.002" y2="48.014"/>
	<line fill="none" stroke="#000000" stroke-width="0.8564" x1="146.143" y1="116.245" x2="139.863" y2="11.594"/>
	<line fill="none" stroke="#000000" stroke-width="0.8564" x1="146.143" y1="116.245" x2="214.793" y2="190.756"/>
	<line fill="none" stroke="#000000" stroke-width="0.8564" x1="146.143" y1="116.245" x2="137.352" y2="195.778"/>
	<line fill="none" stroke="#000000" stroke-width="0.8564" x1="126.469" y1="124.616" x2="137.352" y2="195.778"/>
	<line fill="none" stroke="#000000" stroke-width="0.8564" x1="137.352" y1="195.778" x2="62.934" y2="235.29"/>
	<line fill="none" stroke="#000000" stroke-width="0.8564" x1="137.352" y1="195.778" x2="33.633" y2="204.058"/>
	<line fill="none" stroke="#000000" stroke-width="0.8564" x1="137.352" y1="195.778" x2="214.793" y2="190.756"/>
	<line fill="none" stroke="#000000" stroke-width="0.8564" x1="137.352" y1="195.778" x2="166.234" y2="232.196"/>
	<line fill="none" stroke="#000000" stroke-width="0.8564" x1="166.234" y1="232.196" x2="214.793" y2="190.756"/>
	<line fill="none" stroke="#000000" stroke-width="0.8564" x1="74.561" y1="242.243" x2="166.234" y2="232.196"/>
	<line fill="none" stroke="#000000" stroke-width="0.8564" x1="166.234" y1="232.196" x2="62.934" y2="235.29"/>
	<line fill="none" stroke="#000000" stroke-width="0.8564" x1="166.234" y1="232.196" x2="153.678" y2="258.987"/>
	<line fill="none" stroke="#000000" stroke-width="0.8564" x1="166.234" y1="232.196" x2="157.863" y2="258.149"/>
</g>
<polygon fill="none" stroke="#000000" stroke-width="1.7127" points="139.863,11.594 224.002,48.014 214.793,190.756 
	157.863,258.149 153.678,258.987 88.375,248.104 74.561,242.243 62.934,235.29 33.633,204.058 14.701,158.523 "/>
<radialGradient id="SVGID_2_" cx="556.1123" cy="100.4375" r="194.6008" gradientTransform="matrix(-1 0 0 -1 646.668 183)" gradientUnits="userSpaceOnUse">
	<stop  offset="0.1629" style="stop-color:#FFFFFF"/>
	<stop  offset="0.427" style="stop-color:#181D78"/>
	<stop  offset="0.642" style="stop-color:#05061A"/>
	<stop  offset="0.7566" style="stop-color:#05061A"/>
	<stop  offset="0.8676" style="stop-color:#070925"/>
	<stop  offset="1" style="stop-color:#181D77"/>
</radialGradient>
<circle opacity="0.2" fill="url(#SVGID_2_)" enable-background="new    " cx="136.949" cy="135.409" r="125.049"/>
<circle fill="none" stroke="#000000" stroke-width="1.8832" cx="136.947" cy="135.409" r="125.049"/>
<path fill="none" stroke="#000000" stroke-width="0.856" stroke-dasharray="7.9323" d="M261.998,135.408
	c0-21.99-55.986-39.814-125.049-39.814c-69.063,0-125.05,17.824-125.05,39.814"/>
<path fill="none" stroke="#000000" stroke-width="0.8564" d="M11.899,135.408c0,21.988,55.986,39.814,125.05,39.814
	c69.062,0,125.049-17.826,125.049-39.814"/>
<g>
	<g>
		<line fill="#FFFFFF" x1="223.947" y1="47.958" x2="251" y2="21"/>
		<polygon fill="#FFFFFF" points="253.001,19.006 251.329,22.967 250.851,21.149 249.034,20.664 		"/>
	</g>
	<g>
		<line fill="none" stroke="#000000" stroke-width="3" x1="223.947" y1="47.958" x2="251" y2="21"/>
		<polygon points="257.002,15.02 251.987,26.902 250.552,21.447 245.102,19.992 		"/>
	</g>
</g>
<path fill="#FFFFFF" stroke="#000000" stroke-width="3" d="M136.306,135.291"/>
<circle cx="136.306" cy="135.291" r="3.558"/>
<circle cx="225.308" cy="46.791" r="3.558"/>
<g>
	<defs>
		<rect id="SVGID_3_" x="250" y="29" width="37" height="25"/>
	</defs>
	<clipPath id="SVGID_4_">
		<use xlink:href="#SVGID_3_"  overflow="visible"/>
	</clipPath>
	<path clip-path="url(#SVGID_4_)" d="M270.891,32.523c0.287-1.146,0.804-2.035,3.1-2.125c0.143,0,0.488-0.028,0.488-0.579
		c0-0.029,0-0.32-0.373-0.32c-0.946,0-1.951,0.086-2.898,0.086c-0.977,0-1.98-0.086-2.927-0.086c-0.173,0-0.517,0-0.517,0.58
		c0,0.319,0.287,0.319,0.517,0.319c1.635,0.028,1.95,0.632,1.95,1.262c0,0.086-0.057,0.516-0.086,0.602l-3.214,12.762l-6.341-14.977
		c-0.229-0.516-0.259-0.549-0.918-0.549h-3.845c-0.574,0-0.832,0-0.832,0.58c0,0.318,0.258,0.318,0.804,0.318
		c0.144,0,1.951,0,1.951,0.26l-3.845,15.393c-0.287,1.146-0.775,2.064-3.1,2.15c-0.172,0-0.486,0.029-0.486,0.58
		c0,0.203,0.143,0.318,0.373,0.318c0.918,0,1.922-0.086,2.868-0.086c0.976,0,2.009,0.086,2.955,0.086c0.145,0,0.517,0,0.517-0.58
		c0-0.289-0.259-0.318-0.574-0.318c-1.664-0.057-1.894-0.688-1.894-1.262c0-0.201,0.029-0.345,0.114-0.659l3.788-15.142
		c0.115,0.172,0.115,0.23,0.258,0.517l7.146,16.899c0.201,0.488,0.287,0.545,0.545,0.545c0.315,0,0.315-0.086,0.459-0.602"/>
	<path clip-path="url(#SVGID_4_)" d="M286.46,39.561c0-0.1-0.062-0.261-0.262-0.261c-0.121,0-0.142,0.021-0.402,0.277l-0.985,1.129
		c-0.765-1.049-2.032-1.406-3.26-1.406c-2.837,0-5.352,2.291-5.352,4.602c0,0.301,0.06,1.104,0.66,1.848
		c0.68,0.804,1.42,0.983,2.779,1.305c0.4,0.101,1.4,0.321,1.7,0.402c0.64,0.161,1.861,0.602,1.861,2.108
		c0,1.628-1.699,3.535-3.978,3.535c-1.759,0-3.877-0.626-3.877-2.865c0-0.202,0.04-0.646,0.12-1.01
		c0.021-0.08,0.021-0.101,0.021-0.121c0-0.264-0.24-0.264-0.32-0.264c-0.28,0-0.3,0.041-0.38,0.403l-1.019,4.015
		c-0.021,0.08-0.061,0.201-0.061,0.301c0,0.12,0.08,0.241,0.279,0.241c0.119,0,0.14-0.02,0.398-0.28
		c0.221-0.241,0.738-0.884,0.957-1.125c1.059,1.164,2.614,1.405,3.812,1.405c3.013,0,5.446-2.614,5.446-4.987
		c0-0.886-0.361-1.689-0.804-2.152c-0.702-0.725-1.003-0.805-3.59-1.408c-0.421-0.1-1.083-0.261-1.264-0.322
		c-0.501-0.181-1.345-0.684-1.345-1.83c0-1.589,1.805-3.198,3.911-3.198c2.188,0,3.243,1.231,3.243,3.149
		c0,0.262-0.152,0.728-0.152,0.909c0,0.282,0.252,0.282,0.355,0.282c0.314,0,0.334-0.1,0.418-0.44"/>
</g>
</svg>
