<?xml version="1.0" encoding="utf-8"?>
<!-- Generator: Adobe Illustrator 14.0.0, SVG Export Plug-In . SVG Version: 6.00 Build 43363)  -->
<!DOCTYPE svg PUBLIC "-//W3C//DTD SVG 1.1//EN" "http://www.w3.org/Graphics/SVG/1.1/DTD/svg11.dtd">
<svg version="1.1" id="Layer_1" xmlns="http://www.w3.org/2000/svg" xmlns:xlink="http://www.w3.org/1999/xlink" x="0px" y="0px"
	 width="601px" height="277px" viewBox="0 0 601 277" enable-background="new 0 0 601 277" xml:space="preserve">
<polygon opacity="0.2" fill="#2D3082" enable-background="new    " points="126.643,235.75 8.646,168.875 28.114,110.572 
	92.1,137.679 122.646,115.099 168.846,15.293 224.255,141.833 "/>
<polygon fill="none" stroke="#010101" stroke-width="1.7127" stroke-linejoin="round" points="126.643,235.75 8.646,168.875 
	28.114,110.572 92.1,137.679 122.646,115.099 168.846,15.293 224.255,141.833 "/>
<circle fill="none" cx="114.147" cy="34.71" r="3.71"/>
<circle fill="#010101" cx="126.643" cy="235.75" r="3"/>
<circle fill="#010101" cx="224.256" cy="141.5" r="3"/>
<path fill="none" stroke="#010101" stroke-width="0.8564" stroke-dasharray="5.709" d="M28.114,110.572"/>
<path fill="none" stroke="#010101" stroke-width="0.8564" stroke-dasharray="5.709" d="M168.846,15.293"/>
<circle fill="#010101" cx="124.146" cy="206.667" r="3"/>
<line fill="none" stroke="#010101" stroke-width="0.8564" stroke-dasharray="5.709" x1="124.146" y1="206.667" x2="168.846" y2="15.293"/>
<line fill="none" stroke="#010101" stroke-width="0.8564" stroke-dasharray="5.709" x1="124.146" y1="206.667" x2="122.646" y2="115.099"/>
<line fill="none" stroke="#010101" stroke-width="0.8564" stroke-dasharray="5.709" x1="124.146" y1="206.667" x2="92.1" y2="137.679"/>
<line fill="none" stroke="#010101" stroke-width="0.8564" stroke-dasharray="5.709" x1="124.146" y1="206.667" x2="28.114" y2="110.572"/>
<line fill="none" stroke="#010101" stroke-width="0.8564" stroke-dasharray="5.709" x1="124.146" y1="206.667" x2="8.646" y2="168.875"/>
<line fill="none" stroke="#010101" stroke-width="0.8564" stroke-dasharray="5.709" x1="124.146" y1="206.667" x2="126.643" y2="235.75"/>
<polygon opacity="0.2" fill="#2D3082" enable-background="new    " points="433.31,235.75 315.312,168.875 334.78,110.572 
	398.766,137.679 429.313,115.099 475.513,15.293 530.922,141.833 "/>
<polygon fill="none" stroke="#010101" stroke-width="1.7127" stroke-linejoin="round" points="433.31,235.75 315.312,168.875 
	334.78,110.572 398.766,137.679 429.313,115.099 475.513,15.293 530.922,141.833 "/>
<circle fill="#010101" cx="394.708" cy="21" r="3"/>
<line fill="none" stroke="#010101" stroke-width="0.8564" x1="394.708" y1="21" x2="475.513" y2="15.293"/>
<line fill="none" stroke="#010101" stroke-width="0.8564" stroke-dasharray="5.709" x1="394.708" y1="21" x2="530.922" y2="141.833"/>
<line fill="none" stroke="#010101" stroke-width="0.8564" stroke-dasharray="5.709" x1="394.708" y1="21" x2="433.31" y2="235.75"/>
<line fill="none" stroke="#010101" stroke-width="0.8564" stroke-dasharray="5.709" x1="394.708" y1="21" x2="315.312" y2="168.875"/>
<line fill="none" stroke="#010101" stroke-width="0.8564" x1="394.708" y1="21" x2="334.78" y2="110.572"/>
<line fill="none" stroke="#010101" stroke-width="0.8564" stroke-dasharray="5.709" x1="394.708" y1="21" x2="398.766" y2="137.679"/>
<line fill="none" stroke="#010101" stroke-width="0.8564" stroke-dasharray="5.709" x1="394.708" y1="21" x2="429.313" y2="115.099"/>
<polygon opacity="0.2" fill="#2D3082" enable-background="new    " points="394.708,21 334.78,110.572 315.312,168.875 
	433.31,235.75 530.922,141.833 475.513,15.293 "/>
<g>
	<defs>
		<rect id="SVGID_1_" x="132.18" y="187.668" width="15" height="24"/>
	</defs>
	<clipPath id="SVGID_2_">
		<use xlink:href="#SVGID_1_"  overflow="visible"/>
	</clipPath>
	<path clip-path="url(#SVGID_2_)" d="M137.169,203.666c-2.147,0-2.291-2.748-2.291-3.354c0-1.715,1.038-5.604,1.646-7.104
		c1.109-2.641,2.97-4.143,4.438-4.143c2.326,0,2.829,2.893,2.829,3.143c0,0.215-1.97,8.031-2.078,8.174
		c-0.537,0.998-2.541,3.283-4.545,3.283 M147.091,188.627c0-0.143-0.109-0.361-0.359-0.361c-0.393,0-1.821,1.426-2.428,2.459
		c-0.786-1.895-2.178-2.459-3.321-2.459c-4.213,0-8.605,5.295-8.605,10.479c0,3.506,2.107,5.721,4.714,5.721
		c1.535,0,2.928-0.861,4.213-2.154c-0.321,1.264-1.5,6.141-1.607,6.465c-0.286,1.012-0.571,1.156-2.571,1.191
		c-0.464,0-0.821,0-0.821,0.711c0,0.035,0,0.391,0.464,0.391c1.143,0,2.393-0.107,3.571-0.107c1.214,0,2.5,0.107,3.678,0.107
		c0.179,0,0.643,0,0.643-0.711c0-0.391-0.357-0.391-0.929-0.391c-1.714,0-1.714-0.252-1.714-0.576c0-0.252,0.071-0.467,0.143-0.789
		L147.091,188.627z"/>
</g>
<g>
	<defs>
		<rect id="SVGID_3_" x="370.844" y="5.293" width="15" height="24"/>
	</defs>
	<clipPath id="SVGID_4_">
		<use xlink:href="#SVGID_3_"  overflow="visible"/>
	</clipPath>
	<path clip-path="url(#SVGID_4_)" d="M375.833,21.291c-2.147,0-2.291-2.748-2.291-3.354c0-1.715,1.038-5.604,1.646-7.104
		c1.109-2.641,2.97-4.143,4.438-4.143c2.326,0,2.829,2.893,2.829,3.143c0,0.215-1.97,8.031-2.078,8.174
		c-0.537,0.998-2.541,3.283-4.545,3.283 M385.755,6.252c0-0.143-0.109-0.361-0.359-0.361c-0.393,0-1.821,1.426-2.428,2.459
		c-0.786-1.895-2.178-2.459-3.321-2.459c-4.213,0-8.605,5.295-8.605,10.479c0,3.506,2.107,5.721,4.714,5.721
		c1.535,0,2.928-0.861,4.213-2.154c-0.321,1.264-1.5,6.141-1.607,6.465c-0.286,1.012-0.571,1.156-2.571,1.191
		c-0.464,0-0.821,0-0.821,0.711c0,0.035,0,0.391,0.464,0.391c1.143,0,2.393-0.107,3.571-0.107c1.214,0,2.5,0.107,3.678,0.107
		c0.179,0,0.643,0,0.643-0.711c0-0.391-0.357-0.391-0.929-0.391c-1.714,0-1.714-0.252-1.714-0.576c0-0.252,0.071-0.467,0.143-0.789
		L385.755,6.252z"/>
</g>
<g>
	<defs>
		<rect id="SVGID_5_" x="109.896" y="243.91" width="29" height="24"/>
	</defs>
	<clipPath id="SVGID_6_">
		<use xlink:href="#SVGID_5_"  overflow="visible"/>
	</clipPath>
	<path clip-path="url(#SVGID_6_)" d="M119.423,249.092c0.252-0.97,1.221-1.977,1.866-2.516c1.256-1.114,2.297-1.366,2.907-1.366
		c1.436,0,2.297,1.258,2.297,3.379c0,2.12-1.185,6.253-1.83,7.618c-1.221,2.516-2.943,3.701-4.271,3.701
		c-2.369,0-2.835-2.983-2.835-3.198c0-0.071,0-0.144,0.107-0.575 M113.114,264.733c-0.287,1.225-0.359,1.477-1.939,1.477
		c-0.432,0-0.826,0-0.826,0.675c0,0.284,0.179,0.427,0.467,0.427c0.97,0,2.011-0.107,3.016-0.107c1.185,0,2.406,0.107,3.555,0.107
		c0.179,0,0.646,0,0.646-0.71c0-0.392-0.359-0.392-0.862-0.392c-1.796,0-1.796-0.253-1.796-0.578c0-0.433,1.508-6.318,1.76-7.223
		c0.467,1.042,1.472,2.3,3.304,2.3c4.166,0,8.657-5.252,8.657-10.539c0-3.381-2.049-5.759-4.778-5.759
		c-1.796,0-3.52,1.313-4.704,2.737c-0.359-1.971-1.903-2.737-3.232-2.737c-1.652,0-2.334,1.411-2.657,2.062
		c-0.646,1.229-1.113,3.397-1.113,3.506c0,0.36,0.359,0.36,0.431,0.36c0.359,0,0.395-0.036,0.611-0.83
		c0.611-2.563,1.329-4.298,2.621-4.298c0.61,0,1.113,0.291,1.113,1.66c0,0.828-0.108,1.225-0.252,1.837L113.114,264.733z"/>
	<path clip-path="url(#SVGID_6_)" d="M132.521,262.798c-0.1,0.329-0.225,0.632-0.225,1.062c0,1.188,1.002,2.149,2.379,2.149
		c2.504,0,3.608-3.504,3.608-3.885c0-0.331-0.33-0.331-0.404-0.331c-0.353,0-0.378,0.154-0.479,0.435
		c-0.58,2.037-1.689,3.082-2.673,3.082c-0.504,0-0.63-0.329-0.63-0.886c0-0.582,0.177-1.062,0.404-1.618
		c0.252-0.684,0.53-1.366,0.808-2.023c0.227-0.607,1.136-2.908,1.237-3.212c0.076-0.253,0.152-0.556,0.152-0.81
		c0-1.188-1.005-2.151-2.384-2.151c-2.483,0-3.637,3.438-3.637,3.868c0,0.328,0.354,0.328,0.429,0.328
		c0.354,0,0.379-0.127,0.455-0.404c0.657-2.178,1.769-3.09,2.704-3.09c0.404,0,0.632,0.203,0.632,0.887
		c0,0.582-0.155,0.961-0.799,2.529 M137.63,250.049c0-0.396-0.302-0.939-1.004-0.939c-0.678,0-1.406,0.643-1.406,1.361
		c0,0.42,0.326,0.939,1.004,0.939C136.952,251.41,137.63,250.717,137.63,250.049z"/>
</g>
<g>
	<defs>
		<rect id="SVGID_7_" x="229.256" y="129.833" width="64" height="26"/>
	</defs>
	<clipPath id="SVGID_8_">
		<use xlink:href="#SVGID_7_"  overflow="visible"/>
	</clipPath>
	<path clip-path="url(#SVGID_8_)" d="M238.583,135.415c0.252-0.97,1.221-1.977,1.866-2.516c1.256-1.114,2.297-1.366,2.907-1.366
		c1.436,0,2.297,1.258,2.297,3.379c0,2.12-1.185,6.253-1.83,7.618c-1.221,2.515-2.943,3.701-4.271,3.701
		c-2.369,0-2.835-2.983-2.835-3.198c0-0.072,0-0.145,0.107-0.575 M232.273,151.055c-0.287,1.226-0.359,1.478-1.939,1.478
		c-0.431,0-0.826,0-0.826,0.675c0,0.284,0.179,0.426,0.467,0.426c0.97,0,2.011-0.106,3.016-0.106c1.185,0,2.406,0.106,3.555,0.106
		c0.179,0,0.646,0,0.646-0.71c0-0.391-0.359-0.391-0.862-0.391c-1.795,0-1.795-0.253-1.795-0.578c0-0.433,1.508-6.319,1.76-7.224
		c0.467,1.043,1.472,2.301,3.304,2.301c4.166,0,8.657-5.252,8.657-10.539c0-3.381-2.049-5.759-4.778-5.759
		c-1.796,0-3.52,1.313-4.704,2.736c-0.359-1.97-1.903-2.736-3.232-2.736c-1.652,0-2.334,1.411-2.657,2.061
		c-0.646,1.229-1.113,3.398-1.113,3.506c0,0.361,0.359,0.361,0.432,0.361c0.359,0,0.395-0.036,0.611-0.83
		c0.611-2.563,1.329-4.298,2.621-4.298c0.61,0,1.113,0.291,1.113,1.66c0,0.828-0.108,1.225-0.252,1.837L232.273,151.055z"/>
	<path clip-path="url(#SVGID_8_)" d="M251.781,149.121c-0.1,0.329-0.225,0.632-0.225,1.062c0,1.189,1.002,2.15,2.379,2.15
		c2.504,0,3.608-3.504,3.608-3.885c0-0.331-0.329-0.331-0.404-0.331c-0.353,0-0.378,0.153-0.479,0.434
		c-0.58,2.038-1.689,3.082-2.673,3.082c-0.504,0-0.63-0.329-0.63-0.885c0-0.582,0.177-1.062,0.404-1.619
		c0.252-0.683,0.53-1.366,0.808-2.022c0.227-0.607,1.136-2.908,1.237-3.213c0.076-0.253,0.152-0.556,0.152-0.809
		c0-1.188-1.005-2.152-2.384-2.152c-2.483,0-3.637,3.438-3.637,3.868c0,0.329,0.354,0.329,0.43,0.329
		c0.354,0,0.379-0.127,0.455-0.404c0.657-2.179,1.769-3.091,2.704-3.091c0.404,0,0.632,0.204,0.632,0.888
		c0,0.582-0.155,0.961-0.799,2.528 M256.89,136.372c0-0.396-0.302-0.94-1.004-0.94c-0.678,0-1.406,0.644-1.406,1.361
		c0,0.42,0.326,0.94,1.004,0.94C256.212,137.733,256.89,137.04,256.89,136.372z"/>
	<path clip-path="url(#SVGID_8_)" d="M270.456,146.333h7.703c0.327,0,0.932,0,0.932-0.588c0-0.613-0.579-0.613-0.932-0.613h-7.703
		v-7.674c0-0.325,0-0.927-0.588-0.927c-0.612,0-0.612,0.577-0.612,0.927v7.674h-7.713c-0.327,0-0.929,0-0.929,0.588
		c0,0.612,0.578,0.612,0.929,0.612h7.713v7.763c0,0.329,0,0.937,0.588,0.937c0.613,0,0.613-0.581,0.613-0.937"/>
	<path clip-path="url(#SVGID_8_)" d="M289.356,136.04c0-0.679-0.05-0.707-0.752-0.707c-1.604,1.575-3.884,1.6-4.911,1.6v0.9
		c0.606,0,2.273,0,3.663-0.663v12.808c0,0.828,0,1.154-2.527,1.154h-0.96v0.9c0.452-0.025,3.541-0.101,4.469-0.101
		c0.778,0,3.941,0.075,4.494,0.101v-0.9h-0.958c-2.518,0-2.518-0.327-2.518-1.156"/>
</g>
<circle fill="#010101" cx="432.887" cy="235.75" r="3"/>
<circle fill="#010101" cx="530.5" cy="141.5" r="3"/>
<g>
	<defs>
		<rect id="SVGID_9_" x="416.14" y="243.91" width="29" height="24"/>
	</defs>
	<clipPath id="SVGID_10_">
		<use xlink:href="#SVGID_9_"  overflow="visible"/>
	</clipPath>
	<path clip-path="url(#SVGID_10_)" d="M425.667,249.092c0.252-0.97,1.222-1.977,1.866-2.516c1.256-1.114,2.297-1.366,2.906-1.366
		c1.437,0,2.297,1.258,2.297,3.379c0,2.12-1.184,6.253-1.829,7.618c-1.222,2.516-2.943,3.701-4.271,3.701
		c-2.369,0-2.836-2.983-2.836-3.198c0-0.071,0-0.144,0.107-0.575 M419.357,264.733c-0.287,1.225-0.359,1.477-1.939,1.477
		c-0.432,0-0.826,0-0.826,0.675c0,0.284,0.179,0.427,0.467,0.427c0.97,0,2.011-0.107,3.016-0.107c1.185,0,2.405,0.107,3.555,0.107
		c0.179,0,0.646,0,0.646-0.71c0-0.392-0.358-0.392-0.861-0.392c-1.796,0-1.796-0.253-1.796-0.578c0-0.433,1.508-6.318,1.76-7.223
		c0.468,1.042,1.472,2.3,3.304,2.3c4.166,0,8.657-5.252,8.657-10.539c0-3.381-2.049-5.759-4.778-5.759
		c-1.795,0-3.52,1.313-4.703,2.737c-0.359-1.971-1.903-2.737-3.232-2.737c-1.652,0-2.334,1.411-2.656,2.062
		c-0.646,1.229-1.114,3.397-1.114,3.506c0,0.36,0.359,0.36,0.431,0.36c0.358,0,0.396-0.036,0.61-0.83
		c0.611-2.563,1.33-4.298,2.621-4.298c0.61,0,1.113,0.291,1.113,1.66c0,0.828-0.107,1.225-0.252,1.837L419.357,264.733z"/>
	<path clip-path="url(#SVGID_10_)" d="M438.766,262.798c-0.101,0.329-0.226,0.632-0.226,1.062c0,1.188,1.002,2.149,2.379,2.149
		c2.504,0,3.608-3.504,3.608-3.885c0-0.331-0.33-0.331-0.404-0.331c-0.354,0-0.378,0.154-0.479,0.435
		c-0.58,2.037-1.689,3.082-2.674,3.082c-0.504,0-0.629-0.329-0.629-0.886c0-0.582,0.176-1.062,0.403-1.618
		c0.252-0.684,0.53-1.366,0.808-2.023c0.227-0.607,1.137-2.908,1.237-3.212c0.076-0.253,0.151-0.556,0.151-0.81
		c0-1.188-1.004-2.151-2.383-2.151c-2.483,0-3.638,3.438-3.638,3.868c0,0.328,0.354,0.328,0.429,0.328
		c0.354,0,0.379-0.127,0.455-0.404c0.657-2.178,1.77-3.09,2.705-3.09c0.403,0,0.631,0.203,0.631,0.887
		c0,0.582-0.154,0.961-0.799,2.529 M443.874,250.049c0-0.396-0.302-0.939-1.004-0.939c-0.679,0-1.406,0.643-1.406,1.361
		c0,0.42,0.326,0.939,1.005,0.939C443.195,251.41,443.874,250.717,443.874,250.049z"/>
</g>
<g>
	<defs>
		<rect id="SVGID_11_" x="535.5" y="129.833" width="64" height="26"/>
	</defs>
	<clipPath id="SVGID_12_">
		<use xlink:href="#SVGID_11_"  overflow="visible"/>
	</clipPath>
	<path clip-path="url(#SVGID_12_)" d="M544.826,135.415c0.252-0.97,1.221-1.977,1.866-2.516c1.256-1.114,2.297-1.366,2.907-1.366
		c1.436,0,2.297,1.258,2.297,3.379c0,2.12-1.186,6.253-1.83,7.618c-1.221,2.515-2.943,3.701-4.271,3.701
		c-2.369,0-2.834-2.983-2.834-3.198c0-0.072,0-0.145,0.106-0.575 M538.517,151.055c-0.287,1.226-0.359,1.478-1.938,1.478
		c-0.432,0-0.826,0-0.826,0.675c0,0.284,0.178,0.426,0.467,0.426c0.97,0,2.011-0.106,3.016-0.106c1.186,0,2.406,0.106,3.555,0.106
		c0.18,0,0.646,0,0.646-0.71c0-0.391-0.359-0.391-0.862-0.391c-1.796,0-1.796-0.253-1.796-0.578c0-0.433,1.508-6.319,1.76-7.224
		c0.467,1.043,1.473,2.301,3.305,2.301c4.166,0,8.656-5.252,8.656-10.539c0-3.381-2.049-5.759-4.777-5.759
		c-1.797,0-3.52,1.313-4.704,2.736c-0.359-1.97-1.903-2.736-3.231-2.736c-1.652,0-2.334,1.411-2.658,2.061
		c-0.646,1.229-1.113,3.398-1.113,3.506c0,0.361,0.359,0.361,0.432,0.361c0.359,0,0.395-0.036,0.611-0.83
		c0.611-2.563,1.328-4.298,2.621-4.298c0.609,0,1.113,0.291,1.113,1.66c0,0.828-0.109,1.225-0.252,1.837L538.517,151.055z"/>
	<path clip-path="url(#SVGID_12_)" d="M558.024,149.121c-0.101,0.329-0.226,0.632-0.226,1.062c0,1.189,1.002,2.15,2.379,2.15
		c2.504,0,3.609-3.504,3.609-3.885c0-0.331-0.33-0.331-0.404-0.331c-0.354,0-0.379,0.153-0.479,0.434
		c-0.58,2.038-1.688,3.082-2.673,3.082c-0.504,0-0.63-0.329-0.63-0.885c0-0.582,0.177-1.062,0.403-1.619
		c0.252-0.683,0.531-1.366,0.809-2.022c0.227-0.607,1.136-2.908,1.236-3.213c0.076-0.253,0.152-0.556,0.152-0.809
		c0-1.188-1.005-2.152-2.384-2.152c-2.483,0-3.638,3.438-3.638,3.868c0,0.329,0.355,0.329,0.43,0.329
		c0.354,0,0.379-0.127,0.455-0.404c0.656-2.179,1.77-3.091,2.704-3.091c0.403,0,0.632,0.204,0.632,0.888
		c0,0.582-0.154,0.961-0.799,2.528 M563.133,136.372c0-0.396-0.301-0.94-1.004-0.94c-0.678,0-1.406,0.644-1.406,1.361
		c0,0.42,0.326,0.94,1.005,0.94C562.455,137.733,563.133,137.04,563.133,136.372z"/>
	<path clip-path="url(#SVGID_12_)" d="M576.699,146.333h7.703c0.327,0,0.932,0,0.932-0.588c0-0.613-0.578-0.613-0.932-0.613h-7.703
		v-7.674c0-0.325,0-0.927-0.588-0.927c-0.611,0-0.611,0.577-0.611,0.927v7.674h-7.713c-0.328,0-0.93,0-0.93,0.588
		c0,0.612,0.578,0.612,0.93,0.612h7.713v7.763c0,0.329,0,0.937,0.588,0.937c0.613,0,0.613-0.581,0.613-0.937"/>
	<path clip-path="url(#SVGID_12_)" d="M595.6,136.04c0-0.679-0.051-0.707-0.752-0.707c-1.604,1.575-3.885,1.6-4.911,1.6v0.9
		c0.606,0,2.273,0,3.663-0.663v12.808c0,0.828,0,1.154-2.527,1.154h-0.96v0.9c0.452-0.025,3.54-0.101,4.47-0.101
		c0.777,0,3.94,0.075,4.494,0.101v-0.9h-0.959c-2.518,0-2.518-0.327-2.518-1.156"/>
</g>
<line fill="none" stroke="#010101" stroke-width="0.8564" stroke-dasharray="5.709" x1="150.897" y1="189.342" x2="224.255" y2="141.833"/>
<line fill="none" stroke="#010101" stroke-width="0.8564" stroke-dasharray="5.709" x1="124.146" y1="206.667" x2="132.113" y2="201.508"/>
</svg>
