<?xml version="1.0" encoding="utf-8"?>
<!-- Generator: Adobe Illustrator 14.0.0, SVG Export Plug-In . SVG Version: 6.00 Build 43363)  -->
<!DOCTYPE svg PUBLIC "-//W3C//DTD SVG 1.1//EN" "http://www.w3.org/Graphics/SVG/1.1/DTD/svg11.dtd">
<svg version="1.1" id="Layer_1" xmlns="http://www.w3.org/2000/svg" xmlns:xlink="http://www.w3.org/1999/xlink" x="0px" y="0px"
	 width="420px" height="408.421px" viewBox="0 0 420 408.421" enable-background="new 0 0 420 408.421" xml:space="preserve">
<polygon fill="none" stroke="#000000" stroke-width="0.8564" points="213.764,193.232 380.697,258.47 239.346,403.659 
	62.179,282.135 "/>
<polyline fill="none" stroke="#000000" stroke-width="0.8564" points="380.697,258.47 414.596,26.298 204.169,4.552 
	213.764,193.232 "/>
<polyline fill="none" stroke="#000000" stroke-width="0.8564" points="204.169,4.552 4.615,49.324 62.179,282.135 "/>
<g>
	<defs>
		<rect id="SVGID_1_" x="166.105" y="266.105" width="113" height="26.8"/>
	</defs>
	<clipPath id="SVGID_2_">
		<use xlink:href="#SVGID_1_"  overflow="visible"/>
	</clipPath>
	<path clip-path="url(#SVGID_2_)" d="M174.544,288.59c-0.143,0.519-0.143,0.576-0.573,1.066c-1.259,1.586-2.434,2.048-3.235,2.048
		c-1.432,0-1.832-1.586-1.832-2.711c0-1.442,0.916-4.991,1.575-6.317c0.888-1.702,2.176-2.771,3.321-2.771
		c1.861,0,2.263,2.367,2.263,2.54s-0.059,0.347-0.087,0.491 M180.511,272.424c0-0.029,0-0.318-0.375-0.318
		c-0.432,0-3.167,0.257-3.656,0.314c-0.23,0.028-0.403,0.171-0.403,0.543c0,0.343,0.259,0.343,0.691,0.343
		c1.382,0,1.44,0.201,1.44,0.487l-0.087,0.573l-1.727,6.793c-0.518-1.071-1.353-1.854-2.648-1.854c-3.369,0-6.938,4.22-6.938,8.409
		c0,2.696,1.584,4.591,3.829,4.591c0.576,0,2.015-0.114,3.743-2.136c0.23,1.195,1.238,2.136,2.62,2.136
		c1.008,0,1.67-0.657,2.13-1.572c0.489-1.029,0.864-2.772,0.864-2.83c0-0.287-0.259-0.287-0.345-0.287
		c-0.288,0-0.317,0.116-0.403,0.52c-0.489,1.872-1.008,3.571-2.188,3.571c-0.777,0-0.864-0.746-0.864-1.32
		c0-0.689,0.058-0.889,0.173-1.377L180.511,272.424z"/>
	<path clip-path="url(#SVGID_2_)" d="M190.188,283.311c0.172-0.75,0.832-3.405,2.841-3.405c0.144,0,0.832,0,1.434,0.401
		c-0.792,0.146-1.357,0.876-1.357,1.577c0,0.467,0.311,1.021,1.073,1.021c0.621,0,1.526-0.521,1.526-1.684
		c0-1.509-1.649-1.916-2.599-1.916c-1.673,0-2.681,1.534-3.027,2.198c-0.72-1.908-2.277-2.198-3.111-2.198
		c-2.998,0-4.641,3.716-4.641,4.436c0,0.288,0.287,0.288,0.346,0.288c0.229,0,0.315-0.058,0.373-0.318
		c0.976-3.078,2.87-3.805,3.845-3.805c0.545,0,1.549,0.262,1.549,1.935c0,0.894-0.487,2.827-1.549,6.864
		c-0.459,1.789-1.463,3-2.726,3c-0.172,0-0.832,0-1.435-0.398c0.732-0.146,1.377-0.759,1.377-1.577c0-0.789-0.622-1.022-1.046-1.022
		c-0.847,0-1.554,0.754-1.554,1.684c0,1.334,1.427,1.915,2.682,1.915c1.884,0,2.911-1.993,2.996-2.164
		c0.343,1.054,1.37,2.164,3.082,2.164c2.939,0,4.569-3.688,4.569-4.402c0-0.287-0.258-0.287-0.344-0.287
		c-0.258,0-0.316,0.116-0.373,0.317c-0.947,3.081-2.898,3.771-3.816,3.771c-1.119,0-1.578-0.923-1.578-1.903
		c0-0.634,0.172-1.27,0.488-2.538"/>
	<path clip-path="url(#SVGID_2_)" d="M203.707,267.369c0-0.541-0.04-0.562-0.599-0.562c-1.277,1.279-3.094,1.299-3.912,1.299v0.7
		c0.482,0,1.807,0,2.911-0.589v10.264c0,0.664,0,0.925-2.008,0.925h-0.763v0.7c0.362-0.02,2.832-0.08,3.575-0.08
		c0.623,0,3.154,0.061,3.595,0.08v-0.7h-0.771c-2.028,0-2.028-0.261-2.028-0.923"/>
	<path clip-path="url(#SVGID_2_)" d="M221.689,275.383c-0.115-0.287-0.258-0.576-0.631-0.576c-0.258,0-0.459,0.146-0.631,0.548
		l-7.146,16.19c-0.172,0.345-0.172,0.401-0.172,0.487c0,0.316,0.258,0.574,0.574,0.574c0.201,0,0.43-0.057,0.631-0.544l6.743-15.235
		l6.743,15.206c0.143,0.315,0.258,0.573,0.631,0.573c0.315,0,0.574-0.258,0.574-0.574c0-0.086,0-0.143-0.173-0.487"/>
	<path clip-path="url(#SVGID_2_)" d="M245.845,288.59c-0.144,0.519-0.144,0.576-0.573,1.066c-1.259,1.586-2.434,2.048-3.235,2.048
		c-1.432,0-1.832-1.586-1.832-2.711c0-1.442,0.916-4.991,1.575-6.317c0.889-1.702,2.176-2.771,3.321-2.771
		c1.86,0,2.263,2.367,2.263,2.54s-0.059,0.347-0.087,0.491 M251.811,272.424c0-0.029,0-0.318-0.375-0.318
		c-0.432,0-3.167,0.257-3.656,0.314c-0.229,0.028-0.402,0.171-0.402,0.543c0,0.343,0.259,0.343,0.69,0.343
		c1.382,0,1.44,0.201,1.44,0.487l-0.088,0.573l-1.727,6.793c-0.518-1.071-1.353-1.854-2.648-1.854c-3.368,0-6.938,4.22-6.938,8.409
		c0,2.696,1.585,4.591,3.829,4.591c0.576,0,2.015-0.114,3.743-2.136c0.229,1.195,1.237,2.136,2.62,2.136
		c1.008,0,1.67-0.657,2.13-1.572c0.489-1.029,0.864-2.772,0.864-2.83c0-0.287-0.26-0.287-0.346-0.287
		c-0.288,0-0.316,0.116-0.402,0.52c-0.489,1.872-1.009,3.571-2.188,3.571c-0.777,0-0.864-0.746-0.864-1.32
		c0-0.689,0.059-0.889,0.174-1.377L251.811,272.424z"/>
	<path clip-path="url(#SVGID_2_)" d="M261.488,283.311c0.172-0.75,0.832-3.405,2.841-3.405c0.144,0,0.832,0,1.435,0.401
		c-0.792,0.146-1.357,0.876-1.357,1.577c0,0.467,0.312,1.021,1.073,1.021c0.621,0,1.526-0.521,1.526-1.684
		c0-1.509-1.649-1.916-2.6-1.916c-1.673,0-2.681,1.534-3.027,2.198c-0.72-1.908-2.276-2.198-3.111-2.198
		c-2.997,0-4.641,3.716-4.641,4.436c0,0.288,0.287,0.288,0.346,0.288c0.229,0,0.315-0.058,0.373-0.318
		c0.976-3.078,2.87-3.805,3.846-3.805c0.544,0,1.548,0.262,1.548,1.935c0,0.894-0.487,2.827-1.548,6.864
		c-0.46,1.789-1.464,3-2.727,3c-0.172,0-0.832,0-1.436-0.398c0.732-0.146,1.377-0.759,1.377-1.577c0-0.789-0.622-1.022-1.046-1.022
		c-0.847,0-1.554,0.754-1.554,1.684c0,1.334,1.427,1.915,2.682,1.915c1.885,0,2.911-1.993,2.996-2.164
		c0.343,1.054,1.37,2.164,3.082,2.164c2.939,0,4.568-3.688,4.568-4.402c0-0.287-0.258-0.287-0.344-0.287
		c-0.258,0-0.315,0.116-0.373,0.317c-0.946,3.081-2.897,3.771-3.815,3.771c-1.119,0-1.578-0.923-1.578-1.903
		c0-0.634,0.172-1.27,0.488-2.538"/>
	<path clip-path="url(#SVGID_2_)" d="M278.405,276.45h-0.68c-0.06,0.443-0.259,1.632-0.519,1.834
		c-0.16,0.121-1.697,0.121-1.977,0.121h-3.672c2.096-1.862,2.794-2.424,3.99-3.364c1.478-1.183,2.855-2.425,2.855-4.328
		c0-2.424-2.111-3.906-4.658-3.906c-2.469,0-4.142,1.74-4.142,3.58c0,1.02,0.853,1.12,1.05,1.12c0.477,0,1.051-0.337,1.051-1.05
		c0-0.357-0.142-1.051-1.191-1.051c0.623-1.449,1.99-1.898,2.934-1.898c2.01,0,3.057,1.566,3.057,3.19
		c0,1.745-1.241,3.129-1.881,3.853l-4.819,4.773c-0.2,0.182-0.2,0.221-0.2,0.782h8.202"/>
</g>
<g>
	<defs>
		
			<rect id="SVGID_3_" x="245.105" y="111.106" transform="matrix(-0.9877 -0.1567 0.1567 -0.9877 579.9796 294.7267)" width="113" height="26.8"/>
	</defs>
	<clipPath id="SVGID_4_">
		<use xlink:href="#SVGID_3_"  overflow="visible"/>
	</clipPath>
	<path clip-path="url(#SVGID_4_)" d="M252.715,125.948c-0.223,0.49-0.231,0.546-0.732,0.963c-1.492,1.369-2.725,1.642-3.517,1.516
		c-1.414-0.224-1.562-1.853-1.385-2.964c0.226-1.424,1.687-4.786,2.546-5.993c1.143-1.542,2.583-2.396,3.714-2.217
		c1.838,0.292,1.864,2.692,1.837,2.863c-0.027,0.17-0.113,0.333-0.163,0.472 M261.141,110.916c0.004-0.029,0.05-0.314-0.321-0.373
		c-0.427-0.068-3.168-0.243-3.66-0.262c-0.231-0.008-0.425,0.105-0.483,0.473c-0.054,0.338,0.203,0.379,0.629,0.447
		c1.365,0.216,1.391,0.424,1.346,0.707l-0.176,0.553l-2.77,6.438c-0.344-1.139-1.045-2.042-2.325-2.246
		c-3.326-0.527-7.514,3.081-8.17,7.218c-0.423,2.663,0.845,4.782,3.062,5.134c0.567,0.09,2.007,0.203,4.031-1.523
		c0.039,1.216,0.888,2.303,2.252,2.52c0.996,0.158,1.752-0.387,2.351-1.219c0.644-0.94,1.287-2.603,1.297-2.66
		c0.045-0.283-0.211-0.324-0.296-0.337c-0.284-0.045-0.332,0.065-0.479,0.45c-0.775,1.772-1.555,3.37-2.721,3.185
		c-0.768-0.122-0.736-0.872-0.646-1.439c0.108-0.681,0.196-0.869,0.387-1.333L261.141,110.916z"/>
	<path clip-path="url(#SVGID_4_)" d="M268.992,123.185c0.288-0.714,1.355-3.233,3.34-2.918c0.142,0.022,0.821,0.13,1.353,0.621
		c-0.804,0.02-1.477,0.652-1.587,1.345c-0.072,0.461,0.148,1.058,0.9,1.177c0.613,0.097,1.588-0.276,1.771-1.424
		c0.236-1.49-1.328-2.15-2.267-2.299c-1.652-0.262-2.888,1.095-3.334,1.697c-0.412-1.998-1.904-2.528-2.729-2.659
		c-2.96-0.47-5.166,2.943-5.278,3.654c-0.045,0.285,0.238,0.33,0.296,0.338c0.226,0.036,0.32-0.007,0.418-0.256
		c1.446-2.887,3.432-3.308,4.394-3.155c0.538,0.085,1.489,0.501,1.227,2.153c-0.14,0.883-0.924,2.716-2.604,6.537
		c-0.734,1.695-1.915,2.733-3.163,2.536c-0.17-0.027-0.822-0.13-1.354-0.618c0.745-0.03,1.479-0.534,1.607-1.342
		c0.123-0.779-0.455-1.107-0.873-1.173c-0.837-0.133-1.652,0.501-1.799,1.419c-0.209,1.318,1.109,2.115,2.349,2.312
		c1.86,0.295,3.188-1.512,3.299-1.667c0.173,1.094,1.014,2.352,2.704,2.62c2.902,0.46,5.091-2.927,5.203-3.632
		c0.045-0.284-0.211-0.324-0.296-0.337c-0.254-0.041-0.329,0.065-0.418,0.255c-1.417,2.895-3.452,3.271-4.359,3.127
		c-1.105-0.175-1.414-1.158-1.26-2.127c0.099-0.626,0.368-1.227,0.88-2.43"/>
	<path clip-path="url(#SVGID_4_)" d="M286.775,119.06l-0.671-0.106c-0.13,0.428-0.513,1.571-0.801,1.73
		c-0.177,0.094-1.693-0.146-1.97-0.19l-3.627-0.575c2.361-1.511,3.14-1.957,4.469-2.698c1.644-0.937,3.199-1.948,3.498-3.827
		c0.38-2.394-1.474-4.189-3.99-4.588c-2.438-0.386-4.362,1.07-4.65,2.887c-0.159,1.007,0.666,1.24,0.861,1.271
		c0.47,0.074,1.09-0.168,1.201-0.873c0.057-0.353,0.026-1.06-1.012-1.224c0.843-1.334,2.264-1.563,3.196-1.416
		c1.984,0.315,2.772,2.026,2.518,3.63c-0.273,1.724-1.715,2.896-2.461,3.51l-5.507,3.959c-0.227,0.148-0.232,0.187-0.32,0.741
		l8.101,1.285"/>
	<path clip-path="url(#SVGID_4_)" d="M301.347,120.29c-0.069-0.301-0.164-0.609-0.533-0.667c-0.254-0.041-0.476,0.072-0.708,0.442
		l-9.595,14.871c-0.224,0.313-0.232,0.37-0.246,0.454c-0.049,0.312,0.165,0.608,0.478,0.657c0.198,0.032,0.434,0.012,0.708-0.438
		l9.047-13.991l4.277,16.075c0.092,0.334,0.165,0.607,0.533,0.665c0.312,0.05,0.608-0.165,0.657-0.477
		c0.014-0.085,0.022-0.141-0.094-0.508"/>
	<path clip-path="url(#SVGID_4_)" d="M323.135,137.119c-0.224,0.49-0.232,0.546-0.733,0.963c-1.492,1.369-2.725,1.642-3.517,1.516
		c-1.414-0.224-1.561-1.854-1.385-2.964c0.227-1.425,1.688-4.786,2.546-5.993c1.145-1.542,2.583-2.396,3.715-2.217
		c1.837,0.292,1.863,2.692,1.836,2.863c-0.026,0.17-0.111,0.333-0.162,0.471 M331.56,122.087c0.005-0.029,0.05-0.314-0.32-0.373
		c-0.427-0.068-3.169-0.243-3.661-0.262c-0.23-0.008-0.424,0.105-0.482,0.473c-0.054,0.338,0.202,0.379,0.629,0.447
		c1.364,0.216,1.391,0.424,1.346,0.707l-0.177,0.552l-2.77,6.438c-0.343-1.139-1.045-2.042-2.325-2.246
		c-3.326-0.528-7.514,3.081-8.17,7.218c-0.423,2.663,0.846,4.783,3.062,5.134c0.569,0.09,2.008,0.203,4.031-1.523
		c0.04,1.216,0.888,2.303,2.254,2.52c0.995,0.158,1.752-0.387,2.35-1.219c0.645-0.94,1.288-2.603,1.297-2.66
		c0.045-0.284-0.212-0.325-0.297-0.338c-0.284-0.045-0.33,0.065-0.479,0.45c-0.776,1.772-1.556,3.369-2.721,3.184
		c-0.768-0.122-0.737-0.872-0.646-1.439c0.107-0.681,0.196-0.869,0.387-1.333L331.56,122.087z"/>
	<path clip-path="url(#SVGID_4_)" d="M339.412,134.355c0.287-0.714,1.355-3.233,3.339-2.918c0.142,0.022,0.822,0.13,1.354,0.621
		c-0.806,0.02-1.479,0.652-1.588,1.345c-0.073,0.461,0.147,1.058,0.899,1.177c0.614,0.097,1.59-0.276,1.771-1.424
		c0.236-1.49-1.329-2.15-2.268-2.299c-1.651-0.262-2.888,1.095-3.334,1.697c-0.412-1.998-1.903-2.528-2.729-2.659
		c-2.96-0.47-5.165,2.943-5.278,3.654c-0.045,0.284,0.238,0.33,0.297,0.338c0.226,0.036,0.32-0.007,0.418-0.256
		c1.445-2.887,3.431-3.308,4.395-3.155c0.537,0.085,1.487,0.501,1.226,2.153c-0.141,0.882-0.925,2.716-2.604,6.537
		c-0.734,1.695-1.916,2.733-3.163,2.536c-0.17-0.027-0.821-0.13-1.355-0.619c0.747-0.03,1.479-0.534,1.607-1.342
		c0.124-0.779-0.454-1.107-0.873-1.174c-0.836-0.132-1.652,0.501-1.798,1.419c-0.209,1.318,1.108,2.115,2.349,2.312
		c1.861,0.295,3.188-1.512,3.298-1.668c0.174,1.095,1.014,2.352,2.705,2.621c2.903,0.46,5.09-2.927,5.201-3.632
		c0.045-0.284-0.209-0.324-0.294-0.337c-0.255-0.041-0.33,0.065-0.419,0.255c-1.417,2.895-3.452,3.271-4.358,3.127
		c-1.105-0.175-1.414-1.159-1.261-2.127c0.1-0.626,0.368-1.227,0.88-2.43"/>
	<path clip-path="url(#SVGID_4_)" d="M353.124,126.501c1.553,0.247,2.499,1.501,2.161,3.633c-0.393,2.472-1.941,2.983-3.097,2.8
		c-0.796-0.126-2.511-0.637-3.148-2.018c0.941,0.109,1.263-0.503,1.328-0.914c0.099-0.626-0.307-1.152-0.923-1.25
		c-0.558-0.088-1.169,0.164-1.299,0.98c-0.298,1.874,1.566,3.417,3.961,3.796c2.75,0.436,4.941-1.103,5.255-3.08
		c0.245-1.543-0.778-3.287-2.883-4.087c2.198-0.421,3.185-1.786,3.376-2.992c0.248-1.562-1.367-3.017-3.565-3.366
		s-4.048,0.441-4.295,2.003c-0.105,0.664,0.279,1.106,0.883,1.202c0.624,0.099,1.101-0.301,1.19-0.864
		c0.092-0.583-0.246-1.072-0.87-1.212c0.823-0.679,2.229-0.658,2.966-0.542c0.896,0.143,2.083,0.771,1.814,2.463
		c-0.129,0.818-0.549,1.668-1.164,2.189c-0.774,0.635-1.338,0.585-2.343,0.486c-0.505-0.041-0.546-0.047-0.648-0.042
		c-0.039-0.006-0.206,0.013-0.245,0.254c-0.048,0.307,0.132,0.335,0.47,0.389"/>
</g>
<g>
	<defs>
		
			<rect id="SVGID_5_" x="68.106" y="125.105" transform="matrix(-0.9566 0.2914 -0.2914 -0.9566 283.188 234.8311)" width="112" height="26.8"/>
	</defs>
	<clipPath id="SVGID_6_">
		<use xlink:href="#SVGID_5_"  overflow="visible"/>
	</clipPath>
	<path clip-path="url(#SVGID_6_)" d="M81.256,161.056c0.014,0.538,0.031,0.593-0.237,1.188c-0.742,1.884-1.731,2.668-2.498,2.901
		c-1.37,0.418-2.215-0.983-2.542-2.06c-0.42-1.379-0.578-5.041-0.334-6.502c0.354-1.887,1.273-3.285,2.369-3.619
		c1.78-0.542,2.855,1.605,2.905,1.77c0.05,0.166,0.044,0.349,0.06,0.495 M82.252,143.853c-0.008-0.028-0.093-0.305-0.452-0.195
		c-0.413,0.126-2.955,1.168-3.406,1.366c-0.212,0.094-0.335,0.281-0.227,0.637c0.1,0.328,0.348,0.252,0.761,0.126
		c1.322-0.402,1.436-0.227,1.52,0.047l0.083,0.574l0.328,7.001c-0.808-0.874-1.834-1.378-3.074-1.001
		c-3.223,0.981-5.408,6.058-4.187,10.066c0.786,2.579,2.854,3.931,5.001,3.276c0.551-0.168,1.894-0.697,2.958-3.134
		c0.568,1.076,1.806,1.682,3.128,1.279c0.965-0.294,1.406-1.115,1.58-2.125c0.168-1.127,0.019-2.904,0.002-2.959
		c-0.084-0.274-0.332-0.199-0.414-0.174c-0.275,0.084-0.269,0.203-0.234,0.614c0.078,1.934,0.076,3.71-1.052,4.054
		c-0.744,0.227-1.044-0.462-1.211-1.011c-0.201-0.66-0.204-0.867-0.235-1.368L82.252,143.853z"/>
	<path clip-path="url(#SVGID_6_)" d="M94.683,151.447c-0.054-0.768-0.196-3.5,1.725-4.085c0.138-0.042,0.796-0.242,1.489-0.034
		c-0.715,0.37-1.042,1.233-0.838,1.904c0.136,0.447,0.595,0.887,1.324,0.665c0.594-0.181,1.308-0.944,0.969-2.055
		c-0.439-1.443-2.136-1.353-3.044-1.076c-1.601,0.488-2.118,2.249-2.255,2.985c-1.245-1.616-2.819-1.439-3.617-1.196
		c-2.867,0.874-3.356,4.907-3.146,5.596c0.084,0.275,0.359,0.192,0.415,0.175c0.219-0.067,0.285-0.147,0.264-0.413
		c0.037-3.229,1.637-4.476,2.57-4.76c0.521-0.159,1.558-0.201,2.045,1.399c0.26,0.855,0.357,2.847,0.519,7.018
		c0.083,1.845-0.525,3.296-1.733,3.664c-0.165,0.05-0.796,0.242-1.489,0.037c0.657-0.354,1.096-1.127,0.857-1.91
		c-0.23-0.755-0.893-0.797-1.298-0.673c-0.811,0.247-1.267,1.174-0.996,2.063c0.389,1.275,1.923,1.416,3.123,1.05
		c1.803-0.549,2.204-2.755,2.235-2.943c0.635,0.908,1.941,1.671,3.579,1.172c2.812-0.856,3.295-4.859,3.087-5.542
		c-0.083-0.274-0.331-0.199-0.413-0.174c-0.247,0.075-0.269,0.203-0.265,0.413c-0.008,3.223-1.673,4.452-2.551,4.719
		c-1.07,0.326-1.778-0.423-2.063-1.36c-0.185-0.606-0.206-1.265-0.273-2.57"/>
	<path clip-path="url(#SVGID_6_)" d="M103.574,138.383c1.504-0.458,2.904,0.256,3.533,2.321c0.729,2.394-0.44,3.532-1.559,3.872
		c-0.771,0.235-2.537,0.527-3.714-0.437c0.895-0.313,0.916-1.004,0.794-1.402c-0.185-0.606-0.781-0.902-1.377-0.72
		c-0.54,0.165-0.979,0.659-0.739,1.45c0.553,1.815,2.904,2.386,5.223,1.68c2.664-0.812,3.961-3.154,3.377-5.069
		c-0.456-1.495-2.139-2.614-4.382-2.413c1.792-1.341,2.083-3,1.727-4.168c-0.461-1.513-2.551-2.114-4.68-1.465
		s-3.446,2.168-2.985,3.681c0.196,0.643,0.735,0.873,1.321,0.694c0.604-0.184,0.858-0.752,0.691-1.298
		c-0.172-0.565-0.69-0.856-1.313-0.709c0.443-0.97,1.716-1.567,2.43-1.785c0.868-0.265,2.211-0.219,2.71,1.42
		c0.241,0.792,0.235,1.74-0.088,2.478c-0.419,0.911-0.947,1.112-1.895,1.463c-0.471,0.184-0.51,0.196-0.601,0.245
		c-0.039,0.012-0.18,0.102-0.109,0.335c0.091,0.297,0.265,0.244,0.593,0.144"/>
	<path clip-path="url(#SVGID_6_)" d="M122.506,134.683c-0.193-0.241-0.414-0.476-0.771-0.368c-0.247,0.076-0.397,0.273-0.444,0.708
		l-2.117,17.57c-0.064,0.38-0.047,0.434-0.022,0.516c0.092,0.303,0.414,0.474,0.717,0.382c0.192-0.059,0.395-0.179,0.445-0.704
		l2.011-16.539l10.882,12.581c0.228,0.26,0.414,0.473,0.771,0.364c0.302-0.092,0.474-0.414,0.382-0.717
		c-0.025-0.082-0.042-0.136-0.307-0.416"/>
	<path clip-path="url(#SVGID_6_)" d="M149.462,140.277c0.014,0.538,0.03,0.593-0.238,1.187c-0.742,1.884-1.731,2.668-2.498,2.902
		c-1.37,0.417-2.215-0.983-2.542-2.059c-0.42-1.38-0.579-5.042-0.334-6.502c0.354-1.887,1.274-3.285,2.37-3.619
		c1.78-0.542,2.854,1.605,2.905,1.771s0.045,0.349,0.06,0.495 M150.458,123.074c-0.009-0.028-0.093-0.304-0.452-0.195
		c-0.413,0.125-2.955,1.168-3.406,1.366c-0.211,0.094-0.335,0.281-0.227,0.637c0.1,0.328,0.347,0.252,0.76,0.126
		c1.322-0.403,1.437-0.227,1.52,0.046l0.083,0.574l0.328,7.001c-0.807-0.874-1.834-1.379-3.073-1.001
		c-3.222,0.981-5.408,6.059-4.187,10.066c0.786,2.58,2.854,3.93,5.001,3.276c0.551-0.168,1.894-0.696,2.958-3.134
		c0.568,1.076,1.806,1.682,3.129,1.279c0.964-0.293,1.406-1.115,1.58-2.125c0.168-1.127,0.019-2.904,0.002-2.959
		c-0.084-0.274-0.333-0.199-0.415-0.174c-0.275,0.084-0.269,0.204-0.233,0.614c0.078,1.934,0.076,3.71-1.053,4.054
		c-0.744,0.227-1.044-0.462-1.211-1.011c-0.201-0.66-0.203-0.867-0.235-1.368L150.458,123.074z"/>
	<path clip-path="url(#SVGID_6_)" d="M162.888,130.668c-0.054-0.768-0.196-3.5,1.725-4.085c0.137-0.042,0.796-0.243,1.489-0.034
		c-0.715,0.37-1.043,1.233-0.839,1.904c0.136,0.447,0.596,0.886,1.324,0.665c0.594-0.181,1.308-0.944,0.97-2.056
		c-0.44-1.443-2.136-1.352-3.045-1.075c-1.6,0.488-2.117,2.249-2.255,2.985c-1.245-1.616-2.818-1.439-3.617-1.196
		c-2.867,0.874-3.356,4.907-3.146,5.595c0.084,0.276,0.358,0.192,0.415,0.175c0.219-0.066,0.285-0.147,0.264-0.413
		c0.036-3.229,1.637-4.476,2.57-4.76c0.521-0.159,1.557-0.201,2.044,1.399c0.261,0.855,0.358,2.847,0.52,7.018
		c0.082,1.845-0.526,3.296-1.734,3.665c-0.165,0.05-0.796,0.242-1.489,0.037c0.658-0.354,1.096-1.127,0.857-1.91
		c-0.23-0.755-0.893-0.797-1.298-0.673c-0.81,0.247-1.267,1.174-0.996,2.063c0.389,1.276,1.923,1.416,3.123,1.05
		c1.803-0.549,2.204-2.755,2.235-2.943c0.635,0.908,1.941,1.671,3.579,1.172c2.812-0.856,3.295-4.859,3.087-5.542
		c-0.083-0.274-0.33-0.199-0.413-0.174c-0.247,0.075-0.268,0.203-0.264,0.412c-0.007,3.223-1.673,4.452-2.551,4.72
		c-1.07,0.326-1.778-0.423-2.064-1.361c-0.185-0.606-0.206-1.264-0.272-2.57"/>
	<path clip-path="url(#SVGID_6_)" d="M171.173,111.479c-0.158-0.518-0.201-0.527-0.736-0.364c-0.848,1.596-2.581,2.144-3.363,2.382
		l0.204,0.67c0.461-0.14,1.729-0.526,2.612-1.412l2.991,9.818c0.193,0.635,0.27,0.885-1.651,1.47l-0.73,0.223l0.204,0.67
		c0.342-0.125,2.686-0.902,3.397-1.119c0.596-0.182,3.034-0.861,3.462-0.971l-0.204-0.67l-0.737,0.225
		c-1.941,0.591-2.017,0.342-2.21-0.292"/>
</g>
</svg>
