<?xml version="1.0" encoding="utf-8"?>
<!-- Generator: Adobe Illustrator 14.0.0, SVG Export Plug-In . SVG Version: 6.00 Build 43363)  -->
<!DOCTYPE svg PUBLIC "-//W3C//DTD SVG 1.1//EN" "http://www.w3.org/Graphics/SVG/1.1/DTD/svg11.dtd">
<svg version="1.1" id="Layer_1" xmlns="http://www.w3.org/2000/svg" xmlns:xlink="http://www.w3.org/1999/xlink" x="0px" y="0px"
	 width="300.333px" height="348px" viewBox="0 0 300.333 348" enable-background="new 0 0 300.333 348" xml:space="preserve">
<linearGradient id="SVGID_1_" gradientUnits="userSpaceOnUse" x1="286.9131" y1="209.46" x2="139.9405" y2="319.2078">
	<stop  offset="0" style="stop-color:#FFFFFF"/>
	<stop  offset="1" style="stop-color:#000000"/>
</linearGradient>
<polygon opacity="0.5" fill="url(#SVGID_1_)" points="214.654,335.835 291,169 210.544,194.068 224.5,225.031 "/>
<polygon opacity="0.8" fill="#BABACC" enable-background="new    " points="135.236,35.991 214.654,335.835 225.189,224.812 "/>
<polygon opacity="0.8" fill="#E3DEEF" enable-background="new    " points="135.236,36.801 213.844,335.025 10.436,256.417 "/>
<line fill="none" stroke="#010101" stroke-width="0.6994" stroke-linejoin="round" stroke-dasharray="4.6626" x1="10.436" y1="256.417" x2="226" y2="224.812"/>
<g>
	<g>
		
			<line fill="none" stroke="#010101" stroke-width="1.7127" stroke-linecap="round" stroke-linejoin="round" x1="142.871" y1="201.173" x2="145.771" y2="260.469"/>
		<polygon fill="#010101" points="142.457,192.718 147.908,204.395 142.902,201.805 138.174,204.87 		"/>
	</g>
</g>
<polygon fill="none" stroke="#010101" stroke-width="1.7127" stroke-linecap="round" stroke-linejoin="round" points="
	134.426,35.991 9.625,256.417 214.654,335.835 225.189,224.812 "/>
<polyline fill="none" stroke="#010101" stroke-width="1.6208" points="145.231,251.555 154.415,253.716 154.686,262.9 "/>
<line fill="none" stroke="#010101" stroke-width="1.7127" stroke-linecap="round" stroke-linejoin="round" x1="134.426" y1="35.18" x2="214.654" y2="335.025"/>
<circle fill="#010101" cx="134.481" cy="34.467" r="4.208"/>
<g>
	<g>
		<defs>
			<rect id="SVGID_2_" x="114.315" y="10.321" width="20" height="24"/>
		</defs>
		<clipPath id="SVGID_3_">
			<use xlink:href="#SVGID_2_"  overflow="visible"/>
		</clipPath>
		<path clip-path="url(#SVGID_3_)" fill="#010101" d="M124.242,15.503c0.252-0.97,1.223-1.977,1.866-2.516
			c1.256-1.114,2.297-1.366,2.907-1.366c1.436,0,2.297,1.258,2.297,3.379c0,2.12-1.186,6.253-1.83,7.618
			c-1.221,2.516-2.943,3.701-4.271,3.701c-2.369,0-2.836-2.983-2.836-3.198c0-0.071,0-0.144,0.107-0.575 M117.933,31.144
			c-0.287,1.225-0.359,1.477-1.939,1.477c-0.431,0-0.825,0-0.825,0.675c0,0.284,0.18,0.427,0.467,0.427
			c0.971,0,2.012-0.107,3.017-0.107c1.185,0,2.406,0.107,3.556,0.107c0.18,0,0.646,0,0.646-0.71c0-0.392-0.359-0.392-0.862-0.392
			c-1.796,0-1.796-0.253-1.796-0.578c0-0.433,1.509-6.318,1.761-7.223c0.467,1.042,1.473,2.3,3.305,2.3
			c4.164,0,8.656-5.252,8.656-10.539c0-3.381-2.05-5.759-4.777-5.759c-1.797,0-3.521,1.313-4.704,2.737
			c-0.359-1.971-1.903-2.737-3.231-2.737c-1.652,0-2.335,1.411-2.656,2.062c-0.646,1.229-1.113,3.397-1.113,3.506
			c0,0.36,0.357,0.36,0.431,0.36c0.359,0,0.396-0.036,0.611-0.83c0.61-2.563,1.329-4.298,2.62-4.298c0.609,0,1.113,0.291,1.113,1.66
			c0,0.828-0.107,1.225-0.252,1.837L117.933,31.144z"/>
	</g>
</g>
<g>
	<defs>
		<rect id="SVGID_4_" x="107.236" y="184.302" width="31" height="25"/>
	</defs>
	<clipPath id="SVGID_5_">
		<use xlink:href="#SVGID_4_"  overflow="visible"/>
	</clipPath>
	<path clip-path="url(#SVGID_5_)" d="M133.551,188.162c0.358-1.437,1.004-2.548,3.873-2.66c0.18,0,0.609-0.035,0.609-0.709
		c0-0.036,0-0.392-0.466-0.392c-1.185,0-2.438,0.107-3.623,0.107c-1.219,0-2.476-0.107-3.658-0.107c-0.215,0-0.645,0-0.645,0.711
		c0,0.39,0.358,0.39,0.645,0.39c2.045,0.039,2.439,0.793,2.439,1.582c0,0.107-0.072,0.646-0.108,0.754l-4.017,15.971l-7.927-18.721
		c-0.286-0.646-0.322-0.687-1.147-0.687h-4.806c-0.717,0-1.04,0-1.04,0.711c0,0.39,0.323,0.39,1.004,0.39
		c0.179,0,2.438,0,2.438,0.323l-4.806,19.283c-0.359,1.437-0.968,2.586-3.873,2.693c-0.215,0-0.61,0.036-0.61,0.71
		c0,0.248,0.18,0.39,0.467,0.39c1.147,0,2.402-0.106,3.587-0.106c1.22,0,2.511,0.106,3.693,0.106c0.179,0,0.646,0,0.646-0.71
		c0-0.354-0.323-0.391-0.718-0.391c-2.08-0.072-2.367-0.861-2.367-1.579c0-0.251,0.036-0.43,0.144-0.825l4.734-18.946
		c0.144,0.215,0.144,0.287,0.323,0.645l8.93,21.125c0.251,0.609,0.359,0.681,0.681,0.681c0.396,0,0.396-0.106,0.574-0.754"/>
</g>
<g>
	<defs>
		<rect id="SVGID_6_" x="153.312" y="259" width="26" height="27"/>
	</defs>
	<clipPath id="SVGID_7_">
		<use xlink:href="#SVGID_6_"  overflow="visible"/>
	</clipPath>
	<path clip-path="url(#SVGID_7_)" d="M163.536,275.799l7.065-11.832l1.148,11.832 M159.232,281.083
		c-1.435,2.406-2.833,2.909-4.411,3.016c-0.43,0.036-0.753,0.036-0.753,0.71c0,0.213,0.18,0.391,0.466,0.391
		c0.968,0,2.08-0.107,3.084-0.107c1.185,0,2.439,0.107,3.587,0.107c0.215,0,0.682,0,0.682-0.674c0-0.391-0.323-0.427-0.574-0.427
		c-0.825-0.071-1.686-0.359-1.686-1.26c0-0.432,0.215-0.828,0.502-1.332c0.251-0.432,0.287-0.432,2.726-4.608h9.002
		c0.072,0.757,0.574,5.652,0.574,6.012c0,1.08-1.865,1.188-2.582,1.188c-0.502,0-0.861,0-0.861,0.71
		c0,0.391,0.431,0.391,0.502,0.391c1.472,0,3.013-0.107,4.483-0.107c0.896,0,3.156,0.107,4.053,0.107c0.215,0,0.646,0,0.646-0.71
		c0-0.392-0.359-0.392-0.825-0.392c-2.224,0-2.224-0.251-2.331-1.293l-2.188-22.442c-0.07-0.719-0.07-0.863-0.681-0.863
		c-0.574,0-0.717,0.253-0.932,0.612L159.232,281.083z"/>
</g>
</svg>
