<?xml version="1.0" encoding="utf-8"?>
<!-- Generator: Adobe Illustrator 14.0.0, SVG Export Plug-In . SVG Version: 6.00 Build 43363)  -->
<!DOCTYPE svg PUBLIC "-//W3C//DTD SVG 1.1//EN" "http://www.w3.org/Graphics/SVG/1.1/DTD/svg11.dtd">
<svg version="1.1" id="Layer_1" xmlns="http://www.w3.org/2000/svg" xmlns:xlink="http://www.w3.org/1999/xlink" x="0px" y="0px"
	 width="269px" height="240px" viewBox="0 0 269 240" enable-background="new 0 0 269 240" xml:space="preserve">
<polygon fill="none" stroke="#000000" stroke-width="1.7127" points="71.185,229.646 7.632,119.569 71.185,9.494 198.288,9.494 
	261.841,119.569 198.288,229.646 "/>
<polygon opacity="0.2" fill="#1B1F8A" points="71.185,229.646 7.632,119.569 71.185,9.494 198.288,9.494 261.841,119.569 
	198.288,229.646 "/>
<line fill="none" stroke="#000000" stroke-width="0.8564" x1="71.185" y1="9.494" x2="198.288" y2="229.646"/>
<line fill="none" stroke="#000000" stroke-width="0.8564" x1="71.185" y1="229.646" x2="198.288" y2="9.494"/>
<line fill="none" stroke="#000000" stroke-width="0.8564" x1="7.632" y1="119.569" x2="261.841" y2="119.569"/>
<circle cx="134.736" cy="119.119" r="4.386"/>
<g>
	<defs>
		<rect id="SVGID_1_" x="125" y="144" width="20" height="26"/>
	</defs>
	<clipPath id="SVGID_2_">
		<use xlink:href="#SVGID_1_"  overflow="visible"/>
	</clipPath>
	<path clip-path="url(#SVGID_2_)" d="M133.885,155.599c-0.316,1.323-0.919,3.768-2.009,5.837c-1.004,1.955-2.093,3.363-3.327,3.363
		c-0.945,0-1.549-0.834-1.549-3.507c0-1.207,0.172-2.875,0.918-5.693 M128.146,154.7c0.489-1.839,1.067-4.14,2.221-6.179
		c0.779-1.409,1.847-3.021,3.145-3.021c1.414,0,1.588,1.841,1.588,3.479c0,1.408-0.231,2.875-0.924,5.721L128.146,154.7z
		 M137,150.77c0-1.889-0.52-5.868-3.458-5.868c-4.005,0-8.44,8.073-8.44,14.63c0,2.69,0.834,5.869,3.456,5.869
		C132.621,165.4,137,157.183,137,150.77z"/>
	<path clip-path="url(#SVGID_2_)" d="M139.775,167.048c-0.078,0.261-0.176,0.502-0.176,0.845c0,0.943,0.791,1.706,1.881,1.706
		c1.979,0,2.85-2.77,2.85-3.07c0-0.261-0.261-0.261-0.321-0.261c-0.28,0-0.301,0.118-0.381,0.336
		c-0.461,1.584-1.343,2.396-2.125,2.396c-0.401,0-0.502-0.261-0.502-0.703c0-0.462,0.136-0.844,0.312-1.286
		c0.193-0.542,0.407-1.085,0.62-1.606c0.175-0.482,0.873-2.312,0.951-2.553c0.059-0.2,0.116-0.441,0.116-0.643
		c0-0.945-0.793-1.709-1.882-1.709c-1.962,0-2.873,2.768-2.873,3.112c0,0.264,0.281,0.264,0.341,0.264
		c0.281,0,0.301-0.1,0.362-0.322c0.521-1.729,1.405-2.454,2.148-2.454c0.321,0,0.503,0.162,0.503,0.705
		c0,0.463-0.115,0.764-0.599,2.01 M143.807,156.876c0-0.327-0.24-0.777-0.804-0.777c-0.542,0-1.125,0.531-1.125,1.124
		c0,0.349,0.261,0.777,0.804,0.777C143.264,158,143.807,157.428,143.807,156.876z"/>
</g>
<g>
	<defs>
		<rect id="SVGID_3_" x="99" y="197" width="30" height="25"/>
	</defs>
	<clipPath id="SVGID_4_">
		<use xlink:href="#SVGID_3_"  overflow="visible"/>
	</clipPath>
	<path clip-path="url(#SVGID_4_)" d="M120.491,200.523c0.287-1.146,0.803-2.035,3.099-2.125c0.143,0,0.488-0.028,0.488-0.579
		c0-0.029,0-0.32-0.373-0.32c-0.946,0-1.951,0.086-2.898,0.086c-0.976,0-1.979-0.086-2.927-0.086c-0.172,0-0.516,0-0.516,0.58
		c0,0.319,0.287,0.319,0.516,0.319c1.635,0.028,1.951,0.632,1.951,1.262c0,0.086-0.058,0.516-0.086,0.602l-3.214,12.762
		l-6.342-14.977c-0.229-0.516-0.259-0.549-0.918-0.549h-3.845c-0.573,0-0.832,0-0.832,0.58c0,0.318,0.259,0.318,0.804,0.318
		c0.144,0,1.951,0,1.951,0.26l-3.845,15.393c-0.287,1.146-0.774,2.064-3.099,2.15c-0.172,0-0.487,0.029-0.487,0.58
		c0,0.203,0.144,0.318,0.373,0.318c0.918,0,1.922-0.086,2.869-0.086c0.975,0,2.008,0.086,2.955,0.086c0.144,0,0.516,0,0.516-0.58
		c0-0.289-0.258-0.318-0.574-0.318c-1.663-0.057-1.893-0.688-1.893-1.262c0-0.201,0.029-0.345,0.114-0.659l3.788-15.142
		c0.114,0.172,0.114,0.23,0.258,0.517l7.145,16.899c0.201,0.488,0.287,0.545,0.545,0.545c0.316,0,0.316-0.086,0.459-0.602"/>
	<path clip-path="url(#SVGID_4_)" d="M124.375,219.048c-0.078,0.261-0.175,0.502-0.175,0.845c0,0.943,0.791,1.706,1.88,1.706
		c1.979,0,2.85-2.77,2.85-3.07c0-0.261-0.261-0.261-0.32-0.261c-0.281,0-0.302,0.118-0.381,0.336
		c-0.461,1.584-1.344,2.396-2.125,2.396c-0.401,0-0.502-0.261-0.502-0.703c0-0.462,0.136-0.844,0.311-1.286
		c0.193-0.542,0.408-1.085,0.621-1.606c0.175-0.482,0.873-2.312,0.951-2.553c0.058-0.2,0.115-0.441,0.115-0.643
		c0-0.945-0.793-1.709-1.882-1.709c-1.962,0-2.873,2.768-2.873,3.112c0,0.264,0.281,0.264,0.341,0.264
		c0.281,0,0.302-0.1,0.362-0.322c0.522-1.729,1.406-2.454,2.149-2.454c0.32,0,0.503,0.162,0.503,0.705
		c0,0.463-0.116,0.764-0.599,2.01 M128.407,208.876c0-0.327-0.241-0.777-0.804-0.777c-0.543,0-1.125,0.531-1.125,1.124
		c0,0.349,0.261,0.777,0.804,0.777C127.864,210,128.407,209.428,128.407,208.876z"/>
</g>
<g>
	<circle cx="134.736" cy="191.569" r="3.07"/>
	<circle fill="none" stroke="#000000" cx="134.736" cy="191.569" r="8.764"/>
</g>
<path fill="none" stroke="#000000" d="M124.023,138.132c3.071,1.674,6.594,2.625,10.339,2.625c3.977,0,7.703-1.072,10.905-2.945"/>
</svg>
