<?xml version="1.0" encoding="utf-8"?>
<!-- Generator: Adobe Illustrator 14.0.0, SVG Export Plug-In . SVG Version: 6.00 Build 43363)  -->
<!DOCTYPE svg PUBLIC "-//W3C//DTD SVG 1.1//EN" "http://www.w3.org/Graphics/SVG/1.1/DTD/svg11.dtd">
<svg version="1.1" id="Layer_1" xmlns="http://www.w3.org/2000/svg" xmlns:xlink="http://www.w3.org/1999/xlink" x="0px" y="0px"
	 width="353px" height="222px" viewBox="0 0 353 222" enable-background="new 0 0 353 222" xml:space="preserve">
<g>
	<linearGradient id="SVGID_1_" gradientUnits="userSpaceOnUse" x1="283.1152" y1="94.8579" x2="26.4488" y2="182.8581">
		<stop  offset="0" style="stop-color:#FFFFFF"/>
		<stop  offset="1" style="stop-color:#000000"/>
	</linearGradient>
	<path opacity="0.4" fill="url(#SVGID_1_)" d="M161.494,205.113c-79.699,7.596-147.129-15.844-150.609-52.354
		c-3.479-36.51,58.31-72.264,138.009-79.858c79.699-7.596,147.128,15.844,150.607,52.354
		C302.98,161.763,241.191,197.519,161.494,205.113z M331.25,112.632c-1.621-32.661-63.402-56.138-137.994-52.438
		c-74.594,3.699-133.752,33.175-132.13,65.836c1.62,32.662,63.403,56.139,137.996,52.44
		C273.715,174.77,332.871,145.293,331.25,112.632z"/>
	<path opacity="0.2" fill="#1B1F8A" enable-background="new    " d="M335.404,54.713l-4.084,57.212l0.459-6.104
		c-1.457-31.582-61.912-54.452-135.029-51.081C123.629,58.11,65.536,86.445,66.992,118.027l0.409,3.501l-9.244-53.903
		c-1.187-25.49,59.914-49.046,136.474-52.611C271.189,11.448,334.217,29.222,335.404,54.713z"/>
	
		<ellipse transform="matrix(0.9989 -0.0465 0.0465 0.9989 -2.6327 9.2204)" fill="none" stroke="#000000" stroke-width="1.7127" cx="196.772" cy="61.169" rx="138.775" ry="46.205"/>
	<path fill="none" stroke="#000000" stroke-width="1.7127" d="M66.983,118.027c1.456,31.582,61.911,54.452,135.031,51.082
		c73.119-3.371,131.213-31.706,129.758-63.289"/>
	<path fill="none" stroke="#000000" stroke-width="1.7127" d="M315.598,80.082C292.66,62.821,247.785,52.386,196.74,54.739
		c-51.175,2.359-94.991,16.947-116.181,36.318"/>
	<path fill="none" stroke="#000000" stroke-width="0.8564" stroke-dasharray="5.709" d="M80.559,91.058
		c-9.087,8.306-14.013,17.491-13.576,26.97"/>
	<path fill="none" stroke="#000000" stroke-width="0.8564" stroke-dasharray="5.709" d="M331.771,105.82
		c-0.439-9.534-6.256-18.274-16.174-25.738"/>
	<line fill="none" stroke="#231F20" stroke-width="1.0105" x1="58.148" y1="67.625" x2="67.392" y2="121.528"/>
	<line fill="none" stroke="#231F20" stroke-width="1.0105" x1="335.396" y1="54.713" x2="331.311" y2="111.925"/>
	<g>
		<path fill="none" stroke="#000000" stroke-width="0.8564" d="M62.806,94.621c0.262,4.809,2.246,9.369,5.724,13.607
			c17.098,20.842,70.302,33.919,132.414,30.539c61.486-3.347,112.545-21.78,127.859-44.053c3.303-4.802,4.943-9.781,4.668-14.826"/>
		<path fill="none" stroke="#000000" stroke-width="0.8564" d="M329.639,68.841c-14.713-22.32-69.689-36.616-134.305-33.099
			c-63.738,3.47-116.272,23.15-129.399,46.515"/>
		<line fill="none" stroke="#000000" stroke-width="0.8564" x1="271.033" y1="97.157" x2="269.449" y2="157.923"/>
		<line fill="none" stroke="#000000" stroke-width="0.8564" x1="117.125" y1="102.326" x2="124.734" y2="162.052"/>
		<line fill="none" stroke="#000000" stroke-width="0.8564" x1="107.709" y1="29.411" x2="113.537" y2="71.515"/>
		<line fill="none" stroke="#000000" stroke-width="0.8564" x1="197.803" y1="14.559" x2="199.129" y2="54.41"/>
		<line fill="none" stroke="#000000" stroke-width="0.8564" x1="287.305" y1="22.394" x2="285.584" y2="65.203"/>
	</g>
	<path opacity="0.2" fill="#1B1F8A" enable-background="new    " d="M66.975,117.877c1.455,31.582,61.91,54.452,135.031,51.082
		c73.117-3.371,131.211-31.706,129.756-63.289l-0.459,6.104l4.084-57.212c1.188,25.491-59.914,49.046-136.473,52.612
		c-76.56,3.565-139.586-14.208-140.773-39.699l9.243,53.903L66.975,117.877z"/>
</g>
</svg>
