<?xml version="1.0" encoding="utf-8"?>
<!-- Generator: Adobe Illustrator 14.0.0, SVG Export Plug-In . SVG Version: 6.00 Build 43363)  -->
<!DOCTYPE svg PUBLIC "-//W3C//DTD SVG 1.1//EN" "http://www.w3.org/Graphics/SVG/1.1/DTD/svg11.dtd">
<svg version="1.1" id="Layer_1" xmlns="http://www.w3.org/2000/svg" xmlns:xlink="http://www.w3.org/1999/xlink" x="0px" y="0px"
	 width="614px" height="207px" viewBox="0 0 614 207" enable-background="new 0 0 614 207" xml:space="preserve">
<g>
	<linearGradient id="SVGID_1_" gradientUnits="userSpaceOnUse" x1="470.7031" y1="87.6396" x2="440.2119" y2="177.6231">
		<stop  offset="0" style="stop-color:#FFFFFF"/>
		<stop  offset="1" style="stop-color:#000000"/>
	</linearGradient>
	<path opacity="0.5" fill-rule="evenodd" clip-rule="evenodd" fill="url(#SVGID_1_)" d="M454.751,76.738
		c12.638-0.249,28.775-0.697,38.431,2.262c7.419,2.274,15.552,8.622,22.606,14.469c12.999,10.773,26.083,23.215,36.624,37.528
		c8.715,11.832,18.95,35.973,8.591,52.9c-5.815,9.496-20.262,16.199-36.625,13.109c-20.322-3.834-35.685-17.107-51.543-27.58
		c-11.295-7.459-26.25-17.521-41.144-21.248c-24.502-6.133-54.007-0.18-79.125-2.264c-7.802-0.645-17.092-2.104-19.441-8.137
		c-4.146-10.652,9.088-23.395,15.372-28.938C373.968,86.381,407.547,77.675,454.751,76.738z"/>
	<path opacity="0.2" fill="#1B1F8A" enable-background="new    " d="M339.165,97.476c3.268,6.896,6.736,9.217,16.375,11.262
		l5.387,1.062c3.066,0.564,6.1,1.076,8.839,1.711c7.767,1.801,16.158,5.762,22.5,8.4c3.351,1.395,7.013,2.902,10.8,4.5
		c10.928,4.611,23.271,9.824,33.9,11.699c13.149,2.322,26.838,1.754,39-0.299c3.947-0.666,8.923-2.281,12.3-1.801l1.129-0.039
		c16.534,10.912,31.757,23.439,49.707,31.756c14.61,6.768,32.287,10.117,44.878-0.508c5.639-4.758,12.729-17.346,15.645-30.162
		c6.064-26.658,4.184-64.446-2.884-89.69c-3.358-11.999-9.948-25.472-16.024-30.702c-6.812-5.863-16.092-6.371-25.115-3.861
		c-21.876,6.082-41.721,24.695-65.132,29.541c-25.161,5.208-53.947-2.676-79.461,1.255c-25.569,3.939-56.156,17.938-68.913,41.253
		C339.268,88.024,338.235,92.583,339.165,97.476"/>
	<path fill-rule="evenodd" clip-rule="evenodd" fill="none" stroke="#000000" stroke-width="0.8564" d="M423.924,111.057
		c-15.235-9.945-28.108-23.337-41.338-36.369c-5.425-5.345-9.815-9.865-15.734-15.772"/>
	<path fill-rule="evenodd" clip-rule="evenodd" fill="none" stroke="#000000" stroke-width="0.8564" d="M602.007,107
		c-22.086-4.428-47.121-7.319-70.095-2.999c-21.104,3.969-37.708,16.963-59.066,20.112"/>
	<path fill-rule="evenodd" clip-rule="evenodd" fill="none" stroke="#000000" stroke-width="0.8564" d="M596.008,45.807
		c-22.694,2.188-48.915,10.688-70.066,22.837c-18.863,10.834-36.259,28.268-59.421,25.156c-7.571-1.018-15.521-4.795-22.332-9.102
		c-17.23-10.895-30.335-25.009-45.721-40.001"/>
	<path fill-rule="evenodd" clip-rule="evenodd" fill="none" stroke="#000000" stroke-width="0.8564" d="M500.069,140.896
		c28.36-5.072,32.502-44.037,34.373-70.621c1.095-15.562,1.903-35.349,1.798-49.815"/>
	<path fill-rule="evenodd" clip-rule="evenodd" fill="none" stroke="#000000" stroke-width="0.8564" d="M464.046,137.08
		c-1.359,0.139-2.834-0.441-4.398-2.148c-3.585-3.908-7.873-14.621-10.496-20.008"/>
	<path fill-rule="evenodd" clip-rule="evenodd" fill="none" stroke="#000000" stroke-width="0.8564" d="M499.345,38.533
		c-2.195,10.84-4.977,24.056-7.799,35.9c-3.983,16.715-10.364,36.963-17.313,50.413"/>
	<path fill-rule="evenodd" clip-rule="evenodd" fill="none" stroke="#000000" stroke-width="0.8564" d="M405.66,125.533
		c-5.352-2.58-8.26-9.803-12.412-14.725"/>
	<path fill-rule="evenodd" clip-rule="evenodd" fill="none" stroke="#000000" stroke-width="0.8564" d="M464.55,43.033
		c-5.343,15.812-18.783,44.287-32.799,60.931c-1.529,1.816-3.539,4.429-5.773,7.23"/>
	<path fill-rule="evenodd" clip-rule="evenodd" fill="none" stroke="#000000" stroke-width="1.7127" d="M339.165,97.476
		c3.268,6.896,6.736,9.217,16.375,11.262c12.66,2.688,26.658,1.861,40.168,1.861c18.082,0,35.789-0.412,53.682,4.293
		c35.709,9.391,58.621,36.432,89.712,50.836c14.61,6.768,32.287,10.117,44.878-0.508c5.639-4.758,12.729-17.346,15.645-30.162
		c6.064-26.658,4.184-64.446-2.884-89.69c-3.358-11.999-9.948-25.472-16.024-30.702c-6.812-5.863-16.092-6.371-25.115-3.861
		c-21.876,6.082-41.721,24.695-65.132,29.541c-25.161,5.208-53.947-2.676-79.461,1.255c-25.569,3.939-56.156,17.938-68.913,41.253
		C339.268,88.024,338.235,92.583,339.165,97.476"/>
	<path fill-rule="evenodd" clip-rule="evenodd" fill="none" stroke="#000000" stroke-width="0.8564" d="M381.894,110.711
		c-13.003-8.42-25.588-17.672-39.519-27.319"/>
	<path fill-rule="evenodd" clip-rule="evenodd" fill="none" stroke="#000000" stroke-width="0.8564" d="M590.084,157.143
		c-30.744-15.473-56.479-26.986-88.358-25.23c-3.939,0.217-8.297,0.91-12.404,1.658"/>
	<path fill="none" stroke="#000000" stroke-width="1.7127" d="M489.266,134.012c-3.377-0.48-9.353,1.135-13.3,1.801
		c-12.162,2.053-25.851,2.621-39,0.299c-10.629-1.875-22.973-7.088-33.9-11.699c-3.787-1.598-7.449-3.105-10.8-4.5
		c-6.342-2.639-19.733-7.94-27.5-9.741"/>
	<path fill="none" stroke="#000000" stroke-width="1.7127" d="M339.165,97.476"/>
	<path opacity="0.3" enable-background="new    " d="M488.266,134.012c-3.377-0.48-8.353,1.135-12.3,1.801
		c-12.162,2.053-25.851,2.621-39,0.299c-10.629-1.875-22.973-7.088-33.9-11.699c-3.787-1.598-7.449-3.105-10.8-4.5
		c-6.342-2.639-14.733-6.6-22.5-8.4l-5.309-1.424c10.15,1.002,20.846,0.512,31.251,0.512c18.082,0,35.789-0.412,53.682,4.293
		c14.772,3.885,27.355,10.791,39.233,18.572"/>
</g>
<g>
	<linearGradient id="SVGID_2_" gradientUnits="userSpaceOnUse" x1="150.7017" y1="80.3848" x2="120.2104" y2="170.3686">
		<stop  offset="0" style="stop-color:#FFFFFF"/>
		<stop  offset="1" style="stop-color:#000000"/>
	</linearGradient>
	<path opacity="0.5" fill-rule="evenodd" clip-rule="evenodd" fill="url(#SVGID_2_)" d="M134.751,69.483
		c12.638-0.249,28.775-0.697,38.431,2.262c7.419,2.274,15.552,8.622,22.606,14.469c12.999,10.773,26.083,23.216,36.624,37.528
		c8.715,11.832,18.95,35.972,8.591,52.899c-5.815,9.497-20.262,16.199-36.625,13.11c-20.322-3.834-35.685-17.108-51.543-27.58
		c-11.295-7.46-26.25-17.522-41.144-21.249c-24.502-6.133-54.007-0.18-79.125-2.263c-7.802-0.646-17.092-2.104-19.441-8.138
		c-4.146-10.651,9.088-23.395,15.372-28.937C53.968,79.127,87.547,70.421,134.751,69.483z"/>
	<path fill-rule="evenodd" clip-rule="evenodd" fill="none" stroke="#000000" stroke-width="0.8564" d="M184.29,30.295
		c8.861-0.315,17.585-0.361,26.082,0.274c22.32,1.67,43.96,7.699,66.537,14.997"/>
	<path fill-rule="evenodd" clip-rule="evenodd" fill="none" stroke="#000000" stroke-width="0.8564" d="M47.889,58.465
		c35.616-17.191,66.864-25.828,102.386-20.981c47.838,6.526,92.647,39.683,132.77,69.665"/>
	<path fill-rule="evenodd" clip-rule="evenodd" fill="none" stroke="#000000" stroke-width="0.8564" d="M23.292,83.062
		c0.075-0.001,0.151-0.002,0.228-0.003c34.306-16.029,69.533-24.506,105.562-17.693c1.603,0.303,3.187,0.592,4.799,0.899
		c55.405,10.567,97.19,52.239,137.345,91.098"/>
	<path fill-rule="evenodd" clip-rule="evenodd" fill="none" stroke="#000000" stroke-width="0.8564" d="M181.446,140.729
		c13.515-31.93,34.717-70.519,36.897-106.69c0.29-4.812,0.541-9.543-0.901-13.744"/>
	<path fill-rule="evenodd" clip-rule="evenodd" fill="none" stroke="#000000" stroke-width="0.8564" d="M130.753,114.407
		c1.621-10.851,3.109-23.601,5.4-35.674c3.858-20.328,10.588-46.872,27.427-47.858"/>
	<path fill-rule="evenodd" clip-rule="evenodd" fill="none" stroke="#000000" stroke-width="0.8564" d="M74.06,109.908
		C74.2,82.46,75.163,48.93,100.967,37.232"/>
	<path opacity="0.2" fill-rule="evenodd" clip-rule="evenodd" fill="#1B1F8A" enable-background="new    " d="M244.468,9.271
		c18.48-1.287,26.617,16.146,31.5,30.899c8.013,24.212,12.009,79.137,0.6,107.7c-2.038,5.104-5.266,9.89-8.7,13.8
		c-2.989,3.404-3.981,3.885-8.1,6.3c-3.515,2.062-8.938,4.34-14.4,4.5c-6.552,0.193-13.465-1.975-19.5-4.199
		c-16.509-6.087-30.739-17.38-44.399-26.4c-17.942-11.849-38.527-25.807-64.5-29.7c-21.127-3.167-47.317-0.014-70.5-2.1
		c-9.261-0.833-17.653-2.47-22.801-6.601c-3.087-2.477-5.014-6.7-3.899-12.899c1.333-7.413,6.834-13.464,11.399-18.601
		c13.255-14.911,36.657-25.367,57-32.1c15.113-5.002,31.598-8.414,50.7-9c19.218-0.59,39.049,1.365,56.7-2.1
		c9.354-1.837,16.01-6.644,23.4-10.5C226.204,14.494,234.332,9.977,244.468,9.271z"/>
	<path fill-rule="evenodd" clip-rule="evenodd" fill="none" stroke="#000000" stroke-width="1.7127" d="M244.468,9.271
		c18.48-1.287,26.617,16.146,31.5,30.899c8.013,24.212,12.009,79.137,0.6,107.7c-2.038,5.104-5.266,9.89-8.7,13.8
		c-2.989,3.404-3.981,3.885-8.1,6.3c-3.515,2.062-8.938,4.34-14.4,4.5c-6.552,0.193-13.465-1.975-19.5-4.199
		c-16.509-6.087-30.739-17.38-44.399-26.4c-17.942-11.849-38.527-25.807-64.5-29.7c-21.127-3.167-47.317-0.014-70.5-2.1
		c-9.261-0.833-17.653-2.47-22.801-6.601c-3.087-2.477-5.014-6.7-3.899-12.899c1.333-7.413,6.834-13.464,11.399-18.601
		c13.255-14.911,36.657-25.367,57-32.1c15.113-5.002,31.598-8.414,50.7-9c19.218-0.59,39.049,1.365,56.7-2.1
		c9.354-1.837,16.01-6.644,23.4-10.5C226.204,14.494,234.332,9.977,244.468,9.271z"/>
	<path fill-rule="evenodd" clip-rule="evenodd" fill="none" stroke="#000000" stroke-width="0.8564" stroke-dasharray="5.709" d="
		M236.502,11.164c-9.369,2.604-18.366,7.508-27.43,12.645c-12.099,6.856-24.317,14.127-37.701,16.896
		c-25.161,5.209-53.947-2.676-79.462,1.256c-9.483,1.461-19.657,4.306-29.355,8.497c-16.45,7.108-31.532,18.089-39.557,32.756"/>
	<path opacity="0.3" fill-rule="evenodd" clip-rule="evenodd" enable-background="new    " d="M209.072,23.809
		c-12.099,6.856-24.317,14.127-37.701,16.896c-25.161,5.209-53.947-2.676-79.462,1.256c-9.483,1.461-19.657,4.306-29.355,8.497
		l-0.156-0.322c8.493-4.087,17.391-7.492,25.77-10.265c15.113-5.002,31.598-8.414,50.7-9c19.218-0.59,39.049,1.365,56.7-2.1
		c5.108-1.004,9.412-2.893,13.471-5.028L209.072,23.809z"/>
</g>
</svg>
