<?xml version="1.0" encoding="utf-8"?>
<!-- Generator: Adobe Illustrator 14.0.0, SVG Export Plug-In . SVG Version: 6.00 Build 43363)  -->
<!DOCTYPE svg PUBLIC "-//W3C//DTD SVG 1.1//EN" "http://www.w3.org/Graphics/SVG/1.1/DTD/svg11.dtd">
<svg version="1.1" id="Layer_1" xmlns="http://www.w3.org/2000/svg" xmlns:xlink="http://www.w3.org/1999/xlink" x="0px" y="0px"
	 width="563.972px" height="308.985px" viewBox="0 0 563.972 308.985" enable-background="new 0 0 563.972 308.985"
	 xml:space="preserve">
<g>
	<g opacity="0.3">
		<g>
			<linearGradient id="SVGID_1_" gradientUnits="userSpaceOnUse" x1="183.5771" y1="110.5732" x2="76.2437" y2="253.9063">
				<stop  offset="0" style="stop-color:#FFFFFF"/>
				<stop  offset="1" style="stop-color:#000000"/>
			</linearGradient>
			<path fill-rule="evenodd" clip-rule="evenodd" fill="url(#SVGID_1_)" d="M172.504,92.866
				c17.894,13.694,31.575,31.602,40.353,54.413c9.802,19.447,14.556,53.538,7.948,80.093c-6.132,25.457-19.612,43.567-39.741,55.024
				c-20.838,12.401-57.358,6.843-74.59-4.889c-7.371-5.267-14.614-10.658-21.398-16.51c-39.181-10.749-67.751-32.11-70.921-78.869
				c1.941-31.684,16.49-50.764,34.85-66.03c18.341-15.285,46.669-27.92,72.144-28.735C146.623,86.548,158.358,88.467,172.504,92.866
				z"/>
		</g>
	</g>
	<polygon opacity="0.15" fill="#1B1F8A" points="203.063,43.65 207.242,54.876 210.896,66.363 213.768,77.066 216.64,88.553 
		219.511,99.778 221.339,110.482 223.427,121.447 224.994,131.89 226.038,142.854 226.821,153.296 227.604,164.522 227.604,174.704 
		227.344,185.408 226.821,195.589 225.777,205.508 224.211,215.69 222.122,225.088 219.512,234.749 216.379,242.841 
		212.463,250.933 207.764,258.765 202.282,265.553 196.799,270.775 189.751,275.212 182.18,278.084 173.564,279.39 163.644,278.607 
		153.724,275.474 142.759,269.992 130.75,261.637 118.48,250.15 105.949,235.009 40.684,214.646 16.927,182.013 22.932,147.553 
		45.905,117.009 78.277,91.425 116.131,71.062 158.162,54.875 	"/>
	<polygon opacity="0.15" fill="#1B1F8A" points="203.063,43.65 207.242,54.876 210.896,66.363 213.768,77.066 216.64,88.553 
		219.511,99.778 221.339,110.482 223.427,121.447 224.994,131.89 226.038,142.854 226.821,153.296 227.604,164.522 227.604,174.704 
		227.344,185.408 226.821,195.589 225.777,205.508 224.211,215.69 222.122,225.088 219.512,234.749 216.379,242.841 
		212.463,250.933 207.764,258.765 202.282,265.553 196.799,270.775 189.751,275.212 182.18,278.084 173.564,279.39 163.644,278.607 
		153.724,275.474 142.759,269.992 130.75,261.637 118.48,250.15 105.949,235.009 	"/>
	<polygon fill="none" stroke="#000000" stroke-width="1.7127" points="203.063,43.65 207.242,54.876 210.896,66.363 213.768,77.066 
		216.64,88.553 219.511,99.778 221.339,110.482 223.427,121.447 224.994,131.89 226.038,142.854 226.821,153.296 227.604,164.522 
		227.604,174.704 227.344,185.408 226.821,195.589 225.777,205.508 224.211,215.69 222.122,225.088 219.512,234.749 
		216.379,242.841 212.463,250.933 207.764,258.765 202.282,265.553 196.799,270.775 189.751,275.212 182.18,278.084 173.564,279.39 
		163.644,278.607 153.724,275.474 142.759,269.992 130.75,261.637 118.48,250.15 105.949,235.009 40.684,214.646 16.927,182.013 
		22.932,147.553 45.905,117.009 78.277,91.425 116.131,71.062 158.162,54.875 	"/>
	<line fill="none" stroke="#000000" stroke-width="0.8564" x1="172.521" y1="103.956" x2="203.063" y2="43.65"/>
	<line fill="none" stroke="#000000" stroke-width="0.8564" x1="172.521" y1="103.956" x2="207.242" y2="54.876"/>
	<line fill="none" stroke="#000000" stroke-width="0.8564" x1="172.521" y1="103.956" x2="210.896" y2="66.363"/>
	<line fill="none" stroke="#000000" stroke-width="0.8564" x1="172.521" y1="103.956" x2="213.768" y2="77.066"/>
	<line fill="none" stroke="#000000" stroke-width="0.8564" x1="172.521" y1="103.956" x2="216.64" y2="88.553"/>
	<line fill="none" stroke="#000000" stroke-width="0.8564" x1="172.521" y1="103.956" x2="219.511" y2="99.778"/>
	<line fill="none" stroke="#000000" stroke-width="0.8564" x1="172.521" y1="103.956" x2="221.339" y2="110.482"/>
	<line fill="none" stroke="#000000" stroke-width="0.8564" x1="172.521" y1="103.956" x2="223.427" y2="121.447"/>
	<line fill="none" stroke="#000000" stroke-width="0.8564" x1="172.521" y1="103.956" x2="224.994" y2="131.89"/>
	<line fill="none" stroke="#000000" stroke-width="0.8564" x1="172.521" y1="103.956" x2="226.038" y2="142.854"/>
	<line fill="none" stroke="#000000" stroke-width="0.8564" x1="172.521" y1="103.956" x2="226.821" y2="153.296"/>
	<line fill="none" stroke="#000000" stroke-width="0.8564" x1="172.521" y1="103.956" x2="227.604" y2="164.522"/>
	<line fill="none" stroke="#000000" stroke-width="0.8564" x1="172.521" y1="103.956" x2="227.604" y2="174.704"/>
	<line fill="none" stroke="#000000" stroke-width="0.8564" x1="172.521" y1="103.956" x2="227.344" y2="185.408"/>
	<line fill="none" stroke="#000000" stroke-width="0.8564" x1="172.521" y1="103.956" x2="226.821" y2="195.589"/>
	<line fill="none" stroke="#000000" stroke-width="0.8564" x1="172.521" y1="103.956" x2="225.777" y2="205.508"/>
	<line fill="none" stroke="#000000" stroke-width="0.8564" x1="172.521" y1="103.956" x2="224.211" y2="215.69"/>
	<line fill="none" stroke="#000000" stroke-width="0.8564" x1="172.521" y1="103.956" x2="222.122" y2="225.088"/>
	<line fill="none" stroke="#000000" stroke-width="0.8564" x1="172.521" y1="103.956" x2="219.512" y2="234.749"/>
	<line fill="none" stroke="#000000" stroke-width="0.8564" x1="172.521" y1="103.956" x2="216.379" y2="242.841"/>
	<line fill="none" stroke="#000000" stroke-width="0.8564" x1="172.521" y1="103.956" x2="212.463" y2="250.933"/>
	<line fill="none" stroke="#000000" stroke-width="0.8564" x1="172.521" y1="103.956" x2="207.764" y2="258.765"/>
	<line fill="none" stroke="#000000" stroke-width="0.8564" x1="172.521" y1="103.956" x2="202.282" y2="265.553"/>
	<line fill="none" stroke="#000000" stroke-width="0.8564" x1="172.521" y1="103.956" x2="196.799" y2="270.775"/>
	<line fill="none" stroke="#000000" stroke-width="0.8564" x1="172.521" y1="103.956" x2="189.751" y2="275.212"/>
	<line fill="none" stroke="#000000" stroke-width="0.8564" x1="172.521" y1="103.956" x2="182.18" y2="278.084"/>
	<line fill="none" stroke="#000000" stroke-width="0.8564" x1="172.521" y1="103.956" x2="173.564" y2="279.39"/>
	<line fill="none" stroke="#000000" stroke-width="0.8564" x1="172.521" y1="103.956" x2="163.644" y2="278.607"/>
	<line fill="none" stroke="#000000" stroke-width="0.8564" x1="172.521" y1="103.956" x2="153.724" y2="275.474"/>
	<line fill="none" stroke="#000000" stroke-width="0.8564" x1="172.521" y1="103.956" x2="142.759" y2="269.992"/>
	<line fill="none" stroke="#000000" stroke-width="0.8564" x1="172.521" y1="103.956" x2="130.75" y2="261.637"/>
	<line fill="none" stroke="#000000" stroke-width="0.8564" x1="172.521" y1="103.956" x2="118.48" y2="250.15"/>
	<line fill="none" stroke="#000000" stroke-width="0.8564" x1="172.521" y1="103.956" x2="105.949" y2="235.009"/>
	<line fill="none" stroke="#000000" stroke-width="0.8564" x1="172.521" y1="103.956" x2="40.684" y2="214.646"/>
	<line fill="none" stroke="#000000" stroke-width="0.8564" x1="172.521" y1="103.956" x2="16.927" y2="182.013"/>
	<line fill="none" stroke="#000000" stroke-width="0.8564" x1="172.521" y1="103.956" x2="22.932" y2="147.553"/>
	<line fill="none" stroke="#000000" stroke-width="0.8564" x1="172.521" y1="103.956" x2="45.905" y2="117.009"/>
	<line fill="none" stroke="#000000" stroke-width="0.8564" x1="172.521" y1="103.956" x2="78.277" y2="91.425"/>
	<line fill="none" stroke="#000000" stroke-width="0.8564" x1="172.521" y1="103.956" x2="116.131" y2="71.062"/>
	<line fill="none" stroke="#000000" stroke-width="0.8564" x1="172.521" y1="103.956" x2="158.162" y2="54.875"/>
	<circle cx="172.521" cy="103.956" r="4.386"/>
	<g>
		<g>
			<line fill="#FFFFFF" x1="172.521" y1="103.956" x2="243.896" y2="85.401"/>
			<polygon fill="#FFFFFF" points="246.629,84.69 243.186,87.265 243.691,85.454 242.368,84.118 			"/>
		</g>
		<g>
			<line fill="none" stroke="#000000" stroke-width="3" x1="172.521" y1="103.956" x2="243.896" y2="85.401"/>
			<polygon points="252.096,83.269 241.767,90.994 243.282,85.56 239.313,81.553 			"/>
		</g>
	</g>
	<g>
		<defs>
			<rect id="SVGID_2_" x="232.896" y="54.401" width="40" height="25"/>
		</defs>
		<clipPath id="SVGID_3_">
			<use xlink:href="#SVGID_2_"  overflow="visible"/>
		</clipPath>
		<path clip-path="url(#SVGID_3_)" d="M254.387,57.924c0.287-1.146,0.803-2.035,3.099-2.125c0.143,0,0.488-0.028,0.488-0.579
			c0-0.029,0-0.32-0.373-0.32c-0.946,0-1.951,0.086-2.898,0.086c-0.976,0-1.98-0.086-2.927-0.086c-0.172,0-0.516,0-0.516,0.58
			c0,0.319,0.287,0.319,0.516,0.319c1.635,0.028,1.951,0.632,1.951,1.262c0,0.086-0.057,0.516-0.086,0.602l-3.214,12.762
			l-6.341-14.977c-0.23-0.516-0.259-0.549-0.918-0.549h-3.845c-0.574,0-0.832,0-0.832,0.58c0,0.318,0.258,0.318,0.804,0.318
			c0.143,0,1.951,0,1.951,0.26L237.4,71.45c-0.287,1.146-0.775,2.064-3.099,2.15c-0.172,0-0.487,0.029-0.487,0.58
			c0,0.203,0.143,0.318,0.373,0.318c0.918,0,1.922-0.086,2.869-0.086c0.975,0,2.008,0.086,2.955,0.086c0.144,0,0.516,0,0.516-0.58
			c0-0.289-0.258-0.318-0.574-0.318c-1.664-0.057-1.893-0.688-1.893-1.262c0-0.201,0.029-0.345,0.114-0.659l3.789-15.142
			c0.115,0.172,0.115,0.23,0.258,0.517l7.145,16.899c0.201,0.488,0.287,0.545,0.545,0.545c0.316,0,0.316-0.086,0.459-0.602"/>
		<path clip-path="url(#SVGID_3_)" d="M269.887,67.268c0.202-0.783,0.523-1.426,2.136-1.467c0.101,0,0.404-0.02,0.404-0.429
			c0-0.116-0.103-0.271-0.304-0.271c-0.643,0-1.407,0.08-2.071,0.08c-0.663,0-1.508-0.08-2.111-0.08c-0.1,0-0.402,0-0.402,0.428
			c0,0.253,0.261,0.272,0.442,0.272c0.945,0.021,1.287,0.323,1.287,0.826c0,0.101-0.02,0.201-0.04,0.282
			c-0.302,1.309-1.769,7.365-2.03,7.989c-1.125,2.576-3.478,3.602-5.127,3.602c-1.347,0-2.775-0.684-2.775-2.677
			c0-0.483,0.061-0.966,0.182-1.429l1.954-7.748c0.181-0.684,0.221-0.848,1.773-0.848c0.343,0,0.605,0,0.605-0.428
			c0-0.078-0.06-0.271-0.321-0.271c-0.583,0-2.049,0.08-2.631,0.08c-0.341,0-1.045,0-1.386-0.021c-0.402-0.02-0.884-0.06-1.265-0.06
			c-0.12,0-0.422,0-0.422,0.428c0,0.271,0.241,0.271,0.643,0.271c0.02,0,0.402,0,0.763,0.041c0.422,0.041,0.462,0.08,0.462,0.281
			c0,0.121-0.223,0.904-0.357,1.347l-0.445,1.768c-0.344,1.386-0.87,3.517-1.153,4.601c-0.202,0.823-0.202,0.984-0.202,1.387
			c0,2.49,2.055,3.978,4.473,3.978c2.78,0,5.48-2.25,6.145-4.882"/>
	</g>
</g>
<g opacity="0.3">
	<g>
		<linearGradient id="SVGID_4_" gradientUnits="userSpaceOnUse" x1="494.5391" y1="110.5732" x2="387.2056" y2="253.9062">
			<stop  offset="0" style="stop-color:#FFFFFF"/>
			<stop  offset="1" style="stop-color:#000000"/>
		</linearGradient>
		<path fill-rule="evenodd" clip-rule="evenodd" fill="url(#SVGID_4_)" d="M483.466,92.866
			c17.894,13.694,31.574,31.602,40.352,54.413c9.803,19.447,14.557,53.538,7.949,80.093c-6.133,25.457-19.612,43.567-39.741,55.024
			c-20.839,12.401-57.358,6.843-74.591-4.889c-7.37-5.267-14.613-10.658-21.398-16.51c-39.18-10.749-67.75-32.11-70.921-78.869
			c1.941-31.684,16.489-50.764,34.85-66.03c18.341-15.285,46.669-27.92,72.144-28.735C457.584,86.548,469.319,88.467,483.466,92.866
			z"/>
	</g>
</g>
<polygon opacity="0.15" fill="#1B1F8A" points="514.985,43.65 528.562,88.553 536.916,131.89 539.525,174.704 536.133,215.69 
	524.385,250.933 501.672,275.212 465.646,275.474 417.871,235.009 397.247,232.137 379.495,227.438 364.875,221.695 
	352.605,214.646 343.207,207.075 336.419,198.983 331.72,190.628 328.849,182.013 328.065,173.398 329.11,164.783 331.46,156.168 
	334.853,147.553 339.291,139.721 345.034,131.628 350.778,124.58 357.827,117.009 365.658,110.221 373.229,103.956 381.583,97.429 
	390.198,91.425 399.075,85.942 408.733,80.721 417.871,75.761 428.053,71.062 438.495,66.102 448.677,62.447 458.857,58.531 
	470.083,54.875 480.787,51.743 492.012,48.872 503.238,46.261 "/>
<polygon opacity="0.15" fill="#1B1F8A" points="514.985,43.65 528.562,88.553 536.916,131.89 539.525,174.704 536.133,215.69 
	524.385,250.933 501.672,275.212 465.646,275.474 417.871,235.009 "/>
<polygon fill="none" stroke="#000000" stroke-width="1.7127" points="514.985,43.65 528.562,88.553 536.916,131.89 539.525,174.704 
	536.133,215.69 524.385,250.933 501.672,275.212 465.646,275.474 417.871,235.009 397.247,232.137 379.495,227.438 364.875,221.695 
	352.605,214.646 343.207,207.075 336.419,198.983 331.72,190.628 328.849,182.013 328.065,173.398 329.11,164.783 331.46,156.168 
	334.853,147.553 339.291,139.721 345.034,131.628 350.778,124.58 357.827,117.009 365.658,110.221 373.229,103.956 381.583,97.429 
	390.198,91.425 399.075,85.942 408.733,80.721 417.871,75.761 428.053,71.062 438.495,66.102 448.677,62.447 458.857,58.531 
	470.083,54.875 480.787,51.743 492.012,48.872 503.238,46.261 "/>
<line fill="none" stroke="#000000" stroke-width="0.8564" x1="484.442" y1="103.956" x2="514.985" y2="43.65"/>
<line fill="none" stroke="#000000" stroke-width="0.8564" x1="484.442" y1="103.956" x2="528.562" y2="88.553"/>
<line fill="none" stroke="#000000" stroke-width="0.8564" x1="484.442" y1="103.956" x2="536.916" y2="131.89"/>
<line fill="none" stroke="#000000" stroke-width="0.8564" x1="484.442" y1="103.956" x2="539.525" y2="174.704"/>
<line fill="none" stroke="#000000" stroke-width="0.8564" x1="484.442" y1="103.956" x2="536.133" y2="215.69"/>
<line fill="none" stroke="#000000" stroke-width="0.8564" x1="484.442" y1="103.956" x2="524.385" y2="250.933"/>
<line fill="none" stroke="#000000" stroke-width="0.8564" x1="484.442" y1="103.956" x2="501.672" y2="275.212"/>
<line fill="none" stroke="#000000" stroke-width="0.8564" x1="484.442" y1="103.956" x2="465.646" y2="275.474"/>
<line fill="none" stroke="#000000" stroke-width="0.8564" x1="484.442" y1="103.956" x2="417.871" y2="235.009"/>
<line fill="none" stroke="#000000" stroke-width="0.8564" x1="484.442" y1="103.956" x2="397.247" y2="232.137"/>
<line fill="none" stroke="#000000" stroke-width="0.8564" x1="484.442" y1="103.956" x2="379.495" y2="227.438"/>
<line fill="none" stroke="#000000" stroke-width="0.8564" x1="484.442" y1="103.956" x2="364.875" y2="221.695"/>
<line fill="none" stroke="#000000" stroke-width="0.8564" x1="484.442" y1="103.956" x2="352.605" y2="214.646"/>
<line fill="none" stroke="#000000" stroke-width="0.8564" x1="484.442" y1="103.956" x2="343.207" y2="207.075"/>
<line fill="none" stroke="#000000" stroke-width="0.8564" x1="484.442" y1="103.956" x2="336.419" y2="198.983"/>
<line fill="none" stroke="#000000" stroke-width="0.8564" x1="484.442" y1="103.956" x2="331.72" y2="190.628"/>
<line fill="none" stroke="#000000" stroke-width="0.8564" x1="484.442" y1="103.956" x2="328.849" y2="182.013"/>
<line fill="none" stroke="#000000" stroke-width="0.8564" x1="484.442" y1="103.956" x2="328.065" y2="173.398"/>
<line fill="none" stroke="#000000" stroke-width="0.8564" x1="484.442" y1="103.956" x2="329.11" y2="164.783"/>
<line fill="none" stroke="#000000" stroke-width="0.8564" x1="484.442" y1="103.956" x2="331.46" y2="156.168"/>
<line fill="none" stroke="#000000" stroke-width="0.8564" x1="484.442" y1="103.956" x2="334.853" y2="147.553"/>
<line fill="none" stroke="#000000" stroke-width="0.8564" x1="484.442" y1="103.956" x2="339.291" y2="139.721"/>
<line fill="none" stroke="#000000" stroke-width="0.8564" x1="484.442" y1="103.956" x2="345.034" y2="131.628"/>
<line fill="none" stroke="#000000" stroke-width="0.8564" x1="484.442" y1="103.956" x2="350.778" y2="124.58"/>
<line fill="none" stroke="#000000" stroke-width="0.8564" x1="484.442" y1="103.956" x2="357.827" y2="117.009"/>
<line fill="none" stroke="#000000" stroke-width="0.8564" x1="484.442" y1="103.956" x2="365.658" y2="110.221"/>
<line fill="none" stroke="#000000" stroke-width="0.8564" x1="484.442" y1="103.956" x2="373.229" y2="103.956"/>
<line fill="none" stroke="#000000" stroke-width="0.8564" x1="484.442" y1="103.956" x2="381.583" y2="97.429"/>
<line fill="none" stroke="#000000" stroke-width="0.8564" x1="484.442" y1="103.956" x2="390.198" y2="91.425"/>
<line fill="none" stroke="#000000" stroke-width="0.8564" x1="484.442" y1="103.956" x2="399.075" y2="85.942"/>
<line fill="none" stroke="#000000" stroke-width="0.8564" x1="484.442" y1="103.956" x2="408.733" y2="80.721"/>
<line fill="none" stroke="#000000" stroke-width="0.8564" x1="484.442" y1="103.956" x2="417.871" y2="75.761"/>
<line fill="none" stroke="#000000" stroke-width="0.8564" x1="484.442" y1="103.956" x2="428.053" y2="71.062"/>
<line fill="none" stroke="#000000" stroke-width="0.8564" x1="484.442" y1="103.956" x2="438.495" y2="66.102"/>
<line fill="none" stroke="#000000" stroke-width="0.8564" x1="484.442" y1="103.956" x2="448.677" y2="62.447"/>
<line fill="none" stroke="#000000" stroke-width="0.8564" x1="484.442" y1="103.956" x2="458.857" y2="58.531"/>
<line fill="none" stroke="#000000" stroke-width="0.8564" x1="484.442" y1="103.956" x2="470.083" y2="54.875"/>
<line fill="none" stroke="#000000" stroke-width="0.8564" x1="484.442" y1="103.956" x2="480.787" y2="51.743"/>
<line fill="none" stroke="#000000" stroke-width="0.8564" x1="484.442" y1="103.956" x2="492.012" y2="48.872"/>
<line fill="none" stroke="#000000" stroke-width="0.8564" x1="484.442" y1="103.956" x2="503.238" y2="46.261"/>
<circle cx="484.442" cy="103.956" r="4.386"/>
<g>
	<g>
		<line fill="none" stroke="#000000" stroke-width="3" x1="484.442" y1="103.956" x2="469.79" y2="40.447"/>
		<polygon points="467.886,32.191 475.322,42.729 469.933,41.064 465.817,44.921 		"/>
	</g>
</g>
<g>
	<defs>
		<rect id="SVGID_5_" x="425.495" y="14.068" width="40" height="25"/>
	</defs>
	<clipPath id="SVGID_6_">
		<use xlink:href="#SVGID_5_"  overflow="visible"/>
	</clipPath>
	<path clip-path="url(#SVGID_6_)" d="M446.986,17.591c0.287-1.146,0.803-2.035,3.099-2.125c0.143,0,0.488-0.028,0.488-0.579
		c0-0.029,0-0.32-0.373-0.32c-0.946,0-1.951,0.086-2.898,0.086c-0.976,0-1.979-0.086-2.927-0.086c-0.172,0-0.516,0-0.516,0.58
		c0,0.319,0.287,0.319,0.516,0.319c1.635,0.028,1.951,0.632,1.951,1.262c0,0.086-0.058,0.516-0.086,0.602l-3.214,12.762
		l-6.342-14.977c-0.229-0.516-0.259-0.549-0.918-0.549h-3.845c-0.573,0-0.832,0-0.832,0.58c0,0.318,0.259,0.318,0.804,0.318
		c0.144,0,1.951,0,1.951,0.26L430,31.117c-0.287,1.146-0.774,2.064-3.099,2.15c-0.172,0-0.487,0.029-0.487,0.58
		c0,0.203,0.144,0.318,0.373,0.318c0.918,0,1.922-0.086,2.869-0.086c0.975,0,2.008,0.086,2.955,0.086c0.144,0,0.516,0,0.516-0.58
		c0-0.289-0.258-0.318-0.574-0.318c-1.663-0.057-1.893-0.688-1.893-1.262c0-0.201,0.029-0.345,0.114-0.659l3.788-15.142
		c0.114,0.172,0.114,0.23,0.258,0.517l7.145,16.899c0.201,0.488,0.287,0.545,0.545,0.545c0.316,0,0.316-0.086,0.459-0.602"/>
	<path clip-path="url(#SVGID_6_)" d="M462.486,26.935c0.202-0.783,0.523-1.426,2.136-1.467c0.102,0,0.404-0.02,0.404-0.429
		c0-0.116-0.104-0.271-0.305-0.271c-0.643,0-1.406,0.08-2.07,0.08c-0.663,0-1.508-0.08-2.111-0.08c-0.1,0-0.402,0-0.402,0.428
		c0,0.253,0.262,0.272,0.442,0.272c0.945,0.021,1.287,0.323,1.287,0.826c0,0.101-0.021,0.201-0.04,0.282
		c-0.302,1.309-1.77,7.365-2.03,7.989c-1.126,2.576-3.478,3.602-5.127,3.602c-1.347,0-2.774-0.684-2.774-2.677
		c0-0.483,0.061-0.966,0.182-1.429l1.954-7.748c0.181-0.684,0.221-0.848,1.772-0.848c0.344,0,0.605,0,0.605-0.428
		c0-0.078-0.061-0.271-0.321-0.271c-0.583,0-2.049,0.08-2.631,0.08c-0.341,0-1.045,0-1.386-0.021c-0.402-0.02-0.884-0.06-1.266-0.06
		c-0.119,0-0.422,0-0.422,0.428c0,0.271,0.241,0.271,0.644,0.271c0.02,0,0.401,0,0.763,0.041c0.422,0.041,0.462,0.08,0.462,0.281
		c0,0.121-0.223,0.904-0.356,1.347l-0.445,1.768c-0.344,1.386-0.87,3.517-1.153,4.601c-0.202,0.823-0.202,0.984-0.202,1.387
		c0,2.49,2.056,3.978,4.474,3.978c2.78,0,5.479-2.25,6.145-4.882"/>
</g>
</svg>
