<?xml version="1.0" encoding="utf-8"?>
<!-- Generator: Adobe Illustrator 14.0.0, SVG Export Plug-In . SVG Version: 6.00 Build 43363)  -->
<!DOCTYPE svg PUBLIC "-//W3C//DTD SVG 1.1//EN" "http://www.w3.org/Graphics/SVG/1.1/DTD/svg11.dtd">
<svg version="1.1" id="Layer_1" xmlns="http://www.w3.org/2000/svg" xmlns:xlink="http://www.w3.org/1999/xlink" x="0px" y="0px"
	 width="544.898px" height="243.877px" viewBox="0 0 544.898 243.877" enable-background="new 0 0 544.898 243.877"
	 xml:space="preserve">
<linearGradient id="SVGID_1_" gradientUnits="userSpaceOnUse" x1="123.4248" y1="196.6094" x2="37.9215" y2="52.1038" gradientTransform="matrix(1 0 0 -1 0 243.877)">
	<stop  offset="0" style="stop-color:#BBDBF2"/>
	<stop  offset="1" style="stop-color:#505C81"/>
</linearGradient>
<polygon opacity="0.8" fill="url(#SVGID_1_)" enable-background="new    " points="120.333,45.439 17.333,160.938 56.833,225.438 
	"/>
<linearGradient id="SVGID_2_" gradientUnits="userSpaceOnUse" x1="205.5337" y1="196.6084" x2="120.0298" y2="52.1018" gradientTransform="matrix(-1 0 0 -1 322.7764 243.877)">
	<stop  offset="0" style="stop-color:#BBDBF2"/>
	<stop  offset="1" style="stop-color:#505C81"/>
</linearGradient>
<polygon opacity="0.8" fill="url(#SVGID_2_)" enable-background="new    " points="120.333,45.439 223.333,160.938 183.833,225.438 
	"/>
<linearGradient id="SVGID_3_" gradientUnits="userSpaceOnUse" x1="143.7881" y1="195.1816" x2="120.122" y2="16.8512" gradientTransform="matrix(1 0 0 -1 0 243.877)">
	<stop  offset="0" style="stop-color:#BBDBF2"/>
	<stop  offset="1" style="stop-color:#58618B"/>
</linearGradient>
<polygon opacity="0.8" fill="url(#SVGID_3_)" enable-background="new    " points="120.333,45.939 57.333,225.438 183.333,225.438 
	"/>
<polyline fill="none" stroke="#231F20" stroke-dasharray="6" points="17.948,161 120.527,120.939 223.107,161 "/>
<polyline fill="none" stroke="#231F20" stroke-width="3" points="223.107,161 183.924,225.819 57.13,225.819 17.948,161 "/>
<line fill="none" stroke="#231F20" stroke-dasharray="6" x1="120.167" y1="44.939" x2="120.167" y2="120.939"/>
<line fill="none" stroke="#231F20" stroke-width="3" x1="120.167" y1="44.939" x2="57.5" y2="225.606"/>
<line fill="none" stroke="#231F20" stroke-width="3" x1="120.167" y1="44.939" x2="17.098" y2="161.542"/>
<line fill="none" stroke="#231F20" stroke-width="3" x1="120.833" y1="44.939" x2="183.5" y2="225.606"/>
<line fill="none" stroke="#231F20" stroke-width="3" x1="120.833" y1="44.939" x2="223.976" y2="161.524"/>
<circle fill="#231F20" cx="120.5" cy="45.605" r="5.958"/>
<g enable-background="new    ">
	<path fill="#231F20" d="M127.244,18.226c0.31,0.413,0.465,0.884,0.465,1.411c0,1.396-1.38,3.841-4.141,7.336
		c-2.616,3.319-4.183,4.979-4.7,4.979c-0.155,0-0.259-0.212-0.31-0.636c-0.031-0.237-0.047-0.641-0.047-1.21
		c0-0.692-0.067-1.866-0.202-3.521s-0.264-2.88-0.388-3.676c-0.258-1.747-0.512-2.874-0.76-3.381s-0.719-0.761-1.412-0.761
		c-0.114,0-0.246,0.006-0.396,0.016c-0.15,0.011-0.323,0.026-0.52,0.047v-0.403c0.31-0.062,0.961-0.201,1.953-0.419
		c0.992-0.217,1.519-0.336,1.581-0.356l0.512-0.155c0.145-0.041,0.258,0.039,0.341,0.24c0.083,0.202,0.186,0.577,0.31,1.125
		c0.393,1.799,0.688,3.572,0.887,5.319c0.125,1.086,0.249,2.694,0.373,4.824l0.512-0.543c1.065-1.127,2.13-2.466,3.195-4.018
		c1.064-1.551,1.597-2.646,1.597-3.288c0-0.32-0.232-0.705-0.698-1.155s-0.698-0.86-0.698-1.233c0-0.341,0.117-0.62,0.349-0.837
		c0.233-0.218,0.52-0.326,0.861-0.326C126.489,17.604,126.934,17.812,127.244,18.226z"/>
</g>
<radialGradient id="SVGID_4_" cx="463.7686" cy="158.6348" r="151.4694" gradientTransform="matrix(1 0 0 -1 0 243.877)" gradientUnits="userSpaceOnUse">
	<stop  offset="0.1629" style="stop-color:#FFFFFF"/>
	<stop  offset="0.427" style="stop-color:#767676"/>
	<stop  offset="0.7022" style="stop-color:#231F20"/>
	<stop  offset="0.7658" style="stop-color:#272324"/>
	<stop  offset="0.8304" style="stop-color:#332F30"/>
	<stop  offset="0.8955" style="stop-color:#464444"/>
	<stop  offset="0.9606" style="stop-color:#616060"/>
	<stop  offset="1" style="stop-color:#757575"/>
</radialGradient>
<circle opacity="0.8" fill="url(#SVGID_4_)" enable-background="new    " cx="427.658" cy="126.375" r="97.333"/>
<circle opacity="0.2" fill="#244C9F" enable-background="new    " cx="427.658" cy="126.375" r="97.333"/>
<circle fill="none" stroke="#231F20" stroke-width="3.9282" cx="427.658" cy="126.375" r="97.333"/>
<path opacity="0.75" fill="#231F20" enable-background="new    " d="M427.701,72.485c8.976,4.524,18.102,10.072,27.062,16.583
	c8.931,6.487,17,13.426,24.058,20.536c0,0-3.848,20.375-7.306,31.021c-3.395,10.444-11.996,29.336-11.996,29.336
	c-9.982,1.64-20.701,2.526-31.859,2.528c-11.195,0-21.948-0.896-31.959-2.543c0,0-8.489-18.828-11.898-29.321
	c-3.499-10.771-7.693-30.626-7.693-30.626c7.149-7.248,15.354-14.323,24.445-20.931C409.553,82.529,427.701,72.485,427.701,72.485z"
	/>
<g>
	<g>
		<path fill="none" stroke="#231F20" stroke-width="5" d="M195.112,69.606c0,0,25.544-18.667,52.563-18.667
			s53.546,16.211,53.546,16.211"/>
		<polygon fill="#231F20" points="316.283,76.354 289.759,72.055 300.096,66.462 300.357,54.713 		"/>
	</g>
</g>
<g>
	<g>
		<line fill="none" stroke="#EB008B" stroke-width="2" x1="167.5" y1="127.938" x2="200.833" y2="105.939"/>
		<polygon fill="#EB008B" points="206.726,102.05 200.661,110.923 200.393,106.229 196.183,104.138 		"/>
	</g>
</g>
<line fill="none" stroke="#EB008B" stroke-width="2" stroke-dasharray="3" x1="147.5" y1="97.272" x2="155.093" y2="83.756"/>
<g>
	<g>
		<line fill="none" stroke="#EB008B" stroke-width="2" x1="155.093" y1="83.756" x2="164.167" y2="67.606"/>
		<polygon fill="#EB008B" points="167.625,61.45 166.295,72.116 163.908,68.066 159.208,68.134 		"/>
	</g>
</g>
<line fill="none" stroke="#EB008B" stroke-width="2" stroke-dasharray="3" x1="94.166" y1="97.272" x2="86.573" y2="83.756"/>
<g>
	<g>
		<line fill="none" stroke="#EB008B" stroke-width="2" x1="86.573" y1="83.756" x2="77.5" y2="67.606"/>
		<polygon fill="#EB008B" points="74.041,61.45 82.458,68.134 77.758,68.066 75.371,72.116 		"/>
	</g>
</g>
<g>
	<g>
		<line fill="none" stroke="#EB008B" stroke-width="2" x1="70.833" y1="127.938" x2="37.5" y2="105.939"/>
		<polygon fill="#EB008B" points="31.607,102.05 42.15,104.138 37.94,106.229 37.672,110.923 		"/>
	</g>
</g>
<g>
	<g>
		<line fill="none" stroke="#EB008B" stroke-width="2" x1="120.5" y1="153.272" x2="120.5" y2="137.938"/>
		<polygon fill="#EB008B" points="120.5,130.878 124.565,140.828 120.5,138.466 116.436,140.828 		"/>
	</g>
</g>
<path fill="none" stroke="#FFF100" stroke-width="1.5973" d="M427.701,72.485c8.976,4.524,18.102,10.072,27.062,16.583
	c8.931,6.487,17,13.426,24.058,20.536c0,0-3.848,20.375-7.306,31.021c-3.395,10.444-11.996,29.336-11.996,29.336
	c-9.982,1.64-20.701,2.526-31.859,2.528c-11.195,0-21.948-0.896-31.959-2.543c0,0-8.489-18.828-11.898-29.321
	c-3.499-10.771-7.693-30.626-7.693-30.626c7.149-7.248,15.354-14.323,24.445-20.931C409.553,82.529,427.701,72.485,427.701,72.485z"
	/>
<circle fill="#EB008B" cx="376.107" cy="109.998" r="5.089"/>
<circle fill="#EB008B" cx="395.7" cy="169.946" r="5.089"/>
<circle fill="#EB008B" cx="459.367" cy="169.946" r="5.089"/>
<circle fill="#EB008B" cx="478.367" cy="109.612" r="5.089"/>
<circle fill="#EB008B" cx="427.7" cy="72.945" r="5.089"/>
<g>
	<path fill="#231F20" d="M241.602,40.801c0.713-0.113,1.216-0.369,1.508-0.766c0.292-0.397,0.652-1.37,1.082-2.919l2.891-10.435
		c0.016-0.048-0.051-0.192-0.201-0.432c-0.15-0.239-0.302-0.411-0.457-0.517c-0.154-0.105-0.334-0.183-0.541-0.231
		c-0.207-0.048-0.497-0.097-0.87-0.146v-0.401h4.006l5.11,12.31l0.085,0.014l2.478-9.502c0.073-0.284,0.129-0.539,0.17-0.766
		s0.061-0.397,0.061-0.511c0-0.454-0.195-0.766-0.584-0.937c-0.235-0.105-0.628-0.174-1.18-0.207v-0.401h4.962v0.401
		c-0.754,0.163-1.263,0.426-1.526,0.791c-0.264,0.365-0.619,1.33-1.064,2.895l-2.973,10.642c-0.095,0.349-0.164,0.602-0.208,0.76
		s-0.144,0.549-0.302,1.174h-0.467l-5.657-13.585H247.8l-2.769,10.35c-0.049,0.187-0.099,0.41-0.152,0.669
		c-0.053,0.26-0.079,0.466-0.079,0.621c0,0.462,0.21,0.778,0.632,0.948c0.243,0.105,0.62,0.167,1.131,0.183v0.401h-4.962V40.801z"/>
</g>
<g>
	<path fill="#231F20" d="M254.659,22.29l-2.055-2.59l-3.393,2.59h-0.985l3.916-4.208h1.216l2.189,4.208H254.659z"/>
</g>
</svg>
