<?xml version="1.0" encoding="utf-8"?>
<!-- Generator: Adobe Illustrator 14.0.0, SVG Export Plug-In . SVG Version: 6.00 Build 43363)  -->
<!DOCTYPE svg PUBLIC "-//W3C//DTD SVG 1.1//EN" "http://www.w3.org/Graphics/SVG/1.1/DTD/svg11.dtd">
<svg version="1.1" id="Layer_1" xmlns="http://www.w3.org/2000/svg" xmlns:xlink="http://www.w3.org/1999/xlink" x="0px" y="0px"
	 width="125px" height="127px" viewBox="0 0 125 127" enable-background="new 0 0 125 127" xml:space="preserve">
<g>
	<g>
		<g>
			<line fill="none" stroke="#000000" stroke-width="1.7127" x1="11.183" y1="116.438" x2="111.149" y2="30.353"/>
			<polygon points="118.48,24.04 111.784,37.156 110.602,30.824 104.516,28.716 			"/>
		</g>
	</g>
	<circle cx="11.183" cy="116.437" r="3.562"/>
</g>
<g>
	<defs>
		<rect id="SVGID_1_" x="94.6" y="6.4" width="12.801" height="13.6"/>
	</defs>
	<clipPath id="SVGID_2_">
		<use xlink:href="#SVGID_1_"  overflow="visible"/>
	</clipPath>
	<path clip-path="url(#SVGID_2_)" d="M107.321,8.817c0-1.553-0.761-2.017-1.288-2.017c-0.73,0-1.434,0.75-1.434,1.383
		c0,0.374,0.147,0.547,0.473,0.863c0.619,0.576,1.003,1.323,1.003,2.358c0,1.208-1.751,7.794-5.109,7.794
		c-1.464,0-2.124-1.006-2.124-2.502c0-1.611,0.771-3.711,1.656-6.098c0.199-0.489,0.343-0.892,0.343-1.438
		c0-1.294-0.917-2.361-2.349-2.361c-2.691,0-3.778,4.194-3.778,4.455c0,0.288,0.283,0.288,0.34,0.288
		c0.283,0,0.312-0.057,0.453-0.52c0.823-2.918,2.042-3.583,2.864-3.583c0.228,0,0.709,0,0.709,0.923
		c0,0.719-0.281,1.496-0.478,2.013c-1.237,3.336-1.602,4.659-1.602,5.896c0,3.106,2.521,3.566,3.84,3.566
		C105.678,19.838,107.322,10.314,107.321,8.817"/>
</g>
</svg>
