<?xml version="1.0" encoding="utf-8"?>
<!-- Generator: Adobe Illustrator 14.0.0, SVG Export Plug-In . SVG Version: 6.00 Build 43363)  -->
<!DOCTYPE svg PUBLIC "-//W3C//DTD SVG 1.1//EN" "http://www.w3.org/Graphics/SVG/1.1/DTD/svg11.dtd">
<svg version="1.1" id="Layer_1" xmlns="http://www.w3.org/2000/svg" xmlns:xlink="http://www.w3.org/1999/xlink" x="0px" y="0px"
	 width="643px" height="444px" viewBox="0 0 643 444" enable-background="new 0 0 643 444" xml:space="preserve">
<linearGradient id="SVGID_1_" gradientUnits="userSpaceOnUse" x1="466.4492" y1="124.0068" x2="-641.5511" y2="794.0082">
	<stop  offset="0" style="stop-color:#FFFFFF"/>
	<stop  offset="1" style="stop-color:#000000"/>
</linearGradient>
<path fill="url(#SVGID_1_)" d="M137.059,164.309c0,0-11.523,75.435,58.15,121.011c69.673,45.576,162.396,63.388,162.396,63.388
	s62.339-58.149,82.246-74.912c19.906-16.763,46.1-39.987,58.322-44.527c12.225-4.541,19.908-4.54,30.734-10.477
	c10.825-5.938,56.574-45.576,69.148-51.862c12.572-6.285,22.526-8.383,22.526-8.383s-115.249-39.288-137.775-49.242
	s-20.954-38.242-40.336-45.053c-19.383-6.811-57.626,5.238-81.724,9.431c-24.096,4.189-47.327,22.541-82.773,33.528
	C225.592,123.447,137.059,164.309,137.059,164.309z"/>
<polygon fill="none" stroke="#000000" stroke-width="1.7127" points="70.53,199.408 276.93,435.144 594.912,197.311 335.603,91.494 
	"/>
<g>
	<line fill="none" stroke="#000000" stroke-width="0.5239" x1="104.162" y1="237.82" x2="384.321" y2="111.373"/>
	<line fill="none" stroke="#000000" stroke-width="0.5239" x1="146.655" y1="286.353" x2="441.525" y2="134.718"/>
	<line fill="none" stroke="#000000" stroke-width="0.5239" x1="201.876" y1="349.422" x2="510.74" y2="162.962"/>
	<line fill="none" stroke="#000000" stroke-width="0.5239" x1="150.361" y1="166.907" x2="384.321" y2="354.821"/>
	<line fill="none" stroke="#000000" stroke-width="0.5239" x1="220.989" y1="138.153" x2="468.895" y2="291.567"/>
	<line fill="none" stroke="#000000" stroke-width="0.5239" x1="281.122" y1="114.367" x2="537.608" y2="240.173"/>
</g>
<path opacity="0.8" fill="#FFFFFF" enable-background="new    " d="M55.338,160.118c0,0,28.62,45.506,86.437,111.581
	c51.339,58.673,126.25,114.202,126.25,114.202s68.102-104.771,116.297-134.108c48.195-29.336,59.72-5.238,92.724-24.621
	c33.004-19.384,52.386-47.147,77.006-63.911c24.622-16.763,53.959-9.953,53.959-9.953s-135.156-43.48-173.397-63.386
	C396.37,70.016,354.461,9.771,319.887,9.771s-60.506,59.722-96.389,75.96c-35.886,16.239-64.175,6.81-97.702,21.478
	C92.271,121.875,55.338,160.118,55.338,160.118z"/>
<g opacity="0.3">
	<path opacity="0.25" enable-background="new    " d="M380.355,74.303c18.284,7.062,91.116,31.472,91.116,31.472
		c-15.332-5.948-28.443-11.473-36.859-15.853C396.37,70.016,354.461,9.771,319.887,9.771c-29.401,0-52.551,43.184-80.886,66.094
		c0,0,27.451-22.438,55.74-23.399C318.833,51.646,362.07,67.241,380.355,74.303z"/>
	<path opacity="0.25" enable-background="new    " d="M303.646,120.48c-12.224,6.81-30.383,12.397-30.383,12.397
		s24.622,1.082,46.974-8.697c22.351-9.778,55.18-24.493,80.675-23.621c25.493,0.874,57.52,6.152,57.52,6.152
		S411.68,83.513,368.14,93.004C351.459,96.639,315.868,113.671,303.646,120.48z"/>
</g>
<path fill="none" stroke="#000000" stroke-width="2" d="M55.338,160.118c0,0,28.62,45.506,86.437,111.581
	c51.339,58.673,126.25,114.202,126.25,114.202s68.102-104.771,116.297-134.108c48.195-29.336,59.72-5.238,92.724-24.621
	c33.004-19.384,52.386-47.147,77.006-63.911c24.622-16.763,53.959-9.953,53.959-9.953s-135.156-43.48-173.397-63.386
	C396.37,70.016,354.461,9.771,319.887,9.771s-60.506,59.722-96.389,75.96c-35.886,16.239-64.175,6.81-97.702,21.478
	C92.271,121.875,55.338,160.118,55.338,160.118z"/>
<path opacity="0.2" fill="#1B1F8A" enable-background="new    " d="M55.338,160.118c0,0,28.62,45.506,86.437,111.581
	c51.339,58.673,126.25,114.202,126.25,114.202s68.102-104.771,116.297-134.108c48.195-29.336,59.72-5.238,92.724-24.621
	c33.004-19.384,52.386-47.147,77.006-63.911c24.622-16.763,53.959-9.953,53.959-9.953s-135.156-43.48-173.397-63.386
	C396.37,70.016,354.461,9.771,319.887,9.771s-60.506,59.722-96.389,75.96c-35.886,16.239-64.175,6.81-97.702,21.478
	C92.271,121.875,55.338,160.118,55.338,160.118z"/>
<g>
	<g>
		<g>
			<g>
				<path fill="#202020" d="M141.774,271.699c4.031-8.1,6.857-13.549,11.787-23.18c2.667-5.215,10.861-20.805,19.187-34.63
					c8.231-13.884,16.672-25.893,16.711-25.861c0.029,0.042,8.21-12.215,19.227-23.992c10.623-12.387,26.602-20.452,32.126-22.269
					c10.068-3.876,16-5.518,24.79-7.633c-8.889,1.627-14.94,3.018-25.081,6.91c-5.537,1.802-21.735,9.996-32.406,22.454
					c-11.072,11.841-19.262,24.122-19.293,24.081c-0.04-0.031-8.503,12.004-16.748,25.907c-8.34,13.845-16.542,29.452-19.207,34.676
					C147.944,257.81,145.354,263.389,141.774,271.699z"/>
			</g>
		</g>
	</g>
</g>
<g>
	<g>
		<g>
			<g>
				<path fill="#202020" d="M273.263,132.878c10.92-3.135,18.423-5.312,30.605-11.632c6.387-3.577,26.176-13.543,44.992-21.024
					c18.64-8.473,37.312-8.695,37.253-8.625c-0.06-0.113,18.495-0.824,38.181,4.17c19.808,4.287,39.602,14.657,46.891,16.359
					c12.969,3.927,20.36,6.85,31.781,7.568c-11.254-1.705-18.299-5.093-31.302-9.053c-7.134-1.657-26.942-12.043-47.007-16.402
					c-19.853-5.038-38.658-4.318-38.601-4.202c0.145-0.095-19.035,0.193-37.775,8.725c-18.911,7.517-38.714,17.492-45.169,21.119
					C291.15,126.115,283.861,128.804,273.263,132.878z"/>
			</g>
		</g>
	</g>
</g>
<g>
	<g>
		<g>
			<g>
				<path fill="#202020" d="M209.158,91.08c3.993-0.246,6.697-0.318,11.458-0.485c2.572-0.098,10.358-0.169,17.371,0.966
					c7.073,0.998,12.91,3.827,12.886,3.84c-0.02,0.029,5.848,2.79,11.797,6.685c5.938,3.891,12.047,8.738,14.275,10.101
					c4.013,2.648,6.491,3.803,10.101,5.52c-3.373-2.154-5.704-3.539-9.666-6.167c-2.196-1.348-8.289-6.183-14.282-10.111
					c-5.997-3.922-11.899-6.696-11.879-6.725c0.03-0.015-5.96-2.912-13.108-3.917c-7.093-1.149-14.929-1.075-17.517-0.971
					C215.804,89.995,213.091,90.339,209.158,91.08z"/>
			</g>
		</g>
	</g>
</g>
<g>
	<g>
		<g>
			<g>
				<path fill="#202020" d="M368.943,85.903c2.878-1.334,4.788-2.294,8.203-3.882c1.838-0.845,7.463-3.412,12.975-4.421
					c5.51-0.988,10.631-0.314,10.611-0.296c0.18-0.937,19.862,4.666,23.253,7.263c3.383,1.661,5.318,2.568,8.143,4.006
					c-2.564-1.863-4.398-3.024-7.802-4.707c-3.392-2.625-23.298-8.281-23.511-7.337c0.025-0.016-5.189-0.711-10.838,0.3
					c-5.632,1.032-11.307,3.627-13.162,4.486C373.374,82.928,371.571,84.138,368.943,85.903z"/>
			</g>
		</g>
	</g>
</g>
<g>
	<g>
		<g>
			<g>
				<path fill="#202020" d="M394.656,86.177c-4.448-3.001-7.243-5.29-11.747-9.814c-5.268-4.554-26.956-31.746-26.932-31.76
					c-0.069,0.161-21.265-27.75-28.401-30.479c-5.537-3.218-9.49-4.358-14.781-3.521c5.327-0.325,8.947,1.04,14.371,4.185
					c6.883,2.556,28.145,30.46,28.204,30.305c-0.028,0.009,21.656,27.22,26.987,31.822C386.9,81.464,389.965,83.616,394.656,86.177z
					"/>
			</g>
		</g>
	</g>
</g>
<g>
	<g>
		<g>
			<g>
				<path fill="#202020" d="M133.451,104.229c13.042,4.482,21.458,8.709,35.958,16.521c8.231,3.486,29.576,20.446,52.813,29.267
					c22.964,9.032,44.511,15.2,44.4,15.506c-0.277,0.351,22.104,5.849,41.289,21.677c19.591,14.895,39.76,32.67,46.526,38.502
					c12.432,10.864,19.501,17.006,29.885,26.09c-10.05-9.453-16.942-15.8-29.372-26.678c-6.767-5.841-26.936-23.618-46.566-38.542
					c-19.282-15.903-41.825-21.454-41.505-21.787c0.108-0.307-21.477-6.493-44.359-15.496c-23.104-8.76-44.432-25.701-52.732-29.223
					C155.248,112.246,146.655,108.238,133.451,104.229z"/>
			</g>
		</g>
	</g>
</g>
<g>
	<g>
		<g>
			<g>
				<path fill="#202020" d="M459.169,106.994c-16.666-6.385-27.824-11.979-49.171-15.17c-5.674-0.634-17.777-1.901-31.352,2.921
					c-13.537,4.688-27.445,14.583-39.398,25.173c-23.948,21.388-41.438,44.899-41.56,44.74
					c-0.034-0.037-18.259,22.702-35.956,49.383c-17.911,26.53-35.593,56.645-41.345,66.734
					c-10.642,18.629-16.379,29.37-24.415,45.386c8.478-15.785,14.445-26.385,25.091-44.996c5.753-10.08,23.426-40.178,41.32-66.686
					c17.682-26.661,35.879-49.371,35.913-49.333c0.118,0.162,17.6-23.324,41.471-44.639c11.91-10.554,25.757-20.389,39.139-25.02
					c13.396-4.762,25.364-3.516,30.998-2.889C431.074,95.747,442.321,101.069,459.169,106.994z"/>
			</g>
		</g>
	</g>
</g>
<g>
	<g>
		<g>
			<g>
				<path fill="#202020" d="M96.639,217.219c7.223-13.335,12.421-22.231,22.161-37.528c5.454-7.979,21.241-33.617,42.595-50.422
					c22.204-16.338,48.688-15.433,48.185-15.929c-0.01-0.106,6.15-0.243,15.629-1.689c9.527-1.26,21.925-6.697,31.855-16.094
					c9.86-9.538,16.688-22.196,22.805-32.458c5.958-10.418,10.841-18.953,13.438-23.12c4.718-7.735,8.816-13.556,13.257-18.593
					c4.473-4.863,9.224-9.657,16.642-11.614c-7.493,1.71-12.474,6.419-17.066,11.23c-4.574,4.988-8.761,10.814-13.498,18.57
					c-2.606,4.177-7.5,12.726-13.454,23.135c-6.1,10.246-12.952,22.895-22.657,32.274c-20.124,19.914-47.82,16.615-47.019,17.583
					c0.525,0.51-26.091-0.452-48.593,16.081c-21.53,16.955-37.304,42.619-42.774,50.624
					C108.397,194.599,103.419,203.653,96.639,217.219z"/>
			</g>
		</g>
	</g>
</g>
<g>
	<g>
		<g>
			<g>
				<path fill="#202020" d="M362.058,94.896c8.233-2.893,14.753-3.105,24.624,0.114c2.646,0.925,7.964,3.219,13.21,7.772
					c5.31,4.468,10.68,10.74,15.456,16.968c9.55,12.495,16.919,24.797,16.953,24.766c0.616-0.367,28.707,49.514,33.289,60.027
					c4.737,9.431,7.479,14.752,11.455,22.628c-3.525-8.088-6.028-13.536-10.759-22.979c-4.571-10.523-32.702-60.45-33.323-60.09
					c-0.036,0.03-7.409-12.288-16.992-24.831c-4.797-6.252-10.188-12.558-15.571-17.088c-5.337-4.63-10.751-6.965-13.453-7.907
					C376.87,90.988,370.108,91.529,362.058,94.896z"/>
			</g>
		</g>
	</g>
</g>
<g>
	<g>
		<g>
			<g>
				<path fill="#202020" d="M554.051,163.261c-3.565-2.842-6.014-4.737-10.469-7.877c-4.779-3.466-29.167-20.187-29.227-20.102
					c0.222-0.355-25.171-15.577-30.561-18.038c-4.816-2.558-7.631-3.855-11.814-5.669c3.96,2.26,6.643,3.792,11.447,6.357
					c5.383,2.475,30.718,17.646,30.495,17.999c0.057-0.086,24.425,16.637,29.211,20.092
					C547.595,159.151,550.196,160.825,554.051,163.261z"/>
			</g>
		</g>
	</g>
</g>
<g>
	<defs>
		<rect id="SVGID_2_" x="43.104" y="73.901" width="65" height="37"/>
	</defs>
	<clipPath id="SVGID_3_">
		<use xlink:href="#SVGID_2_"  overflow="visible"/>
	</clipPath>
	<path clip-path="url(#SVGID_3_)" d="M55.244,86.402c2.721,0.146,4.759,1.791,4.759,4.937c0,4.221-3.078,9.334-8.444,9.764
		 M50.631,101.103c-2.148-0.107-4.727-1.359-4.727-4.936c0-4.291,3.08-9.298,8.417-9.765L50.631,101.103z M57.447,77.464
		c0-0.07,0.107-0.466,0.107-0.502c0-0.035,0-0.36-0.428-0.36c-0.357,0-0.392,0.11-0.535,0.719l-2.07,8.281
		c-5.673,0.182-10.918,4.963-10.918,9.853c0,3.416,2.498,6.256,6.851,6.508c-0.286,1.113-0.535,2.265-0.821,3.379
		c-0.428,1.69-0.785,3.057-0.785,3.164c0,0.359,0.25,0.396,0.429,0.396c0.178,0,0.25-0.036,0.357-0.144
		c0.071-0.072,0.286-0.936,0.393-1.438c0.464-1.762,0.892-3.56,1.356-5.356c5.745-0.181,10.922-5.033,10.922-9.852
		c0-2.84-1.896-6.148-6.855-6.509L57.447,77.464z"/>
	<path clip-path="url(#SVGID_3_)" d="M75.076,110.143c0-0.107,0-0.179-0.614-0.789c-4.505-4.522-5.658-11.306-5.658-16.797
		c0-6.245,1.371-12.491,5.802-16.978c0.47-0.43,0.47-0.502,0.47-0.609c0-0.251-0.145-0.366-0.362-0.366
		c-0.361,0-3.608,2.448-5.737,7.007c-1.841,3.948-2.273,7.932-2.273,10.947c0,2.799,0.397,7.142,2.382,11.197
		c2.165,4.416,5.268,6.748,5.629,6.748c0.217,0,0.361-0.107,0.361-0.358"/>
	<path clip-path="url(#SVGID_3_)" d="M89.083,90.644c0.215-0.935,1.04-4.241,3.551-4.241c0.179,0,1.04,0,1.793,0.498
		c-1.005,0.18-1.723,1.079-1.723,1.942c0,0.574,0.395,1.259,1.363,1.259c0.789,0,1.938-0.653,1.938-2.104
		c0-1.886-2.096-2.395-3.301-2.395c-2.087,0-3.345,1.934-3.777,2.772c-0.899-2.407-2.841-2.772-3.883-2.772
		c-3.739,0-5.788,4.664-5.788,5.568c0,0.36,0.359,0.36,0.43,0.36c0.287,0,0.395-0.072,0.466-0.397
		c1.22-3.827,3.587-4.731,4.806-4.731c0.681,0,1.937,0.324,1.937,2.408c0,1.114-0.61,3.521-1.937,8.552
		c-0.574,2.229-1.829,3.737-3.407,3.737c-0.215,0-1.04,0-1.793-0.498c0.876-0.181,1.648-0.936,1.648-1.942
		c0-0.971-0.79-1.259-1.328-1.259c-1.076,0-1.973,0.944-1.973,2.104c0,1.67,1.797,2.395,3.379,2.395c2.372,0,3.666-2.514,3.774-2.73
		c0.431,1.33,1.725,2.73,3.882,2.73c3.702,0,5.754-4.63,5.754-5.527c0-0.358-0.323-0.358-0.43-0.358
		c-0.323,0-0.396,0.144-0.466,0.395c-1.184,3.832-3.622,4.691-4.77,4.691c-1.399,0-1.973-1.15-1.973-2.372
		c0-0.791,0.215-1.581,0.609-3.162"/>
	<path clip-path="url(#SVGID_3_)" d="M108.003,92.556c0-2.801-0.397-7.144-2.378-11.198c-2.16-4.414-5.257-6.755-5.617-6.755
		c-0.216,0-0.36,0.15-0.36,0.366c0,0.107,0,0.18,0.683,0.825c3.522,3.554,5.571,9.26,5.571,16.762
		c0,6.137-1.331,12.453-5.787,16.977c-0.467,0.432-0.467,0.503-0.467,0.61c0,0.216,0.144,0.358,0.36,0.358
		c0.36,0,3.601-2.44,5.725-6.998C107.569,99.555,108.003,95.57,108.003,92.556"/>
</g>
<g>
	<g>
		<line fill="none" stroke="#231F20" stroke-width="3" x1="25.998" y1="305.839" x2="25.998" y2="33"/>
		<polygon fill="#231F20" points="25.998,22.409 32.096,37.334 25.998,33.792 19.901,37.334 		"/>
	</g>
</g>
<g>
	<g>
		<defs>
			<polygon id="SVGID_4_" points="523.521,201.641 558.537,218.894 579.711,198.735 544.696,181.48 			"/>
		</defs>
		<clipPath id="SVGID_5_">
			<use xlink:href="#SVGID_4_"  overflow="visible"/>
		</clipPath>
		<path clip-path="url(#SVGID_5_)" d="M541.993,199.845c0.255,0.081,0.419,0.116,0.676,0.243c0.482,0.238,1.252,0.529,1.797,0.708
			c-0.085,0.779-0.813,6.497-0.101,9.68l-3.123-1.54 M528.585,202.701c0.669-0.287,1.33-0.917,1.543-1.121l11.952-11.38
			c0.237-0.225,0.874-0.833,1.062-1.358l3.672,1.809c-0.848,0.13-1.322,0.581-1.677,0.918l-12.048,11.471
			c-0.234,0.225-0.875,0.833-0.993,1.391L528.585,202.701z M546.229,192.217c0.499-0.475,1.283-1.221,3.284-0.234
			c2.745,1.352,3.271,2.813,0.471,5.48c-3.062,2.916-4.515,2.851-9.617,0.336L546.229,192.217z M546.934,200.539
			c1.826-0.369,3.184-1.518,4.229-2.512c1.138-1.084,2.195-2.381,2.097-3.835c1.104,0.854,3.554,3.125,1.158,5.407
			C552.875,201.066,550.699,201.743,546.934,200.539z M539.506,198.619l1.159,0.572c-0.032,0.495-0.365,4.116-0.643,7.593
			c-0.055,0.52-0.202,1.776-0.202,2.288c-0.058,0.381,0.04,0.428,0.778,0.793l4.446,2.191c0.582,0.286,1.067,0.526,1.51,0.104
			c0.195-0.188,0.175-0.446-0.063-0.636c-1.003-0.769-1.014-3.036-1.029-4.139c0.012-0.337-0.033-2.62,0.37-6.122
			c3.265,1.06,6.952,1.575,9.774-1.112c3.297-3.139-0.307-6.562-4.115-8.438l-10.128-4.991c-0.579-0.285-1.095-0.54-1.54-0.119
			c-0.417,0.398,0.184,0.694,0.436,0.818c1.797,0.886,1.788,1.122,0.605,2.248l-11.857,11.29c-1.182,1.126-1.507,1.207-3.303,0.322
			c-0.253-0.125-0.853-0.42-1.271-0.022c-0.441,0.42,0.075,0.675,0.654,0.961l8.823,4.347c0.58,0.287,1.062,0.524,1.507,0.103
			c0.417-0.398-0.133-0.669-0.489-0.845c-1.842-0.908-1.782-1.149-0.632-2.245L539.506,198.619z"/>
		<path clip-path="url(#SVGID_5_)" d="M570.948,206.301l-0.771-0.379c-0.438,0.32-1.656,1.154-2.119,1.17
			c-0.281,0.007-2.021-0.85-2.337-1.006l-4.159-2.048c3.926-0.309,5.184-0.364,7.321-0.443c2.659-0.113,5.25-0.328,6.836-1.837
			c2.018-1.921,0.863-4.277-2.022-5.699c-2.795-1.379-6.135-0.935-7.662,0.521c-0.848,0.806,0.052,1.371,0.281,1.483
			c0.549,0.27,1.5,0.325,2.105-0.253c0.304-0.289,0.731-0.933-0.488-1.532c1.865-0.758,3.771-0.34,4.837,0.186
			c2.269,1.118,2.153,2.938,0.804,4.223c-1.446,1.379-4,1.78-5.323,1.994l-9.417,1.083c-0.374,0.031-0.408,0.063-0.873,0.507
			l9.287,4.577"/>
	</g>
</g>
<path fill="none" stroke="#000000" stroke-width="0.5239" d="M419.34,212.926"/>
</svg>
