<?xml version="1.0" encoding="utf-8"?>
<!-- Generator: Adobe Illustrator 14.0.0, SVG Export Plug-In . SVG Version: 6.00 Build 43363)  -->
<!DOCTYPE svg PUBLIC "-//W3C//DTD SVG 1.1//EN" "http://www.w3.org/Graphics/SVG/1.1/DTD/svg11.dtd">
<svg version="1.1" id="Layer_1" xmlns="http://www.w3.org/2000/svg" xmlns:xlink="http://www.w3.org/1999/xlink" x="0px" y="0px"
	 width="140px" height="141px" viewBox="0 0 140 141" enable-background="new 0 0 140 141" xml:space="preserve">
<polygon opacity="0.2" fill="#1B1F8A" enable-background="new    " points="14.469,113.539 81.413,101.599 133.006,7.792 
	62.653,29.111 "/>
<polygon fill="none" stroke="#000000" stroke-width="1.7127" points="14.469,113.539 81.413,101.599 133.006,7.792 62.653,29.111 
	"/>
<path fill="none" stroke="#000000" stroke-width="0.8564" stroke-dasharray="5.709" d="M14.469,113.539"/>
<path fill="none" stroke="#000000" stroke-width="0.8564" stroke-dasharray="5.709" d="M62.653,29.111"/>
<g>
	<g>
		<line fill="none" stroke="#231F20" stroke-width="2" x1="14.469" y1="120.759" x2="81.413" y2="108.818"/>
		<polygon fill="#231F20" points="86.974,107.826 79.708,112.426 80.998,108.893 78.567,106.023 		"/>
	</g>
</g>
<g>
	<g>
		<line fill="none" stroke="#231F20" stroke-width="2" x1="7.508" y1="110.787" x2="55.692" y2="26.36"/>
		<polygon fill="#231F20" points="58.492,21.454 57.371,29.979 55.482,26.727 51.722,26.755 		"/>
	</g>
</g>
<g>
	<defs>
		<rect id="SVGID_1_" x="40.441" y="120.759" width="15" height="14"/>
	</defs>
	<clipPath id="SVGID_2_">
		<use xlink:href="#SVGID_1_"  overflow="visible"/>
	</clipPath>
	<path clip-path="url(#SVGID_2_)" d="M49.783,132.552c0.316,1.166,1.32,1.906,2.553,1.906c1.004,0,1.664-0.657,2.123-1.572
		c0.488-1.029,0.862-2.773,0.862-2.83c0-0.287-0.261-0.287-0.347-0.287c-0.288,0-0.316,0.116-0.403,0.52
		c-0.403,1.611-0.95,3.57-2.159,3.57c-0.604,0-0.892-0.373-0.892-1.32c0-0.633,0.345-1.982,0.576-2.988
		c0.259-1.034,0.547-2.068,0.806-3.104c0.086-0.431,0.374-1.521,0.489-1.952c0.144-0.661,0.432-1.753,0.432-1.925
		c0-0.518-0.403-0.776-0.835-0.776c-0.144,0-0.892,0.028-1.123,1.006c-0.547,2.097-1.812,7.124-2.159,8.647
		c-0.028,0.114-1.18,2.412-3.281,2.412c-1.497,0-1.785-1.294-1.785-2.358c0-1.611,0.828-3.884,1.596-5.867
		c0.355-0.863,0.503-1.267,0.503-1.812c0-1.295-0.923-2.362-2.364-2.362c-2.737,0-3.803,4.177-3.803,4.436
		c0,0.288,0.29,0.288,0.348,0.288c0.29,0,0.319-0.058,0.464-0.522c0.725-2.526,1.827-3.602,2.93-3.602
		c0.261,0,0.726,0.032,0.726,0.952c0,0.69-0.322,1.524-0.499,1.955c-1.085,2.848-1.7,4.631-1.7,6.04
		c0,2.731,1.979,3.452,3.529,3.452C48.263,134.458,49.296,133.178,49.783,132.552"/>
</g>
<g>
	<defs>
		<rect id="SVGID_3_" x="19" y="49" width="14" height="14"/>
	</defs>
	<clipPath id="SVGID_4_">
		<use xlink:href="#SVGID_3_"  overflow="visible"/>
	</clipPath>
	<path clip-path="url(#SVGID_4_)" d="M32.398,51.71c0-1.549-0.754-2.01-1.276-2.01c-0.726,0-1.422,0.751-1.422,1.384
		c0,0.374,0.148,0.546,0.478,0.863c0.627,0.574,1.017,1.322,1.017,2.358c0,1.208-1.767,7.796-5.152,7.796
		c-1.476,0-2.142-1.008-2.142-2.503c0-1.61,0.809-3.71,1.739-6.098c0.21-0.489,0.36-0.891,0.36-1.438
		c0-1.295-0.923-2.361-2.364-2.361c-2.708,0-3.803,4.177-3.803,4.436c0,0.288,0.29,0.288,0.348,0.288
		c0.29,0,0.319-0.058,0.464-0.522c0.841-2.933,2.089-3.602,2.93-3.602c0.232,0,0.726,0,0.726,0.923c0,0.72-0.297,1.496-0.505,2.014
		c-1.307,3.336-1.694,4.659-1.694,5.896c0,3.107,2.56,3.567,3.899,3.567c4.778,0,6.4-9.497,6.4-10.989"/>
</g>
</svg>
