<?xml version="1.0" encoding="utf-8"?>
<!-- Generator: Adobe Illustrator 14.0.0, SVG Export Plug-In . SVG Version: 6.00 Build 43363)  -->
<!DOCTYPE svg PUBLIC "-//W3C//DTD SVG 1.1//EN" "http://www.w3.org/Graphics/SVG/1.1/DTD/svg11.dtd">
<svg version="1.1" id="Layer_1" xmlns="http://www.w3.org/2000/svg" xmlns:xlink="http://www.w3.org/1999/xlink" x="0px" y="0px"
	 width="241px" height="248px" viewBox="0 0 241 248" enable-background="new 0 0 241 248" xml:space="preserve">
<g>
	<g opacity="0.2">
		<g>
			<linearGradient id="SVGID_1_" gradientUnits="userSpaceOnUse" x1="63.1367" y1="201.8008" x2="214.47" y2="134.4678">
				<stop  offset="0" style="stop-color:#FFFFFF"/>
				<stop  offset="1" style="stop-color:#000000"/>
			</linearGradient>
			<polygon fill-rule="evenodd" clip-rule="evenodd" fill="url(#SVGID_1_)" points="236.559,151.569 127.954,205.871 
				28.226,218.925 66.864,167.233 155.105,136.427 208.363,129.117 			"/>
		</g>
	</g>
	<polygon opacity="0.2" fill="#1B1F8A" enable-background="new    " points="129.467,7.045 62.985,31.457 33.381,143.124 
		28.226,218.925 117.521,197.66 167.556,32.842 	"/>
	<polygon fill="none" stroke="#000000" stroke-width="1.7127" points="129.467,7.045 62.985,31.457 33.381,143.124 28.226,218.925 
		117.521,197.66 167.556,32.842 	"/>
	<polyline fill="none" stroke="#000000" stroke-width="0.8564" stroke-dasharray="5.709" points="117.521,197.66 95.707,124.427 
		33.381,143.124 	"/>
	<polyline fill="none" stroke="#000000" stroke-width="1.7127" points="167.556,32.842 70.257,65.217 29.226,218.955 	"/>
	
		<line fill="none" stroke="#000000" stroke-width="0.8564" stroke-dasharray="5.709" x1="95.707" y1="124.427" x2="129.467" y2="7.045"/>
	<line fill="none" stroke="#000000" stroke-width="1.7127" x1="62.985" y1="31.457" x2="70.257" y2="65.217"/>
</g>
<g>
	<g>
		<line fill="none" stroke="#231F20" stroke-width="2" x1="32.333" y1="227.001" x2="110.877" y2="209.118"/>
		<polygon fill="#231F20" points="116.385,207.864 109.346,212.802 110.465,209.212 107.901,206.461 		"/>
	</g>
</g>
<g>
	<g>
		<line fill="none" stroke="#231F20" stroke-width="2" x1="38.333" y1="210.667" x2="75" y2="75.667"/>
		<polygon fill="#231F20" points="76.48,70.215 77.532,78.75 74.889,76.074 71.256,77.045 		"/>
	</g>
</g>
<g>
	<g>
		<line fill="none" stroke="#231F20" stroke-width="2" x1="20" y1="219.002" x2="25" y2="146.668"/>
		<polygon fill="#231F20" points="25.39,141.033 28.085,149.198 24.971,147.089 21.597,148.75 		"/>
	</g>
</g>
<g>
	<defs>
		<rect id="SVGID_2_" x="61.441" y="225" width="15" height="14"/>
	</defs>
	<clipPath id="SVGID_3_">
		<use xlink:href="#SVGID_2_"  overflow="visible"/>
	</clipPath>
	<path clip-path="url(#SVGID_3_)" d="M70.783,236.793c0.316,1.166,1.32,1.906,2.553,1.906c1.004,0,1.664-0.657,2.123-1.572
		c0.488-1.029,0.861-2.773,0.861-2.83c0-0.287-0.26-0.287-0.346-0.287c-0.289,0-0.316,0.116-0.404,0.52
		c-0.402,1.611-0.949,3.57-2.158,3.57c-0.604,0-0.893-0.373-0.893-1.32c0-0.633,0.346-1.982,0.576-2.988
		c0.26-1.034,0.547-2.068,0.807-3.104c0.086-0.431,0.373-1.521,0.488-1.952c0.145-0.661,0.432-1.753,0.432-1.925
		c0-0.518-0.402-0.776-0.834-0.776c-0.145,0-0.893,0.028-1.123,1.006c-0.547,2.097-1.812,7.124-2.16,8.647
		c-0.027,0.114-1.18,2.412-3.28,2.412c-1.497,0-1.785-1.294-1.785-2.358c0-1.611,0.828-3.884,1.597-5.867
		c0.355-0.863,0.502-1.267,0.502-1.812c0-1.295-0.922-2.362-2.363-2.362c-2.737,0-3.803,4.177-3.803,4.436
		c0,0.288,0.289,0.288,0.348,0.288c0.29,0,0.318-0.058,0.464-0.522c0.726-2.526,1.827-3.602,2.931-3.602
		c0.26,0,0.725,0.032,0.725,0.952c0,0.69-0.322,1.524-0.498,1.955c-1.086,2.848-1.7,4.631-1.7,6.04c0,2.731,1.979,3.452,3.528,3.452
		C69.264,238.699,70.297,237.419,70.783,236.793"/>
</g>
<g>
	<defs>
		<rect id="SVGID_4_" x="4" y="172" width="14" height="14"/>
	</defs>
	<clipPath id="SVGID_5_">
		<use xlink:href="#SVGID_4_"  overflow="visible"/>
	</clipPath>
	<path clip-path="url(#SVGID_5_)" d="M17.399,174.71c0-1.549-0.755-2.01-1.277-2.01c-0.725,0-1.422,0.751-1.422,1.384
		c0,0.374,0.148,0.546,0.478,0.863c0.627,0.574,1.016,1.322,1.016,2.358c0,1.208-1.766,7.796-5.152,7.796
		c-1.476,0-2.142-1.008-2.142-2.503c0-1.61,0.809-3.71,1.739-6.098c0.209-0.489,0.36-0.891,0.36-1.438
		c0-1.295-0.923-2.361-2.364-2.361c-2.708,0-3.803,4.177-3.803,4.436c0,0.288,0.29,0.288,0.348,0.288
		c0.29,0,0.319-0.058,0.464-0.522c0.841-2.933,2.089-3.602,2.93-3.602c0.232,0,0.726,0,0.726,0.923c0,0.72-0.297,1.496-0.505,2.014
		c-1.307,3.336-1.694,4.659-1.694,5.896c0,3.107,2.56,3.567,3.899,3.567C15.778,185.7,17.4,176.203,17.399,174.71"/>
</g>
<g>
	<defs>
		<rect id="SVGID_6_" x="73" y="91" width="20" height="14"/>
	</defs>
	<clipPath id="SVGID_7_">
		<use xlink:href="#SVGID_6_"  overflow="visible"/>
	</clipPath>
	<path clip-path="url(#SVGID_7_)" d="M85.948,94.677c0.146-0.632,0.438-1.694,0.438-1.866c0-0.518-0.402-0.776-0.832-0.776
		c-0.344,0-0.859,0.229-1.061,0.805c-0.086,0.201-1.434,5.688-1.635,6.435c-0.201,0.862-0.258,1.38-0.258,1.896
		c0,0.316,0,0.373,0,0.518c-0.656,1.521-1.511,2.412-2.622,2.412c-2.279,0-2.279-2.129-2.279-2.617c0-0.92,0.146-2.041,1.507-5.579
		c0.319-0.863,0.493-1.267,0.493-1.841c0-1.295-0.952-2.362-2.364-2.362c-2.737,0-3.803,4.177-3.803,4.436
		c0,0.288,0.29,0.288,0.348,0.288c0.29,0,0.319-0.058,0.464-0.522c0.783-2.7,1.914-3.602,2.93-3.602
		c0.261,0,0.726,0.032,0.726,0.952c0,0.719-0.327,1.524-0.535,2.013c-1.308,3.395-1.664,4.718-1.664,5.811
		c0,2.618,1.922,3.624,4.074,3.624c0.488,0,1.836,0,2.984-1.993c0.746,1.822,2.725,1.993,3.586,1.993
		c2.152,0,3.414-1.809,4.161-3.529c0.975-2.238,1.894-6.083,1.894-7.46c0-1.578-0.776-2.01-1.264-2.01
		c-0.718,0-1.436,0.751-1.436,1.384c0,0.374,0.176,0.546,0.439,0.777c0.322,0.315,1.054,1.063,1.054,2.444
		c0,0.979-0.837,3.798-1.587,5.264c-0.75,1.524-1.759,2.53-3.172,2.53c-1.355,0-2.134-0.861-2.134-2.498
		c0-0.805,0.204-1.695,0.321-2.098"/>
</g>
</svg>
