<?xml version="1.0" encoding="utf-8"?>
<!-- Generator: Adobe Illustrator 14.0.0, SVG Export Plug-In . SVG Version: 6.00 Build 43363)  -->
<!DOCTYPE svg PUBLIC "-//W3C//DTD SVG 1.1//EN" "http://www.w3.org/Graphics/SVG/1.1/DTD/svg11.dtd">
<svg version="1.1" id="Layer_1" xmlns="http://www.w3.org/2000/svg" xmlns:xlink="http://www.w3.org/1999/xlink" x="0px" y="0px"
	 width="658px" height="251px" viewBox="0 0 658 251" enable-background="new 0 0 658 251" xml:space="preserve">
<g>
	<g>
		<polygon opacity="0.2" fill="#1B1F8A" enable-background="new    " points="510.667,218.955 598.963,197.66 648.997,32.842 
			551.698,65.216 		"/>
		<polyline fill="none" stroke="#000000" stroke-width="0.8564" points="540.368,135.46 514.822,143.124 510.667,218.955 		"/>
		<path fill="none" stroke="#000000" stroke-width="0.8564" d="M598.963,197.66"/>
		<polyline fill="none" stroke="#000000" stroke-width="0.8564" points="598.963,197.66 577.148,124.427 540.368,135.46 		"/>
		<polyline fill="none" stroke="#000000" stroke-width="0.8564" points="551.698,65.216 544.427,31.457 514.822,143.124 		"/>
		<polygon fill="none" stroke="#000000" stroke-width="1.7127" points="510.667,218.955 598.963,197.66 648.997,32.842 
			551.698,65.216 		"/>
		<line fill="none" stroke="#000000" stroke-width="0.8564" x1="577.148" y1="124.427" x2="610.908" y2="7.045"/>
		<line fill="none" stroke="#000000" stroke-width="0.8564" x1="610.908" y1="7.045" x2="648.997" y2="32.842"/>
		<line fill="none" stroke="#000000" stroke-width="0.8564" x1="610.908" y1="7.045" x2="544.427" y2="31.457"/>
	</g>
	<g>
		<g>
			<defs>
				<rect id="SVGID_1_" x="544.708" y="220.54" width="23" height="24.8"/>
			</defs>
			<clipPath id="SVGID_2_">
				<use xlink:href="#SVGID_1_"  overflow="visible"/>
			</clipPath>
			<path clip-path="url(#SVGID_2_)" d="M554.75,242.833c0.316,1.166,1.32,1.906,2.553,1.906c1.004,0,1.664-0.657,2.123-1.572
				c0.488-1.029,0.862-2.773,0.862-2.83c0-0.287-0.261-0.287-0.347-0.287c-0.289,0-0.316,0.116-0.403,0.52
				c-0.403,1.611-0.95,3.57-2.159,3.57c-0.604,0-0.893-0.373-0.893-1.32c0-0.633,0.346-1.982,0.576-2.988
				c0.26-1.034,0.547-2.068,0.807-3.104c0.086-0.431,0.374-1.521,0.488-1.952c0.145-0.661,0.433-1.753,0.433-1.925
				c0-0.518-0.403-0.776-0.835-0.776c-0.145,0-0.893,0.028-1.123,1.006c-0.547,2.097-1.812,7.124-2.159,8.647
				c-0.028,0.114-1.18,2.412-3.28,2.412c-1.498,0-1.785-1.294-1.785-2.358c0-1.611,0.828-3.884,1.596-5.867
				c0.355-0.863,0.503-1.267,0.503-1.812c0-1.295-0.923-2.362-2.364-2.362c-2.736,0-3.803,4.177-3.803,4.436
				c0,0.288,0.29,0.288,0.348,0.288c0.291,0,0.319-0.058,0.465-0.522c0.725-2.526,1.826-3.602,2.93-3.602
				c0.261,0,0.726,0.032,0.726,0.952c0,0.69-0.323,1.524-0.499,1.955c-1.085,2.848-1.699,4.631-1.699,6.04
				c0,2.731,1.979,3.452,3.528,3.452C553.23,244.739,554.264,243.459,554.75,242.833"/>
			<path clip-path="url(#SVGID_2_)" d="M567.048,223.068c0.08-0.201,0.161-0.341,0.161-0.622c0-0.622-0.539-1.105-1.178-1.105
				c-0.797,0-0.995,0.667-1.075,0.93l-2.649,8.729c-0.021,0.061-0.101,0.302-0.101,0.343c0,0.218,0.618,0.4,0.776,0.4
				c0.16,0,0.22-0.101,0.299-0.301"/>
		</g>
		<g>
			<defs>
				<rect id="SVGID_3_" x="479.667" y="164.789" width="21" height="24.8"/>
			</defs>
			<clipPath id="SVGID_4_">
				<use xlink:href="#SVGID_3_"  overflow="visible"/>
			</clipPath>
			<path clip-path="url(#SVGID_4_)" d="M492.866,177.999c0-1.549-0.755-2.01-1.277-2.01c-0.725,0-1.422,0.751-1.422,1.384
				c0,0.374,0.148,0.546,0.479,0.863c0.627,0.574,1.016,1.322,1.016,2.358c0,1.208-1.766,7.796-5.152,7.796
				c-1.476,0-2.142-1.008-2.142-2.503c0-1.61,0.809-3.71,1.739-6.098c0.209-0.489,0.359-0.891,0.359-1.438
				c0-1.295-0.923-2.361-2.363-2.361c-2.709,0-3.804,4.177-3.804,4.436c0,0.288,0.29,0.288,0.349,0.288
				c0.289,0,0.318-0.058,0.464-0.522c0.841-2.933,2.089-3.602,2.93-3.602c0.231,0,0.726,0,0.726,0.923
				c0,0.72-0.297,1.496-0.505,2.014c-1.307,3.336-1.693,4.659-1.693,5.896c0,3.107,2.56,3.567,3.898,3.567
				C491.245,188.989,492.867,179.492,492.866,177.999"/>
			<path clip-path="url(#SVGID_4_)" d="M500.207,167.317c0.08-0.201,0.161-0.341,0.161-0.622c0-0.622-0.539-1.105-1.178-1.105
				c-0.797,0-0.995,0.667-1.075,0.93l-2.65,8.729c-0.02,0.061-0.1,0.302-0.1,0.343c0,0.218,0.618,0.4,0.776,0.4
				c0.159,0,0.22-0.101,0.299-0.301"/>
		</g>
		<g>
			<defs>
				<rect id="SVGID_5_" x="555.479" y="83.33" width="27" height="24.799"/>
			</defs>
			<clipPath id="SVGID_6_">
				<use xlink:href="#SVGID_5_"  overflow="visible"/>
			</clipPath>
			<path clip-path="url(#SVGID_6_)" d="M568.228,97.506c0.146-0.632,0.438-1.694,0.438-1.866c0-0.518-0.401-0.776-0.832-0.776
				c-0.344,0-0.859,0.229-1.061,0.805c-0.086,0.201-1.434,5.688-1.635,6.435c-0.201,0.862-0.258,1.38-0.258,1.896
				c0,0.316,0,0.373,0,0.518c-0.656,1.522-1.512,2.413-2.622,2.413c-2.279,0-2.279-2.129-2.279-2.618
				c0-0.92,0.146-2.041,1.507-5.579c0.319-0.863,0.493-1.267,0.493-1.841c0-1.295-0.952-2.362-2.364-2.362
				c-2.736,0-3.803,4.177-3.803,4.436c0,0.288,0.29,0.288,0.348,0.288c0.29,0,0.319-0.058,0.465-0.522
				c0.782-2.7,1.913-3.602,2.93-3.602c0.261,0,0.726,0.032,0.726,0.952c0,0.719-0.327,1.524-0.535,2.013
				c-1.308,3.395-1.663,4.718-1.663,5.811c0,2.619,1.922,3.625,4.073,3.625c0.488,0,1.836,0,2.984-1.994
				c0.746,1.822,2.725,1.994,3.586,1.994c2.151,0,3.414-1.809,4.161-3.53c0.975-2.238,1.894-6.083,1.894-7.46
				c0-1.578-0.776-2.01-1.264-2.01c-0.718,0-1.437,0.751-1.437,1.384c0,0.374,0.177,0.546,0.439,0.777
				c0.322,0.315,1.054,1.063,1.054,2.444c0,0.979-0.837,3.798-1.587,5.264c-0.75,1.525-1.759,2.531-3.172,2.531
				c-1.355,0-2.134-0.861-2.134-2.499c0-0.805,0.204-1.695,0.321-2.098"/>
			<path clip-path="url(#SVGID_6_)" d="M582.119,85.858c0.08-0.201,0.161-0.341,0.161-0.622c0-0.622-0.539-1.105-1.177-1.105
				c-0.797,0-0.996,0.667-1.076,0.93l-2.649,8.729c-0.021,0.061-0.101,0.302-0.101,0.343c0,0.218,0.618,0.4,0.777,0.4
				s0.219-0.101,0.299-0.301"/>
		</g>
		<g>
			<g>
				<line fill="none" stroke="#231F20" stroke-width="2" x1="514.001" y1="228.001" x2="592.544" y2="210.118"/>
				<polygon fill="#231F20" points="598.052,208.864 591.013,213.802 592.132,210.212 589.568,207.461 				"/>
			</g>
		</g>
		<g>
			<g>
				<line fill="none" stroke="#231F20" stroke-width="2" x1="520.001" y1="211.667" x2="556.667" y2="76.667"/>
				<polygon fill="#231F20" points="558.147,71.215 559.199,79.75 556.556,77.074 552.923,78.045 				"/>
			</g>
		</g>
		<g>
			<g>
				<line fill="none" stroke="#231F20" stroke-width="2" x1="501.667" y1="220.002" x2="506.667" y2="147.668"/>
				<polygon fill="#231F20" points="507.057,142.033 509.752,150.198 506.638,148.089 503.264,149.75 				"/>
			</g>
		</g>
	</g>
</g>
<g>
	<g>
		<polygon opacity="0.2" fill="#1B1F8A" enable-background="new    " points="274.119,218.955 315.15,65.216 307.879,31.457 
			278.273,143.124 		"/>
		<polyline fill="none" stroke="#000000" stroke-width="0.8564" points="274.119,218.955 362.414,197.66 340.601,124.427 
			278.273,143.124 		"/>
		<polygon fill="none" stroke="#000000" stroke-width="1.7127" points="274.119,218.955 315.15,65.216 307.879,31.457 
			278.273,143.124 		"/>
		<polyline fill="none" stroke="#000000" stroke-width="0.8564" points="362.414,197.66 412.448,32.842 315.15,65.216 		"/>
		<line fill="none" stroke="#000000" stroke-width="0.8564" x1="340.601" y1="124.427" x2="374.36" y2="7.045"/>
		<line fill="none" stroke="#000000" stroke-width="0.8564" x1="374.36" y1="7.045" x2="412.448" y2="32.842"/>
		<line fill="none" stroke="#000000" stroke-width="0.8564" x1="374.36" y1="7.045" x2="307.879" y2="31.457"/>
	</g>
	<g>
		<g>
			<defs>
				<rect id="SVGID_7_" x="308.349" y="220.54" width="23" height="24.8"/>
			</defs>
			<clipPath id="SVGID_8_">
				<use xlink:href="#SVGID_7_"  overflow="visible"/>
			</clipPath>
			<path clip-path="url(#SVGID_8_)" d="M318.391,242.833c0.316,1.166,1.32,1.906,2.553,1.906c1.004,0,1.664-0.657,2.123-1.572
				c0.488-1.029,0.862-2.773,0.862-2.83c0-0.287-0.261-0.287-0.347-0.287c-0.289,0-0.316,0.116-0.403,0.52
				c-0.403,1.611-0.95,3.57-2.159,3.57c-0.604,0-0.893-0.373-0.893-1.32c0-0.633,0.346-1.982,0.576-2.988
				c0.26-1.034,0.547-2.068,0.807-3.104c0.086-0.431,0.374-1.521,0.488-1.952c0.145-0.661,0.433-1.753,0.433-1.925
				c0-0.518-0.403-0.776-0.835-0.776c-0.145,0-0.893,0.028-1.123,1.006c-0.547,2.097-1.812,7.124-2.159,8.647
				c-0.028,0.114-1.18,2.412-3.28,2.412c-1.498,0-1.785-1.294-1.785-2.358c0-1.611,0.828-3.884,1.596-5.867
				c0.355-0.863,0.503-1.267,0.503-1.812c0-1.295-0.923-2.362-2.364-2.362c-2.736,0-3.803,4.177-3.803,4.436
				c0,0.288,0.29,0.288,0.348,0.288c0.291,0,0.319-0.058,0.465-0.522c0.725-2.526,1.826-3.602,2.93-3.602
				c0.261,0,0.726,0.032,0.726,0.952c0,0.69-0.323,1.524-0.499,1.955c-1.085,2.848-1.699,4.631-1.699,6.04
				c0,2.731,1.979,3.452,3.528,3.452C316.871,244.739,317.904,243.459,318.391,242.833"/>
			<path clip-path="url(#SVGID_8_)" d="M330.688,223.068c0.08-0.201,0.161-0.341,0.161-0.622c0-0.622-0.539-1.105-1.178-1.105
				c-0.797,0-0.995,0.667-1.075,0.93l-2.649,8.729c-0.021,0.061-0.101,0.302-0.101,0.343c0,0.218,0.618,0.4,0.776,0.4
				c0.16,0,0.22-0.101,0.299-0.301"/>
		</g>
		<g>
			<defs>
				<rect id="SVGID_9_" x="243.308" y="164.789" width="21" height="24.8"/>
			</defs>
			<clipPath id="SVGID_10_">
				<use xlink:href="#SVGID_9_"  overflow="visible"/>
			</clipPath>
			<path clip-path="url(#SVGID_10_)" d="M256.506,177.999c0-1.549-0.754-2.01-1.276-2.01c-0.726,0-1.422,0.751-1.422,1.384
				c0,0.374,0.148,0.546,0.478,0.863c0.627,0.574,1.017,1.322,1.017,2.358c0,1.208-1.767,7.796-5.152,7.796
				c-1.476,0-2.142-1.008-2.142-2.503c0-1.61,0.809-3.71,1.738-6.098c0.21-0.489,0.36-0.891,0.36-1.438
				c0-1.295-0.923-2.361-2.364-2.361c-2.708,0-3.803,4.177-3.803,4.436c0,0.288,0.29,0.288,0.348,0.288
				c0.29,0,0.319-0.058,0.465-0.522c0.841-2.933,2.088-3.602,2.93-3.602c0.231,0,0.726,0,0.726,0.923
				c0,0.72-0.297,1.496-0.505,2.014c-1.307,3.336-1.693,4.659-1.693,5.896c0,3.107,2.56,3.567,3.898,3.567
				c4.778,0,6.4-9.497,6.4-10.989"/>
			<path clip-path="url(#SVGID_10_)" d="M263.848,167.317c0.08-0.201,0.161-0.341,0.161-0.622c0-0.622-0.539-1.105-1.178-1.105
				c-0.797,0-0.995,0.667-1.075,0.93l-2.65,8.729c-0.02,0.061-0.1,0.302-0.1,0.343c0,0.218,0.617,0.4,0.776,0.4
				s0.22-0.101,0.299-0.301"/>
		</g>
		<g>
			<defs>
				<rect id="SVGID_11_" x="319.12" y="83.33" width="27" height="24.799"/>
			</defs>
			<clipPath id="SVGID_12_">
				<use xlink:href="#SVGID_11_"  overflow="visible"/>
			</clipPath>
			<path clip-path="url(#SVGID_12_)" d="M331.868,97.506c0.146-0.632,0.438-1.694,0.438-1.866c0-0.518-0.401-0.776-0.832-0.776
				c-0.344,0-0.859,0.229-1.061,0.805c-0.086,0.201-1.435,5.688-1.636,6.435c-0.2,0.862-0.258,1.38-0.258,1.896
				c0,0.316,0,0.373,0,0.518c-0.655,1.522-1.511,2.413-2.621,2.413c-2.279,0-2.279-2.129-2.279-2.618
				c0-0.92,0.145-2.041,1.507-5.579c0.319-0.863,0.493-1.267,0.493-1.841c0-1.295-0.952-2.362-2.364-2.362
				c-2.737,0-3.803,4.177-3.803,4.436c0,0.288,0.29,0.288,0.348,0.288c0.29,0,0.319-0.058,0.464-0.522
				c0.783-2.7,1.914-3.602,2.93-3.602c0.262,0,0.727,0.032,0.727,0.952c0,0.719-0.327,1.524-0.535,2.013
				c-1.308,3.395-1.664,4.718-1.664,5.811c0,2.619,1.923,3.625,4.074,3.625c0.488,0,1.836,0,2.984-1.994
				c0.746,1.822,2.725,1.994,3.586,1.994c2.151,0,3.414-1.809,4.16-3.53c0.976-2.238,1.895-6.083,1.895-7.46
				c0-1.578-0.776-2.01-1.264-2.01c-0.719,0-1.437,0.751-1.437,1.384c0,0.374,0.177,0.546,0.439,0.777
				c0.321,0.315,1.054,1.063,1.054,2.444c0,0.979-0.837,3.798-1.587,5.264c-0.75,1.525-1.759,2.531-3.172,2.531
				c-1.355,0-2.134-0.861-2.134-2.499c0-0.805,0.203-1.695,0.32-2.098"/>
			<path clip-path="url(#SVGID_12_)" d="M345.76,85.858c0.08-0.201,0.161-0.341,0.161-0.622c0-0.622-0.539-1.105-1.177-1.105
				c-0.797,0-0.996,0.667-1.076,0.93l-2.65,8.729c-0.02,0.061-0.1,0.302-0.1,0.343c0,0.218,0.618,0.4,0.777,0.4
				c0.158,0,0.219-0.101,0.299-0.301"/>
		</g>
		<g>
			<g>
				<line fill="none" stroke="#231F20" stroke-width="2" x1="277.641" y1="228.001" x2="356.185" y2="210.118"/>
				<polygon fill="#231F20" points="361.692,208.864 354.652,213.802 355.772,210.212 353.209,207.461 				"/>
			</g>
		</g>
		<g>
			<g>
				<line fill="none" stroke="#231F20" stroke-width="2" x1="283.641" y1="211.667" x2="320.308" y2="76.667"/>
				<polygon fill="#231F20" points="321.788,71.216 322.84,79.75 320.197,77.074 316.564,78.045 				"/>
			</g>
		</g>
		<g>
			<g>
				<line fill="none" stroke="#231F20" stroke-width="2" x1="265.308" y1="220.002" x2="270.308" y2="147.668"/>
				<polygon fill="#231F20" points="270.697,142.033 273.393,150.198 270.278,148.089 266.904,149.75 				"/>
			</g>
		</g>
	</g>
</g>
<g>
	<g>
		<polygon opacity="0.2" fill="#1B1F8A" enable-background="new    " points="37.518,218.955 125.813,197.66 103.999,124.427 
			41.673,143.124 		"/>
		<polygon fill="none" stroke="#000000" stroke-width="1.7127" points="37.518,218.955 125.813,197.66 103.999,124.427 
			41.673,143.124 		"/>
		<polyline fill="none" stroke="#000000" stroke-width="0.8564" points="78.55,65.216 71.278,31.457 41.673,143.124 37.518,218.955 
					"/>
		<polygon fill="none" stroke="#000000" stroke-width="0.8564" points="37.518,218.955 125.813,197.66 175.848,32.842 78.55,65.216 
					"/>
		<line fill="none" stroke="#000000" stroke-width="0.8564" x1="103.999" y1="124.427" x2="137.76" y2="7.045"/>
		<line fill="none" stroke="#000000" stroke-width="0.8564" x1="137.76" y1="7.045" x2="175.848" y2="32.842"/>
		<line fill="none" stroke="#000000" stroke-width="0.8564" x1="137.76" y1="7.045" x2="71.278" y2="31.457"/>
	</g>
	<g>
		<g>
			<defs>
				<rect id="SVGID_13_" x="72.041" y="220.54" width="23" height="24.8"/>
			</defs>
			<clipPath id="SVGID_14_">
				<use xlink:href="#SVGID_13_"  overflow="visible"/>
			</clipPath>
			<path clip-path="url(#SVGID_14_)" d="M82.083,242.833c0.316,1.166,1.32,1.906,2.553,1.906c1.004,0,1.664-0.657,2.123-1.572
				c0.488-1.029,0.862-2.773,0.862-2.83c0-0.287-0.261-0.287-0.347-0.287c-0.289,0-0.316,0.116-0.403,0.52
				c-0.403,1.611-0.95,3.57-2.159,3.57c-0.604,0-0.893-0.373-0.893-1.32c0-0.633,0.346-1.982,0.576-2.988
				c0.26-1.034,0.547-2.068,0.807-3.104c0.086-0.431,0.374-1.521,0.488-1.952c0.145-0.661,0.433-1.753,0.433-1.925
				c0-0.518-0.403-0.776-0.835-0.776c-0.145,0-0.893,0.028-1.123,1.006c-0.547,2.097-1.812,7.124-2.159,8.647
				c-0.028,0.114-1.18,2.412-3.28,2.412c-1.498,0-1.785-1.294-1.785-2.358c0-1.611,0.828-3.884,1.596-5.867
				c0.355-0.863,0.503-1.267,0.503-1.812c0-1.295-0.923-2.362-2.364-2.362c-2.736,0-3.803,4.177-3.803,4.436
				c0,0.288,0.29,0.288,0.348,0.288c0.291,0,0.319-0.058,0.465-0.522c0.725-2.526,1.826-3.602,2.93-3.602
				c0.261,0,0.726,0.032,0.726,0.952c0,0.69-0.323,1.524-0.499,1.955c-1.085,2.848-1.699,4.631-1.699,6.04
				c0,2.731,1.979,3.452,3.528,3.452C80.563,244.739,81.597,243.459,82.083,242.833"/>
			<path clip-path="url(#SVGID_14_)" d="M94.381,223.068c0.08-0.201,0.161-0.341,0.161-0.622c0-0.622-0.539-1.105-1.178-1.105
				c-0.797,0-0.995,0.667-1.075,0.93l-2.649,8.729c-0.021,0.061-0.101,0.302-0.101,0.343c0,0.218,0.618,0.4,0.776,0.4
				c0.16,0,0.22-0.101,0.299-0.301"/>
		</g>
		<g>
			<defs>
				<rect id="SVGID_15_" x="7" y="164.789" width="21" height="24.8"/>
			</defs>
			<clipPath id="SVGID_16_">
				<use xlink:href="#SVGID_15_"  overflow="visible"/>
			</clipPath>
			<path clip-path="url(#SVGID_16_)" d="M20.198,177.999c0-1.549-0.754-2.01-1.276-2.01c-0.726,0-1.422,0.751-1.422,1.384
				c0,0.374,0.149,0.546,0.478,0.863c0.627,0.574,1.017,1.322,1.017,2.358c0,1.208-1.767,7.796-5.151,7.796
				c-1.477,0-2.143-1.008-2.143-2.503c0-1.61,0.809-3.71,1.738-6.098c0.211-0.489,0.36-0.891,0.36-1.438
				c0-1.295-0.923-2.361-2.364-2.361c-2.707,0-3.803,4.177-3.803,4.436c0,0.288,0.29,0.288,0.348,0.288
				c0.291,0,0.319-0.058,0.465-0.522c0.841-2.933,2.088-3.602,2.93-3.602c0.232,0,0.727,0,0.727,0.923
				c0,0.72-0.297,1.496-0.506,2.014c-1.307,3.336-1.693,4.659-1.693,5.896c0,3.107,2.56,3.567,3.898,3.567
				c4.778,0,6.4-9.497,6.4-10.989"/>
			<path clip-path="url(#SVGID_16_)" d="M27.54,167.317c0.08-0.201,0.161-0.341,0.161-0.622c0-0.622-0.539-1.105-1.177-1.105
				c-0.797,0-0.996,0.667-1.076,0.93l-2.65,8.729c-0.02,0.061-0.1,0.302-0.1,0.343c0,0.218,0.617,0.4,0.777,0.4
				c0.158,0,0.219-0.101,0.299-0.301"/>
		</g>
		<g>
			<defs>
				<rect id="SVGID_17_" x="82.812" y="83.33" width="27" height="24.799"/>
			</defs>
			<clipPath id="SVGID_18_">
				<use xlink:href="#SVGID_17_"  overflow="visible"/>
			</clipPath>
			<path clip-path="url(#SVGID_18_)" d="M95.561,97.506c0.146-0.632,0.438-1.694,0.438-1.866c0-0.518-0.402-0.776-0.832-0.776
				c-0.344,0-0.86,0.229-1.062,0.805c-0.086,0.201-1.435,5.688-1.636,6.435c-0.2,0.862-0.258,1.38-0.258,1.896
				c0,0.316,0,0.373,0,0.518c-0.655,1.522-1.51,2.413-2.621,2.413c-2.279,0-2.279-2.129-2.279-2.618c0-0.92,0.145-2.041,1.507-5.579
				c0.319-0.863,0.493-1.267,0.493-1.841c0-1.295-0.952-2.362-2.363-2.362c-2.738,0-3.804,4.177-3.804,4.436
				c0,0.288,0.29,0.288,0.349,0.288c0.289,0,0.318-0.058,0.463-0.522c0.783-2.7,1.914-3.602,2.93-3.602
				c0.262,0,0.727,0.032,0.727,0.952c0,0.719-0.326,1.524-0.535,2.013c-1.308,3.395-1.664,4.718-1.664,5.811
				c0,2.619,1.924,3.625,4.074,3.625c0.488,0,1.836,0,2.984-1.994c0.746,1.822,2.725,1.994,3.586,1.994
				c2.152,0,3.414-1.809,4.16-3.53c0.976-2.238,1.895-6.083,1.895-7.46c0-1.578-0.775-2.01-1.264-2.01
				c-0.719,0-1.436,0.751-1.436,1.384c0,0.374,0.176,0.546,0.438,0.777c0.321,0.315,1.054,1.063,1.054,2.444
				c0,0.979-0.837,3.798-1.587,5.264c-0.75,1.525-1.759,2.531-3.172,2.531c-1.354,0-2.134-0.861-2.134-2.499
				c0-0.805,0.203-1.695,0.32-2.098"/>
			<path clip-path="url(#SVGID_18_)" d="M109.452,85.858c0.08-0.201,0.162-0.341,0.162-0.622c0-0.622-0.539-1.105-1.178-1.105
				c-0.797,0-0.996,0.667-1.076,0.93l-2.65,8.729c-0.02,0.061-0.1,0.302-0.1,0.343c0,0.218,0.618,0.4,0.777,0.4
				c0.158,0,0.219-0.101,0.299-0.301"/>
		</g>
		<g>
			<g>
				<line fill="none" stroke="#231F20" stroke-width="2" x1="41.333" y1="228.001" x2="119.877" y2="210.118"/>
				<polygon fill="#231F20" points="125.384,208.864 118.345,213.802 119.465,210.212 116.901,207.461 				"/>
			</g>
		</g>
		<g>
			<g>
				<line fill="none" stroke="#231F20" stroke-width="2" x1="47.333" y1="211.667" x2="84" y2="76.667"/>
				<polygon fill="#231F20" points="85.48,71.216 86.532,79.75 83.889,77.074 80.256,78.045 				"/>
			</g>
		</g>
		<g>
			<g>
				<line fill="none" stroke="#231F20" stroke-width="2" x1="29" y1="220.002" x2="34" y2="147.668"/>
				<polygon fill="#231F20" points="34.39,142.033 37.085,150.198 33.971,148.089 30.597,149.75 				"/>
			</g>
		</g>
	</g>
</g>
</svg>
