<?xml version="1.0" encoding="utf-8"?>
<!-- Generator: Adobe Illustrator 14.0.0, SVG Export Plug-In . SVG Version: 6.00 Build 43363)  -->
<!DOCTYPE svg PUBLIC "-//W3C//DTD SVG 1.1//EN" "http://www.w3.org/Graphics/SVG/1.1/DTD/svg11.dtd">
<svg version="1.1" id="Layer_1" xmlns="http://www.w3.org/2000/svg" xmlns:xlink="http://www.w3.org/1999/xlink" x="0px" y="0px"
	 width="204.5px" height="280px" viewBox="0 0 204.5 280" enable-background="new 0 0 204.5 280" xml:space="preserve">
<metadata><?xpacket begin="﻿" id="W5M0MpCehiHzreSzNTczkc9d"?>
<x:xmpmeta xmlns:x="adobe:ns:meta/" x:xmptk="Adobe XMP Core 4.2.2-c063 53.352624, 2008/07/30-18:05:41        ">
   <rdf:RDF xmlns:rdf="http://www.w3.org/1999/02/22-rdf-syntax-ns#">
      <rdf:Description rdf:about=""
            xmlns:pdf="http://ns.adobe.com/pdf/1.3/">
         <pdf:Producer>Adobe PDF library 6.66</pdf:Producer>
      </rdf:Description>
      <rdf:Description rdf:about=""
            xmlns:xmp="http://ns.adobe.com/xap/1.0/"
            xmlns:xmpGImg="http://ns.adobe.com/xap/1.0/g/img/">
         <xmp:CreateDate>2012-10-21T18:05:59-07:00</xmp:CreateDate>
         <xmp:ModifyDate>2012-10-21T18:05:59-07:00</xmp:ModifyDate>
         <xmp:CreatorTool>Adobe Illustrator CS4</xmp:CreatorTool>
         <xmp:MetadataDate>2012-10-21T18:05:59-07:00</xmp:MetadataDate>
         <xmp:Thumbnails>
            <rdf:Alt>
               <rdf:li rdf:parseType="Resource">
                  <xmpGImg:width>176</xmpGImg:width>
                  <xmpGImg:height>256</xmpGImg:height>
                  <xmpGImg:format>JPEG</xmpGImg:format>
                  <xmpGImg:image>/9j/4AAQSkZJRgABAgEASABIAAD/7QAsUGhvdG9zaG9wIDMuMAA4QklNA+0AAAAAABAASAAAAAEA&#xA;AQBIAAAAAQAB/+4ADkFkb2JlAGTAAAAAAf/bAIQABgQEBAUEBgUFBgkGBQYJCwgGBggLDAoKCwoK&#xA;DBAMDAwMDAwQDA4PEA8ODBMTFBQTExwbGxscHx8fHx8fHx8fHwEHBwcNDA0YEBAYGhURFRofHx8f&#xA;Hx8fHx8fHx8fHx8fHx8fHx8fHx8fHx8fHx8fHx8fHx8fHx8fHx8fHx8fHx8f/8AAEQgBAACwAwER&#xA;AAIRAQMRAf/EAaIAAAAHAQEBAQEAAAAAAAAAAAQFAwIGAQAHCAkKCwEAAgIDAQEBAQEAAAAAAAAA&#xA;AQACAwQFBgcICQoLEAACAQMDAgQCBgcDBAIGAnMBAgMRBAAFIRIxQVEGE2EicYEUMpGhBxWxQiPB&#xA;UtHhMxZi8CRygvElQzRTkqKyY3PCNUQnk6OzNhdUZHTD0uIIJoMJChgZhJRFRqS0VtNVKBry4/PE&#xA;1OT0ZXWFlaW1xdXl9WZ2hpamtsbW5vY3R1dnd4eXp7fH1+f3OEhYaHiImKi4yNjo+Ck5SVlpeYmZ&#xA;qbnJ2en5KjpKWmp6ipqqusra6voRAAICAQIDBQUEBQYECAMDbQEAAhEDBCESMUEFURNhIgZxgZEy&#xA;obHwFMHR4SNCFVJicvEzJDRDghaSUyWiY7LCB3PSNeJEgxdUkwgJChgZJjZFGidkdFU38qOzwygp&#xA;0+PzhJSktMTU5PRldYWVpbXF1eX1RlZmdoaWprbG1ub2R1dnd4eXp7fH1+f3OEhYaHiImKi4yNjo&#xA;+DlJWWl5iZmpucnZ6fkqOkpaanqKmqq6ytrq+v/aAAwDAQACEQMRAD8A9U4q7FXYqwLXfylGt6xd&#xA;aheeb/MkNvcvyXS7LUPqlpGlAOCpEgcg0PV++KoH/oXj8tJd7+LUtSbqWu9U1BiWPVvgmTfFXD/n&#xA;G78k/wBryxE7d3kuLt2J8SzTFj9JxVx/5xu/JT9nyzHG3Z47m7jcfJkmVh9BxV3/AELx+WsW+nx6&#xA;npjdQ1pqt+pDfzfHM+9NsVaP5LXtqK6P+YHmmyZdkjnvkvYVA6AR3EbHbb9rpiq1vK/59aXVtM86&#xA;6ZrwH2LfWtMFtsOzTWLqx+fDFWj5/wDzc0UD/EnkBtRt0/vb/wAuXkd0T/qWc4hmP/BYqmOhfnn+&#xA;Wuq3Y0+bUzourbc9M1mJ9OuFJNONLgIjN7KxxVnqsrKGUhlYVVhuCD3GKt4q7FXYq7FXYq7FXYq7&#xA;FXYq7FXYq7FXYq7FXYq7FXYq7FXYq7FUs17yx5d8w2hs9d0y11O27RXUSSgE915g8T7jFWASfkvq&#xA;Hl4m4/LXzLeeXCp5DRLpm1DSX78fQmLPDy7sjVHYYq6H839a8sSpZfmloZ0MMwjj8yafzu9GlYmg&#xA;5OAZrYsdgso964q9Msr2zvrWK8sp47q0nUPBcQuskbqejI6kqw9xiqtirsVdirsVdirsVdirsVdi&#xA;rsVdirsVdirsVdirsVdirsVYrq35oeSNH80WflfVb6Sy1nUZFhsIp7W7SKd348ViuTF9Xfdwu0mz&#xA;fD12xVG+bvO3lzyjp66jr801tYs3A3EVrdXSISQB6htopvT5FgF50qdhiqOsrvTdd0hbhYXk0+9R&#xA;gYL22lgZkqVIkt7lI5ADT9pNxv0OKvOL/wDKvX/KF1LrX5UXa2IdjLfeTrti2l3fdvQrvaSt2ZTx&#xA;6A0XFWS+QPzO0jzc11p7wS6P5n02i6t5evfhuYD/ADLsBLEajjIuxBHSoxVmOKuxV2KuxV2KuxV2&#xA;KuxV2KuxV2KuxV2KuxV2KuxV2KvF/wA1/I7+fl84taKTqfly1soNBkT7aajArajKEPZpYp4I8VTT&#xA;QPPEP5geT/IkqEGfWbyKfVoloPTfSAbmeo7L9bt4lH+S4xVn8nmjRY/NEPlhrgDWp7N9Qjtu/wBX&#xA;jkWIt9LNsPY+GKprirCfzF/LeLzKLfWdIuP0R500n49F1yMfEpFT6E4/3ZBJUhlNevzBVVPyy8/S&#xA;ea9LurfU7X9G+adEm+peYdK/3zcAVV46k1hmA5RtXp3NK4qzLFXYq7FXYq7FXYq7FXYq7FXYq7FX&#xA;Yq7FXYq7FULqd89jYS3SWk988QBW0tQjTOSQKIHaNe/dhirGPywbV30i/m1jSLrSNTvNQu725iuj&#xA;C3ITzMYQjQyShvTt1jjNadMVYx+XH5W6h5T/ADN826kTw8sTE3Pl+Kq+nHJqRSTUAqA/Bwe0iUV/&#xA;ZpTvir541v8AMbzbJ/zkbD51ttPvJbWF/UsLNIpDJNocQaGSWOMDkUkiEktaEAnl0GKvty3nhuII&#xA;7iB1lgmVZIpFNVZGFVYEdQQcVX4q8r89QDyr+a3lTznaj07bzDMPLHmBF6SNcAvYSsOnJJU4cqfZ&#xA;IFcVeqYqkvm7zXY+V9H/AEld29zeF5ora1sbKMTXNxPM3FIoULICx67sNgcVYfqn53RaVrGk6Nfe&#xA;TfMMWqa4ZRpdoE013l9ABpdkvm4hQ1avTFWQeXfPy6v5iufL9zoOqaLqNtai9pqKWvpyRNIYqxyW&#xA;1xcqx5DFWVYq7FXYq7FXYq7FXYq7FXYq7FXYq7FXYq4gEUO4PUYq8A1n/wBbJ0H/ALYb/wDJq5xV&#xA;7+AAKDYDoMVdirzT8/6HyhpUabXkmv6Qtif+LzeJTbv8PLtir0vFUBeaZp99qNjczn1LjSZGnt4w&#xA;2ySSxPD6jL4+nI6r8ziryyz/AOdj/wCcnr6f7Vp5I0SO2Wm4W91E86/MwSMp+WKvVk0mzTWJdXAY&#xA;3s1vHaMxPwiKJ5JAAvYlpTU/LFUZirsVdirsVdirsVdirsVdirsVdirsVdirsVeAaz/62ToP/bDf&#xA;/k1c4q9/xV2KvL/PUn+JPzZ8neUoKSW+hO/mnWqf7rNuDBYLUftNNIzcT2FcVeMf85EfnN5sl8zX&#xA;Pl/yL5muJ7KzidtWi0u3Ea25QhWBvUd5XKk0fjxUEgVJ2Cr2j8o/JWveRPyytIIrNdT806i41DWl&#xA;urgwE3FwByV5ik7ViRVToakE98VUPyo8o+f/AC95j8zal5g06xaTzTqT39xe2168jQQqp9C3ETW6&#xA;c/T5FeXMdemKvVsVdirsVdirsVdirsVdirsVdirsVdirsVdirsVeAaz/AOtk6D/2w3/5NXOKvf8A&#xA;FUk86+cNG8n+Wb7zDq8nCzsk5cF+3LIdo4ox3d2IUf0xV8l+W/M/5j/mLqWs6J5OUxaz5pnF15z8&#xA;zAkRWtqAY7ewhkAqsMEVVqPikbkF+AcmVfS35a/k95P8heXDo9hbLdzXARtUv7hFMl1IhqC4NQqK&#xA;fsINh7mpKrOcVdirsVdirsVdirsVdirsVdirsVdirsVdirsVdirsVeAaz/62ToP/AGw3/wCTVzir&#xA;3PWdZ0rRNLudV1a6jstOs0MlzdTNxRFG258STQAbk7DfFXynrUnnL/nJLzmtrpIl0n8uNFlI+uSq&#xA;QGbblIV6SXDqfgStEXr1PJV9M+R/IvlryToEOh+X7UW9pF8UkhoZZpKANLM4A5u1Ov0CgoMVT/FX&#xA;Yq7FXYq7FXYq7FXYq7FXYq7FXYq7FXYq7FXYq7FXYq+bfPFjPf8A/OX/AJds4b64015tIal5ZmMT&#xA;Jwgu3HH1UljNSu4ZCCMVTr8xfyn81ecvPHlzyz5j84TXvllra81Kezjto7WRxYS20REhhIjkkk+u&#xA;qA/ABADxWpxV7ToOgaP5f0i20jRrSOy060QRwW8QoAB3PdmPUsdydziqPxV2KuxV2KuxV2KqLXtm&#xA;t4lk08a3kqNLHbF1ErRoQrOqV5FVLAE074qrYq7FXYq7FXYq7FXYq7FXYq7FXYqkXnPzv5c8m6K+&#xA;r67dCC3B4QQqOc08p+zFBGN3duwHzNBvir5w1X8o/wA+/OPn1vzN0yaDyve3H7zSrW9uZPrdrAkf&#xA;pRxOiQyIpkSpZOnxHl3xVGjzt/zkZ5N8yWes+efKT+ZbbTbO8skvtMVATHey20ryu1qsqDgbJeIa&#xA;JOpqemKs88rf85XflJrTLBfXc+gXhPEw6jEVTl3/AH0Xqxge7lcVeraTrejaxard6Rf2+o2jfZuL&#xA;WVJozX/KjLDFUbirsVdirsVdirzv83/Kmq3NrYecvLCV83+VHa6so12+uWpH+lWL0FSJY68f8rpS&#xA;uKsr8nea9J82eWdP8w6U/Oy1CISID9pG+zJE9P243BVvcYqnOKuxV2KuxV2KuxV2KuxV2KsG8+/m&#xA;lZ+XryLy/otm/mDzrfLWw0C1I5KD/u66k+zBCK7s36qkKoLyd+V16Naj84+fbxNd840P1VVB+oaa&#xA;rb+lYxN0PjKRyP31VejYq7FWN+afy28heakYeYNCs7+RtvrDxBZwP8mdOMq/Q2KvKdW/5xH8uQXZ&#xA;1HyP5h1PypqA/u2hlaaNabgKQ0U4/wCRpxVBfVv+cuPJFTDPYeetMiqQknH6xw9+X1WYv7BpPpxV&#xA;C6p/zltfaZpd3Z6/5Rv/AC35oSMtYx3KNJayyx/FxkEgtpVSSnGqhqVrXvir1D8pfzr8p/mTpvPT&#xA;3+p6zAga/wBGmYGaPoC6Hb1Y6nZwPmFO2Ktfmt598zeUrjy9Do1pZX0nmDUYNJht7lpVkEs5b97V&#xA;NvTQAcvniqE8++f/AD95C0A+ZtasNL1DRbWaKPUIrKWeK5WOZxEHi9VWRyruPh2+eKvTcVeR2dfy&#xA;z/NE6eR6fknz7cGSx7R2WuEVeEbUVLxRVRX7QoAADir1zFXYq7FXYq7FXYq7FWmZVUsxCqoqzHYA&#xA;DucVeU6p+YfmXzvqU/lz8ryiWcD+jq/nmZfUs7Y/tR2KHa5np3+wPp5BVl/kT8uvLvkyylj05JLj&#xA;UbxvU1TWbtvWvbyU7l55m+I79FGw8OuKsoxV2KuxV2KuxV2Ksd87+QfLnnbTYtL8wxzXGmxyCZrS&#xA;KaSBJHX7PqGIo7Bd6DlTv1pRVKPLX5H/AJVeWdQt9R0Ty/DaX9q3K3ujJPLIhoRUNLI56HFWJed4&#xA;9S8y/wDOQXlbRdNnhi/wppd1rc8lxC1xCJrphbRq8aS27Florr8Yp133xVAfmrBqUPnbyPZeeLyL&#xA;zD5Y1rU0tItFtYTYRR3xZRBcTIZLl7mNTJRkaQKPBq4q91xVj/n7yZp3nLypfaBfExi5TlbXK15w&#xA;XCfFDOhBB5RuAeu/TviqS/lF5y1HXtBuNM18CPzd5bmOmeYIf5pox+7uV8UuEHMEbE1ptirOsVdi&#xA;rsVdirsVS3zF5k0Py3pFxrGuXkdhp1svKW4lNB7KoFSzHsqip7Yq8wWw83/m84m1VLnyz+Wjbw6X&#xA;Uxalq6dQ1yRvBbOOiA8mHzUhV6vpWk6ZpGnW+m6Zax2VhaoI7e1hUJGijsFGKorFXYq7FXYq7FXY&#xA;q7FXYqtmErROImCSlSI3ZeShqbEqCtQD2qMVeb6V+V3m/TfN2tea4vNVvLq2uR28N00ul1SOO1Xi&#xA;iQqLpeIPVqk1OKpjYfles3my182eatWl8wazpwddIjMSWtlZh/tNDboXrIe7yOx6eAxVnOKuxV5P&#xA;+Z0Mvkjzbp/5p2Ebfo+iaX51gjBJksZGAhu+I6vbSEVPUrt0xV6rDNFPDHNC6yQyqHjkUgqysKhg&#xA;R1BGKr8VdirsVYn5/wDzI0TybbW6TpJqOuag3paPoNoOd3dy+CIK8UH7TnYfOgKrG/Ln5a655g1i&#xA;383/AJnPHeapATJo3lmI8tO0wHoePSe4/mkbavTotFXqGKoDXtd0rQdGvNZ1WdbbTrGJprmZt6Kv&#xA;gBuzE7Ko3J2GKofyrqmr6ro0Wo6nYfoyS7Jlt7F25TR27bxevtRZSu7qK8T8NTTFUj8+fmx5Z8jM&#xA;r+YLfUIrJuAOpQ2kstqrycuKGVRTl8HTFUVp/nK+17y/eaj5e0e7S8hRJLO11iGTT1ueXx8UdwxH&#xA;JRQPxoCRXbFUx8peadN80aHBq9hzRJC8VxazDjPb3ETFJreZP2ZI3BVh9I2piqcYq7FXYq7FXYq7&#xA;FXYq7FXYqh9R0+z1LT7nTr6JZ7K8ieC5hb7LxyKVdT81OKvNfyd1C90G/wBV/K3WZmlvvLdJ9CuZ&#xA;ftXWizNSBx4mBv3T+GwxV6lirsVefef/AMzrjTdTi8oeULRdc89XqcorLlS3sojt9avpB9iNa14/&#xA;abYdxiqI/L/8r7by7dXHmDWrtte87akAdS12cbqKf3FqnSGFegVevfagCqQ+Zf8AnJf8udC1i500&#xA;x6jqcdjJ6Oo6np1sJ7O2kBAZZJi6VK134BvDrirP7nzZocOhWmuJP9Z0/UDbLYPAOZnN66pAI12r&#xA;yMgPsNz0xVg/5oS/pr8wfIXkhvisLq6n1vVo+zxaWgkt43H7SPcEVB/lxV6hirwP/nJcnzF5o/Lz&#xA;8vU+OPV9UF5qEY7QQkR8iP8AjHJMf9jir3wAAUGwHQYq8u8vzHy/+ffmHy/GeOn+aNLh8wwxD7CX&#xA;kEn1O44j+aVVV28aYq9RxV2KuxV2KuxV2KuxV2KuxV2KvMvzp0m/sINN/MbQ4mk1rye7T3NvHs11&#xA;pclBe25+Uf7xa/Zoab4q9B0bVrDWNJs9W0+UTWN/DHcW0o/ajlUMp+44qwH8wPzA16fWf8Cfl8iX&#xA;Xm6ZVbUdRcc7TSLd/wDd9waFTKR/dxHr1I6BlWQ/l/8Al3ovkrTJYLNpLvUr5/rGsaxcnndXlwft&#xA;SSuamlSeK1oK+JJKrIdRtGvNPurNJ5LVrmGSFbqAgSxGRSokjLBhyWtRUdcVQuh+W9F0PQrbQtNt&#xA;Y4dLtYhBHb8QVK0o3Pb4i/ViftHc4q8x/LvSjL5wu/LKRcPL35fX13LYIa8DcanWW1jWvUWdtPKv&#xA;tzX+XFUTrdIv+cmPLbzLVLjy5eQ2zGm0qT83pXvwxV6virwLRP8AnbP+ctNX1A/vLLyVpa2lu/UC&#xA;4lXiy/OtzOP9jir33FXlOvUf/nJPysiCrw+X7+SXbojyhFJP+ttir1bFXYq7FXYq7FXYq7FXYq7F&#xA;XYq06I6MjqGRgQykVBB2IIOKvD5JfMPkW3P5V+SrtNR1/Vrq5udDBQ8dD0iduTS3LEsH9J2f0gQK&#xA;nx2UqvSvy98gaP5J0L9G2LyXV1cSG51TU7glri8un/vJpWJJqT0Fdh9JKrJ8VdirsVYJ+TdwdS8s&#xA;XnmVk4HzLql9qUYpubczG3tST3/0a3j38MVS785LG40698sfmFaxtKfJ9476okYLP+ir1PQvHCjd&#xA;vSXjJTwBOKs51WybW9IEdhq1zpq3ASWLUdOMBlKbMODTxXEfFx349MVYb5R/JLR/KfmG613SNf1o&#xA;XepTCfWEnmtpY71wzNWflbcusjH4GU74q9FxV5h+XsR8y/mT5o/MEDlpaxR+XPLs/aa2tJDJdzId&#xA;w0b3VQjDrxxV6firsVdirsVdirsVdirsVdirsVY3+Yfna08m+VbrWpojc3AKwadYp/eXN5MeEECA&#xA;VNXfrToKntiry2+8s+b/AMvfI58/PdNd+b21C31jz1wVW+s2NSk1lEWDFI7WKSqcTT4SfABV7hZ3&#xA;lte2cF5aSCa1uY0mglX7LxyKGVh7EGuKq2KuxVp0SRGjcBkcFWU9CDsQcVUNN06x0zT7bTrCBLax&#xA;s40gtreMURI4xxVVHgAMVVpI45Y2jkUPG4KujAFWUihBB6g4qlvlvy3pvl3TRpemeomnxyO9tbO5&#xA;dYFc8vRirusSmvBa/CNhtQBVNMVQWt6Rb6xpVzplzJNFbXa+nO1vIYpDGSOaCRfiXmvwkrvQ7EHf&#xA;FVaxsbKwsoLGxgS2s7ZFit7eJQiIiCiqqjYADFVfFXYq7FXYq7FXYq7FXYq7FXYq8u1CP/Fv55W9&#xA;hN8ejeQbOPUJYf2W1bUOQtyw6fubdGdT2Y4q9KvrK0v7G4sbuMTWt3E8FxE3R45FKup+ammKvO/y&#xA;DvLqHyheeVb6RpL7ybqNzobyOfikggbnayf6pgkVV+WKvS8VdirsVdirsVdirsVdirsVdirsVdir&#xA;sVdirsVdirsVdirjXtirzP8ALhwv5q/mjBLvdi90uVj1Jhk09fRHjtwYYq9LKqeoxV5l+Xg5/m3+&#xA;aUlsxFn9Y0hBT7JuUsP39Nqd0B98VelkzDsHHtscVa+sINnBQ+42+/FVQMrCoNR4jFXYq7FXYq7F&#xA;XYq7FXYq7FXYq7FXYq7FXYq7FXYq7FXknny4l8gfmND+YMkMknlXWLSPSvNEkCGRrSWFy1pfOqgs&#xA;UAYxv4DxNBiqaeYvz48g6fpYbRtSt/MuuXVI9K0XSZFu7i4ncfAhWEuYx/MXpQeJ2xVMvyk8n6n5&#xA;b8ryPrbrL5l1u7m1fXpE3QXd0QWjTr8MSBUG9NtsVZririK9cVUmtoyarVG8VNMVWn63H4TL/wAC&#xA;39MVbiu4ZG4VKSfyNscVVsVdirsVdirsVdirsVdirsVdirsVdirsVdirTojoyOoZGBDKRUEHYgg4&#xA;qlFr5Y8t6RMb3S9Js7G46Sy21vFC7ITuCyKpOKpwCCKjpirsVdirsVdiqyWCKZeMihh2PcfI4qhi&#xA;Lu13Qm4gHVD9sD2PfFURBcRTx84m5Dv4g+BxVUxV2KuxV2KuxV2KuxV2KuxV2KuxV2KuxVbIvKNh&#xA;4gjFVlq3K2jP+SPwxVVxV2KuxV2KuxV2KoO6tpI3N3aikw/vI+0g8Pn4YqiLeeOeFJozVXFR/TFV&#xA;TFXYq7FXYq7FXYq7FXYq7FXYq7FXYqtmbjE7fyqT9wxVZZilrEP8kH798VVcVdirsVdirsVdirsV&#xA;QNh+7vL23H2EdZFHh6i1P4jFUdirsVdirsVdirsVdirsVdirsVdirsVQ2oMfQES/bmYRr9J3/DFU&#xA;SAAAB0GwxV2KuxV2KuxV2KuxV2KpfpJ9Zrq8/ZuJf3Z8UjHFT+GKphirsVdirsVdirsVdirsVdir&#xA;sVdirsVQaH6xqDMN47UcR7yN1+4YqjMVdirsVdirsVdirsVS7U55JXXTbY0nnFZnH+64u5+Z6DFU&#xA;fDFHDEkUY4ogCqPYYquxV2KuxV2KuxV2KuxV2KuxV2KuxVD31z9XtyyisrHhEvi56Yq3ZW31e3WM&#xA;mr9ZG8WO5OKq+KuxV2KuxV2KuxVA6jqRgZba2X1r6X+7iHRR/O/goxVfp1gLWNmdvUuZjyuJj1Zv&#xA;b2HbFUXirsVdirsVdirsVdirsVdirsVdirsVS+A/XL5rjrb2xKQ+DP8AtN9HTFUwxV2KuxV2KuxV&#xA;2KpXc6rNPM1npaiWcbS3B/uovme59sVROn6bFZqx5GW4k3muH3Zz/T2xVF4q7FXYq7FXYq7FXYq7&#xA;FXYq7FXYq7FUHqlxJHAsMP8AvRcN6UXtXq30DFURbW8dvAkMYoiCg/riqpirsVdirsVQ97qFpZR8&#xA;7iQLX7K9WY+CqNziqX+nqeq/3waxsD/uof30g/yj+wPbFUztrW3toVhgQRxr0UfrOKquKuxV2Kux&#xA;V2KuxV2KuxV2KuxV2KuxV2KpeP32uGv2bWEcR/lSnc/cKYqmGKuxV2KqF3f2dmnO5lWJe1TufkOp&#xA;xVAfXtVvxSwh+qwH/j7uB8RH+RH/ABOKq9lo1rbSeu5a4uz9q5lPJv8AY9l+jFUfirsVdirsVdir&#xA;sVdirsVdirsVdirsVdirsVdiqWXhlstQ+vLG0ttKgjuBGOTKVNVencb74q7/ABJov/LRv/Lwev3c&#xA;a4q4620m1nZXE5PRivpJ/wAE9P1Yq0Ydeuv72aOxiP7EI9SSngXagH0DFVa00WwtpPVCGa47zzH1&#xA;HJ8anp9GKo7FXYq7FXYq7FXYq7FXYq7FXYq7FXYq7FXYq7FX/9k=</xmpGImg:image>
               </rdf:li>
            </rdf:Alt>
         </xmp:Thumbnails>
      </rdf:Description>
      <rdf:Description rdf:about=""
            xmlns:xmpMM="http://ns.adobe.com/xap/1.0/mm/"
            xmlns:stRef="http://ns.adobe.com/xap/1.0/sType/ResourceRef#"
            xmlns:stEvt="http://ns.adobe.com/xap/1.0/sType/ResourceEvent#">
         <xmpMM:DocumentID>xmp.did:F87F11740720681197A5D8210BC9AAE2</xmpMM:DocumentID>
         <xmpMM:InstanceID>xmp.iid:F87F11740720681197A5D8210BC9AAE2</xmpMM:InstanceID>
         <xmpMM:OriginalDocumentID>uuid:80142c63-f1d4-11e0-80fc-000d93c1fb48</xmpMM:OriginalDocumentID>
         <xmpMM:DerivedFrom rdf:parseType="Resource">
            <stRef:instanceID>uuid:80143326-f1d4-11e0-80fc-000d93c1fb48</stRef:instanceID>
            <stRef:documentID>uuid:80142c63-f1d4-11e0-80fc-000d93c1fb48</stRef:documentID>
            <stRef:originalDocumentID>uuid:80142c63-f1d4-11e0-80fc-000d93c1fb48</stRef:originalDocumentID>
         </xmpMM:DerivedFrom>
         <xmpMM:History>
            <rdf:Seq>
               <rdf:li rdf:parseType="Resource">
                  <stEvt:action>saved</stEvt:action>
                  <stEvt:instanceID>xmp.iid:F87F11740720681197A5D8210BC9AAE2</stEvt:instanceID>
                  <stEvt:when>2012-10-21T18:05:59-07:00</stEvt:when>
                  <stEvt:softwareAgent>Adobe Illustrator CS4</stEvt:softwareAgent>
                  <stEvt:changed>/</stEvt:changed>
               </rdf:li>
            </rdf:Seq>
         </xmpMM:History>
      </rdf:Description>
      <rdf:Description rdf:about=""
            xmlns:xmpRights="http://ns.adobe.com/xap/1.0/rights/">
         <xmpRights:Marked>True</xmpRights:Marked>
      </rdf:Description>
      <rdf:Description rdf:about=""
            xmlns:dc="http://purl.org/dc/elements/1.1/">
         <dc:format>image/svg+xml</dc:format>
         <dc:title>
            <rdf:Alt>
               <rdf:li xml:lang="x-default">DDG Frenet</rdf:li>
            </rdf:Alt>
         </dc:title>
         <dc:rights>
            <rdf:Alt>
               <rdf:li xml:lang="x-default">This work is licensed under a Creative Commons Attribution-NonCommercial-NoDerivs 3.0 Unported License.</rdf:li>
            </rdf:Alt>
         </dc:rights>
         <dc:creator>
            <rdf:Seq>
               <rdf:li>Keenan Crane</rdf:li>
            </rdf:Seq>
         </dc:creator>
      </rdf:Description>
      <rdf:Description rdf:about=""
            xmlns:xmpTPg="http://ns.adobe.com/xap/1.0/t/pg/"
            xmlns:stDim="http://ns.adobe.com/xap/1.0/sType/Dimensions#"
            xmlns:xmpG="http://ns.adobe.com/xap/1.0/g/">
         <xmpTPg:HasVisibleOverprint>False</xmpTPg:HasVisibleOverprint>
         <xmpTPg:HasVisibleTransparency>True</xmpTPg:HasVisibleTransparency>
         <xmpTPg:NPages>1</xmpTPg:NPages>
         <xmpTPg:MaxPageSize rdf:parseType="Resource">
            <stDim:w>2.840278</stDim:w>
            <stDim:h>3.888889</stDim:h>
            <stDim:unit>Inches</stDim:unit>
         </xmpTPg:MaxPageSize>
         <xmpTPg:PlateNames>
            <rdf:Seq>
               <rdf:li>Cyan</rdf:li>
               <rdf:li>Magenta</rdf:li>
               <rdf:li>Yellow</rdf:li>
               <rdf:li>Black</rdf:li>
            </rdf:Seq>
         </xmpTPg:PlateNames>
         <xmpTPg:SwatchGroups>
            <rdf:Seq>
               <rdf:li rdf:parseType="Resource">
                  <xmpG:groupName>Default Swatch Group</xmpG:groupName>
                  <xmpG:groupType>0</xmpG:groupType>
               </rdf:li>
            </rdf:Seq>
         </xmpTPg:SwatchGroups>
      </rdf:Description>
   </rdf:RDF>
</x:xmpmeta>
                                                                                                    
                                                                                                    
                                                                                                    
                                                                                                    
                                                                                                    
                                                                                                    
                                                                                                    
                                                                                                    
                                                                                                    
                                                                                                    
                                                                                                    
                                                                                                    
                                                                                                    
                                                                                                    
                                                                                                    
                                                                                                    
                                                                                                    
                                                                                                    
                                                                                                    
                                                                                                    
                           
<?xpacket end="w"?>
	</metadata>
<g>
	<defs>
		<filter id="Adobe_OpacityMaskFilter" filterUnits="userSpaceOnUse" x="21.314" y="164.724" width="105.36" height="99.87">
			<feColorMatrix  type="matrix" values="1 0 0 0 0  0 1 0 0 0  0 0 1 0 0  0 0 0 1 0"/>
		</filter>
	</defs>
	<mask maskUnits="userSpaceOnUse" x="21.314" y="164.724" width="105.36" height="99.87" id="SVGID_13_">
		<g filter="url(#Adobe_OpacityMaskFilter)">
			
				<linearGradient id="SVGID_1_" gradientUnits="userSpaceOnUse" x1="96.0645" y1="17.7974" x2="53.0644" y2="114.7973" gradientTransform="matrix(1 0 0 -1 0 280)">
				<stop  offset="0" style="stop-color:#FFFFFF"/>
				<stop  offset="1" style="stop-color:#000000"/>
			</linearGradient>
			<rect x="16" y="160" fill="url(#SVGID_1_)" width="118.5" height="110.5"/>
		</g>
	</mask>
	
		<path opacity="0.3" mask="url(#SVGID_13_)" fill="none" stroke="#000000" stroke-width="1.7616" stroke-miterlimit="10" enable-background="new    " d="
		M21.493,165.586c0,0,38.52,7.984,39.459,34.76c0.939,26.777-27.716,49.324-19.26,61.069c8.456,11.744,82.677-23.957,84.086-52.144
		c1.41-28.187-90.663-42.277-90.663-42.277"/>
	<path fill="none" stroke="#000000" stroke-width="1.7127" stroke-miterlimit="10" d="M55.056,151.533
		C43.86,128.987,25.251,100.29,25.251,100.29"/>
	<path fill="none" stroke="#000000" stroke-width="1.7127" stroke-miterlimit="10" d="M46.39,17.143c0,0,54.491-9.395,93.012,18.79
		c38.52,28.185-16.907,62.592-42.278,82.677c-13.422,10.626-49.713,36.908-49.793,54.962c-0.08,18.054,15.032,15.972,15.971,1.408
		c0.235-3.638-2.021-10.119-5.54-17.797"/>
	<circle cx="126.977" cy="95.529" r="2.401"/>
	<polygon fill="#FFFFFF" points="161.909,64.295 160.401,67.386 160.099,65.912 158.67,65.446 	"/>
	<line fill="none" stroke="#000000" stroke-width="3" stroke-miterlimit="10" x1="126.86" y1="95.398" x2="160.339" y2="65.929"/>
	<polygon points="165.281,61.285 160.755,70.559 159.848,66.137 155.556,64.737 	"/>
	<polygon points="176.244,109.578 165.988,110.721 169.236,107.587 168.12,103.213 	"/>
	<path d="M83.722,142.562c1.179-3.495,4.474-3.525,4.807-3.525c4.563,0,4.896,5.287,4.896,7.674c0,1.844-0.151,2.355-0.364,2.961
		c-0.669,2.205-1.58,5.71-1.58,6.495c0,0.333,0.15,0.544,0.39,0.544c0.39,0,0.631-0.666,0.961-1.814
		c0.69-2.539,0.991-4.262,1.111-5.198c0.06-0.394,0.12-0.786,0.241-1.179c0.969-2.994,2.906-7.498,4.116-9.887
		c0.213-0.363,0.576-1.028,0.576-1.149c0-0.303-0.302-0.303-0.361-0.303c-0.091,0-0.271,0-0.361,0.213
		c-1.563,2.872-2.767,5.896-3.97,8.948c-0.033-0.938-0.063-3.234-1.242-6.166c-0.726-1.845-1.934-3.326-4.019-3.326
		c-3.78,0-5.894,4.62-5.894,5.562c0,0.304,0.271,0.304,0.574,0.304"/>
	<path d="M109.729,157.504c0-0.092,0-0.15-0.517-0.664c-3.791-3.807-4.763-9.517-4.763-14.139c0-5.255,1.154-10.514,4.884-14.289
		c0.396-0.362,0.396-0.422,0.396-0.513c0-0.211-0.121-0.309-0.305-0.309c-0.303,0-3.037,2.061-4.828,5.898
		c-1.55,3.322-1.914,6.675-1.914,9.213c0,2.355,0.334,6.012,2.005,9.425c1.823,3.717,4.435,5.681,4.739,5.681
		C109.608,157.807,109.73,157.716,109.729,157.504"/>
	<path d="M122.812,131.925c0.271-1.088,0.361-1.39,2.747-1.39c0.725,0,0.967,0,0.967-0.567c0-0.359-0.334-0.359-0.453-0.359
		c-0.876,0-3.108,0.091-3.984,0.091c-0.905,0-3.108-0.091-4.015-0.091c-0.212,0-0.604,0-0.604,0.599
		c0,0.328,0.271,0.328,0.846,0.328c1.269,0,2.083,0,2.083,0.574c0,0.151,0,0.213-0.061,0.484l-4.076,16.291
		c-0.271,1.119-0.362,1.42-2.748,1.42c-0.693,0-0.966,0-0.966,0.598c0,0.328,0.362,0.328,0.453,0.328c0.875,0,3.079-0.09,3.953-0.09
		c0.905,0,3.141,0.09,4.047,0.09c0.24,0,0.603,0,0.603-0.567c0-0.356-0.242-0.356-0.906-0.356c-0.544,0-0.693,0-1.298-0.062
		c-0.633-0.06-0.755-0.183-0.755-0.515c0-0.242,0.061-0.482,0.122-0.694"/>
	<path d="M135.929,142.701c0-2.357-0.333-6.013-2.001-9.425c-1.818-3.716-4.425-5.686-4.728-5.686c-0.183,0-0.304,0.127-0.304,0.309
		c0,0.09,0,0.151,0.575,0.694c2.964,2.991,4.689,7.793,4.689,14.107c0,5.165-1.12,10.481-4.871,14.289
		c-0.394,0.362-0.394,0.422-0.394,0.514c0,0.183,0.121,0.302,0.304,0.302c0.303,0,3.031-2.054,4.818-5.891
		C135.564,148.592,135.929,145.238,135.929,142.701"/>
	<polygon fill="#FFFFFF" stroke="#000000" points="127.859,94.398 134.938,96.565 134.936,88.796 127.859,86.731 	"/>
	<g>
		<g>
			
				<line fill="none" stroke="#000000" stroke-width="3" stroke-miterlimit="10" x1="126.938" y1="95.399" x2="126.923" y2="50.798"/>
			<polygon points="126.92,43.384 131.192,53.83 126.923,51.352 122.656,53.833 			"/>
		</g>
	</g>
	<line fill="none" stroke="#000000" stroke-width="3" stroke-miterlimit="10" x1="126.859" y1="95.398" x2="169.675" y2="107.891"/>
	<path d="M175.591,52.759c0.16-0.644,0.253-0.782,0.527-0.851c0.208-0.046,0.967-0.049,1.45-0.049c2.322,0,3.357,0.092,3.357,1.889
		c0,0.345-0.092,1.242-0.184,1.84c-0.023,0.093-0.069,0.368-0.069,0.438c0,0.137,0.069,0.298,0.276,0.298
		c0.252,0,0.299-0.185,0.345-0.529l0.621-4.001c0.022-0.092,0.046-0.322,0.046-0.391c0-0.254-0.229-0.271-0.621-0.271h-12.763
		c-0.553,0-0.574,0.024-0.736,0.479l-1.38,4.047c-0.022,0.047-0.138,0.369-0.138,0.414c0,0.138,0.115,0.254,0.276,0.254
		c0.23,0,0.253-0.115,0.392-0.483c1.241-3.565,1.84-3.982,5.243-3.982h0.896c0.645,0,0.645,0.093,0.645,0.279
		c0,0.138-0.069,0.414-0.092,0.483l-3.081,12.281c-0.208,0.85-0.276,1.095-2.737,1.095c-0.828,0-0.966,0.01-0.966,0.445
		c0,0.276,0.253,0.276,0.391,0.276c0.622,0,1.265-0.046,1.886-0.046c0.645,0,1.311-0.023,1.955-0.023s1.288,0.023,1.908,0.023
		c0.667,0,1.357,0.046,2.002,0.046c0.229,0,0.505,0,0.505-0.46c0-0.253-0.185-0.262-0.781-0.262c-0.575,0-0.874,0.01-1.473-0.037
		c-0.666-0.069-0.851-0.137-0.851-0.506c0-0.022,0-0.138,0.093-0.483"/>
	<path d="M121.78,38.818c0.229-0.919,0.645-1.633,2.483-1.701c0.115,0,0.391-0.023,0.391-0.461c0-0.022,0-0.271-0.299-0.271
		c-0.759,0-1.563,0.069-2.323,0.069c-0.781,0-1.586-0.069-2.345-0.069c-0.138,0-0.414,0.018-0.414,0.478
		c0,0.254,0.23,0.243,0.414,0.243c1.311,0.023,1.563,0.511,1.563,1.021c0,0.069-0.046,0.414-0.069,0.483l-2.575,10.234
		l-5.083-12.004c-0.184-0.414-0.207-0.455-0.735-0.455h-3.081c-0.461,0-0.668,0.018-0.668,0.478c0,0.254,0.207,0.243,0.645,0.243
		c0.114,0,1.564,0.009,1.564,0.216l-3.082,12.349c-0.23,0.92-0.622,1.656-2.484,1.726c-0.138,0-0.39,0.023-0.39,0.46
		c0,0.161,0.114,0.253,0.299,0.253c0.735,0,1.54-0.069,2.299-0.069c0.781,0,1.609,0.069,2.368,0.069c0.115,0,0.414,0,0.414-0.46
		c0-0.23-0.206-0.262-0.459-0.262c-1.335-0.044-1.519-0.547-1.519-1.002c0-0.161,0.023-0.276,0.093-0.53l3.035-12.142
		c0.092,0.138,0.092,0.185,0.207,0.414l5.726,13.545c0.161,0.391,0.231,0.437,0.438,0.437c0.253,0,0.253-0.069,0.367-0.483"/>
	<path d="M182.001,119.115c-0.32,0-0.367,0.01-0.504-0.014c-0.231-0.023-0.299-0.047-0.299-0.231c0-0.069,0-0.114,0.114-0.528
		l1.587-6.441h4.347c2.208,0,2.656,1.717,2.656,2.715c0,2.276-2.051,4.499-4.772,4.499 M183.037,111.398l1.426-5.681
		c0.207-0.805,0.254-0.884,1.242-0.884h2.967c2.024,0,2.519,1.363,2.519,2.378c0,2.024-1.982,4.187-4.795,4.187H183.037z
		 M179.564,118.043c-0.229,0.897-0.276,1.072-2.093,1.072c-0.391,0-0.621,0.01-0.621,0.469c0,0.253,0.208,0.253,0.621,0.253h8.211
		c3.633,0,6.347-2.714,6.347-4.967c0-1.656-1.334-2.99-3.565-3.243c2.393-0.437,4.808-2.139,4.808-4.324
		c0-1.701-1.519-3.192-4.277-3.192h-7.729c-0.437,0-0.667,0.019-0.667,0.479c0,0.254,0.207,0.243,0.645,0.243
		c0.046,0,0.483,0.01,0.874,0.056c0.414,0.046,0.62,0.069,0.62,0.368c0,0.092-0.022,0.161-0.092,0.437L179.564,118.043z"/>
</g>
</svg>
