<?xml version="1.0" encoding="utf-8"?>
<!-- Generator: Adobe Illustrator 14.0.0, SVG Export Plug-In . SVG Version: 6.00 Build 43363)  -->
<!DOCTYPE svg PUBLIC "-//W3C//DTD SVG 1.1//EN" "http://www.w3.org/Graphics/SVG/1.1/DTD/svg11.dtd">
<svg version="1.1" id="Layer_1" xmlns="http://www.w3.org/2000/svg" xmlns:xlink="http://www.w3.org/1999/xlink" x="0px" y="0px"
	 width="192px" height="179.334px" viewBox="0 0 192 179.334" enable-background="new 0 0 192 179.334" xml:space="preserve">
<g>
	<g>
		<line fill="none" stroke="#000000" stroke-width="5" x1="11.183" y1="118.514" x2="165.809" y2="98.909"/>
		<polygon points="176.315,97.577 162.276,105.503 165.023,99.009 160.742,93.406 		"/>
	</g>
</g>
<g>
	<g>
		<g>
			<line fill="none" stroke="#000000" stroke-width="1.7127" x1="11.183" y1="118.514" x2="111.149" y2="32.429"/>
			<polygon points="118.48,26.116 111.784,39.232 110.602,32.9 104.516,30.792 			"/>
		</g>
	</g>
	<circle cx="11.183" cy="118.513" r="3.562"/>
</g>
<line fill="none" stroke="#000000" stroke-dasharray="5.709" x1="111.149" y1="32.429" x2="120.31" y2="104.678"/>
<g>
	<defs>
		<rect id="SVGID_1_" x="105.6" y="8.7" width="12.801" height="13.6"/>
	</defs>
	<clipPath id="SVGID_2_">
		<use xlink:href="#SVGID_1_"  overflow="visible"/>
	</clipPath>
	<path clip-path="url(#SVGID_2_)" d="M118.321,11.117c0-1.553-0.761-2.017-1.288-2.017c-0.73,0-1.434,0.75-1.434,1.383
		c0,0.374,0.147,0.547,0.473,0.863c0.619,0.576,1.003,1.323,1.003,2.358c0,1.208-1.751,7.794-5.109,7.794
		c-1.464,0-2.124-1.006-2.124-2.502c0-1.611,0.771-3.711,1.656-6.098c0.199-0.489,0.343-0.892,0.343-1.438
		c0-1.294-0.917-2.361-2.349-2.361c-2.691,0-3.778,4.194-3.778,4.455c0,0.288,0.283,0.288,0.34,0.288
		c0.283,0,0.312-0.057,0.453-0.52c0.823-2.918,2.042-3.583,2.864-3.583c0.228,0,0.709,0,0.709,0.923
		c0,0.719-0.281,1.496-0.478,2.013c-1.237,3.336-1.602,4.659-1.602,5.896c0,3.106,2.521,3.566,3.84,3.566
		C116.678,22.138,118.322,12.614,118.321,11.117"/>
</g>
<g>
	<defs>
		<rect id="SVGID_3_" x="167.2" y="108.7" width="17.6" height="13.6"/>
	</defs>
	<clipPath id="SVGID_4_">
		<use xlink:href="#SVGID_3_"  overflow="visible"/>
	</clipPath>
	<path clip-path="url(#SVGID_4_)" d="M178.559,118.969c-2.53,2.214-4.743,2.529-5.893,2.529c-1.725,0-2.586-1.293-2.586-3.133
		c0-1.409,0.752-4.514,1.678-5.98c1.359-2.099,2.921-2.646,3.935-2.646c2.865,0,2.865,3.767,2.865,6.009
		C178.558,116.812,178.558,118.479,178.559,118.969 M180.479,115.027c0-4.517-2.68-5.928-4.811-5.928
		c-3.945,0-7.748,4.119-7.748,8.176c0,2.676,1.727,4.863,4.664,4.863c1.813,0,3.887-0.66,6.075-2.413
		c0.374,1.522,1.323,2.413,2.62,2.413c1.525,0,2.422-1.579,2.422-2.039c0-0.202-0.173-0.288-0.345-0.288
		c-0.202,0-0.288,0.087-0.375,0.287c-0.518,1.401-1.553,1.401-1.61,1.401c-0.892,0-0.892-2.243-0.892-2.934
		c0-0.604,0-0.662,0.288-1.006c2.702-3.395,3.306-6.73,3.306-6.76c0-0.058-0.028-0.287-0.345-0.287
		c-0.288,0-0.288,0.086-0.432,0.604c-0.518,1.812-1.466,3.998-2.817,5.695L180.479,115.027z"/>
</g>
<g>
	<path d="M57.108,159.9c-2.474,2.025-4.618,2.253-5.577,2.253c-1.665,0-2.599-1.113-2.599-2.81c0-0.734,0.354-3.493,1.665-5.24
		c1.161-1.519,2.599-1.949,3.482-1.949c2.018,0,2.598,1.949,2.8,3.52C57.031,156.763,56.981,158.56,57.108,159.9 M59.072,159.044
		c2.303-2.403,3.231-5.767,3.231-6.044c0-0.329-0.298-0.329-0.422-0.329c-0.347,0-0.347,0.076-0.521,0.632
		c-0.446,1.669-1.265,3.212-2.306,4.578c-0.024-0.38-0.074-2.074-0.124-2.303c-0.377-2.504-2.26-4.123-4.77-4.123
		c-3.691,0-7.23,3.464-7.23,7.003c0,2.325,1.678,4.396,4.581,4.396c2.303,0,4.381-1.078,5.782-2.182
		c0.576,1.875,1.853,2.182,2.604,2.182c1.451,0,2.353-1.259,2.353-1.798c0-0.309-0.3-0.309-0.426-0.309
		c-0.325,0-0.375,0.104-0.425,0.261c-0.351,0.99-1.127,1.146-1.428,1.146C59.624,162.154,59.198,162.154,59.072,159.044
		L59.072,159.044z"/>
	<path d="M72.945,143.755c-4.761,3.367-6.013,8.694-6.013,12.537c0,3.543,1.053,9.045,6.013,12.562c0.2,0,0.502,0,0.502-0.302
		c0-0.151-0.076-0.201-0.252-0.377c-3.334-3.015-4.562-7.286-4.562-11.858c0-6.783,2.582-10.1,4.638-11.959
		c0.101-0.1,0.177-0.176,0.177-0.302C73.447,143.754,73.146,143.754,72.945,143.755"/>
	<path d="M88.633,153.449c0-1.968-1.222-1.994-1.3-1.994c-0.628,0-1.304,0.684-1.304,1.34c0,0.429,0.241,0.631,0.411,0.781
		c0.41,0.354,0.894,1.01,0.894,2.019c0,1.135-1.639,6.559-4.59,6.559c-2.009,0-2.009-1.82-2.009-2.251
		c0-1.162,0.444-2.58,1.358-4.932c0.198-0.531,0.347-0.911,0.347-1.34c0-1.315-1.105-2.178-2.386-2.178
		c-2.511,0-3.64,3.464-3.64,3.869c0,0.328,0.352,0.328,0.427,0.328c0.353,0,0.377-0.127,0.452-0.404
		c0.604-2.077,1.682-3.09,2.686-3.09c0.428,0,0.629,0.279,0.629,0.887c0,0.582-0.197,1.111-0.444,1.694
		c-1.06,2.808-1.329,3.895-1.329,4.806c0,2.504,1.95,3.312,3.85,3.312c4.2,0,5.95-7.338,5.95-9.404"/>
	<path d="M92.694,143.755c-0.176,0-0.479,0-0.479,0.302c0,0.126,0.076,0.201,0.228,0.377c2.169,1.985,4.591,5.377,4.591,11.859
		c0,5.251-1.639,9.221-4.364,11.683c-0.429,0.427-0.454,0.452-0.454,0.578s0.075,0.302,0.328,0.302c0.301,0,2.691-1.658,4.352-4.799
		c1.107-2.085,1.839-4.798,1.839-7.738C98.734,152.775,97.676,147.273,92.694,143.755"/>
</g>
<g>
	<path d="M34.06,131.705c-0.104-0.817-0.128-0.996-0.629-0.932c-2.179,0.242-5.745,0.409-9.155-0.75
		c-4.097-1.433-5.848-3.494-6.916-4.77c-0.13-0.167-0.345-0.139-0.807-0.078c-0.821,0.104-0.851,0.146-0.737,1.037l0.073,0.57
		c5.966,8.107,14.204,8.755,17.841,8.289c0.75-0.096,0.745-0.132,0.622-1.092"/>
	
		<rect x="33.724" y="129.513" transform="matrix(-0.9919 0.1271 -0.1271 -0.9919 103.3854 256.7341)" width="19.56" height="4.303"/>
	<path d="M71.173,136.516c-5.958-8.11-14.176-8.762-17.805-8.296c-0.747,0.095-0.742,0.131-0.62,1.091l0.292,2.274
		c0.105,0.818,0.128,0.998,0.625,0.934c2.175-0.242,5.733-0.409,9.136,0.752c4.088,1.436,5.835,3.496,6.903,4.773
		c0.128,0.165,0.343,0.138,0.806,0.078c0.819-0.104,0.848-0.145,0.735-1.035"/>
	<path d="M85.44,125.123c-0.123-0.96-0.129-0.995-0.88-0.899c-3.637,0.465-11.438,3.206-15.174,12.521l0.073,0.571
		c0.115,0.892,0.156,0.921,0.975,0.816c0.678-0.086,0.708-0.126,0.855-0.398c2.324-5.051,6.921-8.215,14.14-9.284
		c0.431-0.056,0.397-0.306,0.303-1.052"/>
	<rect x="85.145" y="122.926" transform="matrix(-0.9919 0.127 -0.127 -0.9919 204.9682 237.0847)" width="19.559" height="4.303"/>
	<path d="M120.361,112.821c-0.113-0.892-0.155-0.926-0.974-0.82c-0.675,0.087-0.705,0.126-0.853,0.398
		c-2.317,5.048-6.903,8.211-14.106,9.277c-0.426,0.055-0.393,0.306-0.298,1.051l0.291,2.275c0.124,0.961,0.128,0.997,0.875,0.901
		c3.629-0.465,11.413-3.201,15.138-12.515"/>
</g>
</svg>
