<?xml version="1.0" encoding="utf-8"?>
<!-- Generator: Adobe Illustrator 14.0.0, SVG Export Plug-In . SVG Version: 6.00 Build 43363)  -->
<!DOCTYPE svg PUBLIC "-//W3C//DTD SVG 1.1//EN" "http://www.w3.org/Graphics/SVG/1.1/DTD/svg11.dtd">
<svg version="1.1" id="Layer_1" xmlns="http://www.w3.org/2000/svg" xmlns:xlink="http://www.w3.org/1999/xlink" x="0px" y="0px"
	 width="375px" height="325px" viewBox="0 0 375 325" enable-background="new 0 0 375 325" xml:space="preserve">
<line fill="none" stroke="#231F20" stroke-dasharray="6" x1="182.344" y1="129.833" x2="329.223" y2="14.218"/>
<path opacity="0.4" fill="none" stroke="#1B1F8A" stroke-width="4" enable-background="new    " d="M71.618,290.505
	c4.168-4.98,8.849-9.59,14.268-13.202c5.188-3.458,11.018-5.815,17.105-7.124c6.279-1.351,12.698-1.813,19.041-2.766
	c6.023-0.904,12.037-2.509,17.44-5.377c5.971-3.171,10.97-7.467,15.613-12.335c2.325-2.438,4.379-5.092,6.457-7.739
	c1.056-1.348,1.975-2.826,2.953-4.229c0.852-1.221,1.783-2.415,2.557-3.687c1.909-3.132,3.987-6.209,5.744-9.428
	c1.801-3.299,3.602-6.598,5.403-9.897c1.819-3.333,3.415-6.81,5.116-10.206c1.457-2.906,2.805-5.865,4.186-8.808
	c2.779-5.919,5.494-11.868,8.132-17.851c3.138-7.116,6.275-14.231,9.409-21.349c2.563-5.822,5.124-11.65,7.808-17.418
	c3.311-7.114,6.69-14.172,10.161-21.208c3.1-6.282,6.631-12.339,10.213-18.352c3.481-5.841,7.365-11.459,11.718-16.686
	c4.106-4.931,8.747-9.488,14.118-13.036c5.295-3.498,11.124-5.8,17.31-7.159c6.098-1.339,12.347-1.689,18.502-2.669
	c6.173-0.983,12.168-2.537,17.741-5.432c5.606-2.912,10.713-6.989,14.979-11.639c2.43-2.648,4.72-5.354,6.898-8.212
	c2.273-2.985,4.308-6.147,6.415-9.251c2.282-3.36,4.304-6.949,6.271-10.5"/>
<g>
	<g>
		<line fill="#FFFFFF" x1="57.87" y1="290.505" x2="352.918" y2="290.505"/>
		<polygon fill="#FFFFFF" points="356.448,290.505 351.474,292.537 352.654,290.505 351.474,288.473 		"/>
	</g>
	<g>
		<line fill="none" stroke="#231F20" stroke-width="2.4" x1="57.87" y1="290.505" x2="352.918" y2="290.505"/>
		<polygon fill="#231F20" points="361.391,290.505 349.451,295.383 352.284,290.505 349.451,285.628 		"/>
	</g>
</g>
<g>
	<g>
		<line fill="#FFFFFF" x1="71.618" y1="304.919" x2="71.618" y2="14.946"/>
		<polygon fill="#FFFFFF" points="71.618,11.416 73.65,16.391 71.618,15.21 69.586,16.391 		"/>
	</g>
	<g>
		<line fill="none" stroke="#231F20" stroke-width="2.4" x1="71.618" y1="304.919" x2="71.618" y2="14.946"/>
		<polygon fill="#231F20" points="71.618,6.473 76.496,18.413 71.618,15.579 66.741,18.413 		"/>
	</g>
</g>
<g>
	<defs>
		<rect id="SVGID_1_" x="7.259" y="19.573" width="52" height="29.6"/>
	</defs>
	<clipPath id="SVGID_2_">
		<use xlink:href="#SVGID_1_"  overflow="visible"/>
	</clipPath>
	<path clip-path="url(#SVGID_2_)" d="M16.971,29.574c2.176,0.116,3.807,1.433,3.807,3.949c0,3.376-2.462,7.467-6.755,7.811
		 M13.281,41.334c-1.718-0.086-3.782-1.087-3.782-3.948c0-3.433,2.464-7.438,6.734-7.812L13.281,41.334z M18.733,22.423
		c0-0.056,0.086-0.373,0.086-0.402c0-0.028,0-0.288-0.342-0.288c-0.286,0-0.314,0.088-0.428,0.575l-1.656,6.625
		c-4.539,0.145-8.734,3.97-8.734,7.882c0,2.733,1.999,5.005,5.481,5.206c-0.229,0.891-0.428,1.812-0.657,2.703
		c-0.342,1.353-0.628,2.445-0.628,2.531c0,0.288,0.2,0.316,0.343,0.316c0.143,0,0.2-0.029,0.286-0.115
		c0.057-0.058,0.229-0.749,0.314-1.151c0.371-1.409,0.713-2.848,1.084-4.285c4.596-0.145,8.738-4.026,8.738-7.881
		c0-2.272-1.516-4.919-5.484-5.207L18.733,22.423z"/>
	<path clip-path="url(#SVGID_2_)" d="M32.836,48.566c0-0.086,0-0.143-0.492-0.631c-3.604-3.618-4.526-9.044-4.526-13.438
		c0-4.996,1.097-9.993,4.642-13.582c0.376-0.344,0.376-0.402,0.376-0.488c0-0.201-0.116-0.293-0.29-0.293
		c-0.289,0-2.886,1.959-4.589,5.605c-1.473,3.159-1.819,6.346-1.819,8.758c0,2.239,0.318,5.713,1.906,8.958
		c1.732,3.533,4.215,5.398,4.504,5.398c0.173,0,0.289-0.086,0.289-0.287"/>
	<path clip-path="url(#SVGID_2_)" d="M44.042,32.967c0.173-0.748,0.833-3.393,2.842-3.393c0.143,0,0.832,0,1.434,0.398
		c-0.804,0.144-1.379,0.863-1.379,1.554c0,0.459,0.316,1.007,1.091,1.007c0.631,0,1.551-0.522,1.551-1.684
		c0-1.508-1.677-1.916-2.642-1.916c-1.669,0-2.676,1.547-3.021,2.218c-0.72-1.926-2.272-2.218-3.107-2.218
		c-2.991,0-4.63,3.731-4.63,4.455c0,0.289,0.287,0.289,0.344,0.289c0.23,0,0.316-0.058,0.373-0.318
		c0.976-3.062,2.87-3.785,3.845-3.785c0.545,0,1.55,0.259,1.55,1.926c0,0.892-0.488,2.816-1.55,6.841
		c-0.458,1.783-1.462,2.99-2.725,2.99c-0.172,0-0.832,0-1.434-0.398c0.701-0.145,1.318-0.749,1.318-1.554
		c0-0.776-0.632-1.007-1.062-1.007c-0.86,0-1.578,0.755-1.578,1.684c0,1.336,1.438,1.916,2.703,1.916
		c1.897,0,2.933-2.011,3.02-2.185c0.344,1.064,1.379,2.185,3.105,2.185c2.961,0,4.603-3.704,4.603-4.422
		c0-0.287-0.259-0.287-0.344-0.287c-0.259,0-0.316,0.115-0.373,0.315c-0.948,3.066-2.898,3.753-3.816,3.753
		c-1.12,0-1.578-0.92-1.578-1.898c0-0.633,0.172-1.265,0.487-2.53"/>
	<path clip-path="url(#SVGID_2_)" d="M59.178,34.497c0-2.241-0.317-5.715-1.902-8.958c-1.728-3.531-4.206-5.404-4.494-5.404
		c-0.173,0-0.288,0.12-0.288,0.293c0,0.086,0,0.144,0.546,0.66c2.818,2.843,4.457,7.408,4.457,13.409
		c0,4.91-1.065,9.962-4.629,13.582c-0.374,0.345-0.374,0.402-0.374,0.488c0,0.172,0.115,0.287,0.288,0.287
		c0.288,0,2.88-1.953,4.58-5.599C58.831,40.096,59.178,36.908,59.178,34.497"/>
</g>
<g>
	<defs>
		<rect id="SVGID_3_" x="355.518" y="304.589" width="15.199" height="13.6"/>
	</defs>
	<clipPath id="SVGID_4_">
		<use xlink:href="#SVGID_3_"  overflow="visible"/>
	</clipPath>
	<path clip-path="url(#SVGID_4_)" d="M364.381,309.022c0.172-0.748,0.832-3.393,2.84-3.393c0.144,0,0.832,0,1.435,0.398
		c-0.804,0.144-1.378,0.863-1.378,1.554c0,0.46,0.315,1.007,1.09,1.007c0.631,0,1.551-0.522,1.551-1.683
		c0-1.51-1.676-1.917-2.641-1.917c-1.67,0-2.676,1.548-3.021,2.219c-0.72-1.926-2.273-2.219-3.106-2.219
		c-2.991,0-4.631,3.731-4.631,4.455c0,0.288,0.288,0.288,0.345,0.288c0.229,0,0.315-0.058,0.373-0.317
		c0.976-3.062,2.869-3.785,3.844-3.785c0.546,0,1.551,0.259,1.551,1.926c0,0.892-0.488,2.817-1.551,6.842
		c-0.459,1.783-1.463,2.99-2.726,2.99c-0.172,0-0.832,0-1.435-0.398c0.701-0.145,1.319-0.749,1.319-1.555
		c0-0.776-0.632-1.007-1.062-1.007c-0.861,0-1.578,0.756-1.578,1.685c0,1.335,1.438,1.915,2.703,1.915
		c1.897,0,2.933-2.011,3.019-2.184c0.346,1.063,1.381,2.184,3.105,2.184c2.962,0,4.604-3.704,4.604-4.421
		c0-0.288-0.258-0.288-0.344-0.288c-0.259,0-0.316,0.115-0.373,0.315c-0.947,3.066-2.897,3.754-3.816,3.754
		c-1.119,0-1.578-0.921-1.578-1.898c0-0.633,0.172-1.265,0.488-2.529"/>
</g>
</svg>
