<?xml version="1.0" encoding="utf-8"?>
<!-- Generator: Adobe Illustrator 14.0.0, SVG Export Plug-In . SVG Version: 6.00 Build 43363)  -->
<!DOCTYPE svg PUBLIC "-//W3C//DTD SVG 1.1//EN" "http://www.w3.org/Graphics/SVG/1.1/DTD/svg11.dtd">
<svg version="1.1" id="Layer_1" xmlns="http://www.w3.org/2000/svg" xmlns:xlink="http://www.w3.org/1999/xlink" x="0px" y="0px"
	 width="115px" height="73px" viewBox="0 0 115 73" enable-background="new 0 0 115 73" xml:space="preserve">
<polyline points="4.972,18.377 110.275,18.377 110.275,19.073 4.972,19.073 "/>
<polyline points="4.972,27.094 110.275,27.094 110.275,27.792 4.972,27.792 "/>
<polyline points="4.972,35.813 110.275,35.813 110.275,36.507 4.972,36.507 "/>
<polyline points="4.972,44.527 110.275,44.527 110.275,45.225 4.972,45.225 "/>
<polyline points="4.972,53.247 110.275,53.247 110.275,53.943 4.972,53.943 "/>
<polyline points="4.972,53.943 4.972,18.725 5.668,18.725 5.668,53.943 "/>
<path d="M19.967,39.611c0.104,1.012,0.383,2.092,0.558,3.104c0.383,2.092,0.697,4.148,1.012,6.242
	c0.139,1.01,0.417,2.127,0.417,3.139l-0.034,0.14c-0.14,0.279-1.849,0.383-2.197,0.383c-4.639,0-8.579-3.731-8.579-8.405
	c0-0.416,0.036-0.836,0.105-1.254c0.488-2.65,4.289-8.334,5.858-10.81c0.383-0.629,0.767-1.291,1.221-1.85
	c0.174,2.162,0.731,4.395,1.116,6.557c-0.627,0.175-1.429,0.802-1.918,1.221c-1.534,1.36-2.51,3.382-2.51,5.438
	c0,1.639,0.801,4.221,2.58,4.709c-0.871-1.15-1.429-1.917-1.429-3.418C16.167,42.715,17.805,40.064,19.967,39.611z M21.78,39.297
	c3.348,0,5.72,2.754,5.72,6.033c0,2.721-2.058,5.894-4.744,6.695c-0.349-4.22-1.151-8.473-1.848-12.658
	C21.188,39.332,21.501,39.297,21.78,39.297z M24.569,13.176c0,3.697-3.625,7.602-5.928,10.252c-0.104-2.161-0.313-4.323-0.313-6.521
	c0-2.858,1.186-4.847,3.034-6.904c0.279-0.314,0.628-0.627,1.082-0.627C23.978,9.375,24.569,11.991,24.569,13.176z M30.778,44.388
	c0-4.532-3.418-8.265-8.021-8.265c-0.802,0-1.604,0.07-2.335,0.349c-0.245-1.778-0.593-3.593-0.838-5.37
	c-0.104-0.662-0.313-1.43-0.313-2.056c0-0.769,6.277-8.268,6.277-14.648c0-1.046-0.139-2.058-0.453-3.034
	c-0.21-0.697-2.093-5.23-2.441-5.686c-0.209-0.279-0.49-0.487-0.873-0.487c-0.558,0-0.976,0.558-1.326,0.942
	c-2.684,3.034-3.381,7.113-3.381,11.055c0,2.022,0.139,4.046,0.313,6.066c0.036,0.42,0.14,0.872,0.14,1.291
	c0,0.279-0.558,0.978-0.767,1.221c-2.406,3.208-5.091,7.15-6.697,10.846C9.4,38.181,9.016,39.89,9.016,41.599
	c0,6.626,5.336,11.962,11.892,11.962c0.419,0,0.838-0.034,1.222-0.07c0.104,2.442,0.417,4.812,0.417,7.255
	c0,3.032-1.709,5.265-4.917,5.265c-1.5,0-2.651-0.557-3.697-1.604c1.952,0.35,3.731-1.255,3.731-3.209
	c0-1.812-1.43-3.277-3.278-3.277c-1.743,0-3.243,1.324-3.243,3.14c0,3.59,2.512,6.207,6.139,6.207c3.906,0,6.032-2.721,6.032-6.452
	c0-1.605-0.034-3.209-0.174-4.812c-0.07-0.871-0.209-1.778-0.209-2.65c0.418-0.036,0.836-0.174,1.255-0.314
	C27.953,51.852,30.778,48.399,30.778,44.388z"/>
<path d="M44.793,28.627c1.01,0,1.708,0.906,1.708,1.884c0,1.847-2.859,4.115-4.115,5.265v-5.372
	C42.385,29.43,43.92,28.627,44.793,28.627z M41.688,37.52c0.697-0.522,1.291-1.116,2.022-1.568c1.78-1.117,5.72-2.896,5.72-5.406
	c0-1.988-2.685-3.173-4.394-3.173c-1.185,0-1.848,0.384-2.651,1.255V18.373c-0.313,0.175-0.697,0.42-0.697,0.838V37.52z"/>
<polyline points="56.113,62.27 56.113,31.802 56.811,31.802 56.811,62.27 "/>
<path d="M67.098,30.79c0-2.267-2.303-3.314-4.256-3.314c-2.824,0-6.905,2.023-6.905,5.267c0,2.267,2.336,3.312,4.289,3.312
	C63.018,36.055,67.098,33.997,67.098,30.79z"/>
<polyline points="82.848,66.627 82.848,36.16 83.541,36.16 83.541,66.627 "/>
<path d="M93.83,35.148c0-2.267-2.301-3.312-4.255-3.312c-2.826,0-6.904,2.023-6.904,5.265c0,2.269,2.337,3.314,4.288,3.314
	C89.748,40.415,93.83,38.357,93.83,35.148z"/>
<polyline points="109.578,53.943 109.578,18.725 110.275,18.725 110.275,53.943 "/>
</svg>
