<?xml version="1.0" encoding="utf-8"?>
<!-- Generator: Adobe Illustrator 14.0.0, SVG Export Plug-In . SVG Version: 6.00 Build 43363)  -->
<!DOCTYPE svg PUBLIC "-//W3C//DTD SVG 1.1//EN" "http://www.w3.org/Graphics/SVG/1.1/DTD/svg11.dtd">
<svg version="1.1" id="Layer_1" xmlns="http://www.w3.org/2000/svg" xmlns:xlink="http://www.w3.org/1999/xlink" x="0px" y="0px"
	 width="548px" height="293px" viewBox="0 0 548 293" enable-background="new 0 0 548 293" xml:space="preserve">
<linearGradient id="SVGID_2_" gradientUnits="userSpaceOnUse" x1="353.5117" y1="24.6807" x2="853.5093" y2="614.6771" gradientTransform="matrix(1 0 0 -1 0 293)">
	<stop  offset="0" style="stop-color:#FFFFFF"/>
	<stop  offset="1" style="stop-color:#000000"/>
</linearGradient>
<path fill="url(#SVGID_2_)" d="M286.186,191.719c0,0,50.775-22.377,80.896-45.183c30.121-22.807,40.448-40.019,40.448-40.019
	s18.935-0.86,57.23,9.897c38.299,10.757,62.824,22.376,62.824,22.376s-30.98,27.11-41.74,61.104
	c-10.756,33.994-7.744,77.455-7.744,77.455s-75.291,13.325-140.268-14.644C291.295,242.674,286.186,191.719,286.186,191.719z"/>
<path opacity="0.2" fill="#1B1F8A" enable-background="new    " d="M542.924,57.92c0,0-39.955,49.733-58.66,100.314
	c-18.7,50.582-11.899,121.143-11.899,121.143s-86.123,11.977-150.047-17.854c-51.008-23.803-65.885-79.912-65.885-79.912
	s31.535-20.334,65.459-71.833c35.279-53.558,40.382-78.636,40.382-78.636s20.402-22.528,47.605-24.654
	C468.881,1.879,542.924,57.92,542.924,57.92z"/>
<path fill="none" stroke="#000000" stroke-width="1.7127" d="M542.924,57.92c0,0-39.955,49.733-58.66,100.314
	c-18.7,50.582-11.899,121.143-11.899,121.143s-86.123,11.977-150.047-17.854c-51.008-23.803-65.885-79.912-65.885-79.912
	s31.535-20.334,65.459-71.833c35.279-53.558,40.382-78.636,40.382-78.636s20.402-22.528,47.605-24.654
	C468.881,1.879,542.924,57.92,542.924,57.92z"/>
<g>
	<path fill="none" stroke="#000000" stroke-width="0.8564" d="M479.504,21.425c0,0-35.619,65.825-55.172,112.581
		c-19.554,46.758-41.595,144.502-41.595,144.502"/>
	<path fill="none" stroke="#000000" stroke-width="0.8564" d="M335.016,226.084c-7.467,20.576-12.698,35.439-12.698,35.439"/>
	<path fill="none" stroke="#000000" stroke-width="0.8564" d="M420.938,6.301c0,0-15.311,49.495-44.213,112.403
		c-8.679,18.888-21.955,53.667-33.219,84.174"/>
	<path fill="none" stroke="#000000" stroke-width="0.8564" d="M335.688,125.661c-8.315,16.328-16.138,31.251-21.021,39.8
		c-11.902,20.828-33.592,62.918-33.592,62.918"/>
	<path fill="none" stroke="#000000" stroke-width="0.8564" d="M385.991,13.546c0,0-7.143,23.122-18.618,47.775
		c-3.735,8.025-9.363,19.652-15.665,32.406"/>
	<path fill="none" stroke="#000000" stroke-width="0.8564" d="M292.441,148.398c0,0,15.78,17.516,58.106,35.567
		c42.328,18.05,121.92,32.509,121.92,32.509"/>
	<path fill="none" stroke="#000000" stroke-width="0.8564" d="M349.527,111.854c7.526,1.373,16.594,3.521,27.196,6.851
		c36.556,11.477,107.539,39.529,107.539,39.529"/>
	<path fill="none" stroke="#000000" stroke-width="0.8564" d="M321.892,109.778c0,0,2.411-0.336,7.233-0.215"/>
	<path fill="none" stroke="#000000" stroke-width="0.8564" d="M431.863,72.262c36.637,13.038,78.399,33.306,78.399,33.306"/>
	<path fill="none" stroke="#000000" stroke-width="0.8564" d="M393.004,61.729c2.396,0.328,4.887,0.749,7.479,1.273
		c3.803,0.77,7.947,1.814,12.329,3.07"/>
	<path fill="none" stroke="#000000" stroke-width="0.8564" d="M345.787,69.899c0,0,8.171-7.078,25.951-8.768"/>
</g>
<defs>
	<filter id="Adobe_OpacityMaskFilter" filterUnits="userSpaceOnUse" x="375.766" y="94.011" width="30.329" height="25.49">
		<feColorMatrix  type="matrix" values="1 0 0 0 0  0 1 0 0 0  0 0 1 0 0  0 0 0 1 0"/>
	</filter>
</defs>
<mask maskUnits="userSpaceOnUse" x="375.766" y="94.011" width="30.329" height="25.49" id="SVGID_1_">
	<g filter="url(#Adobe_OpacityMaskFilter)">
		
			<linearGradient id="SVGID_3_" gradientUnits="userSpaceOnUse" x1="132.4663" y1="689.9248" x2="98.219" y2="685.6751" gradientTransform="matrix(-0.8131 0.5822 0.5822 0.8131 86.6114 -522.2732)">
			<stop  offset="0" style="stop-color:#FFFFFF"/>
			<stop  offset="1" style="stop-color:#000000"/>
		</linearGradient>
		<polygon opacity="0.5" fill="url(#SVGID_3_)" enable-background="new    " points="413.203,102.099 378.919,126.648 
			367.856,111.2 402.141,86.652 		"/>
	</g>
</mask>
<g mask="url(#SVGID_1_)">
	<g>
		<g>
			<path fill="#FFFFFF" d="M400.377,100.266c0,0-4.562,4.994-10.321,9.683c-5.757,4.687-13.382,8.357-13.382,8.357"/>
			<polygon fill="#FFFFFF" points="400.798,102.215 400.235,100.42 398.398,100.021 402.283,98.181 			"/>
		</g>
		<g>
			<path fill="none" stroke="#000000" stroke-width="3" d="M400.377,100.266l-23.703,18.041"/>
			<polygon points="401.639,106.114 399.95,100.733 394.438,99.533 406.095,94.011 			"/>
		</g>
	</g>
</g>
<polygon fill="#FFFFFF" stroke="#000000" points="376.824,117.967 364.893,110.18 373.104,103.415 384.804,111.217 "/>
<polygon fill="#FFFFFF" stroke="#000000" points="376.824,117.967 372.896,108.178 381.108,101.413 384.804,111.217 "/>
<g>
	<circle cx="376.735" cy="117.975" r="3"/>
	<g>
		<g>
			<line fill="none" x1="400.271" y1="97.081" x2="376.735" y2="117.975"/>
			<polygon fill="#FFFFFF" points="400.484,99.062 400.111,97.22 398.327,96.632 402.382,95.207 			"/>
		</g>
		<g>
			<line fill="none" stroke="#000000" stroke-width="3" x1="400.271" y1="97.081" x2="376.735" y2="117.975"/>
			<polygon points="400.915,103.03 399.797,97.5 394.438,95.735 406.606,91.455 			"/>
		</g>
	</g>
</g>
<g>
	<circle cx="376.824" cy="117.968" r="3"/>
	<g>
		<g>
			<line fill="none" x1="348.848" y1="100.46" x2="376.824" y2="117.967"/>
			<polygon fill="#FFFFFF" points="350.69,99.695 349.026,100.572 348.966,102.452 346.454,98.961 			"/>
		</g>
		<g>
			<line fill="none" stroke="#000000" stroke-width="3" x1="348.848" y1="100.46" x2="376.824" y2="117.967"/>
			<polygon points="354.373,98.165 349.386,100.796 349.2,106.434 341.666,95.965 			"/>
		</g>
	</g>
</g>
<g>
	<circle cx="376.824" cy="117.967" r="3"/>
	<g>
		<g>
			<line fill="none" x1="364.278" y1="87.441" x2="376.824" y2="117.967"/>
			<polygon fill="#FFFFFF" points="366.223,87.893 364.359,87.637 363.215,89.128 363.207,84.829 			"/>
		</g>
		<g>
			<line fill="none" stroke="#000000" stroke-width="3" x1="364.278" y1="87.441" x2="376.824" y2="117.967"/>
			<polygon points="370.107,88.793 364.521,88.027 361.086,92.501 361.06,79.605 			"/>
		</g>
	</g>
</g>
<path fill="none" stroke="#000000" stroke-width="2" stroke-dasharray="3" d="M295.521,222.979c0,0,27.506-8.235,38.878-37.576
	c11.371-29.342,16.868-44.158,42.603-66.271c25.732-22.114,50.744-17.795,71.977-25.766c26.244-9.851,42.777-28.333,48.539-35.623
	c1.521-1.925,2.293-3.069,2.293-3.069"/>
<g>
	<g>
		<defs>
			<rect id="SVGID_4_" x="366.178" y="57.056" width="27.9" height="22.5"/>
		</defs>
		<clipPath id="SVGID_5_">
			<use xlink:href="#SVGID_4_"  overflow="visible"/>
		</clipPath>
		<path clip-path="url(#SVGID_5_)" d="M389.861,60.53c0.322-1.292,0.902-2.293,3.485-2.395c0.161,0,0.548-0.032,0.548-0.638
			c0-0.032,0-0.352-0.419-0.352c-1.064,0-2.194,0.097-3.261,0.097c-1.097,0-2.228-0.097-3.292-0.097c-0.192,0-0.58,0-0.58,0.64
			c0,0.351,0.322,0.351,0.58,0.351c1.84,0.035,2.195,0.714,2.195,1.424c0,0.097-0.065,0.581-0.1,0.679l-3.613,14.374l-7.134-16.849
			c-0.259-0.582-0.291-0.618-1.032-0.618h-4.326c-0.646,0-0.937,0-0.937,0.64c0,0.351,0.29,0.351,0.903,0.351
			c0.16,0,2.195,0,2.195,0.291l-4.325,17.355c-0.323,1.293-0.872,2.327-3.486,2.424c-0.192,0-0.549,0.033-0.549,0.639
			c0,0.223,0.161,0.351,0.419,0.351c1.034,0,2.163-0.096,3.229-0.096c1.097,0,2.259,0.096,3.324,0.096c0.159,0,0.58,0,0.58-0.639
			c0-0.319-0.291-0.352-0.646-0.352c-1.872-0.065-2.131-0.775-2.131-1.421c0-0.226,0.034-0.387,0.131-0.743l4.261-17.052
			c0.129,0.193,0.129,0.258,0.29,0.58l8.036,19.013c0.229,0.548,0.324,0.612,0.614,0.612c0.354,0,0.354-0.096,0.517-0.678"/>
	</g>
</g>
<g>
	<g>
		<defs>
			<rect id="SVGID_6_" x="331.588" y="107.668" width="18" height="15.3"/>
		</defs>
		<clipPath id="SVGID_7_">
			<use xlink:href="#SVGID_6_"  overflow="visible"/>
		</clipPath>
		<path clip-path="url(#SVGID_7_)" d="M333.705,120.522c-0.096,0.485-0.289,1.229-0.289,1.391c0,0.582,0.45,0.873,0.934,0.873
			c0.388,0,0.967-0.259,1.191-0.905c0.033-0.065,0.419-1.586,0.612-2.395c0.227-0.971,0.482-1.942,0.71-2.913
			c0.192-0.712,0.385-1.424,0.547-2.167c0.128-0.55,0.387-1.489,0.418-1.619c0.482-1.002,2.189-3.95,5.25-3.95
			c1.449,0,1.741,1.2,1.741,2.268c0,2.005-1.589,6.147-2.106,7.539c-0.292,0.744-0.325,1.133-0.325,1.488
			c0,1.521,1.138,2.653,2.661,2.653c3.05,0,4.251-4.716,4.251-4.975c0-0.323-0.291-0.323-0.387-0.323
			c-0.323,0-0.323,0.098-0.483,0.581c-0.646,2.192-1.708,3.997-3.287,3.997c-0.549,0-0.772-0.323-0.772-1.067
			c0-0.81,0.287-1.586,0.574-2.298c0.604-1.715,1.945-5.274,1.945-7.119c0-2.168-1.391-3.464-3.709-3.464
			c-2.899,0-4.479,2.097-5.026,2.851c-0.162-1.835-1.482-2.851-2.967-2.851c-1.48,0-2.093,1.27-2.416,1.855
			c-0.516,1.106-0.968,3.025-0.968,3.155c0,0.325,0.323,0.325,0.388,0.325c0.321,0,0.354-0.033,0.547-0.747
			c0.549-2.307,1.191-3.868,2.353-3.868c0.645,0,0.998,0.423,0.998,1.491c0,0.679-0.097,1.035-0.516,2.717"/>
	</g>
</g>
<g>
	<g>
		<defs>
			<rect id="SVGID_8_" x="407.4" y="68.039" width="23.399" height="22.5"/>
		</defs>
		<clipPath id="SVGID_9_">
			<use xlink:href="#SVGID_8_"  overflow="visible"/>
		</clipPath>
		<path clip-path="url(#SVGID_9_)" d="M421.184,70.564c0.227-0.905,0.355-1.099,0.743-1.196c0.29-0.069,1.354-0.069,2.032-0.069
			c3.261,0,4.713,0.13,4.713,2.66c0,0.485-0.128,1.75-0.259,2.594c-0.032,0.129-0.097,0.521-0.097,0.616
			c0,0.194,0.097,0.421,0.387,0.421c0.354,0,0.42-0.258,0.482-0.743l0.872-5.616c0.032-0.129,0.065-0.452,0.065-0.549
			c0-0.355-0.323-0.355-0.872-0.355h-17.914c-0.774,0-0.807,0.032-1.033,0.645l-1.938,5.68c-0.031,0.064-0.193,0.517-0.193,0.581
			c0,0.193,0.162,0.355,0.388,0.355c0.322,0,0.355-0.162,0.55-0.68c1.741-5.025,2.582-5.61,7.357-5.61h1.261
			c0.902,0,0.902,0.134,0.902,0.393c0,0.194-0.098,0.583-0.129,0.679l-4.324,17.266c-0.292,1.197-0.388,1.553-3.842,1.553
			c-1.162,0-1.355,0-1.355,0.607c0,0.383,0.356,0.383,0.551,0.383c0.87,0,1.774-0.064,2.646-0.064h5.422
			c0.938,0,1.905,0.064,2.81,0.064c0.323,0,0.71,0,0.71-0.639c0-0.352-0.258-0.352-1.099-0.352c-0.808,0-1.228,0-2.065-0.065
			c-0.937-0.097-1.194-0.193-1.194-0.711c0-0.032,0-0.194,0.13-0.679"/>
	</g>
</g>
<g>
	<g>
		<defs>
			<rect id="SVGID_10_" x="315.964" y="205.102" width="54" height="33.301"/>
		</defs>
		<clipPath id="SVGID_11_">
			<use xlink:href="#SVGID_10_"  overflow="visible"/>
		</clipPath>
		<path clip-path="url(#SVGID_11_)" d="M326.549,216.982h2.775c0.646,0,0.969,0,0.969-0.641c0-0.352-0.323-0.352-0.871-0.352h-2.679
			c0.354-1.863,0.322-1.801,0.677-3.663c0.129-0.675,0.581-2.956,0.774-3.343c0.291-0.611,0.839-1.096,1.519-1.096
			c0.128,0,0.968,0,1.583,0.541c-1.421,0.131-1.744,1.262-1.744,1.749c0,0.743,0.582,1.134,1.194,1.134
			c0.84,0,1.776-0.707,1.776-1.928c0-1.477-1.485-2.216-2.81-2.216c-1.099,0-3.132,0.582-4.101,3.769
			c-0.193,0.676-0.291,0.998-1.065,5.052h-2.228c-0.612,0-0.969,0-0.969,0.606c0,0.385,0.291,0.385,0.903,0.385h2.13l-2.421,12.806
			c-0.58,3.144-1.129,6.094-2.808,6.094c-0.13,0-0.938,0-1.55-0.627c1.484-0.097,1.774-1.263,1.774-1.747
			c0-0.746-0.581-1.134-1.194-1.134c-0.84,0-1.775,0.722-1.775,1.968c0,1.475,1.42,2.262,2.743,2.262
			c1.775,0,3.065-1.914,3.646-3.146c1.033-2.042,1.776-5.967,1.809-6.193"/>
	</g>
	<g>
		<defs>
			<rect id="SVGID_12_" x="315.964" y="205.102" width="54" height="33.301"/>
		</defs>
		<clipPath id="SVGID_13_">
			<use xlink:href="#SVGID_12_"  overflow="visible"/>
		</clipPath>
		<path clip-path="url(#SVGID_13_)" d="M344.647,237.719c0-0.097,0-0.16-0.554-0.71c-4.054-4.069-5.092-10.175-5.092-15.116
			c0-5.621,1.232-11.242,5.223-15.279c0.422-0.387,0.422-0.452,0.422-0.549c0-0.227-0.13-0.33-0.325-0.33
			c-0.324,0-3.246,2.203-5.163,6.307c-1.657,3.554-2.045,7.139-2.045,9.854c0,2.519,0.356,6.428,2.144,10.076
			c1.948,3.975,4.74,6.073,5.065,6.073c0.194,0,0.326-0.097,0.326-0.321"/>
	</g>
	<g>
		<defs>
			<rect id="SVGID_14_" x="315.964" y="205.102" width="54" height="33.301"/>
		</defs>
		<clipPath id="SVGID_15_">
			<use xlink:href="#SVGID_14_"  overflow="visible"/>
		</clipPath>
		<path clip-path="url(#SVGID_15_)" d="M359.257,217.611c-0.512,0-0.96,0-1.407,0.459c-0.511,0.49-0.573,1.048-0.573,1.275
			c0,0.785,0.573,1.146,1.181,1.146c0.927,0,1.79-0.776,1.79-2.073c0-1.587-1.524-2.786-3.825-2.786
			c-4.376,0-8.688,4.634-8.688,9.198c0,2.913,1.881,5.471,5.254,5.471c4.64,0,7.367-3.423,7.367-3.812
			c0-0.193-0.195-0.421-0.392-0.421c-0.162,0-0.227,0.064-0.42,0.322c-2.556,3.189-6.081,3.189-6.469,3.189
			c-2.038,0-2.91-1.585-2.91-3.525c0-1.326,0.646-4.463,1.747-6.469c1.002-1.843,2.782-3.234,4.562-3.234
			C357.575,216.354,358.804,216.764,359.257,217.611"/>
	</g>
	<g>
		<defs>
			<rect id="SVGID_16_" x="315.964" y="205.102" width="54" height="33.301"/>
		</defs>
		<clipPath id="SVGID_17_">
			<use xlink:href="#SVGID_16_"  overflow="visible"/>
		</clipPath>
		<path clip-path="url(#SVGID_17_)" d="M369.872,221.891c0-2.521-0.356-6.429-2.139-10.078c-1.944-3.973-4.732-6.078-5.057-6.078
			c-0.194,0-0.324,0.135-0.324,0.328c0,0.098,0,0.162,0.614,0.744c3.17,3.197,5.015,8.332,5.015,15.084
			c0,5.523-1.197,11.209-5.208,15.279c-0.421,0.389-0.421,0.452-0.421,0.549c0,0.194,0.13,0.323,0.324,0.323
			c0.323,0,3.24-2.196,5.152-6.299C369.482,228.189,369.872,224.604,369.872,221.891"/>
	</g>
</g>
<g>
	<g>
		<defs>
			<rect id="SVGID_18_" x="95.046" y="242.768" width="13.45" height="15.301"/>
		</defs>
		<clipPath id="SVGID_19_">
			<use xlink:href="#SVGID_18_"  overflow="visible"/>
		</clipPath>
		<path clip-path="url(#SVGID_19_)" d="M106.569,245.198c-0.512,0-0.959,0-1.407,0.458c-0.511,0.49-0.575,1.048-0.575,1.275
			c0,0.785,0.575,1.146,1.182,1.146c0.926,0,1.789-0.777,1.789-2.074c0-1.587-1.523-2.786-3.825-2.786
			c-4.376,0-8.687,4.634-8.687,9.198c0,2.913,1.881,5.471,5.254,5.471c4.639,0,7.366-3.423,7.366-3.811
			c0-0.194-0.196-0.422-0.391-0.422c-0.162,0-0.227,0.064-0.42,0.322c-2.556,3.189-6.081,3.189-6.468,3.189
			c-2.038,0-2.911-1.585-2.911-3.525c0-1.324,0.647-4.463,1.747-6.469c1.002-1.843,2.782-3.234,4.562-3.234
			C104.887,243.938,106.116,244.35,106.569,245.198"/>
	</g>
</g>
<g>
	<g>
		<defs>
			<rect id="SVGID_20_" x="246.369" y="53.945" width="17.1" height="30.6"/>
		</defs>
		<clipPath id="SVGID_21_">
			<use xlink:href="#SVGID_20_"  overflow="visible"/>
		</clipPath>
		<path clip-path="url(#SVGID_21_)" d="M257.044,64.565h2.775c0.646,0,0.969,0,0.969-0.639c0-0.351-0.323-0.351-0.871-0.351h-2.68
			c0.355-1.864,0.323-1.8,0.678-3.664c0.129-0.675,0.58-2.957,0.775-3.342c0.29-0.611,0.838-1.094,1.517-1.094
			c0.13,0,0.969,0,1.583,0.54c-1.42,0.131-1.742,1.263-1.742,1.749c0,0.744,0.58,1.133,1.194,1.133c0.839,0,1.776-0.707,1.776-1.926
			c0-1.478-1.486-2.216-2.811-2.216c-1.098,0-3.131,0.582-4.1,3.768c-0.193,0.676-0.29,0.999-1.065,5.053h-2.227
			c-0.613,0-0.969,0-0.969,0.606c0,0.383,0.291,0.383,0.903,0.383h2.131l-2.422,12.807c-0.58,3.144-1.129,6.093-2.808,6.093
			c-0.13,0-0.937,0-1.55-0.627c1.485-0.097,1.775-1.261,1.775-1.747c0-0.745-0.581-1.133-1.194-1.133
			c-0.841,0-1.776,0.721-1.776,1.967c0,1.476,1.421,2.261,2.743,2.261c1.776,0,3.066-1.913,3.647-3.145
			c1.033-2.043,1.776-5.968,1.809-6.194"/>
	</g>
</g>
<g>
	<path opacity="0.2" fill="#1B1F8A" enable-background="new    " d="M91.032,80.323c20.879-2.493,54.845,11.842,66.376,18.074
		c11.529,6.232,33.343,14.645,40.823,43.626c7.479,28.982,5.559,63.167-4.699,81.599c-10.259,18.433-50.562,42.396-73.831,43.052
		c-23.267,0.655-48.79-5.705-70.982-17.342c-22.192-11.641-22.063-32.077-28.736-51.525c-6.673-19.453-15.893-37.709-7.167-56.406
		C21.54,122.704,60.661,83.949,91.032,80.323z"/>
	<path fill="none" stroke="#000000" stroke-width="1.7127" d="M91.032,80.323c20.879-2.493,54.845,11.842,66.376,18.074
		c11.529,6.232,33.343,14.645,40.823,43.626c7.479,28.982,5.559,63.167-4.699,81.599c-10.259,18.433-50.562,42.396-73.831,43.052
		c-23.267,0.655-48.79-5.705-70.982-17.342c-22.192-11.641-22.063-32.077-28.736-51.525c-6.673-19.453-15.893-37.709-7.167-56.406
		C21.54,122.704,60.661,83.949,91.032,80.323z"/>
	<g>
		<path fill="none" stroke="#000000" stroke-width="0.8564" d="M131.254,132.181c34.701,1.819,66.977,9.842,66.977,9.842"/>
		<path fill="none" stroke="#000000" stroke-width="0.8564" d="M10.154,166.984c0,0,47.541-30.134,89.292-34.311
			c3.053-0.305,6.162-0.522,9.304-0.662"/>
		<path fill="none" stroke="#000000" stroke-width="0.8564" d="M19.982,197.807c0,0,48.612-14.023,86.319-18.074
			c37.706-4.053,96.433-4.056,96.433-4.056"/>
		<path fill="none" stroke="#000000" stroke-width="0.8564" d="M27.807,224.593c0,0,53.254,1.882,85.35-1.856
			c32.097-3.739,86.935-17.521,86.935-17.521"/>
		<path fill="none" stroke="#000000" stroke-width="0.8564" d="M135.842,88.908c0,0,14.117,51.714,16.905,87.783
			c2.79,36.072,2.79,78.438,2.79,78.438"/>
		<path fill="none" stroke="#000000" stroke-width="0.8564" d="M91.032,80.323c0,0,10.596,69.181,15.27,99.407
			c4.673,30.229,13.4,86.942,13.4,86.942"/>
		<path fill="none" stroke="#000000" stroke-width="0.8564" d="M52.18,98.533c0,0,0.745,46.516,9.826,88.787
			c9.082,42.271,19.367,74.673,19.367,74.673"/>
	</g>
</g>
<g>
	<g>
		<path fill="none" stroke="#000000" stroke-width="3.4254" d="M333.665,47.09c-25.055-4.16-51.054-5.17-77.528-2.646
			c-41.48,3.955-80.167,16.208-114.579,34.962"/>
		<polygon points="345.595,49.07 327.643,53.148 332.772,46.942 329.924,39.412 		"/>
	</g>
</g>
<g>
	<circle cx="106.302" cy="179.731" r="2.999"/>
	<g>
		<g>
			<line fill="none" x1="106.301" y1="179.73" x2="123.66" y2="160.71"/>
			<polygon fill="#FFFFFF" points="125.564,158.624 124.081,162.659 123.515,160.864 121.679,160.468 			"/>
		</g>
		<g>
			<line fill="none" stroke="#000000" stroke-width="3" x1="106.301" y1="179.73" x2="123.66" y2="160.71"/>
			<polygon points="129.37,154.451 124.926,166.557 123.232,161.175 117.718,159.98 			"/>
		</g>
	</g>
</g>
<path fill="none" stroke="#000000" stroke-width="2" stroke-dasharray="3" d="M85.667,252c0,0,8.399-7.584,10.333-26.5
	c1.341-13.114-2-37,10.301-45.77c15.408-10.981,38.244-19.334,47.199-26.73c27.882-23.034,19.171-36.664,19.171-36.664"/>
<g>
	<g>
		<defs>
			<rect id="SVGID_22_" x="104.474" y="128.229" width="27" height="22.5"/>
		</defs>
		<clipPath id="SVGID_23_">
			<use xlink:href="#SVGID_22_"  overflow="visible"/>
		</clipPath>
		<path clip-path="url(#SVGID_23_)" d="M119.499,137.103l-2.711-6.435c-0.096-0.259-0.161-0.388-0.161-0.421
			c0-0.193,0.549-0.809,1.905-0.938c0.323-0.031,0.645-0.063,0.645-0.606c0-0.384-0.387-0.384-0.484-0.384
			c-1.323,0-2.71,0.097-4.066,0.097c-0.807,0-2.808-0.097-3.616-0.097c-0.193,0-0.581,0-0.581,0.639
			c0,0.352,0.323,0.352,0.743,0.352c1.937,0,2.13,0.323,2.42,1.034l3.809,9.018l-6.812,7.337c-0.193,0.161-0.226,0.194-0.419,0.354
			c-1.582,1.713-3.099,2.231-4.746,2.327c-0.418,0.032-0.709,0.032-0.709,0.64c0,0.031,0,0.351,0.419,0.351
			c0.968,0,2.033-0.097,3.034-0.097c1.194,0,2.454,0.097,3.615,0.097c0.193,0,0.581,0,0.581-0.64c0-0.318-0.323-0.352-0.387-0.352
			c-0.291-0.033-1.291-0.097-1.291-1.002c0-0.518,0.485-1.034,0.872-1.454l3.292-3.489c0.968-1.066,2.227-2.392,2.905-3.168
			l3.261,7.724c0.128,0.354,0.161,0.388,0.161,0.451c0,0.26-0.614,0.81-1.872,0.938c-0.355,0.032-0.646,0.063-0.646,0.606
			c0,0.384,0.355,0.384,0.484,0.384c0.903,0,3.163-0.097,4.067-0.097c0.807,0,2.776,0.097,3.583,0.097c0.226,0,0.613,0,0.613-0.606
			c0-0.383-0.323-0.383-0.58-0.383c-2.163-0.033-2.228-0.13-2.777-1.423c-1.258-3.006-3.422-8.046-4.164-9.985
			c2.195-2.264,5.584-6.108,6.617-7.014c0.936-0.776,2.163-1.552,4.1-1.649c0.419-0.031,0.71-0.031,0.71-0.638
			c0-0.032,0-0.353-0.419-0.353c-0.968,0-2.033,0.097-3.034,0.097c-1.194,0-2.421-0.097-3.583-0.097c-0.193,0-0.613,0-0.613,0.639
			c0,0.224,0.161,0.32,0.387,0.352c0.291,0.033,1.292,0.098,1.292,1.003c0,0.454-0.355,0.874-0.613,1.164"/>
	</g>
</g>
<g>
	<g>
		<defs>
			<rect id="SVGID_24_" x="180.789" y="245.336" width="33.301" height="22.5"/>
		</defs>
		<clipPath id="SVGID_25_">
			<use xlink:href="#SVGID_24_"  overflow="visible"/>
		</clipPath>
		<path clip-path="url(#SVGID_25_)" d="M209.6,247.902c0.29-1.163,0.355-1.486,2.775-1.486c0.742,0,1.033,0,1.033-0.639
			c0-0.353-0.323-0.353-0.871-0.353h-4.261c-0.84,0-0.871,0-1.259,0.618l-11.782,18.396l-2.518-18.27
			c-0.097-0.746-0.161-0.746-1-0.746h-4.423c-0.613,0-0.968,0-0.968,0.608c0,0.382,0.291,0.382,0.937,0.382
			c0.419,0,1,0.033,1.388,0.064c0.516,0.064,0.709,0.162,0.709,0.518c0,0.13-0.031,0.227-0.128,0.613l-4.1,16.449
			c-0.323,1.293-0.872,2.328-3.485,2.426c-0.162,0-0.582,0.031-0.582,0.606c0,0.288,0.193,0.384,0.452,0.384
			c1.033,0,2.162-0.097,3.227-0.097c1.099,0,2.261,0.097,3.325,0.097c0.161,0,0.582,0,0.582-0.64c0-0.353-0.356-0.353-0.582-0.353
			c-1.84-0.032-2.194-0.679-2.194-1.422c0-0.226,0.031-0.387,0.128-0.742l4.391-17.601h0.032l2.775,20.013
			c0.064,0.387,0.097,0.742,0.484,0.742c0.355,0,0.55-0.355,0.71-0.582l13.041-20.479h0.031l-4.616,18.549
			c-0.322,1.263-0.387,1.521-2.938,1.521c-0.548,0-0.903,0-0.903,0.607c0,0.383,0.387,0.383,0.484,0.383
			c0.903,0,3.099-0.096,4.002-0.096c1.323,0,2.712,0.096,4.035,0.096c0.193,0,0.612,0,0.612-0.639c0-0.352-0.29-0.352-0.903-0.352
			c-1.193,0-2.098,0-2.098-0.582c0-0.129,0-0.194,0.161-0.775"/>
	</g>
</g>
</svg>
