<?xml version="1.0" encoding="utf-8"?>
<!-- Generator: Adobe Illustrator 14.0.0, SVG Export Plug-In . SVG Version: 6.00 Build 43363)  -->
<!DOCTYPE svg PUBLIC "-//W3C//DTD SVG 1.1//EN" "http://www.w3.org/Graphics/SVG/1.1/DTD/svg11.dtd">
<svg version="1.1" id="Layer_1" xmlns="http://www.w3.org/2000/svg" xmlns:xlink="http://www.w3.org/1999/xlink" x="0px" y="0px"
	 width="647.968px" height="256.487px" viewBox="0 0 647.968 256.487" enable-background="new 0 0 647.968 256.487"
	 xml:space="preserve">
<g>
	<polyline fill="none" stroke="#000000" stroke-width="0.8" stroke-linecap="square" stroke-miterlimit="3.25" points="
		16.693,36.717 35.312,36.717 53.93,36.717 72.548,36.717 91.166,36.717 109.785,36.717 128.402,36.717 147.021,36.717 
		165.639,36.717 184.258,36.717 202.875,36.717 221.494,36.717 240.112,36.717 258.729,36.717 277.348,36.717 295.966,36.717 
		314.585,36.717 333.202,36.717 351.821,36.717 370.438,36.717 389.058,36.717 407.675,36.717 426.294,36.717 444.912,36.717 
		463.529,36.717 482.148,36.717 500.767,36.717 519.385,36.717 538.002,36.717 556.621,36.717 575.239,36.717 593.857,36.717 
		612.475,36.717 631.094,36.717 	"/>
	<path fill-rule="evenodd" clip-rule="evenodd" d="M18.494,36.546c0-0.478-0.189-0.936-0.527-1.272
		c-0.337-0.338-0.795-0.527-1.273-0.527c-0.478,0-0.935,0.189-1.272,0.527c-0.338,0.337-0.527,0.795-0.527,1.272
		s0.189,0.936,0.527,1.272c0.337,0.338,0.795,0.527,1.272,0.527c0.478,0,0.936-0.189,1.273-0.527
		C18.304,37.481,18.494,37.023,18.494,36.546z"/>
	<path fill-rule="evenodd" clip-rule="evenodd" d="M36.894,36.546c0-0.478-0.189-0.936-0.527-1.272
		c-0.337-0.338-0.795-0.527-1.272-0.527c-0.478,0-0.936,0.189-1.273,0.527c-0.338,0.337-0.527,0.795-0.527,1.272
		s0.189,0.936,0.527,1.272c0.337,0.338,0.795,0.527,1.273,0.527c0.478,0,0.935-0.189,1.272-0.527
		C36.704,37.481,36.894,37.023,36.894,36.546z"/>
	<path fill-rule="evenodd" clip-rule="evenodd" d="M56.094,36.546c0-0.478-0.189-0.936-0.527-1.272
		c-0.338-0.338-0.795-0.527-1.273-0.527c-0.478,0-0.935,0.189-1.272,0.527c-0.338,0.337-0.527,0.795-0.527,1.272
		s0.189,0.936,0.527,1.272c0.337,0.338,0.795,0.527,1.272,0.527c0.478,0,0.935-0.189,1.273-0.527
		C55.904,37.481,56.094,37.023,56.094,36.546z"/>
	<path fill-rule="evenodd" clip-rule="evenodd" d="M74.494,36.546c0-0.478-0.189-0.936-0.527-1.272
		c-0.337-0.338-0.795-0.527-1.273-0.527c-0.478,0-0.935,0.189-1.272,0.527c-0.338,0.337-0.527,0.795-0.527,1.272
		s0.189,0.936,0.527,1.272c0.337,0.338,0.795,0.527,1.272,0.527c0.478,0,0.936-0.189,1.273-0.527
		C74.304,37.481,74.494,37.023,74.494,36.546z"/>
	<path fill-rule="evenodd" clip-rule="evenodd" d="M92.894,36.546c0-0.478-0.189-0.936-0.527-1.272
		c-0.337-0.338-0.795-0.527-1.272-0.527c-0.478,0-0.936,0.189-1.273,0.527c-0.338,0.337-0.527,0.795-0.527,1.272
		s0.189,0.936,0.527,1.272c0.337,0.338,0.795,0.527,1.273,0.527c0.478,0,0.935-0.189,1.272-0.527
		C92.704,37.481,92.894,37.023,92.894,36.546z"/>
	<path fill-rule="evenodd" clip-rule="evenodd" d="M111.293,36.546c0-0.478-0.189-0.936-0.527-1.272
		c-0.337-0.338-0.795-0.527-1.272-0.527c-0.478,0-0.935,0.189-1.273,0.527c-0.338,0.337-0.527,0.795-0.527,1.272
		s0.189,0.936,0.527,1.272c0.338,0.338,0.795,0.527,1.273,0.527c0.478,0,0.935-0.189,1.272-0.527
		C111.104,37.481,111.293,37.023,111.293,36.546z"/>
	<path fill-rule="evenodd" clip-rule="evenodd" d="M130.494,36.546c0-0.478-0.189-0.936-0.527-1.272
		c-0.337-0.338-0.795-0.527-1.273-0.527c-0.478,0-0.935,0.189-1.272,0.527c-0.338,0.337-0.527,0.795-0.527,1.272
		s0.189,0.936,0.527,1.272c0.337,0.338,0.795,0.527,1.272,0.527c0.478,0,0.936-0.189,1.273-0.527
		C130.304,37.481,130.494,37.023,130.494,36.546z"/>
	<path fill-rule="evenodd" clip-rule="evenodd" d="M148.894,36.546c0-0.478-0.189-0.936-0.527-1.272
		c-0.337-0.338-0.795-0.527-1.272-0.527c-0.478,0-0.936,0.189-1.273,0.527c-0.338,0.337-0.527,0.795-0.527,1.272
		s0.189,0.936,0.527,1.272c0.337,0.338,0.795,0.527,1.273,0.527c0.478,0,0.935-0.189,1.272-0.527
		C148.704,37.481,148.894,37.023,148.894,36.546z"/>
	<path fill-rule="evenodd" clip-rule="evenodd" d="M167.293,36.546c0-0.478-0.189-0.936-0.527-1.272
		c-0.337-0.338-0.795-0.527-1.272-0.527c-0.478,0-0.935,0.189-1.273,0.527c-0.338,0.337-0.527,0.795-0.527,1.272
		s0.189,0.936,0.527,1.272c0.338,0.338,0.795,0.527,1.273,0.527c0.478,0,0.935-0.189,1.272-0.527
		C167.104,37.481,167.293,37.023,167.293,36.546z"/>
	<path fill-rule="evenodd" clip-rule="evenodd" d="M185.693,36.546c0-0.478-0.189-0.936-0.527-1.272
		c-0.337-0.338-0.795-0.527-1.272-0.527s-0.935,0.189-1.272,0.527c-0.338,0.337-0.527,0.795-0.527,1.272s0.189,0.936,0.527,1.272
		c0.337,0.338,0.795,0.527,1.272,0.527s0.935-0.189,1.272-0.527C185.504,37.481,185.693,37.023,185.693,36.546z"/>
	<path fill-rule="evenodd" clip-rule="evenodd" d="M204.894,36.546c0-0.478-0.189-0.936-0.527-1.272
		c-0.337-0.338-0.795-0.527-1.272-0.527c-0.478,0-0.936,0.189-1.273,0.527c-0.338,0.337-0.527,0.795-0.527,1.272
		s0.189,0.936,0.527,1.272c0.337,0.338,0.795,0.527,1.273,0.527c0.478,0,0.935-0.189,1.272-0.527
		C204.704,37.481,204.894,37.023,204.894,36.546z"/>
	<path fill-rule="evenodd" clip-rule="evenodd" d="M223.293,36.546c0-0.478-0.189-0.936-0.527-1.272
		c-0.337-0.338-0.795-0.527-1.272-0.527c-0.478,0-0.935,0.189-1.273,0.527c-0.338,0.337-0.527,0.795-0.527,1.272
		s0.189,0.936,0.527,1.272c0.338,0.338,0.795,0.527,1.273,0.527c0.478,0,0.935-0.189,1.272-0.527
		C223.104,37.481,223.293,37.023,223.293,36.546z"/>
	<path fill-rule="evenodd" clip-rule="evenodd" d="M241.693,36.546c0-0.478-0.189-0.936-0.527-1.272
		c-0.337-0.338-0.795-0.527-1.272-0.527s-0.935,0.189-1.272,0.527c-0.338,0.337-0.527,0.795-0.527,1.272s0.189,0.936,0.527,1.272
		c0.337,0.338,0.795,0.527,1.272,0.527s0.935-0.189,1.272-0.527C241.504,37.481,241.693,37.023,241.693,36.546z"/>
	<path fill-rule="evenodd" clip-rule="evenodd" d="M260.894,36.546c0-0.478-0.19-0.936-0.527-1.272
		c-0.337-0.338-0.795-0.527-1.272-0.527c-0.478,0-0.936,0.189-1.273,0.527c-0.337,0.337-0.527,0.795-0.527,1.272
		s0.19,0.936,0.527,1.272c0.337,0.338,0.795,0.527,1.273,0.527c0.477,0,0.935-0.189,1.272-0.527
		C260.704,37.481,260.894,37.023,260.894,36.546z"/>
	<path fill-rule="evenodd" clip-rule="evenodd" d="M279.293,36.546c0-0.478-0.19-0.936-0.527-1.272
		c-0.337-0.338-0.795-0.527-1.272-0.527c-0.478,0-0.935,0.189-1.273,0.527c-0.337,0.337-0.527,0.795-0.527,1.272
		s0.19,0.936,0.527,1.272c0.338,0.338,0.795,0.527,1.273,0.527c0.477,0,0.935-0.189,1.272-0.527
		C279.104,37.481,279.293,37.023,279.293,36.546z"/>
	<path fill-rule="evenodd" clip-rule="evenodd" d="M297.693,36.546c0-0.478-0.189-0.936-0.527-1.272
		c-0.337-0.338-0.795-0.527-1.272-0.527s-0.935,0.189-1.272,0.527c-0.338,0.337-0.527,0.795-0.527,1.272s0.189,0.936,0.527,1.272
		c0.337,0.338,0.795,0.527,1.272,0.527s0.935-0.189,1.272-0.527C297.504,37.481,297.693,37.023,297.693,36.546z"/>
	<path fill-rule="evenodd" clip-rule="evenodd" d="M316.094,36.546c0-0.478-0.19-0.936-0.527-1.272
		c-0.338-0.338-0.795-0.527-1.273-0.527c-0.477,0-0.935,0.189-1.272,0.527c-0.337,0.337-0.527,0.795-0.527,1.272
		s0.19,0.936,0.527,1.272c0.337,0.338,0.795,0.527,1.272,0.527c0.478,0,0.935-0.189,1.273-0.527
		C315.904,37.481,316.094,37.023,316.094,36.546z"/>
	<path fill-rule="evenodd" clip-rule="evenodd" d="M335.294,36.546c0-0.478-0.19-0.936-0.527-1.272
		c-0.338-0.338-0.796-0.527-1.273-0.527c-0.477,0-0.935,0.189-1.272,0.527c-0.337,0.337-0.527,0.795-0.527,1.272
		s0.19,0.936,0.527,1.272c0.338,0.338,0.796,0.527,1.272,0.527c0.478,0,0.936-0.189,1.273-0.527
		C335.104,37.481,335.294,37.023,335.294,36.546z"/>
	<path fill-rule="evenodd" clip-rule="evenodd" d="M353.693,36.546c0-0.478-0.189-0.936-0.527-1.272
		c-0.337-0.338-0.795-0.527-1.272-0.527s-0.936,0.189-1.272,0.527c-0.338,0.337-0.527,0.795-0.527,1.272s0.189,0.936,0.527,1.272
		c0.337,0.338,0.795,0.527,1.272,0.527s0.936-0.189,1.272-0.527C353.504,37.481,353.693,37.023,353.693,36.546z"/>
	<path fill-rule="evenodd" clip-rule="evenodd" d="M372.094,36.546c0-0.478-0.19-0.936-0.527-1.272
		c-0.338-0.338-0.796-0.527-1.272-0.527c-0.478,0-0.936,0.189-1.273,0.527c-0.337,0.337-0.527,0.795-0.527,1.272
		s0.19,0.936,0.527,1.272c0.338,0.338,0.796,0.527,1.273,0.527c0.477,0,0.935-0.189,1.272-0.527
		C371.903,37.481,372.094,37.023,372.094,36.546z"/>
	<path fill-rule="evenodd" clip-rule="evenodd" d="M390.493,36.546c0-0.478-0.189-0.936-0.527-1.272
		c-0.337-0.338-0.795-0.527-1.272-0.527s-0.935,0.189-1.272,0.527c-0.338,0.337-0.527,0.795-0.527,1.272s0.189,0.936,0.527,1.272
		c0.338,0.338,0.795,0.527,1.272,0.527s0.936-0.189,1.272-0.527C390.304,37.481,390.493,37.023,390.493,36.546z"/>
	<path fill-rule="evenodd" clip-rule="evenodd" d="M409.693,36.546c0-0.478-0.189-0.936-0.527-1.272
		c-0.337-0.338-0.795-0.527-1.272-0.527s-0.936,0.189-1.272,0.527c-0.338,0.337-0.527,0.795-0.527,1.272s0.189,0.936,0.527,1.272
		c0.337,0.338,0.795,0.527,1.272,0.527s0.936-0.189,1.272-0.527C409.504,37.481,409.693,37.023,409.693,36.546z"/>
	<path fill-rule="evenodd" clip-rule="evenodd" d="M428.094,36.546c0-0.478-0.19-0.936-0.527-1.272
		c-0.338-0.338-0.796-0.527-1.272-0.527c-0.478,0-0.936,0.189-1.273,0.527c-0.337,0.337-0.527,0.795-0.527,1.272
		s0.19,0.936,0.527,1.272c0.338,0.338,0.796,0.527,1.273,0.527c0.477,0,0.935-0.189,1.272-0.527
		C427.903,37.481,428.094,37.023,428.094,36.546z"/>
	<path fill-rule="evenodd" clip-rule="evenodd" d="M446.493,36.546c0-0.478-0.189-0.936-0.527-1.272
		c-0.337-0.338-0.795-0.527-1.272-0.527s-0.935,0.189-1.272,0.527c-0.338,0.337-0.527,0.795-0.527,1.272s0.189,0.936,0.527,1.272
		c0.338,0.338,0.795,0.527,1.272,0.527s0.936-0.189,1.272-0.527C446.304,37.481,446.493,37.023,446.493,36.546z"/>
	<path fill-rule="evenodd" clip-rule="evenodd" d="M465.693,36.546c0-0.478-0.189-0.936-0.527-1.272
		c-0.337-0.338-0.795-0.527-1.272-0.527s-0.936,0.189-1.272,0.527c-0.338,0.337-0.527,0.795-0.527,1.272s0.189,0.936,0.527,1.272
		c0.337,0.338,0.795,0.527,1.272,0.527s0.936-0.189,1.272-0.527C465.504,37.481,465.693,37.023,465.693,36.546z"/>
	<path fill-rule="evenodd" clip-rule="evenodd" d="M484.094,36.546c0-0.478-0.19-0.936-0.527-1.272
		c-0.338-0.338-0.796-0.527-1.272-0.527c-0.478,0-0.936,0.189-1.273,0.527c-0.337,0.337-0.527,0.795-0.527,1.272
		s0.19,0.936,0.527,1.272c0.338,0.338,0.796,0.527,1.273,0.527c0.477,0,0.935-0.189,1.272-0.527
		C483.903,37.481,484.094,37.023,484.094,36.546z"/>
	<path fill-rule="evenodd" clip-rule="evenodd" d="M502.493,36.546c0-0.478-0.189-0.936-0.527-1.272
		c-0.337-0.338-0.795-0.527-1.272-0.527s-0.935,0.189-1.272,0.527c-0.338,0.337-0.527,0.795-0.527,1.272s0.189,0.936,0.527,1.272
		c0.338,0.338,0.795,0.527,1.272,0.527s0.936-0.189,1.272-0.527C502.304,37.481,502.493,37.023,502.493,36.546z"/>
	<path fill-rule="evenodd" clip-rule="evenodd" d="M520.894,36.546c0-0.478-0.189-0.936-0.527-1.272
		c-0.338-0.338-0.795-0.527-1.272-0.527s-0.936,0.189-1.272,0.527c-0.338,0.337-0.527,0.795-0.527,1.272s0.189,0.936,0.527,1.272
		c0.337,0.338,0.795,0.527,1.272,0.527s0.935-0.189,1.272-0.527C520.704,37.481,520.894,37.023,520.894,36.546z"/>
	<path fill-rule="evenodd" clip-rule="evenodd" d="M540.094,36.546c0-0.478-0.19-0.936-0.527-1.272
		c-0.338-0.338-0.796-0.527-1.272-0.527c-0.478,0-0.936,0.189-1.273,0.527c-0.337,0.337-0.527,0.795-0.527,1.272
		s0.19,0.936,0.527,1.272c0.338,0.338,0.796,0.527,1.273,0.527c0.477,0,0.935-0.189,1.272-0.527
		C539.903,37.481,540.094,37.023,540.094,36.546z"/>
	<path fill-rule="evenodd" clip-rule="evenodd" d="M558.493,36.546c0-0.478-0.189-0.936-0.527-1.272
		c-0.337-0.338-0.795-0.527-1.272-0.527s-0.935,0.189-1.272,0.527c-0.338,0.337-0.527,0.795-0.527,1.272s0.189,0.936,0.527,1.272
		c0.338,0.338,0.795,0.527,1.272,0.527s0.936-0.189,1.272-0.527C558.304,37.481,558.493,37.023,558.493,36.546z"/>
	<path fill-rule="evenodd" clip-rule="evenodd" d="M576.894,36.546c0-0.478-0.189-0.936-0.527-1.272
		c-0.338-0.338-0.795-0.527-1.272-0.527s-0.936,0.189-1.272,0.527c-0.338,0.337-0.527,0.795-0.527,1.272s0.189,0.936,0.527,1.272
		c0.337,0.338,0.795,0.527,1.272,0.527s0.935-0.189,1.272-0.527C576.704,37.481,576.894,37.023,576.894,36.546z"/>
	<path fill-rule="evenodd" clip-rule="evenodd" d="M595.294,36.546c0-0.478-0.19-0.936-0.527-1.272
		c-0.338-0.338-0.796-0.527-1.273-0.527c-0.477,0-0.935,0.189-1.272,0.527c-0.337,0.337-0.527,0.795-0.527,1.272
		s0.19,0.936,0.527,1.272c0.338,0.338,0.796,0.527,1.272,0.527c0.478,0,0.936-0.189,1.273-0.527
		C595.104,37.481,595.294,37.023,595.294,36.546z"/>
	<path fill-rule="evenodd" clip-rule="evenodd" d="M614.493,36.546c0-0.478-0.189-0.936-0.527-1.272
		c-0.337-0.338-0.795-0.527-1.272-0.527s-0.935,0.189-1.272,0.527c-0.338,0.337-0.527,0.795-0.527,1.272s0.189,0.936,0.527,1.272
		c0.338,0.338,0.795,0.527,1.272,0.527s0.936-0.189,1.272-0.527C614.304,37.481,614.493,37.023,614.493,36.546z"/>
	<path fill-rule="evenodd" clip-rule="evenodd" d="M632.894,36.546c0-0.478-0.189-0.936-0.527-1.272
		c-0.338-0.338-0.795-0.527-1.272-0.527s-0.936,0.189-1.272,0.527c-0.338,0.337-0.527,0.795-0.527,1.272s0.189,0.936,0.527,1.272
		c0.337,0.338,0.795,0.527,1.272,0.527s0.935-0.189,1.272-0.527C632.704,37.481,632.894,37.023,632.894,36.546z"/>
	<polyline fill="none" stroke="#000000" stroke-width="0.8" stroke-linecap="square" stroke-miterlimit="3.25" points="
		16.693,204.849 36.161,204.849 49.873,204.849 58.613,204.849 63.609,204.849 66.422,204.849 68.808,204.849 72.564,204.849 
		79.361,204.849 90.599,204.849 107.284,204.849 129.932,204.849 158.529,204.849 192.527,204.849 230.899,204.849 272.224,204.849 
		314.818,204.849 356.887,204.849 396.677,204.849 432.644,204.849 463.583,204.849 488.738,204.849 507.871,204.849 
		521.279,204.849 529.773,204.849 534.603,204.849 537.345,204.849 539.761,204.849 543.646,204.849 550.656,204.849 
		562.178,204.849 579.188,204.849 602.175,204.849 631.094,204.849 	"/>
	<path fill-rule="evenodd" clip-rule="evenodd" d="M18.494,204.677c0-0.477-0.189-0.935-0.527-1.272
		c-0.337-0.337-0.795-0.527-1.273-0.527c-0.478,0-0.935,0.19-1.272,0.527c-0.338,0.338-0.527,0.796-0.527,1.272
		c0,0.478,0.189,0.936,0.527,1.273c0.337,0.337,0.795,0.527,1.272,0.527c0.478,0,0.936-0.19,1.273-0.527
		C18.304,205.612,18.494,205.154,18.494,204.677z"/>
	<path fill-rule="evenodd" clip-rule="evenodd" d="M37.693,204.677c0-0.477-0.189-0.935-0.527-1.272
		c-0.337-0.337-0.795-0.527-1.272-0.527s-0.935,0.19-1.272,0.527c-0.338,0.338-0.527,0.796-0.527,1.272
		c0,0.478,0.189,0.936,0.527,1.273c0.337,0.337,0.795,0.527,1.272,0.527s0.935-0.19,1.272-0.527
		C37.504,205.612,37.693,205.154,37.693,204.677z"/>
	<path fill-rule="evenodd" clip-rule="evenodd" d="M51.293,204.677c0-0.477-0.189-0.935-0.527-1.272
		c-0.337-0.337-0.795-0.527-1.272-0.527c-0.478,0-0.935,0.19-1.273,0.527c-0.338,0.338-0.527,0.796-0.527,1.272
		c0,0.478,0.189,0.936,0.527,1.273c0.338,0.337,0.795,0.527,1.273,0.527c0.478,0,0.935-0.19,1.272-0.527
		C51.104,205.612,51.293,205.154,51.293,204.677z"/>
	<path fill-rule="evenodd" clip-rule="evenodd" d="M60.094,204.677c0-0.477-0.189-0.935-0.527-1.272
		c-0.338-0.337-0.795-0.527-1.273-0.527c-0.478,0-0.935,0.19-1.272,0.527c-0.338,0.338-0.527,0.796-0.527,1.272
		c0,0.478,0.189,0.936,0.527,1.273c0.337,0.337,0.795,0.527,1.272,0.527c0.478,0,0.935-0.19,1.273-0.527
		C59.904,205.612,60.094,205.154,60.094,204.677z"/>
	<path fill-rule="evenodd" clip-rule="evenodd" d="M65.693,204.677c0-0.477-0.189-0.935-0.527-1.272
		c-0.337-0.337-0.795-0.527-1.272-0.527s-0.935,0.19-1.272,0.527c-0.338,0.338-0.527,0.796-0.527,1.272
		c0,0.478,0.189,0.936,0.527,1.273c0.337,0.337,0.795,0.527,1.272,0.527s0.935-0.19,1.272-0.527
		C65.504,205.612,65.693,205.154,65.693,204.677z"/>
	<path fill-rule="evenodd" clip-rule="evenodd" d="M68.094,204.677c0-0.477-0.189-0.935-0.527-1.272
		c-0.338-0.337-0.795-0.527-1.273-0.527c-0.478,0-0.935,0.19-1.272,0.527c-0.338,0.338-0.527,0.796-0.527,1.272
		c0,0.478,0.189,0.936,0.527,1.273c0.337,0.337,0.795,0.527,1.272,0.527c0.478,0,0.935-0.19,1.273-0.527
		C67.904,205.612,68.094,205.154,68.094,204.677z"/>
	<path fill-rule="evenodd" clip-rule="evenodd" d="M70.494,204.677c0-0.477-0.189-0.935-0.527-1.272
		c-0.337-0.337-0.795-0.527-1.273-0.527c-0.478,0-0.935,0.19-1.272,0.527c-0.338,0.338-0.527,0.796-0.527,1.272
		c0,0.478,0.189,0.936,0.527,1.273c0.337,0.337,0.795,0.527,1.272,0.527c0.478,0,0.936-0.19,1.273-0.527
		C70.304,205.612,70.494,205.154,70.494,204.677z"/>
	<path fill-rule="evenodd" clip-rule="evenodd" d="M74.494,204.677c0-0.477-0.189-0.935-0.527-1.272
		c-0.337-0.337-0.795-0.527-1.273-0.527c-0.478,0-0.935,0.19-1.272,0.527c-0.338,0.338-0.527,0.796-0.527,1.272
		c0,0.478,0.189,0.936,0.527,1.273c0.337,0.337,0.795,0.527,1.272,0.527c0.478,0,0.936-0.19,1.273-0.527
		C74.304,205.612,74.494,205.154,74.494,204.677z"/>
	<path fill-rule="evenodd" clip-rule="evenodd" d="M80.894,204.677c0-0.477-0.189-0.935-0.527-1.272
		c-0.337-0.337-0.795-0.527-1.272-0.527c-0.478,0-0.936,0.19-1.273,0.527c-0.338,0.338-0.527,0.796-0.527,1.272
		c0,0.478,0.189,0.936,0.527,1.273c0.337,0.337,0.795,0.527,1.273,0.527c0.478,0,0.935-0.19,1.272-0.527
		C80.704,205.612,80.894,205.154,80.894,204.677z"/>
	<path fill-rule="evenodd" clip-rule="evenodd" d="M92.094,204.677c0-0.477-0.189-0.935-0.527-1.272
		c-0.338-0.337-0.795-0.527-1.273-0.527c-0.478,0-0.935,0.19-1.272,0.527c-0.338,0.338-0.527,0.796-0.527,1.272
		c0,0.478,0.189,0.936,0.527,1.273c0.337,0.337,0.795,0.527,1.272,0.527c0.478,0,0.935-0.19,1.273-0.527
		C91.904,205.612,92.094,205.154,92.094,204.677z"/>
	<path fill-rule="evenodd" clip-rule="evenodd" d="M108.894,204.677c0-0.477-0.189-0.935-0.527-1.272
		c-0.337-0.337-0.795-0.527-1.272-0.527c-0.478,0-0.936,0.19-1.273,0.527c-0.338,0.338-0.527,0.796-0.527,1.272
		c0,0.478,0.189,0.936,0.527,1.273c0.337,0.337,0.795,0.527,1.273,0.527c0.478,0,0.935-0.19,1.272-0.527
		C108.704,205.612,108.894,205.154,108.894,204.677z"/>
	<path fill-rule="evenodd" clip-rule="evenodd" d="M132.094,204.677c0-0.477-0.189-0.935-0.527-1.272
		c-0.338-0.337-0.795-0.527-1.273-0.527c-0.478,0-0.935,0.19-1.272,0.527c-0.338,0.338-0.527,0.796-0.527,1.272
		c0,0.478,0.189,0.936,0.527,1.273c0.337,0.337,0.795,0.527,1.272,0.527c0.478,0,0.935-0.19,1.273-0.527
		C131.904,205.612,132.094,205.154,132.094,204.677z"/>
	<path fill-rule="evenodd" clip-rule="evenodd" d="M160.094,204.677c0-0.477-0.189-0.935-0.527-1.272
		c-0.338-0.337-0.795-0.527-1.273-0.527c-0.478,0-0.935,0.19-1.272,0.527c-0.338,0.338-0.527,0.796-0.527,1.272
		c0,0.478,0.189,0.936,0.527,1.273c0.337,0.337,0.795,0.527,1.272,0.527c0.478,0,0.935-0.19,1.273-0.527
		C159.904,205.612,160.094,205.154,160.094,204.677z"/>
	<path fill-rule="evenodd" clip-rule="evenodd" d="M194.494,204.677c0-0.477-0.189-0.935-0.527-1.272
		c-0.337-0.337-0.795-0.527-1.273-0.527c-0.478,0-0.935,0.19-1.272,0.527c-0.338,0.338-0.527,0.796-0.527,1.272
		c0,0.478,0.189,0.936,0.527,1.273c0.337,0.337,0.795,0.527,1.272,0.527c0.478,0,0.936-0.19,1.273-0.527
		C194.304,205.612,194.494,205.154,194.494,204.677z"/>
	<path fill-rule="evenodd" clip-rule="evenodd" d="M232.894,204.677c0-0.477-0.189-0.935-0.527-1.272
		c-0.337-0.337-0.795-0.527-1.272-0.527c-0.478,0-0.936,0.19-1.273,0.527c-0.338,0.338-0.527,0.796-0.527,1.272
		c0,0.478,0.189,0.936,0.527,1.273c0.337,0.337,0.795,0.527,1.273,0.527c0.478,0,0.935-0.19,1.272-0.527
		C232.704,205.612,232.894,205.154,232.894,204.677z"/>
	<path fill-rule="evenodd" clip-rule="evenodd" d="M273.693,204.677c0-0.477-0.189-0.935-0.527-1.272
		c-0.337-0.337-0.795-0.527-1.272-0.527s-0.935,0.19-1.272,0.527c-0.338,0.338-0.527,0.796-0.527,1.272
		c0,0.478,0.189,0.936,0.527,1.273c0.337,0.337,0.795,0.527,1.272,0.527s0.935-0.19,1.272-0.527
		C273.504,205.612,273.693,205.154,273.693,204.677z"/>
	<path fill-rule="evenodd" clip-rule="evenodd" d="M316.894,204.677c0-0.477-0.19-0.935-0.527-1.272
		c-0.337-0.337-0.795-0.527-1.272-0.527c-0.478,0-0.936,0.19-1.273,0.527c-0.337,0.338-0.527,0.796-0.527,1.272
		c0,0.478,0.19,0.936,0.527,1.273c0.337,0.337,0.795,0.527,1.273,0.527c0.477,0,0.935-0.19,1.272-0.527
		C316.704,205.612,316.894,205.154,316.894,204.677z"/>
	<path fill-rule="evenodd" clip-rule="evenodd" d="M358.493,204.677c0-0.477-0.189-0.935-0.527-1.272
		c-0.337-0.337-0.795-0.527-1.272-0.527s-0.935,0.19-1.272,0.527c-0.338,0.338-0.527,0.796-0.527,1.272
		c0,0.478,0.189,0.936,0.527,1.273c0.338,0.337,0.795,0.527,1.272,0.527s0.936-0.19,1.272-0.527
		C358.304,205.612,358.493,205.154,358.493,204.677z"/>
	<path fill-rule="evenodd" clip-rule="evenodd" d="M398.493,204.677c0-0.477-0.189-0.935-0.527-1.272
		c-0.337-0.337-0.795-0.527-1.272-0.527s-0.935,0.19-1.272,0.527c-0.338,0.338-0.527,0.796-0.527,1.272
		c0,0.478,0.189,0.936,0.527,1.273c0.338,0.337,0.795,0.527,1.272,0.527s0.936-0.19,1.272-0.527
		C398.304,205.612,398.493,205.154,398.493,204.677z"/>
	<path fill-rule="evenodd" clip-rule="evenodd" d="M434.493,204.677c0-0.477-0.189-0.935-0.527-1.272
		c-0.337-0.337-0.795-0.527-1.272-0.527s-0.935,0.19-1.272,0.527c-0.338,0.338-0.527,0.796-0.527,1.272
		c0,0.478,0.189,0.936,0.527,1.273c0.338,0.337,0.795,0.527,1.272,0.527s0.936-0.19,1.272-0.527
		C434.304,205.612,434.493,205.154,434.493,204.677z"/>
	<path fill-rule="evenodd" clip-rule="evenodd" d="M465.693,204.677c0-0.477-0.189-0.935-0.527-1.272
		c-0.337-0.337-0.795-0.527-1.272-0.527s-0.936,0.19-1.272,0.527c-0.338,0.338-0.527,0.796-0.527,1.272
		c0,0.478,0.189,0.936,0.527,1.273c0.337,0.337,0.795,0.527,1.272,0.527s0.936-0.19,1.272-0.527
		C465.504,205.612,465.693,205.154,465.693,204.677z"/>
	<path fill-rule="evenodd" clip-rule="evenodd" d="M490.493,204.677c0-0.477-0.189-0.935-0.527-1.272
		c-0.337-0.337-0.795-0.527-1.272-0.527s-0.935,0.19-1.272,0.527c-0.338,0.338-0.527,0.796-0.527,1.272
		c0,0.478,0.189,0.936,0.527,1.273c0.338,0.337,0.795,0.527,1.272,0.527s0.936-0.19,1.272-0.527
		C490.304,205.612,490.493,205.154,490.493,204.677z"/>
	<path fill-rule="evenodd" clip-rule="evenodd" d="M509.693,204.677c0-0.477-0.189-0.935-0.527-1.272
		c-0.337-0.337-0.795-0.527-1.272-0.527s-0.936,0.19-1.272,0.527c-0.338,0.338-0.527,0.796-0.527,1.272
		c0,0.478,0.189,0.936,0.527,1.273c0.337,0.337,0.795,0.527,1.272,0.527s0.936-0.19,1.272-0.527
		C509.504,205.612,509.693,205.154,509.693,204.677z"/>
	<path fill-rule="evenodd" clip-rule="evenodd" d="M523.294,204.677c0-0.477-0.19-0.935-0.527-1.272
		c-0.338-0.337-0.796-0.527-1.273-0.527c-0.477,0-0.935,0.19-1.272,0.527c-0.337,0.338-0.527,0.796-0.527,1.272
		c0,0.478,0.19,0.936,0.527,1.273c0.338,0.337,0.796,0.527,1.272,0.527c0.478,0,0.936-0.19,1.273-0.527
		C523.104,205.612,523.294,205.154,523.294,204.677z"/>
	<path fill-rule="evenodd" clip-rule="evenodd" d="M531.294,204.677c0-0.477-0.19-0.935-0.527-1.272
		c-0.338-0.337-0.796-0.527-1.273-0.527c-0.477,0-0.935,0.19-1.272,0.527c-0.337,0.338-0.527,0.796-0.527,1.272
		c0,0.478,0.19,0.936,0.527,1.273c0.338,0.337,0.796,0.527,1.272,0.527c0.478,0,0.936-0.19,1.273-0.527
		C531.104,205.612,531.294,205.154,531.294,204.677z"/>
	<path fill-rule="evenodd" clip-rule="evenodd" d="M536.094,204.677c0-0.477-0.19-0.935-0.527-1.272
		c-0.338-0.337-0.796-0.527-1.272-0.527c-0.478,0-0.936,0.19-1.273,0.527c-0.337,0.338-0.527,0.796-0.527,1.272
		c0,0.478,0.19,0.936,0.527,1.273c0.338,0.337,0.796,0.527,1.273,0.527c0.477,0,0.935-0.19,1.272-0.527
		C535.903,205.612,536.094,205.154,536.094,204.677z"/>
	<path fill-rule="evenodd" clip-rule="evenodd" d="M539.294,204.677c0-0.477-0.19-0.935-0.527-1.272
		c-0.338-0.337-0.796-0.527-1.273-0.527c-0.477,0-0.935,0.19-1.272,0.527c-0.337,0.338-0.527,0.796-0.527,1.272
		c0,0.478,0.19,0.936,0.527,1.273c0.338,0.337,0.796,0.527,1.272,0.527c0.478,0,0.936-0.19,1.273-0.527
		C539.104,205.612,539.294,205.154,539.294,204.677z"/>
	<path fill-rule="evenodd" clip-rule="evenodd" d="M541.693,204.677c0-0.477-0.189-0.935-0.527-1.272
		c-0.337-0.337-0.795-0.527-1.272-0.527s-0.936,0.19-1.272,0.527c-0.338,0.338-0.527,0.796-0.527,1.272
		c0,0.478,0.189,0.936,0.527,1.273c0.337,0.337,0.795,0.527,1.272,0.527s0.936-0.19,1.272-0.527
		C541.504,205.612,541.693,205.154,541.693,204.677z"/>
	<path fill-rule="evenodd" clip-rule="evenodd" d="M545.693,204.677c0-0.477-0.189-0.935-0.527-1.272
		c-0.337-0.337-0.795-0.527-1.272-0.527s-0.936,0.19-1.272,0.527c-0.338,0.338-0.527,0.796-0.527,1.272
		c0,0.478,0.189,0.936,0.527,1.273c0.337,0.337,0.795,0.527,1.272,0.527s0.936-0.19,1.272-0.527
		C545.504,205.612,545.693,205.154,545.693,204.677z"/>
	<path fill-rule="evenodd" clip-rule="evenodd" d="M552.094,204.677c0-0.477-0.19-0.935-0.527-1.272
		c-0.338-0.337-0.796-0.527-1.272-0.527c-0.478,0-0.936,0.19-1.273,0.527c-0.337,0.338-0.527,0.796-0.527,1.272
		c0,0.478,0.19,0.936,0.527,1.273c0.338,0.337,0.796,0.527,1.273,0.527c0.477,0,0.935-0.19,1.272-0.527
		C551.903,205.612,552.094,205.154,552.094,204.677z"/>
	<path fill-rule="evenodd" clip-rule="evenodd" d="M564.094,204.677c0-0.477-0.19-0.935-0.527-1.272
		c-0.338-0.337-0.796-0.527-1.272-0.527c-0.478,0-0.936,0.19-1.273,0.527c-0.337,0.338-0.527,0.796-0.527,1.272
		c0,0.478,0.19,0.936,0.527,1.273c0.338,0.337,0.796,0.527,1.273,0.527c0.477,0,0.935-0.19,1.272-0.527
		C563.903,205.612,564.094,205.154,564.094,204.677z"/>
	<path fill-rule="evenodd" clip-rule="evenodd" d="M580.894,204.677c0-0.477-0.189-0.935-0.527-1.272
		c-0.338-0.337-0.795-0.527-1.272-0.527s-0.936,0.19-1.272,0.527c-0.338,0.338-0.527,0.796-0.527,1.272
		c0,0.478,0.189,0.936,0.527,1.273c0.337,0.337,0.795,0.527,1.272,0.527s0.935-0.19,1.272-0.527
		C580.704,205.612,580.894,205.154,580.894,204.677z"/>
	<path fill-rule="evenodd" clip-rule="evenodd" d="M604.094,204.677c0-0.477-0.19-0.935-0.527-1.272
		c-0.338-0.337-0.796-0.527-1.272-0.527c-0.478,0-0.936,0.19-1.273,0.527c-0.337,0.338-0.527,0.796-0.527,1.272
		c0,0.478,0.19,0.936,0.527,1.273c0.338,0.337,0.796,0.527,1.273,0.527c0.477,0,0.935-0.19,1.272-0.527
		C603.903,205.612,604.094,205.154,604.094,204.677z"/>
	<path fill-rule="evenodd" clip-rule="evenodd" d="M632.894,204.677c0-0.477-0.189-0.935-0.527-1.272
		c-0.338-0.337-0.795-0.527-1.272-0.527s-0.936,0.19-1.272,0.527c-0.338,0.338-0.527,0.796-0.527,1.272
		c0,0.478,0.189,0.936,0.527,1.273c0.337,0.337,0.795,0.527,1.272,0.527s0.935-0.19,1.272-0.527
		C632.704,205.612,632.894,205.154,632.894,204.677z"/>
	<g>
		<path d="M605.829,61.686c0.201-0.036,0.316-0.075,0.547-0.075c0.43,0,1.061-0.074,1.491-0.148c0.431,0.688,3.529,5.771,5.91,8.142
			h-2.783 M599.719,69.604c0.213-0.515,0.213-1.315,0.213-1.573V53.58c0-0.286,0-1.059-0.213-1.575h3.271
			c-0.418,0.459-0.418,1.031-0.418,1.461v14.565c0,0.285,0,1.059,0.274,1.573H599.719z M603.612,53.557c0-0.603,0-1.552,1.783-1.552
			c2.445,0,3.656,1.006,3.656,4.393c0,3.702-0.894,4.247-5.439,4.247V53.557z M609.158,60.229c0.843-1.062,0.933-2.582,0.933-3.845
			c0-1.377-0.179-2.898-1.133-4.075c1.175,0.259,4.013,1.148,4.013,4.047C612.971,58.221,612.11,59.685,609.158,60.229z
			 M603.612,61.686h1.033c0.287,0.428,2.324,3.595,4.306,6.619c0.287,0.457,0.976,1.569,1.291,1.997
			c0.2,0.343,0.287,0.343,0.947,0.343h3.962c0.517,0,0.95,0,0.95-0.535c0-0.237-0.172-0.445-0.431-0.506
			c-1.062-0.229-2.467-2.122-3.155-3.039c-0.202-0.287-1.636-2.179-3.558-5.275c2.569-0.459,5.053-1.549,5.053-4.96
			c0-3.986-4.227-5.364-7.619-5.364h-9.024c-0.517,0-0.977,0-0.977,0.535c0,0.505,0.534,0.505,0.759,0.505
			c1.602,0,1.742,0.201,1.742,1.632v14.336c0,1.431-0.141,1.631-1.742,1.631c-0.226,0-0.759,0-0.759,0.506
			c0,0.535,0.459,0.535,0.976,0.535h7.861c0.518,0,0.948,0,0.948-0.535c0-0.506-0.49-0.506-0.808-0.506
			c-1.641,0-1.755-0.228-1.755-1.617L603.612,61.686z"/>
	</g>
	<g>
		<path d="M578.325,229.902c2.177,0.116,3.808,1.433,3.808,3.949c0,3.376-2.462,7.467-6.755,7.811 M574.635,241.662
			c-1.718-0.086-3.781-1.087-3.781-3.948c0-3.433,2.464-7.438,6.733-7.812L574.635,241.662z M580.088,222.751
			c0-0.056,0.086-0.372,0.086-0.401c0-0.028,0-0.288-0.343-0.288c-0.285,0-0.313,0.088-0.428,0.575l-1.656,6.625
			c-4.538,0.146-8.734,3.97-8.734,7.882c0,2.732,1.999,5.005,5.48,5.206c-0.229,0.891-0.428,1.812-0.656,2.703
			c-0.343,1.353-0.628,2.445-0.628,2.531c0,0.288,0.2,0.316,0.343,0.316s0.2-0.028,0.286-0.114c0.057-0.059,0.229-0.749,0.314-1.151
			c0.371-1.409,0.713-2.848,1.084-4.285c4.597-0.145,8.738-4.026,8.738-7.881c0-2.272-1.517-4.919-5.484-5.207L580.088,222.751z"/>
		<path d="M594.19,248.895c0-0.086,0-0.144-0.491-0.632c-3.604-3.617-4.526-9.044-4.526-13.438c0-4.996,1.097-9.992,4.642-13.582
			c0.376-0.344,0.376-0.401,0.376-0.487c0-0.2-0.115-0.293-0.29-0.293c-0.288,0-2.886,1.959-4.589,5.605
			c-1.474,3.159-1.818,6.346-1.818,8.758c0,2.239,0.317,5.714,1.905,8.958c1.731,3.533,4.215,5.398,4.504,5.398
			C594.075,249.183,594.191,249.097,594.19,248.895"/>
		<path d="M605.712,233.022c0.2-0.037,0.316-0.075,0.546-0.075c0.431,0,1.062-0.074,1.492-0.148c0.43,0.687,3.529,5.771,5.91,8.142
			h-2.784 M599.601,240.941c0.214-0.515,0.214-1.315,0.214-1.573v-14.451c0-0.286,0-1.059-0.214-1.575h3.271
			c-0.418,0.459-0.418,1.03-0.418,1.46v14.566c0,0.285,0,1.059,0.273,1.573H599.601z M603.494,224.894c0-0.604,0-1.552,1.784-1.552
			c2.445,0,3.655,1.006,3.655,4.393c0,3.702-0.894,4.247-5.439,4.247V224.894z M609.04,231.566c0.844-1.062,0.934-2.582,0.934-3.845
			c0-1.377-0.18-2.898-1.134-4.075c1.176,0.259,4.014,1.148,4.014,4.046C612.854,229.558,611.993,231.021,609.04,231.566z
			 M603.494,233.022h1.034c0.287,0.428,2.324,3.595,4.305,6.619c0.288,0.457,0.977,1.569,1.292,1.997
			c0.2,0.343,0.287,0.343,0.946,0.343h3.962c0.518,0,0.951,0,0.951-0.535c0-0.238-0.172-0.445-0.431-0.506
			c-1.062-0.229-2.467-2.122-3.156-3.039c-0.201-0.287-1.635-2.179-3.558-5.275c2.569-0.459,5.054-1.549,5.054-4.961
			c0-3.985-4.228-5.363-7.619-5.363h-9.024c-0.518,0-0.978,0-0.978,0.535c0,0.505,0.535,0.505,0.759,0.505
			c1.602,0,1.742,0.201,1.742,1.632v14.336c0,1.43-0.141,1.631-1.742,1.631c-0.225,0-0.759,0-0.759,0.506
			c0,0.535,0.459,0.535,0.977,0.535h7.861c0.517,0,0.947,0,0.947-0.535c0-0.506-0.49-0.506-0.807-0.506
			c-1.642,0-1.756-0.228-1.756-1.617L603.494,233.022z"/>
		<path d="M624.853,234.825c0-2.241-0.317-5.715-1.902-8.959c-1.728-3.531-4.205-5.404-4.493-5.404
			c-0.173,0-0.288,0.121-0.288,0.293c0,0.086,0,0.145,0.547,0.66c2.816,2.844,4.456,7.408,4.456,13.41
			c0,4.909-1.064,9.962-4.63,13.581c-0.373,0.345-0.373,0.402-0.373,0.488c0,0.173,0.115,0.286,0.288,0.286
			c0.288,0,2.88-1.952,4.579-5.598C624.505,240.424,624.853,237.236,624.853,234.825"/>
	</g>
	<g>
		<path d="M87.204,114.611c2.177,0.116,3.807,1.433,3.807,3.949c0,3.377-2.462,7.468-6.755,7.812 M83.514,126.372
			c-1.719-0.086-3.782-1.088-3.782-3.949c0-3.433,2.464-7.438,6.733-7.812L83.514,126.372z M88.966,107.461
			c0-0.057,0.086-0.373,0.086-0.401s0-0.289-0.343-0.289c-0.285,0-0.313,0.089-0.427,0.575l-1.656,6.625
			c-4.538,0.146-8.734,3.971-8.734,7.882c0,2.733,1.999,5.005,5.481,5.207c-0.229,0.891-0.428,1.812-0.657,2.703
			c-0.342,1.352-0.628,2.445-0.628,2.531c0,0.287,0.2,0.316,0.343,0.316s0.2-0.029,0.286-0.115c0.057-0.058,0.229-0.748,0.314-1.15
			c0.372-1.41,0.714-2.848,1.085-4.285c4.596-0.145,8.738-4.027,8.738-7.882c0-2.271-1.517-4.919-5.484-5.207L88.966,107.461z"/>
	</g>
	<g>
		<g>
			<path fill="none" stroke="#231F20" stroke-width="2.4" d="M110.084,183.08c-4.551-17.686-6.972-36.227-6.972-55.333
				c0-26.146,4.534-51.234,12.858-74.52"/>
			<polygon fill="#231F20" points="112.196,191.285 104.496,180.938 109.926,182.467 113.943,178.507 			"/>
		</g>
	</g>
	<g>
		<path d="M298.984,16.811l-2.41-5.72c-0.085-0.23-0.143-0.345-0.143-0.374c0-0.173,0.488-0.719,1.693-0.834
			c0.287-0.028,0.573-0.057,0.573-0.539c0-0.341-0.344-0.341-0.431-0.341c-1.176,0-2.409,0.086-3.615,0.086
			c-0.717,0-2.496-0.086-3.214-0.086c-0.172,0-0.517,0-0.517,0.568c0,0.312,0.287,0.312,0.66,0.312c1.722,0,1.894,0.288,2.152,0.919
			l3.386,8.016l-6.055,6.521c-0.172,0.144-0.201,0.172-0.373,0.315c-1.406,1.522-2.754,1.982-4.218,2.067
			c-0.372,0.029-0.631,0.029-0.631,0.568c0,0.029,0,0.312,0.373,0.312c0.861,0,1.807-0.085,2.697-0.085
			c1.061,0,2.181,0.085,3.213,0.085c0.172,0,0.516,0,0.516-0.567c0-0.284-0.287-0.312-0.344-0.312
			c-0.258-0.029-1.147-0.086-1.147-0.891c0-0.46,0.431-0.919,0.774-1.293l2.927-3.102c0.86-0.948,1.979-2.125,2.582-2.816
			l2.898,6.866c0.114,0.315,0.143,0.345,0.143,0.402c0,0.229-0.545,0.719-1.664,0.833c-0.316,0.028-0.574,0.057-0.574,0.539
			c0,0.341,0.316,0.341,0.43,0.341c0.803,0,2.812-0.085,3.616-0.085c0.717,0,2.467,0.085,3.185,0.085c0.201,0,0.545,0,0.545-0.539
			c0-0.341-0.287-0.341-0.516-0.341c-1.923-0.028-1.98-0.114-2.468-1.264c-1.118-2.672-3.042-7.152-3.701-8.877
			c1.951-2.012,4.964-5.429,5.881-6.234c0.832-0.69,1.922-1.379,3.644-1.466c0.373-0.028,0.631-0.028,0.631-0.567
			c0-0.029,0-0.313-0.373-0.313c-0.86,0-1.807,0.086-2.697,0.086c-1.062,0-2.152-0.086-3.185-0.086c-0.172,0-0.545,0-0.545,0.568
			c0,0.199,0.143,0.285,0.344,0.312c0.258,0.03,1.148,0.087,1.148,0.892c0,0.403-0.316,0.776-0.545,1.034"/>
	</g>
	<g>
		<path d="M242.357,186.935c-0.143,0.518-0.143,0.575-0.572,1.064c-1.26,1.581-2.434,2.041-3.235,2.041
			c-1.431,0-1.833-1.582-1.833-2.702c0-1.437,0.916-4.974,1.575-6.296c0.887-1.696,2.176-2.76,3.321-2.76
			c1.861,0,2.263,2.357,2.263,2.53s-0.059,0.345-0.087,0.489 M248.324,170.758c0-0.029,0-0.317-0.375-0.317
			c-0.428,0-3.144,0.257-3.629,0.314c-0.229,0.028-0.4,0.171-0.4,0.543c0,0.344,0.257,0.344,0.686,0.344
			c1.372,0,1.429,0.201,1.429,0.488l-0.085,0.574l-1.715,6.81c-0.514-1.083-1.343-1.874-2.629-1.874
			c-3.344,0-6.888,4.233-6.888,8.435c0,2.704,1.572,4.604,3.802,4.604c0.571,0,2.001-0.114,3.716-2.155
			c0.229,1.208,1.229,2.155,2.602,2.155c1,0,1.657-0.66,2.115-1.579c0.485-1.034,0.858-2.785,0.858-2.843
			c0-0.286-0.257-0.286-0.344-0.286c-0.285,0-0.314,0.114-0.4,0.516c-0.485,1.863-1,3.554-2.172,3.554
			c-0.771,0-0.857-0.746-0.857-1.32c0-0.688,0.057-0.89,0.171-1.377L248.324,170.758z"/>
		<path d="M259.15,178.281c2.176,0.116,3.807,1.433,3.807,3.949c0,3.376-2.462,7.467-6.754,7.811 M255.46,190.041
			c-1.718-0.086-3.782-1.087-3.782-3.948c0-3.433,2.464-7.438,6.733-7.812L255.46,190.041z M260.913,171.13
			c0-0.056,0.085-0.372,0.085-0.401c0-0.028,0-0.288-0.342-0.288c-0.286,0-0.313,0.088-0.428,0.575l-1.656,6.625
			c-4.538,0.146-8.734,3.97-8.734,7.882c0,2.732,1.998,5.005,5.48,5.206c-0.229,0.891-0.428,1.812-0.656,2.703
			c-0.342,1.353-0.628,2.445-0.628,2.531c0,0.288,0.2,0.316,0.343,0.316s0.2-0.028,0.286-0.114c0.057-0.059,0.229-0.749,0.314-1.151
			c0.371-1.409,0.713-2.848,1.085-4.285c4.596-0.145,8.738-4.026,8.738-7.881c0-2.272-1.517-4.919-5.484-5.207L260.913,171.13z"/>
		<path d="M275.016,197.273c0-0.086,0-0.144-0.491-0.632c-3.604-3.617-4.526-9.044-4.526-13.438c0-4.996,1.096-9.992,4.642-13.582
			c0.376-0.344,0.376-0.401,0.376-0.487c0-0.2-0.116-0.293-0.29-0.293c-0.289,0-2.886,1.959-4.59,5.605
			c-1.473,3.159-1.818,6.346-1.818,8.758c0,2.239,0.318,5.714,1.905,8.958c1.732,3.533,4.214,5.398,4.503,5.398
			C274.9,197.562,275.016,197.476,275.016,197.273"/>
		<path d="M290.555,178.567l-2.41-5.72c-0.085-0.229-0.143-0.345-0.143-0.374c0-0.172,0.488-0.719,1.693-0.834
			c0.287-0.028,0.574-0.057,0.574-0.539c0-0.342-0.344-0.342-0.431-0.342c-1.176,0-2.41,0.086-3.615,0.086
			c-0.717,0-2.496-0.086-3.213-0.086c-0.172,0-0.517,0-0.517,0.568c0,0.312,0.287,0.312,0.66,0.312c1.722,0,1.894,0.287,2.152,0.92
			l3.385,8.016l-6.054,6.521c-0.172,0.144-0.201,0.173-0.373,0.315c-1.405,1.523-2.754,1.983-4.218,2.068
			c-0.373,0.029-0.631,0.029-0.631,0.568c0,0.028,0,0.312,0.373,0.312c0.86,0,1.807-0.085,2.696-0.085
			c1.062,0,2.181,0.085,3.214,0.085c0.172,0,0.516,0,0.516-0.568c0-0.283-0.287-0.312-0.344-0.312
			c-0.258-0.028-1.147-0.086-1.147-0.891c0-0.459,0.431-0.919,0.774-1.292l2.927-3.102c0.86-0.948,1.98-2.126,2.582-2.816
			l2.898,6.865c0.114,0.316,0.144,0.345,0.144,0.402c0,0.23-0.545,0.719-1.664,0.833c-0.316,0.029-0.574,0.058-0.574,0.54
			c0,0.341,0.316,0.341,0.43,0.341c0.803,0,2.811-0.085,3.615-0.085c0.718,0,2.467,0.085,3.185,0.085c0.201,0,0.544,0,0.544-0.539
			c0-0.341-0.287-0.341-0.516-0.341c-1.922-0.029-1.98-0.115-2.468-1.264c-1.119-2.672-3.042-7.152-3.702-8.877
			c1.951-2.012,4.964-5.43,5.881-6.234c0.832-0.689,1.922-1.379,3.644-1.466c0.373-0.028,0.631-0.028,0.631-0.567
			c0-0.028,0-0.312-0.373-0.312c-0.86,0-1.807,0.086-2.697,0.086c-1.062,0-2.152-0.086-3.185-0.086c-0.172,0-0.544,0-0.544,0.567
			c0,0.198,0.143,0.284,0.344,0.312c0.258,0.03,1.148,0.087,1.148,0.892c0,0.403-0.316,0.776-0.544,1.034"/>
		<path d="M311.038,183.204c0-2.241-0.318-5.715-1.902-8.959c-1.728-3.531-4.206-5.404-4.494-5.404
			c-0.173,0-0.289,0.121-0.289,0.293c0,0.086,0,0.145,0.547,0.66c2.817,2.844,4.457,7.408,4.457,13.41
			c0,4.909-1.064,9.962-4.63,13.581c-0.374,0.345-0.374,0.402-0.374,0.488c0,0.173,0.116,0.286,0.289,0.286
			c0.288,0,2.88-1.952,4.58-5.598C310.69,188.803,311.038,185.615,311.038,183.204"/>
	</g>
	<g>
		<circle fill="#231F20" cx="295.494" cy="36.546" r="3.733"/>
		<g>
			<g>
				<line fill="#FFFFFF" x1="295.494" y1="36.546" x2="313.884" y2="36.546"/>
				<polygon fill="#FFFFFF" points="316.355,36.546 312.873,37.969 313.7,36.546 312.873,35.123 				"/>
			</g>
			<g>
				<line fill="none" stroke="#231F20" stroke-width="4" x1="295.494" y1="36.546" x2="313.884" y2="36.546"/>
				<polygon fill="#231F20" points="323.769,36.546 309.839,42.237 313.146,36.546 309.839,30.855 				"/>
			</g>
		</g>
	</g>
	<g>
		<circle fill="#231F20" cx="271.966" cy="204.681" r="3.733"/>
		<g>
			<g>
				<line fill="#FFFFFF" x1="271.965" y1="204.681" x2="315.976" y2="204.681"/>
				<polygon fill="#FFFFFF" points="318.447,204.681 314.964,206.104 315.791,204.681 314.964,203.258 				"/>
			</g>
			<g>
				<line fill="none" stroke="#231F20" stroke-width="4" x1="271.965" y1="204.681" x2="315.976" y2="204.681"/>
				<polygon fill="#231F20" points="325.86,204.681 311.931,210.372 315.237,204.681 311.931,198.99 				"/>
			</g>
		</g>
	</g>
</g>
</svg>
