<?xml version="1.0" encoding="utf-8"?>
<!-- Generator: Adobe Illustrator 14.0.0, SVG Export Plug-In . SVG Version: 6.00 Build 43363)  -->
<!DOCTYPE svg PUBLIC "-//W3C//DTD SVG 1.1//EN" "http://www.w3.org/Graphics/SVG/1.1/DTD/svg11.dtd">
<svg version="1.1" id="Layer_1" xmlns="http://www.w3.org/2000/svg" xmlns:xlink="http://www.w3.org/1999/xlink" x="0px" y="0px"
	 width="464px" height="240px" viewBox="0 0 464 240" enable-background="new 0 0 464 240" xml:space="preserve">
<rect x="54.333" y="153.33" fill="#FFFFFF" stroke="#231F20" width="16.67" height="16.67"/>
<g>
	<g>
		<polyline fill="none" stroke="#000000" stroke-width="5" points="54.333,18 54.333,170 206.333,170 		"/>
		<polygon points="216.924,170 202,176.098 205.542,170 202,163.903 		"/>
		<polygon points="54.333,7.409 60.431,22.334 54.333,18.792 48.237,22.334 		"/>
	</g>
</g>
<g>
	<defs>
		<rect id="SVGID_1_" x="176.44" y="184.466" width="37.12" height="49.279"/>
	</defs>
	<clipPath id="SVGID_2_">
		<use xlink:href="#SVGID_1_"  overflow="visible"/>
	</clipPath>
	<path clip-path="url(#SVGID_2_)" d="M193.492,201.298c-2.523,0-2.523-2.366-2.523-2.597c0-0.619,0.573-3.836,1.515-5.214
		c0.917-1.31,2.042-2.045,3.464-2.045c2.5,0,2.547,2.573,2.547,3.032C198.495,196.129,197.025,201.298,193.492,201.298
		 M198.899,193.645c-0.23-1.426-1.172-2.714-2.965-2.714c-1.402,0-2.896,0.369-4.689,2.161c-1.908,1.907-2.068,4.044-2.068,4.757
		c0,1.424,1.011,4.09,4.23,4.09c5.473,0,7.865-7.721,7.865-11.008c0-3.654-2.136-5.954-4.959-5.954c-3.33,0-4.385,3.018-4.385,3.669
		c0,0.325,0.184,0.812,0.872,0.812c0.758,0,1.24-0.698,1.24-1.233c0-0.815-0.711-0.815-1.077-0.815
		c1.008-1.716,2.636-1.855,3.301-1.855c1.674,0,3.279,1.197,3.279,4.161c0,0.896-0.139,2.068-0.621,3.93H198.899z"/>
	
		<line clip-path="url(#SVGID_2_)" fill="none" stroke="#000000" stroke-width="0.917" stroke-miterlimit="10" x1="176.557" y1="211.217" x2="213.435" y2="211.217"/>
	<path clip-path="url(#SVGID_2_)" d="M181.78,232.594c-2.523,0-2.523-2.366-2.523-2.596c0-0.621,0.573-3.836,1.514-5.215
		c0.917-1.309,2.042-2.045,3.464-2.045c2.5,0,2.547,2.573,2.547,3.033C186.782,227.425,185.313,232.594,181.78,232.594
		 M187.188,224.94c-0.229-1.427-1.173-2.715-2.965-2.715c-1.402,0-2.897,0.37-4.689,2.163c-1.908,1.906-2.068,4.043-2.068,4.756
		c0,1.425,1.011,4.09,4.23,4.09c5.473,0,7.866-7.721,7.866-11.009c0-3.653-2.136-5.953-4.959-5.953
		c-3.329,0-4.385,3.019-4.385,3.669c0,0.325,0.184,0.812,0.873,0.812c0.758,0,1.241-0.697,1.241-1.233
		c0-0.815-0.711-0.815-1.078-0.815c1.008-1.716,2.637-1.855,3.302-1.855c1.673,0,3.279,1.196,3.279,4.16
		c0,0.897-0.138,2.069-0.621,3.932L187.188,224.94z"/>
	<path clip-path="url(#SVGID_2_)" d="M197.674,225.772c0.138-0.599,0.666-2.715,2.273-2.715c0.114,0,0.666,0,1.147,0.319
		c-0.643,0.114-1.103,0.69-1.103,1.242c0,0.369,0.253,0.807,0.873,0.807c0.505,0,1.24-0.419,1.24-1.347
		c0-1.207-1.341-1.533-2.113-1.533c-1.335,0-2.141,1.238-2.417,1.774c-0.576-1.541-1.818-1.774-2.485-1.774
		c-2.393,0-3.704,2.985-3.704,3.564c0,0.23,0.229,0.23,0.275,0.23c0.184,0,0.252-0.046,0.298-0.254
		c0.781-2.45,2.296-3.029,3.076-3.029c0.437,0,1.24,0.208,1.24,1.542c0,0.713-0.391,2.254-1.24,5.473
		c-0.367,1.426-1.17,2.392-2.18,2.392c-0.138,0-0.666,0-1.147-0.318c0.561-0.115,1.055-0.599,1.055-1.243
		c0-0.621-0.506-0.806-0.85-0.806c-0.688,0-1.262,0.604-1.262,1.348c0,1.068,1.15,1.531,2.163,1.531
		c1.518,0,2.346-1.608,2.415-1.747c0.276,0.852,1.104,1.747,2.484,1.747c2.37,0,3.683-2.962,3.683-3.536
		c0-0.23-0.207-0.23-0.275-0.23c-0.207,0-0.252,0.092-0.298,0.253c-0.758,2.452-2.318,3.002-3.053,3.002
		c-0.895,0-1.262-0.735-1.262-1.518c0-0.507,0.137-1.012,0.39-2.023"/>
	<path clip-path="url(#SVGID_2_)" d="M208.504,215.83c0-0.435-0.032-0.453-0.481-0.453c-1.026,1.008-2.486,1.024-3.143,1.024v0.576
		c0.388,0,1.455,0,2.344-0.425v8.197c0,0.53,0,0.738-1.617,0.738h-0.615v0.576c0.29-0.016,2.266-0.063,2.86-0.063
		c0.498,0,2.522,0.048,2.876,0.063v-0.576h-0.613c-1.612,0-1.612-0.209-1.612-0.74"/>
</g>
<g>
	<defs>
		<rect id="SVGID_3_" x="6.44" y="9.86" width="37.12" height="49.279"/>
	</defs>
	<clipPath id="SVGID_4_">
		<use xlink:href="#SVGID_3_"  overflow="visible"/>
	</clipPath>
	<path clip-path="url(#SVGID_4_)" d="M23.492,26.692c-2.523,0-2.523-2.366-2.523-2.596c0-0.62,0.573-3.836,1.515-5.214
		c0.917-1.309,2.042-2.045,3.464-2.045c2.5,0,2.547,2.573,2.547,3.033C28.495,21.523,27.025,26.692,23.492,26.692 M28.899,19.039
		c-0.23-1.426-1.172-2.714-2.965-2.714c-1.402,0-2.896,0.369-4.689,2.161c-1.908,1.908-2.068,4.044-2.068,4.757
		c0,1.424,1.011,4.09,4.23,4.09c5.473,0,7.865-7.721,7.865-11.008c0-3.654-2.136-5.954-4.959-5.954c-3.33,0-4.385,3.018-4.385,3.669
		c0,0.325,0.184,0.812,0.872,0.812c0.758,0,1.24-0.698,1.24-1.234c0-0.815-0.711-0.815-1.077-0.815
		c1.008-1.716,2.636-1.855,3.301-1.855c1.674,0,3.279,1.197,3.279,4.161c0,0.896-0.139,2.068-0.621,3.93H28.899z"/>
	
		<line clip-path="url(#SVGID_4_)" fill="none" stroke="#000000" stroke-width="0.917" stroke-miterlimit="10" x1="6.557" y1="36.612" x2="43.435" y2="36.612"/>
	<path clip-path="url(#SVGID_4_)" d="M11.78,57.988c-2.523,0-2.523-2.366-2.523-2.596c0-0.62,0.573-3.836,1.514-5.214
		c0.917-1.31,2.042-2.045,3.464-2.045c2.5,0,2.547,2.573,2.547,3.033C16.782,52.819,15.313,57.988,11.78,57.988 M17.188,50.335
		c-0.229-1.426-1.173-2.715-2.965-2.715c-1.402,0-2.897,0.371-4.689,2.163c-1.908,1.907-2.068,4.044-2.068,4.756
		c0,1.425,1.011,4.09,4.23,4.09c5.473,0,7.866-7.721,7.866-11.009c0-3.653-2.136-5.953-4.959-5.953
		c-3.329,0-4.385,3.019-4.385,3.669c0,0.325,0.184,0.812,0.873,0.812c0.758,0,1.241-0.698,1.241-1.233
		c0-0.815-0.711-0.815-1.078-0.815c1.008-1.716,2.637-1.856,3.302-1.856c1.673,0,3.279,1.197,3.279,4.161
		c0,0.897-0.138,2.069-0.621,3.931L17.188,50.335z"/>
	<path clip-path="url(#SVGID_4_)" d="M27.674,51.167c0.138-0.598,0.666-2.715,2.273-2.715c0.114,0,0.666,0,1.147,0.319
		c-0.643,0.115-1.103,0.691-1.103,1.243c0,0.369,0.253,0.806,0.873,0.806c0.505,0,1.24-0.419,1.24-1.347
		c0-1.207-1.341-1.533-2.113-1.533c-1.335,0-2.141,1.238-2.417,1.774c-0.576-1.541-1.818-1.774-2.485-1.774
		c-2.393,0-3.704,2.985-3.704,3.564c0,0.23,0.229,0.23,0.275,0.23c0.184,0,0.252-0.046,0.298-0.254
		c0.781-2.45,2.296-3.029,3.076-3.029c0.437,0,1.24,0.208,1.24,1.542c0,0.713-0.391,2.254-1.24,5.474
		c-0.367,1.426-1.17,2.391-2.18,2.391c-0.138,0-0.666,0-1.147-0.318c0.561-0.115,1.055-0.599,1.055-1.243
		c0-0.621-0.506-0.806-0.85-0.806c-0.688,0-1.262,0.604-1.262,1.348c0,1.068,1.15,1.531,2.163,1.531
		c1.518,0,2.346-1.608,2.415-1.747c0.276,0.852,1.104,1.747,2.484,1.747c2.37,0,3.683-2.962,3.683-3.537
		c0-0.229-0.207-0.229-0.275-0.229c-0.207,0-0.252,0.091-0.298,0.252c-0.758,2.452-2.318,3.002-3.053,3.002
		c-0.895,0-1.262-0.736-1.262-1.518c0-0.506,0.137-1.012,0.39-2.023"/>
	<path clip-path="url(#SVGID_4_)" d="M41.256,48.536h-0.548c-0.048,0.358-0.209,1.318-0.418,1.482
		c-0.129,0.098-1.369,0.098-1.595,0.098h-2.963c1.692-1.5,2.254-1.952,3.221-2.711c1.192-0.952,2.304-1.951,2.304-3.485
		c0-1.952-1.704-3.148-3.761-3.148c-1.993,0-3.343,1.398-3.343,2.876c0,0.819,0.701,0.9,0.864,0.9c0.391,0,0.864-0.277,0.864-0.863
		c0-0.293-0.117-0.865-0.985-0.865c0.502-1.124,1.603-1.472,2.363-1.472c1.618,0,2.461,1.257,2.461,2.562
		c0,1.401-1.001,2.511-1.518,3.091l-3.888,3.832c-0.161,0.145-0.161,0.177-0.161,0.628h6.622"/>
</g>
<rect x="294.5" y="153.63" fill="#FFFFFF" stroke="#231F20" width="16.67" height="16.67"/>
<g>
	<g>
		<polyline fill="none" stroke="#000000" stroke-width="5" points="294.5,18.3 294.5,170.3 446.5,170.3 		"/>
		<polygon points="457.09,170.3 442.166,176.397 445.709,170.3 442.166,164.203 		"/>
		<polygon points="294.5,7.709 300.597,22.634 294.5,19.092 288.403,22.634 		"/>
	</g>
</g>
<g>
	<defs>
		<rect id="SVGID_5_" x="419.311" y="184.239" width="32" height="21.121"/>
	</defs>
	<clipPath id="SVGID_6_">
		<use xlink:href="#SVGID_5_"  overflow="visible"/>
	</clipPath>
	<path clip-path="url(#SVGID_6_)" d="M425.613,201.852c-0.113,0.414-0.113,0.46-0.457,0.851c-1.008,1.266-1.947,1.634-2.588,1.634
		c-1.146,0-1.467-1.266-1.467-2.163c0-1.148,0.732-3.978,1.259-5.035c0.711-1.357,1.742-2.208,2.658-2.208
		c1.487,0,1.81,1.885,1.81,2.024c0,0.138-0.047,0.275-0.069,0.391 M430.387,188.91c0-0.023,0-0.254-0.3-0.254
		c-0.342,0-2.514,0.204-2.903,0.251c-0.183,0.023-0.32,0.137-0.32,0.435c0,0.275,0.207,0.275,0.549,0.275
		c1.099,0,1.144,0.161,1.144,0.391l-0.068,0.459l-1.372,5.448c-0.411-0.867-1.075-1.5-2.104-1.5c-2.675,0-5.511,3.387-5.511,6.748
		c0,2.163,1.258,3.683,3.042,3.683c0.457,0,1.601-0.091,2.973-1.724c0.183,0.965,0.982,1.724,2.081,1.724
		c0.8,0,1.325-0.528,1.692-1.263c0.389-0.828,0.686-2.229,0.686-2.274c0-0.229-0.206-0.229-0.275-0.229
		c-0.228,0-0.251,0.092-0.32,0.413c-0.387,1.49-0.8,2.843-1.737,2.843c-0.617,0-0.686-0.597-0.686-1.057
		c0-0.551,0.047-0.711,0.138-1.102L430.387,188.91z"/>
	<path clip-path="url(#SVGID_6_)" d="M438.113,197.643c0.138-0.598,0.666-2.714,2.272-2.714c0.115,0,0.665,0,1.148,0.318
		c-0.644,0.115-1.104,0.691-1.104,1.242c0,0.368,0.253,0.807,0.872,0.807c0.506,0,1.24-0.418,1.24-1.347
		c0-1.207-1.34-1.532-2.112-1.532c-1.336,0-2.141,1.237-2.417,1.774c-0.575-1.542-1.818-1.774-2.486-1.774
		c-2.392,0-3.703,2.984-3.703,3.562c0,0.231,0.23,0.231,0.275,0.231c0.185,0,0.253-0.046,0.299-0.254
		c0.779-2.449,2.295-3.028,3.074-3.028c0.437,0,1.241,0.207,1.241,1.541c0,0.713-0.391,2.254-1.241,5.473
		c-0.367,1.426-1.17,2.393-2.18,2.393c-0.137,0-0.665,0-1.148-0.318c0.562-0.116,1.055-0.6,1.055-1.243
		c0-0.622-0.504-0.807-0.85-0.807c-0.688,0-1.263,0.604-1.263,1.347c0,1.069,1.15,1.533,2.163,1.533
		c1.519,0,2.347-1.609,2.415-1.748c0.276,0.852,1.104,1.748,2.484,1.748c2.369,0,3.683-2.963,3.683-3.537
		c0-0.23-0.206-0.23-0.274-0.23c-0.206,0-0.253,0.093-0.299,0.254c-0.758,2.452-2.318,3.002-3.053,3.002
		c-0.896,0-1.263-0.736-1.263-1.518c0-0.507,0.138-1.013,0.391-2.024"/>
	<path clip-path="url(#SVGID_6_)" d="M448.943,184.884c0-0.434-0.033-0.452-0.481-0.452c-1.026,1.008-2.485,1.024-3.144,1.024v0.576
		c0.388,0,1.455,0,2.344-0.425v8.197c0,0.53,0,0.738-1.615,0.738h-0.616v0.576c0.289-0.017,2.266-0.064,2.861-0.064
		c0.498,0,2.521,0.048,2.876,0.064v-0.576h-0.613c-1.611,0-1.611-0.21-1.611-0.74"/>
</g>
<g>
	<defs>
		<rect id="SVGID_7_" x="245.491" y="14.24" width="32.64" height="21.12"/>
	</defs>
	<clipPath id="SVGID_8_">
		<use xlink:href="#SVGID_7_"  overflow="visible"/>
	</clipPath>
	<path clip-path="url(#SVGID_8_)" d="M251.794,31.852c-0.115,0.414-0.115,0.46-0.458,0.851c-1.008,1.266-1.947,1.634-2.588,1.634
		c-1.145,0-1.466-1.266-1.466-2.163c0-1.148,0.733-3.978,1.26-5.036c0.709-1.357,1.741-2.208,2.656-2.208
		c1.489,0,1.811,1.885,1.811,2.024c0,0.138-0.047,0.276-0.07,0.392 M256.568,18.91c0-0.023,0-0.254-0.3-0.254
		c-0.343,0-2.515,0.205-2.904,0.251c-0.183,0.022-0.32,0.137-0.32,0.434c0,0.275,0.205,0.275,0.549,0.275
		c1.097,0,1.143,0.161,1.143,0.391l-0.068,0.459l-1.372,5.448c-0.412-0.866-1.075-1.5-2.104-1.5c-2.675,0-5.51,3.388-5.51,6.749
		c0,2.163,1.257,3.683,3.041,3.683c0.458,0,1.601-0.091,2.973-1.724c0.183,0.966,0.983,1.724,2.081,1.724
		c0.8,0,1.326-0.528,1.691-1.263c0.389-0.827,0.687-2.228,0.687-2.274c0-0.23-0.206-0.23-0.274-0.23
		c-0.229,0-0.252,0.092-0.32,0.414c-0.389,1.49-0.8,2.843-1.737,2.843c-0.617,0-0.686-0.597-0.686-1.056
		c0-0.552,0.045-0.712,0.137-1.102L256.568,18.91z"/>
	<path clip-path="url(#SVGID_8_)" d="M264.293,27.643c0.138-0.598,0.666-2.714,2.273-2.714c0.114,0,0.666,0,1.147,0.319
		c-0.644,0.115-1.103,0.69-1.103,1.242c0,0.368,0.253,0.806,0.873,0.806c0.505,0,1.241-0.418,1.241-1.347
		c0-1.207-1.341-1.532-2.113-1.532c-1.335,0-2.141,1.237-2.417,1.774c-0.576-1.542-1.818-1.774-2.485-1.774
		c-2.393,0-3.705,2.984-3.705,3.562c0,0.231,0.23,0.231,0.275,0.231c0.184,0,0.253-0.046,0.298-0.254
		c0.781-2.449,2.296-3.028,3.076-3.028c0.436,0,1.239,0.207,1.239,1.542c0,0.712-0.39,2.253-1.239,5.473
		c-0.367,1.426-1.171,2.392-2.181,2.392c-0.137,0-0.665,0-1.147-0.319c0.561-0.116,1.055-0.599,1.055-1.243
		c0-0.622-0.506-0.807-0.85-0.807c-0.689,0-1.263,0.604-1.263,1.347c0,1.069,1.15,1.533,2.163,1.533
		c1.518,0,2.346-1.609,2.415-1.748c0.276,0.852,1.104,1.748,2.485,1.748c2.369,0,3.683-2.963,3.683-3.538
		c0-0.229-0.207-0.229-0.275-0.229c-0.207,0-0.253,0.092-0.299,0.253c-0.757,2.453-2.318,3.002-3.053,3.002
		c-0.895,0-1.262-0.737-1.262-1.518c0-0.506,0.137-1.012,0.39-2.024"/>
	<path clip-path="url(#SVGID_8_)" d="M277.875,22.195h-0.548c-0.048,0.359-0.209,1.319-0.419,1.482
		c-0.129,0.099-1.369,0.099-1.595,0.099h-2.963c1.691-1.501,2.254-1.953,3.221-2.711c1.192-0.952,2.304-1.952,2.304-3.485
		c0-1.951-1.704-3.147-3.761-3.147c-1.993,0-3.343,1.397-3.343,2.876c0,0.819,0.701,0.9,0.864,0.9c0.391,0,0.864-0.277,0.864-0.863
		c0-0.294-0.117-0.866-0.984-0.866c0.501-1.123,1.602-1.471,2.362-1.471c1.619,0,2.462,1.257,2.462,2.562
		c0,1.4-1.002,2.511-1.518,3.09l-3.889,3.832c-0.162,0.145-0.162,0.178-0.162,0.628h6.622"/>
</g>
</svg>
