<?xml version="1.0" encoding="utf-8"?>
<!-- Generator: Adobe Illustrator 14.0.0, SVG Export Plug-In . SVG Version: 6.00 Build 43363)  -->
<!DOCTYPE svg PUBLIC "-//W3C//DTD SVG 1.1//EN" "http://www.w3.org/Graphics/SVG/1.1/DTD/svg11.dtd">
<svg version="1.1" id="Layer_1" xmlns="http://www.w3.org/2000/svg" xmlns:xlink="http://www.w3.org/1999/xlink" x="0px" y="0px"
	 width="117px" height="74px" viewBox="0 0 117 74" enable-background="new 0 0 117 74" xml:space="preserve">
<polyline points="6.973,19.209 112.275,19.209 112.275,19.905 6.973,19.905 "/>
<polyline points="6.973,27.926 112.275,27.926 112.275,28.624 6.973,28.624 "/>
<polyline points="6.973,36.645 112.275,36.645 112.275,37.342 6.973,37.342 "/>
<polyline points="6.973,45.362 112.275,45.362 112.275,46.059 6.973,46.059 "/>
<polyline points="6.973,54.08 112.275,54.08 112.275,54.777 6.973,54.777 "/>
<polyline points="6.973,54.777 6.973,19.558 7.668,19.558 7.668,54.777 "/>
<path d="M21.968,40.444c0.104,1.012,0.383,2.092,0.558,3.104c0.383,2.092,0.697,4.149,1.012,6.241
	c0.14,1.012,0.417,2.131,0.417,3.139l-0.034,0.141c-0.139,0.278-1.848,0.385-2.197,0.385c-4.639,0-8.579-3.732-8.579-8.405
	c0-0.42,0.036-0.837,0.105-1.255c0.488-2.651,4.289-8.336,5.858-10.812c0.383-0.627,0.767-1.291,1.221-1.849
	c0.173,2.163,0.731,4.395,1.116,6.556c-0.628,0.177-1.429,0.802-1.918,1.221c-1.534,1.362-2.51,3.386-2.51,5.44
	c0,1.639,0.801,4.221,2.58,4.708c-0.871-1.149-1.429-1.918-1.429-3.418C18.167,43.548,19.805,40.896,21.968,40.444z M23.781,40.13
	c3.348,0,5.72,2.755,5.72,6.034c0,2.721-2.058,5.893-4.744,6.694c-0.349-4.22-1.151-8.472-1.849-12.659
	C23.188,40.164,23.502,40.13,23.781,40.13z M26.57,14.01c0,3.697-3.626,7.603-5.928,10.252c-0.104-2.161-0.313-4.324-0.313-6.521
	c0-2.858,1.185-4.847,3.034-6.904c0.279-0.314,0.627-0.629,1.082-0.629C25.978,10.208,26.57,12.823,26.57,14.01z M32.778,45.223
	c0-4.536-3.418-8.266-8.021-8.266c-0.803,0-1.604,0.07-2.335,0.349c-0.245-1.778-0.594-3.591-0.838-5.37
	c-0.104-0.663-0.313-1.43-0.313-2.058c0-0.767,6.277-8.265,6.277-14.648c0-1.044-0.14-2.056-0.453-3.033
	c-0.21-0.698-2.093-5.23-2.442-5.685c-0.209-0.28-0.489-0.488-0.872-0.488c-0.558,0-0.976,0.558-1.326,0.942
	c-2.684,3.032-3.381,7.113-3.381,11.054c0,2.022,0.14,4.045,0.313,6.067c0.035,0.42,0.139,0.872,0.139,1.291
	c0,0.279-0.558,0.976-0.767,1.221c-2.406,3.208-5.091,7.15-6.696,10.846c-0.662,1.569-1.046,3.278-1.046,4.987
	c0,6.626,5.336,11.963,11.892,11.963c0.42,0,0.838-0.036,1.223-0.068c0.104,2.438,0.417,4.812,0.417,7.251
	c0,3.035-1.709,5.268-4.917,5.268c-1.5,0-2.651-0.56-3.697-1.606c1.952,0.349,3.731-1.255,3.731-3.207
	c0-1.812-1.43-3.279-3.279-3.279c-1.743,0-3.243,1.325-3.243,3.14c0,3.593,2.511,6.207,6.139,6.207c3.906,0,6.032-2.721,6.032-6.45
	c0-1.605-0.034-3.207-0.173-4.812c-0.07-0.874-0.209-1.78-0.209-2.651c0.418-0.034,0.837-0.173,1.255-0.314
	C29.954,52.686,32.778,49.231,32.778,45.223z"/>
<path d="M47.7,38.039l-0.07,0.383c-0.314,0.314-2.86,1.223-3.278,1.361v-3.907l0.069-0.383c0.245-0.279,2.929-1.221,3.279-1.36
	V38.039z M50.21,40.445v-2.929l-1.849,0.699v-4.012c0-0.801,1.849-0.627,1.849-1.36v-3l-1.849,0.734c0-2.059,0.14-4.221-0.034-6.278
	l-0.558,0.279c-0.279,1.116-0.07,5.091-0.07,6.277c-1.116,0.42-2.233,0.838-3.348,1.291v-6.73c-0.314,0.07-0.663,0.139-0.663,0.558
	v6.452c-0.594,0.209-1.255,0.418-1.779,0.733l-0.07,0.313v2.93l1.849-0.697v4.01c0,0.805-1.849,0.629-1.849,1.36v2.999l1.849-0.733
	v6.279l0.593-0.28c0.279-1.046,0.07-5.161,0.07-6.277c1.115-0.419,2.232-0.834,3.348-1.29v6.731
	c0.313-0.068,0.662-0.141,0.662-0.559v-6.451c0.593-0.209,1.255-0.419,1.779-0.733L50.21,40.445z"/>
<polyline points="58.113,67.46 58.113,36.991 58.811,36.991 58.811,67.46 "/>
<path d="M69.098,35.982c0-2.267-2.303-3.312-4.255-3.312c-2.825,0-6.906,2.023-6.906,5.265c0,2.269,2.336,3.313,4.29,3.313
	C65.018,41.247,69.098,39.191,69.098,35.982z"/>
<polyline points="84.848,63.104 84.848,32.634 85.542,32.634 85.542,63.104 "/>
<path d="M95.83,31.622c0-2.267-2.301-3.313-4.255-3.313c-2.825,0-6.904,2.023-6.904,5.267c0,2.267,2.337,3.312,4.289,3.312
	C91.749,36.888,95.83,34.831,95.83,31.622z"/>
<polyline points="111.578,54.777 111.578,19.558 112.275,19.558 112.275,54.777 "/>
</svg>
