<?xml version="1.0" encoding="utf-8"?>
<!-- Generator: Adobe Illustrator 14.0.0, SVG Export Plug-In . SVG Version: 6.00 Build 43363)  -->
<!DOCTYPE svg PUBLIC "-//W3C//DTD SVG 1.1//EN" "http://www.w3.org/Graphics/SVG/1.1/DTD/svg11.dtd">
<svg version="1.1" id="Layer_1" xmlns="http://www.w3.org/2000/svg" xmlns:xlink="http://www.w3.org/1999/xlink" x="0px" y="0px"
	 width="344.667px" height="312px" viewBox="0 0 344.667 312" enable-background="new 0 0 344.667 312" xml:space="preserve">
<linearGradient id="SVGID_1_" gradientUnits="userSpaceOnUse" x1="26.3237" y1="213.835" x2="106.9898" y2="161.8352">
	<stop  offset="0" style="stop-color:#FFFFFF"/>
	<stop  offset="1" style="stop-color:#000000"/>
</linearGradient>
<polygon opacity="0.3" fill="url(#SVGID_1_)" enable-background="new    " points="26.211,183.04 89.531,205.426 134.303,169.609 
	73.541,151.062 "/>
<linearGradient id="SVGID_2_" gradientUnits="userSpaceOnUse" x1="42.646" y1="194.6807" x2="107.3125" y2="167.3472">
	<stop  offset="0" style="stop-color:#FFFFFF"/>
	<stop  offset="1" style="stop-color:#000000"/>
</linearGradient>
<polygon opacity="0.3" fill="url(#SVGID_2_)" enable-background="new    " points="26.211,183.04 89.531,205.426 134.303,169.609 
	73.541,151.062 "/>
<polygon opacity="0.2" fill="#1B1F8A" enable-background="new    " points="17.469,113.539 84.414,101.599 136.006,7.792 
	65.653,29.111 "/>
<polygon fill="none" stroke="#000000" stroke-width="1.7127" points="17.469,113.539 84.414,101.599 136.006,7.792 65.653,29.111 
	"/>
<path fill="none" stroke="#000000" stroke-width="0.8564" stroke-dasharray="5.709" d="M84.414,101.599"/>
<path fill="none" stroke="#000000" stroke-width="0.8564" stroke-dasharray="5.709" d="M17.469,113.539"/>
<path fill="none" stroke="#000000" stroke-width="0.8564" stroke-dasharray="5.709" d="M65.653,29.111"/>
<g>
	<g>
		<line fill="none" stroke="#231F20" stroke-width="2" x1="17.469" y1="120.759" x2="84.414" y2="108.818"/>
		<polygon fill="#231F20" points="89.974,107.827 82.709,112.426 83.998,108.893 81.567,106.023 		"/>
	</g>
</g>
<g>
	<g>
		<line fill="none" stroke="#231F20" stroke-width="2" x1="10.508" y1="110.787" x2="58.692" y2="26.36"/>
		<polygon fill="#231F20" points="61.492,21.454 60.371,29.979 58.483,26.727 54.723,26.755 		"/>
	</g>
</g>
<polygon fill="none" stroke="#000000" stroke-width="0.8564" points="24.468,182.754 162.53,75.038 162.633,74.957 337.26,118.143 
	215.848,280.375 "/>
<g>
	<defs>
		<rect id="SVGID_3_" x="204" y="289.408" width="17" height="14"/>
	</defs>
	<clipPath id="SVGID_4_">
		<use xlink:href="#SVGID_3_"  overflow="visible"/>
	</clipPath>
	<path clip-path="url(#SVGID_4_)" d="M214.899,299.969c-2.506,2.222-4.698,2.538-5.836,2.538c-1.709,0-2.562-1.298-2.562-3.144
		c0-1.414,0.745-4.529,1.663-6c1.347-2.106,2.895-2.655,3.897-2.655c2.84,0,2.84,3.78,2.84,6.03c0,1.066,0,2.74,0,3.23
		 M216.799,296.036c0-4.516-2.646-5.928-4.75-5.928c-3.895,0-7.647,4.104-7.647,8.149c0,2.668,1.719,4.85,4.64,4.85
		c1.805,0,3.867-0.655,6.044-2.395c0.372,1.512,1.318,2.395,2.607,2.395c1.518,0,2.409-1.567,2.409-2.023
		c0-0.199-0.178-0.286-0.354-0.286c-0.206,0-0.295,0.087-0.383,0.29c-0.53,1.418-1.591,1.418-1.65,1.418
		c-0.914,0-0.914-2.242-0.914-2.934c0-0.604,0-0.662,0.294-1.007c2.762-3.395,3.38-6.73,3.38-6.759c0-0.058-0.029-0.288-0.353-0.288
		c-0.294,0-0.294,0.086-0.441,0.604c-0.528,1.812-1.499,3.998-2.88,5.695L216.799,296.036z"/>
</g>
<g>
	<defs>
		<rect id="SVGID_5_" x="43.441" y="120.759" width="15" height="14"/>
	</defs>
	<clipPath id="SVGID_6_">
		<use xlink:href="#SVGID_5_"  overflow="visible"/>
	</clipPath>
	<path clip-path="url(#SVGID_6_)" d="M52.783,132.552c0.316,1.166,1.32,1.906,2.553,1.906c1.004,0,1.664-0.657,2.123-1.572
		c0.488-1.029,0.862-2.773,0.862-2.83c0-0.287-0.261-0.287-0.347-0.287c-0.288,0-0.316,0.116-0.403,0.52
		c-0.403,1.611-0.95,3.57-2.159,3.57c-0.604,0-0.892-0.373-0.892-1.32c0-0.633,0.345-1.982,0.576-2.988
		c0.259-1.034,0.547-2.068,0.806-3.104c0.086-0.431,0.374-1.521,0.489-1.952c0.144-0.661,0.432-1.753,0.432-1.925
		c0-0.518-0.403-0.776-0.835-0.776c-0.144,0-0.892,0.028-1.123,1.006c-0.547,2.097-1.812,7.124-2.159,8.647
		c-0.028,0.114-1.18,2.412-3.281,2.412c-1.497,0-1.785-1.294-1.785-2.358c0-1.611,0.828-3.884,1.596-5.867
		c0.355-0.863,0.503-1.267,0.503-1.812c0-1.295-0.923-2.362-2.364-2.362c-2.737,0-3.803,4.177-3.803,4.436
		c0,0.288,0.29,0.288,0.348,0.288c0.29,0,0.319-0.058,0.464-0.522c0.725-2.526,1.827-3.602,2.93-3.602
		c0.261,0,0.726,0.032,0.726,0.952c0,0.69-0.322,1.524-0.499,1.955c-1.085,2.848-1.7,4.631-1.7,6.04
		c0,2.731,1.979,3.452,3.529,3.452C51.264,134.458,52.297,133.178,52.783,132.552"/>
</g>
<g>
	<defs>
		<rect id="SVGID_7_" x="22" y="49" width="14" height="14"/>
	</defs>
	<clipPath id="SVGID_8_">
		<use xlink:href="#SVGID_7_"  overflow="visible"/>
	</clipPath>
	<path clip-path="url(#SVGID_8_)" d="M35.399,51.71c0-1.549-0.754-2.01-1.276-2.01c-0.726,0-1.422,0.751-1.422,1.384
		c0,0.374,0.148,0.546,0.478,0.863c0.627,0.574,1.017,1.322,1.017,2.358c0,1.208-1.767,7.796-5.152,7.796
		c-1.476,0-2.142-1.008-2.142-2.503c0-1.61,0.809-3.71,1.739-6.098c0.21-0.489,0.36-0.891,0.36-1.438
		c0-1.295-0.923-2.361-2.364-2.361c-2.708,0-3.803,4.177-3.803,4.436c0,0.288,0.29,0.288,0.348,0.288
		c0.29,0,0.319-0.058,0.464-0.522c0.841-2.933,2.089-3.602,2.93-3.602c0.232,0,0.726,0,0.726,0.923c0,0.72-0.297,1.496-0.505,2.014
		c-1.307,3.336-1.694,4.659-1.694,5.896c0,3.107,2.56,3.567,3.899,3.567c4.778,0,6.4-9.497,6.4-10.989"/>
</g>
<g>
	<defs>
		<rect id="SVGID_9_" x="147.5" y="47" width="17" height="27"/>
	</defs>
	<clipPath id="SVGID_10_">
		<use xlink:href="#SVGID_9_"  overflow="visible"/>
	</clipPath>
	<path clip-path="url(#SVGID_10_)" d="M159.895,56.021c-0.803-0.321-1.719-0.321-1.977-0.321c-0.688,0-2.234,0-2.234,0.938
		c0,0.763,1.261,0.763,1.947,0.763c0.401,0,1.231,0,2.148-0.375c0.63,0.662,0.858,1.492,0.858,2.408c0,1.146-0.573,3.84-1.402,5.415
		c-0.659,1.203-2.119,2.951-4.182,2.951c-2.549,0-4.009-1.892-4.009-4.186c0-0.688,0.114-1.118,0.372-2.15
		c0.258-1.061,1.145-4.645,1.317-5.304c1.346-5.305,4.754-7.659,7.302-7.659c0.858,0,2.063,0.432,2.063,2.326
		c0,0.688-0.346,3.788-2.207,5.194 M156.412,56.586c0.287-0.179,0.487-0.286,1.463-0.286c0.43,0,0.774,0,1.147,0.214
		c-0.516,0.286-1.147,0.286-1.377,0.286C156.927,56.8,156.899,56.8,156.412,56.586z M147.804,72.982
		c-0.029,0.114-0.086,0.287-0.086,0.431c0,0.287,0.286,0.287,0.344,0.287c0.143,0,0.2-0.029,0.286-0.115
		c0.143-0.144,0.945-3.831,2.177-8.498c0.429,1.642,1.918,3.312,4.582,3.312c3.78,0,7.617-3.83,7.617-7.89
		c0-2.03-0.916-3.288-1.919-3.973c1.977-1.201,3.098-3.23,3.098-4.974c0-1.858-1.321-3.661-3.841-3.661
		c-3.724,0-6.959,3.936-7.905,7.694L147.804,72.982z"/>
</g>
<g>
	<g>
		<polyline fill="none" stroke="#231F20" stroke-width="4" points="234,289.5 24.468,182.754 175,64.5 		"/>
		<polygon fill="#231F20" points="183.884,57.521 175.383,72.47 174.336,65.022 167.348,62.242 		"/>
		<polygon fill="#231F20" points="244.067,294.628 226.929,293.197 233.249,289.116 232.833,281.607 		"/>
	</g>
</g>
</svg>
