<?xml version="1.0" encoding="utf-8"?>
<!-- Generator: Adobe Illustrator 14.0.0, SVG Export Plug-In . SVG Version: 6.00 Build 43363)  -->
<!DOCTYPE svg PUBLIC "-//W3C//DTD SVG 1.1//EN" "http://www.w3.org/Graphics/SVG/1.1/DTD/svg11.dtd" [
	<!ENTITY ns_extend "http://ns.adobe.com/Extensibility/1.0/">
	<!ENTITY ns_ai "http://ns.adobe.com/AdobeIllustrator/10.0/">
	<!ENTITY ns_graphs "http://ns.adobe.com/Graphs/1.0/">
	<!ENTITY ns_vars "http://ns.adobe.com/Variables/1.0/">
	<!ENTITY ns_imrep "http://ns.adobe.com/ImageReplacement/1.0/">
	<!ENTITY ns_sfw "http://ns.adobe.com/SaveForWeb/1.0/">
	<!ENTITY ns_custom "http://ns.adobe.com/GenericCustomNamespace/1.0/">
	<!ENTITY ns_adobe_xpath "http://ns.adobe.com/XPath/1.0/">
]>
<svg version="1.1" id="Layer_1" xmlns:x="&ns_extend;" xmlns:i="&ns_ai;" xmlns:graph="&ns_graphs;"
	 xmlns="http://www.w3.org/2000/svg" xmlns:xlink="http://www.w3.org/1999/xlink" x="0px" y="0px" width="460px" height="270px"
	 viewBox="0 0 460 270" enable-background="new 0 0 460 270" xml:space="preserve">
<metadata><?xpacket begin="﻿" id="W5M0MpCehiHzreSzNTczkc9d"?>
<x:xmpmeta xmlns:x="adobe:ns:meta/" x:xmptk="Adobe XMP Core 4.2.2-c063 53.352624, 2008/07/30-18:05:41        ">
   <rdf:RDF xmlns:rdf="http://www.w3.org/1999/02/22-rdf-syntax-ns#">
      <rdf:Description rdf:about=""
            xmlns:xmp="http://ns.adobe.com/xap/1.0/"
            xmlns:xmpGImg="http://ns.adobe.com/xap/1.0/g/img/">
         <xmp:CreatorTool>Illustrator</xmp:CreatorTool>
         <xmp:ModifyDate>2011-10-08T17:26:54Z</xmp:ModifyDate>
         <xmp:CreateDate>2011-10-08T17:23:56Z</xmp:CreateDate>
         <xmp:Thumbnails>
            <rdf:Alt>
               <rdf:li rdf:parseType="Resource">
                  <xmpGImg:width>256</xmpGImg:width>
                  <xmpGImg:height>148</xmpGImg:height>
                  <xmpGImg:format>JPEG</xmpGImg:format>
                  <xmpGImg:image>/9j/4AAQSkZJRgABAgEASABIAAD/7QAsUGhvdG9zaG9wIDMuMAA4QklNA+0AAAAAABAASAAAAAEA&#xA;AQBIAAAAAQAB/+4ADkFkb2JlAGTAAAAAAf/bAIQABgQEBAUEBgUFBgkGBQYJCwgGBggLDAoKCwoK&#xA;DBAMDAwMDAwQDA4PEA8ODBMTFBQTExwbGxscHx8fHx8fHx8fHwEHBwcNDA0YEBAYGhURFRofHx8f&#xA;Hx8fHx8fHx8fHx8fHx8fHx8fHx8fHx8fHx8fHx8fHx8fHx8fHx8fHx8fHx8f/8AAEQgAlAEAAwER&#xA;AAIRAQMRAf/EAaIAAAAHAQEBAQEAAAAAAAAAAAQFAwIGAQAHCAkKCwEAAgIDAQEBAQEAAAAAAAAA&#xA;AQACAwQFBgcICQoLEAACAQMDAgQCBgcDBAIGAnMBAgMRBAAFIRIxQVEGE2EicYEUMpGhBxWxQiPB&#xA;UtHhMxZi8CRygvElQzRTkqKyY3PCNUQnk6OzNhdUZHTD0uIIJoMJChgZhJRFRqS0VtNVKBry4/PE&#xA;1OT0ZXWFlaW1xdXl9WZ2hpamtsbW5vY3R1dnd4eXp7fH1+f3OEhYaHiImKi4yNjo+Ck5SVlpeYmZ&#xA;qbnJ2en5KjpKWmp6ipqqusra6voRAAICAQIDBQUEBQYECAMDbQEAAhEDBCESMUEFURNhIgZxgZEy&#xA;obHwFMHR4SNCFVJicvEzJDRDghaSUyWiY7LCB3PSNeJEgxdUkwgJChgZJjZFGidkdFU38qOzwygp&#xA;0+PzhJSktMTU5PRldYWVpbXF1eX1RlZmdoaWprbG1ub2R1dnd4eXp7fH1+f3OEhYaHiImKi4yNjo&#xA;+DlJWWl5iZmpucnZ6fkqOkpaanqKmqq6ytrq+v/aAAwDAQACEQMRAD8A9U4q7FXYq7FXYq7FXYq7&#xA;FXYq7FXYq7FXYq7FXYq7FXYq7FXYq7FUm13yh5f16WKXVbd7kxKUSP150ioTX4oo3WNj7stcVS3/&#xA;AJVP+WBNZPKekTN/NPZW8zAeAaRGIHtirv8AlU/5YDePylpELD9uGxt4W+XKNFNPbFWh+V3lGM1s&#xA;kvtNbsbDUb+0Ap/kQzohHsVIxVafKXm+x+LRvN1y4X7NrrNvBfw/LnELO5++Y4qsPmrzho4J8yeX&#xA;mubRa11TQWa9UKP2pLN1jul+UQl+eKsi0TX9F1yz+u6RexXttyKM8TAlHH2kkX7SOvdWAI7jFUfi&#xA;rsVdirsVdirsVdirsVdirsVdirsVdirsVdirsVdirsVdirsVdirsVdirsVdirsVdirsVdirsVdir&#xA;G/MHkXS9UvP0tZyy6N5iRQItasaJMQv2UuEIMdxF/kSqR4UO+KofQ/NeqW2qxeW/NkUdtrUwY6dq&#xA;FuGWy1FYxyb0eZYxTqoLPAzE0+JSy1IVZZirsVdirsVdirsVdirsVdirsVdirsVdirsVdirsVdir&#xA;sVdirsVdirsVdirsVdirsVdirsVdirsVdiqUea/LVp5i0SbTZ2MMpIlsrxP722uojyhuIj2eN9x4&#xA;9DsTiqzyXrs+u+VtO1S6jEN7NFxvoVrxS6hYxXCLXeizIwFcVTrFXYq7FXYq7FXYq7FXYq7FXYq7&#xA;FXYq7FXYq7FXYq7FXYq7FXYq7FXYq7FXYq7FXYq7FXYq7FXYqh9S1Gz03TrrUb2UQ2dnE9xczNsE&#xA;jiUu7H5KMVeF3f5va15O0vy35T0PRU1nzfraC9ubRpiEsJNVuTMqXSxoxXi9yF3ZfGviq94txcC3&#xA;iFyyPcBFEzxqUQvT4iqsXIWvQFj88VVMVdirsVdirsVdirsVdirsVdirsVdirsVdirsVdirsVdir&#xA;sVdirsVdirsVdirsVdirsVdirsVeHfmn5s8weevMo/LH8vwkzWkqSebdadedpZhGqlu9fhkcOvJ4&#xA;/wBojgaj1AFWcflt5W8neWG1PQtNlkv/ADFbvBd+ZNSu0kN1c3FyrPHO8sg4sG4vxCMQu/etVWW6&#xA;tq1lpdqLm7YhXkjghRAWeSWZwkcaKOrMzfxO2KoTUPNmg6drun6FeTvHqmq8v0fAIJ3WX0wWfjIi&#xA;NHVFUswLfCNztiqGsvPnlm9t1urWeV7M3g057preeKJLlmKKjNKiChkAj5DbmQvU4qyDFXYq7FXY&#xA;q7FXYq7FXYq7FXYq7FXYq7FXYq7FXYq7FXYq7FXYq7FXYq7FXYq7FXYq8f13z15j/MLXL/yV+XUz&#xA;2Gn2EhtvM/nIrQW+5V7ewBoXnahHqbceo/ZbFU31ry/bflx+Wsek+SIGsEa6tLa41FU9eaGO6uEi&#xA;ub+Wqv6jxxsWqVIXbbiKYqlnkTQtW1e88wzJrGs6X/uWd2upYFiu5obeOOCxiMl1DvGqRNMy+lVh&#xA;InJvtAqo/TLzWtRuvIeq67KrHUry5uYoowBCkp0uVLf092PGSFJphU1BenbFUp/ODUv8TaPfny+h&#xA;e58kTJqdxdsLiB5JkDo1jaunpuxniMiPIp4ioAqxqirJvON/pOofkprV5osfpWUmi3J0qARGFo5U&#xA;gYW8axEKUdJVVQtNiMVZ7irsVdirsVdirsVdirsVdirsVdirsVdirsVdirsVdirsVQ2p2b3unXVn&#xA;HcSWklxC8SXUBpLEzqVEiH+Za1GKpL5H8w3mp2FxY6sFj8xaLL9S1mJRxVpAoaO4jX/fVzGVlTwq&#xA;V6qcVZHirsVdirsVQ2palp+mWE+oajcx2ljbKZLi5mYJGijuzNsMVYcV1/z0aOtxofktv2Dyg1HU&#xA;0/yhtJaWzeBpK468B9pVmOnabp+mWcVlp9tFaWkKqkVvCixoqqAqgKoA2AAxVE4q06B0ZCSAwIJU&#xA;kEV8CNxiqWXPlvSZ9HttJEZhtbH0fqBiPF4Gtqei8Tb0KcR7EbGoJGKppiqC1XR7PVFto7wM8Ftc&#xA;R3QgBojyQHnF6g/aCSBZAP5lB7YqjcVdirsVdirsVdirsVdirsVdirsVdirsVSjzRp+u6jpy2Oj3&#xA;40t7iQJeagoDTxW3Fi5tgysnrMQqqXFFBLbkAFVh2kW/mbRvNEfkoaze6rZuYdZTVb9lku47KNnW&#xA;e0aZVVZOVwkIHJeXpyOP2K4q9IxV2Koe+1HT9PtzcX9zFaW6/amndY0HzZyBirzC0/5yd/KR9YuN&#xA;IvtTbT7y2maD1JE9e2lZTTlFcWhuIijdQWK+9DtirIPOBGkXdn+YWnVktrWAQ+YIowT6+kueYn49&#xA;3s2YzL34GRepGKs1ililiSWJ1kikUNHIpDKysKggjYgjFV2KuxVJfM3m3TfL8UCzLJd6lesY9M0m&#xA;1AkurqRRUrElR8Kjd3YhEG7EDFUo0zyjqerX8Gu+dGjnu4HE2m6DCxewsWH2XNQv1m4H+/XFFP8A&#xA;dqvUqsxxV2KuxV2KuxV2KuxV2KuxV2KuxV2KuxV2KuxV2KuxV2KuxV2KuxVh+o6ppflfXNb8z+ad&#xA;TtdM0yeC0stPaeVVJjthLLIVU7lnluWHFak8R7YqxI/njrvmU+l+WXlC91+JiVXXL8fo7TRT9pXl&#xA;AeWndaKcVXDyB+d3mMl/NXnqPQrV+umeWIPSIr4Xs/75SPkcVRVj/wA42flXHMLrVrS78xX463us&#xA;Xk9zIe55KGjjNf8AUxVM/LP5Hflv5e8x3PmKz0iA6pNJytmMaLDaIqhES1hUCOMhV3enNiSeW9MV&#xA;Z66I6MjqGRgQykVBB2IIOKsM8kM+gapeeRbliYLJPrnluRjXnpbtx9AHubKQ+l/xjMfcnFWaYqxb&#xA;zH5vuo9RPlzy1bpqXmZ0DyrISLSxjf7M97Iu4B6pEvxydqLVwqhPLcHk/Q/MkmnXmuW+peftRiD3&#xA;stzLEL6WNfjCRW4P7mBd2SJBSnxHkatiqK83+YbgHStF0S5VdS169eyS8TjJ9WitleS9lFar6kaR&#xA;NGobpIy1BAIxVAfm/wCZNd8r+SDqWgTxjV0uLW0sbe4j9dbmW5lW3WJqsrf7s58ga/Diqv5gvtc8&#xA;sxaTrN9qP12zjuorHXE9NYYjFfTrDDcIgLFGt5pIwfiNYy1akAhVmWKuxV2KuxV2KuxV2KuxV2Ku&#xA;xV2KuxV2KuxV2KuxV2KoPV9Y0rRtOn1LVruKxsLZeU91O4jjUe7N49h3xV5RJ+Z/5gef5XtPyr0x&#xA;bLRQSkvnXWY2SA9ibK2YcpSOxZadmUdcVTfy5+QvlO01Fdc80Tz+cvMppz1PWT60akGtILU1ijUH&#xA;7I+Lj2OKvS1VVUKoCqooqjYADsMVbxV2KuxV2KsW8/6TezWFtrukxGXXfLspvrGJNmuIwpW5s6+F&#xA;xDVRXYPwb9nFUHqHnK615rfRvJkgN9eW8N1e6tInKLTbS5QSRu6N9u5kRqxQn/Wf4ftKsg8t+WdJ&#xA;8u6b9Q02NgrO01zcSsZJ7id/7yeeVvikkc9WPyFAAMVYr548qaHpPlO/v9Ns7ddcjvI9RsL6dQZX&#xA;1SS6VoDJNTmQ8rLFSv2Dw+ziqnqOkx6F5t/LuIu0lvD+kdPe7f7Ul3cWon9SQ9OcxtpWJ7sffFUL&#xA;+ZJutW88+SNIWwvpdI03Vf0rq97FZ3UkEcttATYr6qxlHDTSjkVJCcatSmKpv+cgM3kC8sIxyutT&#xA;uLKws06kzXN5FGhH+pXn9FcVZtirsVdirsVdirsVdirsVdirsVdirsVWTO6QyPHGZXVSyRKQCxAq&#xA;FBYhRX3OKsJ0n817LV1SPT9E1GbUTfXWnzaXWzW5t2siFnmuAbj00iV3VeXMk1WgPIYqznFXYqwn&#xA;8xvzW0TyWtvYiGXV/M+o/DpHl2yHO6uGNQGIAPpx1Bq5HjQGmKsV0X8o9f8AN2o2/mb83Llb+4ib&#xA;1dO8oW5/3GWVdx6oBP1iX+Ymo7VYUoq9ehhihiSGFFjijUJHGgCqqqKBVA2AAxVdirsVdirsVdUD&#xA;rirsVY/511+90rTYbfSo1m17VplsdHhkqU9d1ZmmkA39KCJHlkp+ytOpGKpN5Ctm8va5q3lK4f15&#xA;SsWsW2pOtJ71bgeldSTsCecq3MZJ6AI6KBQYqznFUJqelWWpwww3iGSKC4gu0SpA9W2lWaFjTrxk&#xA;RWp4jFVHzBoVnrmmPYXReMFklguYTxmgniYPFNExBo8bqGG1OxBFRiqPjVljVXbmwADOQAWIG5oN&#xA;t8VS++0G0vtXsNSuneT9Gc3s7Ukeis8ilPrBFKtIsbMi1NAGbau4VTLFXYq7FXYq7FXYq7FXYq7F&#xA;XYq7FXYqlXmLVdV0/SpLrR9Il12+DcIrGCa3gq2+7yXEkSKqkUalW/yTirB/KXlrzR5b/MrVLtrC&#xA;bUNL8z2lvcavrCmziSHU4PUUhIRMJvRaJlTZWIKg1arNir0TT9U03UoDcafdQ3cAYo0kDrIodTRl&#xA;JUmjKdiO2KofzEuvNoV+vl97ePWzC/6Oe8DNAJqfB6gT4uNfD7j0xVif5aflRY+Umn1jU7ltc86a&#xA;n8Wr+YLkVkYkD91BX+7iWgAUdab7AAKs9xV2KuxV2KuxV2KuIB674qtMY7be3bFWI3oWT81dJjuD&#xA;QQaNfzWK1qPUa5tY5nFe6oUUezHpXdVrzOGi8++TJ4TW6lfUbSQdD9Ue0M0ladvXt4PppirLjKy/&#xA;bQgeK/EPw3/DFW0ljf7LAkdR3+7FV2KuxV2KuxV2KuxV2KuxViv/ACrDyh/vu+/7impf9lGKu/5V&#xA;h5Q/33ff9xTUv+yjFXf8qw8of77vv+4pqX/ZRirv+VYeUP8Afd9/3FNS/wCyjFXf8qw8of77vv8A&#xA;uKal/wBlGKpJ5u8t+RPK+krqd5Z6tdQvcQWgitdTvml9S6lWGKiyXkXKsjquxJ3rSgJCqcQ/lp5S&#xA;eJHaDUImZQzRPqmoFlJFeLcbplqPYkYqxyH/AJxn/JqNWB0WaRnd5GdtQ1AEl2LfsTqNq06V8anf&#xA;FV//AELZ+TP/AFYpf+4jqX/ZTiqj5R/5xu/Lfy1PcXUCX097cuzNOb66g4KxJ9NBbyREoK7eoXb/&#xA;ACsVZT/yrDyh/vu+/wC4pqX/AGUYqmuheWNI0L1/0cs6/WOPq+vdXN19ivHj9Ykl4/aNeNK98VTX&#xA;FXYq7FXYq7FXYq7FXYqkHmryxPq0lhqGnXa6frmlO72F28frRFJlCzQTRBoy8UoVa8XVgyqwO2Ko&#xA;Xy95Y1RNdm17zHqEeo6ykJs7JLeI29ra2zsryCGNnmcvM0amR2bfiAAoG6rKcVWyQxyfbUEjoe4+&#xA;RxVTKXEe8beov8j9fob+uKrorhJCV3WRftRtsw/z8cVVMVdirsVdirsVdirsVdirsVdirsVYP59s&#xA;dV1bzL5P0+HT55tIs9UXVNVvUCemn1WGT6qh5MGP+kMjGg244qzjFXYq7FXYq7FXYq7FXYq7FXYq&#xA;7FXYq7FXYq7FVL/j7PvGK/QTTFVXFXYq7FVK4txKoIPCVd45B1B/p4jFXW0xmhV2HFt1dfBlJVh9&#xA;4xVVxV2KuxV2KuxV2KuxV2KuxV2KuxV2KuxV2KuxV2KuxV2KuxV2KuxV2KuxV2KuxV2KqEB5zzSf&#xA;sgiNT/qdf+GYjFVfFXYq7FVskiRRtI54ogLMx7AYqpWCuLVTIKPIWkZT29Ri9PorTFVfFXYq7FXY&#xA;q7FXYq7FXYq7FXYq7FXYq7FXYq7FXYq7FXYq7FXYq7FXYq7FXYq7FVG7maKL4N5XPCIf5R/gOpxV&#xA;fBEsUSxg1CilT1J7k/PFV+KuxVxIAJJoBuScVQKk6hIrCosYyGWu3qsOh/1B+J9uqqOxV2KuxV2K&#xA;uxV2KuxV2KuxV2KuxV2KuxV2KuxV2KuxV2KuxV2KuxV2KuxV2KuxV2KoWD9/cvcH+7jrHB7kbO33&#xA;7YqisVdiqjc3kFsB6jfG+0cajk7HwVRucVQ4tri8Ie9HpwDdbMGtfAykbH/VG3zxVHAU2HTFXYq7&#xA;FXYq7FXYq7FXYq7FXYq7FXYq7FXYq7FXYq7FXYq7FXYq7FXYq7FXYq7FXYqtm5+k/D7fE8fnTbFV&#xA;HTmiNhAYjVPTXf6N6++KtSalZI3ASepKP91RAyP9KrUj6cVUy2pXOyKLOI/tvR5SPZRVF+kn5Yqr&#xA;W1jb25LqC8zfbmc8nb5se3t0xVXxV2KuxV2KuxV2KuxV2KuxV2KuxV2KuxV2KuxV2KuxV2KuxV2K&#xA;uxV2KuxV2KuxV2KuxV2KpfP/AIf9R/X+qepX95z9Otf8qvf54qjLf6t6Y+r8PT7enTj+GKqmKuxV&#xA;2KuxV2KuxV2KuxV2KuxV/9k=</xmpGImg:image>
               </rdf:li>
            </rdf:Alt>
         </xmp:Thumbnails>
      </rdf:Description>
      <rdf:Description rdf:about=""
            xmlns:xmpRights="http://ns.adobe.com/xap/1.0/rights/">
         <xmpRights:Marked>True</xmpRights:Marked>
      </rdf:Description>
      <rdf:Description rdf:about=""
            xmlns:dc="http://purl.org/dc/elements/1.1/">
         <dc:format>image/svg+xml</dc:format>
         <dc:creator>
            <rdf:Seq>
               <rdf:li>Keenan Crane</rdf:li>
            </rdf:Seq>
         </dc:creator>
         <dc:rights>
            <rdf:Alt>
               <rdf:li xml:lang="x-default">This work is licensed under a Creative Commons Attribution-NonCommercial-NoDerivs 3.0 Unported License.</rdf:li>
            </rdf:Alt>
         </dc:rights>
         <dc:title>
            <rdf:Alt>
               <rdf:li xml:lang="x-default">DDG Curve</rdf:li>
            </rdf:Alt>
         </dc:title>
      </rdf:Description>
      <rdf:Description rdf:about=""
            xmlns:xmpTPg="http://ns.adobe.com/xap/1.0/t/pg/"
            xmlns:stDim="http://ns.adobe.com/xap/1.0/sType/Dimensions#"
            xmlns:xmpG="http://ns.adobe.com/xap/1.0/g/">
         <xmpTPg:MaxPageSize rdf:parseType="Resource">
            <stDim:w>460.000000</stDim:w>
            <stDim:h>270.000000</stDim:h>
            <stDim:unit>Points</stDim:unit>
         </xmpTPg:MaxPageSize>
         <xmpTPg:NPages>1</xmpTPg:NPages>
         <xmpTPg:HasVisibleTransparency>True</xmpTPg:HasVisibleTransparency>
         <xmpTPg:HasVisibleOverprint>False</xmpTPg:HasVisibleOverprint>
         <xmpTPg:PlateNames>
            <rdf:Seq>
               <rdf:li>Cyan</rdf:li>
               <rdf:li>Magenta</rdf:li>
               <rdf:li>Yellow</rdf:li>
               <rdf:li>Black</rdf:li>
            </rdf:Seq>
         </xmpTPg:PlateNames>
         <xmpTPg:SwatchGroups>
            <rdf:Seq>
               <rdf:li rdf:parseType="Resource">
                  <xmpG:groupName>Default Swatch Group</xmpG:groupName>
                  <xmpG:groupType>0</xmpG:groupType>
                  <xmpG:Colorants>
                     <rdf:Seq>
                        <rdf:li rdf:parseType="Resource">
                           <xmpG:swatchName>White</xmpG:swatchName>
                           <xmpG:mode>RGB</xmpG:mode>
                           <xmpG:type>PROCESS</xmpG:type>
                           <xmpG:red>255</xmpG:red>
                           <xmpG:green>255</xmpG:green>
                           <xmpG:blue>255</xmpG:blue>
                        </rdf:li>
                        <rdf:li rdf:parseType="Resource">
                           <xmpG:swatchName>Black</xmpG:swatchName>
                           <xmpG:mode>RGB</xmpG:mode>
                           <xmpG:type>PROCESS</xmpG:type>
                           <xmpG:red>0</xmpG:red>
                           <xmpG:green>0</xmpG:green>
                           <xmpG:blue>0</xmpG:blue>
                        </rdf:li>
                        <rdf:li rdf:parseType="Resource">
                           <xmpG:swatchName>Crimson</xmpG:swatchName>
                           <xmpG:mode>RGB</xmpG:mode>
                           <xmpG:type>PROCESS</xmpG:type>
                           <xmpG:red>151</xmpG:red>
                           <xmpG:green>15</xmpG:green>
                           <xmpG:blue>0</xmpG:blue>
                        </rdf:li>
                        <rdf:li rdf:parseType="Resource">
                           <xmpG:swatchName>Moroccan Rust</xmpG:swatchName>
                           <xmpG:mode>RGB</xmpG:mode>
                           <xmpG:type>PROCESS</xmpG:type>
                           <xmpG:red>186</xmpG:red>
                           <xmpG:green>0</xmpG:green>
                           <xmpG:blue>0</xmpG:blue>
                        </rdf:li>
                        <rdf:li rdf:parseType="Resource">
                           <xmpG:swatchName>Magenta</xmpG:swatchName>
                           <xmpG:mode>RGB</xmpG:mode>
                           <xmpG:type>PROCESS</xmpG:type>
                           <xmpG:red>228</xmpG:red>
                           <xmpG:green>27</xmpG:green>
                           <xmpG:blue>91</xmpG:blue>
                        </rdf:li>
                        <rdf:li rdf:parseType="Resource">
                           <xmpG:swatchName>Va Va Va Voom Red</xmpG:swatchName>
                           <xmpG:mode>RGB</xmpG:mode>
                           <xmpG:type>PROCESS</xmpG:type>
                           <xmpG:red>255</xmpG:red>
                           <xmpG:green>26</xmpG:green>
                           <xmpG:blue>0</xmpG:blue>
                        </rdf:li>
                        <rdf:li rdf:parseType="Resource">
                           <xmpG:swatchName>Orange</xmpG:swatchName>
                           <xmpG:mode>RGB</xmpG:mode>
                           <xmpG:type>PROCESS</xmpG:type>
                           <xmpG:red>255</xmpG:red>
                           <xmpG:green>153</xmpG:green>
                           <xmpG:blue>0</xmpG:blue>
                        </rdf:li>
                        <rdf:li rdf:parseType="Resource">
                           <xmpG:swatchName>Custard</xmpG:swatchName>
                           <xmpG:mode>RGB</xmpG:mode>
                           <xmpG:type>PROCESS</xmpG:type>
                           <xmpG:red>254</xmpG:red>
                           <xmpG:green>222</xmpG:green>
                           <xmpG:blue>88</xmpG:blue>
                        </rdf:li>
                        <rdf:li rdf:parseType="Resource">
                           <xmpG:swatchName>Canary Yellow</xmpG:swatchName>
                           <xmpG:mode>RGB</xmpG:mode>
                           <xmpG:type>PROCESS</xmpG:type>
                           <xmpG:red>255</xmpG:red>
                           <xmpG:green>255</xmpG:green>
                           <xmpG:blue>62</xmpG:blue>
                        </rdf:li>
                        <rdf:li rdf:parseType="Resource">
                           <xmpG:swatchName>Cuban Lime</xmpG:swatchName>
                           <xmpG:mode>RGB</xmpG:mode>
                           <xmpG:type>PROCESS</xmpG:type>
                           <xmpG:red>204</xmpG:red>
                           <xmpG:green>255</xmpG:green>
                           <xmpG:blue>66</xmpG:blue>
                        </rdf:li>
                        <rdf:li rdf:parseType="Resource">
                           <xmpG:swatchName>Dried Sage</xmpG:swatchName>
                           <xmpG:mode>RGB</xmpG:mode>
                           <xmpG:type>PROCESS</xmpG:type>
                           <xmpG:red>163</xmpG:red>
                           <xmpG:green>195</xmpG:green>
                           <xmpG:blue>128</xmpG:blue>
                        </rdf:li>
                        <rdf:li rdf:parseType="Resource">
                           <xmpG:swatchName>Calypso Green</xmpG:swatchName>
                           <xmpG:mode>RGB</xmpG:mode>
                           <xmpG:type>PROCESS</xmpG:type>
                           <xmpG:red>115</xmpG:red>
                           <xmpG:green>190</xmpG:green>
                           <xmpG:blue>30</xmpG:blue>
                        </rdf:li>
                        <rdf:li rdf:parseType="Resource">
                           <xmpG:swatchName>Springfield Green</xmpG:swatchName>
                           <xmpG:mode>RGB</xmpG:mode>
                           <xmpG:type>PROCESS</xmpG:type>
                           <xmpG:red>0</xmpG:red>
                           <xmpG:green>255</xmpG:green>
                           <xmpG:blue>0</xmpG:blue>
                        </rdf:li>
                        <rdf:li rdf:parseType="Resource">
                           <xmpG:swatchName>Christmas Green</xmpG:swatchName>
                           <xmpG:mode>RGB</xmpG:mode>
                           <xmpG:type>PROCESS</xmpG:type>
                           <xmpG:red>1</xmpG:red>
                           <xmpG:green>173</xmpG:green>
                           <xmpG:blue>78</xmpG:blue>
                        </rdf:li>
                        <rdf:li rdf:parseType="Resource">
                           <xmpG:swatchName>Pine</xmpG:swatchName>
                           <xmpG:mode>RGB</xmpG:mode>
                           <xmpG:type>PROCESS</xmpG:type>
                           <xmpG:red>0</xmpG:red>
                           <xmpG:green>84</xmpG:green>
                           <xmpG:blue>71</xmpG:blue>
                        </rdf:li>
                        <rdf:li rdf:parseType="Resource">
                           <xmpG:swatchName>Sky Blue</xmpG:swatchName>
                           <xmpG:mode>RGB</xmpG:mode>
                           <xmpG:type>PROCESS</xmpG:type>
                           <xmpG:red>138</xmpG:red>
                           <xmpG:green>219</xmpG:green>
                           <xmpG:blue>255</xmpG:blue>
                        </rdf:li>
                        <rdf:li rdf:parseType="Resource">
                           <xmpG:swatchName>Aegean Sea</xmpG:swatchName>
                           <xmpG:mode>RGB</xmpG:mode>
                           <xmpG:type>PROCESS</xmpG:type>
                           <xmpG:red>0</xmpG:red>
                           <xmpG:green>160</xmpG:green>
                           <xmpG:blue>198</xmpG:blue>
                        </rdf:li>
                        <rdf:li rdf:parseType="Resource">
                           <xmpG:swatchName>Denim</xmpG:swatchName>
                           <xmpG:mode>RGB</xmpG:mode>
                           <xmpG:type>PROCESS</xmpG:type>
                           <xmpG:red>2</xmpG:red>
                           <xmpG:green>122</xmpG:green>
                           <xmpG:blue>187</xmpG:blue>
                        </rdf:li>
                        <rdf:li rdf:parseType="Resource">
                           <xmpG:swatchName>St. Petersburg Blue</xmpG:swatchName>
                           <xmpG:mode>RGB</xmpG:mode>
                           <xmpG:type>PROCESS</xmpG:type>
                           <xmpG:red>10</xmpG:red>
                           <xmpG:green>80</xmpG:green>
                           <xmpG:blue>255</xmpG:blue>
                        </rdf:li>
                        <rdf:li rdf:parseType="Resource">
                           <xmpG:swatchName>Periwinkle</xmpG:swatchName>
                           <xmpG:mode>RGB</xmpG:mode>
                           <xmpG:type>PROCESS</xmpG:type>
                           <xmpG:red>128</xmpG:red>
                           <xmpG:green>141</xmpG:green>
                           <xmpG:blue>255</xmpG:blue>
                        </rdf:li>
                        <rdf:li rdf:parseType="Resource">
                           <xmpG:swatchName>Maltese Lilac</xmpG:swatchName>
                           <xmpG:mode>RGB</xmpG:mode>
                           <xmpG:type>PROCESS</xmpG:type>
                           <xmpG:red>204</xmpG:red>
                           <xmpG:green>204</xmpG:green>
                           <xmpG:blue>255</xmpG:blue>
                        </rdf:li>
                        <rdf:li rdf:parseType="Resource">
                           <xmpG:swatchName>Passionate Purple</xmpG:swatchName>
                           <xmpG:mode>RGB</xmpG:mode>
                           <xmpG:type>PROCESS</xmpG:type>
                           <xmpG:red>186</xmpG:red>
                           <xmpG:green>0</xmpG:green>
                           <xmpG:blue>255</xmpG:blue>
                        </rdf:li>
                        <rdf:li rdf:parseType="Resource">
                           <xmpG:swatchName>Shocking Pink</xmpG:swatchName>
                           <xmpG:mode>RGB</xmpG:mode>
                           <xmpG:type>PROCESS</xmpG:type>
                           <xmpG:red>255</xmpG:red>
                           <xmpG:green>102</xmpG:green>
                           <xmpG:blue>255</xmpG:blue>
                        </rdf:li>
                        <rdf:li rdf:parseType="Resource">
                           <xmpG:swatchName>Bubble Gum Pink</xmpG:swatchName>
                           <xmpG:mode>RGB</xmpG:mode>
                           <xmpG:type>PROCESS</xmpG:type>
                           <xmpG:red>251</xmpG:red>
                           <xmpG:green>174</xmpG:green>
                           <xmpG:blue>255</xmpG:blue>
                        </rdf:li>
                        <rdf:li rdf:parseType="Resource">
                           <xmpG:swatchName>Bisque</xmpG:swatchName>
                           <xmpG:mode>RGB</xmpG:mode>
                           <xmpG:type>PROCESS</xmpG:type>
                           <xmpG:red>231</xmpG:red>
                           <xmpG:green>185</xmpG:green>
                           <xmpG:blue>138</xmpG:blue>
                        </rdf:li>
                        <rdf:li rdf:parseType="Resource">
                           <xmpG:swatchName>Cafe Con Leche</xmpG:swatchName>
                           <xmpG:mode>RGB</xmpG:mode>
                           <xmpG:type>PROCESS</xmpG:type>
                           <xmpG:red>169</xmpG:red>
                           <xmpG:green>119</xmpG:green>
                           <xmpG:blue>93</xmpG:blue>
                        </rdf:li>
                        <rdf:li rdf:parseType="Resource">
                           <xmpG:swatchName>Malt</xmpG:swatchName>
                           <xmpG:mode>RGB</xmpG:mode>
                           <xmpG:type>PROCESS</xmpG:type>
                           <xmpG:red>138</xmpG:red>
                           <xmpG:green>100</xmpG:green>
                           <xmpG:blue>74</xmpG:blue>
                        </rdf:li>
                        <rdf:li rdf:parseType="Resource">
                           <xmpG:swatchName>Mocha</xmpG:swatchName>
                           <xmpG:mode>RGB</xmpG:mode>
                           <xmpG:type>PROCESS</xmpG:type>
                           <xmpG:red>90</xmpG:red>
                           <xmpG:green>61</xmpG:green>
                           <xmpG:blue>27</xmpG:blue>
                        </rdf:li>
                        <rdf:li rdf:parseType="Resource">
                           <xmpG:swatchName>Global Black</xmpG:swatchName>
                           <xmpG:type>PROCESS</xmpG:type>
                           <xmpG:tint>100.000000</xmpG:tint>
                           <xmpG:mode>RGB</xmpG:mode>
                           <xmpG:red>0</xmpG:red>
                           <xmpG:green>0</xmpG:green>
                           <xmpG:blue>0</xmpG:blue>
                        </rdf:li>
                        <rdf:li rdf:parseType="Resource">
                           <xmpG:swatchName>Global Rust</xmpG:swatchName>
                           <xmpG:type>PROCESS</xmpG:type>
                           <xmpG:tint>100.000000</xmpG:tint>
                           <xmpG:mode>RGB</xmpG:mode>
                           <xmpG:red>185</xmpG:red>
                           <xmpG:green>0</xmpG:green>
                           <xmpG:blue>0</xmpG:blue>
                        </rdf:li>
                        <rdf:li rdf:parseType="Resource">
                           <xmpG:swatchName>Global Orange</xmpG:swatchName>
                           <xmpG:type>PROCESS</xmpG:type>
                           <xmpG:tint>100.000000</xmpG:tint>
                           <xmpG:mode>RGB</xmpG:mode>
                           <xmpG:red>255</xmpG:red>
                           <xmpG:green>153</xmpG:green>
                           <xmpG:blue>0</xmpG:blue>
                        </rdf:li>
                        <rdf:li rdf:parseType="Resource">
                           <xmpG:swatchName>Global Yellow</xmpG:swatchName>
                           <xmpG:type>PROCESS</xmpG:type>
                           <xmpG:tint>100.000000</xmpG:tint>
                           <xmpG:mode>RGB</xmpG:mode>
                           <xmpG:red>255</xmpG:red>
                           <xmpG:green>255</xmpG:green>
                           <xmpG:blue>61</xmpG:blue>
                        </rdf:li>
                        <rdf:li rdf:parseType="Resource">
                           <xmpG:swatchName>Global Green</xmpG:swatchName>
                           <xmpG:type>PROCESS</xmpG:type>
                           <xmpG:tint>100.000000</xmpG:tint>
                           <xmpG:mode>RGB</xmpG:mode>
                           <xmpG:red>115</xmpG:red>
                           <xmpG:green>190</xmpG:green>
                           <xmpG:blue>29</xmpG:blue>
                        </rdf:li>
                        <rdf:li rdf:parseType="Resource">
                           <xmpG:swatchName>Global Sky</xmpG:swatchName>
                           <xmpG:type>PROCESS</xmpG:type>
                           <xmpG:tint>100.000000</xmpG:tint>
                           <xmpG:mode>RGB</xmpG:mode>
                           <xmpG:red>138</xmpG:red>
                           <xmpG:green>218</xmpG:green>
                           <xmpG:blue>255</xmpG:blue>
                        </rdf:li>
                        <rdf:li rdf:parseType="Resource">
                           <xmpG:swatchName>Global Sea</xmpG:swatchName>
                           <xmpG:type>PROCESS</xmpG:type>
                           <xmpG:tint>100.000000</xmpG:tint>
                           <xmpG:mode>RGB</xmpG:mode>
                           <xmpG:red>0</xmpG:red>
                           <xmpG:green>160</xmpG:green>
                           <xmpG:blue>198</xmpG:blue>
                        </rdf:li>
                        <rdf:li rdf:parseType="Resource">
                           <xmpG:swatchName>Global Lilac</xmpG:swatchName>
                           <xmpG:type>PROCESS</xmpG:type>
                           <xmpG:tint>100.000000</xmpG:tint>
                           <xmpG:mode>RGB</xmpG:mode>
                           <xmpG:red>204</xmpG:red>
                           <xmpG:green>204</xmpG:green>
                           <xmpG:blue>255</xmpG:blue>
                        </rdf:li>
                        <rdf:li rdf:parseType="Resource">
                           <xmpG:swatchName>Global Periwinkle</xmpG:swatchName>
                           <xmpG:type>PROCESS</xmpG:type>
                           <xmpG:tint>100.000000</xmpG:tint>
                           <xmpG:mode>RGB</xmpG:mode>
                           <xmpG:red>128</xmpG:red>
                           <xmpG:green>140</xmpG:green>
                           <xmpG:blue>255</xmpG:blue>
                        </rdf:li>
                        <rdf:li rdf:parseType="Resource">
                           <xmpG:swatchName>Global Pink</xmpG:swatchName>
                           <xmpG:type>PROCESS</xmpG:type>
                           <xmpG:tint>100.000000</xmpG:tint>
                           <xmpG:mode>RGB</xmpG:mode>
                           <xmpG:red>250</xmpG:red>
                           <xmpG:green>174</xmpG:green>
                           <xmpG:blue>255</xmpG:blue>
                        </rdf:li>
                        <rdf:li rdf:parseType="Resource">
                           <xmpG:swatchName>Global Cafe</xmpG:swatchName>
                           <xmpG:type>PROCESS</xmpG:type>
                           <xmpG:tint>100.000000</xmpG:tint>
                           <xmpG:mode>RGB</xmpG:mode>
                           <xmpG:red>168</xmpG:red>
                           <xmpG:green>119</xmpG:green>
                           <xmpG:blue>92</xmpG:blue>
                        </rdf:li>
                        <rdf:li rdf:parseType="Resource">
                           <xmpG:swatchName>Global Mocha</xmpG:swatchName>
                           <xmpG:type>PROCESS</xmpG:type>
                           <xmpG:tint>100.000000</xmpG:tint>
                           <xmpG:mode>RGB</xmpG:mode>
                           <xmpG:red>91</xmpG:red>
                           <xmpG:green>61</xmpG:green>
                           <xmpG:blue>27</xmpG:blue>
                        </rdf:li>
                     </rdf:Seq>
                  </xmpG:Colorants>
               </rdf:li>
            </rdf:Seq>
         </xmpTPg:SwatchGroups>
      </rdf:Description>
   </rdf:RDF>
</x:xmpmeta>
                                                                                                    
                                                                                                    
                                                                                                    
                                                                                                    
                                                                                                    
                                                                                                    
                                                                                                    
                                                                                                    
                                                                                                    
                                                                                                    
                                                                                                    
                                                                                                    
                                                                                                    
                                                                                                    
                                                                                                    
                                                                                                    
                                                                                                    
                                                                                                    
                                                                                                    
                                                                                                    
                           
<?xpacket end="w"?>
	</metadata>
<defs>
	<filter id="Adobe_OpacityMaskFilter" filterUnits="userSpaceOnUse" x="267.314" y="159.724" width="105.36" height="99.87">
		<feColorMatrix  type="matrix" values="1 0 0 0 0  0 1 0 0 0  0 0 1 0 0  0 0 0 1 0"/>
	</filter>
</defs>
<mask maskUnits="userSpaceOnUse" x="267.314" y="159.724" width="105.36" height="99.87" id="SVGID_1_">
	<g filter="url(#Adobe_OpacityMaskFilter)">
		<linearGradient id="SVGID_2_" gradientUnits="userSpaceOnUse" x1="342.0654" y1="257.2041" x2="299.0654" y2="160.2042">
			<stop  offset="0" style="stop-color:#FFFFFF"/>
			<stop  offset="1" style="stop-color:#000000"/>
		</linearGradient>
		<rect x="262" y="155" fill="url(#SVGID_2_)" width="118.5" height="110.5"/>
	</g>
</mask>
<path opacity="0.3" mask="url(#SVGID_1_)" fill="none" stroke="#000000" stroke-width="1.7616" stroke-miterlimit="10" d="
	M267.493,160.586c0,0,38.52,7.984,39.459,34.76c0.939,26.777-27.716,49.324-19.26,61.069c8.456,11.744,82.677-23.957,84.086-52.144
	c1.41-28.186-90.663-42.277-90.663-42.277"/>
<path fill="none" stroke="#000000" stroke-width="1.7127" stroke-miterlimit="10" d="M301.056,146.533
	c-11.195-22.546-29.805-51.244-29.805-51.244"/>
<path fill="none" stroke="#000000" stroke-width="1.7127" stroke-miterlimit="10" d="M292.39,12.143c0,0,54.491-9.395,93.012,18.79
	c38.52,28.185-16.907,62.592-42.278,82.677c-13.422,10.626-49.713,36.908-49.793,54.962s15.032,15.972,15.971,1.409
	c0.235-3.638-2.021-10.119-5.54-17.797"/>
<line fill="none" stroke="#000000" stroke-width="1.7616" stroke-miterlimit="10" x1="10.98" y1="177.001" x2="168.846" y2="177.001"/>
<path d="M92.415,185.779c0.202-0.806,0.268-1.029,2.034-1.029c0.536,0,0.715,0,0.715-0.42c0-0.266-0.246-0.266-0.335-0.266
	c-0.648,0-2.301,0.067-2.95,0.067c-0.67,0-2.302-0.067-2.973-0.067c-0.156,0-0.447,0-0.447,0.443c0,0.243,0.201,0.243,0.626,0.243
	c0.939,0,1.542,0,1.542,0.425c0,0.113,0,0.157-0.045,0.358l-3.018,12.062c-0.201,0.828-0.268,1.051-2.034,1.051
	c-0.515,0-0.715,0-0.715,0.442c0,0.243,0.268,0.243,0.335,0.243c0.648,0,2.28-0.066,2.927-0.066c0.67,0,2.325,0.066,2.995,0.066
	c0.178,0,0.447,0,0.447-0.42c0-0.266-0.179-0.266-0.67-0.266c-0.402,0-0.515,0-0.961-0.045c-0.469-0.044-0.559-0.134-0.559-0.38
	c0-0.179,0.044-0.358,0.089-0.515"/>
<path fill="none" stroke="#000000" stroke-width="3.4254" stroke-miterlimit="10" d="M264.292,119.532
	c-39.696,5.723-75.514,23.438-103.664,49.356"/>
<polygon points="273.867,118.151 261.169,125.609 263.577,119.634 259.579,114.585 "/>
<path d="M126.333,162.104l-1.876-4.455c-0.066-0.179-0.111-0.269-0.111-0.291c0-0.135,0.381-0.559,1.318-0.649
	c0.223-0.021,0.446-0.045,0.446-0.419c0-0.267-0.267-0.267-0.335-0.267c-0.916,0-1.877,0.067-2.816,0.067
	c-0.559,0-1.944-0.067-2.504-0.067c-0.133,0-0.401,0-0.401,0.443c0,0.243,0.223,0.243,0.514,0.243c1.341,0,1.475,0.224,1.676,0.717
	l2.637,6.244l-4.716,5.08c-0.134,0.111-0.157,0.134-0.291,0.246c-1.095,1.186-2.146,1.545-3.286,1.61
	c-0.291,0.022-0.491,0.022-0.491,0.443c0,0.022,0,0.243,0.291,0.243c0.67,0,1.408-0.066,2.101-0.066
	c0.827,0,1.698,0.066,2.503,0.066c0.133,0,0.401,0,0.401-0.443c0-0.221-0.224-0.243-0.268-0.243
	c-0.202-0.022-0.894-0.067-0.894-0.694c0-0.357,0.335-0.715,0.603-1.006l2.279-2.416c0.67-0.74,1.542-1.656,2.011-2.194l2.258,5.349
	c0.089,0.246,0.112,0.268,0.112,0.312c0,0.18-0.425,0.561-1.296,0.65c-0.247,0.021-0.447,0.045-0.447,0.42
	c0,0.266,0.247,0.266,0.334,0.266c0.625,0,2.189-0.066,2.817-0.066c0.558,0,1.921,0.066,2.48,0.066c0.157,0,0.425,0,0.425-0.42
	c0-0.266-0.224-0.266-0.401-0.266c-1.498-0.021-1.542-0.089-1.922-0.984c-0.871-2.082-2.369-5.571-2.883-6.914
	c1.52-1.567,3.866-4.23,4.582-4.855c0.648-0.538,1.498-1.075,2.838-1.143c0.291-0.021,0.491-0.021,0.491-0.442
	c0-0.022,0-0.243-0.29-0.243c-0.671,0-1.408,0.066-2.101,0.066c-0.827,0-1.676-0.066-2.481-0.066c-0.133,0-0.424,0-0.424,0.441
	c0,0.154,0.111,0.221,0.267,0.244c0.201,0.022,0.895,0.067,0.895,0.693c0,0.314-0.247,0.605-0.425,0.807"/>
<path d="M403.098,75.911c0-0.022,0-0.247-0.291-0.247c-0.334,0-2.45,0.2-2.827,0.245c-0.179,0.022-0.312,0.134-0.312,0.423
	c0,0.267,0.201,0.267,0.534,0.267c1.069,0,1.113,0.157,1.113,0.381l-0.066,0.447l-1.335,5.304c-0.401-0.844-1.047-1.46-2.049-1.46
	c-2.605,0-5.366,3.298-5.366,6.57c0,2.107,1.226,3.586,2.962,3.586c0.445,0,1.559-0.09,2.895-1.679
	c0.179,0.941,0.957,1.679,2.025,1.679c0.779,0,1.291-0.515,1.648-1.229c0.378-0.806,0.668-2.17,0.668-2.214
	c0-0.224-0.2-0.224-0.268-0.224c-0.223,0-0.245,0.09-0.312,0.403c-0.379,1.45-0.779,2.767-1.692,2.767
	c-0.6,0-0.668-0.582-0.668-1.029c0-0.536,0.045-0.693,0.134-1.072L403.098,75.911z M398.45,88.512
	c-0.111,0.403-0.111,0.448-0.446,0.829c-0.982,1.232-1.896,1.59-2.52,1.59c-1.115,0-1.428-1.233-1.428-2.105
	c0-1.119,0.714-3.874,1.226-4.904c0.691-1.321,1.695-2.15,2.587-2.15c1.449,0,1.763,1.837,1.763,1.971s-0.046,0.268-0.067,0.381"/>
<path d="M404.073,85.503c0.872-2.587,3.312-2.611,3.558-2.611c3.379,0,3.624,3.916,3.624,5.683c0,1.365-0.111,1.745-0.27,2.193
	c-0.495,1.632-1.17,4.227-1.17,4.809c0,0.247,0.111,0.402,0.288,0.402c0.289,0,0.468-0.492,0.713-1.343
	c0.512-1.88,0.734-3.155,0.822-3.85c0.045-0.292,0.089-0.583,0.178-0.873c0.717-2.217,2.151-5.55,3.049-7.319
	c0.157-0.269,0.427-0.761,0.427-0.85c0-0.224-0.224-0.224-0.269-0.224c-0.065,0-0.2,0-0.268,0.157
	c-1.157,2.126-2.049,4.365-2.939,6.625c-0.023-0.694-0.047-2.395-0.919-4.566c-0.537-1.365-1.432-2.463-2.976-2.463
	c-2.798,0-4.363,3.42-4.363,4.118c0,0.225,0.201,0.225,0.425,0.225"/>
<path d="M423.391,96.565c0-0.067,0-0.111-0.384-0.492c-2.807-2.818-3.525-7.046-3.525-10.467c0-3.891,0.854-7.784,3.616-10.58
	c0.293-0.267,0.293-0.312,0.293-0.38c0-0.156-0.091-0.228-0.226-0.228c-0.225,0-2.249,1.525-3.575,4.366
	c-1.148,2.46-1.417,4.942-1.417,6.822c0,1.744,0.248,4.45,1.484,6.978c1.35,2.751,3.283,4.205,3.509,4.205
	C423.301,96.789,423.391,96.722,423.391,96.565"/>
<path d="M435.494,81.995l-1.877-4.456c-0.066-0.179-0.111-0.268-0.111-0.291c0-0.134,0.381-0.56,1.318-0.649
	c0.223-0.022,0.447-0.045,0.447-0.42c0-0.266-0.269-0.266-0.336-0.266c-0.916,0-1.877,0.066-2.816,0.066
	c-0.559,0-1.944-0.066-2.503-0.066c-0.135,0-0.402,0-0.402,0.442c0,0.243,0.223,0.243,0.514,0.243c1.341,0,1.475,0.224,1.677,0.717
	l2.638,6.243l-4.717,5.08c-0.134,0.112-0.156,0.134-0.29,0.246c-1.095,1.186-2.146,1.545-3.285,1.611
	c-0.29,0.022-0.491,0.022-0.491,0.442c0,0.022,0,0.243,0.29,0.243c0.67,0,1.408-0.066,2.1-0.066c0.827,0,1.699,0.066,2.504,0.066
	c0.134,0,0.402,0,0.402-0.442c0-0.221-0.224-0.243-0.269-0.243c-0.201-0.022-0.893-0.067-0.893-0.694
	c0-0.357,0.335-0.716,0.604-1.006l2.279-2.416c0.67-0.738,1.542-1.656,2.012-2.194l2.258,5.348c0.089,0.246,0.111,0.268,0.111,0.313
	c0,0.179-0.425,0.56-1.296,0.649c-0.246,0.022-0.447,0.045-0.447,0.42c0,0.266,0.246,0.266,0.335,0.266
	c0.625,0,2.189-0.066,2.816-0.066c0.559,0,1.922,0.066,2.481,0.066c0.155,0,0.424,0,0.424-0.42c0-0.266-0.224-0.266-0.402-0.266
	c-1.497-0.022-1.542-0.089-1.922-0.984c-0.871-2.082-2.369-5.571-2.883-6.915c1.519-1.567,3.867-4.229,4.582-4.856
	c0.647-0.538,1.497-1.074,2.838-1.142c0.291-0.021,0.491-0.021,0.491-0.441c0-0.022,0-0.244-0.29-0.244
	c-0.67,0-1.408,0.066-2.101,0.066c-0.826,0-1.676-0.066-2.481-0.066c-0.133,0-0.424,0-0.424,0.442c0,0.154,0.112,0.222,0.269,0.243
	c0.201,0.023,0.894,0.067,0.894,0.694c0,0.314-0.246,0.605-0.424,0.806"/>
<path d="M451.449,85.605c0-1.746-0.247-4.451-1.482-6.979c-1.346-2.75-3.275-4.208-3.5-4.208c-0.135,0-0.224,0.094-0.224,0.228
	c0,0.066,0,0.112,0.425,0.514c2.194,2.214,3.472,5.771,3.472,10.446c0,3.824-0.829,7.76-3.606,10.579
	c-0.29,0.269-0.29,0.313-0.29,0.381c0,0.134,0.089,0.223,0.224,0.223c0.225,0,2.244-1.521,3.567-4.361
	C451.18,89.967,451.449,87.484,451.449,85.605"/>
<circle cx="109.776" cy="176.996" r="2.401"/>
<polygon fill="#FFFFFF" points="140.636,177.005 137.452,178.305 138.208,177.002 137.453,175.703 "/>
<line fill="none" stroke="#000000" stroke-width="3" stroke-miterlimit="10" x1="109.776" y1="176.994" x2="138.377" y2="177.002"/>
<polygon points="145.155,177.009 135.6,180.904 137.871,177.002 135.606,173.099 "/>
<circle cx="372.977" cy="90.529" r="2.401"/>
<polygon fill="#FFFFFF" points="407.909,59.295 406.401,62.386 406.099,60.912 404.67,60.446 "/>
<line fill="none" stroke="#000000" stroke-width="3" stroke-miterlimit="10" x1="372.976" y1="90.528" x2="406.224" y2="60.799"/>
<polygon points="411.281,56.285 406.755,65.559 405.848,61.137 401.556,59.737 "/>
<path d="M199.678,114.514c1.236-3.666,4.693-3.698,5.042-3.698c4.789,0,5.137,5.547,5.137,8.051c0,1.934-0.159,2.473-0.382,3.106
	c-0.702,2.313-1.658,5.99-1.658,6.814c0,0.348,0.158,0.57,0.41,0.57c0.41,0,0.662-0.698,1.008-1.902
	c0.725-2.664,1.04-4.473,1.166-5.455c0.062-0.414,0.125-0.825,0.252-1.238c1.017-3.14,3.05-7.866,4.319-10.371
	c0.222-0.381,0.604-1.079,0.604-1.206c0-0.317-0.317-0.317-0.38-0.317c-0.095,0-0.283,0-0.378,0.222
	c-1.641,3.014-2.902,6.185-4.166,9.388c-0.034-0.983-0.066-3.393-1.303-6.469c-0.761-1.936-2.029-3.49-4.217-3.49
	c-3.965,0-6.183,4.847-6.183,5.835c0,0.319,0.285,0.319,0.602,0.319"/>
<path d="M329.722,137.562c1.179-3.495,4.474-3.526,4.807-3.526c4.563,0,4.896,5.288,4.896,7.674c0,1.844-0.151,2.356-0.364,2.961
	c-0.669,2.205-1.58,5.71-1.58,6.495c0,0.333,0.15,0.544,0.39,0.544c0.39,0,0.631-0.666,0.961-1.814
	c0.69-2.539,0.991-4.262,1.111-5.199c0.06-0.393,0.12-0.786,0.241-1.179c0.969-2.993,2.906-7.497,4.116-9.886
	c0.213-0.363,0.576-1.028,0.576-1.149c0-0.303-0.302-0.303-0.361-0.303c-0.091,0-0.271,0-0.361,0.213
	c-1.563,2.872-2.767,5.896-3.97,8.948c-0.033-0.938-0.063-3.234-1.242-6.166c-0.726-1.845-1.934-3.326-4.019-3.326
	c-3.78,0-5.894,4.62-5.894,5.562c0,0.304,0.271,0.304,0.574,0.304"/>
<path d="M355.729,152.504c0-0.092,0-0.15-0.517-0.664c-3.791-3.807-4.763-9.517-4.763-14.139c0-5.255,1.154-10.514,4.884-14.289
	c0.396-0.362,0.396-0.422,0.396-0.513c0-0.211-0.121-0.309-0.305-0.309c-0.303,0-3.037,2.061-4.828,5.898
	c-1.55,3.322-1.914,6.675-1.914,9.213c0,2.355,0.334,6.012,2.005,9.425c1.823,3.717,4.435,5.68,4.739,5.68
	C355.608,152.807,355.73,152.716,355.729,152.504"/>
<path d="M368.812,126.925c0.271-1.088,0.361-1.39,2.747-1.39c0.725,0,0.967,0,0.967-0.567c0-0.359-0.334-0.359-0.453-0.359
	c-0.876,0-3.108,0.091-3.984,0.091c-0.905,0-3.108-0.091-4.015-0.091c-0.212,0-0.604,0-0.604,0.599c0,0.328,0.271,0.328,0.846,0.328
	c1.269,0,2.083,0,2.083,0.574c0,0.151,0,0.213-0.061,0.484l-4.076,16.291c-0.271,1.119-0.362,1.42-2.748,1.42
	c-0.693,0-0.966,0-0.966,0.597c0,0.328,0.362,0.328,0.453,0.328c0.875,0,3.079-0.089,3.953-0.089c0.905,0,3.141,0.089,4.047,0.089
	c0.24,0,0.603,0,0.603-0.567c0-0.357-0.242-0.357-0.906-0.357c-0.544,0-0.693,0-1.298-0.061c-0.633-0.06-0.755-0.182-0.755-0.514
	c0-0.243,0.061-0.483,0.122-0.695"/>
<path d="M381.929,137.701c0-2.357-0.333-6.013-2.001-9.425c-1.818-3.716-4.425-5.686-4.728-5.686c-0.183,0-0.304,0.127-0.304,0.309
	c0,0.09,0,0.151,0.575,0.694c2.964,2.991,4.689,7.793,4.689,14.107c0,5.165-1.12,10.482-4.871,14.289
	c-0.394,0.363-0.394,0.422-0.394,0.514c0,0.182,0.121,0.302,0.304,0.302c0.303,0,3.031-2.054,4.818-5.891
	C381.564,143.592,381.929,140.238,381.929,137.701"/>
</svg>
