<?xml version="1.0" encoding="utf-8"?>
<!-- Generator: Adobe Illustrator 14.0.0, SVG Export Plug-In . SVG Version: 6.00 Build 43363)  -->
<!DOCTYPE svg PUBLIC "-//W3C//DTD SVG 1.1//EN" "http://www.w3.org/Graphics/SVG/1.1/DTD/svg11.dtd">
<svg version="1.1" id="Layer_1" xmlns="http://www.w3.org/2000/svg" xmlns:xlink="http://www.w3.org/1999/xlink" x="0px" y="0px"
	 width="714px" height="208.489px" viewBox="0 0 714 208.489" enable-background="new 0 0 714 208.489" xml:space="preserve">
<g>
	<rect x="9" y="11.301" opacity="0.2" fill="#1B1F8A" enable-background="new    " width="244.444" height="187.778"/>
	<rect x="9" y="11.301" fill="none" stroke="#000000" stroke-width="1.7127" width="244.444" height="187.778"/>
</g>
<g>
	<g>
		<path fill="none" stroke="#000000" stroke-width="3.4254" d="M371.504,96.688c-25.113-3.79-51.125-4.418-77.56-1.506
			c-9.385,1.036-18.621,2.494-27.69,4.355"/>
		<polygon points="383.461,98.491 365.571,102.834 370.609,96.554 367.649,89.065 		"/>
	</g>
</g>
<g>
	<defs>
		<rect id="SVGID_1_" x="202.957" y="156.586" width="39" height="32"/>
	</defs>
	<clipPath id="SVGID_2_">
		<use xlink:href="#SVGID_1_"  overflow="visible"/>
	</clipPath>
	<path clip-path="url(#SVGID_2_)" d="M215.13,177.188c0.251-0.047,0.395-0.094,0.682-0.094c0.538,0,1.327-0.093,1.865-0.186
		c0.538,0.858,4.412,7.214,7.388,10.177h-3.479 M207.491,187.086c0.267-0.645,0.267-1.645,0.267-1.967v-18.064
		c0-0.356,0-1.322-0.267-1.968h4.089c-0.523,0.573-0.523,1.288-0.523,1.825v18.207c0,0.356,0,1.322,0.343,1.967H207.491z
		 M212.358,167.025c0-0.754,0-1.938,2.229-1.938c3.057,0,4.569,1.257,4.569,5.49c0,4.628-1.116,5.309-6.799,5.309V167.025z
		 M219.291,175.367c1.053-1.327,1.166-3.229,1.166-4.807c0-1.721-0.224-3.623-1.417-5.093c1.469,0.323,5.017,1.436,5.017,5.058
		C224.057,172.855,222.982,174.686,219.291,175.367z M212.358,177.188h1.292c0.359,0.534,2.906,4.493,5.382,8.273
		c0.359,0.571,1.22,1.962,1.614,2.497c0.251,0.428,0.359,0.428,1.184,0.428h4.952c0.646,0,1.188,0,1.188-0.669
		c0-0.297-0.215-0.557-0.538-0.632c-1.326-0.287-3.084-2.652-3.944-3.799c-0.251-0.359-2.044-2.724-4.447-6.595
		c3.212-0.573,6.317-1.936,6.317-6.2c0-4.982-5.284-6.705-9.524-6.705h-11.281c-0.646,0-1.221,0-1.221,0.669
		c0,0.632,0.668,0.632,0.948,0.632c2.002,0,2.178,0.251,2.178,2.039v17.92c0,1.788-0.176,2.039-2.178,2.039
		c-0.281,0-0.948,0-0.948,0.632c0,0.669,0.574,0.669,1.22,0.669h9.827c0.646,0,1.184,0,1.184-0.669c0-0.632-0.612-0.632-1.008-0.632
		c-2.052,0-2.195-0.284-2.195-2.022L212.358,177.188z"/>
	<path clip-path="url(#SVGID_2_)" d="M241.357,169.017H240.5c-0.075,0.561-0.327,2.062-0.654,2.316
		c-0.201,0.153-2.139,0.153-2.492,0.153h-4.629c2.643-2.345,3.522-3.051,5.032-4.235c1.863-1.488,3.601-3.05,3.601-5.445
		c0-3.05-2.662-4.919-5.877-4.919c-3.114,0-5.224,2.185-5.224,4.494c0,1.28,1.095,1.406,1.351,1.406c0.61,0,1.351-0.434,1.351-1.35
		c0-0.459-0.183-1.352-1.539-1.352c0.784-1.755,2.504-2.299,3.692-2.299c2.528,0,3.846,1.964,3.846,4.002
		c0,2.189-1.564,3.924-2.371,4.83l-6.076,5.986c-0.252,0.227-0.252,0.277-0.252,0.981h10.346"/>
</g>
<g>
	<defs>
		<rect id="SVGID_3_" x="319.086" y="50.537" width="20" height="33"/>
	</defs>
	<clipPath id="SVGID_4_">
		<use xlink:href="#SVGID_3_"  overflow="visible"/>
	</clipPath>
	<path clip-path="url(#SVGID_4_)" d="M331.226,61.038c2.721,0.146,4.759,1.791,4.759,4.937c0,4.221-3.077,9.334-8.443,9.764
		 M326.613,75.738c-2.148-0.107-4.728-1.359-4.728-4.936c0-4.291,3.08-9.298,8.417-9.765L326.613,75.738z M333.429,52.1
		c0-0.07,0.107-0.466,0.107-0.502c0-0.035,0-0.36-0.429-0.36c-0.356,0-0.392,0.11-0.534,0.719l-2.07,8.281
		c-5.673,0.182-10.918,4.963-10.918,9.853c0,3.416,2.498,6.256,6.852,6.508c-0.286,1.113-0.535,2.265-0.821,3.379
		c-0.428,1.69-0.785,3.057-0.785,3.164c0,0.359,0.25,0.396,0.429,0.396s0.25-0.036,0.357-0.144c0.071-0.072,0.286-0.936,0.393-1.438
		c0.465-1.762,0.893-3.56,1.356-5.356c5.744-0.181,10.922-5.033,10.922-9.852c0-2.84-1.896-6.148-6.855-6.509L333.429,52.1z"/>
</g>
<line fill="none" stroke="#000000" stroke-width="1.7127" x1="403.984" y1="99.408" x2="705.984" y2="99.408"/>
<g>
	<defs>
		<rect id="SVGID_5_" x="669.089" y="111.546" width="26" height="25"/>
	</defs>
	<clipPath id="SVGID_6_">
		<use xlink:href="#SVGID_5_"  overflow="visible"/>
	</clipPath>
	<path clip-path="url(#SVGID_6_)" d="M681.462,124.947c0.251-0.046,0.396-0.094,0.682-0.094c0.538,0,1.327-0.093,1.865-0.186
		c0.538,0.858,4.412,7.214,7.388,10.177h-3.479 M673.823,134.846c0.267-0.644,0.267-1.645,0.267-1.967v-18.063
		c0-0.357,0-1.323-0.267-1.969h4.089c-0.523,0.573-0.523,1.288-0.523,1.825v18.207c0,0.356,0,1.323,0.344,1.967H673.823z
		 M678.69,114.786c0-0.754,0-1.939,2.229-1.939c3.057,0,4.569,1.257,4.569,5.49c0,4.628-1.116,5.309-6.799,5.309V114.786z
		 M685.623,123.127c1.053-1.327,1.166-3.228,1.166-4.806c0-1.722-0.224-3.623-1.417-5.094c1.469,0.323,5.017,1.436,5.017,5.058
		C690.389,120.616,689.313,122.446,685.623,123.127z M678.69,124.947h1.292c0.358,0.534,2.905,4.493,5.382,8.273
		c0.358,0.571,1.22,1.962,1.613,2.497c0.251,0.428,0.359,0.428,1.185,0.428h4.952c0.646,0,1.188,0,1.188-0.669
		c0-0.297-0.215-0.557-0.538-0.632c-1.327-0.287-3.084-2.652-3.944-3.799c-0.252-0.359-2.045-2.724-4.447-6.595
		c3.212-0.573,6.316-1.936,6.316-6.2c0-4.982-5.283-6.705-9.523-6.705h-11.281c-0.646,0-1.221,0-1.221,0.669
		c0,0.632,0.668,0.632,0.948,0.632c2.002,0,2.178,0.251,2.178,2.039v17.92c0,1.788-0.176,2.039-2.178,2.039
		c-0.281,0-0.948,0-0.948,0.632c0,0.669,0.574,0.669,1.22,0.669h9.827c0.646,0,1.185,0,1.185-0.669c0-0.632-0.612-0.632-1.009-0.632
		c-2.052,0-2.194-0.284-2.194-2.021L678.69,124.947z"/>
</g>
<g>
	<g>
		<circle cx="93.57" cy="141.969" r="2.999"/>
		<g>
			<g>
				<line fill="none" x1="93.569" y1="141.968" x2="120.936" y2="112.939"/>
				<polygon fill="#FFFFFF" points="122.84,110.854 121.357,114.889 120.791,113.094 118.955,112.697 				"/>
			</g>
			<g>
				<line fill="none" stroke="#000000" stroke-width="3" x1="93.569" y1="141.968" x2="120.936" y2="112.939"/>
				<polygon points="126.646,106.681 122.202,118.786 120.508,113.404 114.994,112.21 				"/>
			</g>
		</g>
	</g>
	<g>
		<defs>
			<rect id="SVGID_7_" x="74.742" y="98.54" width="30" height="25"/>
		</defs>
		<clipPath id="SVGID_8_">
			<use xlink:href="#SVGID_7_"  overflow="visible"/>
		</clipPath>
		<path clip-path="url(#SVGID_8_)" d="M91.438,108.399l-3.013-7.15c-0.106-0.287-0.179-0.431-0.179-0.467
			c0-0.216,0.61-0.898,2.116-1.043c0.358-0.035,0.717-0.071,0.717-0.674c0-0.427-0.43-0.427-0.538-0.427
			c-1.47,0-3.012,0.107-4.519,0.107c-0.896,0-3.12-0.107-4.018-0.107c-0.215,0-0.646,0-0.646,0.71c0,0.391,0.359,0.391,0.825,0.391
			c2.152,0,2.367,0.359,2.689,1.149l4.232,10.02l-7.568,8.151c-0.215,0.18-0.251,0.216-0.466,0.395
			c-1.757,1.903-3.443,2.479-5.272,2.585c-0.465,0.036-0.789,0.036-0.789,0.71c0,0.036,0,0.39,0.466,0.39
			c1.076,0,2.259-0.106,3.371-0.106c1.327,0,2.726,0.106,4.017,0.106c0.215,0,0.645,0,0.645-0.71c0-0.354-0.359-0.391-0.43-0.391
			c-0.323-0.036-1.434-0.107-1.434-1.113c0-0.574,0.539-1.148,0.968-1.615l3.658-3.877c1.076-1.186,2.475-2.657,3.228-3.521
			l3.623,8.582c0.143,0.395,0.18,0.431,0.18,0.503c0,0.287-0.683,0.898-2.08,1.041c-0.396,0.036-0.719,0.071-0.719,0.675
			c0,0.426,0.396,0.426,0.538,0.426c1.004,0,3.515-0.106,4.52-0.106c0.896,0,3.084,0.106,3.98,0.106c0.251,0,0.681,0,0.681-0.674
			c0-0.426-0.358-0.426-0.645-0.426c-2.403-0.036-2.475-0.144-3.085-1.58c-1.397-3.34-3.802-8.94-4.627-11.096
			c2.438-2.515,6.205-6.787,7.353-7.793c1.039-0.862,2.402-1.724,4.555-1.832c0.466-0.035,0.789-0.035,0.789-0.709
			c0-0.036,0-0.392-0.467-0.392c-1.075,0-2.259,0.107-3.371,0.107c-1.326,0-2.689-0.107-3.98-0.107c-0.215,0-0.681,0-0.681,0.71
			c0,0.248,0.179,0.355,0.43,0.391c0.323,0.037,1.435,0.108,1.435,1.114c0,0.504-0.395,0.971-0.681,1.293"/>
	</g>
</g>
<g>
	<circle cx="520.648" cy="99.364" r="2.999"/>
	<g>
		<g>
			<line fill="none" x1="520.647" y1="99.361" x2="589.176" y2="99.193"/>
			<polygon fill="#FFFFFF" points="592,99.162 588.039,100.832 588.964,99.193 588.001,97.581 			"/>
		</g>
		<g>
			<line fill="none" stroke="#000000" stroke-width="3" x1="520.647" y1="99.361" x2="589.176" y2="99.193"/>
			<polygon points="597.647,99.096 585.767,104.109 588.544,99.198 585.653,94.354 			"/>
		</g>
	</g>
</g>
<g>
	<defs>
		<rect id="SVGID_9_" x="469.219" y="47.412" width="96" height="37"/>
	</defs>
	<clipPath id="SVGID_10_">
		<use xlink:href="#SVGID_9_"  overflow="visible"/>
	</clipPath>
	<path clip-path="url(#SVGID_10_)" d="M479.067,70.73c-0.179,0.646-0.179,0.719-0.716,1.33c-1.575,1.977-3.042,2.552-4.044,2.552
		c-1.789,0-2.291-1.978-2.291-3.378c0-1.796,1.146-6.217,1.969-7.87c1.108-2.12,2.72-3.45,4.15-3.45
		c2.326,0,2.829,2.947,2.829,3.163s-0.073,0.431-0.108,0.611 M486.526,50.509c0-0.036,0-0.396-0.469-0.396
		c-0.535,0-3.93,0.321-4.537,0.393c-0.285,0.036-0.5,0.214-0.5,0.679c0,0.43,0.321,0.43,0.857,0.43c1.715,0,1.786,0.252,1.786,0.611
		l-0.107,0.718l-2.143,8.512c-0.644-1.354-1.679-2.343-3.287-2.343c-4.18,0-8.61,5.292-8.61,10.543c0,3.381,1.965,5.755,4.752,5.755
		c0.715,0,2.502-0.144,4.646-2.694c0.286,1.51,1.536,2.694,3.251,2.694c1.25,0,2.072-0.825,2.644-1.974
		c0.607-1.293,1.072-3.482,1.072-3.554c0-0.358-0.321-0.358-0.429-0.358c-0.357,0-0.394,0.144-0.5,0.646
		c-0.607,2.328-1.25,4.441-2.715,4.441c-0.965,0-1.072-0.933-1.072-1.65c0-0.86,0.071-1.112,0.214-1.721L486.526,50.509z"/>
	<path clip-path="url(#SVGID_10_)" d="M500.059,59.913c2.721,0.146,4.759,1.791,4.759,4.937c0,4.221-3.077,9.334-8.443,9.764
		 M495.446,74.613c-2.148-0.107-4.728-1.359-4.728-4.936c0-4.291,3.08-9.298,8.417-9.765L495.446,74.613z M502.262,50.975
		c0-0.07,0.107-0.466,0.107-0.502c0-0.035,0-0.36-0.429-0.36c-0.356,0-0.392,0.11-0.534,0.719l-2.07,8.281
		c-5.673,0.182-10.918,4.963-10.918,9.853c0,3.416,2.498,6.256,6.851,6.508c-0.285,1.113-0.535,2.265-0.82,3.379
		c-0.428,1.69-0.785,3.057-0.785,3.164c0,0.359,0.25,0.396,0.429,0.396s0.25-0.036,0.357-0.144c0.071-0.072,0.286-0.936,0.393-1.438
		c0.464-1.762,0.892-3.56,1.356-5.356c5.744-0.181,10.922-5.033,10.922-9.852c0-2.84-1.896-6.148-6.855-6.509L502.262,50.975z"/>
	<path clip-path="url(#SVGID_10_)" d="M519.89,83.653c0-0.107,0-0.179-0.613-0.789c-4.506-4.522-5.658-11.306-5.658-16.797
		c0-6.245,1.37-12.491,5.802-16.978c0.47-0.43,0.47-0.502,0.47-0.609c0-0.251-0.145-0.366-0.361-0.366
		c-0.361,0-3.608,2.448-5.737,7.007c-1.841,3.948-2.273,7.932-2.273,10.947c0,2.799,0.397,7.142,2.382,11.197
		c2.166,4.416,5.269,6.748,5.63,6.748c0.217,0,0.361-0.107,0.361-0.358"/>
	<path clip-path="url(#SVGID_10_)" d="M539.313,60.271l-3.012-7.15c-0.106-0.287-0.179-0.431-0.179-0.467
		c0-0.216,0.61-0.898,2.116-1.043c0.358-0.035,0.717-0.071,0.717-0.674c0-0.427-0.43-0.427-0.538-0.427
		c-1.47,0-3.012,0.107-4.519,0.107c-0.896,0-3.12-0.107-4.018-0.107c-0.215,0-0.646,0-0.646,0.71c0,0.391,0.358,0.391,0.825,0.391
		c2.151,0,2.366,0.359,2.689,1.149l4.232,10.02l-7.568,8.151c-0.215,0.18-0.251,0.216-0.466,0.395
		c-1.757,1.903-3.443,2.479-5.272,2.585c-0.466,0.036-0.789,0.036-0.789,0.71c0,0.036,0,0.39,0.467,0.39
		c1.075,0,2.259-0.106,3.37-0.106c1.327,0,2.727,0.106,4.018,0.106c0.215,0,0.645,0,0.645-0.71c0-0.354-0.358-0.391-0.43-0.391
		c-0.323-0.036-1.435-0.107-1.435-1.113c0-0.574,0.539-1.148,0.969-1.615l3.658-3.877c1.075-1.186,2.475-2.657,3.228-3.521
		L541,72.366c0.143,0.395,0.18,0.431,0.18,0.503c0,0.287-0.683,0.898-2.081,1.041c-0.395,0.036-0.718,0.071-0.718,0.675
		c0,0.426,0.396,0.426,0.538,0.426c1.004,0,3.514-0.106,4.52-0.106c0.896,0,3.084,0.106,3.98,0.106c0.251,0,0.681,0,0.681-0.674
		c0-0.426-0.358-0.426-0.645-0.426c-2.403-0.036-2.476-0.144-3.085-1.58c-1.398-3.34-3.803-8.94-4.627-11.096
		c2.438-2.515,6.205-6.787,7.352-7.793c1.04-0.862,2.403-1.724,4.555-1.832c0.467-0.035,0.789-0.035,0.789-0.709
		c0-0.036,0-0.392-0.466-0.392c-1.075,0-2.259,0.107-3.371,0.107c-1.327,0-2.689-0.107-3.98-0.107c-0.215,0-0.681,0-0.681,0.71
		c0,0.248,0.179,0.355,0.43,0.391c0.322,0.037,1.435,0.108,1.435,1.114c0,0.504-0.395,0.971-0.681,1.293"/>
	<path clip-path="url(#SVGID_10_)" d="M564.918,66.066c0-2.801-0.397-7.144-2.378-11.198c-2.16-4.414-5.257-6.755-5.617-6.755
		c-0.216,0-0.359,0.15-0.359,0.366c0,0.107,0,0.18,0.683,0.825c3.521,3.554,5.57,9.26,5.57,16.762c0,6.137-1.33,12.453-5.786,16.977
		c-0.467,0.432-0.467,0.503-0.467,0.61c0,0.216,0.144,0.358,0.359,0.358c0.36,0,3.601-2.44,5.725-6.998
		C564.483,73.065,564.918,69.081,564.918,66.066"/>
</g>
</svg>
