<?xml version="1.0" encoding="utf-8"?>
<!-- Generator: Adobe Illustrator 14.0.0, SVG Export Plug-In . SVG Version: 6.00 Build 43363)  -->
<!DOCTYPE svg PUBLIC "-//W3C//DTD SVG 1.1//EN" "http://www.w3.org/Graphics/SVG/1.1/DTD/svg11.dtd">
<svg version="1.1" id="Layer_1" xmlns="http://www.w3.org/2000/svg" xmlns:xlink="http://www.w3.org/1999/xlink" x="0px" y="0px"
	 width="603px" height="323px" viewBox="0 0 603 323" enable-background="new 0 0 603 323" xml:space="preserve">
<g>
	<g>
		<rect x="54.989" y="60.768" fill="none" stroke="#A5A5A5" stroke-width="0.457" width="191.044" height="191.045"/>
		<line fill="none" stroke="#A5A5A5" stroke-width="0.457" x1="54.989" y1="69.911" x2="246.034" y2="69.911"/>
		<line fill="none" stroke="#A5A5A5" stroke-width="0.457" x1="54.989" y1="78.958" x2="246.034" y2="78.958"/>
		<line fill="none" stroke="#A5A5A5" stroke-width="0.457" x1="54.989" y1="88.101" x2="246.034" y2="88.101"/>
		<line fill="none" stroke="#A5A5A5" stroke-width="0.457" x1="54.989" y1="97.149" x2="246.034" y2="97.149"/>
		<line fill="none" stroke="#A5A5A5" stroke-width="0.457" x1="54.989" y1="106.291" x2="246.034" y2="106.291"/>
		<line fill="none" stroke="#A5A5A5" stroke-width="0.457" x1="54.989" y1="115.339" x2="246.034" y2="115.339"/>
		<line fill="none" stroke="#A5A5A5" stroke-width="0.457" x1="54.989" y1="124.481" x2="246.034" y2="124.481"/>
		<line fill="none" stroke="#A5A5A5" stroke-width="0.457" x1="54.989" y1="133.531" x2="246.034" y2="133.531"/>
		<line fill="none" stroke="#A5A5A5" stroke-width="0.457" x1="54.989" y1="142.671" x2="246.034" y2="142.671"/>
		<line fill="none" stroke="#A5A5A5" stroke-width="0.457" x1="54.989" y1="151.72" x2="246.034" y2="151.72"/>
		<line fill="none" stroke="#A5A5A5" stroke-width="0.457" x1="54.989" y1="160.861" x2="246.034" y2="160.861"/>
		<line fill="none" stroke="#A5A5A5" stroke-width="0.457" x1="54.989" y1="169.91" x2="246.034" y2="169.91"/>
		<line fill="none" stroke="#A5A5A5" stroke-width="0.457" x1="54.989" y1="179.053" x2="246.034" y2="179.053"/>
		<line fill="none" stroke="#A5A5A5" stroke-width="0.457" x1="54.989" y1="188.101" x2="246.034" y2="188.101"/>
		<line fill="none" stroke="#A5A5A5" stroke-width="0.457" x1="54.989" y1="197.242" x2="246.034" y2="197.242"/>
		<line fill="none" stroke="#A5A5A5" stroke-width="0.457" x1="54.989" y1="206.291" x2="246.034" y2="206.291"/>
		<line fill="none" stroke="#A5A5A5" stroke-width="0.457" x1="54.989" y1="215.432" x2="246.034" y2="215.432"/>
		<line fill="none" stroke="#A5A5A5" stroke-width="0.457" x1="54.989" y1="224.48" x2="246.034" y2="224.48"/>
		<line fill="none" stroke="#A5A5A5" stroke-width="0.457" x1="54.989" y1="233.623" x2="246.034" y2="233.623"/>
		<line fill="none" stroke="#A5A5A5" stroke-width="0.457" x1="54.989" y1="242.672" x2="246.034" y2="242.672"/>
		<line fill="none" stroke="#A5A5A5" stroke-width="0.457" x1="236.939" y1="251.813" x2="236.939" y2="60.768"/>
		<line fill="none" stroke="#A5A5A5" stroke-width="0.457" x1="227.842" y1="251.813" x2="227.842" y2="60.768"/>
		<line fill="none" stroke="#A5A5A5" stroke-width="0.457" x1="218.749" y1="251.813" x2="218.749" y2="60.768"/>
		<line fill="none" stroke="#A5A5A5" stroke-width="0.457" x1="209.652" y1="251.813" x2="209.652" y2="60.768"/>
		<line fill="none" stroke="#A5A5A5" stroke-width="0.457" x1="200.558" y1="251.813" x2="200.558" y2="60.768"/>
		<line fill="none" stroke="#A5A5A5" stroke-width="0.457" x1="191.462" y1="251.813" x2="191.462" y2="60.768"/>
		<line fill="none" stroke="#A5A5A5" stroke-width="0.457" x1="182.368" y1="251.813" x2="182.368" y2="60.768"/>
		<line fill="none" stroke="#A5A5A5" stroke-width="0.457" x1="173.272" y1="251.813" x2="173.272" y2="60.768"/>
		<line fill="none" stroke="#A5A5A5" stroke-width="0.457" x1="164.177" y1="251.813" x2="164.177" y2="60.768"/>
		<line fill="none" stroke="#A5A5A5" stroke-width="0.457" x1="155.083" y1="251.813" x2="155.083" y2="60.768"/>
		<line fill="none" stroke="#A5A5A5" stroke-width="0.457" x1="145.94" y1="251.813" x2="145.94" y2="60.768"/>
		<line fill="none" stroke="#A5A5A5" stroke-width="0.457" x1="136.845" y1="251.813" x2="136.845" y2="60.768"/>
		<line fill="none" stroke="#A5A5A5" stroke-width="0.457" x1="127.75" y1="251.813" x2="127.75" y2="60.768"/>
		<line fill="none" stroke="#A5A5A5" stroke-width="0.457" x1="118.654" y1="251.813" x2="118.654" y2="60.768"/>
		<line fill="none" stroke="#A5A5A5" stroke-width="0.457" x1="109.56" y1="251.813" x2="109.56" y2="60.768"/>
		<line fill="none" stroke="#A5A5A5" stroke-width="0.457" x1="100.464" y1="251.813" x2="100.464" y2="60.768"/>
		<line fill="none" stroke="#A5A5A5" stroke-width="0.457" x1="91.37" y1="251.813" x2="91.37" y2="60.768"/>
		<line fill="none" stroke="#A5A5A5" stroke-width="0.457" x1="82.274" y1="251.813" x2="82.274" y2="60.768"/>
		<line fill="none" stroke="#A5A5A5" stroke-width="0.457" x1="73.18" y1="251.813" x2="73.18" y2="60.768"/>
		<line fill="none" stroke="#A5A5A5" stroke-width="0.457" x1="64.083" y1="251.813" x2="64.083" y2="60.768"/>
	</g>
	<g>
		<g>
			<line fill="none" stroke="#545454" stroke-width="1.5997" x1="43.562" y1="251.813" x2="256.088" y2="251.813"/>
			<polygon fill="#545454" points="265.125,251.813 252.392,257.016 255.414,251.813 252.392,246.613 			"/>
		</g>
	</g>
	<g>
		<g>
			<line fill="none" stroke="#545454" stroke-width="1.5997" x1="54.989" y1="263.24" x2="54.989" y2="50.714"/>
			<polygon fill="#545454" points="54.989,41.678 60.191,54.411 54.989,51.389 49.788,54.411 			"/>
		</g>
	</g>
	<rect x="54.989" y="237.062" fill="#FFFFFF" stroke="#545454" stroke-width="1.5997" width="14.751" height="14.752"/>
	<g>
		<circle cx="55.073" cy="251.699" r="3"/>
		<g>
			<g>
				<line fill="none" x1="55.073" y1="251.699" x2="189.833" y2="155.004"/>
				<polygon fill="#FFFFFF" points="192.125,153.355 189.843,157 189.66,155.128 187.945,154.36 				"/>
			</g>
			<g>
				<line fill="none" stroke="#000000" stroke-width="3" x1="55.073" y1="251.699" x2="189.833" y2="155.004"/>
				<polygon points="196.711,150.058 189.864,160.988 189.317,155.374 184.17,153.068 				"/>
			</g>
		</g>
	</g>
	<line fill="none" stroke="#231F20" stroke-dasharray="3" x1="196.711" y1="150.058" x2="196.711" y2="251.699"/>
	<line fill="none" stroke="#231F20" stroke-dasharray="3" x1="196.711" y1="150.058" x2="55.073" y2="150.058"/>
	<g>
		<defs>
			<rect id="SVGID_1_" x="53.641" y="268.827" width="145" height="33"/>
		</defs>
		<clipPath id="SVGID_2_">
			<use xlink:href="#SVGID_1_"  overflow="visible"/>
		</clipPath>
		<path clip-path="url(#SVGID_2_)" d="M65.84,275.304c0-0.557,0-0.678-0.336-0.678c-1.462-0.023-3.834-0.214-5.991-1.263
			c-2.588-1.287-3.571-2.788-4.17-3.716c-0.072-0.12-0.216-0.12-0.527-0.12c-0.551,0-0.575,0.026-0.575,0.625v0.383
			c3.259,5.866,8.651,6.992,11.096,6.992c0.504,0,0.504-0.024,0.504-0.677"/>
		<rect x="65.564" y="274.635" clip-path="url(#SVGID_2_)" width="49.76" height="2.868"/>
		<path clip-path="url(#SVGID_2_)" d="M126.641,281.622c-3.243-5.868-8.607-6.994-11.039-6.994c-0.5,0-0.5,0.024-0.5,0.678v1.547
			c0,0.556,0,0.677,0.334,0.677c1.454,0.024,3.814,0.215,5.96,1.263c2.575,1.287,3.552,2.787,4.148,3.716
			c0.07,0.119,0.215,0.119,0.524,0.119c0.549,0,0.573-0.023,0.573-0.623"/>
		<path clip-path="url(#SVGID_2_)" d="M137.04,275.306c0-0.653,0-0.678-0.504-0.678c-2.444,0-7.837,1.15-11.096,6.994v0.383
			c0,0.6,0.024,0.623,0.575,0.623c0.455,0,0.479-0.023,0.599-0.19c1.965-3.121,5.272-4.812,10.137-4.908
			c0.289,0,0.289-0.169,0.289-0.677"/>
		<rect x="136.844" y="274.635" clip-path="url(#SVGID_2_)" width="49.76" height="2.868"/>
		<path clip-path="url(#SVGID_2_)" d="M197.941,270.152c0-0.599-0.024-0.625-0.573-0.625c-0.453,0-0.477,0.024-0.596,0.19
			c-1.955,3.121-5.244,4.812-10.084,4.907c-0.285,0-0.285,0.169-0.285,0.677v1.547c0,0.653,0,0.678,0.5,0.678
			c2.432,0,7.795-1.149,11.038-6.992"/>
		<path clip-path="url(#SVGID_2_)" d="M124.641,293.728h-1.5v4.846c0,1.336-1.112,1.754-2.06,1.754c-1.209,0-1.34-0.334-1.34-1.104
			v-5.496h-1.5v5.607c0,1.489,0.654,1.991,1.826,1.991c0.687,0,2.161-0.134,3.166-0.937v0.77h1.408"/>
		<path clip-path="url(#SVGID_2_)" d="M130.841,288.689c0-0.363-0.037-0.363-0.437-0.363c-0.86,0.8-2.206,0.8-2.447,0.8h-0.206v0.5
			h0.207c0.28,0,1.075-0.033,1.782-0.306v6.002c0,0.372,0,0.504-1.296,0.504h-0.61v0.5c0.656-0.048,1.721-0.048,2.414-0.048
			s1.758,0,2.416,0.048v-0.5h-0.584c-1.239,0-1.239-0.132-1.239-0.506"/>
	</g>
	<g>
		<path d="M33.79,161.581c0.557,0,0.678,0,0.678-0.337c0.023-1.462,0.214-3.834,1.263-5.991c1.287-2.588,2.788-3.571,3.716-4.17
			c0.12-0.072,0.12-0.216,0.12-0.527c0-0.551-0.026-0.575-0.625-0.575h-0.383c-5.866,3.259-6.992,8.651-6.992,11.096
			c0,0.505,0.024,0.505,0.677,0.505"/>
		<rect x="31.591" y="161.305" width="2.868" height="28.952"/>
		<path d="M27.472,201.574c5.868-3.243,6.994-8.607,6.994-11.039c0-0.5-0.024-0.5-0.678-0.5h-1.547c-0.556,0-0.677,0-0.677,0.334
			c-0.024,1.454-0.215,3.813-1.263,5.96c-1.287,2.575-2.787,3.552-3.716,4.148c-0.119,0.07-0.119,0.215-0.119,0.524
			c0,0.549,0.023,0.573,0.623,0.573"/>
		<path d="M33.788,211.973c0.653,0,0.678,0,0.678-0.504c0-2.444-1.15-7.837-6.994-11.096h-0.383c-0.6,0-0.623,0.024-0.623,0.575
			c0,0.455,0.023,0.479,0.19,0.599c3.121,1.965,4.812,5.272,4.908,10.137c0,0.289,0.169,0.289,0.677,0.289"/>
		<rect x="31.591" y="211.777" width="2.868" height="28.951"/>
		<path d="M38.941,252.066c0.599,0,0.625-0.025,0.625-0.573c0-0.452-0.024-0.477-0.19-0.596c-3.121-1.955-4.812-5.245-4.907-10.084
			c0-0.286-0.169-0.286-0.677-0.286h-1.547c-0.653,0-0.678,0-0.678,0.5c0,2.432,1.149,7.796,6.992,11.039"/>
	</g>
	<g>
		<path d="M14.375,199.274h-1.5v4.846c0,1.336-1.112,1.754-2.06,1.754c-1.209,0-1.34-0.334-1.34-1.104v-5.496h-1.5v5.607
			c0,1.489,0.654,1.991,1.826,1.991c0.687,0,2.161-0.134,3.166-0.937v0.77h1.408"/>
		<path d="M22.875,199.567h-0.509c-0.036,0.236-0.157,1.009-0.352,1.133c-0.097,0.075-1.113,0.075-1.296,0.075h-2.373
			c0.799-0.594,1.695-1.271,2.422-1.755c1.09-0.75,2.107-1.452,2.107-2.735c0-1.55-1.459-2.41-3.181-2.41
			c-1.626,0-2.818,0.955-2.818,2.154c0,0.636,0.526,0.746,0.694,0.746c0.322,0,0.706-0.214,0.706-0.7c0-0.428-0.317-0.664-0.695-0.7
			c0.338-0.6,1.038-1,1.846-1c1.171,0,2.148,0.7,2.148,1.882c0,1.014-0.697,1.784-1.623,2.568l-2.933,2.496
			c-0.121,0.108-0.133,0.108-0.145,0.192v0.362h5.602"/>
	</g>
	<g>
		<defs>
			<rect id="SVGID_3_" x="262.754" y="247.809" width="22" height="22"/>
		</defs>
		<clipPath id="SVGID_4_">
			<use xlink:href="#SVGID_3_"  overflow="visible"/>
		</clipPath>
		<path clip-path="url(#SVGID_4_)" d="M270.94,261.766c0.144-0.629,0.693-2.857,2.367-2.857c0.12,0,0.693,0,1.196,0.4
			c-0.67,0.118-1.149,0.708-1.149,1.275c0,0.378,0.264,0.826,0.909,0.826c0.526,0,1.292-0.436,1.292-1.403
			c0-1.259-1.396-1.597-2.201-1.597c-1.391,0-2.229,1.288-2.518,1.848c-0.6-1.605-1.893-1.848-2.589-1.848
			c-2.493,0-3.859,3.108-3.859,3.711c0,0.241,0.239,0.241,0.287,0.241c0.191,0,0.264-0.049,0.312-0.268
			c0.812-2.577,2.391-3.185,3.204-3.185c0.453,0,1.291,0.219,1.291,1.622c0,0.75-0.406,2.372-1.291,5.761
			c-0.383,1.5-1.221,2.517-2.271,2.517c-0.143,0-0.693,0-1.195-0.399c0.602-0.119,1.131-0.614,1.131-1.275
			c0-0.637-0.527-0.826-0.886-0.826c-0.718,0-1.315,0.63-1.315,1.404c0,1.111,1.195,1.596,2.246,1.596
			c1.576,0,2.437-1.708,2.509-1.855c0.287,0.903,1.147,1.855,2.58,1.855c2.461,0,3.824-3.114,3.824-3.717
			c0-0.241-0.215-0.241-0.287-0.241c-0.215,0-0.263,0.098-0.311,0.269c-0.789,2.605-2.415,3.19-3.18,3.19
			c-0.933,0-1.315-0.774-1.315-1.598c0-0.532,0.145-1.065,0.407-2.13"/>
		<path clip-path="url(#SVGID_4_)" d="M282.254,248.578c0-0.451-0.034-0.47-0.501-0.47c-1.069,1.082-2.589,1.101-3.274,1.101v0.6
			c0.41,0,1.536,0,2.476-0.508v8.538c0,0.553,0,0.77-1.709,0.77h-0.649v0.601c0.303-0.018,2.36-0.067,2.979-0.067
			c0.519,0,2.628,0.05,2.996,0.067v-0.601h-0.64c-1.679,0-1.679-0.218-1.679-0.769"/>
	</g>
	<g>
		<defs>
			<rect id="SVGID_5_" x="23.569" y="36.644" width="22.944" height="22"/>
		</defs>
		<clipPath id="SVGID_6_">
			<use xlink:href="#SVGID_5_"  overflow="visible"/>
		</clipPath>
		<path clip-path="url(#SVGID_6_)" d="M31.754,50.601c0.144-0.629,0.693-2.857,2.367-2.857c0.12,0,0.693,0,1.196,0.4
			c-0.67,0.118-1.149,0.708-1.149,1.275c0,0.378,0.264,0.826,0.909,0.826c0.526,0,1.292-0.436,1.292-1.403
			c0-1.259-1.396-1.597-2.201-1.597c-1.391,0-2.229,1.288-2.518,1.848c-0.599-1.605-1.893-1.848-2.589-1.848
			c-2.493,0-3.859,3.108-3.859,3.711c0,0.241,0.239,0.241,0.287,0.241c0.191,0,0.263-0.049,0.311-0.268
			c0.813-2.577,2.391-3.185,3.204-3.185c0.454,0,1.291,0.219,1.291,1.622c0,0.75-0.406,2.372-1.291,5.761
			c-0.382,1.5-1.22,2.517-2.271,2.517c-0.143,0-0.693,0-1.195-0.399c0.602-0.119,1.13-0.614,1.13-1.275
			c0-0.637-0.527-0.826-0.885-0.826c-0.718,0-1.316,0.63-1.316,1.404c0,1.111,1.195,1.596,2.246,1.596
			c1.577,0,2.437-1.708,2.509-1.855c0.287,0.903,1.147,1.855,2.581,1.855c2.461,0,3.824-3.114,3.824-3.717
			c0-0.241-0.215-0.241-0.287-0.241c-0.215,0-0.263,0.098-0.311,0.269c-0.789,2.605-2.415,3.19-3.18,3.19
			c-0.933,0-1.315-0.774-1.315-1.598c0-0.532,0.145-1.065,0.407-2.13"/>
		<path clip-path="url(#SVGID_6_)" d="M45.869,44.997h-0.564c-0.05,0.373-0.216,1.375-0.432,1.545
			c-0.132,0.102-1.409,0.102-1.641,0.102h-3.051c1.741-1.558,2.32-2.027,3.315-2.814c1.228-0.987,2.372-2.026,2.372-3.617
			c0-2.027-1.774-3.269-3.918-3.269c-2.076,0-3.481,1.445-3.481,2.972c0,0.846,0.729,0.929,0.899,0.929
			c0.408,0,0.901-0.289,0.901-0.9c0-0.305-0.114-0.899-0.959-0.899c0.516-1.146,1.646-1.5,2.429-1.5c1.663,0,2.53,1.305,2.53,2.658
			c0,1.455-1.044,2.608-1.581,3.211l-4.05,3.979c-0.168,0.15-0.168,0.184-0.168,0.652h6.897"/>
	</g>
	<g>
		<defs>
			<rect id="SVGID_7_" x="201.813" y="145.951" width="13" height="11"/>
		</defs>
		<clipPath id="SVGID_8_">
			<use xlink:href="#SVGID_7_"  overflow="visible"/>
		</clipPath>
		<path clip-path="url(#SVGID_8_)" d="M209.589,155.212c0.263,1.004,1.098,1.64,2.123,1.64c0.837,0,1.385-0.556,1.767-1.328
			c0.406-0.869,0.718-2.342,0.718-2.39c0-0.24-0.216-0.24-0.288-0.24c-0.239,0-0.263,0.098-0.335,0.438
			c-0.335,1.364-0.79,3.021-1.796,3.021c-0.503,0-0.742-0.313-0.742-1.107c0-0.529,0.288-1.66,0.479-2.502
			c0.216-0.866,0.455-1.731,0.67-2.598c0.072-0.361,0.311-1.275,0.407-1.637c0.12-0.553,0.358-1.467,0.358-1.611
			c0-0.434-0.335-0.652-0.693-0.652c-0.12,0-0.742,0.026-0.935,0.844c-0.455,1.757-1.508,5.966-1.795,7.241
			c-0.024,0.096-0.981,2.021-2.729,2.021c-1.245,0-1.484-1.086-1.484-1.979c0-1.351,0.67-3.257,1.292-4.922
			c0.287-0.723,0.407-1.062,0.407-1.521c0-1.086-0.765-1.979-1.957-1.979c-2.267,0-3.149,3.495-3.149,3.712
			c0,0.241,0.241,0.241,0.289,0.241c0.241,0,0.266-0.049,0.385-0.438c0.603-2.115,1.517-3.015,2.431-3.015
			c0.217,0,0.602,0.026,0.602,0.798c0,0.579-0.264,1.279-0.407,1.641c-0.888,2.39-1.392,3.885-1.392,5.066
			c0,2.292,1.647,2.895,2.935,2.895C208.324,156.85,209.184,155.749,209.589,155.212"/>
	</g>
</g>
<g>
	<g>
		<g>
			
				<rect x="376.267" y="64.304" transform="matrix(-0.9209 -0.3899 0.3899 -0.9209 843.9379 490.935)" fill="none" stroke="#A5A5A5" stroke-width="0.457" width="191.044" height="191.044"/>
			<line fill="none" stroke="#A5A5A5" stroke-width="0.457" x1="417.5" y1="43.042" x2="593.428" y2="117.521"/>
			<line fill="none" stroke="#A5A5A5" stroke-width="0.457" x1="413.973" y1="51.374" x2="589.9" y2="125.852"/>
			<line fill="none" stroke="#A5A5A5" stroke-width="0.457" x1="410.408" y1="59.793" x2="586.337" y2="134.272"/>
			<line fill="none" stroke="#A5A5A5" stroke-width="0.457" x1="406.881" y1="68.126" x2="582.809" y2="142.604"/>
			<line fill="none" stroke="#A5A5A5" stroke-width="0.457" x1="403.316" y1="76.543" x2="579.245" y2="151.022"/>
			<line fill="none" stroke="#A5A5A5" stroke-width="0.457" x1="399.789" y1="84.876" x2="575.718" y2="159.354"/>
			<line fill="none" stroke="#A5A5A5" stroke-width="0.457" x1="396.225" y1="93.295" x2="572.153" y2="167.774"/>
			<line fill="none" stroke="#A5A5A5" stroke-width="0.457" x1="392.697" y1="101.628" x2="568.625" y2="176.106"/>
			<line fill="none" stroke="#A5A5A5" stroke-width="0.457" x1="389.134" y1="110.045" x2="565.063" y2="184.524"/>
			<line fill="none" stroke="#A5A5A5" stroke-width="0.457" x1="385.606" y1="118.378" x2="561.534" y2="192.856"/>
			<line fill="none" stroke="#A5A5A5" stroke-width="0.457" x1="382.042" y1="126.796" x2="557.971" y2="201.275"/>
			<line fill="none" stroke="#A5A5A5" stroke-width="0.457" x1="378.515" y1="135.129" x2="554.442" y2="209.608"/>
			<line fill="none" stroke="#A5A5A5" stroke-width="0.457" x1="374.95" y1="143.547" x2="550.879" y2="218.027"/>
			<line fill="none" stroke="#A5A5A5" stroke-width="0.457" x1="371.423" y1="151.879" x2="547.352" y2="226.358"/>
			<line fill="none" stroke="#A5A5A5" stroke-width="0.457" x1="367.859" y1="160.299" x2="543.787" y2="234.777"/>
			<line fill="none" stroke="#A5A5A5" stroke-width="0.457" x1="364.331" y1="168.632" x2="540.261" y2="243.11"/>
			<line fill="none" stroke="#A5A5A5" stroke-width="0.457" x1="360.768" y1="177.049" x2="536.695" y2="251.528"/>
			<line fill="none" stroke="#A5A5A5" stroke-width="0.457" x1="357.24" y1="185.381" x2="533.168" y2="259.86"/>
			<line fill="none" stroke="#A5A5A5" stroke-width="0.457" x1="353.676" y1="193.8" x2="529.604" y2="268.28"/>
			<line fill="none" stroke="#A5A5A5" stroke-width="0.457" x1="350.148" y1="202.134" x2="526.076" y2="276.612"/>
			<line fill="none" stroke="#A5A5A5" stroke-width="0.457" x1="514.138" y1="281.484" x2="588.617" y2="105.555"/>
			<line fill="none" stroke="#A5A5A5" stroke-width="0.457" x1="505.76" y1="277.939" x2="580.239" y2="102.009"/>
			<line fill="none" stroke="#A5A5A5" stroke-width="0.457" x1="497.386" y1="274.394" x2="571.866" y2="98.463"/>
			<line fill="none" stroke="#A5A5A5" stroke-width="0.457" x1="489.008" y1="270.848" x2="563.489" y2="94.918"/>
			<line fill="none" stroke="#A5A5A5" stroke-width="0.457" x1="480.635" y1="267.303" x2="555.115" y2="91.373"/>
			<line fill="none" stroke="#A5A5A5" stroke-width="0.457" x1="472.259" y1="263.757" x2="546.739" y2="87.827"/>
			<line fill="none" stroke="#A5A5A5" stroke-width="0.457" x1="463.884" y1="260.211" x2="538.364" y2="84.281"/>
			<line fill="none" stroke="#A5A5A5" stroke-width="0.457" x1="455.509" y1="256.665" x2="529.988" y2="80.735"/>
			<line fill="none" stroke="#A5A5A5" stroke-width="0.457" x1="447.133" y1="253.119" x2="521.612" y2="77.189"/>
			<line fill="none" stroke="#A5A5A5" stroke-width="0.457" x1="438.758" y1="249.573" x2="513.237" y2="73.644"/>
			<line fill="none" stroke="#A5A5A5" stroke-width="0.457" x1="430.338" y1="246.009" x2="504.819" y2="70.08"/>
			<line fill="none" stroke="#A5A5A5" stroke-width="0.457" x1="421.962" y1="242.463" x2="496.443" y2="66.534"/>
			<line fill="none" stroke="#A5A5A5" stroke-width="0.457" x1="413.588" y1="238.918" x2="488.068" y2="62.988"/>
			<line fill="none" stroke="#A5A5A5" stroke-width="0.457" x1="405.211" y1="235.372" x2="479.691" y2="59.442"/>
			<line fill="none" stroke="#A5A5A5" stroke-width="0.457" x1="396.837" y1="231.826" x2="471.317" y2="55.897"/>
			<line fill="none" stroke="#A5A5A5" stroke-width="0.457" x1="388.461" y1="228.279" x2="462.941" y2="52.351"/>
			<line fill="none" stroke="#A5A5A5" stroke-width="0.457" x1="380.086" y1="224.735" x2="454.565" y2="48.805"/>
			<line fill="none" stroke="#A5A5A5" stroke-width="0.457" x1="371.711" y1="221.188" x2="446.19" y2="45.26"/>
			<line fill="none" stroke="#A5A5A5" stroke-width="0.457" x1="363.335" y1="217.644" x2="437.814" y2="41.713"/>
			<line fill="none" stroke="#A5A5A5" stroke-width="0.457" x1="354.96" y1="214.097" x2="429.438" y2="38.167"/>
		</g>
		<g>
			<g>
				<line fill="none" stroke="#545454" stroke-width="1.5997" x1="336.061" y1="206.097" x2="531.771" y2="288.951"/>
				<polygon fill="#545454" points="540.093,292.474 526.34,292.301 531.151,288.688 530.396,282.722 				"/>
			</g>
		</g>
		<g>
			<g>
				<line fill="none" stroke="#545454" stroke-width="1.5997" x1="342.13" y1="221.075" x2="424.983" y2="25.364"/>
				<polygon fill="#545454" points="428.506,17.043 428.332,30.796 424.721,25.985 418.753,26.74 				"/>
			</g>
		</g>
		
			<rect x="348.877" y="199.259" transform="matrix(-0.9209 -0.3898 0.3898 -0.9209 603.7749 535.7939)" fill="#FFFFFF" stroke="#545454" stroke-width="1.5997" width="14.751" height="14.752"/>
		<g>
			<circle cx="346.667" cy="210.437" r="3"/>
			<g>
				<g>
					<line fill="none" x1="346.668" y1="210.438" x2="481.427" y2="113.742"/>
					<polygon fill="#FFFFFF" points="483.72,112.093 481.438,115.738 481.254,113.866 479.539,113.099 					"/>
				</g>
				<g>
					<line fill="none" stroke="#000000" stroke-width="3" x1="346.668" y1="210.438" x2="481.427" y2="113.742"/>
					<polygon points="488.305,108.795 481.459,119.726 480.912,114.112 475.764,111.806 					"/>
				</g>
			</g>
		</g>
		<line fill="none" stroke="#231F20" stroke-dasharray="3" x1="488.355" y1="108.817" x2="430.286" y2="245.987"/>
		<line fill="none" stroke="#231F20" stroke-dasharray="3" x1="488.213" y1="109.009" x2="404.1" y2="73.399"/>
		<g>
			<path d="M349.38,232.151c0.217-0.514,0.264-0.625-0.046-0.755c-1.34-0.59-3.449-1.687-5.031-3.489
				c-1.886-2.192-2.209-3.957-2.398-5.044c-0.021-0.139-0.153-0.194-0.44-0.315c-0.508-0.214-0.54-0.199-0.773,0.353l-0.148,0.354
				c0.727,6.67,5.258,9.802,7.511,10.751c0.464,0.196,0.474,0.174,0.729-0.428"/>
			<polygon points="348.272,234.071 371.089,243.637 372.203,240.993 349.386,231.428 			"/>
			<path d="M379.92,251.827c-0.711-6.667-5.216-9.787-7.458-10.73c-0.461-0.195-0.471-0.172-0.724,0.431l-0.601,1.426
				c-0.215,0.511-0.262,0.624,0.045,0.753c1.33,0.586,3.432,1.678,5.002,3.477c1.873,2.187,2.193,3.948,2.381,5.035
				c0.019,0.138,0.151,0.194,0.437,0.314c0.506,0.212,0.538,0.2,0.771-0.353"/>
			<path d="M391.956,250.045c0.253-0.603,0.263-0.626-0.202-0.82c-2.254-0.95-7.669-1.982-12.941,2.137l-0.148,0.352
				c-0.233,0.553-0.219,0.585,0.288,0.799c0.42,0.176,0.45,0.165,0.625,0.057c3.023-2.114,6.729-2.388,11.246-0.586
				c0.268,0.11,0.334-0.045,0.531-0.514"/>
			<polygon points="390.922,251.994 413.738,261.56 414.852,258.917 392.036,249.35 			"/>
			<path d="M427.04,259.188c0.231-0.553,0.219-0.586-0.284-0.799c-0.419-0.178-0.451-0.163-0.623-0.057
				c-3.015,2.118-6.703,2.399-11.2,0.607c-0.262-0.111-0.327,0.045-0.525,0.513l-0.601,1.425c-0.253,0.604-0.263,0.626,0.198,0.819
				c2.241,0.944,7.63,1.967,12.887-2.158"/>
		</g>
		<g>
			<path d="M381.149,78.406c0.514,0.216,0.625,0.264,0.756-0.047c0.589-1.337,1.685-3.45,3.489-5.031
				c2.19-1.886,3.956-2.208,5.044-2.4c0.139-0.02,0.193-0.153,0.315-0.44c0.213-0.508,0.2-0.54-0.354-0.773l-0.354-0.148
				c-6.67,0.726-9.802,5.258-10.751,7.51c-0.196,0.465-0.174,0.476,0.428,0.729"/>
			
				<rect x="345.85" y="99.439" transform="matrix(0.3889 -0.9213 0.9213 0.3889 133.6803 403.2809)" width="49.969" height="2.867"/>
			<path d="M351.605,132.163c6.666-0.711,9.788-5.216,10.732-7.458c0.193-0.461,0.171-0.471-0.432-0.724l-1.426-0.601
				c-0.511-0.215-0.623-0.263-0.753,0.045c-0.586,1.332-1.678,3.431-3.477,5.003c-2.187,1.873-3.948,2.19-5.035,2.379
				c-0.138,0.019-0.194,0.152-0.314,0.437c-0.213,0.506-0.202,0.537,0.351,0.77"/>
			<path d="M353.389,144.198c0.602,0.252,0.626,0.263,0.82-0.202c0.95-2.252,1.982-7.668-2.137-12.94l-0.353-0.148
				c-0.552-0.232-0.584-0.22-0.797,0.288c-0.177,0.42-0.166,0.451-0.06,0.625c2.115,3.022,2.389,6.727,0.589,11.247
				c-0.113,0.267,0.045,0.332,0.512,0.53"/>
			<polygon points="351.44,143.165 332.007,189.198 334.649,190.311 354.084,144.278 			"/>
			<path d="M334.378,202.5c0.552,0.233,0.586,0.22,0.799-0.285c0.175-0.417,0.162-0.449,0.056-0.623
				c-2.117-3.013-2.397-6.702-0.607-11.198c0.11-0.263-0.045-0.329-0.512-0.526l-1.427-0.601c-0.603-0.254-0.623-0.263-0.818,0.198
				c-0.943,2.241-1.968,7.629,2.158,12.888"/>
		</g>
		<g>
			<defs>
				<rect id="SVGID_9_" x="365.275" y="254.298" width="18.999" height="21.999"/>
			</defs>
			<clipPath id="SVGID_10_">
				<use xlink:href="#SVGID_9_"  overflow="visible"/>
			</clipPath>
			<path clip-path="url(#SVGID_10_)" d="M373.591,259.198c-0.001,0.023-0.913,1.146-1.971,1.146
				c-0.552,0.001-1.152-0.358-1.562-0.598c-0.649-0.383-1.081-0.549-1.489-0.55c-0.913,0.001-1.37,0.521-2.595,1.847l0.384,0.355
				c0-0.024,0.912-1.148,1.97-1.148c0.554-0.001,1.154,0.358,1.562,0.599c0.647,0.381,1.081,0.55,1.489,0.55
				c0.913,0,1.369-0.521,2.596-1.847"/>
			<path clip-path="url(#SVGID_10_)" d="M374.176,264.897l-1.9,0.001v6.961c0,1.798-1.33,2.638-2.85,2.639
				c-1.685-0.001-1.851-0.625-1.851-1.656v-7.944h-1.9v8.026c0,1.726,0.553,2.873,2.545,2.874c1.272,0,2.977-0.383,4.154-1.414
				l-0.001,1.152l1.802-0.001"/>
			<path clip-path="url(#SVGID_10_)" d="M381.774,255.067c0-0.451-0.033-0.47-0.501-0.47c-1.069,1.082-2.589,1.101-3.274,1.101v0.6
				c0.41,0,1.536,0,2.476-0.508v8.537c0,0.553,0,0.771-1.709,0.771h-0.649v0.601c0.303-0.018,2.36-0.067,2.979-0.067
				c0.519,0,2.628,0.05,2.996,0.067v-0.601l-0.64-0.001c-1.679,0-1.679-0.217-1.679-0.768"/>
		</g>
		<g>
			<defs>
				<rect id="SVGID_11_" x="328.297" y="118.965" width="20" height="22"/>
			</defs>
			<clipPath id="SVGID_12_">
				<use xlink:href="#SVGID_11_"  overflow="visible"/>
			</clipPath>
			<path clip-path="url(#SVGID_12_)" d="M336.614,123.866c0,0.023-0.914,1.147-1.972,1.147c-0.551,0-1.151-0.358-1.562-0.597
				c-0.648-0.383-1.081-0.55-1.489-0.55c-0.913,0-1.37,0.521-2.595,1.845l0.384,0.355c0-0.024,0.914-1.148,1.971-1.148
				c0.554,0,1.153,0.36,1.562,0.598c0.648,0.381,1.081,0.55,1.489,0.55c0.912,0,1.369-0.521,2.597-1.846"/>
			<path clip-path="url(#SVGID_12_)" d="M337.198,129.564l-1.899,0l-0.001,6.962c0.001,1.8-1.33,2.64-2.849,2.639
				c-1.686,0-1.852-0.624-1.852-1.656l0.001-7.944h-1.9v8.026c0,1.726,0.552,2.874,2.545,2.874c1.272,0,2.977-0.382,4.153-1.413
				v1.15l1.803,0"/>
			<path clip-path="url(#SVGID_12_)" d="M347.598,127.318h-0.564c-0.051,0.373-0.217,1.375-0.433,1.545
				c-0.131,0.102-1.409,0.102-1.64,0.102l-3.052,0c1.741-1.558,2.321-2.027,3.316-2.814c1.227-0.988,2.372-2.027,2.372-3.617
				c0-2.028-1.775-3.27-3.918-3.269c-2.076,0-3.481,1.446-3.481,2.972c-0.001,0.846,0.729,0.929,0.899,0.929
				c0.408,0,0.9-0.289,0.9-0.9c0-0.305-0.113-0.899-0.958-0.899c0.516-1.146,1.646-1.5,2.428-1.5c1.663,0,2.531,1.305,2.531,2.658
				c-0.001,1.456-1.045,2.608-1.582,3.21l-4.049,3.979c-0.169,0.15-0.169,0.184-0.168,0.653l6.897,0"/>
		</g>
		<g>
			<defs>
				<rect id="SVGID_13_" x="396.103" y="6.38" width="22" height="22"/>
			</defs>
			<clipPath id="SVGID_14_">
				<use xlink:href="#SVGID_13_"  overflow="visible"/>
			</clipPath>
			<path clip-path="url(#SVGID_14_)" d="M407.519,11.58c0,0.023-0.912,1.148-1.97,1.148c-0.553,0-1.153-0.359-1.562-0.598
				c-0.649-0.383-1.081-0.55-1.488-0.549c-0.913,0-1.37,0.521-2.596,1.845l0.384,0.355c0-0.025,0.913-1.148,1.971-1.148
				c0.553,0,1.153,0.359,1.562,0.599c0.648,0.381,1.081,0.55,1.489,0.55c0.913,0,1.37-0.522,2.596-1.847"/>
			<path clip-path="url(#SVGID_14_)" d="M404.288,20.337c0.144-0.629,0.693-2.857,2.368-2.857c0.118-0.001,0.692,0,1.195,0.4
				c-0.67,0.119-1.149,0.708-1.15,1.276c0.001,0.377,0.265,0.826,0.91,0.826c0.526,0,1.292-0.436,1.292-1.403
				c0-1.259-1.395-1.597-2.201-1.597c-1.391,0-2.23,1.288-2.518,1.847c-0.6-1.605-1.893-1.847-2.589-1.847
				c-2.493,0-3.859,3.108-3.858,3.71c-0.001,0.242,0.238,0.241,0.285,0.241c0.192,0.001,0.264-0.048,0.312-0.266
				c0.812-2.578,2.391-3.185,3.203-3.185c0.454,0,1.291,0.219,1.291,1.622c0,0.75-0.406,2.372-1.291,5.76
				c-0.382,1.5-1.22,2.517-2.271,2.517c-0.144,0-0.693,0-1.195-0.4c0.601-0.119,1.13-0.614,1.13-1.275
				c0-0.637-0.526-0.826-0.885-0.826c-0.718,0-1.316,0.63-1.316,1.404c0,1.112,1.194,1.596,2.246,1.596
				c1.577,0,2.438-1.708,2.511-1.855c0.286,0.904,1.146,1.856,2.579,1.855c2.461,0,3.824-3.114,3.824-3.716
				c0-0.242-0.215-0.241-0.288-0.241c-0.214,0-0.262,0.097-0.31,0.269c-0.79,2.605-2.415,3.19-3.18,3.19
				c-0.933,0-1.315-0.775-1.315-1.598c0-0.533,0.145-1.065,0.407-2.13"/>
			<path clip-path="url(#SVGID_14_)" d="M415.603,7.149c-0.001-0.452-0.034-0.47-0.501-0.47c-1.069,1.082-2.589,1.101-3.274,1.1v0.6
				c0.41,0,1.535,0,2.476-0.508v8.538c0.001,0.553,0,0.77-1.709,0.77l-0.649,0v0.601c0.304-0.017,2.36-0.067,2.98-0.067
				c0.518,0,2.627,0.05,2.995,0.068V17.18h-0.64c-1.679,0-1.679-0.218-1.679-0.769"/>
		</g>
		<g>
			<defs>
				<rect id="SVGID_15_" x="535.88" y="291.954" width="22.944" height="22"/>
			</defs>
			<clipPath id="SVGID_16_">
				<use xlink:href="#SVGID_15_"  overflow="visible"/>
			</clipPath>
			<path clip-path="url(#SVGID_16_)" d="M547.296,297.154c0.001,0.023-0.913,1.146-1.97,1.147c-0.552-0.001-1.153-0.358-1.562-0.598
				c-0.649-0.384-1.082-0.55-1.49-0.551c-0.912,0.001-1.369,0.521-2.595,1.847l0.383,0.355c0.001-0.024,0.915-1.148,1.972-1.149
				c0.553,0,1.153,0.36,1.562,0.6c0.648,0.381,1.081,0.55,1.489,0.55c0.913,0,1.37-0.521,2.596-1.848"/>
			<path clip-path="url(#SVGID_16_)" d="M544.065,305.911c0.144-0.629,0.693-2.857,2.367-2.857c0.12,0,0.693,0,1.196,0.4
				c-0.67,0.117-1.149,0.708-1.149,1.275c0,0.377,0.263,0.826,0.909,0.827c0.526-0.001,1.292-0.437,1.292-1.405
				c0-1.258-1.396-1.596-2.201-1.597c-1.391,0-2.229,1.289-2.518,1.848c-0.6-1.604-1.893-1.847-2.589-1.847
				c-2.493,0-3.859,3.108-3.859,3.711c0.001,0.241,0.239,0.241,0.287,0.24c0.191,0.001,0.263-0.048,0.312-0.267
				c0.812-2.578,2.391-3.185,3.203-3.186c0.453,0.001,1.291,0.22,1.291,1.622c-0.001,0.751-0.405,2.373-1.291,5.762
				c-0.382,1.5-1.22,2.517-2.27,2.518c-0.145-0.001-0.693-0.001-1.197-0.401c0.602-0.118,1.131-0.613,1.131-1.275
				c0-0.636-0.527-0.825-0.885-0.826c-0.718,0.001-1.316,0.631-1.316,1.405c0,1.111,1.195,1.596,2.246,1.595
				c1.577,0.001,2.438-1.708,2.51-1.855c0.287,0.904,1.146,1.856,2.58,1.855c2.461,0.001,3.824-3.113,3.824-3.716
				c-0.001-0.241-0.215-0.242-0.287-0.241c-0.215,0-0.262,0.098-0.312,0.269c-0.788,2.604-2.414,3.19-3.179,3.19
				c-0.934,0-1.315-0.774-1.315-1.598c0-0.532,0.145-1.066,0.407-2.13"/>
			<path clip-path="url(#SVGID_16_)" d="M558.18,300.307l-0.564,0.001c-0.05,0.372-0.216,1.374-0.432,1.545
				c-0.132,0.102-1.409,0.101-1.641,0.102h-3.051c1.741-1.558,2.32-2.027,3.315-2.814c1.228-0.987,2.372-2.027,2.372-3.617
				c0-2.028-1.774-3.27-3.918-3.27c-2.077,0.001-3.481,1.446-3.481,2.973c0,0.846,0.729,0.929,0.898,0.929
				c0.409,0,0.902-0.29,0.902-0.9c0.001-0.306-0.115-0.899-0.959-0.899c0.516-1.146,1.646-1.5,2.429-1.5
				c1.663,0,2.53,1.305,2.53,2.657c0,1.455-1.044,2.609-1.581,3.211l-4.051,3.979c-0.167,0.15-0.167,0.184-0.167,0.652h6.897"/>
		</g>
	</g>
	<g>
		<defs>
			<rect id="SVGID_17_" x="491.989" y="104.589" width="13" height="11"/>
		</defs>
		<clipPath id="SVGID_18_">
			<use xlink:href="#SVGID_17_"  overflow="visible"/>
		</clipPath>
		<path clip-path="url(#SVGID_18_)" d="M499.765,113.85c0.263,1.004,1.098,1.64,2.123,1.64c0.837,0,1.385-0.556,1.767-1.328
			c0.406-0.869,0.718-2.342,0.718-2.39c0-0.24-0.216-0.24-0.288-0.24c-0.239,0-0.263,0.098-0.335,0.438
			c-0.335,1.364-0.79,3.021-1.796,3.021c-0.503,0-0.742-0.313-0.742-1.107c0-0.529,0.288-1.66,0.479-2.502
			c0.216-0.866,0.455-1.731,0.67-2.598c0.072-0.361,0.311-1.275,0.407-1.637c0.12-0.553,0.358-1.467,0.358-1.611
			c0-0.434-0.335-0.652-0.693-0.652c-0.12,0-0.742,0.026-0.935,0.844c-0.455,1.757-1.508,5.966-1.795,7.241
			c-0.024,0.096-0.981,2.021-2.729,2.021c-1.245,0-1.484-1.086-1.484-1.979c0-1.351,0.67-3.257,1.292-4.922
			c0.287-0.723,0.407-1.062,0.407-1.521c0-1.086-0.765-1.979-1.957-1.979c-2.267,0-3.149,3.495-3.149,3.712
			c0,0.241,0.241,0.241,0.289,0.241c0.241,0,0.266-0.049,0.385-0.438c0.603-2.115,1.517-3.015,2.431-3.015
			c0.217,0,0.602,0.026,0.602,0.798c0,0.579-0.264,1.279-0.407,1.641c-0.888,2.39-1.392,3.885-1.392,5.066
			c0,2.292,1.647,2.895,2.935,2.895C498.5,115.487,499.359,114.387,499.765,113.85"/>
	</g>
</g>
</svg>
