<?xml version="1.0" encoding="utf-8"?>
<!-- Generator: Adobe Illustrator 14.0.0, SVG Export Plug-In . SVG Version: 6.00 Build 43363)  -->
<!DOCTYPE svg PUBLIC "-//W3C//DTD SVG 1.1//EN" "http://www.w3.org/Graphics/SVG/1.1/DTD/svg11.dtd">
<svg version="1.1" id="Layer_1" xmlns="http://www.w3.org/2000/svg" xmlns:xlink="http://www.w3.org/1999/xlink" x="0px" y="0px"
	 width="518.333px" height="285px" viewBox="0 0 518.333 285" enable-background="new 0 0 518.333 285" xml:space="preserve">
<metadata><?xpacket begin="﻿" id="W5M0MpCehiHzreSzNTczkc9d"?>
<x:xmpmeta xmlns:x="adobe:ns:meta/" x:xmptk="Adobe XMP Core 4.2.2-c063 53.352624, 2008/07/30-18:05:41        ">
   <rdf:RDF xmlns:rdf="http://www.w3.org/1999/02/22-rdf-syntax-ns#">
      <rdf:Description rdf:about=""
            xmlns:xmp="http://ns.adobe.com/xap/1.0/"
            xmlns:xmpGImg="http://ns.adobe.com/xap/1.0/g/img/">
         <xmp:CreateDate>2012-10-21T20:19:25-07:00</xmp:CreateDate>
         <xmp:ModifyDate>2012-10-21T20:19:25-07:00</xmp:ModifyDate>
         <xmp:CreatorTool>Adobe Illustrator CS4</xmp:CreatorTool>
         <xmp:MetadataDate>2012-10-21T20:19:25-07:00</xmp:MetadataDate>
         <xmp:Thumbnails>
            <rdf:Alt>
               <rdf:li rdf:parseType="Resource">
                  <xmpGImg:width>256</xmpGImg:width>
                  <xmpGImg:height>144</xmpGImg:height>
                  <xmpGImg:format>JPEG</xmpGImg:format>
                  <xmpGImg:image>/9j/4AAQSkZJRgABAgEASABIAAD/7QAsUGhvdG9zaG9wIDMuMAA4QklNA+0AAAAAABAASAAAAAEA&#xA;AQBIAAAAAQAB/+4ADkFkb2JlAGTAAAAAAf/bAIQABgQEBAUEBgUFBgkGBQYJCwgGBggLDAoKCwoK&#xA;DBAMDAwMDAwQDA4PEA8ODBMTFBQTExwbGxscHx8fHx8fHx8fHwEHBwcNDA0YEBAYGhURFRofHx8f&#xA;Hx8fHx8fHx8fHx8fHx8fHx8fHx8fHx8fHx8fHx8fHx8fHx8fHx8fHx8fHx8f/8AAEQgAkAEAAwER&#xA;AAIRAQMRAf/EAaIAAAAHAQEBAQEAAAAAAAAAAAQFAwIGAQAHCAkKCwEAAgIDAQEBAQEAAAAAAAAA&#xA;AQACAwQFBgcICQoLEAACAQMDAgQCBgcDBAIGAnMBAgMRBAAFIRIxQVEGE2EicYEUMpGhBxWxQiPB&#xA;UtHhMxZi8CRygvElQzRTkqKyY3PCNUQnk6OzNhdUZHTD0uIIJoMJChgZhJRFRqS0VtNVKBry4/PE&#xA;1OT0ZXWFlaW1xdXl9WZ2hpamtsbW5vY3R1dnd4eXp7fH1+f3OEhYaHiImKi4yNjo+Ck5SVlpeYmZ&#xA;qbnJ2en5KjpKWmp6ipqqusra6voRAAICAQIDBQUEBQYECAMDbQEAAhEDBCESMUEFURNhIgZxgZEy&#xA;obHwFMHR4SNCFVJicvEzJDRDghaSUyWiY7LCB3PSNeJEgxdUkwgJChgZJjZFGidkdFU38qOzwygp&#xA;0+PzhJSktMTU5PRldYWVpbXF1eX1RlZmdoaWprbG1ub2R1dnd4eXp7fH1+f3OEhYaHiImKi4yNjo&#xA;+DlJWWl5iZmpucnZ6fkqOkpaanqKmqq6ytrq+v/aAAwDAQACEQMRAD8A9U4q7FXYq7FWmZVUsxCq&#xA;oqzHYADucVefh778xbmVEZ7b8vYiYzLGzRzayw2YI6kMliOlRvN/xj+2qz+KKKKJIokWOKNQscag&#xA;KqqooAANgAMVXYq7FXYq7FXYq7FXYq7FXYq7FXYq7FXYq7FUDruuaZoWk3Oq6nN6FlarylehYmpo&#xA;qqqgszMxCqqipJoMVY3ouhavrupweZvNCPb+g3qaH5d5Ax2YIos9zx2luyp8SkVeK1NXKrMsVdir&#xA;sVdirsVdirsVdirsVdirsVdirsVYP5iabzjrkvlK0kZPL9hwbzXdRkgzM4Dx6YjDp6iEPcEdIyE/&#xA;bNFWbQwxQxJDCixxRqEjjQBVVVFAqgbAAYquxV2KuxV2KuxV2KuxV2KuxV2KuxV2KuxV2KuJCgkm&#xA;gG5J6AYqwXQo/wDG2txeabpa+W9Mkb/C1q32biVao+qSL3B3W2B6L+86svFVnWKuxV2KuxV2KuxV&#xA;2KuxV2KuxV2KuxV2KpB528w3Oi6Ov6PjWfW9RmSw0a2evF7uevFnpv6cSq0sn+QrYqifKvly18u6&#xA;JBpkDtO68pbu8k/vbm5lYvPcS/5csjFj4dBsMVV7fV0vPq8lhC91Z3AkIvlKrCoT7J+MiR1kP2Gj&#xA;RlI3rSlVV0Cay/1Z7iWCHjyN1BEjScqk8FSVilAo6nhufDpirorC7QW4bUrmX0WYyF1tx6wY1Cyc&#xA;YVoF7cOJ8a4q6Oz1CIRBb95uMheU3EcbFkO3AeksIWnY0PvXFXLNqsRjWeBLnnKUaS3IThGacXZJ&#xA;W7ftBWJ8K9MVVrS9gu4vUh5heTKVljeJwVNDVJFRvwxVXxV2KuxV2KuxV2KuxV2KuxVhnniSfXNS&#xA;s/I1pI0aajGbvzDPGSrRaWjcDEGFKPeSfuV78BIRuuKsxhhihiSGFFjijUJHGgCqqqKBVA2AAxVd&#xA;irsVdirsVdirsVdirsVdirsVdirsVdirA7O7XWPPWoa4Inu7Xy9y0bR7aLgS91IyHUbkcmVaR1jg&#xA;5H7PGQftUxVlsemGSVZtRkW7mhneazohjSIMOKAJybkyr+229SacQaBVH4q7FXYq7FXYqoXFhZ3E&#xA;0FxLCj3FsWNtOVBeIuOLFGI2qOvjiqEiurjT/Tt9Rk9W3WMV1iVoYlaUyiNI5EBSkj814lF4sa7L&#xA;8IKqZYq7FXYq7FXYq7FXYqpXV1b2lrNdXMixW1ujSzSsaKiICzMT4ACuKsX/AC5sriXTrrzPfRNF&#xA;qfmeUX8kUn24bTjxsrY06enb8Sw/nZz3xVluKrJLiCJkSSRUaSvpqzAFuI5GgPWgFTiqBfzFoi28&#xA;Vwt5HLbz8vRmhPqo3CgajR8htXFVZdX0symH63CJli+sNCZFDrDt+8ZCeQX4huRiqLBBFRuD0OKu&#xA;xV2KuxV2KuxV2KuxV2KpD5681Q+V/K19rDL6txEnCwtR9qe7k+C3hWnd5CB7DftiqzyL5UXy35cs&#xA;bKYpPqiQIuo36ijTzlmllcnrRppZH+bE9zirIcVdirsVdirsVdirsVU7m2t7q3ltrmJJ7eZTHNDI&#xA;odHRhRlZWqCCOoOKoSCae2vfqdzI9wLlpZbSURBUjjXh+5kdTxLAseB4rVRTdlLFVH4q7FXYq7FX&#xA;Yq7FWIfmODqNtpflRN/8R3i296v/AGr4FNxe1/yZI4/Q+cgxVlE97aW0kEMsqJNcEpbQkgNIyqWK&#xA;oCRWiiuKoaKLUrz0Zrl2soWjcTaehUyFnqF5zqdiq9o6Ub9thiqtbaZYW/pGOIGSFSkc8hMswVjV&#xA;gZZC0hqdzVsVRWKtOiOjI6hkYEMpFQQdiCDiqCbR7RSGtS9nIkBt4DAxWONd+JEG8BKE1Xkhpiqm&#xA;1/c2A/3J+n9Tit/VuNWBWKJXVqMrxMzMgKkMGBYfarxoOSqYqysoZSGVhVWG4IPcYq3irsVdirsV&#xA;dirsVYD5qL6z5x8taSTOlr9dlu57WUKkUkOkATGdV+03+my2qhm6cSV2bkVWfYq7FXYq7FXYq7FX&#xA;Yq7FXYqoXtot3avAZJIeVCssLcXVlIZWU7jYjoQQehBGKt2U809rHLNA1tMw/eQMQSrA0IqNmFRs&#xA;e43xVWxV2KuxV2KuxVhIuZbr8xtXv44Hux5c0+3020gQiputSkFxcipoFpFFakt2BOKsutrP0Xkk&#xA;kla4ld3dZJONUVyP3aUA4oAqj3pU1O+KojFXYq7FXYq7FXEAih3B6jFUvZJdPnDRLNcWtzLFF6CB&#xA;OFqoQpzRQA3pkhAwFeNS3SuKphirsVdirsVdiqH1C5a2spp0ikndFJSGFeUjMdlCjfqe52HU7Yqx&#xA;TRLND+Yl6ivJLF5f0Wx06CaZi8jPdSyyzl3O5YpbQEnucVZnirsVdirsVdirsVdirsVdirsVQNtC&#xA;bfVLsJAwivONy9zy5KZlVYWTj1WkccZHY79Kbqo7FXYq7FXYq4kAEnoN9hU/cMVea/kvfWfmSz1r&#xA;zj9Ulhn1LV78Wklwkkcn1VTFBH8L/DUx2sasUrunGvw0Cr0rFXYq7FXYq7FXYq7FWnRHRkdQyMCG&#xA;UioIOxBBxVA6YotS2miIQ29qqJYfvPUZ4FRRUhjzBV6rv2pvvQKo/FXYq7FXYqgtT4u1lbsJqT3K&#xA;fHDsFMKtcD1DQ0RjDxPjWnfFUg8kAzaz5yvz1uNa9KM+EdpY2tvTr/vyNz9PhTFUu1r8yLu5v7jS&#xA;fJ1tFqFzauYb/WLksNPtpV+1EOBD3My/tJGQF/adTtk4QJVJX0bX7489a80andSH7UVlL+i4F9kW&#xA;z9Oan+vMx98vGEK0PK7RHlZa7rlrL2k/St7dUI6HheyXUf3rhOKKUXB5t88+Xm56oo80aMv97PbR&#xA;JBqkQ7uYU4wXIA6iNY28FY7ZVLCRyQ9A0bWtK1vTLfVNKuUvLC6XlBcRmqkVoRvuCpFGU7g7HfKV&#xA;RuKuxV2KuxV2KoO7iH6QsLhYXkkVpITIrUEcckZdi4/aBaJFp4kHFUZirsVdirsVQGvXclppNxOk&#xA;fq8FHNOYipGSBI3Oq04JVtjXbbfFUh/LdLbR/wArfLr3kkdtDb6TbXF5M5CRIWgWWZizceKhmY1P&#xA;briqQXPn3zT5jJ/wtCmkaIfsa5fxM9xcL/PaWbcOCHtJP1/32RvlsMRKoNvLV1cN6mpeYtbvZj9p&#xA;11GexUnx9PTjZxj6Fy0YopbTQNUtG9TSPMus2Mo+yJrt9SjPsyaj9bqD7EHwIxOEITLTvzG1jRp4&#xA;7XztBCLGRhHF5lsQ62oZjxUXsDl2tqmn7wO8depTKZ4yFeiKysoZSGVhVWG4IPcZWreKuxV2KoG+&#xA;hK3lnexW6yzRs1u8hbiyQT8S5WpCn95HGSPAbb4qjsVdirsVdiqDv2RbrTgzyoWuGCrF9lz9XlPG&#xA;X/IoK/6wXFXkra1fz6bceV9Jme1vdd1nXptTvojSW10621Se1kZH/ZmnaMRxH9kcmG6DJwjZVkOn&#xA;6fZadYwWNjCtvZ2yCOCBBRVRRQAZlgJRGFXYqpS3VtDy9WZI+ADPzYLQMeKk16VOwxVKbW7byf5o&#xA;i1WA8fL+u3EdtrlsPsQ3cxEVvfoOi8nKxT+IKufsmtGWHVD1jMdXYq7FXYq7FUDqEcr3emMn2Y7l&#xA;ml+Lj8P1aZen7XxMNvp7YqjsVdirsVdirFPzOZo/J2pTiD1fq9pfTeqWosJSwuCsrLQhxyotD3IP&#xA;bFWGX0g8zXtroIqfK3lqK2ivICTxvdRWJJFik/nhtUKsV6NId/7ve7FC91ZDmSl2KuxVZNDFNE8M&#xA;yLJDIpSSNwGVlYUKsDsQRiqH/LzUJ9B1tvJVzI0mlzQtd+WJZCWaOKIhbiwLk1Ig5q8Nd/TJX/de&#xA;YmSFFD0jK1dirsVQWtQpLpdzyt2ujGvrR2yNxd5ISJI1Vuzc0FDiqNxV2KuxV2KoLWJBDarcNM8C&#xA;QTRPI0Y5VTmAwYD9nid/Dr2pirxb8t7aVtW8631xRpP8R6rZWrdxaw3886r/AMj7uY/TmThGys5y&#xA;5LsVdUHpirALvydY6x+Zd7PqFg0+mQaXR5JlYRy3V83pNwbavpW9qB8J+EvXqa5Xw3JDLtW0Oz1D&#xA;y/daIUEdpcWz2iqooEVk4Lx8OPbwyZG1JZj5D1i41ryToOrXP+9V9p9tPdDwmeJTKPoeuYKE9xV2&#xA;KuxV2KoK5jM2p2SmBZIoBLceuW+KOXj6SBUrU80lk36CnuMVRuKuxV2KuxVhP5yR+p+XWuoEleRt&#xA;N1NY/SICBjpd0KzV/Y7f63HFWL/l/G48n6ZdS73WpRfpO9bqWuL8m6mJPf8AeSnMyAoBLIcmrsVd&#xA;irsVSLzWxtP0NrKNwm0jVrGfmNv3M8ws7kV8DbXMntleUelXrWYiHYq7FUDrnE6PeoyzOskLxlba&#xA;gm/eDh+7J2DfFsT0xVHYq7FXYq7FVssfqRPHyZealeSmjCopUHscVeGeSbkaZq/nDR7qV5tRi8xT&#xA;tRojG8n12JLhZeI5AI59Rga/ZGZWE7KyyKDUT6Ek90BItfXiijAiepqKcuTggbV5b+HhalfZXEsk&#xA;YS5WOO9QAzwxvzC1JCsDRTRuNRUYql1h5O8uWELQ2lp6cbySTMvqStV5nMjmrMerMTkeEIRP+HtH&#xA;/wCWf/h3/wCasNBVG80nQbO0nu54eEFvG0src32RFLMfteAwUFZb+V9nNZ/lx5Zt514TLplqZYz+&#xA;wzQqzJ/sSaZhKyfFXYq7FXYqgLCNZb27vzEgaX04LedH5mS3iXkpNCVH72WWlO1K4qj8VdirsVdi&#xA;qReetI/THk7WNNMksS3NrIrmDeRlA5NGAKVEgHAjuDTFXnX5aaimofl/5euVYs31CCKYnqJoEEUo&#xA;PykRhmbA7BLJckrsVdirsVSDzqDNpVtYLvLqWo6fZxr4ia8iEh7/AGYg7H2GV5T6VeuZiIdirsVQ&#xA;OouJJ7SyEk0cksgn5Q1HwWzLIwdtqIx4oR3rTpXFUdirsVdirsVWTzwQQvNPIsUMYLSSuQqqo6ks&#xA;dgMVeK/m3q9j5P8AOll545XD6NeRxaP5mSCGRo0ajzWN3zCcH4eo6SfHWjJQE7GzHOirJk1K0YwA&#xA;l4zcBmiEsckRPAVYEOq8TQVo29MyrSp2M0V1dT3lu0Eto6JFHcRHk7PE8gkVmHw8ULfD78sKo7FX&#xA;Yqx/X7Z/MWpWvku2+IagFm11x0h0tW/ehj2a64+gnzZv2TlWWVCkIbS/zB1bzZpOtjy/5mi07zra&#xA;3F3bad5QK2YEYtJGjjWSO4j+sSc0Xm7o6qDtQcSDiq9khR0iRHcyuqgNIQAWIG7EKAN/bFV2KuxV&#xA;BX93KJI7KzkhF/LSURzFv950kRZnAWhqFf4dxvTFUTa21va20VrbxiK3gRYoYl2VUQcVUewAxVUx&#xA;V2KuxV2KuxV4bBdQ+S/zMvvJF20rWnmKWbXPLU5UmNTOzyXlmWoApjlR5EpX4W3NaVvwz6KzXMhL&#xA;sVdirsVYdq2uXKy6x5vs7Y3ul+QbW6mgjFfTudYaExkbdY7SGRvUI/afbdDmNmleyGSeV9Z1TXz5&#xA;f1Dy551TzFYPMv8AiWNI7ACKJreWZSscUaTQFp0SLhIzMFb+YFspV6VirsVS/Sy9y8up87hYrtUS&#xA;G0nHARpEzgOI+oMvLkS3xceIIFKYqmGKuxV2KoW+v4rYxwhka9uuaWVu7FRLIiNJxLKrlVou7cTT&#xA;FUDfaVeXGm3LvcrFqc1qqCVqyWkEyDkJY4JPg+CT4wWBOwqaYq8f07XfMmtad5Eae+l1VfN2p3qT&#xA;6LcrC9q3lxVn5fWEKcpWSH0W9RzXkeJ67qr9W8sa9+WsiLa21zr/AJENyi6bbW00zanYPNULbmMl&#xA;Uu7fnRYgW51YLRzSt0MtbFUTpHmzyZeinl7VbWO4tkkiGiO62Y58q0ltpEE0RDk7hB13rlwkDyVO&#xA;pvNXly3tmuLzU7S0SPab1riFfTYAMVY8qVAI75LiCULbaxrnmP8AceTrBponoG1++jeDTogf2o+Q&#xA;WW6anQRDge7rlUsoHJDJ/wDCV/5Y8mavH5Z5ah5tv42ZtTuCiyz3kg9NJpGI4JHDyqqAcVUUAPfH&#xA;JtUt17yivmXzboN+PLK6Ve6RfRajfeYZhbesywKQLWF4HeWX1WI5cwFCj+agAV6PirsVQ19e/Vox&#xA;6cL3M7ECO2i48yCwUt8RUBVrViT+NBirrK0eAO80v1i5lYl5iqoePIlIwFH2E5UWpJ7kkk4qicVd&#xA;irsVdirsVYH+bup6/p+laWdE1H9H399qVlp9mAitzuLq6iUF+dQ0SQCYsn7W24pirHLXy0vnrXPO&#xA;/lnWr6+vNB0W901tE1cSRpdW2ppbmW7NrPGgCmNmj+HjRSzACmwVSm38x+cfKca2P5gWJlEUbSHX&#xA;tMH1mP0kdo/VvLaANNAH4AiQJwPLfg1VGRDN3qyPTPNfljVYBPpurWd5Ef2oZ43p7GjbH2OXCQKV&#xA;uo+bvK+m8Re6rawyOaRwmVWlc/yxxKS7n2UE4DIBVttpvm3zefQs4bny35ffa41a5Qw6jMh6rZ27&#xA;jnByH+7ZlDD9lD9oUzy9yGU32nal5et/Lek+UtJD6HZTOupWkbxJ/oS20qhFM7DlI9xJG9S3xcTy&#xA;beuUKlXlPyTBD+Yl95wtdCTy5avp36NW1VYI5buR5xM9zNFbF414CNUQs3M1NQABir0LFUrLprAV&#xA;YW5aSRFPHfW068Z2V+Xpj0+R9P4RyPIcvs7iuKppirsVdirsVQGmyG5luL0TtJA7tDBCyBBGIHaO&#xA;QqftN6jqW5VoV40Hcqofzfpeq6t5Z1LS9Kuo7G+v7eS2jvJUaVYhKpRnCKyEsFJ479etemKoTyZ5&#xA;K0by1pdlBb2VpFqFvZw2U95bQiNpEhUKNzV6EryIJ674qyLFWH+Yfy38r6wsSapo1rrNtEkoJugX&#xA;v0rV0W3u3YOq1+EKXFK/aFKFViNn+Vnk7QtWs5fLeryeW7u4So0+eK0vLgNI6pCT9dhuLgKHVkr6&#xA;m5pRuzKsx/Rv5o239zrmk6hGD9i706eGWlehlguynT/in+mKt/pH80YP7zQ9HvVHV7fU7iFyfaKW&#xA;yZf+Sv8AXFW/8X+aYP8AezyVqRHeSzuNOuFG/g9zBIfoQ/dviqw/mdoUFP0nYavpdf2rnS70xjbk&#xA;azQRTQjYV3fFW9N/Mzyjrsy2uiazYySSRyVeWdI5opAeKA2chSc1O/xKoI6HFWR2enQWzGYgS30k&#xA;ccVzfMiLNMIgePMoqDYsxAAABJoN8VRWKuxV2KuxV2KuxVh/nLyTf+ZPMfly6lntW0LRLiS7udMu&#xA;IXla4mkhkgVuQdVX00lJX4T8WKsn03S9N0uzSy021is7SOpS3gRY0BYlmPFQBUk1J7nFV11aR3CH&#xA;cxTcWSK5jC+rHzpUozBqdB2p44qwbzN+VfkPVpprnXfLVvccY0Z9WsRJFfzS1AYyJZpE7fzbM1d/&#xA;h7YqoaJ+XNto0ph8o+ZJNNmEYlewns9PmZUkHwNIvoW94K/5cv8AHFU7+rfmtbCi6hoepgdOdpd2&#xA;LH/WZbi8FfcL9Hiq46z+ZcG0/lnT7kD9qy1VyxG+/C4s7cD5cz88VSi9/NnU7RbFv8Ea3eR3lwLf&#xA;6zp5sb+BADSRi9pczMvA7UkVe++2Kqy/mNoU3oya+b7QlQSLcafd2F4lpIJBxX1Lme0jRuKblUfi&#xA;Cd60GKsn0TzT5V1mMDQ9XsdRQCgWzuIpqAdqRs1KYqm2KuxV2KuxVB6LKJdHsJRO10JLeJhdMvBp&#xA;aoD6hXsW60xVGYq7FXYq7FUv1+KCXSZ0nMQhbiJPXjEsRUuKq6ENUMPh6d8VVI9Kgh4/V5ZoBHD9&#xA;XjRZGZFX9lgknNOa9mp86imKuWxulaMnUbhhHGUZStvR2Nf3jUiB5Cv7NF9sVdHYXCtAX1C4lWFW&#xA;EiMIVEpaoDSFI0IK124FRirrfSNOgMDrF6s1sHWC5nZp51WQ1YCaYvLQ/wCt7Yqt1XQtE1eH0NW0&#xA;+21CDp6V3DHOlP8AVkDDFWPf8qu8uWxLaFNfeXJP2RpV1LDAP+jNzLZmnvDiq1ofzQ0clobix802&#xA;a7+jcL+jb+ntNEJbWRv+eUQ98VRWmfmFodxfRaXqUc+g6zMeMOm6oggeVvC3mDPb3H/PGRvemKsn&#xA;xV2KuxV2KuxV2KuxV2Kqdxa21zG8VxEk0UilHSRQysjfaUg1BBpuMVUP0TYB0dI2hMcP1aNYXeJV&#xA;ipQKFjZV+H9k0qO2KtQ6PpcT28i2sZmtAy207rzljDVDcZH5OK8jXfFUWqqqhVAVVFFUbAAdhire&#xA;KpPrXk3ylrh5axo1lqDinGW4t45HUjcFXZSykeIOKpSfy8Sz+Ly9ruq6KR9mBbk31r/q/V78XSov&#xA;tFwxVptS/MfRhXUNNtvMtmo+K50lvqd4AO5s7qRon268bkHwTtiqZ+X/ADr5b16WS2sbrhqMArc6&#xA;Xco9texdqyW0wSUCv7XHiexOKp5iqC0ifnam3e4N1c2TfVrqVk9NzIig1ZexZWVttjWo2xVG4q7F&#xA;XYq7FUFqb8hBaJJEs9xKlI5hy5xRurzALvv6YIB6AkYqjcVdirsVdirsVdirAvO3lzX1XVPNcfmO&#xA;+trjSYmu9J0u2lWGw9O2i9RorqIjjP67K4ZnPwqRxoVqVU50jSI9d8rcfM1qt8urlryfT7xRKkKT&#xA;HlDBwccQYY+Kmg+0C3U4qlp8v+avKxEvle4fWNFT+88t6hMWmjXev1C9kLOCO0U5ZOweMYqyrRtU&#xA;j1XTIL+OC4tVnBJtryF7eeNlJVlkjcAghgfY9QSCDiqMxV2KuxV2KuxV2KuxV2KuxV2KuxV2KuNa&#xA;GnXtXpXFXmGsaL5t8sy2Oq2mv6hqusa1P+jb20uZA+npNdxv6dxb2vGkCW0yq1FNTFyDcm3xVmmr&#xA;+TPL+s2Fra6pA11LZKBZ6gzst7C6rx9WK6QrLHIe7KwriqSi584+UmAvvW80eXFoPr0UYbVrVelZ&#xA;oYwFu4x3eJRIP5H3OKsnvWntZxep608JVIZbSIBqVkH75QSD8AZuQWpI6AkAFVHAgioNR4jFXYq7&#xA;FVs0qRRPK9eEalmoCxooqaBQSfkMVQdglxNK9/OSFmRPqls8SxyQRsil1c1Zi7uKtvTZRSoJKqOx&#xA;V2KuxV2KuxV2KpZ5n0X9OaBe6OZjbxX8foXEgXkTA5AmQCo+3HyWvatcVTPFXYq7FXYq7FXYq7FX&#xA;Yq7FXYq7FXYq7FXYq7FXYqleqaIdQ1XR71p+EWkTy3QgC19SWS3ktkJauwRJ37daeGKppirsVdiq&#xA;CTSo4Jlexc2cRlea5tokj9OZ5AOTNVSymo5VQipqTWuKuhn1YC3W4tIy7lhcNBLyRAD8LDmsbHl3&#xA;FNvfFXJc6tJ6LLZJEjOwnWaekiRg/CyiNJUdj/LzFPHFWoNMJe3uL+QXl7bNI8MvH00jMo4nhGCw&#xA;FE+EMxLULDl8RxVHYq7FXYq7FXYq7FXYq7FXYq7FXYq7FXYq7FXYq7FXYq7FXYq7FXYq7FXYq7FX&#xA;Yq7FXYq//9k=</xmpGImg:image>
               </rdf:li>
            </rdf:Alt>
         </xmp:Thumbnails>
      </rdf:Description>
      <rdf:Description rdf:about=""
            xmlns:dc="http://purl.org/dc/elements/1.1/">
         <dc:rights>
            <rdf:Alt>
               <rdf:li xml:lang="x-default">This work is licensed under a Creative Commons Attribution-NonCommercial-NoDerivs 3.0 Unported License.</rdf:li>
            </rdf:Alt>
         </dc:rights>
         <dc:title>
            <rdf:Alt>
               <rdf:li xml:lang="x-default">DDG Osculating Circle</rdf:li>
            </rdf:Alt>
         </dc:title>
         <dc:creator>
            <rdf:Seq>
               <rdf:li>Keenan Crane</rdf:li>
            </rdf:Seq>
         </dc:creator>
         <dc:format>image/svg+xml</dc:format>
      </rdf:Description>
      <rdf:Description rdf:about=""
            xmlns:xmpTPg="http://ns.adobe.com/xap/1.0/t/pg/"
            xmlns:stDim="http://ns.adobe.com/xap/1.0/sType/Dimensions#"
            xmlns:xmpG="http://ns.adobe.com/xap/1.0/g/">
         <xmpTPg:MaxPageSize rdf:parseType="Resource">
            <stDim:w>7.199063</stDim:w>
            <stDim:h>3.958333</stDim:h>
            <stDim:unit>Inches</stDim:unit>
         </xmpTPg:MaxPageSize>
         <xmpTPg:HasVisibleOverprint>False</xmpTPg:HasVisibleOverprint>
         <xmpTPg:HasVisibleTransparency>True</xmpTPg:HasVisibleTransparency>
         <xmpTPg:NPages>1</xmpTPg:NPages>
         <xmpTPg:PlateNames>
            <rdf:Seq>
               <rdf:li>Cyan</rdf:li>
               <rdf:li>Magenta</rdf:li>
               <rdf:li>Yellow</rdf:li>
               <rdf:li>Black</rdf:li>
            </rdf:Seq>
         </xmpTPg:PlateNames>
         <xmpTPg:SwatchGroups>
            <rdf:Seq>
               <rdf:li rdf:parseType="Resource">
                  <xmpG:groupName>Default Swatch Group</xmpG:groupName>
                  <xmpG:groupType>0</xmpG:groupType>
               </rdf:li>
            </rdf:Seq>
         </xmpTPg:SwatchGroups>
      </rdf:Description>
      <rdf:Description rdf:about=""
            xmlns:xmpMM="http://ns.adobe.com/xap/1.0/mm/"
            xmlns:stRef="http://ns.adobe.com/xap/1.0/sType/ResourceRef#"
            xmlns:stEvt="http://ns.adobe.com/xap/1.0/sType/ResourceEvent#">
         <xmpMM:DerivedFrom rdf:parseType="Resource">
            <stRef:instanceID>xmp.iid:F77F11740720681197A5D8210BC9AAE2</stRef:instanceID>
            <stRef:documentID>xmp.did:F77F11740720681197A5D8210BC9AAE2</stRef:documentID>
            <stRef:originalDocumentID>xmp.did:F77F11740720681197A5D8210BC9AAE2</stRef:originalDocumentID>
            <stRef:renditionClass>proof:pdf</stRef:renditionClass>
         </xmpMM:DerivedFrom>
         <xmpMM:DocumentID>xmp.did:FB7F11740720681197A5D8210BC9AAE2</xmpMM:DocumentID>
         <xmpMM:InstanceID>xmp.iid:FB7F11740720681197A5D8210BC9AAE2</xmpMM:InstanceID>
         <xmpMM:OriginalDocumentID>xmp.did:F77F11740720681197A5D8210BC9AAE2</xmpMM:OriginalDocumentID>
         <xmpMM:History>
            <rdf:Seq>
               <rdf:li rdf:parseType="Resource">
                  <stEvt:action>saved</stEvt:action>
                  <stEvt:instanceID>xmp.iid:F77F11740720681197A5D8210BC9AAE2</stEvt:instanceID>
                  <stEvt:when>2012-10-21T18:05:32-07:00</stEvt:when>
                  <stEvt:softwareAgent>Adobe Illustrator CS4</stEvt:softwareAgent>
                  <stEvt:changed>/</stEvt:changed>
               </rdf:li>
               <rdf:li rdf:parseType="Resource">
                  <stEvt:action>saved</stEvt:action>
                  <stEvt:instanceID>xmp.iid:FB7F11740720681197A5D8210BC9AAE2</stEvt:instanceID>
                  <stEvt:when>2012-10-21T20:19:25-07:00</stEvt:when>
                  <stEvt:softwareAgent>Adobe Illustrator CS4</stEvt:softwareAgent>
                  <stEvt:changed>/</stEvt:changed>
               </rdf:li>
            </rdf:Seq>
         </xmpMM:History>
         <xmpMM:RenditionClass>proof:pdf</xmpMM:RenditionClass>
      </rdf:Description>
   </rdf:RDF>
</x:xmpmeta>
                                                                                                    
                                                                                                    
                                                                                                    
                                                                                                    
                                                                                                    
                                                                                                    
                                                                                                    
                                                                                                    
                                                                                                    
                                                                                                    
                                                                                                    
                                                                                                    
                                                                                                    
                                                                                                    
                                                                                                    
                                                                                                    
                                                                                                    
                                                                                                    
                                                                                                    
                                                                                                    
                           
<?xpacket end="w"?>
	</metadata>
<path fill="none" stroke="#000000" stroke-width="1.7127" d="M104,7c0,0-59,42-59,144c0,95.102,114.75,37.203,199.977,98.645"/>
<circle fill="none" stroke="#000000" stroke-width="0.8564" stroke-dasharray="4" cx="65.851" cy="179.422" r="14.183"/>
<circle opacity="0.2" fill="#1B1F8A" enable-background="new    " cx="90.963" cy="161.628" r="44.967"/>
<circle fill="none" stroke="#000000" stroke-width="1.713" cx="90.963" cy="161.628" r="44.967"/>
<circle fill="none" stroke="#000000" stroke-width="0.8932" stroke-dasharray="4.1717" cx="376.963" cy="144.628" r="78.967"/>
<circle cx="90.963" cy="161.628" r="1.966"/>
<circle fill="none" stroke="#000000" stroke-width="0.8564" stroke-dasharray="4" cx="56.915" cy="232.381" r="44.966"/>
<path fill="none" stroke="#000000" stroke-width="0.8564" stroke-dasharray="4" d="M222.312,134.153
	c0-51.1-41.424-92.526-92.528-92.526c-51.101,0-92.527,41.427-92.527,92.526c0,51.104,41.427,92.529,92.527,92.529
	C180.889,226.682,222.312,185.258,222.312,134.153z"/>
<circle cx="54.5" cy="187.849" r="2.818"/>
<line fill="none" stroke="#000000" x1="90.963" y1="161.629" x2="135.93" y2="161.629"/>
<path d="M200.06,244.919c1.243-3.666,4.718-3.653,5.069-3.653c4.814,0,5.124,5.549,5.124,8.053c0,1.945-0.142,2.486-0.341,3.123
	c-0.701,2.328-1.658,6.026-1.658,6.855c0,0.352,0.158,0.619,0.414,0.619c0.414,0,0.67-0.718,1.02-1.958
	c0.733-2.679,1.053-4.495,1.18-5.483c0.064-0.414,0.129-0.83,0.256-1.244c1.02-3.154,3.061-7.905,4.336-10.424
	c0.223-0.384,0.605-1.084,0.605-1.212c0-0.319-0.318-0.278-0.383-0.278c-0.096,0-0.287-0.039-0.383,0.184
	c-1.674,3.027-2.96,6.217-4.247,9.438c-0.031-0.987-0.062-3.412-1.269-6.504c-0.766-1.945-2.041-3.467-4.24-3.467
	c-3.985,0-6.217,4.812-6.217,5.793c0,0.319,0.287,0.319,0.605,0.319"/>
<path d="M150.257,179.449c0-0.096-0.064-0.344-0.352-0.344c-0.158,0-0.191,0.033-0.574,0.502l-1.529,1.817
	c-0.829-1.498-2.487-2.319-4.56-2.319c-4.049,0-7.875,3.679-7.875,7.549c0,2.582,1.69,4.05,3.316,4.527l3.411,0.893
	c1.18,0.287,2.998,0.766,2.998,3.379c0,2.869-2.645,5.855-5.805,5.855c-2.039,0-5.578-0.701-5.578-4.645
	c0-0.766,0.158-1.529,0.19-1.723c0.032-0.127,0.063-0.158,0.063-0.223c0-0.318-0.223-0.352-0.383-0.352
	c-0.158,0-0.223,0.031-0.318,0.128c-0.129,0.129-1.913,7.397-1.913,7.491c0,0.191,0.159,0.32,0.351,0.32
	c0.159,0,0.191-0.033,0.574-0.479l1.562-1.817c1.371,1.849,3.539,2.296,5.388,2.296c4.336,0,8.098-4.24,8.098-8.195
	c0-2.198-1.084-3.282-1.562-3.729c-0.733-0.732-1.211-0.861-4.049-1.594c-0.701-0.191-1.85-0.512-2.137-0.574
	c-0.861-0.287-1.982-1.211-1.982-2.9c0-2.582,2.568-5.311,5.617-5.311c2.646,0,4.592,1.376,4.592,4.959
	c0,1.02-0.129,1.594-0.129,1.785c0,0.031,0,0.318,0.384,0.318c0.319,0,0.351-0.097,0.478-0.639"/>
<circle opacity="0.2" fill="#1B1F8A" enable-background="new    " cx="348.463" cy="161.628" r="44.967"/>
<circle fill="none" stroke="#000000" stroke-width="1.713" cx="348.463" cy="161.628" r="44.967"/>
<path d="M407.756,179.449c0-0.096-0.062-0.344-0.352-0.344c-0.158,0-0.191,0.033-0.574,0.502l-1.529,1.817
	c-0.828-1.498-2.486-2.319-4.559-2.319c-4.049,0-7.875,3.679-7.875,7.549c0,2.582,1.689,4.05,3.314,4.527l3.412,0.893
	c1.18,0.287,2.998,0.766,2.998,3.379c0,2.869-2.645,5.855-5.805,5.855c-2.039,0-5.578-0.701-5.578-4.645
	c0-0.766,0.158-1.529,0.189-1.723c0.031-0.127,0.062-0.158,0.062-0.223c0-0.318-0.223-0.352-0.383-0.352
	c-0.158,0-0.223,0.031-0.318,0.128c-0.129,0.129-1.912,7.397-1.912,7.491c0,0.191,0.158,0.32,0.352,0.32
	c0.158,0,0.189-0.033,0.574-0.479l1.561-1.817c1.371,1.849,3.539,2.296,5.389,2.296c4.336,0,8.098-4.24,8.098-8.195
	c0-2.198-1.084-3.282-1.562-3.729c-0.732-0.732-1.211-0.861-4.049-1.594c-0.701-0.191-1.85-0.512-2.137-0.574
	c-0.861-0.287-1.982-1.211-1.982-2.9c0-2.582,2.568-5.311,5.617-5.311c2.646,0,4.592,1.376,4.592,4.959
	c0,1.02-0.129,1.594-0.129,1.785c0,0.031,0,0.318,0.385,0.318c0.318,0,0.352-0.097,0.479-0.639"/>
<path d="M109.15,156.031c-0.097,0.479-0.287,1.211-0.287,1.371c0,0.574,0.446,0.861,0.925,0.861c0.383,0,0.956-0.256,1.18-0.895
	c0.064-0.128,1.148-4.463,1.275-5.037c0.256-1.052,0.829-3.284,1.02-4.145c0.129-0.414,1.021-1.914,1.785-2.614
	c0.256-0.224,1.18-1.013,2.551-1.013c0.83,0,1.308,0.342,1.34,0.342c-0.956,0.16-1.693,0.926-1.693,1.754
	c0,0.51,0.361,1.054,1.247,1.054c0.86,0,1.753-0.709,1.753-1.817c0-1.117-1.02-2.031-2.646-2.031c-2.071,0-3.475,1.535-4.08,2.414
	c-0.256-1.437-1.403-2.414-2.901-2.414c-1.467,0-2.071,1.215-2.358,1.775c-0.574,1.084-0.988,2.997-0.988,3.094
	c0,0.317,0.318,0.317,0.383,0.317c0.318,0,0.352-0.03,0.542-0.731c0.542-2.265,1.18-3.754,2.327-3.754
	c0.542,0,0.988,0.248,0.988,1.427c0,0.67-0.097,1.021-0.511,2.678"/>
<path fill="none" stroke="#000000" stroke-width="1.7127" d="M361.5,7c0,0-59,42-59,144c0,95.102,114.75,37.203,199.977,98.645"/>
<circle cx="312" cy="187.849" r="2.818"/>
<circle cx="306" cy="110.5" r="2.818"/>
<circle cx="407" cy="217" r="2.818"/>
<path d="M457.559,244.919c1.244-3.666,4.719-3.653,5.07-3.653c4.814,0,5.123,5.549,5.123,8.053c0,1.945-0.141,2.486-0.34,3.123
	c-0.701,2.328-1.658,6.026-1.658,6.855c0,0.352,0.158,0.619,0.414,0.619c0.414,0,0.67-0.718,1.02-1.958
	c0.732-2.679,1.053-4.495,1.18-5.483c0.064-0.414,0.129-0.83,0.256-1.244c1.02-3.154,3.061-7.905,4.336-10.424
	c0.223-0.384,0.605-1.084,0.605-1.212c0-0.319-0.318-0.278-0.383-0.278c-0.096,0-0.287-0.039-0.383,0.184
	c-1.674,3.027-2.961,6.217-4.248,9.438c-0.029-0.987-0.061-3.412-1.268-6.504c-0.768-1.945-2.041-3.467-4.24-3.467
	c-3.986,0-6.217,4.812-6.217,5.793c0,0.319,0.287,0.319,0.604,0.319"/>
<g>
	<path d="M46.186,197.711c0.226-0.868,1.094-1.77,1.672-2.253c1.125-0.998,2.057-1.224,2.604-1.224c1.286,0,2.058,1.127,2.058,3.026
		s-1.062,5.601-1.639,6.824c-1.093,2.253-2.636,3.313-3.826,3.313c-2.122,0-2.539-2.672-2.539-2.864c0-0.062,0-0.128,0.095-0.516
		 M40.535,211.722c-0.257,1.097-0.322,1.322-1.737,1.322c-0.386,0-0.74,0-0.74,0.604c0,0.254,0.161,0.382,0.418,0.382
		c0.869,0,1.801-0.096,2.701-0.096c1.062,0,2.155,0.096,3.185,0.096c0.161,0,0.579,0,0.579-0.636c0-0.351-0.322-0.351-0.772-0.351
		c-1.608,0-1.608-0.227-1.608-0.519c0-0.388,1.351-5.658,1.576-6.469c0.418,0.934,1.319,2.06,2.96,2.06
		c3.73,0,7.753-4.704,7.753-9.439c0-3.027-1.835-5.157-4.279-5.157c-1.609,0-3.153,1.177-4.214,2.451
		c-0.321-1.765-1.705-2.451-2.895-2.451c-1.479,0-2.09,1.264-2.38,1.847c-0.578,1.1-0.997,3.042-0.997,3.139
		c0,0.323,0.321,0.323,0.386,0.323c0.322,0,0.354-0.032,0.547-0.742c0.547-2.297,1.19-3.851,2.349-3.851
		c0.545,0,0.996,0.261,0.996,1.487c0,0.741-0.097,1.096-0.226,1.645L40.535,211.722z"/>
</g>
<g>
	<path d="M302.233,197.711c0.227-0.868,1.094-1.77,1.672-2.253c1.125-0.998,2.058-1.224,2.604-1.224
		c1.287,0,2.059,1.127,2.059,3.026s-1.062,5.601-1.64,6.824c-1.093,2.253-2.636,3.313-3.825,3.313c-2.123,0-2.539-2.672-2.539-2.864
		c0-0.062,0-0.128,0.095-0.516 M296.583,211.722c-0.258,1.097-0.322,1.322-1.737,1.322c-0.386,0-0.74,0-0.74,0.604
		c0,0.254,0.161,0.382,0.419,0.382c0.869,0,1.801-0.096,2.701-0.096c1.061,0,2.154,0.096,3.184,0.096c0.161,0,0.579,0,0.579-0.636
		c0-0.351-0.321-0.351-0.772-0.351c-1.608,0-1.608-0.227-1.608-0.519c0-0.388,1.351-5.658,1.576-6.469
		c0.419,0.934,1.319,2.06,2.96,2.06c3.73,0,7.754-4.704,7.754-9.439c0-3.027-1.836-5.157-4.279-5.157
		c-1.609,0-3.153,1.177-4.214,2.451c-0.321-1.765-1.704-2.451-2.896-2.451c-1.479,0-2.09,1.264-2.379,1.847
		c-0.578,1.1-0.997,3.042-0.997,3.139c0,0.323,0.321,0.323,0.386,0.323c0.322,0,0.354-0.032,0.547-0.742
		c0.548-2.297,1.191-3.851,2.35-3.851c0.545,0,0.996,0.261,0.996,1.487c0,0.741-0.098,1.096-0.227,1.645L296.583,211.722z"/>
</g>
</svg>
