<?xml version="1.0" encoding="utf-8"?>
<!-- Generator: Adobe Illustrator 14.0.0, SVG Export Plug-In . SVG Version: 6.00 Build 43363)  -->
<!DOCTYPE svg PUBLIC "-//W3C//DTD SVG 1.1//EN" "http://www.w3.org/Graphics/SVG/1.1/DTD/svg11.dtd" [
	<!ENTITY ns_extend "http://ns.adobe.com/Extensibility/1.0/">
	<!ENTITY ns_ai "http://ns.adobe.com/AdobeIllustrator/10.0/">
	<!ENTITY ns_graphs "http://ns.adobe.com/Graphs/1.0/">
	<!ENTITY ns_vars "http://ns.adobe.com/Variables/1.0/">
	<!ENTITY ns_imrep "http://ns.adobe.com/ImageReplacement/1.0/">
	<!ENTITY ns_sfw "http://ns.adobe.com/SaveForWeb/1.0/">
	<!ENTITY ns_custom "http://ns.adobe.com/GenericCustomNamespace/1.0/">
	<!ENTITY ns_adobe_xpath "http://ns.adobe.com/XPath/1.0/">
]>
<svg version="1.1" id="Layer_1" xmlns:x="&ns_extend;" xmlns:i="&ns_ai;" xmlns:graph="&ns_graphs;"
	 xmlns="http://www.w3.org/2000/svg" xmlns:xlink="http://www.w3.org/1999/xlink" x="0px" y="0px" width="565.667px"
	 height="186.659px" viewBox="0 0 565.667 186.659" enable-background="new 0 0 565.667 186.659" xml:space="preserve">
<metadata><?xpacket begin="﻿" id="W5M0MpCehiHzreSzNTczkc9d"?>
<x:xmpmeta xmlns:x="adobe:ns:meta/" x:xmptk="Adobe XMP Core 4.2.2-c063 53.352624, 2008/07/30-18:05:41        ">
   <rdf:RDF xmlns:rdf="http://www.w3.org/1999/02/22-rdf-syntax-ns#">
      <rdf:Description rdf:about=""
            xmlns:xmp="http://ns.adobe.com/xap/1.0/"
            xmlns:xmpGImg="http://ns.adobe.com/xap/1.0/g/img/">
         <xmp:CreateDate>2011-10-12T20:57:11-07:00</xmp:CreateDate>
         <xmp:CreatorTool>Adobe Illustrator CS4</xmp:CreatorTool>
         <xmp:ModifyDate>2011-10-12T20:57:11-07:00</xmp:ModifyDate>
         <xmp:MetadataDate>2011-10-12T20:57:11-07:00</xmp:MetadataDate>
         <xmp:Thumbnails>
            <rdf:Alt>
               <rdf:li rdf:parseType="Resource">
                  <xmpGImg:width>256</xmpGImg:width>
                  <xmpGImg:height>84</xmpGImg:height>
                  <xmpGImg:format>JPEG</xmpGImg:format>
                  <xmpGImg:image>/9j/4AAQSkZJRgABAgEASABIAAD/7QAsUGhvdG9zaG9wIDMuMAA4QklNA+0AAAAAABAASAAAAAEA&#xA;AQBIAAAAAQAB/+4ADkFkb2JlAGTAAAAAAf/bAIQABgQEBAUEBgUFBgkGBQYJCwgGBggLDAoKCwoK&#xA;DBAMDAwMDAwQDA4PEA8ODBMTFBQTExwbGxscHx8fHx8fHx8fHwEHBwcNDA0YEBAYGhURFRofHx8f&#xA;Hx8fHx8fHx8fHx8fHx8fHx8fHx8fHx8fHx8fHx8fHx8fHx8fHx8fHx8fHx8f/8AAEQgAVAEAAwER&#xA;AAIRAQMRAf/EAaIAAAAHAQEBAQEAAAAAAAAAAAQFAwIGAQAHCAkKCwEAAgIDAQEBAQEAAAAAAAAA&#xA;AQACAwQFBgcICQoLEAACAQMDAgQCBgcDBAIGAnMBAgMRBAAFIRIxQVEGE2EicYEUMpGhBxWxQiPB&#xA;UtHhMxZi8CRygvElQzRTkqKyY3PCNUQnk6OzNhdUZHTD0uIIJoMJChgZhJRFRqS0VtNVKBry4/PE&#xA;1OT0ZXWFlaW1xdXl9WZ2hpamtsbW5vY3R1dnd4eXp7fH1+f3OEhYaHiImKi4yNjo+Ck5SVlpeYmZ&#xA;qbnJ2en5KjpKWmp6ipqqusra6voRAAICAQIDBQUEBQYECAMDbQEAAhEDBCESMUEFURNhIgZxgZEy&#xA;obHwFMHR4SNCFVJicvEzJDRDghaSUyWiY7LCB3PSNeJEgxdUkwgJChgZJjZFGidkdFU38qOzwygp&#xA;0+PzhJSktMTU5PRldYWVpbXF1eX1RlZmdoaWprbG1ub2R1dnd4eXp7fH1+f3OEhYaHiImKi4yNjo&#xA;+DlJWWl5iZmpucnZ6fkqOkpaanqKmqq6ytrq+v/aAAwDAQACEQMRAD8A6N5W017zyxpF3c6nq8lx&#xA;cWVtLNIdW1IFneJWZtrim5OZUccaVNP0FD/1cNW/7i+p/wDZRh8OPclBS6Vx1q1txqWrCGS2uJHT&#xA;9LaluySQBT/vR2Dtj4cbQjf0FD/1cNW/7i+p/wDZRj4ce5Lv0FD/ANXDVv8AuL6n/wBlGPhx7lQW&#xA;iaV9Y0WwuJtS1Z5praGSR/0tqQqzRgk7XHicRjjSFCK88sTafdajH5g1BrCydo7u5Gs6lwidKBlc&#xA;/WNitdx2wcEVSaLX9Hm/MVPKkWraqzyaWL9CNX1LiWMmyf70V5GL4/lg4Y3Sst/QUP8A1cNW/wC4&#xA;vqf/AGUZLw49yUFrmk/V9F1CeHUtWSaG2mkjcatqWzLGSDvceOJxxpD1PTHd9NtHdiztDGWYmpJK&#xA;ipJzEVE4q7FXYq7FXYq7FXYq7FXYq7FXYqkGs+e/K2k3DWlxeibUF66dZo93dCoqOUEAkdAf5mAX&#xA;3wgEqk03nvzHdVGmaEtrGdhPqlwqOPBlt7YXHIezSocsGEqgZbnzpdmt15gNsDsY9MtYYEI6bm6+&#xA;vSfSrDLBhCpN5g0amkXtzNqOp3EsMTTH1NRvAjekOf8AdJKsI+z/ACYTjiAqjb6V+Xt5rF7o66fY&#xA;3epadFDJeRSwpM8aXHP0wWkDHfgTx9we+SAjySj/APBXk3/qw6d/0iQf80YeEdyuHkzyipBj0Wxi&#xA;Ybh4reKNhXrRkVWGPCO5VVPL1rEALa71G1C0Kpb6jexxgin+6lm9Pt3XB4cVRUT+bbUg2nmO4lCi&#xA;iwX8FtcRfSY0t52+mXIHCEKs/n/zTo9sbjVtNtdStkZVabT5HguGaRgiLHaTCVGZmYAD6x1yuWIh&#xA;Ur8lf8oboP8A2zrT/kwmZEeQSnOSVLp/+Uhsv+YS7/5O22DqqY4VdiqXeXP+Ue0v/mEg/wCTS4By&#xA;ViPlrRluvO/macrOmiJeW93b2c0LxQy3/oKs1wvqKvNVaNeNPh51bchSIAblCj+hdJ/5Xv8AWfqk&#xA;X1n9A/W/W4jn6/1r0PV5deXo/u6/y7dMa9XwV6LliUu8x/8AKPap/wAwk/8AyabAeSvRNJ/45Vn/&#xA;AMYIv+IDMFCKxV2KuxV2KuxV2KuxV2KuxViutfmFp1pcy6fpED65q0LcJre2ZVhgfwublv3cRHdB&#xA;yk7hDkowJ5Kxy6TzJrQrr2pNFbsCDpWltJbW9D2lnBFzMR0PxIjDrHl8cIHNWLnzD5d8qT65aWVl&#xA;6dvbLa3hSD0khM16fqkMEYWnFnktyWr4k98nYCp8vmG5kurazi09zfSWZvry2eRA0CkFY4yy80Z5&#xA;JQVX4gtFY8tgCbSlunfmBHqOiWeoWWl3M15e3EtrHpQaEXCNbyNHO0lXCIsZX4qt3A6sAQJbIROp&#xA;6yLqy17S5Yvq95axKhUtyVobxWSGYGg2LB1I/mU9qEknmrEvyW8s2cZ1jznbSzcPMt3cPDFKxkLW&#xA;0U7LBKXer83+NzU78h4ZDGOqvUMtS7FXYq7FUJbWh1fzfpmm05WmmgatqA/ZLIxSyjb/AFpw0y+8&#xA;OUZpbUhIfJ2pXi+UdDVdKunC6fagOrWtGAhXccpwd/cZZE7BU4/Sl9/1Z7v/AIO0/wCq+StKXz6n&#xA;e/p+yP6Ju6i0uhx5WtTWS33/AL+mC90Jh+lL7/qz3f8Awdp/1Xw2l36Uvv8Aqz3f/B2n/VfG1S/y&#xA;9qd6NA0wDSbtgLSABg1rQ/u13FZwcAOyEw/Sl9/1Z7v/AIO0/wCq+G0sEvbzWYPzb/SjeSJtdsjo&#xA;ItVgmlsFCyfXPUMgMsjR7D4acuXtTKMkSTshH6f5m8/Wem21r/gO6/0aFIqjUNNC/AoXYet02ywE&#xA;gclSzy/5/wDOHmHyrqz6x5SurBVtZwl8jxLDKPTb41jnkSQA9RwLj/KwCRI5K+g9J/45Vn/xgi/4&#xA;gMxVRWKuxV2KoLW9YsNE0a+1jUH9Ox063lurpwKkRwoXag7mg2GKqPlzXP03pUeofULvTvULL9Vv&#xA;o1jmHE05UVnUqf2WDEHtiqZ4q7FUBrmvaVodg19qc4ggDBEFC7ySN9mOKNAzySN+yigk4qwTUNR8&#xA;x+ZSRdmXRdEJ+HTYZON5OvjdTxn92D/vqFv9Z2BKjIhi71QflyCHTo59CijWKLTiDaIgCj6rMWaI&#xA;0H8rB4/E8OR65aO5LfnDT9T1Hyvqdhpchhv7q3eKFw3pmrChAcfYJWoDdjvjIbK84h8rcfNR0SXS&#xA;rG2gv9UsdUW0gX1BDYWVqwQOBGsaUmtlQ0Jq0h/ZoWrrekM7gX6l58vS60TUtMtRZU25NYy3HqxK&#xA;TQfCLpGA928Ms6pQf5f+XLzTptc1HU7BLPUdV1Ca5ASRZQsDkFEVl6b1Z9hViTgiEMZ/NLUZxbeZ&#xA;DpzH65dRaTomnuP2tRkupZfTU0PxRxzI5+fjkZnmr0jQ9JttH0ax0m1/3nsLeK2i7ErEgQE+5pvl&#xA;gFJR2FXYq7FVO5uYLa3lubhxFBAjSTSsaKqIOTMT4ADFU2/LrS54dHk1i9haHUtdkF5NFIKPFDxC&#xA;2sBB3UpCFLr/AL8L+OYU5WbQxTyV/wAoboP/AGzrT/kwmZceQSnOSVLp/wDlIbL/AJhLv/k7bYOq&#xA;pjhV2Kpd5c/5R7S/+YSD/k0uAclTHCqXf9ND/wBGn/M3B1VhJ1TWZvzF1HytHrEiWF7HHe2l2tPU&#xA;tzbEC7soGKem0h9SN25ciiMdq0IhZukM019OHlrUkqW42Uw5Mak0iYVJ8cmeSXo2k/8AHKs/+MEX&#xA;/EBmChFYq7FXYq88/PSzi1HyTDorSSRy65qmnaXF6cskQIurpEmDiNk5r9X9Q8WqO9NsVZ7Z2kVp&#xA;bR20TSNHEOKtNLJPIR/lSSs8jH3ZjiqtirsVSDzp5abXNKH1UpFrNg/1rSLl+iXCqV4uRv6cqsY5&#xA;AP2WNN6YQaNqxTS9Uh1DTIr8K0CupM0UvwvDIhKyxyeDRurK3uMzQbFpSe98w6Sms6fd2kxvFmEt&#xA;nN9TSS4X4kMyFmhDrVTCQAf5ifHATuhMxq14T8OkXhXs1bVajxo04YfSMNpQd/qetpdaaq2BQS3D&#xA;JIvrJ8QFvM3E7eKg/RgJKEW2o31V9TRrl3Q1Vle0ZQfs1UtMjdCeww2l3+IdPT/epZ7On22uIJY4&#xA;1/1pivo/8PjasU1Nf8WfmR5d0LQ5LW6h0WKfzFfIZOMLSVFta1liWWjc55H+ya0+nKsk6IQzbT7s&#xA;3dqs5jMRLOpWoYHg5TkrLsytx5Ke4Iy2JsWlEYVYHqfnW4v/ADBpWnaPFdJbrqFyl1eqYFhnj06G&#xA;Q3USh357T8IuRCrWvxbAmsy3Qh9C1PzBfeVNLuri7ulufNl6jRl/SU21pOj3JFuYviQfVY+CljyV&#xA;vixBNe9Uz/MLVdQ8uro/mOC8cWNjexR6jpJZFS6t3BDsWaOWQCE8XkYdErXI5ZUrNNWs9f8ALvk2&#xA;61q51q51LUtMf9K3BYokBhiJe4tkRFSsXoF1T1ORBo9ajMZUj8lf8oboP/bOtP8AkwmZseQSnOSV&#xA;Lp/+Uhsv+YS7/wCTttg6qmOFXYql3lz/AJR7S/8AmEg/5NLgHJUxwqlNzbpcazJA7Oiy2RRmido3&#xA;AMlKq6EMp9wa4OqoY+R/L/8AuJIScPojPJp8guZxIrS19Qu4flJzqeXMmtd8HCFR3mP/AJR7VP8A&#xA;mEn/AOTTYTyV6JpP/HKs/wDjBF/xAZgoRWKuxVSuru1tITNdTJBCv2pZWCKPmzEDFXl/mTzr+WI8&#xA;0Wuq6z54tbnT9MkS6sdFhMc6Q3sUcsHrc7YPI3wXDfA1fiAIO1MVpNP+V5eSZd7CHVdRX+e10y8Y&#xA;UG1fijTvtimnD85LVgGTyh5qdDurrpExBB6Eb98Vpa/51aMiP9Y0HzBYSAf8fWk3ICimztwDfD+O&#xA;K0hPy1/P3yn50uU0qRX0zXjUfU5KtFKV6mGWgqPZ1VvbFaUdR8vaXB551i3nt1njuFg1a0SaskUb&#xA;XBeKcRRuSit6tuZWZVrWTrmRh3CFXXRSzgZdmS7s+J8OVzGjferEZcUplhVLb8iTWdLt+8ZnvK+0&#xA;cfoU/wCnrAeaplhV2KsFb8vPKvmHVb/zJLBLa6nPM0NpqljcTWlwqW49HmHhZASzoxBNarxyswB3&#xA;Qhj5X/M7y3AieWNeh1vT7dAkOk65EolVEWgVLu3ERY7UHNaDHhI5KtsfzZvbd3g8zeWNQ02aAVuJ&#xA;rRfr8KKCR6jrEBcIhIPFjFxPYnHj7wqTadH5I83T3sPk3WC2sWjXgRbqWURwwamfXnkggXjzUTur&#xA;0ajcl4sQKDAKPJWea1o0MemaLY2DpFdafdWq6PDKaCWSJTH6GwP24C68qfD9o7KclKgFZmfy30Se&#xA;HWFvJrq4Ou2hsbsTOjCK3flzitxxKxB+XxU+1QE1IBzFlKzartW8ozSeUbXynZzSTWLmK1vLu7k5&#xA;yrYowaRagAu7xr6SntXkSabxVgfk7QtKk8o6G7wVZ9PtWY8n6mFSe+ZkRsqcf4e0j/ln/wCHf/mr&#xA;JUlL59A0n9P2S+hsbS6JHN+okt/8r3wVuhMP8PaR/wAs/wDw7/8ANWGku/w9pH/LP/w7/wDNWNKl&#xA;/l7QNJbQNMZoKlrSAk836mNf8rABshMP8PaR/wAs/wDw7/8ANWGkpf8AoDSf0/x9D4fqlac36+p/&#xA;rYK3QmH+HtI/5Z/+Hf8A5qw0lL/MOgaSugamywUItJyDzfqI2/ysBGyHpcOo6fpvl+3vdQuYrOzh&#xA;t4jLcTusUajgN2dyAMwlYbJ+cK6tK1t5D0K880yglWv1H1PTUINDyu5wAxHgqmvbFNNL5Z/N7Xjz&#xA;17zNb+XbRvtadoEPOWlf2ry5DMrD/IWmKq9p+Rn5erOt1qttc+YL4dbzWLqa8kPzVmEf/CYrbLtL&#xA;8ueXtJAXS9LtLBR0FrBFCB2/3Wq4oTHFXYqpXVtBdWs1rOvOCdGilSpFUcFWFQQRse2KobSNA0PR&#xA;rf6tpGn22nwd4rWJIVNPEIBXFWG+frWaXzjof1e5a0eTT9RE0kaozMsc9kVH7wOop6jfs98tw81S&#xA;DXNOvxb20aarcPLJd2wjSRLYqeEyytUJFG3wpGW+12zIIVH+n5ki+IT2l0BsImiktyfcyh5x/wAk&#xA;8O6Urttal/T17PqNnLDFYxx2YnhBuYkmcevNQxj1ApjaElnjUbYL3QyK2ura6gWe1mSeB90liYOh&#xA;+TLUHJJQet3c0VvHa2rcb6+f6vasBUoSCXlodv3UYZ99iQF6kYCqMtLWC0tYbW3XhBbosUSdaIgC&#xA;qN/ADCqriqE1HSrLUEQXCH1IiWguEJSWJj+1HItGWvenUbGowEKxG38u+VvKt++sanplp6ql5B5n&#xA;9FTMGevI3LULI7V/vF+Funw1AMaAQ9A8k+X7q5ux5p1iFobiRDHo2nyji1rbSU5SSKelxOAOVd0W&#xA;ibHnyx8k7Ks2ytXYq8p8lf8AKG6D/wBs60/5MJmbHkEpzklS6f8A5SGy/wCYS7/5O22DqqY4Vdiq&#xA;XeXP+Ue0v/mEg/5NLgHJUxwql3/TQ/8ARp/zNwdVTHCqXeY/+Ue1T/mEn/5NNgPJWZzeXtD17QdP&#xA;tNZsYdQtYlhnjguEEiCRI6K3FttgxzBQnEMMMMSQwosUUYCpGgCqoHQADYYqvxV2KuxV2KuxV2Ku&#xA;xV5556N9c+dNMi0+aKGWw025e5aaJphxvZ4BEOKyQkEmzfeuXYRurH7y91n9N2UNxZLcx2KvdyyW&#xA;T8nBZGgjLxTenxVleWgV3aq5fZtUyk8x6Wun3N5G5lNqtZLXiyXHJto4zDIEdXkNAgYCtcNpVtFs&#xA;pbPTo45yGunLTXTAkqZpmMknEnfiGYhfBaDEBVG/0izDyahBMdNu1BeW8jIVGCipNwjfu5FAHVtw&#xA;K8WXriQqU6BqVzPqAvNbh+rXV0no6Q/ErC8BoxK8iWjlnKh2jejcQq/EUY5EHvQyrJpdiqncXFvb&#xA;W8lxcSLDbwqZJZZCFREUVZmY7AAYqt8s6Bc+ZLqDW9WgaHQ7d1m0fTJl4vcSKapeXKMKqq/ahiO4&#xA;+23xcQmLkyXsEPQ8qV2KuxV4z5OvNVXyjoYTTuajT7UK3rIKj0VoaUzMjyVOPrur/wDVt/5Lp/TJ&#xA;WlL573Vv0/ZH9Hb/AFS6oPWTp6lv7YOqEw+u6v8A9W3/AJLp/TDaXfXdX/6tv/JdP6Y2qX+Xr3Vh&#xA;oGmBdO5AWkFD6yCo9NfbAOSEw+u6v/1bf+S6f0w2lL/rurfp+v6O+L6p09ZOnqfLB1QmH13V/wDq&#xA;2/8AJdP6YbSl/mG91Y6BqYbTqA2k9T6yGg9NvbAeSHqmk/8AHKs/+MEX/EBmEqKxV2KuxV2KuxV2&#xA;KuxV2KsW8w+SZ7/VX1nTdTksNTeGO3kSSNLi1kjhZ2jDxnhKOJlenpyr9o1rk4zMVYfbNqGj6tPB&#xA;5ltxZ6hqUypaXaEyWUyovGKGCchSr7M3pSBWLFioYb5fDICqheabaeY9TWR1K2ukuy293GeMrXY2&#xA;JjcfsQkbjdWfqPg3nVqjYNQvLK4jstVIdZSEtdSVeKSMdlSYDaOU9v2WP2aE8cNpUFkXzDMPTNdC&#xA;gerP2vJENQFPeBGG5/3Yf8gfGOapxdWltd2729zGJYZBR0boaGo+kHcHtklS20uJ9NuotMvZHmt5&#xA;fhsL+Q1ZmH+6JmPWSm6t+2OvxCrR5KjdR1Oy021N1eS+nECqLsWZ3c8UREUFnd2NFVQSTsMJNKid&#xA;C8oX+s3MeqeZYPQsImEmn6A9GJZSCk99QlWcEVSIVVPtNyenDGnktDPsqV2KuxV2KvKfJX/KG6D/&#xA;ANs60/5MJmbHkEpzklS6f/lIbL/mEu/+Tttg6qmOFXYql3lz/lHtL/5hIP8Ak0uAclTHCqXf9ND/&#xA;ANGn/M3B1VMcKpd5j/5R7VP+YSf/AJNNgPJXomk/8cqz/wCMEX/EBmChFYq7FXYq7FXYq7FXYq7F&#xA;XYqhtS0zT9UsJ9P1G3S6srlTHPbyqGR1PYg4q80urP8AwVcxaZezf865KCujajKQvo8FLGzuHJ6q&#xA;ikxSH7SghviWr5GPJ0KqE9vL5jiaG5iaHQJAVkhkDJNdg/zD4Wih9j8T9+K/bt5pVtHeWwnGiXLF&#xA;xFHy064brLbpReDH/fkVQG/mBDdeVEdypxklSXUrkaw1xoOlWZ1e/wBluERjHb2rbMr3F0AwhZTR&#xA;lC1k7qu1RXOYCGVeVPIS6ZJDqet3Z1rzBGnFbx0EcMFV4sLWAVWMsPtPu7ePGijGlInmrLcirsVd&#xA;irsVdirynyV/yhug/wDbOtP+TCZmx5BKc5JUun/5SGy/5hLv/k7bYOqpjhV2Kpd5c/5R7S/+YSD/&#xA;AJNLgHJUxwql3/TQ/wDRp/zNwdVTHCqXeY/+Ue1T/mEn/wCTTYDyV6JpP/HKs/8AjBF/xAZgoRWK&#xA;uxV2KuxV2KuxV2KuxV2KuxVLvMOhWOvaNdaTeg+hcpQSLQPHIpDRyxk14yRuodD2YA4qwPRbu7mt&#xA;ZLe/AGqWEr2eohRxUzxbF1B6JKhWVP8AJYZmwlYSluralHqqm18vRyavrVpIJbYWSrJHFMgPwz3D&#xA;FYIQ6ko4eQMVY8RXIzmAhkVl5E13VG9TzJei0sj/ANKbTHcFgR0uL0iOVv8AVhWOn8zDKZZSVZpp&#xA;ul6dpdlFY6dbRWdnCKRW8KBEXvsq0698qVE4q7FXYq7FXYq7FXm0H/Kh/Rj9D9FehxHpcPscKfDx&#xA;ptSnTDuq/wD5Ab/2rMO6rT/yon1Fr+i/VoeP83Go5U9ulcG6rv8AkBv/AGrMO6u/5Ab/ANqzHdVs&#xA;X/KifTT0v0X6VBw4/Z402pTtg3Vd/wAgN/7VmHdVv/ICfU/6Vfq8f9lxr99K4N1Xf8gN/wC1Zh3V&#xA;bL/yon039X9F+lxPPl9njTetdqUwbq9Fg9H0Y/Rp6PEenx+zxptT2pgVfirsVdirsVdirsVdirsV&#xA;dirsVdirzzzB/wAqq/xZffp/n9apB9f+s/Wv0Vz9McPrH/Hl6npcK+tvx45IXXkrOtN/R31CD9Ge&#xA;j+j+A+q/VuPo+nT4fT4fDx8KZFUTirsVdirsVdirsVdirsVf/9k=</xmpGImg:image>
               </rdf:li>
            </rdf:Alt>
         </xmp:Thumbnails>
      </rdf:Description>
      <rdf:Description rdf:about=""
            xmlns:pdf="http://ns.adobe.com/pdf/1.3/">
         <pdf:Producer>Mathematica PDF Export</pdf:Producer>
      </rdf:Description>
      <rdf:Description rdf:about=""
            xmlns:dc="http://purl.org/dc/elements/1.1/">
         <dc:format>image/svg+xml</dc:format>
         <dc:title>
            <rdf:Alt>
               <rdf:li xml:lang="x-default">DDG Conformal Map</rdf:li>
            </rdf:Alt>
         </dc:title>
         <dc:creator>
            <rdf:Seq>
               <rdf:li>Keenan Crane</rdf:li>
            </rdf:Seq>
         </dc:creator>
         <dc:rights>
            <rdf:Alt>
               <rdf:li xml:lang="x-default">This work is licensed under a Creative Commons Attribution-NonCommercial-NoDerivs 3.0 Unported License.</rdf:li>
            </rdf:Alt>
         </dc:rights>
      </rdf:Description>
      <rdf:Description rdf:about=""
            xmlns:xmpTPg="http://ns.adobe.com/xap/1.0/t/pg/"
            xmlns:stDim="http://ns.adobe.com/xap/1.0/sType/Dimensions#"
            xmlns:xmpG="http://ns.adobe.com/xap/1.0/g/">
         <xmpTPg:NPages>1</xmpTPg:NPages>
         <xmpTPg:HasVisibleTransparency>True</xmpTPg:HasVisibleTransparency>
         <xmpTPg:HasVisibleOverprint>False</xmpTPg:HasVisibleOverprint>
         <xmpTPg:MaxPageSize rdf:parseType="Resource">
            <stDim:w>7.856486</stDim:w>
            <stDim:h>2.592482</stDim:h>
            <stDim:unit>Inches</stDim:unit>
         </xmpTPg:MaxPageSize>
         <xmpTPg:PlateNames>
            <rdf:Seq>
               <rdf:li>Cyan</rdf:li>
               <rdf:li>Magenta</rdf:li>
               <rdf:li>Yellow</rdf:li>
               <rdf:li>Black</rdf:li>
            </rdf:Seq>
         </xmpTPg:PlateNames>
         <xmpTPg:SwatchGroups>
            <rdf:Seq>
               <rdf:li rdf:parseType="Resource">
                  <xmpG:groupName>Default Swatch Group</xmpG:groupName>
                  <xmpG:groupType>0</xmpG:groupType>
               </rdf:li>
            </rdf:Seq>
         </xmpTPg:SwatchGroups>
      </rdf:Description>
      <rdf:Description rdf:about=""
            xmlns:xmpMM="http://ns.adobe.com/xap/1.0/mm/"
            xmlns:stRef="http://ns.adobe.com/xap/1.0/sType/ResourceRef#"
            xmlns:stEvt="http://ns.adobe.com/xap/1.0/sType/ResourceEvent#">
         <xmpMM:RenditionClass>proof:pdf</xmpMM:RenditionClass>
         <xmpMM:DocumentID>xmp.did:2E0B780791206811ACAFDF14EE1FF095</xmpMM:DocumentID>
         <xmpMM:InstanceID>xmp.iid:2E0B780791206811ACAFDF14EE1FF095</xmpMM:InstanceID>
         <xmpMM:OriginalDocumentID>xmp.did:2D0B780791206811ACAFDF14EE1FF095</xmpMM:OriginalDocumentID>
         <xmpMM:DerivedFrom rdf:parseType="Resource">
            <stRef:instanceID>xmp.iid:2D0B780791206811ACAFDF14EE1FF095</stRef:instanceID>
            <stRef:documentID>xmp.did:2D0B780791206811ACAFDF14EE1FF095</stRef:documentID>
            <stRef:originalDocumentID>xmp.did:2D0B780791206811ACAFDF14EE1FF095</stRef:originalDocumentID>
            <stRef:renditionClass>proof:pdf</stRef:renditionClass>
         </xmpMM:DerivedFrom>
         <xmpMM:History>
            <rdf:Seq>
               <rdf:li rdf:parseType="Resource">
                  <stEvt:action>saved</stEvt:action>
                  <stEvt:instanceID>xmp.iid:2D0B780791206811ACAFDF14EE1FF095</stEvt:instanceID>
                  <stEvt:when>2011-10-12T20:51:11-07:00</stEvt:when>
                  <stEvt:softwareAgent>Adobe Illustrator CS4</stEvt:softwareAgent>
                  <stEvt:changed>/</stEvt:changed>
               </rdf:li>
               <rdf:li rdf:parseType="Resource">
                  <stEvt:action>saved</stEvt:action>
                  <stEvt:instanceID>xmp.iid:2E0B780791206811ACAFDF14EE1FF095</stEvt:instanceID>
                  <stEvt:when>2011-10-12T20:57:11-07:00</stEvt:when>
                  <stEvt:softwareAgent>Adobe Illustrator CS4</stEvt:softwareAgent>
                  <stEvt:changed>/</stEvt:changed>
               </rdf:li>
            </rdf:Seq>
         </xmpMM:History>
      </rdf:Description>
      <rdf:Description rdf:about=""
            xmlns:xmpRights="http://ns.adobe.com/xap/1.0/rights/">
         <xmpRights:Marked>True</xmpRights:Marked>
      </rdf:Description>
   </rdf:RDF>
</x:xmpmeta>
                                                                                                    
                                                                                                    
                                                                                                    
                                                                                                    
                                                                                                    
                                                                                                    
                                                                                                    
                                                                                                    
                                                                                                    
                                                                                                    
                                                                                                    
                                                                                                    
                                                                                                    
                                                                                                    
                                                                                                    
                                                                                                    
                                                                                                    
                                                                                                    
                                                                                                    
                                                                                                    
                           
<?xpacket end="w"?>
	</metadata>
<g>
	<path opacity="0.2" fill="#1B1F8A" enable-background="new    " d="M342.244,129.922c24.938,8.319,43.984,27.096,52.381,52.128
		C473.805,156.75,532.869,94.542,559.7,16.176C480.028-6.486,395.24,6.56,329.3,57.165
		C345.072,78.34,349.634,104.692,342.244,129.922z"/>
	<path fill="none" stroke="#020202" stroke-width="0.8564" d="M454.435,6.307c2.626,28.396-1.53,56.444-11.853,81.821
		c-11.748,28.878-31.481,54.295-58.291,72.827"/>
	<path fill="none" stroke="#020202" stroke-width="0.8564" d="M399.449,60.163c1.491,30.703-8.278,61.13-28.905,85.476"/>
	<path fill="none" stroke="#020202" stroke-width="0.8564" d="M391.656,21.962c0.788,2.149,1.517,4.309,2.187,6.478"/>
	<path fill="none" stroke="#020202" stroke-width="0.8564" d="M353.651,40.595c16.988,29.556,18.048,64.857,2.35,95.091"/>
	<path fill="none" stroke="#020202" stroke-width="0.8564" d="M507.77,108.271c-46.668-39.238-109.706-52.099-167.035-30.586"/>
	<path fill="none" stroke="#020202" stroke-width="0.8564" d="M459.105,150.909c-25.981-36.966-68.594-57.532-113.631-53.196"/>
	<path fill="none" stroke="#020202" stroke-width="0.8564" d="M422.125,171.499c-14.6-30.808-42.975-51.813-76.769-56.164"/>
	<path fill="none" stroke="#020202" stroke-width="1.7127" d="M542.209,56.688c6.822-12.904,12.676-26.448,17.491-40.513
		C480.028-6.486,395.24,6.56,329.3,57.165c15.772,21.176,20.334,47.527,12.944,72.758c24.938,8.319,43.984,27.096,52.381,52.128
		c52.97-16.926,96.937-50.369,128.273-94.117"/>
</g>
<g>
	<rect x="7.442" y="7.33" opacity="0.2" fill="#1B1F8A" enable-background="new    " width="172.305" height="172.167"/>
	<rect x="7.442" y="7.33" fill="none" stroke="#020202" stroke-width="1.7127" width="172.305" height="172.167"/>
	<line fill="none" stroke="#020202" stroke-width="0.8564" x1="7.442" y1="136.455" x2="179.747" y2="136.455"/>
	<line fill="none" stroke="#020202" stroke-width="0.8564" x1="7.442" y1="93.414" x2="179.747" y2="93.414"/>
	<line fill="none" stroke="#020202" stroke-width="0.8564" x1="7.442" y1="50.372" x2="179.747" y2="50.372"/>
	<line fill="none" stroke="#020202" stroke-width="0.8564" x1="136.67" y1="7.33" x2="136.67" y2="179.497"/>
	<line fill="none" stroke="#020202" stroke-width="0.8564" x1="93.595" y1="7.33" x2="93.595" y2="179.497"/>
	<line fill="none" stroke="#020202" stroke-width="0.8564" x1="50.519" y1="7.33" x2="50.519" y2="179.497"/>
</g>
<g>
	<g>
		<path fill="none" stroke="#231F20" stroke-width="4" d="M321.44,88.445c-2.788-0.284-5.588-0.521-8.403-0.712
			c-5.574-0.378-11.2-0.57-16.871-0.57c-37.33,0-72.718,8.315-104.414,23.194"/>
		<polygon fill="#231F20" points="332.679,89.59 316.181,94.447 320.599,88.359 317.5,81.506 		"/>
	</g>
</g>
<g>
	<defs>
		<rect id="SVGID_1_" x="253.5" y="49.659" width="18.801" height="32.82"/>
	</defs>
	<clipPath id="SVGID_2_">
		<use xlink:href="#SVGID_1_"  overflow="visible"/>
	</clipPath>
	<path clip-path="url(#SVGID_2_)" d="M265.561,60.559h3.084c0.717,0,1.076,0,1.076-0.711c0-0.39-0.359-0.39-0.968-0.39h-2.977
		c0.395-2.071,0.359-2,0.752-4.071c0.143-0.75,0.645-3.284,0.861-3.714c0.323-0.679,0.932-1.216,1.687-1.216
		c0.143,0,1.076,0,1.759,0.6c-1.578,0.146-1.937,1.403-1.937,1.943c0,0.827,0.646,1.26,1.327,1.26c0.933,0,1.974-0.785,1.974-2.141
		c0-1.641-1.651-2.462-3.122-2.462c-1.22,0-3.479,0.646-4.555,4.187c-0.215,0.75-0.323,1.108-1.184,5.613h-2.475
		c-0.681,0-1.076,0-1.076,0.674c0,0.426,0.323,0.426,1.004,0.426h2.367l-2.69,14.229c-0.645,3.493-1.255,6.771-3.12,6.771
		c-0.144,0-1.041,0-1.722-0.696c1.65-0.108,1.973-1.402,1.973-1.942c0-0.827-0.646-1.259-1.328-1.259
		c-0.933,0-1.973,0.802-1.973,2.187c0,1.639,1.578,2.513,3.048,2.513c1.973,0,3.407-2.126,4.053-3.495
		c1.148-2.27,1.973-6.63,2.009-6.882"/>
</g>
<g>
	<rect x="136.5" y="40.301" fill="#FFFFFF" stroke="#010101" width="10.528" height="10.528"/>
	<g>
		<circle fill="#010101" cx="136.5" cy="50.83" r="3"/>
		<g>
			<g>
				<line fill="none" x1="136.5" y1="50.83" x2="136.5" y2="21.497"/>
				<polygon fill="#FFFFFF" points="136.5,18.672 138.126,22.652 136.5,21.708 134.874,22.652 				"/>
			</g>
			<g>
				<line fill="none" stroke="#010101" stroke-width="3" x1="136.5" y1="50.83" x2="136.5" y2="21.497"/>
				<polygon fill="#010101" points="136.5,13.024 141.378,24.963 136.5,22.129 131.623,24.963 				"/>
			</g>
		</g>
	</g>
	<g>
		<g>
			<g>
				<line fill="none" x1="136.5" y1="50.83" x2="165.833" y2="50.83"/>
				<polygon fill="#FFFFFF" points="168.657,50.83 164.678,52.457 165.622,50.83 164.678,49.204 				"/>
			</g>
			<g>
				<line fill="none" stroke="#010101" stroke-width="3" x1="136.5" y1="50.83" x2="165.833" y2="50.83"/>
				<polygon fill="#010101" points="174.306,50.83 162.366,55.708 165.2,50.83 162.366,45.953 				"/>
			</g>
		</g>
	</g>
</g>
<g>
	
		<rect x="448.352" y="66.151" transform="matrix(-0.9527 -0.3039 0.3039 -0.9527 864.0731 277.3063)" fill="#FFFFFF" stroke="#010101" width="10.527" height="10.529"/>
	<g>
		<circle fill="#010101" cx="447" cy="74.83" r="3"/>
		<g>
			<g>
				<line fill="none" x1="447" y1="74.83" x2="462.692" y2="24.726"/>
				<polygon fill="#FFFFFF" points="463.551,22.037 463.891,26.322 462.628,24.927 460.791,25.333 				"/>
			</g>
			<g>
				<line fill="none" stroke="#010101" stroke-width="3" x1="447" y1="74.83" x2="462.692" y2="24.726"/>
				<polygon fill="#010101" points="465.268,16.655 466.285,29.512 462.5,25.33 456.992,26.546 				"/>
			</g>
		</g>
	</g>
	<g>
		<g>
			<g>
				<line fill="none" x1="447" y1="74.83" x2="497.104" y2="90.522"/>
				<polygon fill="#FFFFFF" points="499.793,91.38 495.508,91.72 496.902,90.458 496.497,88.621 				"/>
			</g>
			<g>
				<line fill="none" stroke="#010101" stroke-width="3" x1="447" y1="74.83" x2="497.104" y2="90.522"/>
				<polygon fill="#010101" points="505.175,93.097 492.317,94.115 496.5,90.33 495.283,84.822 				"/>
			</g>
		</g>
	</g>
</g>
<g>
	<defs>
		<rect id="SVGID_3_" x="141.708" y="59.854" width="23.25" height="19.261"/>
	</defs>
	<clipPath id="SVGID_4_">
		<use xlink:href="#SVGID_3_"  overflow="visible"/>
	</clipPath>
	<path clip-path="url(#SVGID_4_)" d="M154.38,67.398l-2.259-5.362c-0.08-0.215-0.134-0.323-0.134-0.35
		c0-0.162,0.458-0.674,1.587-0.783c0.27-0.026,0.538-0.053,0.538-0.506c0-0.319-0.323-0.319-0.403-0.319
		c-1.103,0-2.259,0.081-3.39,0.081c-0.672,0-2.34-0.081-3.013-0.081c-0.161,0-0.484,0-0.484,0.533c0,0.292,0.27,0.292,0.619,0.292
		c1.614,0,1.775,0.27,2.018,0.862l3.174,7.515l-5.676,6.113c-0.162,0.135-0.188,0.162-0.349,0.296
		c-1.318,1.427-2.583,1.858-3.955,1.939c-0.349,0.027-0.591,0.027-0.591,0.532c0,0.027,0,0.292,0.349,0.292
		c0.807,0,1.695-0.08,2.528-0.08c0.996,0,2.045,0.08,3.014,0.08c0.161,0,0.483,0,0.483-0.532c0-0.266-0.27-0.293-0.322-0.293
		c-0.243-0.027-1.076-0.081-1.076-0.835c0-0.431,0.403-0.862,0.726-1.212l2.744-2.908c0.807-0.888,1.856-1.992,2.421-2.64
		l2.718,6.437c0.106,0.296,0.134,0.323,0.134,0.377c0,0.215-0.512,0.673-1.56,0.781c-0.296,0.027-0.539,0.054-0.539,0.506
		c0,0.319,0.296,0.319,0.404,0.319c0.753,0,2.636-0.08,3.389-0.08c0.673,0,2.313,0.08,2.986,0.08c0.188,0,0.51,0,0.51-0.505
		c0-0.319-0.269-0.319-0.483-0.319c-1.802-0.027-1.856-0.108-2.313-1.186c-1.048-2.505-2.852-6.706-3.471-8.321
		c1.829-1.886,4.654-5.091,5.515-5.845c0.779-0.647,1.802-1.293,3.416-1.374c0.349-0.026,0.592-0.026,0.592-0.532
		c0-0.027,0-0.293-0.35-0.293c-0.807,0-1.694,0.081-2.528,0.081c-0.995,0-2.018-0.081-2.985-0.081c-0.161,0-0.511,0-0.511,0.533
		c0,0.186,0.134,0.267,0.323,0.293c0.242,0.027,1.076,0.081,1.076,0.835c0,0.377-0.296,0.727-0.511,0.97"/>
</g>
<g>
	<defs>
		<rect id="SVGID_5_" x="109.875" y="18.869" width="20.25" height="19.262"/>
	</defs>
	<clipPath id="SVGID_6_">
		<use xlink:href="#SVGID_5_"  overflow="visible"/>
	</clipPath>
	<path clip-path="url(#SVGID_6_)" d="M125.559,22.154l0.376-0.377c0.807-0.808,1.695-1.724,3.523-1.859
		c0.296-0.025,0.538-0.025,0.538-0.505c0-0.213-0.135-0.319-0.35-0.319c-0.699,0-1.48,0.08-2.206,0.08
		c-0.888,0-1.829-0.08-2.69-0.08c-0.161,0-0.511,0-0.511,0.506c0,0.293,0.27,0.318,0.404,0.318c0.188,0,0.968,0.055,0.968,0.621
		c0,0.458-0.619,1.157-0.727,1.292l-6.24,7.191l-2.959-7.999c-0.161-0.377-0.161-0.432-0.161-0.458c0-0.647,1.318-0.647,1.587-0.647
		c0.376,0,0.646,0,0.646-0.531c0-0.294-0.322-0.294-0.403-0.294c-0.753,0-2.636,0.081-3.389,0.081c-0.673,0-2.34-0.081-3.013-0.081
		c-0.162,0-0.511,0-0.511,0.532c0,0.293,0.269,0.293,0.619,0.293c1.614,0,1.722,0.243,1.963,0.916l3.309,8.86
		c0.026,0.082,0.106,0.377,0.106,0.458s-1.075,4.417-1.21,4.902c-0.35,1.48-0.376,1.562-2.528,1.588c-0.511,0-0.727,0-0.727,0.533
		c0,0.292,0.323,0.292,0.377,0.292c0.753,0,2.637-0.08,3.39-0.08s2.689,0.08,3.443,0.08c0.188,0,0.51,0,0.51-0.532
		c0-0.293-0.242-0.293-0.753-0.293c-0.053,0-0.564,0-1.022-0.055c-0.564-0.053-0.726-0.106-0.726-0.431
		c0-0.188,0.242-1.131,0.377-1.697c0.457-1.778,0.538-2.182,0.94-3.797c0.135-0.512,0.162-0.592,0.377-0.834"/>
</g>
<g>
	<defs>
		<rect id="SVGID_7_" x="492.847" y="58.611" width="67.5" height="27.615"/>
	</defs>
	<clipPath id="SVGID_8_">
		<use xlink:href="#SVGID_7_"  overflow="visible"/>
	</clipPath>
	<path clip-path="url(#SVGID_8_)" d="M500.309,75.875c-0.135,0.485-0.135,0.539-0.538,0.997c-1.18,1.483-2.28,1.915-3.031,1.915
		c-1.342,0-1.719-1.483-1.719-2.535c0-1.346,0.858-4.662,1.476-5.901c0.831-1.59,2.04-2.588,3.114-2.588
		c1.743,0,2.121,2.21,2.121,2.372s-0.055,0.323-0.082,0.459 M505.902,60.708c0-0.027,0-0.297-0.351-0.297
		c-0.402,0-2.948,0.24-3.403,0.294c-0.215,0.027-0.375,0.16-0.375,0.509c0,0.322,0.24,0.322,0.643,0.322
		c1.286,0,1.339,0.189,1.339,0.458l-0.08,0.539l-1.607,6.384c-0.481-1.016-1.259-1.758-2.465-1.758c-3.135,0-6.457,3.97-6.457,7.908
		c0,2.535,1.474,4.316,3.564,4.316c0.535,0,1.875-0.108,3.482-2.021c0.215,1.132,1.152,2.021,2.438,2.021
		c0.938,0,1.555-0.619,1.983-1.481c0.455-0.969,0.804-2.611,0.804-2.665c0-0.27-0.24-0.27-0.321-0.27
		c-0.268,0-0.295,0.109-0.375,0.485c-0.455,1.746-0.938,3.331-2.036,3.331c-0.724,0-0.805-0.699-0.805-1.238
		c0-0.646,0.054-0.834,0.161-1.29L505.902,60.708z"/>
	<path clip-path="url(#SVGID_8_)" d="M511.417,68.287h2.313c0.538,0,0.807,0,0.807-0.533c0-0.293-0.269-0.293-0.726-0.293h-2.232
		c0.296-1.553,0.269-1.5,0.564-3.053c0.107-0.562,0.483-2.464,0.646-2.786c0.242-0.509,0.698-0.911,1.265-0.911
		c0.107,0,0.807,0,1.319,0.449c-1.184,0.109-1.453,1.053-1.453,1.457c0,0.621,0.485,0.945,0.995,0.945
		c0.699,0,1.48-0.589,1.48-1.605c0-1.23-1.238-1.847-2.341-1.847c-0.915,0-2.609,0.484-3.417,3.14
		c-0.161,0.562-0.242,0.832-0.888,4.211h-1.856c-0.511,0-0.807,0-0.807,0.505c0,0.319,0.242,0.319,0.753,0.319h1.774l-2.017,10.672
		c-0.483,2.62-0.941,5.078-2.34,5.078c-0.108,0-0.78,0-1.292-0.522c1.238-0.081,1.48-1.052,1.48-1.456
		c0-0.621-0.484-0.944-0.996-0.944c-0.7,0-1.48,0.601-1.48,1.64c0,1.229,1.184,1.885,2.286,1.885c1.48,0,2.556-1.595,3.04-2.621
		c0.861-1.703,1.48-4.973,1.506-5.162"/>
	<path clip-path="url(#SVGID_8_)" d="M526.5,85.567c0-0.081,0-0.135-0.461-0.592c-3.378-3.392-4.243-8.479-4.243-12.598
		c0-4.684,1.027-9.368,4.352-12.733c0.353-0.322,0.353-0.376,0.353-0.457c0-0.188-0.108-0.274-0.271-0.274
		c-0.271,0-2.706,1.835-4.304,5.255c-1.38,2.961-1.704,5.949-1.704,8.21c0,2.1,0.298,5.356,1.786,8.398
		c1.624,3.312,3.951,5.062,4.223,5.062C526.392,85.837,526.501,85.756,526.5,85.567"/>
	<path clip-path="url(#SVGID_8_)" d="M541.143,68.03l-2.259-5.362c-0.08-0.215-0.134-0.322-0.134-0.35
		c0-0.162,0.458-0.674,1.587-0.783c0.269-0.025,0.537-0.053,0.537-0.506c0-0.318-0.322-0.318-0.403-0.318
		c-1.103,0-2.259,0.08-3.389,0.08c-0.673,0-2.34-0.08-3.013-0.08c-0.162,0-0.484,0-0.484,0.532c0,0.292,0.269,0.292,0.619,0.292
		c1.613,0,1.774,0.271,2.017,0.863l3.175,7.514l-5.677,6.113c-0.161,0.135-0.188,0.162-0.35,0.297
		c-1.317,1.428-2.582,1.857-3.954,1.938c-0.35,0.027-0.592,0.027-0.592,0.532c0,0.027,0,0.293,0.35,0.293
		c0.807,0,1.694-0.08,2.528-0.08c0.995,0,2.045,0.08,3.013,0.08c0.161,0,0.483,0,0.483-0.533c0-0.266-0.269-0.293-0.322-0.293
		c-0.242-0.027-1.075-0.08-1.075-0.835c0-0.431,0.404-0.862,0.727-1.212l2.743-2.908c0.807-0.888,1.856-1.992,2.421-2.639
		l2.717,6.436c0.107,0.297,0.135,0.323,0.135,0.378c0,0.215-0.512,0.673-1.561,0.78c-0.296,0.027-0.538,0.054-0.538,0.506
		c0,0.32,0.296,0.32,0.403,0.32c0.753,0,2.635-0.08,3.39-0.08c0.673,0,2.313,0.08,2.985,0.08c0.188,0,0.511,0,0.511-0.506
		c0-0.319-0.269-0.319-0.483-0.319c-1.803-0.027-1.857-0.107-2.314-1.185c-1.049-2.506-2.852-6.707-3.47-8.322
		c1.829-1.886,4.653-5.09,5.514-5.845c0.78-0.646,1.803-1.293,3.416-1.374c0.351-0.026,0.592-0.026,0.592-0.531
		c0-0.027,0-0.294-0.35-0.294c-0.806,0-1.694,0.08-2.528,0.08c-0.995,0-2.017-0.08-2.985-0.08c-0.161,0-0.511,0-0.511,0.532
		c0,0.186,0.135,0.267,0.322,0.293c0.242,0.027,1.076,0.081,1.076,0.836c0,0.377-0.296,0.727-0.51,0.97"/>
	<path clip-path="url(#SVGID_8_)" d="M560.271,72.376c0-2.101-0.297-5.357-1.783-8.398c-1.619-3.311-3.943-5.066-4.213-5.066
		c-0.162,0-0.27,0.113-0.27,0.275c0,0.08,0,0.135,0.512,0.617c2.642,2.666,4.179,6.945,4.179,12.572
		c0,4.603-0.999,9.34-4.341,12.732c-0.35,0.323-0.35,0.377-0.35,0.458c0,0.162,0.107,0.269,0.27,0.269
		c0.27,0,2.701-1.83,4.294-5.249C559.945,77.626,560.271,74.638,560.271,72.376"/>
</g>
<g>
	<defs>
		<rect id="SVGID_9_" x="383.976" y="30.354" width="65.013" height="27.615"/>
	</defs>
	<clipPath id="SVGID_10_">
		<use xlink:href="#SVGID_9_"  overflow="visible"/>
	</clipPath>
	<path clip-path="url(#SVGID_10_)" d="M391.438,47.618c-0.135,0.486-0.135,0.54-0.537,0.998c-1.181,1.483-2.281,1.915-3.032,1.915
		c-1.342,0-1.719-1.483-1.719-2.534c0-1.346,0.858-4.663,1.477-5.902c0.831-1.59,2.039-2.588,3.113-2.588
		c1.744,0,2.121,2.21,2.121,2.373c0,0.162-0.055,0.323-0.081,0.458 M397.031,32.452c0-0.027,0-0.297-0.351-0.297
		c-0.402,0-2.948,0.24-3.403,0.294c-0.214,0.027-0.375,0.16-0.375,0.509c0,0.322,0.24,0.322,0.643,0.322
		c1.286,0,1.34,0.189,1.34,0.458l-0.081,0.539l-1.606,6.384c-0.482-1.016-1.259-1.758-2.466-1.758c-3.135,0-6.457,3.97-6.457,7.908
		c0,2.535,1.474,4.316,3.564,4.316c0.535,0,1.876-0.108,3.483-2.021c0.215,1.132,1.152,2.021,2.438,2.021
		c0.938,0,1.554-0.619,1.982-1.481c0.455-0.969,0.804-2.611,0.804-2.665c0-0.27-0.24-0.27-0.321-0.27
		c-0.268,0-0.295,0.108-0.375,0.485c-0.455,1.746-0.938,3.331-2.036,3.331c-0.723,0-0.804-0.699-0.804-1.238
		c0-0.646,0.053-0.834,0.16-1.291L397.031,32.452z"/>
	<path clip-path="url(#SVGID_10_)" d="M402.547,40.03h2.312c0.538,0,0.808,0,0.808-0.533c0-0.292-0.27-0.292-0.727-0.292h-2.232
		c0.296-1.553,0.27-1.5,0.564-3.053c0.107-0.562,0.484-2.463,0.646-2.786c0.243-0.509,0.699-0.912,1.266-0.912
		c0.106,0,0.806,0,1.318,0.45c-1.184,0.109-1.453,1.053-1.453,1.458c0,0.621,0.485,0.945,0.996,0.945
		c0.699,0,1.479-0.589,1.479-1.605c0-1.23-1.237-1.847-2.341-1.847c-0.915,0-2.609,0.484-3.416,3.14
		c-0.161,0.562-0.243,0.832-0.888,4.21h-1.857c-0.51,0-0.806,0-0.806,0.505c0,0.319,0.242,0.319,0.753,0.319h1.774L398.727,50.7
		c-0.483,2.62-0.94,5.078-2.34,5.078c-0.107,0-0.78,0-1.291-0.522c1.237-0.081,1.479-1.052,1.479-1.457
		c0-0.621-0.484-0.944-0.996-0.944c-0.699,0-1.479,0.601-1.479,1.64c0,1.229,1.184,1.885,2.286,1.885
		c1.479,0,2.555-1.595,3.039-2.622c0.861-1.702,1.48-4.972,1.507-5.162"/>
	<path clip-path="url(#SVGID_10_)" d="M417.629,57.311c0-0.081,0-0.135-0.46-0.592c-3.379-3.392-4.244-8.48-4.244-12.598
		c0-4.684,1.027-9.368,4.353-12.733c0.352-0.322,0.352-0.376,0.352-0.458c0-0.188-0.108-0.274-0.271-0.274
		c-0.271,0-2.705,1.835-4.303,5.255c-1.381,2.961-1.704,5.949-1.704,8.21c0,2.1,0.298,5.357,1.786,8.398
		c1.624,3.312,3.95,5.062,4.222,5.062c0.162,0,0.271-0.081,0.271-0.269"/>
	<path clip-path="url(#SVGID_10_)" d="M435.285,35.515l0.376-0.377c0.808-0.808,1.695-1.723,3.524-1.859
		c0.296-0.025,0.537-0.025,0.537-0.505c0-0.212-0.134-0.319-0.35-0.319c-0.699,0-1.479,0.081-2.206,0.081
		c-0.888,0-1.829-0.081-2.689-0.081c-0.161,0-0.511,0-0.511,0.506c0,0.293,0.269,0.318,0.403,0.318c0.188,0,0.968,0.055,0.968,0.621
		c0,0.458-0.618,1.157-0.726,1.292l-6.24,7.191l-2.959-7.999c-0.161-0.377-0.161-0.432-0.161-0.459c0-0.646,1.317-0.646,1.587-0.646
		c0.376,0,0.646,0,0.646-0.532c0-0.293-0.322-0.293-0.404-0.293c-0.753,0-2.636,0.08-3.389,0.08c-0.672,0-2.34-0.08-3.013-0.08
		c-0.161,0-0.511,0-0.511,0.532c0,0.293,0.27,0.293,0.619,0.293c1.613,0,1.721,0.242,1.963,0.916l3.309,8.86
		c0.027,0.082,0.107,0.377,0.107,0.459c0,0.081-1.075,4.416-1.211,4.902c-0.35,1.481-0.377,1.562-2.528,1.588
		c-0.511,0-0.726,0-0.726,0.533c0,0.292,0.322,0.292,0.376,0.292c0.753,0,2.637-0.08,3.39-0.08s2.69,0.08,3.443,0.08
		c0.188,0,0.511,0,0.511-0.533c0-0.293-0.243-0.293-0.753-0.293c-0.054,0-0.565,0-1.022-0.054c-0.565-0.054-0.727-0.107-0.727-0.431
		c0-0.189,0.243-1.131,0.377-1.697c0.457-1.777,0.537-2.182,0.941-3.797c0.135-0.511,0.161-0.592,0.377-0.834"/>
	<path clip-path="url(#SVGID_10_)" d="M448.625,44.12c0-2.1-0.298-5.357-1.783-8.398c-1.62-3.311-3.942-5.066-4.213-5.066
		c-0.162,0-0.271,0.113-0.271,0.275c0,0.081,0,0.135,0.513,0.618c2.642,2.666,4.178,6.945,4.178,12.571
		c0,4.603-0.997,9.34-4.34,12.733c-0.351,0.323-0.351,0.377-0.351,0.458c0,0.162,0.108,0.269,0.271,0.269
		c0.271,0,2.7-1.83,4.294-5.249C448.3,49.37,448.625,46.381,448.625,44.12"/>
</g>
</svg>
