<?xml version="1.0" encoding="utf-8"?>
<!-- Generator: Adobe Illustrator 14.0.0, SVG Export Plug-In . SVG Version: 6.00 Build 43363)  -->
<!DOCTYPE svg PUBLIC "-//W3C//DTD SVG 1.1//EN" "http://www.w3.org/Graphics/SVG/1.1/DTD/svg11.dtd">
<svg version="1.1" id="Layer_1" xmlns="http://www.w3.org/2000/svg" xmlns:xlink="http://www.w3.org/1999/xlink" x="0px" y="0px"
	 width="612px" height="257.049px" viewBox="0 0 612 257.049" enable-background="new 0 0 612 257.049" xml:space="preserve">
<g>
	<g>
		<polygon fill="#B0B6C8" stroke="#231F20" stroke-width="1.7345" points="181.996,154.761 115.257,189.543 26.106,172.751 
			27.395,86.245 72.433,25.951 147.653,23.57 196.414,80.896 		"/>
		<polyline fill="none" stroke="#231F20" stroke-width="1.7345" points="26.106,172.751 116.639,111.911 72.478,27.3 		"/>
		<line fill="none" stroke="#231F20" stroke-width="1.7345" x1="115.257" y1="189.543" x2="116.639" y2="111.911"/>
		<line fill="none" stroke="#231F20" stroke-width="1.7345" x1="116.639" y1="111.911" x2="196.414" y2="80.896"/>
		<polyline fill="none" stroke="#231F20" stroke-width="1.7345" points="27.226,123.324 68.971,102.607 94.935,126.525 
			96.442,158.041 115.5,159.994 162.741,126.211 150.369,99.055 146.981,53.035 168.504,48.399 		"/>
		<line fill="none" stroke="#231F20" stroke-width="1.7345" x1="68.971" y1="102.607" x2="72.478" y2="27.3"/>
		<line fill="none" stroke="#231F20" stroke-width="1.7345" x1="146.981" y1="53.035" x2="72.478" y2="27.3"/>
		<line fill="none" stroke="#231F20" stroke-width="1.7345" x1="162.741" y1="126.211" x2="181.996" y2="154.761"/>
	</g>
	<g>
		<polygon fill="#B0B6C8" stroke="#231F20" stroke-width="1.7345" points="288.508,189.037 245.144,157.531 228.58,106.557 
			245.144,55.581 288.508,24.075 342.107,24.075 385.47,55.581 402.032,106.557 385.47,157.531 342.107,189.037 		"/>
		<line fill="none" stroke="#231F20" stroke-width="1.7345" x1="331.496" y1="62.615" x2="342.107" y2="24.075"/>
		<line fill="none" stroke="#231F20" stroke-width="1.7345" x1="288.508" y1="24.075" x2="277.147" y2="82.852"/>
		<line fill="none" stroke="#231F20" stroke-width="1.7345" x1="277.147" y1="82.852" x2="245.144" y2="55.581"/>
		<line fill="none" stroke="#231F20" stroke-width="1.7345" x1="277.147" y1="82.852" x2="245.144" y2="157.531"/>
		<line fill="none" stroke="#231F20" stroke-width="1.7345" x1="277.147" y1="82.852" x2="307.312" y2="113.675"/>
		<line fill="none" stroke="#231F20" stroke-width="1.7345" x1="277.147" y1="82.852" x2="288.508" y2="189.037"/>
		<line fill="none" stroke="#231F20" stroke-width="1.7345" x1="307.312" y1="113.675" x2="302.587" y2="175.938"/>
		<line fill="none" stroke="#231F20" stroke-width="1.7345" x1="302.587" y1="175.938" x2="288.508" y2="189.037"/>
		<line fill="none" stroke="#231F20" stroke-width="1.7345" x1="302.587" y1="175.938" x2="333.809" y2="170.733"/>
		<line fill="none" stroke="#231F20" stroke-width="1.7345" x1="333.809" y1="170.733" x2="342.107" y2="189.037"/>
		<line fill="none" stroke="#231F20" stroke-width="1.7345" x1="333.809" y1="170.733" x2="348.165" y2="113.675"/>
		<line fill="none" stroke="#231F20" stroke-width="1.7345" x1="348.165" y1="113.675" x2="379.484" y2="137.778"/>
		<line fill="none" stroke="#231F20" stroke-width="1.7345" x1="379.484" y1="137.778" x2="385.47" y2="157.531"/>
		<line fill="none" stroke="#231F20" stroke-width="1.7345" x1="379.484" y1="137.778" x2="402.032" y2="106.557"/>
		<line fill="none" stroke="#231F20" stroke-width="1.7345" x1="402.032" y1="106.557" x2="360.787" y2="74.824"/>
		<line fill="none" stroke="#231F20" stroke-width="1.7345" x1="360.787" y1="74.824" x2="385.47" y2="55.581"/>
		<polygon fill="#FFFFFF" stroke="#231F20" stroke-width="1.7345" points="307.312,113.675 303.743,74.179 331.496,62.615 
			360.787,74.824 348.165,113.675 		"/>
	</g>
	<g>
		
			<linearGradient id="SVGID_1_" gradientUnits="userSpaceOnUse" x1="523.6816" y1="45.7134" x2="536.3573" y2="110.7535" gradientTransform="matrix(1 0 0 -1 0 257.0488)">
			<stop  offset="0" style="stop-color:#BBDBF2"/>
			<stop  offset="1" style="stop-color:#58618B"/>
		</linearGradient>
		<polygon opacity="0.8" fill="url(#SVGID_1_)" enable-background="new    " points="493.839,132.405 520.104,201.196 
			584.389,131.903 		"/>
		
			<linearGradient id="SVGID_2_" gradientUnits="userSpaceOnUse" x1="516.9893" y1="152.3359" x2="489.3075" y2="117.3184" gradientTransform="matrix(1 0 0 -1 0 257.0488)">
			<stop  offset="0" style="stop-color:#BBDBF2"/>
			<stop  offset="1" style="stop-color:#58618B"/>
		</linearGradient>
		<polygon opacity="0.8" fill="url(#SVGID_2_)" enable-background="new    " points="456.066,84.627 519.104,199.192 
			493.839,131.653 		"/>
		
			<linearGradient id="SVGID_3_" gradientUnits="userSpaceOnUse" x1="543.375" y1="192.208" x2="539.3728" y2="125.1716" gradientTransform="matrix(1 0 0 -1 0 257.0488)">
			<stop  offset="0" style="stop-color:#BBDBF2"/>
			<stop  offset="1" style="stop-color:#58618B"/>
		</linearGradient>
		<polygon opacity="0.8" fill="url(#SVGID_3_)" enable-background="new    " points="505.845,67.117 493.588,132.153 
			585.14,131.903 		"/>
		
			<linearGradient id="SVGID_4_" gradientUnits="userSpaceOnUse" x1="504.4824" y1="182.0889" x2="647.4809" y2="109.1306" gradientTransform="matrix(1 0 0 -1 0 257.0488)">
			<stop  offset="0" style="stop-color:#BBDBF2"/>
			<stop  offset="1" style="stop-color:#58618B"/>
		</linearGradient>
		<polygon opacity="0.8" fill="url(#SVGID_4_)" enable-background="new    " points="507.845,68.368 582.888,129.903 
			544.866,80.625 		"/>
		
			<linearGradient id="SVGID_5_" gradientUnits="userSpaceOnUse" x1="514.7529" y1="230.3828" x2="523.4235" y2="201.3676" gradientTransform="matrix(1 0 0 -1 0 257.0488)">
			<stop  offset="0" style="stop-color:#BBDBF2"/>
			<stop  offset="1" style="stop-color:#58618B"/>
		</linearGradient>
		<polygon opacity="0.8" fill="url(#SVGID_5_)" enable-background="new    " points="509.597,12.337 506.345,66.618 539.864,42.604 
					"/>
		
			<linearGradient id="SVGID_6_" gradientUnits="userSpaceOnUse" x1="511.5977" y1="241.709" x2="492.9193" y2="204.3541" gradientTransform="matrix(1 0 0 -1 0 257.0488)">
			<stop  offset="0" style="stop-color:#BBDBF2"/>
			<stop  offset="1" style="stop-color:#58618B"/>
		</linearGradient>
		<polygon opacity="0.8" fill="url(#SVGID_6_)" enable-background="new    " points="505.595,67.117 508.596,12.086 478.329,42.103 
					"/>
		
			<linearGradient id="SVGID_7_" gradientUnits="userSpaceOnUse" x1="511.248" y1="188.3242" x2="588.2895" y2="205.9997" gradientTransform="matrix(1 0 0 -1 0 257.0488)">
			<stop  offset="0" style="stop-color:#BBDBF2"/>
			<stop  offset="1" style="stop-color:#58618B"/>
		</linearGradient>
		<polygon opacity="0.8" fill="url(#SVGID_7_)" enable-background="new    " points="539.614,42.854 506.096,67.368 544.866,80.375 
					"/>
		
			<linearGradient id="SVGID_8_" gradientUnits="userSpaceOnUse" x1="514.793" y1="261.6279" x2="474.1049" y2="152.903" gradientTransform="matrix(1 0 0 -1 0 257.0488)">
			<stop  offset="0" style="stop-color:#BBDBF2"/>
			<stop  offset="1" style="stop-color:#58618B"/>
		</linearGradient>
		<polyline opacity="0.8" fill="url(#SVGID_8_)" enable-background="new    " points="478.329,41.853 506.096,67.368 
			493.338,131.403 453.565,80.375 		"/>
		<g>
			
				<line fill="none" stroke="#231F20" stroke-width="0.6938" stroke-dasharray="6.9381" x1="453.733" y1="80.626" x2="545.117" y2="80.626"/>
			<polyline fill="none" stroke="#231F20" stroke-width="1.4783" points="545.117,80.626 585.14,131.988 493.756,131.988 
				453.733,80.626 			"/>
			
				<line fill="none" stroke="#231F20" stroke-width="0.6938" stroke-dasharray="6.9381" x1="479.082" y1="42.773" x2="539.779" y2="42.773"/>
			<polyline fill="none" stroke="#231F20" stroke-width="1.4783" points="539.779,42.773 505.877,67.286 479.082,42.773 			"/>
			<line fill="none" stroke="#231F20" stroke-width="1.4783" x1="493.756" y1="131.988" x2="520.438" y2="202.026"/>
			<line fill="none" stroke="#231F20" stroke-width="1.4783" x1="520.438" y1="202.026" x2="585.14" y2="131.988"/>
			<line fill="none" stroke="#231F20" stroke-width="1.4783" x1="453.733" y1="80.626" x2="520.438" y2="202.026"/>
			
				<line fill="none" stroke="#231F20" stroke-width="0.6938" stroke-dasharray="6.9381" x1="520.438" y1="202.026" x2="545.117" y2="80.626"/>
			<line fill="none" stroke="#231F20" stroke-width="1.4783" x1="505.877" y1="67.286" x2="493.756" y2="131.988"/>
			<line fill="none" stroke="#231F20" stroke-width="1.4783" x1="478.079" y1="42.103" x2="453.733" y2="80.626"/>
			<line fill="none" stroke="#231F20" stroke-width="1.4783" x1="539.779" y1="42.773" x2="545.117" y2="80.626"/>
			<line fill="none" stroke="#231F20" stroke-width="1.4783" x1="505.877" y1="67.286" x2="545.117" y2="80.626"/>
			<line fill="none" stroke="#231F20" stroke-width="1.4783" x1="505.877" y1="67.286" x2="585.14" y2="131.988"/>
			<line fill="none" stroke="#231F20" stroke-width="1.4783" x1="478.079" y1="42.103" x2="509.097" y2="11.086"/>
			<line fill="none" stroke="#231F20" stroke-width="1.4783" x1="509.097" y1="11.086" x2="505.877" y2="67.286"/>
			<line fill="none" stroke="#231F20" stroke-width="1.4783" x1="509.097" y1="11.086" x2="539.779" y2="42.773"/>
		</g>
	</g>
</g>
<g enable-background="new    ">
	<path fill="#231F20" d="M41.476,241.75l-0.114-0.122c0.3-1.585,0.533-2.865,0.698-3.841c0.513-2.792,0.894-4.956,1.144-6.495
		c0.191-0.955,0.354-1.975,0.487-3.059c0.025-0.163,0.038-0.284,0.038-0.366c0-0.108-0.027-0.192-0.082-0.254
		c-0.054-0.061-0.119-0.092-0.193-0.092c-0.041,0-0.088,0.007-0.143,0.021c-0.055,0.014-0.145,0.053-0.27,0.117
		c-0.126,0.064-0.321,0.178-0.586,0.341l-0.805,0.508l-0.204-0.387c0.775-0.65,1.535-1.175,2.277-1.575
		c0.515-0.264,0.896-0.396,1.144-0.396c0.147,0,0.262,0.041,0.346,0.122c0.083,0.082,0.125,0.2,0.125,0.356
		c0,0.081-0.007,0.188-0.021,0.319c-0.014,0.133-0.051,0.389-0.112,0.768c-0.102,0.583-0.167,0.938-0.194,1.067
		c-0.129,0.623-0.208,1.023-0.235,1.199c0.576-0.948,1.186-1.707,1.83-2.276s1.285-0.986,1.921-1.25
		c0.481-0.196,0.892-0.295,1.23-0.295c0.257,0,0.462,0.061,0.615,0.183s0.292,0.38,0.417,0.772c0.125,0.394,0.188,0.848,0.188,1.362
		c0,0.84-0.19,1.812-0.569,2.917c-0.298,0.881-0.643,1.595-1.033,2.144s-0.927,1.056-1.612,1.52
		c-0.685,0.465-1.342,0.822-1.973,1.072c-0.244,0.095-0.475,0.143-0.691,0.143c-0.156,0-0.309-0.016-0.458-0.046
		s-0.444-0.113-0.885-0.249c-0.075,0.521-0.211,1.376-0.408,2.562l-0.449,2.876C42.249,241.51,41.773,241.622,41.476,241.75z
		 M43.962,234.829c0.562,0.325,1.146,0.488,1.75,0.488c0.509,0,0.927-0.107,1.256-0.32c0.329-0.214,0.643-0.574,0.941-1.082
		c0.475-0.813,0.844-1.699,1.109-2.658s0.397-1.794,0.397-2.505c0-0.604-0.061-0.991-0.183-1.164s-0.298-0.259-0.529-0.259
		c-0.326,0-0.671,0.088-1.038,0.264c-0.366,0.177-0.736,0.444-1.108,0.803c-0.481,0.468-0.909,1.028-1.282,1.683
		c-0.373,0.653-0.657,1.397-0.854,2.23C44.353,232.601,44.2,233.44,43.962,234.829z"/>
	<path fill="#231F20" d="M52.169,233.139c0-0.834,0.088-1.615,0.264-2.345c0.176-0.729,0.42-1.361,0.732-1.897
		c0.312-0.535,0.694-1.009,1.148-1.419c0.454-0.41,0.965-0.739,1.534-0.986c0.569-0.248,1.118-0.372,1.646-0.372
		c0.488,0,0.952,0.107,1.393,0.32c0.44,0.214,0.783,0.547,1.026,0.997c0.244,0.451,0.366,1.07,0.366,1.857
		c0,1.044-0.207,2.089-0.62,3.133c-0.332,0.827-0.711,1.497-1.138,2.01c-0.427,0.512-0.978,0.949-1.652,1.312
		c-0.674,0.362-1.347,0.544-2.017,0.544c-0.813,0-1.464-0.263-1.952-0.789C52.413,234.979,52.169,234.19,52.169,233.139z
		 M53.774,232.997c0,0.651,0.071,1.146,0.214,1.485c0.143,0.34,0.358,0.597,0.647,0.773s0.633,0.265,1.034,0.265
		c0.441,0,0.823-0.115,1.146-0.346c0.323-0.23,0.642-0.655,0.958-1.272c0.315-0.617,0.545-1.345,0.688-2.183
		s0.214-1.589,0.214-2.254c0-0.848-0.156-1.494-0.469-1.938c-0.312-0.444-0.774-0.666-1.385-0.666c-0.978,0-1.729,0.583-2.256,1.75
		S53.774,231.24,53.774,232.997z"/>
	<path fill="#231F20" d="M65.604,233.833l0.173,0.407c-0.176,0.155-0.589,0.469-1.24,0.939s-1.179,0.791-1.585,0.961
		c-0.196,0.088-0.379,0.132-0.549,0.132c-0.189,0-0.34-0.069-0.452-0.208s-0.167-0.357-0.167-0.655c0-0.25,0.023-0.497,0.071-0.741
		c0.067-0.406,0.39-1.886,0.967-4.438c0.437-1.828,0.712-3.022,0.826-3.585c0.286-1.374,0.49-2.481,0.612-3.321
		c0.029-0.183,0.043-0.361,0.043-0.538c0-0.189-0.046-0.323-0.137-0.4c-0.092-0.078-0.28-0.117-0.564-0.117l-0.935-0.01l0.049-0.417
		c0.634-0.068,1.187-0.165,1.656-0.288c0.469-0.124,0.978-0.302,1.527-0.535l0.264,0.162c-0.136,0.617-0.63,2.938-1.483,6.962
		c-0.69,3.26-1.087,5.258-1.188,5.996c-0.021,0.129-0.031,0.241-0.031,0.336c0,0.143,0.034,0.254,0.102,0.335
		c0.067,0.082,0.142,0.122,0.224,0.122c0.061,0,0.128-0.017,0.203-0.05c0.149-0.061,0.409-0.212,0.782-0.453L65.604,233.833z"/>
	<path fill="#231F20" d="M66.672,239.81l1.006-0.682l0.214,0.071c-0.014,0.129-0.021,0.234-0.021,0.315
		c0,0.42,0.13,0.766,0.391,1.036c0.261,0.271,0.578,0.407,0.95,0.407c0.244,0,0.5-0.063,0.768-0.188s0.51-0.316,0.727-0.574
		c0.292-0.339,0.61-0.893,0.956-1.661c0.345-0.77,0.735-1.879,1.168-3.329l0.786-2.825c-0.494,0.752-0.998,1.406-1.512,1.962
		c-0.887,0.976-1.474,1.55-1.761,1.723c-0.288,0.173-0.526,0.259-0.716,0.259c-0.217,0-0.399-0.111-0.548-0.335
		c-0.237-0.339-0.355-0.834-0.355-1.484c0-0.257,0.047-0.799,0.142-1.626c0.163-1.483,0.244-2.791,0.244-3.923
		c0-0.454-0.024-0.783-0.071-0.986c-0.027-0.128-0.075-0.224-0.142-0.284c-0.048-0.041-0.105-0.061-0.173-0.061
		c-0.204,0-0.63,0.25-1.281,0.752c-0.115,0.088-0.2,0.148-0.254,0.183l-0.274-0.366c0.792-0.677,1.524-1.226,2.195-1.646
		c0.379-0.236,0.681-0.355,0.904-0.355c0.196,0,0.354,0.085,0.473,0.255c0.119,0.169,0.178,0.516,0.178,1.037
		c0,0.441-0.061,1.371-0.183,2.788c-0.149,1.662-0.224,2.866-0.224,3.612c0,0.347,0.041,0.58,0.122,0.702
		c0.067,0.089,0.159,0.133,0.273,0.133s0.229-0.031,0.345-0.092c0.256-0.143,0.562-0.396,0.917-0.764
		c0.355-0.366,0.691-0.786,1.008-1.262c0.527-0.773,0.973-1.669,1.338-2.687c0.23-0.617,0.539-1.736,0.925-3.357
		c0.4-0.062,0.912-0.189,1.535-0.387l0.224,0.203c-0.189,0.4-0.376,0.871-0.559,1.413c-0.319,0.922-0.756,2.338-1.311,4.248
		c-0.447,1.552-0.783,2.652-1.006,3.304c-0.413,1.246-0.841,2.263-1.285,3.049c-0.443,0.785-0.984,1.483-1.621,2.093
		c-0.475,0.461-0.95,0.795-1.428,1.002c-0.478,0.206-0.93,0.31-1.356,0.31c-0.298,0-0.593-0.073-0.884-0.219
		c-0.292-0.146-0.51-0.346-0.656-0.6c-0.146-0.254-0.218-0.526-0.218-0.818C66.622,240.053,66.639,239.938,66.672,239.81z"/>
	<path fill="#231F20" d="M80.839,235.673c-0.217-0.23-0.347-0.388-0.391-0.473s-0.066-0.164-0.066-0.239
		c0-0.121,0.054-0.271,0.163-0.446c0.189-0.292,0.6-0.715,1.229-1.271c-0.189,0.007-0.349,0.01-0.478,0.01
		c-0.847,0-1.498-0.22-1.951-0.66c-0.454-0.44-0.681-1.061-0.681-1.86c0-0.799,0.188-1.543,0.564-2.23
		c0.376-0.688,0.94-1.249,1.692-1.683s1.524-0.65,2.317-0.65c0.637,0,1.165,0.115,1.585,0.346c0.318,0.177,0.589,0.44,0.813,0.793
		c0.623-0.021,0.962-0.03,1.016-0.03c0.19-0.021,0.437-0.055,0.742-0.102l0.041,0.051l-0.163,1.016
		c-0.19-0.013-0.353-0.02-0.488-0.02c-0.224,0-0.508,0.014-0.854,0.04c0.027,0.23,0.041,0.427,0.041,0.59
		c0,0.461-0.064,0.872-0.193,1.234s-0.29,0.694-0.482,0.996c-0.193,0.302-0.41,0.569-0.651,0.803
		c-0.24,0.234-0.559,0.463-0.955,0.687s-0.794,0.383-1.194,0.478c-0.379,0.359-0.569,0.667-0.569,0.925
		c0,0.251,0.098,0.487,0.294,0.711c0.197,0.23,0.803,0.767,1.819,1.606c0.562,0.461,0.938,0.87,1.128,1.229
		c0.19,0.359,0.285,0.708,0.285,1.047c0,0.454-0.157,0.916-0.473,1.388c-0.315,0.471-0.882,0.887-1.702,1.25
		c-0.82,0.362-1.782,0.543-2.886,0.543c-1.254,0-2.172-0.237-2.754-0.711c-0.583-0.475-0.874-1.061-0.874-1.759
		c0-0.427,0.119-0.856,0.355-1.29c0.237-0.434,0.681-0.859,1.332-1.275C79.101,236.298,79.897,235.951,80.839,235.673z
		 M81.165,236.039c-0.597,0.148-1.148,0.388-1.657,0.716c-0.508,0.329-0.871,0.687-1.087,1.072
		c-0.217,0.387-0.325,0.783-0.325,1.189c0,0.609,0.242,1.123,0.727,1.54c0.484,0.416,1.194,0.625,2.129,0.625
		c1.03,0,1.85-0.237,2.459-0.712c0.447-0.346,0.671-0.772,0.671-1.28c0-0.265-0.069-0.528-0.208-0.793
		c-0.139-0.265-0.368-0.532-0.686-0.803L81.165,236.039z M80.138,230.348c0,0.738,0.174,1.296,0.523,1.672s0.815,0.563,1.397,0.563
		c0.508,0,0.942-0.152,1.301-0.457c0.359-0.305,0.632-0.759,0.818-1.362c0.186-0.603,0.279-1.206,0.279-1.809
		c0-0.712-0.166-1.247-0.498-1.605c-0.332-0.359-0.779-0.539-1.341-0.539c-0.807,0-1.421,0.349-1.845,1.047
		S80.138,229.386,80.138,230.348z"/>
	<path fill="#231F20" d="M88.004,233.139c0-0.834,0.088-1.615,0.264-2.345c0.176-0.729,0.42-1.361,0.732-1.897
		c0.312-0.535,0.694-1.009,1.148-1.419c0.454-0.41,0.965-0.739,1.534-0.986c0.569-0.248,1.118-0.372,1.646-0.372
		c0.488,0,0.952,0.107,1.393,0.32c0.44,0.214,0.783,0.547,1.026,0.997c0.244,0.451,0.366,1.07,0.366,1.857
		c0,1.044-0.207,2.089-0.62,3.133c-0.332,0.827-0.711,1.497-1.138,2.01c-0.427,0.512-0.978,0.949-1.652,1.312
		c-0.674,0.362-1.347,0.544-2.017,0.544c-0.813,0-1.464-0.263-1.952-0.789C88.248,234.979,88.004,234.19,88.004,233.139z
		 M89.609,232.997c0,0.651,0.071,1.146,0.214,1.485c0.143,0.34,0.358,0.597,0.647,0.773s0.633,0.265,1.034,0.265
		c0.441,0,0.823-0.115,1.146-0.346c0.323-0.23,0.642-0.655,0.958-1.272c0.315-0.617,0.545-1.345,0.688-2.183
		s0.214-1.589,0.214-2.254c0-0.848-0.156-1.494-0.469-1.938c-0.312-0.444-0.774-0.666-1.385-0.666c-0.978,0-1.729,0.583-2.256,1.75
		S89.609,231.24,89.609,232.997z"/>
	<path fill="#231F20" d="M98.238,236.222l-0.117-0.173c0.31-1.437,0.688-3.15,1.132-5.143c0.333-1.464,0.5-2.422,0.5-2.876
		c0-0.149-0.025-0.253-0.076-0.311c-0.051-0.057-0.124-0.086-0.218-0.086c-0.087,0-0.178,0.014-0.273,0.04
		c-0.182,0.061-0.407,0.164-0.676,0.312l-0.862,0.522l-0.142-0.406l0.945-0.701c0.366-0.258,0.75-0.498,1.153-0.722
		c0.403-0.224,0.7-0.362,0.889-0.417c0.095-0.034,0.197-0.051,0.305-0.051c0.142,0,0.254,0.044,0.335,0.132
		c0.102,0.129,0.152,0.292,0.152,0.488c0,0.129-0.014,0.288-0.041,0.478c-0.055,0.298-0.183,0.857-0.386,1.677l-0.458,1.88
		l0.071,0.021c0.589-0.962,1.27-1.813,2.042-2.556s1.582-1.307,2.429-1.692c0.61-0.277,1.063-0.417,1.362-0.417
		c0.183,0,0.33,0.059,0.442,0.174s0.168,0.281,0.168,0.498c0,0.468-0.234,1.607-0.704,3.419c-0.63,2.415-0.945,3.836-0.945,4.263
		c0,0.137,0.025,0.233,0.077,0.291s0.118,0.086,0.199,0.086c0.102,0,0.266-0.058,0.491-0.173c0.47-0.264,0.902-0.549,1.297-0.854
		l0.174,0.406c-0.58,0.468-1.053,0.823-1.421,1.067c-0.661,0.42-1.148,0.691-1.462,0.813c-0.129,0.054-0.265,0.081-0.408,0.081
		c-0.189,0-0.34-0.063-0.452-0.188s-0.167-0.317-0.167-0.575c0-0.203,0.027-0.454,0.081-0.753c0.102-0.516,0.356-1.563,0.762-3.144
		c0.499-1.913,0.749-3.083,0.749-3.511c0-0.203-0.034-0.344-0.102-0.422c-0.068-0.078-0.163-0.117-0.285-0.117
		c-0.224,0-0.494,0.088-0.812,0.264c-0.521,0.278-1.063,0.707-1.625,1.286s-1.029,1.196-1.402,1.85
		c-0.373,0.654-0.701,1.496-0.985,2.525c-0.101,0.387-0.255,1.183-0.464,2.389C99.073,235.978,98.648,236.086,98.238,236.222z"/>
	<path fill="#231F20" d="M116.725,233.895l0.112,0.437l-1.439,1.179c-0.454,0.346-0.815,0.58-1.084,0.702
		c-0.089,0.047-0.172,0.07-0.249,0.07c-0.115,0-0.228-0.064-0.336-0.193c-0.109-0.128-0.163-0.288-0.163-0.478
		c0-0.719,0.22-1.916,0.66-3.592l-0.057-0.03c-0.527,0.719-0.941,1.248-1.243,1.587c-0.548,0.631-1.104,1.177-1.67,1.639
		c-0.565,0.461-1.08,0.793-1.543,0.996c-0.133,0.055-0.26,0.082-0.379,0.082c-0.189,0-0.34-0.089-0.453-0.265
		c-0.189-0.285-0.284-0.767-0.284-1.444c0-0.868,0.161-1.886,0.484-3.053c0.323-1.166,0.706-2.18,1.15-3.041
		c0.222-0.435,0.538-0.804,0.947-1.109c0.673-0.502,1.28-0.852,1.821-1.048c0.368-0.129,0.774-0.193,1.218-0.193
		c0.306,0,0.592,0.023,0.859,0.071s0.609,0.146,1.025,0.295l0.666-0.387l0.224,0.184c-0.433,1.499-0.814,2.917-1.146,4.253
		c-0.258,0.801-0.435,1.4-0.53,1.801c-0.164,0.631-0.293,1.231-0.388,1.801c-0.014,0.109-0.021,0.2-0.021,0.275
		c0,0.136,0.027,0.24,0.082,0.315c0.047,0.048,0.112,0.071,0.193,0.071c0.108,0,0.249-0.044,0.422-0.133
		C115.775,234.599,116.149,234.335,116.725,233.895z M115.229,227.512c-0.26-0.122-0.535-0.212-0.823-0.27s-0.591-0.086-0.908-0.086
		c-0.612,0-1.077,0.098-1.394,0.295c-0.147,0.088-0.31,0.312-0.485,0.67c-0.359,0.719-0.668,1.521-0.929,2.409
		c-0.408,1.382-0.612,2.599-0.612,3.648c0,0.183,0.016,0.318,0.047,0.406c0.032,0.089,0.079,0.154,0.143,0.198
		c0.063,0.045,0.123,0.066,0.179,0.066c0.134,0,0.338-0.088,0.612-0.265c0.542-0.358,1.112-0.874,1.71-1.545
		c0.598-0.67,1.091-1.433,1.478-2.286C114.635,229.9,114.962,228.819,115.229,227.512z"/>
	<path fill="#231F20" d="M122.254,233.833l0.173,0.407c-0.176,0.155-0.589,0.469-1.24,0.939s-1.179,0.791-1.585,0.961
		c-0.196,0.088-0.379,0.132-0.549,0.132c-0.189,0-0.34-0.069-0.452-0.208s-0.167-0.357-0.167-0.655c0-0.25,0.023-0.497,0.071-0.741
		c0.067-0.406,0.39-1.886,0.967-4.438c0.437-1.828,0.712-3.022,0.826-3.585c0.286-1.374,0.49-2.481,0.612-3.321
		c0.029-0.183,0.043-0.361,0.043-0.538c0-0.189-0.046-0.323-0.137-0.4c-0.092-0.078-0.28-0.117-0.564-0.117l-0.935-0.01l0.049-0.417
		c0.634-0.068,1.187-0.165,1.656-0.288c0.469-0.124,0.978-0.302,1.527-0.535l0.264,0.162c-0.136,0.617-0.63,2.938-1.483,6.962
		c-0.69,3.26-1.087,5.258-1.188,5.996c-0.021,0.129-0.031,0.241-0.031,0.336c0,0.143,0.034,0.254,0.102,0.335
		c0.067,0.082,0.142,0.122,0.224,0.122c0.061,0,0.128-0.017,0.203-0.05c0.149-0.061,0.409-0.212,0.782-0.453L122.254,233.833z"/>
	<path fill="#231F20" d="M138.047,233.803l0.193,0.376c-0.401,0.359-0.864,0.729-1.39,1.107c-0.526,0.38-0.979,0.651-1.359,0.813
		c-0.21,0.095-0.373,0.143-0.488,0.143c-0.122,0-0.233-0.069-0.335-0.209c-0.102-0.139-0.152-0.37-0.152-0.695
		c0-0.217,0.022-0.456,0.066-0.717c0.044-0.261,0.252-1.208,0.625-2.841l-0.056-0.01c-0.507,0.867-1.123,1.677-1.847,2.429
		s-1.434,1.317-2.13,1.697c-0.44,0.237-0.795,0.355-1.065,0.355s-0.494-0.198-0.669-0.595c-0.176-0.396-0.264-0.882-0.264-1.458
		c0-0.793,0.117-1.679,0.351-2.658c0.234-0.979,0.537-1.827,0.909-2.546c0.284-0.549,0.609-0.992,0.975-1.331
		c0.575-0.528,1.232-0.959,1.971-1.291c0.359-0.155,0.751-0.233,1.178-0.233c0.338,0,0.894,0.081,1.666,0.244l0.524-2.545
		c0.111-0.548,0.167-0.889,0.167-1.024c0-0.209-0.042-0.354-0.127-0.436c-0.085-0.081-0.256-0.121-0.513-0.121l-0.996-0.011
		l0.051-0.417c0.833-0.107,1.429-0.216,1.788-0.325c0.359-0.107,0.8-0.308,1.326-0.6l0.254,0.204
		c-0.108,0.406-0.293,1.276-0.557,2.611c-0.162,0.854-0.604,3.005-1.327,6.454c-0.358,1.7-0.588,2.893-0.689,3.577
		c-0.027,0.217-0.041,0.413-0.041,0.59c0,0.183,0.027,0.31,0.082,0.381s0.125,0.106,0.214,0.106c0.122,0,0.292-0.067,0.509-0.203
		C137.342,234.355,137.729,234.081,138.047,233.803z M136.021,227.562c-0.63-0.332-1.283-0.498-1.96-0.498
		c-0.495,0-0.901,0.071-1.219,0.214c-0.224,0.095-0.421,0.256-0.594,0.482c-0.172,0.228-0.389,0.71-0.65,1.448
		s-0.459,1.399-0.594,1.981c-0.223,0.956-0.335,1.837-0.335,2.643c0,0.305,0.02,0.522,0.061,0.65
		c0.041,0.129,0.093,0.217,0.157,0.265s0.144,0.071,0.239,0.071c0.169,0,0.352-0.048,0.548-0.143
		c0.521-0.258,1.02-0.609,1.498-1.057c0.477-0.447,0.907-0.962,1.29-1.545s0.688-1.21,0.919-1.88
		C135.543,229.721,135.756,228.843,136.021,227.562z"/>
	<path fill="#231F20" d="M139.978,228.478l-0.172-0.407c1.196-0.833,1.997-1.348,2.402-1.544c0.405-0.197,0.723-0.295,0.953-0.295
		c0.128,0,0.227,0.044,0.294,0.132c0.095,0.129,0.142,0.315,0.142,0.559c0,0.115-0.024,0.278-0.071,0.488
		c-0.088,0.406-0.274,1.148-0.559,2.226c-0.735,2.744-1.102,4.363-1.102,4.858c0,0.142,0.025,0.245,0.077,0.31
		c0.051,0.064,0.12,0.097,0.208,0.097c0.136,0,0.308-0.049,0.515-0.147c0.207-0.098,0.585-0.351,1.135-0.757l0.204,0.406
		c-1.1,0.84-1.927,1.402-2.484,1.688c-0.265,0.135-0.485,0.203-0.662,0.203c-0.169,0-0.32-0.078-0.452-0.234
		c-0.132-0.155-0.198-0.372-0.198-0.65c0-0.217,0.023-0.457,0.071-0.722c0.047-0.264,0.166-0.741,0.356-1.433
		c0.79-2.846,1.185-4.607,1.185-5.285c0-0.142-0.019-0.238-0.056-0.289s-0.089-0.076-0.157-0.076c-0.081,0-0.179,0.023-0.293,0.071
		C141.259,227.701,140.814,227.969,139.978,228.478z M142.59,222.715c0-0.38,0.119-0.699,0.356-0.961
		c0.237-0.261,0.508-0.391,0.813-0.391c0.237,0,0.425,0.072,0.564,0.218c0.139,0.146,0.208,0.348,0.208,0.605
		c0,0.353-0.102,0.676-0.305,0.971c-0.203,0.294-0.474,0.441-0.813,0.441c-0.237,0-0.434-0.081-0.589-0.243
		C142.668,223.192,142.59,222.979,142.59,222.715z"/>
	<path fill="#231F20" d="M145.07,235.815c0.156-0.698,0.261-1.22,0.315-1.565s0.095-0.738,0.122-1.179h0.508l-0.01,1.707
		c0.325,0.265,0.626,0.454,0.904,0.569c0.366,0.149,0.735,0.224,1.108,0.224c0.454,0,0.867-0.099,1.24-0.295
		s0.656-0.473,0.849-0.828c0.193-0.355,0.29-0.743,0.29-1.164c0-0.298-0.059-0.556-0.178-0.772s-0.269-0.367-0.452-0.452
		c-0.183-0.084-0.573-0.171-1.169-0.259c-0.854-0.129-1.437-0.271-1.748-0.427c-0.312-0.156-0.557-0.395-0.737-0.717
		c-0.18-0.321-0.269-0.689-0.269-1.103c0-0.387,0.076-0.742,0.229-1.067s0.379-0.628,0.681-0.909
		c0.302-0.281,0.656-0.544,1.062-0.788c0.406-0.244,0.76-0.413,1.062-0.508c0.301-0.095,0.652-0.143,1.052-0.143
		c0.393,0,0.76,0.042,1.103,0.127s0.662,0.216,0.96,0.392c-0.095,0.318-0.163,0.6-0.203,0.844c-0.027,0.148-0.085,0.657-0.173,1.524
		h-0.478c-0.007-0.556-0.017-0.973-0.031-1.25c-0.237-0.265-0.517-0.461-0.838-0.59s-0.683-0.193-1.083-0.193
		c-0.637,0-1.15,0.184-1.54,0.549c-0.39,0.366-0.584,0.81-0.584,1.332c0,0.413,0.129,0.741,0.386,0.985
		c0.25,0.251,0.769,0.436,1.555,0.554c0.786,0.119,1.311,0.229,1.575,0.33c0.393,0.156,0.691,0.38,0.895,0.671
		c0.203,0.292,0.305,0.641,0.305,1.047c0,0.481-0.11,0.938-0.33,1.372c-0.22,0.434-0.556,0.839-1.006,1.215s-0.935,0.692-1.453,0.95
		c-0.519,0.258-1.086,0.386-1.703,0.386c-0.373,0-0.725-0.042-1.057-0.127C145.897,236.173,145.511,236.025,145.07,235.815z"/>
	<path fill="#231F20" d="M153.326,236.231l-0.173-0.132c0.434-1.707,0.712-2.825,0.834-3.354c0.427-1.891,0.875-4.086,1.342-6.586
		c0.32-1.416,0.532-2.483,0.636-3.201c0.024-0.136,0.036-0.237,0.036-0.306c0-0.128-0.029-0.227-0.086-0.294
		c-0.058-0.068-0.144-0.112-0.259-0.133c-0.115-0.02-0.581-0.03-1.398-0.03l0.089-0.396c0.986-0.162,1.656-0.291,2.011-0.386
		s0.756-0.24,1.203-0.438l0.265,0.234c-0.163,0.637-0.302,1.213-0.418,1.728l-0.967,4.654c-0.354,1.626-0.628,2.839-0.825,3.639
		c0.4-0.569,0.946-1.264,1.638-2.083c0.691-0.82,1.318-1.46,1.881-1.921c0.562-0.461,1.041-0.771,1.434-0.931
		c0.393-0.159,0.715-0.238,0.966-0.238c0.183,0,0.42,0.051,0.712,0.152l-0.346,1.433c-0.319-0.095-0.604-0.142-0.854-0.142
		c-0.359,0-0.713,0.069-1.063,0.208c-0.349,0.14-0.758,0.399-1.226,0.779c-0.292,0.224-0.682,0.583-1.17,1.078
		c0.38,1.146,0.797,2.262,1.251,3.344c0.454,1.082,0.787,1.725,0.997,1.928c0.115,0.103,0.234,0.153,0.356,0.153
		c0.061,0,0.136-0.014,0.224-0.041c0.142-0.054,0.302-0.129,0.478-0.224l0.732-0.437l0.163,0.386
		c-1.044,0.766-1.729,1.236-2.055,1.413c-0.237,0.135-0.427,0.203-0.569,0.203c-0.075,0-0.146-0.021-0.214-0.062
		c-0.129-0.088-0.283-0.292-0.463-0.61c-0.18-0.319-0.473-0.984-0.88-1.996c-0.176-0.441-0.525-1.405-1.047-2.892
		c-0.475,0.576-0.769,0.959-0.88,1.148c-0.112,0.189-0.209,0.403-0.29,0.641c-0.115,0.346-0.234,0.837-0.356,1.474l-0.326,1.87
		L153.326,236.231z"/>
</g>
<g enable-background="new    ">
	<path fill="#231F20" d="M472.972,241.75l-0.114-0.122c0.301-1.585,0.533-2.865,0.698-3.841c0.513-2.792,0.894-4.956,1.144-6.495
		c0.191-0.955,0.354-1.975,0.488-3.059c0.024-0.163,0.037-0.284,0.037-0.366c0-0.108-0.027-0.192-0.082-0.254
		c-0.054-0.061-0.118-0.092-0.193-0.092c-0.041,0-0.088,0.007-0.143,0.021s-0.145,0.053-0.27,0.117
		c-0.126,0.064-0.321,0.178-0.586,0.341l-0.805,0.508l-0.203-0.387c0.775-0.65,1.534-1.175,2.277-1.575
		c0.514-0.264,0.896-0.396,1.143-0.396c0.147,0,0.263,0.041,0.346,0.122c0.084,0.082,0.126,0.2,0.126,0.356
		c0,0.081-0.007,0.188-0.021,0.319c-0.014,0.133-0.051,0.389-0.111,0.768c-0.103,0.583-0.168,0.938-0.194,1.067
		c-0.13,0.623-0.208,1.023-0.235,1.199c0.576-0.948,1.187-1.707,1.83-2.276c0.645-0.569,1.285-0.986,1.922-1.25
		c0.481-0.196,0.892-0.295,1.23-0.295c0.258,0,0.463,0.061,0.615,0.183s0.291,0.38,0.416,0.772c0.126,0.394,0.188,0.848,0.188,1.362
		c0,0.84-0.19,1.812-0.569,2.917c-0.299,0.881-0.643,1.595-1.033,2.144c-0.39,0.549-0.927,1.056-1.611,1.52
		c-0.686,0.465-1.343,0.822-1.974,1.072c-0.244,0.095-0.475,0.143-0.691,0.143c-0.156,0-0.309-0.016-0.458-0.046
		s-0.444-0.113-0.885-0.249c-0.075,0.521-0.211,1.376-0.408,2.562l-0.449,2.876C473.744,241.51,473.27,241.622,472.972,241.75z
		 M475.458,234.829c0.562,0.325,1.146,0.488,1.749,0.488c0.51,0,0.928-0.107,1.257-0.32c0.329-0.214,0.643-0.574,0.94-1.082
		c0.476-0.813,0.845-1.699,1.109-2.658s0.396-1.794,0.396-2.505c0-0.604-0.061-0.991-0.183-1.164s-0.298-0.259-0.528-0.259
		c-0.326,0-0.672,0.088-1.038,0.264c-0.366,0.177-0.735,0.444-1.108,0.803c-0.481,0.468-0.908,1.028-1.281,1.683
		c-0.373,0.653-0.658,1.397-0.854,2.23C475.85,232.601,475.695,233.44,475.458,234.829z"/>
	<path fill="#231F20" d="M483.665,233.139c0-0.834,0.088-1.615,0.265-2.345c0.176-0.729,0.42-1.361,0.731-1.897
		c0.312-0.535,0.694-1.009,1.148-1.419s0.966-0.739,1.534-0.986c0.569-0.248,1.118-0.372,1.646-0.372
		c0.488,0,0.952,0.107,1.393,0.32c0.44,0.214,0.783,0.547,1.026,0.997c0.244,0.451,0.366,1.07,0.366,1.857
		c0,1.044-0.207,2.089-0.62,3.133c-0.332,0.827-0.712,1.497-1.138,2.01c-0.428,0.512-0.979,0.949-1.652,1.312
		c-0.674,0.362-1.347,0.544-2.018,0.544c-0.812,0-1.463-0.263-1.951-0.789C483.908,234.979,483.665,234.19,483.665,233.139z
		 M485.271,232.997c0,0.651,0.071,1.146,0.214,1.485c0.143,0.34,0.358,0.597,0.646,0.773c0.289,0.177,0.633,0.265,1.034,0.265
		c0.44,0,0.823-0.115,1.146-0.346s0.642-0.655,0.957-1.272c0.316-0.617,0.545-1.345,0.688-2.183s0.215-1.589,0.215-2.254
		c0-0.848-0.156-1.494-0.469-1.938s-0.774-0.666-1.385-0.666c-0.979,0-1.73,0.583-2.256,1.75
		C485.533,229.778,485.271,231.24,485.271,232.997z"/>
	<path fill="#231F20" d="M497.101,233.833l0.173,0.407c-0.176,0.155-0.59,0.469-1.24,0.939s-1.178,0.791-1.584,0.961
		c-0.197,0.088-0.38,0.132-0.549,0.132c-0.189,0-0.341-0.069-0.453-0.208c-0.111-0.139-0.167-0.357-0.167-0.655
		c0-0.25,0.023-0.497,0.071-0.741c0.067-0.406,0.391-1.886,0.967-4.438c0.438-1.828,0.713-3.022,0.826-3.585
		c0.287-1.374,0.49-2.481,0.612-3.321c0.028-0.183,0.043-0.361,0.043-0.538c0-0.189-0.046-0.323-0.138-0.4
		c-0.092-0.078-0.279-0.117-0.563-0.117l-0.935-0.01l0.049-0.417c0.635-0.068,1.187-0.165,1.656-0.288
		c0.469-0.124,0.978-0.302,1.526-0.535l0.265,0.162c-0.137,0.617-0.631,2.938-1.484,6.962c-0.689,3.26-1.086,5.258-1.188,5.996
		c-0.021,0.129-0.031,0.241-0.031,0.336c0,0.143,0.034,0.254,0.102,0.335c0.068,0.082,0.143,0.122,0.225,0.122
		c0.061,0,0.128-0.017,0.203-0.05c0.148-0.061,0.408-0.212,0.781-0.453L497.101,233.833z"/>
	<path fill="#231F20" d="M498.168,239.81l1.006-0.682l0.215,0.071c-0.014,0.129-0.021,0.234-0.021,0.315
		c0,0.42,0.131,0.766,0.392,1.036c0.261,0.271,0.577,0.407,0.95,0.407c0.244,0,0.5-0.063,0.768-0.188s0.51-0.316,0.727-0.574
		c0.291-0.339,0.609-0.893,0.955-1.661c0.346-0.77,0.735-1.879,1.169-3.329l0.786-2.825c-0.494,0.752-0.998,1.406-1.512,1.962
		c-0.887,0.976-1.475,1.55-1.762,1.723c-0.288,0.173-0.526,0.259-0.716,0.259c-0.217,0-0.399-0.111-0.548-0.335
		c-0.237-0.339-0.355-0.834-0.355-1.484c0-0.257,0.047-0.799,0.143-1.626c0.162-1.483,0.244-2.791,0.244-3.923
		c0-0.454-0.024-0.783-0.072-0.986c-0.027-0.128-0.074-0.224-0.142-0.284c-0.048-0.041-0.105-0.061-0.173-0.061
		c-0.203,0-0.631,0.25-1.281,0.752c-0.115,0.088-0.199,0.148-0.254,0.183l-0.273-0.366c0.792-0.677,1.523-1.226,2.195-1.646
		c0.379-0.236,0.68-0.355,0.904-0.355c0.195,0,0.354,0.085,0.473,0.255c0.118,0.169,0.178,0.516,0.178,1.037
		c0,0.441-0.062,1.371-0.184,2.788c-0.148,1.662-0.223,2.866-0.223,3.612c0,0.347,0.04,0.58,0.121,0.702
		c0.067,0.089,0.158,0.133,0.273,0.133s0.229-0.031,0.345-0.092c0.257-0.143,0.562-0.396,0.917-0.764
		c0.355-0.366,0.691-0.786,1.008-1.262c0.527-0.773,0.973-1.669,1.338-2.687c0.23-0.617,0.539-1.736,0.926-3.357
		c0.4-0.062,0.912-0.189,1.535-0.387l0.224,0.203c-0.189,0.4-0.376,0.871-0.559,1.413c-0.319,0.922-0.756,2.338-1.312,4.248
		c-0.447,1.552-0.782,2.652-1.006,3.304c-0.413,1.246-0.842,2.263-1.285,3.049c-0.443,0.785-0.984,1.483-1.621,2.093
		c-0.475,0.461-0.949,0.795-1.428,1.002c-0.478,0.206-0.93,0.31-1.356,0.31c-0.298,0-0.593-0.073-0.884-0.219
		c-0.292-0.146-0.51-0.346-0.656-0.6c-0.146-0.254-0.219-0.526-0.219-0.818C498.117,240.053,498.135,239.938,498.168,239.81z"/>
	<path fill="#231F20" d="M509.151,236.242l-0.125-0.143c0.455-1.931,0.828-3.563,1.119-4.898c0.376-1.674,0.7-3.266,0.97-4.777
		c0.271-1.511,0.461-2.659,0.57-3.445c0.014-0.114,0.021-0.216,0.021-0.305c0-0.128-0.025-0.225-0.077-0.289
		c-0.051-0.064-0.144-0.108-0.278-0.133c-0.136-0.023-0.576-0.035-1.32-0.035l0.046-0.417c1.376-0.244,2.375-0.528,2.999-0.854
		l0.203,0.203c-0.105,0.516-0.182,0.908-0.227,1.179l-0.738,4.106l-0.681,3.953l0.071,0.041c0.542-0.691,0.973-1.21,1.291-1.555
		c0.549-0.604,1.105-1.108,1.672-1.515c0.565-0.406,1.14-0.715,1.723-0.925c0.406-0.143,0.718-0.214,0.935-0.214
		c0.155,0,0.29,0.059,0.401,0.174s0.168,0.261,0.168,0.438c0,0.135-0.018,0.288-0.051,0.457c-0.047,0.23-0.189,0.821-0.427,1.771
		c-0.435,1.724-0.778,3.195-1.028,4.416c-0.115,0.557-0.173,0.92-0.173,1.089c0,0.102,0.025,0.182,0.076,0.239
		s0.114,0.087,0.188,0.087c0.258,0,0.844-0.346,1.76-1.037l0.203,0.376c-0.367,0.312-0.854,0.673-1.461,1.082
		c-0.607,0.41-1.124,0.71-1.552,0.9c-0.122,0.054-0.231,0.081-0.325,0.081c-0.129,0-0.244-0.068-0.347-0.204
		c-0.102-0.135-0.152-0.353-0.152-0.65c0-0.271,0.071-0.699,0.214-1.282l0.764-3.256c0.273-1.14,0.455-1.981,0.543-2.523
		c0.026-0.17,0.04-0.306,0.04-0.407c0-0.115-0.034-0.205-0.102-0.27s-0.166-0.097-0.295-0.097c-0.204,0-0.417,0.058-0.641,0.173
		c-0.577,0.298-1.188,0.769-1.836,1.412s-1.153,1.323-1.516,2.038s-0.643,1.499-0.839,2.353l-0.453,2.327l-0.989,0.224
		C509.375,236.164,509.26,236.201,509.151,236.242z"/>
	<path fill="#231F20" d="M525.923,233.752l0.132,0.396c-0.779,0.711-1.549,1.247-2.312,1.605c-0.763,0.359-1.407,0.539-1.937,0.539
		c-0.346,0-0.709-0.09-1.092-0.27s-0.686-0.46-0.904-0.84c-0.221-0.38-0.331-0.919-0.331-1.617c0-0.767,0.129-1.612,0.386-2.538
		c0.258-0.926,0.516-1.619,0.773-2.081c0.257-0.461,0.609-0.871,1.057-1.23c0.616-0.509,1.273-0.926,1.972-1.252
		c0.487-0.23,0.958-0.346,1.413-0.346c0.508,0,0.926,0.136,1.254,0.407c0.329,0.271,0.494,0.651,0.494,1.14
		c0,0.353-0.073,0.702-0.219,1.048c-0.146,0.346-0.348,0.645-0.605,0.895c-0.359,0.347-0.857,0.669-1.494,0.967
		c-0.637,0.299-1.301,0.546-1.991,0.743l-1.321,0.315c-0.129,0.691-0.193,1.234-0.193,1.628c0,0.665,0.147,1.163,0.442,1.496
		c0.294,0.332,0.662,0.498,1.103,0.498c0.393,0,0.834-0.097,1.321-0.289C524.357,234.773,525.042,234.368,525.923,233.752z
		 M521.278,231.136c0.867-0.163,1.612-0.398,2.235-0.708c0.624-0.309,1.076-0.685,1.357-1.129s0.422-0.87,0.422-1.277
		c0-0.346-0.086-0.61-0.26-0.794c-0.172-0.184-0.397-0.274-0.676-0.274c-0.393,0-0.791,0.116-1.193,0.351
		c-0.403,0.234-0.727,0.585-0.971,1.054C521.949,228.825,521.645,229.752,521.278,231.136z"/>
	<path fill="#231F20" d="M536.604,233.803l0.193,0.376c-0.401,0.359-0.864,0.729-1.39,1.107c-0.526,0.38-0.979,0.651-1.359,0.813
		c-0.211,0.095-0.373,0.143-0.488,0.143c-0.122,0-0.234-0.069-0.336-0.209c-0.102-0.139-0.152-0.37-0.152-0.695
		c0-0.217,0.021-0.456,0.066-0.717c0.044-0.261,0.252-1.208,0.625-2.841l-0.056-0.01c-0.507,0.867-1.123,1.677-1.847,2.429
		s-1.434,1.317-2.131,1.697c-0.439,0.237-0.795,0.355-1.064,0.355c-0.271,0-0.494-0.198-0.67-0.595s-0.264-0.882-0.264-1.458
		c0-0.793,0.116-1.679,0.35-2.658c0.234-0.979,0.537-1.827,0.91-2.546c0.283-0.549,0.609-0.992,0.975-1.331
		c0.575-0.528,1.232-0.959,1.971-1.291c0.359-0.155,0.752-0.233,1.178-0.233c0.339,0,0.895,0.081,1.666,0.244l0.525-2.545
		c0.111-0.548,0.166-0.889,0.166-1.024c0-0.209-0.042-0.354-0.127-0.436c-0.084-0.081-0.256-0.121-0.513-0.121l-0.996-0.011
		l0.051-0.417c0.833-0.107,1.429-0.216,1.788-0.325c0.358-0.107,0.8-0.308,1.325-0.6l0.254,0.204
		c-0.108,0.406-0.294,1.276-0.558,2.611c-0.162,0.854-0.604,3.005-1.326,6.454c-0.358,1.7-0.588,2.893-0.689,3.577
		c-0.027,0.217-0.041,0.413-0.041,0.59c0,0.183,0.027,0.31,0.082,0.381c0.054,0.071,0.125,0.106,0.213,0.106
		c0.122,0,0.292-0.067,0.51-0.203C535.898,234.355,536.285,234.081,536.604,233.803z M534.578,227.562
		c-0.63-0.332-1.283-0.498-1.96-0.498c-0.495,0-0.901,0.071-1.219,0.214c-0.224,0.095-0.421,0.256-0.595,0.482
		c-0.172,0.228-0.389,0.71-0.649,1.448s-0.459,1.399-0.595,1.981c-0.223,0.956-0.334,1.837-0.334,2.643
		c0,0.305,0.02,0.522,0.061,0.65c0.041,0.129,0.093,0.217,0.157,0.265s0.144,0.071,0.239,0.071c0.168,0,0.352-0.048,0.548-0.143
		c0.521-0.258,1.021-0.609,1.497-1.057c0.478-0.447,0.908-0.962,1.29-1.545s0.688-1.21,0.919-1.88
		C534.1,229.721,534.313,228.843,534.578,227.562z"/>
	<path fill="#231F20" d="M538.818,236.272l-0.182-0.143c0.336-1.145,0.593-2.094,0.768-2.846c0.338-1.47,0.592-2.774,0.76-3.912
		c0.095-0.657,0.143-1.111,0.143-1.362c0-0.176-0.027-0.302-0.082-0.376c-0.035-0.055-0.089-0.081-0.164-0.081
		c-0.231,0-0.807,0.332-1.727,0.996l-0.246-0.336c0.918-0.759,1.719-1.321,2.405-1.687c0.476-0.258,0.829-0.387,1.06-0.387
		c0.123,0,0.221,0.041,0.296,0.122s0.112,0.207,0.112,0.376c0,0.183-0.047,0.515-0.143,0.996c-0.147,0.854-0.347,1.836-0.596,2.947
		c0.717-1.254,1.441-2.32,2.173-3.201c0.46-0.556,0.812-0.904,1.056-1.047c0.244-0.143,0.48-0.214,0.711-0.214
		c0.122,0,0.258,0.037,0.406,0.112c-0.115,0.596-0.23,1.345-0.346,2.246l-0.273,0.061c-0.203-0.271-0.431-0.406-0.681-0.406
		c-0.229,0-0.483,0.095-0.761,0.284c-0.447,0.299-0.909,0.809-1.387,1.53c-0.477,0.721-0.861,1.594-1.152,2.616
		c-0.161,0.556-0.414,1.674-0.758,3.354C539.602,236.052,539.137,236.171,538.818,236.272z"/>
	<path fill="#231F20" d="M545.742,233.139c0-0.834,0.088-1.615,0.264-2.345c0.176-0.729,0.42-1.361,0.732-1.897
		c0.311-0.535,0.693-1.009,1.148-1.419c0.453-0.41,0.965-0.739,1.533-0.986c0.57-0.248,1.119-0.372,1.646-0.372
		c0.488,0,0.953,0.107,1.393,0.32c0.441,0.214,0.783,0.547,1.027,0.997c0.244,0.451,0.365,1.07,0.365,1.857
		c0,1.044-0.207,2.089-0.619,3.133c-0.332,0.827-0.712,1.497-1.139,2.01c-0.428,0.512-0.978,0.949-1.652,1.312
		c-0.674,0.362-1.346,0.544-2.017,0.544c-0.813,0-1.464-0.263-1.952-0.789C545.985,234.979,545.742,234.19,545.742,233.139z
		 M547.348,232.997c0,0.651,0.07,1.146,0.213,1.485c0.144,0.34,0.359,0.597,0.647,0.773s0.633,0.265,1.034,0.265
		c0.44,0,0.822-0.115,1.145-0.346c0.323-0.23,0.643-0.655,0.958-1.272s0.545-1.345,0.688-2.183s0.214-1.589,0.214-2.254
		c0-0.848-0.156-1.494-0.469-1.938s-0.773-0.666-1.385-0.666c-0.979,0-1.729,0.583-2.256,1.75S547.348,231.24,547.348,232.997z"/>
	<path fill="#231F20" d="M555.976,236.222l-0.117-0.173c0.31-1.437,0.688-3.15,1.132-5.143c0.334-1.464,0.501-2.422,0.501-2.876
		c0-0.149-0.025-0.253-0.076-0.311c-0.052-0.057-0.124-0.086-0.218-0.086c-0.088,0-0.179,0.014-0.273,0.04
		c-0.182,0.061-0.407,0.164-0.676,0.312l-0.862,0.522l-0.142-0.406l0.945-0.701c0.365-0.258,0.75-0.498,1.153-0.722
		s0.7-0.362,0.89-0.417c0.094-0.034,0.196-0.051,0.305-0.051c0.143,0,0.254,0.044,0.336,0.132c0.102,0.129,0.152,0.292,0.152,0.488
		c0,0.129-0.014,0.288-0.041,0.478c-0.055,0.298-0.184,0.857-0.387,1.677l-0.457,1.88l0.071,0.021
		c0.589-0.962,1.271-1.813,2.042-2.556c0.773-0.742,1.582-1.307,2.43-1.692c0.609-0.277,1.063-0.417,1.361-0.417
		c0.184,0,0.33,0.059,0.442,0.174s0.168,0.281,0.168,0.498c0,0.468-0.234,1.607-0.704,3.419c-0.629,2.415-0.944,3.836-0.944,4.263
		c0,0.137,0.025,0.233,0.077,0.291c0.051,0.058,0.117,0.086,0.199,0.086c0.102,0,0.266-0.058,0.49-0.173
		c0.47-0.264,0.902-0.549,1.297-0.854l0.174,0.406c-0.579,0.468-1.053,0.823-1.421,1.067c-0.661,0.42-1.148,0.691-1.462,0.813
		c-0.129,0.054-0.266,0.081-0.408,0.081c-0.189,0-0.34-0.063-0.451-0.188c-0.112-0.125-0.168-0.317-0.168-0.575
		c0-0.203,0.027-0.454,0.081-0.753c0.102-0.516,0.356-1.563,0.763-3.144c0.498-1.913,0.748-3.083,0.748-3.511
		c0-0.203-0.034-0.344-0.102-0.422c-0.068-0.078-0.162-0.117-0.285-0.117c-0.223,0-0.494,0.088-0.812,0.264
		c-0.521,0.278-1.062,0.707-1.625,1.286s-1.029,1.196-1.402,1.85c-0.372,0.654-0.7,1.496-0.984,2.525
		c-0.102,0.387-0.256,1.183-0.465,2.389C556.811,235.978,556.386,236.086,555.976,236.222z"/>
</g>
<g enable-background="new    ">
	<path fill="#231F20" d="M285.536,238.151c-0.393-0.528-0.779-1.167-1.159-1.915c-0.379-0.749-0.657-1.376-0.833-1.881
		s-0.32-1.08-0.432-1.728c-0.112-0.646-0.167-1.316-0.167-2.007c0-1.891,0.479-3.659,1.438-5.306
		c0.959-1.646,2.245-3.147,3.857-4.502l0.427,0.447c-0.996,1.084-1.751,2.049-2.266,2.896c-0.657,1.07-1.152,2.205-1.484,3.404
		s-0.498,2.564-0.498,4.096c0,0.847,0.059,1.621,0.178,2.322s0.296,1.391,0.534,2.068c0.169,0.468,0.444,1.07,0.823,1.809
		L285.536,238.151z"/>
	<path fill="#231F20" d="M290.119,236.221l-0.117-0.173c0.31-1.437,0.688-3.15,1.132-5.143c0.333-1.464,0.5-2.422,0.5-2.876
		c0-0.149-0.025-0.253-0.076-0.311c-0.051-0.057-0.124-0.086-0.218-0.086c-0.087,0-0.178,0.014-0.273,0.04
		c-0.182,0.061-0.407,0.164-0.676,0.312l-0.862,0.522l-0.142-0.406l0.945-0.701c0.366-0.258,0.75-0.498,1.153-0.722
		c0.403-0.224,0.7-0.362,0.889-0.417c0.095-0.034,0.197-0.051,0.305-0.051c0.142,0,0.254,0.044,0.335,0.132
		c0.102,0.129,0.152,0.292,0.152,0.488c0,0.129-0.014,0.288-0.041,0.478c-0.055,0.298-0.183,0.857-0.386,1.677l-0.458,1.88
		l0.071,0.021c0.589-0.962,1.27-1.813,2.042-2.556s1.582-1.307,2.429-1.692c0.61-0.277,1.063-0.417,1.362-0.417
		c0.183,0,0.33,0.059,0.442,0.174s0.168,0.281,0.168,0.498c0,0.468-0.234,1.607-0.704,3.419c-0.63,2.415-0.945,3.836-0.945,4.263
		c0,0.137,0.025,0.233,0.077,0.291s0.118,0.086,0.199,0.086c0.102,0,0.266-0.058,0.491-0.173c0.47-0.264,0.902-0.549,1.297-0.854
		l0.174,0.406c-0.58,0.468-1.053,0.823-1.421,1.067c-0.661,0.42-1.148,0.691-1.462,0.813c-0.129,0.054-0.265,0.081-0.408,0.081
		c-0.189,0-0.34-0.063-0.452-0.188s-0.167-0.317-0.167-0.575c0-0.203,0.027-0.454,0.081-0.753c0.102-0.516,0.356-1.563,0.762-3.144
		c0.499-1.913,0.749-3.083,0.749-3.511c0-0.203-0.034-0.344-0.102-0.422c-0.068-0.078-0.163-0.117-0.285-0.117
		c-0.224,0-0.494,0.088-0.812,0.264c-0.521,0.278-1.063,0.707-1.625,1.286s-1.029,1.196-1.402,1.85
		c-0.373,0.654-0.701,1.496-0.985,2.525c-0.101,0.387-0.255,1.183-0.464,2.389C290.954,235.977,290.529,236.085,290.119,236.221z"/>
	<path fill="#231F20" d="M307.123,233.751l0.132,0.396c-0.779,0.711-1.55,1.247-2.312,1.605c-0.762,0.359-1.408,0.539-1.936,0.539
		c-0.346,0-0.71-0.09-1.093-0.27s-0.685-0.46-0.904-0.84c-0.22-0.38-0.331-0.919-0.331-1.617c0-0.767,0.129-1.612,0.386-2.538
		s0.515-1.619,0.772-2.081c0.257-0.461,0.61-0.871,1.057-1.23c0.616-0.509,1.273-0.926,1.972-1.252
		c0.488-0.23,0.958-0.346,1.413-0.346c0.508,0,0.926,0.136,1.255,0.407s0.493,0.651,0.493,1.14c0,0.353-0.072,0.702-0.219,1.048
		c-0.146,0.346-0.348,0.645-0.604,0.895c-0.359,0.347-0.857,0.669-1.494,0.967c-0.637,0.299-1.301,0.546-1.992,0.743l-1.321,0.315
		c-0.129,0.691-0.193,1.234-0.193,1.628c0,0.665,0.147,1.163,0.442,1.496c0.294,0.332,0.662,0.498,1.103,0.498
		c0.393,0,0.833-0.097,1.321-0.289C305.558,234.772,306.242,234.367,307.123,233.751z M302.478,231.135
		c0.867-0.163,1.613-0.398,2.236-0.708c0.624-0.309,1.076-0.685,1.357-1.129s0.422-0.87,0.422-1.277c0-0.346-0.086-0.61-0.259-0.794
		s-0.398-0.274-0.676-0.274c-0.393,0-0.791,0.116-1.194,0.351c-0.403,0.234-0.727,0.585-0.97,1.054
		C303.149,228.824,302.844,229.751,302.478,231.135z"/>
	<path fill="#231F20" d="M309.327,228.477l-0.172-0.407c1.196-0.833,1.997-1.348,2.402-1.544c0.405-0.197,0.724-0.295,0.952-0.295
		c0.129,0,0.227,0.044,0.295,0.132c0.094,0.129,0.142,0.315,0.142,0.559c0,0.115-0.024,0.278-0.071,0.488
		c-0.088,0.406-0.274,1.148-0.559,2.226c-0.735,2.744-1.103,4.363-1.103,4.858c0,0.142,0.025,0.245,0.077,0.31
		c0.051,0.064,0.119,0.097,0.208,0.097c0.136,0,0.308-0.049,0.515-0.147c0.207-0.098,0.586-0.351,1.135-0.757l0.205,0.406
		c-1.1,0.84-1.928,1.402-2.484,1.688c-0.265,0.135-0.485,0.203-0.662,0.203c-0.169,0-0.32-0.078-0.451-0.234
		c-0.133-0.155-0.199-0.372-0.199-0.65c0-0.217,0.023-0.457,0.071-0.722c0.048-0.264,0.166-0.741,0.356-1.433
		c0.789-2.846,1.185-4.607,1.185-5.285c0-0.142-0.019-0.238-0.056-0.289s-0.09-0.076-0.156-0.076c-0.082,0-0.18,0.023-0.294,0.071
		C310.609,227.7,310.164,227.968,309.327,228.477z M311.939,222.714c0-0.38,0.119-0.699,0.356-0.961
		c0.237-0.261,0.509-0.391,0.813-0.391c0.236,0,0.425,0.072,0.563,0.218c0.139,0.146,0.208,0.348,0.208,0.605
		c0,0.353-0.102,0.676-0.305,0.971c-0.203,0.294-0.475,0.441-0.812,0.441c-0.238,0-0.434-0.081-0.59-0.243
		C312.018,223.191,311.939,222.978,311.939,222.714z"/>
	<path fill="#231F20" d="M319.679,233.619l0.233,0.365c-0.611,0.495-1.223,0.956-1.83,1.383c-0.609,0.427-1.057,0.701-1.342,0.823
		c-0.156,0.067-0.309,0.102-0.459,0.102c-0.177,0-0.33-0.083-0.459-0.249s-0.193-0.438-0.193-0.818c0-0.162,0.014-0.347,0.041-0.554
		s0.074-0.486,0.143-0.839l0.463-2.083c0.156-0.738,0.4-1.988,0.729-3.75l-1.74,0.04l0.051-0.305
		c0.552-0.21,0.929-0.357,1.129-0.442c0.201-0.084,0.436-0.194,0.701-0.33c0.105-0.528,0.181-0.93,0.227-1.204
		c0.045-0.274,0.152-1.042,0.32-2.302l0.873-0.376l0.703-0.356l0.244,0.184c-0.271,1.091-0.416,1.677-0.438,1.758
		c-0.054,0.237-0.22,1.044-0.498,2.419c0.305,0.014,0.549,0.021,0.732,0.021c0.67,0,1.148-0.044,1.433-0.133l0.102,0.082
		l-0.245,0.996c-0.285,0-1.018-0.018-2.199-0.051c-0.123,0.562-0.314,1.519-0.574,2.871c-0.262,1.352-0.432,2.332-0.514,2.941
		c-0.034,0.244-0.051,0.435-0.051,0.569c0,0.156,0.037,0.273,0.111,0.351c0.074,0.078,0.166,0.117,0.275,0.117
		c0.088,0,0.179-0.017,0.273-0.051c0.197-0.081,0.444-0.224,0.742-0.427L319.679,233.619z"/>
	<path fill="#231F20" d="M321.572,236.241l-0.125-0.143c0.455-1.931,0.828-3.563,1.119-4.898c0.376-1.674,0.699-3.266,0.97-4.777
		c0.271-1.511,0.461-2.659,0.57-3.445c0.014-0.114,0.021-0.216,0.021-0.305c0-0.128-0.025-0.225-0.076-0.289
		s-0.145-0.108-0.279-0.133c-0.135-0.023-0.575-0.035-1.319-0.035l0.046-0.417c1.375-0.244,2.375-0.528,2.998-0.854l0.204,0.203
		c-0.106,0.516-0.183,0.908-0.228,1.179l-0.738,4.106l-0.68,3.953l0.07,0.041c0.543-0.691,0.973-1.21,1.291-1.555
		c0.549-0.604,1.106-1.108,1.672-1.515c0.566-0.406,1.141-0.715,1.723-0.925c0.406-0.143,0.719-0.214,0.936-0.214
		c0.155,0,0.289,0.059,0.4,0.174c0.112,0.115,0.168,0.261,0.168,0.438c0,0.135-0.017,0.288-0.051,0.457
		c-0.047,0.23-0.189,0.821-0.426,1.771c-0.436,1.724-0.778,3.195-1.029,4.416c-0.115,0.557-0.172,0.92-0.172,1.089
		c0,0.102,0.025,0.182,0.076,0.239s0.113,0.087,0.188,0.087c0.258,0,0.844-0.346,1.76-1.037l0.203,0.376
		c-0.366,0.312-0.854,0.673-1.46,1.082c-0.607,0.41-1.124,0.71-1.552,0.9c-0.123,0.054-0.231,0.081-0.326,0.081
		c-0.129,0-0.244-0.068-0.346-0.204c-0.102-0.135-0.152-0.353-0.152-0.65c0-0.271,0.07-0.699,0.213-1.282l0.764-3.256
		c0.273-1.14,0.455-1.981,0.543-2.523c0.027-0.17,0.041-0.306,0.041-0.407c0-0.115-0.034-0.205-0.102-0.27
		c-0.068-0.064-0.166-0.097-0.295-0.097c-0.204,0-0.418,0.058-0.641,0.173c-0.577,0.298-1.189,0.769-1.836,1.412
		c-0.648,0.644-1.154,1.323-1.516,2.038c-0.363,0.715-0.643,1.499-0.84,2.353l-0.453,2.327l-0.988,0.224
		C321.796,236.163,321.681,236.2,321.572,236.241z"/>
	<path fill="#231F20" d="M338.344,233.751l0.133,0.396c-0.779,0.711-1.551,1.247-2.312,1.605c-0.762,0.359-1.408,0.539-1.936,0.539
		c-0.346,0-0.711-0.09-1.094-0.27s-0.684-0.46-0.904-0.84c-0.22-0.38-0.33-0.919-0.33-1.617c0-0.767,0.129-1.612,0.387-2.538
		c0.257-0.926,0.514-1.619,0.771-2.081c0.258-0.461,0.61-0.871,1.058-1.23c0.616-0.509,1.273-0.926,1.972-1.252
		c0.488-0.23,0.959-0.346,1.412-0.346c0.508,0,0.927,0.136,1.256,0.407c0.328,0.271,0.492,0.651,0.492,1.14
		c0,0.353-0.072,0.702-0.219,1.048c-0.145,0.346-0.347,0.645-0.604,0.895c-0.359,0.347-0.857,0.669-1.494,0.967
		c-0.637,0.299-1.301,0.546-1.992,0.743l-1.321,0.315c-0.129,0.691-0.193,1.234-0.193,1.628c0,0.665,0.147,1.163,0.442,1.496
		c0.295,0.332,0.662,0.498,1.103,0.498c0.394,0,0.833-0.097,1.321-0.289C336.779,234.772,337.463,234.367,338.344,233.751z
		 M333.699,231.135c0.867-0.163,1.613-0.398,2.236-0.708c0.623-0.309,1.075-0.685,1.356-1.129s0.422-0.87,0.422-1.277
		c0-0.346-0.087-0.61-0.259-0.794c-0.174-0.184-0.398-0.274-0.676-0.274c-0.394,0-0.791,0.116-1.195,0.351
		c-0.402,0.234-0.727,0.585-0.97,1.054C334.37,228.824,334.065,229.751,333.699,231.135z"/>
	<path fill="#231F20" d="M340.832,236.271l-0.182-0.143c0.336-1.145,0.593-2.094,0.768-2.846c0.338-1.47,0.592-2.774,0.76-3.912
		c0.095-0.657,0.143-1.111,0.143-1.362c0-0.176-0.027-0.302-0.082-0.376c-0.035-0.055-0.089-0.081-0.164-0.081
		c-0.231,0-0.807,0.332-1.727,0.996l-0.246-0.336c0.918-0.759,1.719-1.321,2.405-1.687c0.476-0.258,0.829-0.387,1.06-0.387
		c0.123,0,0.221,0.041,0.296,0.122s0.112,0.207,0.112,0.376c0,0.183-0.047,0.515-0.143,0.996c-0.147,0.854-0.347,1.836-0.596,2.947
		c0.717-1.254,1.441-2.32,2.173-3.201c0.46-0.556,0.812-0.904,1.056-1.047c0.244-0.143,0.48-0.214,0.711-0.214
		c0.122,0,0.258,0.037,0.406,0.112c-0.115,0.596-0.23,1.345-0.346,2.246l-0.273,0.061c-0.203-0.271-0.431-0.406-0.681-0.406
		c-0.229,0-0.483,0.095-0.761,0.284c-0.447,0.299-0.909,0.809-1.387,1.53c-0.477,0.721-0.861,1.594-1.152,2.616
		c-0.161,0.556-0.414,1.674-0.758,3.354C341.615,236.051,341.15,236.17,340.832,236.271z"/>
	<path fill="#231F20" d="M347.877,237.725c0.772-0.678,1.506-1.577,2.2-2.698s1.204-2.306,1.53-3.552
		c0.324-1.247,0.487-2.622,0.487-4.126c0-0.901-0.056-1.655-0.167-2.262c-0.112-0.606-0.303-1.279-0.57-2.018
		s-0.54-1.358-0.817-1.859l0.497-0.325c0.516,0.745,0.99,1.585,1.424,2.521c0.434,0.935,0.736,1.787,0.909,2.556
		s0.259,1.554,0.259,2.353c0,1.396-0.23,2.672-0.69,3.826c-0.461,1.155-1.132,2.289-2.013,3.4c-0.644,0.819-1.518,1.71-2.622,2.673
		L347.877,237.725z"/>
</g>
</svg>
