<?xml version="1.0" encoding="utf-8"?>
<!-- Generator: Adobe Illustrator 14.0.0, SVG Export Plug-In . SVG Version: 6.00 Build 43363)  -->
<!DOCTYPE svg PUBLIC "-//W3C//DTD SVG 1.1//EN" "http://www.w3.org/Graphics/SVG/1.1/DTD/svg11.dtd">
<svg version="1.1" id="Layer_1" xmlns="http://www.w3.org/2000/svg" xmlns:xlink="http://www.w3.org/1999/xlink" x="0px" y="0px"
	 width="650px" height="151px" viewBox="0 0 650 151" enable-background="new 0 0 650 151" xml:space="preserve">
<g>
	
		<linearGradient id="SVGID_1_" gradientUnits="userSpaceOnUse" x1="405.2598" y1="182.6074" x2="405.2598" y2="86.3661" gradientTransform="matrix(1 0 0.3527 -1 -136.7131 151)">
		<stop  offset="0" style="stop-color:#BBDBF2"/>
		<stop  offset="1" style="stop-color:#58618B"/>
	</linearGradient>
	<polygon opacity="0.8" fill="url(#SVGID_1_)" enable-background="new    " points="291.917,23.233 282.372,50.301 287.511,55.868 
		323.793,55.868 	"/>
	
		<linearGradient id="SVGID_2_" gradientUnits="userSpaceOnUse" x1="392.8154" y1="116.9229" x2="118.9297" y2="92.35" gradientTransform="matrix(1 0 0.3527 -1 -136.7131 151)">
		<stop  offset="0" style="stop-color:#BBDBF2"/>
		<stop  offset="1" style="stop-color:#58618B"/>
	</linearGradient>
	<polygon opacity="0.8" fill="url(#SVGID_2_)" enable-background="new    " points="254.833,67.962 202.929,12.099 237.205,23.233 
		268.822,56.06 	"/>
	
		<linearGradient id="SVGID_3_" gradientUnits="userSpaceOnUse" x1="385.2695" y1="86.1992" x2="196.4047" y2="69.2544" gradientTransform="matrix(1 0 0.3527 -1 -136.7131 151)">
		<stop  offset="0" style="stop-color:#BBDBF2"/>
		<stop  offset="1" style="stop-color:#58618B"/>
	</linearGradient>
	<polygon opacity="0.8" fill="url(#SVGID_3_)" enable-background="new    " points="255.285,67.771 268.822,56.06 323.534,56.06 
		357.675,67.578 	"/>
	
		<linearGradient id="SVGID_4_" gradientUnits="userSpaceOnUse" x1="347.8867" y1="104.1934" x2="73.9949" y2="79.6199" gradientTransform="matrix(1 0 0.3527 -1 -136.7131 151)">
		<stop  offset="0" style="stop-color:#BBDBF2"/>
		<stop  offset="1" style="stop-color:#58618B"/>
	</linearGradient>
	<polygon opacity="0.8" fill="url(#SVGID_4_)" enable-background="new    " points="292.04,23.425 323.917,56.06 358.634,67.578 
		306.289,11.331 	"/>
	
		<linearGradient id="SVGID_5_" gradientUnits="userSpaceOnUse" x1="360.04" y1="135.915" x2="170.1901" y2="118.8818" gradientTransform="matrix(1 0 0.3527 -1 -136.7131 151)">
		<stop  offset="0" style="stop-color:#BBDBF2"/>
		<stop  offset="1" style="stop-color:#58618B"/>
	</linearGradient>
	<polygon opacity="0.8" fill="url(#SVGID_5_)" enable-background="new    " points="202.047,11.331 236.697,23.041 292.177,23.041 
		306.231,10.947 	"/>
	
		<linearGradient id="SVGID_6_" gradientUnits="userSpaceOnUse" x1="356.0186" y1="131.9258" x2="356.0186" y2="101.2122" gradientTransform="matrix(1 0 0.3527 -1 -136.7131 151)">
		<stop  offset="0" style="stop-color:#BBDBF2"/>
		<stop  offset="1" style="stop-color:#58618B"/>
	</linearGradient>
	<polygon opacity="0.8" fill="url(#SVGID_6_)" enable-background="new    " points="236.945,23.425 263.558,50.301 282.179,50.301 
		291.792,23.041 	"/>
	
		<linearGradient id="SVGID_7_" gradientUnits="userSpaceOnUse" x1="414.2832" y1="89.1826" x2="414.2832" y2="55.9076" gradientTransform="matrix(1 0 0.3527 -1 -136.7131 151)">
		<stop  offset="0" style="stop-color:#BBDBF2"/>
		<stop  offset="1" style="stop-color:#58618B"/>
	</linearGradient>
	<polygon opacity="0.8" fill="url(#SVGID_7_)" enable-background="new    " points="254.833,67.962 245.22,95.223 349.269,95.223 
		358.814,68.155 	"/>
	
		<linearGradient id="SVGID_8_" gradientUnits="userSpaceOnUse" x1="325.7842" y1="182.6074" x2="325.7842" y2="86.3689" gradientTransform="matrix(1 0 0.3527 -1 -136.7131 151)">
		<stop  offset="0" style="stop-color:#BBDBF2"/>
		<stop  offset="1" style="stop-color:#58618B"/>
	</linearGradient>
	<polygon opacity="0.8" fill="url(#SVGID_8_)" enable-background="new    " points="201.98,11.523 254.833,67.962 245.22,95.223 
		192.243,38.591 	"/>
	<g>
		<line fill="none" stroke="#231F20" stroke-width="0.7679" x1="201.725" y1="11.139" x2="254.647" y2="67.962"/>
		<line fill="none" stroke="#231F20" stroke-width="0.7679" x1="306.158" y1="11.139" x2="201.725" y2="11.139"/>
		<line fill="none" stroke="#231F20" stroke-width="0.7679" x1="359.08" y1="67.962" x2="306.158" y2="11.139"/>
		<line fill="none" stroke="#231F20" stroke-width="0.7679" x1="254.647" y1="67.962" x2="359.08" y2="67.962"/>
		<line fill="none" stroke="#231F20" stroke-width="0.7679" x1="236.643" y1="23.017" x2="268.875" y2="56.084"/>
		<line fill="none" stroke="#231F20" stroke-width="0.7679" x1="291.931" y1="23.017" x2="236.643" y2="23.017"/>
		<line fill="none" stroke="#231F20" stroke-width="0.7679" x1="324.162" y1="56.084" x2="291.931" y2="23.017"/>
		<line fill="none" stroke="#231F20" stroke-width="0.7679" x1="268.875" y1="56.084" x2="324.162" y2="56.084"/>
		<line fill="none" stroke="#231F20" stroke-width="0.7679" x1="192.112" y1="38.399" x2="245.033" y2="95.223"/>
		
			<line fill="none" stroke="#231F20" stroke-width="0.3839" stroke-dasharray="4.6073" x1="296.545" y1="38.399" x2="192.112" y2="38.399"/>
		
			<line fill="none" stroke="#231F20" stroke-width="0.3839" stroke-dasharray="4.6073" x1="349.467" y1="95.223" x2="296.545" y2="38.399"/>
		<line fill="none" stroke="#231F20" stroke-width="0.7679" x1="245.033" y1="95.223" x2="349.467" y2="95.223"/>
		
			<line fill="none" stroke="#231F20" stroke-width="0.3839" stroke-dasharray="4.6073" x1="227.03" y1="50.277" x2="259.261" y2="83.344"/>
		<line fill="none" stroke="#231F20" stroke-width="0.7679" x1="282.317" y1="50.277" x2="262.798" y2="50.277"/>
		
			<line fill="none" stroke="#231F20" stroke-width="0.3839" stroke-dasharray="4.6073" x1="262.798" y1="50.277" x2="227.03" y2="50.277"/>
		<line fill="none" stroke="#231F20" stroke-width="0.7679" x1="287.879" y1="55.982" x2="282.317" y2="50.277"/>
		
			<line fill="none" stroke="#231F20" stroke-width="0.3839" stroke-dasharray="4.6073" x1="314.549" y1="83.344" x2="287.879" y2="55.982"/>
		
			<line fill="none" stroke="#231F20" stroke-width="0.3839" stroke-dasharray="4.6073" x1="259.261" y1="83.344" x2="314.549" y2="83.344"/>
		<line fill="none" stroke="#231F20" stroke-width="0.7679" x1="359.08" y1="67.962" x2="349.603" y2="94.84"/>
		<line fill="none" stroke="#231F20" stroke-width="0.7679" x1="254.902" y1="67.962" x2="245.425" y2="94.84"/>
		<line fill="none" stroke="#231F20" stroke-width="0.7679" x1="201.812" y1="11.65" x2="192.334" y2="38.526"/>
		
			<line fill="none" stroke="#231F20" stroke-width="0.3839" stroke-dasharray="4.6073" x1="305.989" y1="11.65" x2="296.511" y2="38.526"/>
		
			<line fill="none" stroke="#231F20" stroke-width="0.3839" stroke-dasharray="4.6073" x1="236.913" y1="23.169" x2="227.434" y2="50.045"/>
		<line fill="none" stroke="#231F20" stroke-width="0.7679" x1="291.944" y1="23.169" x2="282.466" y2="50.045"/>
		
			<line fill="none" stroke="#231F20" stroke-width="0.3839" stroke-dasharray="4.6073" x1="269.037" y1="56.188" x2="259.559" y2="83.062"/>
		
			<line fill="none" stroke="#231F20" stroke-width="0.3839" stroke-dasharray="4.6073" x1="323.812" y1="56.188" x2="314.336" y2="83.062"/>
		<line fill="none" stroke="#231F20" stroke-width="0.7679" x1="236.913" y1="23.169" x2="201.812" y2="11.65"/>
		<line fill="none" stroke="#231F20" stroke-width="0.7679" x1="291.944" y1="23.169" x2="305.989" y2="11.65"/>
		<line fill="none" stroke="#231F20" stroke-width="0.7679" x1="323.812" y1="56.188" x2="359.08" y2="67.962"/>
		<line fill="none" stroke="#231F20" stroke-width="0.7679" x1="269.037" y1="56.188" x2="254.902" y2="67.962"/>
		
			<line fill="none" stroke="#231F20" stroke-width="0.3839" stroke-dasharray="4.6073" x1="227.345" y1="50.301" x2="192.244" y2="38.783"/>
		
			<line fill="none" stroke="#231F20" stroke-width="0.3839" stroke-dasharray="4.6073" x1="282.376" y1="50.301" x2="296.421" y2="38.783"/>
		
			<line fill="none" stroke="#231F20" stroke-width="0.3839" stroke-dasharray="4.6073" x1="314.246" y1="83.32" x2="349.511" y2="95.096"/>
		
			<line fill="none" stroke="#231F20" stroke-width="0.3839" stroke-dasharray="4.6073" x1="259.468" y1="83.32" x2="245.334" y2="95.096"/>
	</g>
</g>
<g>
	
		<linearGradient id="SVGID_9_" gradientUnits="userSpaceOnUse" x1="112.2788" y1="112.5176" x2="-113.2484" y2="99.3546" gradientTransform="matrix(1 0 0 -1 0 151)">
		<stop  offset="0" style="stop-color:#BBDBF2"/>
		<stop  offset="1" style="stop-color:#58618B"/>
	</linearGradient>
	<polygon opacity="0.8" fill="url(#SVGID_9_)" enable-background="new    " points="17.441,10.932 70.093,67.971 173.933,67.971 
		121.574,11.225 	"/>
	<g>
		
			<linearGradient id="SVGID_10_" gradientUnits="userSpaceOnUse" x1="229.8032" y1="89.1826" x2="229.8032" y2="55.9076" gradientTransform="matrix(1 0 0.3527 -1 -136.7131 151)">
			<stop  offset="0" style="stop-color:#BBDBF2"/>
			<stop  offset="1" style="stop-color:#58618B"/>
		</linearGradient>
		<polygon opacity="0.8" fill="url(#SVGID_10_)" enable-background="new    " points="70.352,67.962 60.739,95.223 164.787,95.223 
			174.333,68.155 		"/>
		
			<linearGradient id="SVGID_11_" gradientUnits="userSpaceOnUse" x1="141.3037" y1="182.6074" x2="141.3037" y2="86.3689" gradientTransform="matrix(1 0 0.3527 -1 -136.7131 151)">
			<stop  offset="0" style="stop-color:#BBDBF2"/>
			<stop  offset="1" style="stop-color:#58618B"/>
		</linearGradient>
		<polygon opacity="0.8" fill="url(#SVGID_11_)" enable-background="new    " points="17.499,11.523 70.352,67.962 60.739,95.223 
			7.761,38.591 		"/>
		<g>
			<line fill="none" stroke="#231F20" stroke-width="0.7679" x1="17.244" y1="11.139" x2="70.166" y2="67.962"/>
			<line fill="none" stroke="#231F20" stroke-width="0.7679" x1="121.677" y1="11.139" x2="17.244" y2="11.139"/>
			<line fill="none" stroke="#231F20" stroke-width="0.7679" x1="174.599" y1="67.962" x2="121.677" y2="11.139"/>
			<line fill="none" stroke="#231F20" stroke-width="0.7679" x1="70.166" y1="67.962" x2="174.599" y2="67.962"/>
			<line fill="none" stroke="#231F20" stroke-width="0.7679" x1="7.631" y1="38.399" x2="60.552" y2="95.223"/>
			
				<line fill="none" stroke="#231F20" stroke-width="0.3839" stroke-dasharray="4.6073" x1="112.063" y1="38.399" x2="7.631" y2="38.399"/>
			
				<line fill="none" stroke="#231F20" stroke-width="0.3839" stroke-dasharray="4.6073" x1="164.985" y1="95.223" x2="112.063" y2="38.399"/>
			<line fill="none" stroke="#231F20" stroke-width="0.7679" x1="60.552" y1="95.223" x2="164.985" y2="95.223"/>
			<line fill="none" stroke="#231F20" stroke-width="0.7679" x1="174.599" y1="67.962" x2="165.121" y2="94.84"/>
			<line fill="none" stroke="#231F20" stroke-width="0.7679" x1="70.42" y1="67.962" x2="60.943" y2="94.84"/>
			<line fill="none" stroke="#231F20" stroke-width="0.7679" x1="17.331" y1="11.65" x2="7.853" y2="38.526"/>
			
				<line fill="none" stroke="#231F20" stroke-width="0.3839" stroke-dasharray="4.6073" x1="121.508" y1="11.65" x2="112.03" y2="38.526"/>
		</g>
	</g>
</g>
<g>
	<g>
		
			<linearGradient id="SVGID_12_" gradientUnits="userSpaceOnUse" x1="688.1484" y1="182.6074" x2="688.1484" y2="86.3661" gradientTransform="matrix(1 0 0.3527 -1 -136.7131 151)">
			<stop  offset="0" style="stop-color:#BBDBF2"/>
			<stop  offset="1" style="stop-color:#58618B"/>
		</linearGradient>
		<polygon opacity="0.8" fill="url(#SVGID_12_)" enable-background="new    " points="574.805,23.233 565.26,50.301 570.4,55.868 
			606.683,55.868 		"/>
		
			<linearGradient id="SVGID_13_" gradientUnits="userSpaceOnUse" x1="654.1367" y1="112.9619" x2="300.5195" y2="97.2197" gradientTransform="matrix(1 0 0.3527 -1 -136.7131 151)">
			<stop  offset="0" style="stop-color:#BBDBF2"/>
			<stop  offset="1" style="stop-color:#58618B"/>
		</linearGradient>
		<polygon opacity="0.8" fill="url(#SVGID_13_)" enable-background="new    " points="537.723,67.962 485.817,12.099 
			520.094,23.233 551.711,56.06 		"/>
		
			<linearGradient id="SVGID_14_" gradientUnits="userSpaceOnUse" x1="652.2607" y1="86.9922" x2="408.4293" y2="76.1374" gradientTransform="matrix(1 0 0.3527 -1 -136.7131 151)">
			<stop  offset="0" style="stop-color:#BBDBF2"/>
			<stop  offset="1" style="stop-color:#58618B"/>
		</linearGradient>
		<polygon opacity="0.8" fill="url(#SVGID_14_)" enable-background="new    " points="538.174,67.771 551.711,56.06 606.424,56.06 
			640.562,67.578 		"/>
		
			<linearGradient id="SVGID_15_" gradientUnits="userSpaceOnUse" x1="608.4043" y1="106.9004" x2="254.7838" y2="91.158" gradientTransform="matrix(1 0 0.3527 -1 -136.7131 151)">
			<stop  offset="0" style="stop-color:#BBDBF2"/>
			<stop  offset="1" style="stop-color:#58618B"/>
		</linearGradient>
		<polygon opacity="0.8" fill="url(#SVGID_15_)" enable-background="new    " points="574.93,23.425 606.807,56.06 641.523,67.578 
			589.178,11.331 		"/>
		
			<linearGradient id="SVGID_16_" gradientUnits="userSpaceOnUse" x1="628.5244" y1="134.2129" x2="383.4228" y2="123.3016" gradientTransform="matrix(1 0 0.3527 -1 -136.7131 151)">
			<stop  offset="0" style="stop-color:#BBDBF2"/>
			<stop  offset="1" style="stop-color:#58618B"/>
		</linearGradient>
		<polygon opacity="0.8" fill="url(#SVGID_16_)" enable-background="new    " points="484.936,11.331 519.584,23.041 
			575.064,23.041 589.121,10.947 		"/>
		
			<linearGradient id="SVGID_17_" gradientUnits="userSpaceOnUse" x1="638.9072" y1="131.9258" x2="638.9072" y2="101.2122" gradientTransform="matrix(1 0 0.3527 -1 -136.7131 151)">
			<stop  offset="0" style="stop-color:#BBDBF2"/>
			<stop  offset="1" style="stop-color:#58618B"/>
		</linearGradient>
		<polygon opacity="0.8" fill="url(#SVGID_17_)" enable-background="new    " points="519.833,23.425 546.447,50.301 
			565.067,50.301 574.681,23.041 		"/>
		
			<linearGradient id="SVGID_18_" gradientUnits="userSpaceOnUse" x1="697.1738" y1="89.1826" x2="697.1738" y2="55.9076" gradientTransform="matrix(1 0 0.3527 -1 -136.7131 151)">
			<stop  offset="0" style="stop-color:#BBDBF2"/>
			<stop  offset="1" style="stop-color:#58618B"/>
		</linearGradient>
		<polygon opacity="0.8" fill="url(#SVGID_18_)" enable-background="new    " points="537.723,67.962 528.11,95.223 632.158,95.223 
			641.703,68.155 		"/>
		<g>
			<line fill="none" stroke="#231F20" stroke-width="0.7679" x1="589.047" y1="11.139" x2="484.614" y2="11.139"/>
			<line fill="none" stroke="#231F20" stroke-width="0.7679" x1="641.969" y1="67.962" x2="589.047" y2="11.139"/>
			<line fill="none" stroke="#231F20" stroke-width="0.7679" x1="537.535" y1="67.962" x2="641.969" y2="67.962"/>
			<line fill="none" stroke="#231F20" stroke-width="0.7679" x1="519.531" y1="23.017" x2="551.764" y2="56.084"/>
			<line fill="none" stroke="#231F20" stroke-width="0.7679" x1="574.818" y1="23.017" x2="519.531" y2="23.017"/>
			<line fill="none" stroke="#231F20" stroke-width="0.7679" x1="607.052" y1="56.084" x2="574.818" y2="23.017"/>
			<line fill="none" stroke="#231F20" stroke-width="0.7679" x1="551.764" y1="56.084" x2="607.052" y2="56.084"/>
			
				<line fill="none" stroke="#231F20" stroke-width="0.3839" stroke-dasharray="4.6073" x1="579.434" y1="38.399" x2="475.002" y2="38.399"/>
			
				<line fill="none" stroke="#231F20" stroke-width="0.3839" stroke-dasharray="4.6073" x1="632.354" y1="95.223" x2="579.434" y2="38.399"/>
			<line fill="none" stroke="#231F20" stroke-width="0.7679" x1="527.923" y1="95.223" x2="632.354" y2="95.223"/>
			
				<line fill="none" stroke="#231F20" stroke-width="0.3839" stroke-dasharray="4.6073" x1="509.918" y1="50.277" x2="542.148" y2="83.344"/>
			<line fill="none" stroke="#231F20" stroke-width="0.7679" x1="565.206" y1="50.277" x2="545.688" y2="50.277"/>
			
				<line fill="none" stroke="#231F20" stroke-width="0.3839" stroke-dasharray="4.6073" x1="545.688" y1="50.277" x2="509.918" y2="50.277"/>
			<line fill="none" stroke="#231F20" stroke-width="0.7679" x1="570.768" y1="55.982" x2="565.206" y2="50.277"/>
			
				<line fill="none" stroke="#231F20" stroke-width="0.3839" stroke-dasharray="4.6073" x1="597.438" y1="83.344" x2="570.768" y2="55.982"/>
			
				<line fill="none" stroke="#231F20" stroke-width="0.3839" stroke-dasharray="4.6073" x1="542.148" y1="83.344" x2="597.438" y2="83.344"/>
			<line fill="none" stroke="#231F20" stroke-width="0.7679" x1="641.969" y1="67.962" x2="632.489" y2="94.84"/>
			
				<line fill="none" stroke="#231F20" stroke-width="0.3839" stroke-dasharray="4.6073" x1="588.876" y1="11.65" x2="579.399" y2="38.526"/>
			
				<line fill="none" stroke="#231F20" stroke-width="0.3839" stroke-dasharray="4.6073" x1="519.801" y1="23.169" x2="510.322" y2="50.045"/>
			<line fill="none" stroke="#231F20" stroke-width="0.7679" x1="574.832" y1="23.169" x2="565.354" y2="50.045"/>
			
				<line fill="none" stroke="#231F20" stroke-width="0.3839" stroke-dasharray="4.6073" x1="551.927" y1="56.188" x2="542.449" y2="83.062"/>
			
				<line fill="none" stroke="#231F20" stroke-width="0.3839" stroke-dasharray="4.6073" x1="606.703" y1="56.188" x2="597.226" y2="83.062"/>
			<line fill="none" stroke="#231F20" stroke-width="0.7679" x1="519.801" y1="23.169" x2="484.7" y2="11.65"/>
			<line fill="none" stroke="#231F20" stroke-width="0.7679" x1="574.832" y1="23.169" x2="588.876" y2="11.65"/>
			<line fill="none" stroke="#231F20" stroke-width="0.7679" x1="606.703" y1="56.188" x2="641.969" y2="67.962"/>
			<line fill="none" stroke="#231F20" stroke-width="0.7679" x1="551.927" y1="56.188" x2="537.793" y2="67.962"/>
			
				<line fill="none" stroke="#231F20" stroke-width="0.3839" stroke-dasharray="4.6073" x1="510.233" y1="50.301" x2="475.133" y2="38.783"/>
			
				<line fill="none" stroke="#231F20" stroke-width="0.3839" stroke-dasharray="4.6073" x1="565.265" y1="50.301" x2="579.309" y2="38.783"/>
			
				<line fill="none" stroke="#231F20" stroke-width="0.3839" stroke-dasharray="4.6073" x1="597.134" y1="83.32" x2="632.399" y2="95.096"/>
			
				<line fill="none" stroke="#231F20" stroke-width="0.3839" stroke-dasharray="4.6073" x1="542.357" y1="83.32" x2="528.224" y2="95.096"/>
		</g>
	</g>
	<g>
		
			<linearGradient id="SVGID_19_" gradientUnits="userSpaceOnUse" x1="584.0996" y1="182.6074" x2="584.0996" y2="86.3661" gradientTransform="matrix(1 0 0.3527 -1 -136.7131 151)">
			<stop  offset="0" style="stop-color:#BBDBF2"/>
			<stop  offset="1" style="stop-color:#58618B"/>
		</linearGradient>
		<polygon opacity="0.8" fill="url(#SVGID_19_)" enable-background="new    " points="470.757,23.233 461.211,50.301 
			466.353,55.868 502.633,55.868 		"/>
		
			<linearGradient id="SVGID_20_" gradientUnits="userSpaceOnUse" x1="700.376" y1="119.6523" x2="346.7545" y2="103.9099" gradientTransform="matrix(1 0 0.3527 -1 -136.7131 151)">
			<stop  offset="0" style="stop-color:#BBDBF2"/>
			<stop  offset="1" style="stop-color:#58618B"/>
		</linearGradient>
		<polygon opacity="0.8" fill="url(#SVGID_20_)" enable-background="new    " points="433.674,67.962 381.769,12.099 
			416.044,23.233 447.661,56.06 		"/>
		
			<linearGradient id="SVGID_21_" gradientUnits="userSpaceOnUse" x1="651.792" y1="91.6035" x2="407.9582" y2="80.7486" gradientTransform="matrix(1 0 0.3527 -1 -136.7131 151)">
			<stop  offset="0" style="stop-color:#BBDBF2"/>
			<stop  offset="1" style="stop-color:#58618B"/>
		</linearGradient>
		<polygon opacity="0.8" fill="url(#SVGID_21_)" enable-background="new    " points="434.125,67.771 447.661,56.06 502.373,56.06 
			536.516,67.578 		"/>
		
			<linearGradient id="SVGID_22_" gradientUnits="userSpaceOnUse" x1="654.5684" y1="113.5869" x2="300.9478" y2="97.8446" gradientTransform="matrix(1 0 0.3527 -1 -136.7131 151)">
			<stop  offset="0" style="stop-color:#BBDBF2"/>
			<stop  offset="1" style="stop-color:#58618B"/>
		</linearGradient>
		<polygon opacity="0.8" fill="url(#SVGID_22_)" enable-background="new    " points="470.881,23.425 502.757,56.06 537.475,67.578 
			485.128,11.331 		"/>
		
			<linearGradient id="SVGID_23_" gradientUnits="userSpaceOnUse" x1="628.584" y1="138.8477" x2="383.4825" y2="127.9363" gradientTransform="matrix(1 0 0.3527 -1 -136.7131 151)">
			<stop  offset="0" style="stop-color:#BBDBF2"/>
			<stop  offset="1" style="stop-color:#58618B"/>
		</linearGradient>
		<polygon opacity="0.8" fill="url(#SVGID_23_)" enable-background="new    " points="380.888,11.331 415.536,23.041 
			471.017,23.041 485.072,10.947 		"/>
		
			<linearGradient id="SVGID_24_" gradientUnits="userSpaceOnUse" x1="534.8584" y1="131.9258" x2="534.8584" y2="101.2122" gradientTransform="matrix(1 0 0.3527 -1 -136.7131 151)">
			<stop  offset="0" style="stop-color:#BBDBF2"/>
			<stop  offset="1" style="stop-color:#58618B"/>
		</linearGradient>
		<polygon opacity="0.8" fill="url(#SVGID_24_)" enable-background="new    " points="415.785,23.425 442.397,50.301 461.02,50.301 
			470.633,23.041 		"/>
		
			<linearGradient id="SVGID_25_" gradientUnits="userSpaceOnUse" x1="593.125" y1="89.1826" x2="593.125" y2="55.9076" gradientTransform="matrix(1 0 0.3527 -1 -136.7131 151)">
			<stop  offset="0" style="stop-color:#BBDBF2"/>
			<stop  offset="1" style="stop-color:#58618B"/>
		</linearGradient>
		<polygon opacity="0.8" fill="url(#SVGID_25_)" enable-background="new    " points="433.674,67.962 424.06,95.223 528.11,95.223 
			537.655,68.155 		"/>
		
			<linearGradient id="SVGID_26_" gradientUnits="userSpaceOnUse" x1="504.624" y1="182.6074" x2="504.624" y2="86.3689" gradientTransform="matrix(1 0 0.3527 -1 -136.7131 151)">
			<stop  offset="0" style="stop-color:#BBDBF2"/>
			<stop  offset="1" style="stop-color:#58618B"/>
		</linearGradient>
		<polygon opacity="0.8" fill="url(#SVGID_26_)" enable-background="new    " points="380.82,11.523 433.674,67.962 424.06,95.223 
			371.083,38.591 		"/>
		<g>
			<line fill="none" stroke="#231F20" stroke-width="0.7679" x1="380.564" y1="11.139" x2="433.486" y2="67.962"/>
			<line fill="none" stroke="#231F20" stroke-width="0.7679" x1="484.997" y1="11.139" x2="380.564" y2="11.139"/>
			<line fill="none" stroke="#231F20" stroke-width="0.7679" x1="537.92" y1="67.962" x2="484.997" y2="11.139"/>
			<line fill="none" stroke="#231F20" stroke-width="0.7679" x1="433.486" y1="67.962" x2="537.92" y2="67.962"/>
			<line fill="none" stroke="#231F20" stroke-width="0.7679" x1="415.482" y1="23.017" x2="447.714" y2="56.084"/>
			<line fill="none" stroke="#231F20" stroke-width="0.7679" x1="470.771" y1="23.017" x2="415.482" y2="23.017"/>
			<line fill="none" stroke="#231F20" stroke-width="0.7679" x1="503.001" y1="56.084" x2="470.771" y2="23.017"/>
			<line fill="none" stroke="#231F20" stroke-width="0.7679" x1="447.714" y1="56.084" x2="503.001" y2="56.084"/>
			<line fill="none" stroke="#231F20" stroke-width="0.7679" x1="370.951" y1="38.399" x2="423.872" y2="95.223"/>
			
				<line fill="none" stroke="#231F20" stroke-width="0.3839" stroke-dasharray="4.6073" x1="475.386" y1="38.399" x2="370.951" y2="38.399"/>
			
				<line fill="none" stroke="#231F20" stroke-width="0.3839" stroke-dasharray="4.6073" x1="528.307" y1="95.223" x2="475.386" y2="38.399"/>
			<line fill="none" stroke="#231F20" stroke-width="0.7679" x1="423.872" y1="95.223" x2="528.307" y2="95.223"/>
			
				<line fill="none" stroke="#231F20" stroke-width="0.3839" stroke-dasharray="4.6073" x1="405.869" y1="50.277" x2="438.101" y2="83.344"/>
			<line fill="none" stroke="#231F20" stroke-width="0.7679" x1="461.158" y1="50.277" x2="441.638" y2="50.277"/>
			
				<line fill="none" stroke="#231F20" stroke-width="0.3839" stroke-dasharray="4.6073" x1="441.638" y1="50.277" x2="405.869" y2="50.277"/>
			<line fill="none" stroke="#231F20" stroke-width="0.7679" x1="466.718" y1="55.982" x2="461.158" y2="50.277"/>
			
				<line fill="none" stroke="#231F20" stroke-width="0.3839" stroke-dasharray="4.6073" x1="493.389" y1="83.344" x2="466.718" y2="55.982"/>
			
				<line fill="none" stroke="#231F20" stroke-width="0.3839" stroke-dasharray="4.6073" x1="438.101" y1="83.344" x2="493.389" y2="83.344"/>
			<line fill="none" stroke="#231F20" stroke-width="0.7679" x1="537.92" y1="67.962" x2="528.441" y2="94.84"/>
			<line fill="none" stroke="#231F20" stroke-width="0.7679" x1="433.742" y1="67.962" x2="424.266" y2="94.84"/>
			<line fill="none" stroke="#231F20" stroke-width="0.7679" x1="380.652" y1="11.65" x2="371.174" y2="38.526"/>
			
				<line fill="none" stroke="#231F20" stroke-width="0.3839" stroke-dasharray="4.6073" x1="484.83" y1="11.65" x2="475.352" y2="38.526"/>
			
				<line fill="none" stroke="#231F20" stroke-width="0.3839" stroke-dasharray="4.6073" x1="415.752" y1="23.169" x2="406.274" y2="50.045"/>
			<line fill="none" stroke="#231F20" stroke-width="0.7679" x1="470.784" y1="23.169" x2="461.307" y2="50.045"/>
			
				<line fill="none" stroke="#231F20" stroke-width="0.3839" stroke-dasharray="4.6073" x1="447.876" y1="56.188" x2="438.399" y2="83.062"/>
			
				<line fill="none" stroke="#231F20" stroke-width="0.3839" stroke-dasharray="4.6073" x1="502.653" y1="56.188" x2="493.176" y2="83.062"/>
			<line fill="none" stroke="#231F20" stroke-width="0.7679" x1="415.752" y1="23.169" x2="380.652" y2="11.65"/>
			<line fill="none" stroke="#231F20" stroke-width="0.7679" x1="470.784" y1="23.169" x2="484.83" y2="11.65"/>
			<line fill="none" stroke="#231F20" stroke-width="0.7679" x1="502.653" y1="56.188" x2="537.92" y2="67.962"/>
			<line fill="none" stroke="#231F20" stroke-width="0.7679" x1="447.876" y1="56.188" x2="433.742" y2="67.962"/>
			
				<line fill="none" stroke="#231F20" stroke-width="0.3839" stroke-dasharray="4.6073" x1="406.184" y1="50.301" x2="371.084" y2="38.783"/>
			
				<line fill="none" stroke="#231F20" stroke-width="0.3839" stroke-dasharray="4.6073" x1="461.218" y1="50.301" x2="475.261" y2="38.783"/>
			
				<line fill="none" stroke="#231F20" stroke-width="0.3839" stroke-dasharray="4.6073" x1="493.085" y1="83.32" x2="528.352" y2="95.096"/>
			
				<line fill="none" stroke="#231F20" stroke-width="0.3839" stroke-dasharray="4.6073" x1="438.31" y1="83.32" x2="424.174" y2="95.096"/>
		</g>
	</g>
</g>
<g enable-background="new    ">
	<path fill="#231F20" d="M84.727,116.325c0.135-0.604,0.226-1.055,0.272-1.354s0.082-0.639,0.105-1.02h0.439l-0.009,1.477
		c0.281,0.229,0.542,0.393,0.782,0.492c0.316,0.129,0.636,0.193,0.958,0.193c0.393,0,0.75-0.085,1.072-0.255
		s0.567-0.408,0.734-0.717c0.167-0.307,0.25-0.643,0.25-1.006c0-0.258-0.051-0.48-0.154-0.668s-0.233-0.317-0.391-0.391
		s-0.495-0.148-1.011-0.225c-0.738-0.111-1.242-0.234-1.512-0.369s-0.482-0.341-0.637-0.619s-0.233-0.597-0.233-0.954
		c0-0.334,0.066-0.642,0.198-0.923s0.328-0.543,0.589-0.787c0.261-0.242,0.567-0.47,0.918-0.681s0.658-0.357,0.918-0.439
		s0.564-0.123,0.91-0.123c0.34,0,0.658,0.037,0.954,0.11s0.573,0.186,0.831,0.338c-0.082,0.275-0.141,0.519-0.176,0.729
		c-0.023,0.129-0.073,0.568-0.149,1.318h-0.413c-0.006-0.48-0.015-0.841-0.026-1.081c-0.205-0.229-0.447-0.398-0.725-0.51
		s-0.59-0.167-0.936-0.167c-0.551,0-0.995,0.158-1.332,0.475s-0.505,0.7-0.505,1.151c0,0.357,0.111,0.642,0.334,0.853
		c0.217,0.217,0.665,0.377,1.345,0.479s1.134,0.197,1.362,0.285c0.34,0.135,0.598,0.328,0.773,0.58s0.264,0.554,0.264,0.905
		c0,0.416-0.095,0.812-0.286,1.187s-0.48,0.725-0.87,1.051c-0.39,0.324-0.809,0.599-1.257,0.821s-0.939,0.334-1.472,0.334
		c-0.322,0-0.627-0.037-0.914-0.11S85.108,116.507,84.727,116.325z"/>
	<path fill="#231F20" d="M91.625,121.458l-0.099-0.105c0.26-1.371,0.461-2.479,0.604-3.322c0.444-2.414,0.773-4.286,0.99-5.616
		c0.166-0.826,0.306-1.708,0.421-2.646c0.021-0.141,0.033-0.246,0.033-0.316c0-0.094-0.024-0.167-0.071-0.22
		s-0.103-0.079-0.167-0.079c-0.035,0-0.076,0.006-0.123,0.018s-0.125,0.046-0.233,0.101c-0.109,0.057-0.278,0.154-0.507,0.295
		l-0.696,0.439l-0.176-0.334c0.671-0.562,1.327-1.017,1.969-1.362c0.445-0.229,0.775-0.343,0.989-0.343
		c0.127,0,0.227,0.035,0.299,0.105s0.108,0.173,0.108,0.308c0,0.07-0.006,0.163-0.018,0.276c-0.012,0.115-0.044,0.336-0.097,0.664
		c-0.088,0.504-0.144,0.812-0.167,0.923c-0.112,0.539-0.18,0.885-0.203,1.037c0.499-0.82,1.026-1.477,1.583-1.969
		c0.557-0.492,1.111-0.853,1.662-1.081c0.416-0.17,0.771-0.255,1.063-0.255c0.223,0,0.4,0.053,0.532,0.158s0.252,0.328,0.361,0.668
		s0.163,0.732,0.163,1.178c0,0.727-0.164,1.567-0.493,2.522c-0.258,0.762-0.556,1.38-0.893,1.854
		c-0.337,0.475-0.802,0.913-1.394,1.313c-0.592,0.402-1.161,0.711-1.707,0.928c-0.211,0.082-0.411,0.123-0.598,0.123
		c-0.135,0-0.267-0.014-0.396-0.039c-0.129-0.027-0.384-0.099-0.765-0.216c-0.064,0.451-0.182,1.189-0.353,2.215l-0.388,2.487
		C92.293,121.25,91.883,121.347,91.625,121.458z M93.775,115.473c0.486,0.281,0.991,0.422,1.513,0.422
		c0.439,0,0.802-0.092,1.086-0.277c0.284-0.184,0.556-0.496,0.813-0.936c0.411-0.703,0.73-1.469,0.959-2.299
		c0.229-0.828,0.343-1.551,0.343-2.166c0-0.521-0.053-0.857-0.158-1.006c-0.106-0.15-0.258-0.225-0.458-0.225
		c-0.281,0-0.581,0.076-0.897,0.229c-0.317,0.152-0.636,0.384-0.959,0.694c-0.416,0.404-0.786,0.89-1.108,1.454
		c-0.323,0.566-0.569,1.209-0.739,1.93C94.113,113.545,93.981,114.271,93.775,115.473z"/>
	<path fill="#231F20" d="M100.923,116.694l-0.108-0.123c0.394-1.67,0.716-3.082,0.968-4.236c0.325-1.447,0.605-2.824,0.839-4.131
		c0.234-1.307,0.398-2.3,0.493-2.979c0.012-0.1,0.018-0.188,0.018-0.264c0-0.111-0.022-0.194-0.066-0.25s-0.124-0.094-0.241-0.115
		c-0.117-0.02-0.498-0.03-1.141-0.03l0.04-0.36c1.189-0.211,2.054-0.457,2.594-0.738l0.176,0.176
		c-0.092,0.445-0.158,0.785-0.196,1.02l-0.639,3.551l-0.588,3.419l0.062,0.035c0.469-0.598,0.841-1.046,1.116-1.345
		c0.475-0.521,0.957-0.958,1.446-1.31s0.986-0.618,1.49-0.8c0.352-0.123,0.621-0.185,0.809-0.185c0.135,0,0.25,0.05,0.347,0.149
		s0.145,0.227,0.145,0.379c0,0.117-0.015,0.249-0.044,0.396c-0.041,0.199-0.164,0.71-0.369,1.531
		c-0.376,1.49-0.672,2.763-0.889,3.819c-0.1,0.48-0.149,0.795-0.149,0.941c0,0.088,0.022,0.156,0.066,0.207
		c0.044,0.05,0.098,0.074,0.163,0.074c0.223,0,0.73-0.299,1.522-0.896l0.176,0.325c-0.317,0.27-0.738,0.582-1.263,0.937
		c-0.525,0.354-0.972,0.613-1.342,0.777c-0.105,0.047-0.199,0.07-0.281,0.07c-0.112,0-0.211-0.059-0.299-0.176
		c-0.088-0.117-0.132-0.305-0.132-0.563c0-0.234,0.062-0.604,0.185-1.108l0.661-2.816c0.236-0.985,0.393-1.713,0.469-2.182
		c0.023-0.146,0.035-0.264,0.035-0.353c0-0.1-0.029-0.177-0.088-0.232s-0.144-0.084-0.255-0.084c-0.176,0-0.361,0.05-0.555,0.149
		c-0.499,0.258-1.027,0.665-1.587,1.222s-0.997,1.145-1.311,1.763c-0.313,0.618-0.556,1.296-0.726,2.034l-0.392,2.013l-0.855,0.193
		C101.117,116.627,101.017,116.659,100.923,116.694z"/>
	<path fill="#231F20" d="M115.427,114.541l0.114,0.343c-0.674,0.615-1.34,1.078-2,1.389s-1.217,0.466-1.674,0.466
		c-0.299,0-0.614-0.078-0.945-0.233s-0.592-0.397-0.782-0.726s-0.286-0.795-0.286-1.398c0-0.663,0.111-1.395,0.334-2.195
		s0.445-1.4,0.668-1.799c0.223-0.399,0.527-0.754,0.914-1.065c0.533-0.439,1.102-0.8,1.705-1.082
		c0.422-0.199,0.829-0.299,1.222-0.299c0.439,0,0.801,0.117,1.085,0.352c0.284,0.235,0.426,0.563,0.426,0.985
		c0,0.306-0.063,0.607-0.189,0.906c-0.126,0.3-0.3,0.558-0.523,0.774c-0.311,0.299-0.741,0.578-1.292,0.836
		s-1.125,0.473-1.723,0.643l-1.143,0.272c-0.111,0.599-0.167,1.067-0.167,1.408c0,0.575,0.127,1.006,0.382,1.293
		c0.255,0.288,0.573,0.432,0.954,0.432c0.34,0,0.721-0.084,1.143-0.25C114.074,115.424,114.666,115.074,115.427,114.541z
		 M111.411,112.278c0.75-0.141,1.395-0.345,1.934-0.611c0.539-0.268,0.93-0.593,1.173-0.978c0.243-0.384,0.365-0.752,0.365-1.104
		c0-0.299-0.075-0.527-0.224-0.687c-0.149-0.158-0.344-0.237-0.584-0.237c-0.34,0-0.684,0.102-1.033,0.304s-0.628,0.506-0.839,0.911
		C111.991,110.28,111.727,111.081,111.411,112.278z"/>
	<path fill="#231F20" d="M117.58,116.721l-0.158-0.123c0.292-0.99,0.513-1.811,0.665-2.461c0.292-1.271,0.511-2.399,0.657-3.384
		c0.082-0.568,0.123-0.961,0.123-1.178c0-0.152-0.023-0.261-0.07-0.325c-0.03-0.047-0.077-0.07-0.142-0.07
		c-0.2,0-0.698,0.287-1.494,0.861l-0.212-0.29c0.793-0.656,1.486-1.143,2.08-1.459c0.411-0.223,0.717-0.334,0.917-0.334
		c0.106,0,0.191,0.035,0.255,0.105c0.065,0.07,0.097,0.179,0.097,0.325c0,0.158-0.041,0.445-0.123,0.861
		c-0.128,0.738-0.3,1.588-0.516,2.549c0.621-1.084,1.247-2.007,1.879-2.769c0.398-0.48,0.703-0.782,0.914-0.905
		c0.21-0.123,0.416-0.185,0.615-0.185c0.105,0,0.222,0.032,0.351,0.097c-0.1,0.516-0.199,1.163-0.299,1.942l-0.237,0.053
		c-0.176-0.234-0.372-0.352-0.588-0.352c-0.199,0-0.418,0.082-0.658,0.246c-0.386,0.258-0.786,0.698-1.198,1.323
		c-0.413,0.623-0.745,1.378-0.997,2.263c-0.14,0.48-0.358,1.447-0.656,2.9C118.256,116.53,117.854,116.633,117.58,116.721z"/>
	<path fill="#231F20" d="M129.121,114.541l0.114,0.343c-0.674,0.615-1.34,1.078-2,1.389s-1.217,0.466-1.674,0.466
		c-0.299,0-0.614-0.078-0.945-0.233s-0.592-0.397-0.782-0.726s-0.286-0.795-0.286-1.398c0-0.663,0.111-1.395,0.334-2.195
		s0.445-1.4,0.668-1.799c0.223-0.399,0.527-0.754,0.914-1.065c0.533-0.439,1.102-0.8,1.705-1.082
		c0.422-0.199,0.829-0.299,1.222-0.299c0.439,0,0.801,0.117,1.085,0.352c0.284,0.235,0.426,0.563,0.426,0.985
		c0,0.306-0.063,0.607-0.189,0.906c-0.126,0.3-0.3,0.558-0.523,0.774c-0.311,0.299-0.741,0.578-1.292,0.836
		s-1.125,0.473-1.723,0.643l-1.143,0.272c-0.111,0.599-0.167,1.067-0.167,1.408c0,0.575,0.127,1.006,0.382,1.293
		c0.255,0.288,0.573,0.432,0.954,0.432c0.34,0,0.721-0.084,1.143-0.25C127.767,115.424,128.359,115.074,129.121,114.541z
		 M125.104,112.278c0.75-0.141,1.395-0.345,1.934-0.611c0.539-0.268,0.93-0.593,1.173-0.978c0.243-0.384,0.365-0.752,0.365-1.104
		c0-0.299-0.075-0.527-0.224-0.687c-0.149-0.158-0.344-0.237-0.584-0.237c-0.34,0-0.684,0.102-1.033,0.304s-0.628,0.506-0.839,0.911
		C125.684,110.28,125.42,111.081,125.104,112.278z"/>
</g>
<g enable-background="new    ">
	<path fill="#231F20" d="M90.321,139.946c-0.34-0.457-0.674-1.01-1.002-1.657c-0.328-0.646-0.568-1.188-0.721-1.625
		s-0.277-0.935-0.374-1.494s-0.145-1.139-0.145-1.736c0-1.635,0.415-3.164,1.244-4.588s1.941-2.722,3.335-3.894l0.369,0.387
		c-0.861,0.938-1.515,1.772-1.96,2.505c-0.568,0.926-0.996,1.907-1.283,2.944s-0.431,2.218-0.431,3.542
		c0,0.732,0.051,1.402,0.154,2.008c0.103,0.607,0.256,1.203,0.461,1.789c0.146,0.404,0.384,0.926,0.712,1.564L90.321,139.946z"/>
	<path fill="#231F20" d="M96.228,137.802c-0.188-0.199-0.3-0.335-0.338-0.409c-0.038-0.072-0.057-0.142-0.057-0.206
		c0-0.105,0.047-0.234,0.141-0.387c0.164-0.252,0.519-0.618,1.063-1.099c-0.164,0.006-0.302,0.009-0.413,0.009
		c-0.732,0-1.295-0.19-1.688-0.571s-0.589-0.917-0.589-1.608s0.163-1.334,0.488-1.929s0.813-1.08,1.463-1.455
		s1.318-0.562,2.004-0.562c0.551,0,1.008,0.1,1.371,0.299c0.275,0.152,0.51,0.381,0.703,0.686c0.539-0.018,0.832-0.026,0.879-0.026
		c0.164-0.018,0.378-0.047,0.642-0.088l0.035,0.044l-0.141,0.879c-0.164-0.012-0.305-0.018-0.422-0.018
		c-0.193,0-0.439,0.012-0.738,0.035c0.023,0.199,0.035,0.369,0.035,0.51c0,0.398-0.056,0.755-0.167,1.068s-0.25,0.601-0.417,0.861
		s-0.354,0.492-0.562,0.693c-0.208,0.203-0.483,0.4-0.826,0.594s-0.687,0.331-1.033,0.413c-0.328,0.311-0.492,0.577-0.492,0.8
		c0,0.217,0.085,0.422,0.255,0.615c0.17,0.199,0.694,0.662,1.573,1.389c0.486,0.398,0.812,0.753,0.976,1.063
		s0.246,0.612,0.246,0.905c0,0.393-0.136,0.792-0.409,1.199s-0.763,0.768-1.472,1.082c-0.709,0.312-1.541,0.47-2.496,0.47
		c-1.084,0-1.878-0.205-2.382-0.615s-0.756-0.917-0.756-1.521c0-0.369,0.103-0.741,0.308-1.116s0.589-0.743,1.151-1.103
		C94.725,138.342,95.413,138.042,96.228,137.802z M96.509,138.118c-0.516,0.129-0.993,0.335-1.433,0.62
		c-0.439,0.283-0.753,0.593-0.94,0.927s-0.281,0.677-0.281,1.028c0,0.527,0.209,0.971,0.628,1.332
		c0.419,0.359,1.033,0.54,1.841,0.54c0.891,0,1.6-0.205,2.127-0.615c0.387-0.299,0.58-0.668,0.58-1.107
		c0-0.229-0.06-0.457-0.18-0.686s-0.318-0.46-0.593-0.694L96.509,138.118z M95.621,133.196c0,0.639,0.151,1.12,0.453,1.446
		c0.302,0.324,0.705,0.487,1.208,0.487c0.439,0,0.814-0.132,1.125-0.396s0.546-0.656,0.708-1.178s0.242-1.043,0.242-1.564
		c0-0.615-0.144-1.078-0.431-1.389s-0.674-0.466-1.16-0.466c-0.697,0-1.229,0.302-1.595,0.905S95.621,132.364,95.621,133.196z"/>
	<path fill="#231F20" d="M112.347,131.904v0.8h-9.615v-0.8H112.347z M112.347,134.919v0.8h-9.615v-0.8H112.347z"/>
	<path fill="#231F20" d="M113.472,134.075c0-0.99,0.098-1.954,0.294-2.892s0.435-1.731,0.716-2.382s0.609-1.202,0.984-1.657
		c0.375-0.453,0.812-0.805,1.31-1.055c0.498-0.248,1.011-0.373,1.538-0.373c0.604,0,1.14,0.16,1.608,0.479
		c0.469,0.32,0.826,0.771,1.072,1.354c0.246,0.584,0.369,1.367,0.369,2.352c0,1.26-0.16,2.5-0.479,3.723
		c-0.319,1.221-0.766,2.222-1.34,3.001c-0.416,0.557-0.877,0.981-1.384,1.274s-1.059,0.439-1.657,0.439
		c-0.527,0-0.99-0.116-1.389-0.348c-0.398-0.23-0.719-0.545-0.962-0.939c-0.243-0.396-0.417-0.847-0.523-1.354
		S113.472,134.649,113.472,134.075z M114.808,134.996c0,0.41,0.037,0.797,0.11,1.161c0.073,0.363,0.176,0.658,0.308,0.884
		s0.322,0.41,0.571,0.554s0.526,0.216,0.831,0.216c0.316,0,0.62-0.085,0.91-0.255s0.583-0.485,0.879-0.945
		c0.296-0.461,0.549-1.053,0.76-1.777c0.211-0.724,0.378-1.47,0.501-2.238c0.217-1.331,0.325-2.551,0.325-3.659
		c0-0.668-0.073-1.188-0.22-1.557s-0.36-0.651-0.642-0.845s-0.589-0.29-0.923-0.29c-0.387,0-0.762,0.128-1.125,0.383
		s-0.674,0.655-0.932,1.2c-0.369,0.774-0.694,1.971-0.976,3.589C114.934,132.817,114.808,134.011,114.808,134.996z"/>
	<path fill="#231F20" d="M122.12,139.577c0.668-0.586,1.302-1.364,1.903-2.333c0.601-0.97,1.042-1.994,1.323-3.072
		s0.422-2.268,0.422-3.568c0-0.779-0.048-1.431-0.145-1.955s-0.261-1.106-0.492-1.745s-0.467-1.175-0.708-1.608l0.431-0.281
		c0.445,0.645,0.855,1.371,1.23,2.18s0.637,1.546,0.787,2.211s0.224,1.343,0.224,2.034c0,1.207-0.199,2.311-0.598,3.31
		s-0.979,1.979-1.74,2.939c-0.557,0.709-1.312,1.479-2.268,2.312L122.12,139.577z"/>
</g>
<g enable-background="new    ">
	<path fill="#231F20" d="M279.191,114.427l0.202,0.316c-0.529,0.428-1.057,0.826-1.583,1.195c-0.526,0.369-0.913,0.606-1.16,0.712
		c-0.135,0.059-0.268,0.088-0.397,0.088c-0.153,0-0.285-0.072-0.396-0.215c-0.112-0.144-0.167-0.38-0.167-0.708
		c0-0.141,0.012-0.3,0.035-0.479c0.023-0.178,0.064-0.42,0.123-0.725l0.4-1.802c0.136-0.639,0.347-1.72,0.631-3.243l-1.505,0.035
		l0.044-0.264c0.477-0.182,0.803-0.309,0.977-0.383c0.174-0.072,0.376-0.168,0.605-0.285c0.091-0.457,0.156-0.805,0.196-1.041
		c0.04-0.238,0.132-0.901,0.278-1.991l0.755-0.325l0.607-0.308l0.212,0.158c-0.234,0.943-0.36,1.45-0.378,1.521
		c-0.047,0.205-0.191,0.902-0.431,2.092c0.264,0.012,0.475,0.018,0.633,0.018c0.58,0,0.993-0.038,1.239-0.114l0.088,0.07
		l-0.211,0.861c-0.247,0-0.881-0.015-1.903-0.044c-0.105,0.486-0.271,1.314-0.497,2.482c-0.226,1.17-0.374,2.018-0.444,2.545
		c-0.029,0.211-0.044,0.375-0.044,0.492c0,0.135,0.032,0.236,0.097,0.303c0.064,0.068,0.144,0.102,0.237,0.102
		c0.076,0,0.155-0.015,0.237-0.044c0.17-0.07,0.384-0.193,0.642-0.369L279.191,114.427z"/>
	<path fill="#231F20" d="M280.778,114.011c0-0.722,0.076-1.397,0.229-2.027c0.152-0.631,0.363-1.178,0.633-1.641
		c0.27-0.464,0.601-0.873,0.993-1.228c0.393-0.355,0.835-0.64,1.327-0.854s0.967-0.321,1.424-0.321c0.422,0,0.823,0.093,1.204,0.277
		s0.677,0.472,0.888,0.862c0.211,0.39,0.316,0.925,0.316,1.605c0,0.903-0.179,1.807-0.536,2.71
		c-0.287,0.715-0.615,1.294-0.984,1.737c-0.369,0.442-0.845,0.821-1.428,1.135s-1.165,0.471-1.745,0.471
		c-0.703,0-1.266-0.228-1.688-0.682C280.989,115.602,280.778,114.92,280.778,114.011z M282.167,113.888
		c0,0.563,0.062,0.992,0.185,1.285c0.123,0.293,0.31,0.517,0.559,0.669s0.547,0.229,0.894,0.229c0.381,0,0.712-0.1,0.991-0.299
		s0.555-0.566,0.828-1.101c0.273-0.533,0.471-1.163,0.594-1.887c0.124-0.725,0.185-1.375,0.185-1.949
		c0-0.733-0.135-1.292-0.405-1.677c-0.27-0.384-0.669-0.576-1.198-0.576c-0.845,0-1.496,0.505-1.951,1.514
		S282.167,112.369,282.167,113.888z"/>
	<path fill="#231F20" d="M289.47,116.721l-0.158-0.123c0.292-0.99,0.513-1.811,0.665-2.461c0.292-1.271,0.511-2.399,0.657-3.384
		c0.082-0.568,0.123-0.961,0.123-1.178c0-0.152-0.023-0.261-0.07-0.325c-0.03-0.047-0.077-0.07-0.142-0.07
		c-0.2,0-0.698,0.287-1.494,0.861l-0.212-0.29c0.793-0.656,1.486-1.143,2.08-1.459c0.411-0.223,0.717-0.334,0.917-0.334
		c0.106,0,0.191,0.035,0.255,0.105c0.065,0.07,0.097,0.179,0.097,0.325c0,0.158-0.041,0.445-0.123,0.861
		c-0.128,0.738-0.3,1.588-0.516,2.549c0.621-1.084,1.247-2.007,1.879-2.769c0.398-0.48,0.703-0.782,0.914-0.905
		c0.21-0.123,0.416-0.185,0.615-0.185c0.105,0,0.222,0.032,0.351,0.097c-0.1,0.516-0.199,1.163-0.299,1.942l-0.237,0.053
		c-0.176-0.234-0.372-0.352-0.588-0.352c-0.199,0-0.418,0.082-0.658,0.246c-0.386,0.258-0.786,0.698-1.198,1.323
		c-0.413,0.623-0.745,1.378-0.997,2.263c-0.14,0.48-0.358,1.447-0.656,2.9C290.146,116.53,289.745,116.633,289.47,116.721z"/>
	<path fill="#231F20" d="M296.29,109.927l-0.175-0.352c0.538-0.404,1.245-0.85,2.121-1.336c0.362-0.199,0.64-0.299,0.833-0.299
		c0.111,0,0.203,0.043,0.276,0.128c0.073,0.085,0.109,0.2,0.109,0.348c0,0.135-0.047,0.396-0.141,0.783
		c-0.82,3.338-1.229,5.3-1.229,5.887c0,0.135,0.026,0.232,0.079,0.294s0.119,0.093,0.2,0.093c0.112,0,0.254-0.044,0.428-0.132
		c0.453-0.229,0.958-0.616,1.517-1.165c0.559-0.547,1.07-1.176,1.536-1.885c0.279-0.422,0.524-0.938,0.735-1.547
		s0.418-1.433,0.624-2.47c0.116-0.023,0.423-0.117,0.919-0.281l0.132,0.132l-0.311,1.591c-0.149,0.832-0.331,1.737-0.544,2.716
		c-0.214,0.979-0.358,1.667-0.434,2.065c-0.03,0.199-0.045,0.393-0.045,0.58c0,0.146,0.026,0.252,0.079,0.316
		c0.052,0.064,0.12,0.097,0.202,0.097s0.192-0.038,0.329-0.114c0.138-0.076,0.496-0.334,1.076-0.773l0.193,0.334
		c-0.995,0.803-1.699,1.321-2.114,1.556c-0.304,0.17-0.542,0.255-0.711,0.255c-0.111,0-0.212-0.055-0.303-0.163
		c-0.09-0.107-0.136-0.262-0.136-0.461c0-0.117,0.013-0.264,0.039-0.439c0.051-0.275,0.174-0.817,0.367-1.626l0.355-1.547
		l-0.056-0.026c-0.632,0.855-1.01,1.356-1.133,1.503c-0.464,0.539-0.996,1.057-1.593,1.552s-1.166,0.862-1.705,1.103
		c-0.173,0.076-0.325,0.114-0.455,0.114c-0.173,0-0.325-0.081-0.455-0.242c-0.13-0.161-0.195-0.412-0.195-0.752
		c0-0.458,0.114-1.146,0.343-2.068c0.334-1.36,0.575-2.437,0.721-3.229c0.094-0.511,0.141-0.849,0.141-1.013
		c0-0.094-0.021-0.164-0.062-0.211s-0.097-0.07-0.167-0.07C297.488,109.171,297.024,109.423,296.29,109.927z"/>
	<path fill="#231F20" d="M305.643,116.325c0.135-0.604,0.226-1.055,0.272-1.354s0.082-0.639,0.105-1.02h0.439l-0.009,1.477
		c0.281,0.229,0.542,0.393,0.782,0.492c0.316,0.129,0.636,0.193,0.958,0.193c0.393,0,0.75-0.085,1.072-0.255
		s0.567-0.408,0.734-0.717c0.167-0.307,0.25-0.643,0.25-1.006c0-0.258-0.051-0.48-0.154-0.668s-0.233-0.317-0.391-0.391
		s-0.495-0.148-1.011-0.225c-0.738-0.111-1.242-0.234-1.512-0.369s-0.482-0.341-0.637-0.619s-0.233-0.597-0.233-0.954
		c0-0.334,0.066-0.642,0.198-0.923s0.328-0.543,0.589-0.787c0.261-0.242,0.567-0.47,0.918-0.681s0.658-0.357,0.918-0.439
		s0.564-0.123,0.91-0.123c0.34,0,0.658,0.037,0.954,0.11s0.573,0.186,0.831,0.338c-0.082,0.275-0.141,0.519-0.176,0.729
		c-0.023,0.129-0.073,0.568-0.149,1.318h-0.413c-0.006-0.48-0.015-0.841-0.026-1.081c-0.205-0.229-0.447-0.398-0.725-0.51
		s-0.59-0.167-0.936-0.167c-0.551,0-0.995,0.158-1.332,0.475s-0.505,0.7-0.505,1.151c0,0.357,0.111,0.642,0.334,0.853
		c0.217,0.217,0.665,0.377,1.345,0.479s1.134,0.197,1.362,0.285c0.34,0.135,0.598,0.328,0.773,0.58s0.264,0.554,0.264,0.905
		c0,0.416-0.095,0.812-0.286,1.187s-0.48,0.725-0.87,1.051c-0.39,0.324-0.809,0.599-1.257,0.821s-0.939,0.334-1.472,0.334
		c-0.322,0-0.627-0.037-0.914-0.11S306.023,116.507,305.643,116.325z"/>
</g>
<g enable-background="new    ">
	<path fill="#231F20" d="M276.23,139.946c-0.34-0.457-0.674-1.01-1.002-1.657c-0.328-0.646-0.568-1.188-0.721-1.625
		s-0.277-0.935-0.374-1.494s-0.145-1.139-0.145-1.736c0-1.635,0.415-3.164,1.244-4.588s1.941-2.722,3.335-3.894l0.369,0.387
		c-0.861,0.938-1.515,1.772-1.96,2.505c-0.568,0.926-0.996,1.907-1.283,2.944s-0.431,2.218-0.431,3.542
		c0,0.732,0.051,1.402,0.154,2.008c0.103,0.607,0.256,1.203,0.461,1.789c0.146,0.404,0.384,0.926,0.712,1.564L276.23,139.946z"/>
	<path fill="#231F20" d="M282.136,137.802c-0.188-0.199-0.3-0.335-0.338-0.409c-0.038-0.072-0.057-0.142-0.057-0.206
		c0-0.105,0.047-0.234,0.141-0.387c0.164-0.252,0.519-0.618,1.063-1.099c-0.164,0.006-0.302,0.009-0.413,0.009
		c-0.732,0-1.295-0.19-1.688-0.571s-0.589-0.917-0.589-1.608s0.163-1.334,0.488-1.929s0.813-1.08,1.463-1.455
		s1.318-0.562,2.004-0.562c0.551,0,1.008,0.1,1.371,0.299c0.275,0.152,0.51,0.381,0.703,0.686c0.539-0.018,0.832-0.026,0.879-0.026
		c0.164-0.018,0.378-0.047,0.642-0.088l0.035,0.044l-0.141,0.879c-0.164-0.012-0.305-0.018-0.422-0.018
		c-0.193,0-0.439,0.012-0.738,0.035c0.023,0.199,0.035,0.369,0.035,0.51c0,0.398-0.056,0.755-0.167,1.068s-0.25,0.601-0.417,0.861
		s-0.354,0.492-0.562,0.693c-0.208,0.203-0.483,0.4-0.826,0.594s-0.687,0.331-1.033,0.413c-0.328,0.311-0.492,0.577-0.492,0.8
		c0,0.217,0.085,0.422,0.255,0.615c0.17,0.199,0.694,0.662,1.573,1.389c0.486,0.398,0.812,0.753,0.976,1.063
		s0.246,0.612,0.246,0.905c0,0.393-0.136,0.792-0.409,1.199s-0.763,0.768-1.472,1.082c-0.709,0.312-1.541,0.47-2.496,0.47
		c-1.084,0-1.878-0.205-2.382-0.615s-0.756-0.917-0.756-1.521c0-0.369,0.103-0.741,0.308-1.116s0.589-0.743,1.151-1.103
		C280.633,138.342,281.322,138.042,282.136,137.802z M282.417,138.118c-0.516,0.129-0.993,0.335-1.433,0.62
		c-0.439,0.283-0.753,0.593-0.94,0.927s-0.281,0.677-0.281,1.028c0,0.527,0.209,0.971,0.628,1.332
		c0.419,0.359,1.033,0.54,1.841,0.54c0.891,0,1.6-0.205,2.127-0.615c0.387-0.299,0.58-0.668,0.58-1.107
		c0-0.229-0.06-0.457-0.18-0.686s-0.318-0.46-0.593-0.694L282.417,138.118z M281.53,133.196c0,0.639,0.151,1.12,0.453,1.446
		c0.302,0.324,0.705,0.487,1.208,0.487c0.439,0,0.814-0.132,1.125-0.396s0.546-0.656,0.708-1.178s0.242-1.043,0.242-1.564
		c0-0.615-0.144-1.078-0.431-1.389s-0.674-0.466-1.16-0.466c-0.697,0-1.229,0.302-1.595,0.905S281.53,132.364,281.53,133.196z"/>
	<path fill="#231F20" d="M298.255,131.904v0.8h-9.615v-0.8H298.255z M298.255,134.919v0.8h-9.615v-0.8H298.255z"/>
	<path fill="#231F20" d="M299.684,138.127l0.062-0.527c0.955-0.064,1.541-0.141,1.758-0.229c0.123-0.047,0.22-0.114,0.29-0.202
		c0.1-0.123,0.19-0.363,0.272-0.721s0.32-1.646,0.713-3.867c0.504-2.771,0.82-4.668,0.948-5.688
		c-1.029,0.387-2.155,0.874-3.379,1.46l-0.115-0.079l0.185-1.055c0.404-0.076,0.957-0.217,1.657-0.422s1.248-0.382,1.644-0.532
		c0.396-0.148,0.872-0.353,1.428-0.61l0.255,0.211c-0.258,1.111-0.501,2.325-0.729,3.642l-0.801,4.59
		c-0.188,1.147-0.302,1.925-0.343,2.335c-0.018,0.152-0.026,0.283-0.026,0.395c0,0.152,0.031,0.272,0.092,0.36
		s0.148,0.151,0.259,0.192c0.152,0.059,0.425,0.105,0.817,0.141l1.169,0.079l-0.097,0.527c-1.178-0.047-2.328-0.07-3.447-0.07
		C301.329,138.057,300.458,138.08,299.684,138.127z"/>
	<path fill="#231F20" d="M308.029,139.577c0.668-0.586,1.302-1.364,1.903-2.333c0.601-0.97,1.042-1.994,1.323-3.072
		s0.422-2.268,0.422-3.568c0-0.779-0.048-1.431-0.145-1.955s-0.261-1.106-0.492-1.745s-0.467-1.175-0.708-1.608l0.431-0.281
		c0.445,0.645,0.855,1.371,1.23,2.18s0.637,1.546,0.787,2.211s0.224,1.343,0.224,2.034c0,1.207-0.199,2.311-0.598,3.31
		s-0.979,1.979-1.74,2.939c-0.557,0.709-1.312,1.479-2.268,2.312L308.029,139.577z"/>
</g>
<g enable-background="new    ">
	<path fill="#231F20" d="M491.118,114.585l0.167,0.325c-0.346,0.311-0.747,0.63-1.202,0.958c-0.454,0.328-0.847,0.562-1.175,0.703
		c-0.183,0.082-0.323,0.123-0.423,0.123c-0.105,0-0.202-0.061-0.29-0.181c-0.088-0.119-0.132-0.32-0.132-0.602
		c0-0.188,0.019-0.394,0.058-0.619c0.037-0.226,0.218-1.045,0.54-2.457l-0.048-0.009c-0.439,0.75-0.971,1.45-1.598,2.101
		c-0.625,0.65-1.239,1.14-1.842,1.468c-0.381,0.205-0.688,0.308-0.922,0.308c-0.233,0-0.427-0.172-0.578-0.514
		c-0.152-0.344-0.229-0.764-0.229-1.262c0-0.686,0.102-1.451,0.303-2.299c0.202-0.846,0.465-1.58,0.787-2.201
		c0.245-0.475,0.526-0.858,0.843-1.151c0.497-0.457,1.065-0.829,1.704-1.116c0.311-0.135,0.65-0.202,1.02-0.202
		c0.293,0,0.772,0.07,1.439,0.211l0.454-2.201c0.097-0.473,0.145-0.768,0.145-0.885c0-0.182-0.036-0.307-0.11-0.377
		c-0.072-0.07-0.221-0.105-0.443-0.105l-0.861-0.009l0.044-0.36c0.721-0.094,1.235-0.188,1.546-0.281s0.692-0.267,1.146-0.519
		l0.22,0.176c-0.094,0.352-0.254,1.104-0.481,2.259c-0.141,0.738-0.523,2.599-1.148,5.581c-0.309,1.471-0.508,2.502-0.596,3.094
		c-0.023,0.188-0.035,0.357-0.035,0.51c0,0.158,0.023,0.268,0.07,0.33c0.047,0.061,0.108,0.092,0.186,0.092
		c0.105,0,0.252-0.059,0.439-0.176C490.508,115.062,490.842,114.825,491.118,114.585z M489.365,109.188
		c-0.544-0.287-1.109-0.431-1.694-0.431c-0.428,0-0.778,0.062-1.054,0.185c-0.193,0.082-0.365,0.222-0.514,0.417
		c-0.15,0.197-0.338,0.614-0.562,1.253c-0.226,0.639-0.396,1.21-0.514,1.714c-0.193,0.826-0.29,1.588-0.29,2.285
		c0,0.264,0.018,0.451,0.053,0.562s0.081,0.188,0.136,0.229c0.056,0.041,0.125,0.062,0.207,0.062c0.146,0,0.305-0.041,0.474-0.123
		c0.45-0.223,0.882-0.527,1.296-0.914c0.412-0.387,0.783-0.832,1.115-1.336c0.33-0.504,0.595-1.046,0.794-1.626
		C488.952,111.055,489.137,110.296,489.365,109.188z"/>
	<path fill="#231F20" d="M492.331,114.011c0-0.722,0.076-1.397,0.229-2.027c0.152-0.631,0.363-1.178,0.633-1.641
		c0.27-0.464,0.601-0.873,0.993-1.228c0.393-0.355,0.835-0.64,1.327-0.854s0.967-0.321,1.424-0.321c0.422,0,0.823,0.093,1.204,0.277
		s0.677,0.472,0.888,0.862c0.211,0.39,0.316,0.925,0.316,1.605c0,0.903-0.179,1.807-0.536,2.71
		c-0.287,0.715-0.615,1.294-0.984,1.737c-0.369,0.442-0.846,0.821-1.428,1.135c-0.584,0.313-1.165,0.471-1.745,0.471
		c-0.703,0-1.266-0.228-1.688-0.682C492.542,115.602,492.331,114.92,492.331,114.011z M493.72,113.888
		c0,0.563,0.062,0.992,0.185,1.285s0.311,0.517,0.56,0.669s0.548,0.229,0.894,0.229c0.382,0,0.713-0.1,0.991-0.299
		s0.555-0.566,0.828-1.101c0.272-0.533,0.472-1.163,0.595-1.887c0.123-0.725,0.185-1.375,0.185-1.949
		c0-0.733-0.136-1.292-0.405-1.677c-0.27-0.384-0.669-0.576-1.197-0.576c-0.846,0-1.496,0.505-1.951,1.514
		S493.72,112.369,493.72,113.888z"/>
	<path fill="#231F20" d="M500.838,109.927l-0.175-0.352c0.538-0.404,1.245-0.85,2.121-1.336c0.362-0.199,0.64-0.299,0.833-0.299
		c0.111,0,0.203,0.043,0.276,0.128s0.109,0.2,0.109,0.348c0,0.135-0.047,0.396-0.141,0.783c-0.819,3.338-1.229,5.3-1.229,5.887
		c0,0.135,0.026,0.232,0.079,0.294s0.119,0.093,0.2,0.093c0.111,0,0.254-0.044,0.428-0.132c0.453-0.229,0.959-0.616,1.517-1.165
		c0.559-0.547,1.07-1.176,1.536-1.885c0.278-0.422,0.523-0.938,0.734-1.547s0.418-1.433,0.623-2.47
		c0.117-0.023,0.424-0.117,0.92-0.281l0.132,0.132l-0.311,1.591c-0.149,0.832-0.331,1.737-0.544,2.716
		c-0.214,0.979-0.357,1.667-0.434,2.065c-0.03,0.199-0.045,0.393-0.045,0.58c0,0.146,0.025,0.252,0.078,0.316
		s0.12,0.097,0.202,0.097s0.192-0.038,0.329-0.114c0.138-0.076,0.496-0.334,1.076-0.773l0.192,0.334
		c-0.995,0.803-1.699,1.321-2.114,1.556c-0.305,0.17-0.541,0.255-0.711,0.255c-0.111,0-0.212-0.055-0.303-0.163
		c-0.09-0.107-0.136-0.262-0.136-0.461c0-0.117,0.013-0.264,0.038-0.439c0.052-0.275,0.174-0.817,0.367-1.626l0.355-1.547
		l-0.055-0.026c-0.633,0.855-1.01,1.356-1.134,1.503c-0.464,0.539-0.995,1.057-1.593,1.552s-1.166,0.862-1.705,1.103
		c-0.174,0.076-0.325,0.114-0.455,0.114c-0.174,0-0.325-0.081-0.455-0.242c-0.129-0.161-0.194-0.412-0.194-0.752
		c0-0.458,0.114-1.146,0.343-2.068c0.334-1.36,0.574-2.437,0.721-3.229c0.094-0.511,0.141-0.849,0.141-1.013
		c0-0.094-0.02-0.164-0.061-0.211s-0.098-0.07-0.168-0.07C502.036,109.171,501.572,109.423,500.838,109.927z"/>
	<path fill="#231F20" d="M512.592,110.683c0.404-0.533,0.711-0.911,0.922-1.134c0.352-0.363,0.715-0.665,1.09-0.905
		s0.756-0.414,1.143-0.522s0.717-0.163,0.992-0.163c0.246,0,0.431,0.091,0.554,0.272c0.217,0.34,0.325,0.876,0.325,1.608
		c0,0.99-0.22,2.019-0.659,3.085c-0.335,0.82-0.746,1.497-1.235,2.03s-1.043,0.964-1.661,1.292s-1.18,0.492-1.684,0.492
		c-0.51,0-0.943-0.155-1.302-0.466c-0.357-0.311-0.535-0.642-0.535-0.993c0-0.129,0.012-0.264,0.035-0.404
		c0.012-0.1,0.078-0.431,0.201-0.993c0.203-0.926,0.672-3.229,1.406-6.908c0.215-1.09,0.322-1.755,0.322-1.995
		c0-0.146-0.044-0.243-0.133-0.29c-0.123-0.07-0.57-0.111-1.342-0.123l0.043-0.36c0.822-0.111,1.398-0.212,1.729-0.303
		c0.328-0.091,0.688-0.236,1.076-0.436l0.212,0.185c-0.083,0.287-0.174,0.682-0.273,1.185L512.592,110.683z M511.869,114.664
		c0,0.41,0.119,0.732,0.355,0.967c0.238,0.234,0.564,0.352,0.98,0.352c0.475,0,0.894-0.158,1.257-0.475
		c0.48-0.422,0.914-1.17,1.301-2.246c0.387-1.074,0.58-2.063,0.58-2.966c0-0.551-0.067-0.917-0.202-1.099
		c-0.088-0.129-0.243-0.193-0.466-0.193c-0.275,0-0.546,0.05-0.81,0.149s-0.541,0.27-0.834,0.51c-0.294,0.24-0.57,0.536-0.832,0.888
		c-0.26,0.352-0.471,0.706-0.629,1.063s-0.314,0.879-0.47,1.564S511.868,114.359,511.869,114.664z"/>
	<path fill="#231F20" d="M522.293,114.611l0.149,0.352c-0.152,0.135-0.51,0.406-1.072,0.812c-0.562,0.408-1.019,0.685-1.37,0.831
		c-0.17,0.076-0.328,0.114-0.475,0.114c-0.164,0-0.295-0.06-0.391-0.18c-0.098-0.12-0.146-0.31-0.146-0.566
		c0-0.217,0.021-0.431,0.062-0.642c0.059-0.352,0.338-1.631,0.836-3.838c0.378-1.581,0.616-2.614,0.715-3.101
		c0.248-1.188,0.424-2.146,0.529-2.872c0.025-0.158,0.037-0.312,0.037-0.465c0-0.164-0.039-0.28-0.119-0.347
		c-0.078-0.067-0.241-0.102-0.487-0.102l-0.809-0.009l0.043-0.36c0.548-0.06,1.026-0.143,1.432-0.249s0.846-0.261,1.32-0.463
		l0.229,0.141c-0.117,0.533-0.544,2.54-1.282,6.021c-0.598,2.818-0.94,4.547-1.028,5.186c-0.018,0.111-0.026,0.208-0.026,0.29
		c0,0.123,0.029,0.22,0.088,0.29s0.123,0.105,0.193,0.105c0.053,0,0.111-0.015,0.176-0.044c0.129-0.052,0.354-0.183,0.676-0.392
		L522.293,114.611z"/>
	<path fill="#231F20" d="M529.219,114.541l0.114,0.343c-0.674,0.615-1.341,1.078-1.999,1.389c-0.66,0.311-1.218,0.466-1.675,0.466
		c-0.299,0-0.614-0.078-0.944-0.233c-0.332-0.155-0.592-0.397-0.783-0.726c-0.189-0.328-0.285-0.795-0.285-1.398
		c0-0.663,0.111-1.395,0.334-2.195s0.445-1.4,0.668-1.799c0.223-0.399,0.527-0.754,0.914-1.065c0.533-0.439,1.102-0.8,1.705-1.082
		c0.422-0.199,0.829-0.299,1.222-0.299c0.439,0,0.802,0.117,1.085,0.352c0.285,0.235,0.427,0.563,0.427,0.985
		c0,0.306-0.063,0.607-0.188,0.906c-0.127,0.3-0.301,0.558-0.523,0.774c-0.311,0.299-0.741,0.578-1.292,0.836
		s-1.125,0.473-1.723,0.643l-1.143,0.272c-0.111,0.599-0.167,1.067-0.167,1.408c0,0.575,0.127,1.006,0.383,1.293
		c0.254,0.288,0.572,0.432,0.953,0.432c0.34,0,0.721-0.084,1.143-0.25C527.865,115.424,528.457,115.074,529.219,114.541z
		 M525.202,112.278c0.75-0.141,1.395-0.345,1.934-0.611c0.539-0.268,0.931-0.593,1.173-0.978c0.244-0.384,0.365-0.752,0.365-1.104
		c0-0.299-0.074-0.527-0.225-0.687c-0.148-0.158-0.344-0.237-0.584-0.237c-0.34,0-0.684,0.102-1.033,0.304
		c-0.348,0.202-0.628,0.506-0.839,0.911C525.782,110.28,525.519,111.081,525.202,112.278z"/>
	<path fill="#231F20" d="M539.576,114.427l0.202,0.316c-0.529,0.428-1.058,0.826-1.583,1.195c-0.526,0.369-0.913,0.606-1.16,0.712
		c-0.135,0.059-0.268,0.088-0.396,0.088c-0.153,0-0.285-0.072-0.396-0.215c-0.112-0.144-0.168-0.38-0.168-0.708
		c0-0.141,0.012-0.3,0.035-0.479c0.023-0.178,0.064-0.42,0.123-0.725l0.4-1.802c0.136-0.639,0.346-1.72,0.631-3.243l-1.506,0.035
		l0.045-0.264c0.477-0.182,0.803-0.309,0.977-0.383c0.174-0.072,0.375-0.168,0.605-0.285c0.091-0.457,0.156-0.805,0.195-1.041
		c0.039-0.238,0.133-0.901,0.277-1.991l0.756-0.325l0.607-0.308l0.211,0.158c-0.234,0.943-0.359,1.45-0.377,1.521
		c-0.048,0.205-0.191,0.902-0.432,2.092c0.264,0.012,0.475,0.018,0.633,0.018c0.58,0,0.993-0.038,1.239-0.114l0.088,0.07
		l-0.212,0.861c-0.246,0-0.881-0.015-1.902-0.044c-0.105,0.486-0.271,1.314-0.496,2.482c-0.227,1.17-0.374,2.018-0.444,2.545
		c-0.029,0.211-0.044,0.375-0.044,0.492c0,0.135,0.032,0.236,0.097,0.303c0.064,0.068,0.144,0.102,0.237,0.102
		c0.076,0,0.155-0.015,0.237-0.044c0.17-0.07,0.384-0.193,0.642-0.369L539.576,114.427z"/>
	<path fill="#231F20" d="M541.163,114.011c0-0.722,0.076-1.397,0.229-2.027c0.152-0.631,0.363-1.178,0.633-1.641
		c0.27-0.464,0.601-0.873,0.993-1.228c0.393-0.355,0.835-0.64,1.327-0.854s0.967-0.321,1.424-0.321c0.422,0,0.823,0.093,1.204,0.277
		s0.677,0.472,0.888,0.862c0.211,0.39,0.316,0.925,0.316,1.605c0,0.903-0.179,1.807-0.536,2.71
		c-0.287,0.715-0.615,1.294-0.984,1.737c-0.369,0.442-0.846,0.821-1.428,1.135c-0.584,0.313-1.165,0.471-1.745,0.471
		c-0.703,0-1.266-0.228-1.688-0.682C541.374,115.602,541.163,114.92,541.163,114.011z M542.552,113.888
		c0,0.563,0.062,0.992,0.185,1.285s0.311,0.517,0.56,0.669s0.548,0.229,0.894,0.229c0.382,0,0.713-0.1,0.991-0.299
		s0.555-0.566,0.828-1.101c0.272-0.533,0.472-1.163,0.595-1.887c0.123-0.725,0.185-1.375,0.185-1.949
		c0-0.733-0.136-1.292-0.405-1.677c-0.27-0.384-0.669-0.576-1.197-0.576c-0.846,0-1.496,0.505-1.951,1.514
		S542.552,112.369,542.552,113.888z"/>
	<path fill="#231F20" d="M549.854,116.721l-0.158-0.123c0.292-0.99,0.513-1.811,0.665-2.461c0.291-1.271,0.51-2.399,0.656-3.384
		c0.082-0.568,0.123-0.961,0.123-1.178c0-0.152-0.023-0.261-0.07-0.325c-0.03-0.047-0.077-0.07-0.143-0.07
		c-0.199,0-0.697,0.287-1.493,0.861l-0.212-0.29c0.793-0.656,1.486-1.143,2.08-1.459c0.41-0.223,0.717-0.334,0.916-0.334
		c0.105,0,0.191,0.035,0.256,0.105s0.097,0.179,0.097,0.325c0,0.158-0.041,0.445-0.122,0.861c-0.129,0.738-0.301,1.588-0.517,2.549
		c0.62-1.084,1.247-2.007,1.88-2.769c0.397-0.48,0.702-0.782,0.913-0.905c0.21-0.123,0.415-0.185,0.614-0.185
		c0.105,0,0.223,0.032,0.352,0.097c-0.1,0.516-0.199,1.163-0.299,1.942l-0.237,0.053c-0.176-0.234-0.372-0.352-0.589-0.352
		c-0.198,0-0.418,0.082-0.658,0.246c-0.386,0.258-0.785,0.698-1.197,1.323c-0.413,0.623-0.745,1.378-0.997,2.263
		c-0.14,0.48-0.358,1.447-0.655,2.9C550.531,116.53,550.129,116.633,549.854,116.721z"/>
	<path fill="#231F20" d="M556.675,109.927l-0.175-0.352c0.537-0.404,1.244-0.85,2.121-1.336c0.362-0.199,0.641-0.299,0.833-0.299
		c0.11,0,0.203,0.043,0.276,0.128c0.072,0.085,0.109,0.2,0.109,0.348c0,0.135-0.047,0.396-0.141,0.783
		c-0.82,3.338-1.229,5.3-1.229,5.887c0,0.135,0.026,0.232,0.079,0.294s0.119,0.093,0.199,0.093c0.112,0,0.255-0.044,0.429-0.132
		c0.452-0.229,0.958-0.616,1.517-1.165c0.559-0.547,1.07-1.176,1.535-1.885c0.279-0.422,0.524-0.938,0.735-1.547
		s0.419-1.433,0.624-2.47c0.115-0.023,0.422-0.117,0.919-0.281l0.132,0.132l-0.311,1.591c-0.149,0.832-0.33,1.737-0.544,2.716
		s-0.358,1.667-0.434,2.065c-0.03,0.199-0.046,0.393-0.046,0.58c0,0.146,0.027,0.252,0.08,0.316
		c0.052,0.064,0.119,0.097,0.201,0.097s0.191-0.038,0.329-0.114s0.496-0.334,1.075-0.773l0.193,0.334
		c-0.994,0.803-1.699,1.321-2.114,1.556c-0.304,0.17-0.542,0.255-0.711,0.255c-0.11,0-0.212-0.055-0.303-0.163
		c-0.091-0.107-0.136-0.262-0.136-0.461c0-0.117,0.013-0.264,0.039-0.439c0.051-0.275,0.174-0.817,0.367-1.626l0.355-1.547
		l-0.057-0.026c-0.631,0.855-1.01,1.356-1.133,1.503c-0.465,0.539-0.996,1.057-1.594,1.552s-1.166,0.862-1.704,1.103
		c-0.173,0.076-0.325,0.114-0.455,0.114c-0.173,0-0.325-0.081-0.454-0.242c-0.131-0.161-0.195-0.412-0.195-0.752
		c0-0.458,0.114-1.146,0.343-2.068c0.335-1.36,0.575-2.437,0.722-3.229c0.094-0.511,0.141-0.849,0.141-1.013
		c0-0.094-0.021-0.164-0.062-0.211s-0.096-0.07-0.166-0.07C557.873,109.171,557.409,109.423,556.675,109.927z"/>
	<path fill="#231F20" d="M566.027,116.325c0.135-0.604,0.226-1.055,0.272-1.354s0.082-0.639,0.105-1.02h0.439l-0.009,1.477
		c0.281,0.229,0.542,0.393,0.782,0.492c0.316,0.129,0.636,0.193,0.958,0.193c0.393,0,0.75-0.085,1.072-0.255
		s0.566-0.408,0.734-0.717c0.166-0.307,0.25-0.643,0.25-1.006c0-0.258-0.051-0.48-0.154-0.668c-0.102-0.188-0.232-0.317-0.391-0.391
		s-0.495-0.148-1.011-0.225c-0.738-0.111-1.242-0.234-1.512-0.369s-0.481-0.341-0.638-0.619c-0.154-0.278-0.232-0.597-0.232-0.954
		c0-0.334,0.066-0.642,0.197-0.923c0.133-0.281,0.328-0.543,0.59-0.787c0.26-0.242,0.566-0.47,0.918-0.681s0.658-0.357,0.918-0.439
		c0.262-0.082,0.564-0.123,0.91-0.123c0.34,0,0.658,0.037,0.953,0.11c0.297,0.073,0.573,0.186,0.831,0.338
		c-0.082,0.275-0.141,0.519-0.176,0.729c-0.023,0.129-0.073,0.568-0.149,1.318h-0.413c-0.006-0.48-0.015-0.841-0.026-1.081
		c-0.205-0.229-0.447-0.398-0.725-0.51c-0.279-0.111-0.591-0.167-0.937-0.167c-0.551,0-0.995,0.158-1.331,0.475
		c-0.338,0.316-0.506,0.7-0.506,1.151c0,0.357,0.111,0.642,0.334,0.853c0.217,0.217,0.665,0.377,1.345,0.479
		s1.134,0.197,1.362,0.285c0.34,0.135,0.598,0.328,0.773,0.58s0.264,0.554,0.264,0.905c0,0.416-0.096,0.812-0.285,1.187
		c-0.191,0.375-0.48,0.725-0.871,1.051c-0.389,0.324-0.809,0.599-1.256,0.821c-0.449,0.223-0.939,0.334-1.473,0.334
		c-0.322,0-0.627-0.037-0.914-0.11S566.408,116.507,566.027,116.325z"/>
</g>
<g enable-background="new    ">
	<path fill="#231F20" d="M510.695,139.946c-0.34-0.457-0.674-1.01-1.002-1.657c-0.328-0.646-0.568-1.188-0.721-1.625
		s-0.276-0.935-0.373-1.494s-0.145-1.139-0.145-1.736c0-1.635,0.414-3.164,1.243-4.588s1.94-2.722,3.335-3.894l0.369,0.387
		c-0.861,0.938-1.514,1.772-1.959,2.505c-0.568,0.926-0.996,1.907-1.283,2.944s-0.432,2.218-0.432,3.542
		c0,0.732,0.052,1.402,0.154,2.008c0.103,0.607,0.256,1.203,0.461,1.789c0.146,0.404,0.385,0.926,0.713,1.564L510.695,139.946z"/>
	<path fill="#231F20" d="M516.602,137.802c-0.188-0.199-0.3-0.335-0.338-0.409c-0.038-0.072-0.057-0.142-0.057-0.206
		c0-0.105,0.047-0.234,0.141-0.387c0.164-0.252,0.518-0.618,1.062-1.099c-0.164,0.006-0.301,0.009-0.412,0.009
		c-0.732,0-1.295-0.19-1.688-0.571s-0.59-0.917-0.59-1.608s0.163-1.334,0.488-1.929s0.812-1.08,1.463-1.455s1.318-0.562,2.004-0.562
		c0.551,0,1.008,0.1,1.371,0.299c0.275,0.152,0.51,0.381,0.703,0.686c0.539-0.018,0.832-0.026,0.879-0.026
		c0.164-0.018,0.379-0.047,0.643-0.088l0.035,0.044l-0.141,0.879c-0.164-0.012-0.305-0.018-0.422-0.018
		c-0.193,0-0.439,0.012-0.738,0.035c0.023,0.199,0.035,0.369,0.035,0.51c0,0.398-0.057,0.755-0.168,1.068s-0.25,0.601-0.417,0.861
		s-0.354,0.492-0.562,0.693c-0.208,0.203-0.483,0.4-0.826,0.594s-0.687,0.331-1.032,0.413c-0.328,0.311-0.492,0.577-0.492,0.8
		c0,0.217,0.084,0.422,0.254,0.615c0.17,0.199,0.695,0.662,1.574,1.389c0.486,0.398,0.811,0.753,0.975,1.063
		s0.246,0.612,0.246,0.905c0,0.393-0.136,0.792-0.408,1.199s-0.764,0.768-1.473,1.082c-0.709,0.312-1.541,0.47-2.496,0.47
		c-1.084,0-1.877-0.205-2.381-0.615s-0.756-0.917-0.756-1.521c0-0.369,0.102-0.741,0.307-1.116s0.59-0.743,1.152-1.103
		C515.1,138.342,515.787,138.042,516.602,137.802z M516.883,138.118c-0.516,0.129-0.992,0.335-1.432,0.62
		c-0.439,0.283-0.754,0.593-0.941,0.927s-0.281,0.677-0.281,1.028c0,0.527,0.21,0.971,0.629,1.332
		c0.419,0.359,1.033,0.54,1.842,0.54c0.891,0,1.6-0.205,2.127-0.615c0.387-0.299,0.58-0.668,0.58-1.107
		c0-0.229-0.061-0.457-0.181-0.686s-0.317-0.46-0.593-0.694L516.883,138.118z M515.996,133.196c0,0.639,0.15,1.12,0.452,1.446
		c0.302,0.324,0.704,0.487,1.208,0.487c0.439,0,0.814-0.132,1.125-0.396s0.547-0.656,0.708-1.178s0.241-1.043,0.241-1.564
		c0-0.615-0.143-1.078-0.43-1.389s-0.674-0.466-1.16-0.466c-0.697,0-1.229,0.302-1.596,0.905S515.996,132.364,515.996,133.196z"/>
	<path fill="#231F20" d="M532.721,131.904v0.8h-9.615v-0.8H532.721z M532.721,134.919v0.8h-9.615v-0.8H532.721z"/>
	<path fill="#231F20" d="M533.398,138.127l0.018-0.343c0.281-0.287,1.037-1.099,2.268-2.435c1.096-1.189,1.908-2.172,2.438-2.949
		c0.53-0.775,0.89-1.449,1.077-2.021c0.188-0.57,0.281-1.07,0.281-1.498c0-0.363-0.08-0.697-0.238-1.002s-0.395-0.539-0.711-0.703
		s-0.66-0.246-1.029-0.246c-0.516,0-0.988,0.157-1.419,0.471s-0.815,0.783-1.155,1.41l-0.396-0.167
		c0.621-1.184,0.982-1.881,1.082-2.092c0.363-0.258,0.732-0.449,1.107-0.575s0.791-0.189,1.248-0.189
		c0.926,0,1.659,0.258,2.201,0.773s0.812,1.189,0.812,2.021c0,0.398-0.054,0.793-0.162,1.183c-0.108,0.389-0.273,0.771-0.496,1.146
		c-0.305,0.527-0.754,1.121-1.346,1.783c-0.387,0.439-1.215,1.313-2.486,2.62l-1.398,1.486l0.027,0.114l3.523-0.009
		c0.855,0,1.568-0.05,2.137-0.149l0.113,0.123c-0.129,0.498-0.229,0.914-0.299,1.248c-1.547-0.064-2.691-0.097-3.436-0.097
		c-0.076,0-0.264,0.003-0.562,0.009c-0.85,0.023-1.623,0.041-2.32,0.053C533.955,138.098,533.662,138.109,533.398,138.127z"/>
	<path fill="#231F20" d="M542.494,139.577c0.668-0.586,1.303-1.364,1.903-2.333c0.601-0.97,1.042-1.994,1.323-3.072
		s0.422-2.268,0.422-3.568c0-0.779-0.049-1.431-0.146-1.955s-0.261-1.106-0.492-1.745s-0.468-1.175-0.708-1.608l0.432-0.281
		c0.445,0.645,0.855,1.371,1.23,2.18s0.637,1.546,0.786,2.211s0.224,1.343,0.224,2.034c0,1.207-0.199,2.311-0.598,3.31
		s-0.979,1.979-1.74,2.939c-0.557,0.709-1.312,1.479-2.268,2.312L542.494,139.577z"/>
</g>
</svg>
