<?xml version="1.0" encoding="utf-8"?>
<!-- Generator: Adobe Illustrator 14.0.0, SVG Export Plug-In . SVG Version: 6.00 Build 43363)  -->
<!DOCTYPE svg PUBLIC "-//W3C//DTD SVG 1.1//EN" "http://www.w3.org/Graphics/SVG/1.1/DTD/svg11.dtd">
<svg version="1.1" id="Layer_1" xmlns="http://www.w3.org/2000/svg" xmlns:xlink="http://www.w3.org/1999/xlink" x="0px" y="0px"
	 width="377.981px" height="203.343px" viewBox="0 0 377.981 203.343" enable-background="new 0 0 377.981 203.343"
	 xml:space="preserve">
<g>
	<path fill="#B0B6C8" d="M67.899,8.167c-5.66-2.075-11.742,1.703-16.194,4.821c-11.497,8.053-22.386,18.7-28.675,31.277
		c-2.707,5.414-5.456,11.346-6.34,17.393c-0.727,4.969,0.088,10.164,0.472,15.13c0.23,2.983,0.009,6.008,0.307,8.976
		c0.555,5.53,2.63,11.201,4.394,16.437c1.723,5.113,3.691,9.756,5.029,15.031c0.949,3.74,1.109,7.24,2.742,10.848
		c4.716,10.418,10.304,19.549,17.929,28.01c2.563,2.843,4.545,5.515,8.516,6.041c2.39,0.318,4.858-0.146,7.261,0.074
		c3.048,0.281,6.369,1.73,9.407,0.691c2.348-0.805,4.121-3.012,6.222-4.217c1.996-1.146,4.298-1.662,6.487-2.324
		c6.595-1.996,12.751-5.88,19.699-6.404c3.231-0.244,6.507,0.055,9.745-0.018c3.434-0.076,6.647-1.131,9.927-2.178
		c6.934-2.213,12.704-5.039,16.035-11.778c3.141-6.353,6.247-13.013,8.33-19.798c2.297-7.482,1.593-15.437,3.289-23.053
		c0.667-2.996,1.498-5.963,0.817-9.014c-0.743-3.329-1.679-6.035-1.891-9.513c-0.38-6.259-1.867-8.94-6.283-13.26
		c-3.077-3.01-4.605-5.621-6.653-9.486c-2.735-5.161-8.396-7.37-11.465-12.323c-1.906-3.077-1.687-7.231-4.169-10.018
		c-3.676-4.128-10.543-7.312-15.57-9.05c-9.769-3.379-18.819-4.452-29.075-4.541c-4.173-0.036-4.994-6.782-8.792-7.754H67.899
		L67.899,8.167z"/>
	<polygon fill="none" stroke="#231F20" points="116.649,39.917 137.399,92.667 111.149,138.917 49.399,127.917 38.399,90.167 
		65.149,42.167 	"/>
	<line fill="none" stroke="#231F20" x1="65.399" y1="42.167" x2="87.399" y2="89.667"/>
	<line fill="none" stroke="#231F20" x1="87.399" y1="89.667" x2="116.899" y2="39.667"/>
	<line fill="none" stroke="#231F20" x1="137.899" y1="92.667" x2="87.399" y2="89.667"/>
	<line fill="none" stroke="#231F20" x1="87.399" y1="89.667" x2="49.399" y2="128.167"/>
	<line fill="none" stroke="#231F20" x1="87.399" y1="89.667" x2="111.399" y2="139.167"/>
	<line fill="none" stroke="#231F20" x1="87.399" y1="89.667" x2="38.399" y2="90.167"/>
	<circle fill="#231F20" cx="87.399" cy="89.667" r="4"/>
	<line fill="none" stroke="#231F20" x1="65.149" y1="42.167" x2="81.649" y2="14.417"/>
	<line fill="none" stroke="#231F20" x1="116.649" y1="39.917" x2="108.149" y2="17.167"/>
	<line fill="none" stroke="#231F20" x1="116.649" y1="39.917" x2="125.149" y2="25.667"/>
	<line fill="none" stroke="#231F20" x1="116.649" y1="39.917" x2="131.149" y2="41.417"/>
	<line fill="none" stroke="#231F20" x1="65.149" y1="42.167" x2="13.399" y2="52.417"/>
	<line fill="none" stroke="#231F20" x1="65.149" y1="42.167" x2="42.149" y2="14.417"/>
	<line fill="none" stroke="#231F20" x1="38.399" y1="90.167" x2="18.566" y2="106.333"/>
	<line fill="none" stroke="#231F20" x1="49.399" y1="127.917" x2="34.649" y2="145.917"/>
	<line fill="none" stroke="#231F20" x1="49.399" y1="127.917" x2="64.149" y2="166.917"/>
	<line fill="none" stroke="#231F20" x1="111.149" y1="138.917" x2="118.899" y2="155.167"/>
	<line fill="none" stroke="#231F20" x1="111.149" y1="138.917" x2="101.649" y2="153.917"/>
	<line fill="none" stroke="#231F20" x1="137.399" y1="92.667" x2="154.899" y2="71.167"/>
	<line fill="none" stroke="#231F20" x1="137.399" y1="92.667" x2="154.233" y2="115.333"/>
	<g enable-background="new    ">
		<path fill="#231F20" d="M81.394,101.422l2.935-0.63c0.21,0.501,0.379,1.013,0.508,1.533c0.183,0.766,0.332,1.673,0.447,2.723
			c0.054,0.527,0.128,1.645,0.223,3.352c0.847-0.935,1.351-1.514,1.514-1.737c0.894-1.212,1.408-1.923,1.543-2.133
			c0.224-0.358,0.379-0.674,0.467-0.944c0.074-0.203,0.112-0.396,0.112-0.579c0-0.176-0.158-0.379-0.472-0.609
			c-0.315-0.23-0.473-0.487-0.473-0.771c0-0.217,0.086-0.41,0.259-0.579c0.172-0.169,0.377-0.254,0.614-0.254
			c0.285,0,0.535,0.117,0.751,0.351s0.325,0.522,0.325,0.868s-0.054,0.677-0.163,0.995c-0.176,0.515-0.504,1.143-0.985,1.884
			c-0.481,0.742-1.256,1.735-2.326,2.981c-0.135,0.155-0.887,0.941-2.254,2.356h-0.376c-0.163-4.286-0.501-6.961-1.016-8.023
			c-0.169-0.346-0.45-0.519-0.843-0.519c-0.169,0-0.41,0.03-0.721,0.092L81.394,101.422z"/>
	</g>
</g>
<g enable-background="new    ">
	<path fill="#231F20" d="M16.669,194.738c-0.176-0.51-0.542-1.493-1.099-2.951l-2.988-7.386c-0.316-0.785-0.513-1.238-0.589-1.361
		c-0.053-0.076-0.126-0.132-0.22-0.167c-0.129-0.059-0.451-0.105-0.967-0.141v-0.562c1.061,0.041,1.843,0.062,2.347,0.062
		c0.475,0,1.28-0.021,2.417-0.062v0.562c-0.715,0.012-1.129,0.027-1.244,0.045s-0.193,0.053-0.237,0.104s-0.066,0.109-0.066,0.175
		c0,0.066,0.041,0.222,0.123,0.468c0.252,0.797,0.472,1.438,0.659,1.923l2.752,6.943l2.293-5.758
		c0.334-0.825,0.653-1.724,0.958-2.696c0.129-0.416,0.193-0.673,0.193-0.772c0-0.141-0.076-0.234-0.229-0.281
		c-0.117-0.041-0.568-0.091-1.354-0.149v-0.562c0.885,0.041,1.55,0.062,1.995,0.062c0.457,0,1.087-0.021,1.89-0.062v0.562
		c-0.445,0.018-0.712,0.047-0.8,0.088s-0.17,0.123-0.246,0.246c-0.053,0.088-0.27,0.562-0.65,1.423l-2.742,6.745l-0.677,1.729
		c-0.141,0.346-0.255,0.645-0.343,0.896s-0.185,0.544-0.29,0.878H16.669z"/>
	<path fill="#231F20" d="M29.396,193.286l-0.281,0.633c-0.404,0.252-0.7,0.42-0.888,0.502c-0.275,0.123-0.59,0.228-0.945,0.312
		s-0.728,0.128-1.121,0.128c-0.773,0-1.474-0.161-2.101-0.483s-1.115-0.804-1.463-1.446c-0.349-0.641-0.523-1.393-0.523-2.254
		c0-0.674,0.092-1.281,0.277-1.824c0.185-0.541,0.394-0.941,0.628-1.199c0.17-0.188,0.434-0.402,0.791-0.646
		c0.357-0.242,0.712-0.435,1.063-0.575c0.463-0.193,0.964-0.29,1.503-0.29c0.656,0,1.25,0.149,1.78,0.448s0.918,0.706,1.165,1.222
		s0.369,1.099,0.369,1.749c0,0.164-0.015,0.363-0.044,0.598c-0.421,0.082-0.799,0.135-1.132,0.158
		c-0.632,0.047-1.264,0.07-1.896,0.07h-2.817c0.012,0.84,0.157,1.52,0.435,2.04c0.278,0.52,0.662,0.903,1.151,1.149
		c0.489,0.247,0.998,0.37,1.525,0.37c0.357,0,0.713-0.058,1.068-0.174c0.354-0.115,0.792-0.328,1.314-0.637L29.396,193.286z
		 M23.762,189.693c0.164,0.018,0.475,0.035,0.932,0.053c0.873,0.029,1.474,0.044,1.802,0.044c0.779,0,1.292-0.015,1.538-0.044
		c0.006-0.141,0.009-0.249,0.009-0.325c0-0.926-0.188-1.605-0.562-2.039s-0.876-0.65-1.503-0.65c-0.662,0-1.195,0.237-1.6,0.712
		S23.768,188.667,23.762,189.693z"/>
	<path fill="#231F20" d="M30.662,194.65v-0.501c0.666-0.012,1.025-0.023,1.079-0.035c0.1-0.018,0.175-0.045,0.225-0.083
		c0.05-0.038,0.09-0.093,0.12-0.163c0.059-0.135,0.094-0.346,0.106-0.633c0.029-1.564,0.044-2.382,0.044-2.452v-1.046
		c0-0.469-0.009-0.973-0.026-1.512c-0.012-0.346-0.037-0.551-0.075-0.615s-0.105-0.112-0.202-0.146
		c-0.097-0.031-0.479-0.045-1.147-0.039v-0.501c1.184-0.164,2.048-0.378,2.593-0.642c0.117-0.059,0.196-0.088,0.237-0.088
		s0.073,0.015,0.097,0.044s0.035,0.073,0.035,0.132c0,0.041-0.003,0.088-0.009,0.141c-0.029,0.357-0.047,0.911-0.053,1.661
		c0.264-0.305,0.507-0.606,0.729-0.905s0.384-0.492,0.483-0.58c0.176-0.152,0.378-0.273,0.606-0.365
		c0.229-0.09,0.466-0.136,0.712-0.136s0.489,0.053,0.729,0.158l0.053,0.123c-0.088,0.779-0.138,1.465-0.149,2.057h-0.396
		c-0.135-0.281-0.292-0.486-0.47-0.615s-0.403-0.193-0.672-0.193c-0.451,0-0.835,0.187-1.151,0.558
		c-0.316,0.373-0.475,0.931-0.475,1.675v0.905c0,0.387,0.015,1.093,0.044,2.118c0.006,0.363,0.021,0.595,0.044,0.694
		s0.054,0.172,0.092,0.215c0.038,0.045,0.101,0.081,0.189,0.11c0.176,0.053,0.65,0.105,1.424,0.158v0.501
		c-1.031-0.041-1.91-0.062-2.637-0.062C32.091,194.588,31.365,194.609,30.662,194.65z"/>
	<path fill="#231F20" d="M37.763,187.759v-0.369c0.564-0.223,1.012-0.422,1.345-0.598c0-1.395,0-2.285,0-2.672
		c0.609-0.211,1.104-0.437,1.485-0.677l0.211,0.176c-0.064,0.486-0.135,1.559-0.211,3.217c0.469,0.006,0.75,0.009,0.844,0.009
		c0.053,0,0.354-0.006,0.905-0.018c0.305-0.006,0.533-0.018,0.686-0.035l0.062,0.062l-0.185,0.817
		c-0.369-0.006-0.709-0.009-1.02-0.009s-0.741,0.003-1.292,0.009l-0.044,3.577c-0.018,0.873-0.012,1.395,0.018,1.564
		c0.029,0.17,0.084,0.318,0.167,0.444c0.082,0.126,0.188,0.227,0.319,0.303s0.355,0.135,0.67,0.176c0.24,0,0.434-0.01,0.583-0.031
		c0.149-0.02,0.337-0.071,0.565-0.153l0.105,0.343c-0.275,0.217-0.542,0.442-0.799,0.677c-0.223,0.082-0.43,0.136-0.624,0.163
		c-0.193,0.025-0.415,0.039-0.667,0.039c-0.31,0-0.558-0.035-0.742-0.105s-0.353-0.168-0.505-0.295
		c-0.152-0.125-0.278-0.285-0.379-0.479s-0.166-0.498-0.196-0.914c0.006-0.398,0.018-0.835,0.035-1.31
		c0.006-0.094,0.009-0.196,0.009-0.308v-3.647h-0.36C38.455,187.715,38.126,187.73,37.763,187.759z"/>
	<path fill="#231F20" d="M51,193.286l-0.281,0.633c-0.404,0.252-0.7,0.42-0.888,0.502c-0.275,0.123-0.59,0.228-0.945,0.312
		s-0.728,0.128-1.121,0.128c-0.773,0-1.474-0.161-2.101-0.483s-1.115-0.804-1.463-1.446c-0.349-0.641-0.523-1.393-0.523-2.254
		c0-0.674,0.092-1.281,0.277-1.824c0.185-0.541,0.394-0.941,0.628-1.199c0.17-0.188,0.434-0.402,0.791-0.646
		c0.357-0.242,0.712-0.435,1.063-0.575c0.463-0.193,0.964-0.29,1.503-0.29c0.656,0,1.25,0.149,1.78,0.448s0.918,0.706,1.165,1.222
		s0.369,1.099,0.369,1.749c0,0.164-0.015,0.363-0.044,0.598c-0.421,0.082-0.799,0.135-1.132,0.158
		c-0.632,0.047-1.264,0.07-1.896,0.07h-2.817c0.012,0.84,0.157,1.52,0.435,2.04c0.278,0.52,0.662,0.903,1.151,1.149
		c0.489,0.247,0.998,0.37,1.525,0.37c0.357,0,0.713-0.058,1.068-0.174c0.354-0.115,0.792-0.328,1.314-0.637L51,193.286z
		 M45.366,189.693c0.164,0.018,0.475,0.035,0.932,0.053c0.873,0.029,1.474,0.044,1.802,0.044c0.779,0,1.292-0.015,1.538-0.044
		c0.006-0.141,0.009-0.249,0.009-0.325c0-0.926-0.188-1.605-0.562-2.039s-0.876-0.65-1.503-0.65c-0.662,0-1.195,0.237-1.6,0.712
		S45.372,188.667,45.366,189.693z"/>
	<path fill="#231F20" d="M52.168,194.65v-0.501c0.281,0,0.501-0.041,0.659-0.123c0.211-0.117,0.495-0.384,0.853-0.8l2.056-2.518
		l-0.744-1.11c-0.397-0.599-0.785-1.133-1.164-1.602s-0.692-0.776-0.938-0.923c-0.094-0.053-0.206-0.079-0.335-0.079
		c-0.053,0-0.146,0.006-0.282,0.018l-0.105-0.501c0.68-0.076,1.368-0.19,2.065-0.343c0.223,0.205,0.428,0.422,0.615,0.65
		c0.322,0.416,0.715,0.98,1.178,1.694l0.65,1.025l0.545-0.702c0.428-0.544,1.031-1.378,1.81-2.501
		c0.305,0.018,0.533,0.026,0.686,0.026c0.141,0,0.36-0.009,0.659-0.026v0.501c-0.259,0.006-0.453,0.053-0.582,0.141
		c-0.271,0.182-0.714,0.649-1.331,1.404l-0.841,1.004l-0.543,0.707l0.325,0.493c0.141,0.205,0.518,0.732,1.13,1.58
		s1.045,1.406,1.297,1.676c0.129,0.135,0.237,0.22,0.325,0.255s0.261,0.053,0.519,0.053v0.501c-0.41-0.041-0.779-0.062-1.107-0.062
		c-0.346,0-0.709,0.021-1.09,0.062c-0.375-0.476-0.712-0.934-1.011-1.373l-1.335-2.008c-0.65,0.757-1.459,1.884-2.426,3.381
		c-0.234-0.041-0.492-0.062-0.773-0.062C52.658,194.588,52.403,194.609,52.168,194.65z"/>
</g>
<g enable-background="new    ">
	<path fill="#231F20" d="M68.024,187.241l2.54-0.545c0.182,0.434,0.328,0.876,0.439,1.327c0.158,0.662,0.287,1.447,0.387,2.355
		c0.047,0.457,0.111,1.424,0.193,2.9c0.732-0.809,1.169-1.31,1.31-1.503c0.773-1.049,1.219-1.664,1.336-1.846
		c0.193-0.311,0.328-0.583,0.404-0.817c0.064-0.176,0.097-0.343,0.097-0.501c0-0.152-0.136-0.328-0.409-0.527
		s-0.409-0.422-0.409-0.668c0-0.188,0.075-0.354,0.224-0.501s0.327-0.22,0.532-0.22c0.246,0,0.463,0.101,0.65,0.304
		c0.188,0.201,0.281,0.452,0.281,0.751s-0.047,0.586-0.141,0.861c-0.152,0.445-0.437,0.989-0.853,1.63
		c-0.416,0.643-1.087,1.502-2.013,2.58c-0.117,0.135-0.768,0.814-1.951,2.039h-0.325c-0.141-3.709-0.434-6.023-0.879-6.943
		c-0.146-0.299-0.39-0.448-0.729-0.448c-0.146,0-0.354,0.026-0.624,0.079L68.024,187.241z"/>
</g>
<g enable-background="new    ">
	<path fill="#231F20" d="M80.522,187.417v-0.501c1.137-0.129,2.092-0.375,2.865-0.738l0.193,0.141
		c-0.047,1.248-0.07,2.203-0.07,2.865v1.6c0.029,1.523,0.047,2.347,0.053,2.47c0.006,0.293,0.038,0.507,0.097,0.642
		c0.029,0.053,0.067,0.099,0.114,0.137s0.117,0.068,0.211,0.092c0.035,0.006,0.36,0.015,0.976,0.026v0.501
		c-0.891-0.041-1.603-0.062-2.136-0.062c-0.469,0-1.236,0.021-2.303,0.062v-0.501l0.84-0.009c0.124-0.006,0.219-0.027,0.287-0.066
		c0.068-0.037,0.12-0.086,0.155-0.145c0.065-0.117,0.106-0.325,0.124-0.624c0-0.076,0.015-0.917,0.044-2.522v-1.547
		c0-0.873-0.029-1.392-0.088-1.556c-0.035-0.088-0.098-0.153-0.189-0.198C81.604,187.439,81.213,187.417,80.522,187.417z
		 M82.667,182.275c0.275,0,0.508,0.097,0.699,0.29s0.286,0.428,0.286,0.703c0,0.27-0.097,0.501-0.29,0.694s-0.425,0.29-0.694,0.29
		c-0.275,0-0.51-0.097-0.703-0.29s-0.29-0.425-0.29-0.694c0-0.275,0.097-0.51,0.29-0.703S82.391,182.275,82.667,182.275z"/>
	<path fill="#231F20" d="M86.173,191.996h0.527c0.006,0.34,0.023,0.609,0.053,0.809s0.079,0.395,0.15,0.584
		c0.07,0.191,0.179,0.352,0.326,0.484c0.147,0.131,0.307,0.234,0.48,0.307c0.173,0.074,0.349,0.122,0.528,0.146
		s0.451,0.035,0.815,0.035c0.599,0,1.09-0.158,1.475-0.475c0.385-0.316,0.577-0.75,0.577-1.301c0-0.246-0.06-0.463-0.181-0.65
		c-0.12-0.188-0.293-0.334-0.52-0.439c-0.226-0.105-0.711-0.243-1.457-0.413c-0.745-0.17-1.227-0.293-1.444-0.369
		c-0.329-0.123-0.59-0.272-0.784-0.448s-0.348-0.398-0.462-0.668c-0.115-0.27-0.172-0.562-0.172-0.879
		c0-0.463,0.122-0.889,0.365-1.278s0.626-0.706,1.149-0.949c0.522-0.243,1.091-0.365,1.708-0.365c0.37,0,0.798,0.052,1.285,0.154
		s0.883,0.229,1.188,0.382c-0.041,0.65-0.07,1.312-0.088,1.986h-0.501c-0.029-0.428-0.063-0.709-0.102-0.844
		c-0.038-0.135-0.089-0.255-0.154-0.36c-0.065-0.105-0.176-0.218-0.335-0.338s-0.363-0.228-0.612-0.321s-0.556-0.141-0.92-0.141
		c-0.517,0-0.932,0.152-1.247,0.457c-0.314,0.305-0.471,0.662-0.471,1.072c0,0.229,0.045,0.425,0.136,0.589s0.213,0.298,0.366,0.4
		c0.152,0.103,0.367,0.194,0.643,0.276l1.461,0.36c0.74,0.188,1.249,0.349,1.528,0.483s0.503,0.345,0.673,0.628
		c0.17,0.285,0.255,0.626,0.255,1.024c0,0.791-0.327,1.481-0.981,2.069c-0.654,0.59-1.53,0.884-2.627,0.884
		c-0.505,0-1.177-0.076-2.016-0.229c-0.463-0.088-0.713-0.149-0.748-0.185c-0.023-0.018-0.035-0.047-0.035-0.088
		s0.006-0.091,0.018-0.149c0.053-0.252,0.088-0.498,0.105-0.738S86.162,192.757,86.173,191.996z"/>
	<path fill="#231F20" d="M97.907,194.65v-0.501c0.666-0.012,1.025-0.023,1.079-0.035c0.1-0.018,0.175-0.045,0.225-0.083
		c0.05-0.038,0.09-0.093,0.12-0.163c0.059-0.135,0.094-0.346,0.106-0.633c0.029-1.564,0.044-2.382,0.044-2.452v-1.046
		c0-0.469-0.009-0.973-0.026-1.512c-0.012-0.346-0.037-0.551-0.075-0.615s-0.105-0.112-0.202-0.146
		c-0.097-0.031-0.479-0.045-1.147-0.039v-0.501c1.184-0.164,2.048-0.378,2.593-0.642c0.117-0.059,0.196-0.088,0.237-0.088
		s0.073,0.015,0.097,0.044s0.035,0.073,0.035,0.132c0,0.041-0.003,0.088-0.009,0.141c-0.029,0.357-0.047,0.911-0.053,1.661
		c0.264-0.305,0.507-0.606,0.729-0.905s0.384-0.492,0.483-0.58c0.176-0.152,0.378-0.273,0.606-0.365
		c0.229-0.09,0.466-0.136,0.712-0.136s0.489,0.053,0.729,0.158l0.053,0.123c-0.088,0.779-0.138,1.465-0.149,2.057h-0.396
		c-0.135-0.281-0.292-0.486-0.47-0.615s-0.403-0.193-0.672-0.193c-0.451,0-0.835,0.187-1.151,0.558
		c-0.316,0.373-0.475,0.931-0.475,1.675v0.905c0,0.387,0.015,1.093,0.044,2.118c0.006,0.363,0.021,0.595,0.044,0.694
		s0.054,0.172,0.092,0.215c0.038,0.045,0.101,0.081,0.189,0.11c0.176,0.053,0.65,0.105,1.424,0.158v0.501
		c-1.031-0.041-1.91-0.062-2.637-0.062C99.336,194.588,98.61,194.609,97.907,194.65z"/>
	<path fill="#231F20" d="M112.057,193.286l-0.281,0.633c-0.404,0.252-0.7,0.42-0.888,0.502c-0.275,0.123-0.59,0.228-0.945,0.312
		s-0.728,0.128-1.121,0.128c-0.773,0-1.474-0.161-2.101-0.483s-1.115-0.804-1.463-1.446c-0.349-0.641-0.523-1.393-0.523-2.254
		c0-0.674,0.092-1.281,0.277-1.824c0.185-0.541,0.394-0.941,0.628-1.199c0.17-0.188,0.434-0.402,0.791-0.646
		c0.357-0.242,0.712-0.435,1.063-0.575c0.463-0.193,0.964-0.29,1.503-0.29c0.656,0,1.25,0.149,1.78,0.448s0.918,0.706,1.165,1.222
		s0.369,1.099,0.369,1.749c0,0.164-0.015,0.363-0.044,0.598c-0.421,0.082-0.799,0.135-1.132,0.158
		c-0.632,0.047-1.264,0.07-1.896,0.07h-2.817c0.012,0.84,0.157,1.52,0.435,2.04c0.278,0.52,0.662,0.903,1.151,1.149
		c0.489,0.247,0.998,0.37,1.525,0.37c0.357,0,0.713-0.058,1.068-0.174c0.354-0.115,0.792-0.328,1.314-0.637L112.057,193.286z
		 M106.423,189.693c0.164,0.018,0.475,0.035,0.932,0.053c0.873,0.029,1.474,0.044,1.802,0.044c0.779,0,1.292-0.015,1.538-0.044
		c0.006-0.141,0.009-0.249,0.009-0.325c0-0.926-0.188-1.605-0.562-2.039s-0.876-0.65-1.503-0.65c-0.662,0-1.195,0.237-1.6,0.712
		S106.429,188.667,106.423,189.693z"/>
	<path fill="#231F20" d="M122.648,186.88l0.07,0.167c-0.229,0.346-0.378,0.583-0.448,0.712h-1.635
		c0.135,0.345,0.202,0.67,0.202,0.974c0,0.444-0.116,0.878-0.347,1.302c-0.231,0.425-0.57,0.787-1.015,1.088
		s-0.92,0.505-1.424,0.609c-0.328,0.07-0.771,0.1-1.327,0.088c-0.381,0.303-0.621,0.53-0.721,0.682
		c-0.064,0.105-0.097,0.219-0.097,0.342c0,0.14,0.042,0.264,0.127,0.371c0.085,0.108,0.215,0.184,0.391,0.227
		c0.264,0.073,0.732,0.11,1.406,0.11l1.898-0.044c0.662,0,1.165,0.087,1.507,0.26s0.596,0.438,0.76,0.792
		c0.164,0.355,0.246,0.756,0.246,1.201c0,0.604-0.198,1.22-0.593,1.845c-0.396,0.624-0.983,1.117-1.762,1.479
		c-0.779,0.36-1.652,0.541-2.619,0.541c-0.809,0-1.497-0.126-2.065-0.378s-0.989-0.589-1.261-1.011s-0.409-0.864-0.409-1.327
		c0-0.258,0.04-0.5,0.119-0.726s0.212-0.467,0.4-0.725c0.715-0.328,1.228-0.615,1.538-0.861c-0.486-0.158-0.798-0.308-0.936-0.448
		s-0.207-0.281-0.207-0.422c0-0.117,0.088-0.434,0.264-0.949c0.287-0.24,0.738-0.58,1.354-1.02
		c-0.527-0.146-0.933-0.317-1.217-0.514c-0.284-0.195-0.505-0.462-0.664-0.798c-0.158-0.337-0.237-0.707-0.237-1.11
		c0-0.597,0.152-1.131,0.457-1.602s0.817-0.854,1.538-1.149c0.721-0.296,1.389-0.443,2.004-0.443c0.398,0,0.778,0.064,1.138,0.193
		s0.702,0.322,1.024,0.58C121.209,186.91,122.056,186.898,122.648,186.88z M118.034,194.747c-0.873,0-1.421,0.012-1.644,0.035
		c-0.111,0.018-0.237,0.076-0.378,0.176c-0.463,0.328-0.709,0.51-0.738,0.545c-0.059,0.059-0.123,0.179-0.193,0.36
		c-0.123,0.328-0.185,0.659-0.185,0.993c0,0.615,0.239,1.135,0.716,1.56s1.135,0.638,1.973,0.638c0.621,0,1.188-0.125,1.701-0.374
		s0.899-0.588,1.16-1.02c0.261-0.43,0.391-0.862,0.391-1.296c-0.018-0.375-0.075-0.659-0.171-0.853s-0.214-0.346-0.352-0.457
		s-0.327-0.202-0.567-0.272C119.607,194.764,119.036,194.752,118.034,194.747z M115.458,188.854c0,0.415,0.078,0.818,0.233,1.21
		c0.155,0.393,0.384,0.688,0.686,0.887c0.302,0.198,0.646,0.298,1.033,0.298c0.504,0,0.949-0.162,1.336-0.487
		c0.387-0.324,0.58-0.846,0.58-1.565c0-0.736-0.193-1.323-0.58-1.759s-0.853-0.653-1.397-0.653c-0.568,0-1.025,0.18-1.371,0.54
		C115.631,187.683,115.458,188.193,115.458,188.854z"/>
	<path fill="#231F20" d="M133.318,194.149v0.501c-0.768-0.041-1.348-0.062-1.74-0.062c-0.434,0-0.873,0.021-1.318,0.062
		c0.035-0.475,0.062-1.008,0.079-1.6c-0.352,0.281-0.771,0.665-1.257,1.151c-0.111,0.111-0.22,0.193-0.325,0.246
		c-0.252,0.141-0.504,0.241-0.755,0.304c-0.252,0.061-0.553,0.092-0.905,0.092c-0.474,0-0.871-0.064-1.19-0.193
		c-0.319-0.129-0.593-0.325-0.821-0.589c-0.171-0.193-0.302-0.444-0.394-0.751c-0.092-0.309-0.137-0.679-0.137-1.112
		c0-0.205,0.007-0.398,0.022-0.58s0.022-0.36,0.022-0.536v-1.503c0-0.152-0.009-0.536-0.026-1.151
		c-0.012-0.387-0.038-0.639-0.079-0.756c-0.023-0.059-0.062-0.105-0.114-0.141c-0.088-0.059-0.243-0.088-0.466-0.088
		c-0.322,0-0.577-0.003-0.765-0.009v-0.501c1.26-0.141,2.174-0.366,2.742-0.677c0.094-0.053,0.167-0.079,0.22-0.079
		c0.041,0,0.075,0.015,0.101,0.044s0.04,0.073,0.04,0.132c0,0.047-0.003,0.105-0.009,0.176c-0.023,0.188-0.044,0.548-0.062,1.081
		c-0.035,0.979-0.053,1.635-0.053,1.969v1.714c0,0.715,0.048,1.217,0.145,1.508c0.097,0.289,0.284,0.521,0.562,0.693
		c0.278,0.174,0.622,0.26,1.032,0.26c0.281,0,0.561-0.049,0.839-0.146c0.278-0.097,0.529-0.236,0.751-0.419
		c0.164-0.135,0.332-0.315,0.502-0.544c0.129-0.17,0.214-0.3,0.255-0.391c0.041-0.091,0.067-0.224,0.079-0.399
		c0.029-0.516,0.044-1.028,0.044-1.538v-0.738c0-0.152-0.009-0.536-0.026-1.151c-0.012-0.387-0.038-0.639-0.079-0.756
		c-0.023-0.059-0.062-0.105-0.114-0.141c-0.088-0.059-0.243-0.088-0.466-0.088c-0.322,0-0.577-0.003-0.765-0.009v-0.501
		c1.256-0.141,2.167-0.366,2.734-0.677c0.094-0.053,0.167-0.079,0.219-0.079c0.041,0,0.074,0.015,0.101,0.044s0.04,0.073,0.04,0.132
		c0,0.047-0.003,0.105-0.008,0.176c-0.016,0.188-0.035,0.56-0.056,1.116c-0.033,0.955-0.05,1.6-0.05,1.934v1.204l0.018,1.222
		c0.022,0.709,0.037,1.125,0.044,1.248c0.006,0.293,0.038,0.507,0.096,0.642c0.029,0.053,0.067,0.099,0.113,0.137
		c0.047,0.038,0.117,0.068,0.21,0.092C132.383,194.128,132.707,194.137,133.318,194.149z"/>
	<path fill="#231F20" d="M134.223,194.65v-0.501l0.826-0.009c0.129-0.006,0.227-0.027,0.294-0.065s0.119-0.087,0.154-0.146
		c0.064-0.117,0.103-0.325,0.114-0.623c0.006-0.076,0.026-0.917,0.062-2.521v-3.646c0-0.978-0.015-1.987-0.044-3.029
		c-0.023-0.703-0.056-1.095-0.097-1.177c-0.03-0.059-0.077-0.1-0.142-0.123c-0.088-0.041-0.495-0.062-1.22-0.062v-0.519
		c1.324-0.164,2.244-0.369,2.76-0.615c0.076-0.035,0.135-0.053,0.176-0.053s0.073,0.013,0.097,0.04
		c0.023,0.025,0.035,0.062,0.035,0.109c0,0.041-0.006,0.1-0.018,0.176l-0.009,0.29c-0.029,1.048-0.047,1.94-0.053,2.679l-0.018,1.37
		v4.558c0.024,1.522,0.039,2.346,0.044,2.469c0.006,0.293,0.041,0.506,0.106,0.641c0.024,0.053,0.059,0.099,0.106,0.137
		c0.047,0.038,0.118,0.068,0.212,0.092c0.042,0.006,0.369,0.015,0.982,0.026v0.501c-0.797-0.041-1.497-0.062-2.101-0.062
		C135.917,194.588,135.161,194.609,134.223,194.65z"/>
	<path fill="#231F20" d="M140.92,188.629l-0.466-0.123c0.006-0.135,0.009-0.319,0.009-0.554c0-0.246-0.003-0.442-0.009-0.589
		c0.745-0.486,1.355-0.814,1.831-0.984c0.363-0.123,0.771-0.185,1.223-0.185c0.669,0,1.232,0.126,1.69,0.378
		s0.798,0.612,1.021,1.081c0.153,0.328,0.229,0.776,0.229,1.345l-0.044,1.608v2.619c0,0.281,0.023,0.483,0.07,0.606
		c0.035,0.088,0.091,0.152,0.167,0.193c0.059,0.035,0.182,0.059,0.369,0.07l0.571,0.053v0.501c-0.48-0.041-0.902-0.062-1.266-0.062
		c-0.352,0-0.82,0.021-1.406,0.062l0.044-1.547c-1.195,0.902-1.904,1.41-2.127,1.525c-0.223,0.113-0.504,0.171-0.844,0.171
		c-0.709,0-1.261-0.188-1.657-0.567c-0.396-0.377-0.593-0.88-0.593-1.507c0-0.404,0.069-0.773,0.207-1.107s0.303-0.599,0.497-0.796
		c0.193-0.195,0.39-0.341,0.589-0.435c0.34-0.158,0.892-0.328,1.657-0.51s1.522-0.316,2.272-0.404
		c0.006-0.557-0.062-0.99-0.202-1.301s-0.378-0.565-0.712-0.765s-0.741-0.299-1.222-0.299c-0.346,0-0.649,0.047-0.91,0.141
		s-0.42,0.173-0.479,0.237l-0.158,0.316C141.114,188.155,140.997,188.43,140.92,188.629z M144.955,190.009
		c-0.762,0.129-1.412,0.272-1.951,0.431s-0.92,0.322-1.143,0.492c-0.135,0.1-0.252,0.249-0.352,0.448
		c-0.152,0.293-0.229,0.618-0.229,0.976c0,0.434,0.12,0.772,0.36,1.015c0.24,0.244,0.574,0.365,1.002,0.365
		c0.393,0,0.781-0.112,1.165-0.338s0.766-0.564,1.147-1.016V190.009z"/>
	<path fill="#231F20" d="M148.426,194.65v-0.501c0.666-0.012,1.025-0.023,1.079-0.035c0.1-0.018,0.175-0.045,0.225-0.083
		c0.05-0.038,0.09-0.093,0.12-0.163c0.059-0.135,0.094-0.346,0.106-0.633c0.029-1.564,0.044-2.382,0.044-2.452v-1.046
		c0-0.469-0.009-0.973-0.026-1.512c-0.012-0.346-0.037-0.551-0.075-0.615s-0.105-0.112-0.202-0.146
		c-0.097-0.031-0.479-0.045-1.147-0.039v-0.501c1.184-0.164,2.048-0.378,2.593-0.642c0.117-0.059,0.196-0.088,0.237-0.088
		s0.073,0.015,0.097,0.044s0.035,0.073,0.035,0.132c0,0.041-0.003,0.088-0.009,0.141c-0.029,0.357-0.047,0.911-0.053,1.661
		c0.264-0.305,0.507-0.606,0.729-0.905s0.384-0.492,0.483-0.58c0.176-0.152,0.378-0.273,0.606-0.365
		c0.229-0.09,0.466-0.136,0.712-0.136s0.489,0.053,0.729,0.158l0.053,0.123c-0.088,0.779-0.138,1.465-0.149,2.057h-0.396
		c-0.135-0.281-0.292-0.486-0.47-0.615s-0.403-0.193-0.672-0.193c-0.451,0-0.835,0.187-1.151,0.558
		c-0.316,0.373-0.475,0.931-0.475,1.675v0.905c0,0.387,0.015,1.093,0.044,2.118c0.006,0.363,0.021,0.595,0.044,0.694
		s0.054,0.172,0.092,0.215c0.038,0.045,0.101,0.081,0.189,0.11c0.176,0.053,0.65,0.105,1.424,0.158v0.501
		c-1.031-0.041-1.91-0.062-2.637-0.062C149.856,194.588,149.129,194.609,148.426,194.65z"/>
	<path fill="#231F20" d="M156.046,192.637c0.293,0,0.541,0.103,0.743,0.308s0.303,0.454,0.303,0.747
		c0,0.287-0.103,0.533-0.308,0.738s-0.451,0.308-0.738,0.308c-0.293,0-0.542-0.103-0.747-0.308s-0.308-0.451-0.308-0.738
		c0-0.293,0.103-0.542,0.308-0.747S155.753,192.637,156.046,192.637z"/>
</g>
<g enable-background="new    ">
	<path fill="#231F20" d="M215.665,194.738c-0.176-0.51-0.543-1.493-1.1-2.951l-2.988-7.386c-0.316-0.785-0.512-1.238-0.588-1.361
		c-0.053-0.076-0.127-0.132-0.221-0.167c-0.129-0.059-0.451-0.105-0.967-0.141v-0.562c1.061,0.041,1.844,0.062,2.348,0.062
		c0.475,0,1.279-0.021,2.416-0.062v0.562c-0.715,0.012-1.129,0.027-1.243,0.045s-0.193,0.053-0.237,0.104s-0.066,0.109-0.066,0.175
		c0,0.066,0.041,0.222,0.123,0.468c0.252,0.797,0.473,1.438,0.66,1.923l2.752,6.943l2.293-5.758
		c0.334-0.825,0.652-1.724,0.957-2.696c0.129-0.416,0.193-0.673,0.193-0.772c0-0.141-0.076-0.234-0.229-0.281
		c-0.117-0.041-0.568-0.091-1.354-0.149v-0.562c0.885,0.041,1.551,0.062,1.996,0.062c0.457,0,1.086-0.021,1.889-0.062v0.562
		c-0.445,0.018-0.711,0.047-0.799,0.088s-0.17,0.123-0.246,0.246c-0.053,0.088-0.27,0.562-0.65,1.423l-2.742,6.745l-0.678,1.729
		c-0.141,0.346-0.254,0.645-0.342,0.896s-0.186,0.544-0.291,0.878H215.665z"/>
	<path fill="#231F20" d="M228.391,193.286l-0.281,0.633c-0.404,0.252-0.701,0.42-0.889,0.502c-0.275,0.123-0.59,0.228-0.944,0.312
		s-0.728,0.128-1.12,0.128c-0.773,0-1.475-0.161-2.102-0.483s-1.114-0.804-1.463-1.446c-0.349-0.641-0.523-1.393-0.523-2.254
		c0-0.674,0.093-1.281,0.277-1.824c0.185-0.541,0.395-0.941,0.629-1.199c0.17-0.188,0.434-0.402,0.791-0.646
		c0.357-0.242,0.711-0.435,1.062-0.575c0.463-0.193,0.965-0.29,1.504-0.29c0.656,0,1.249,0.149,1.779,0.448s0.918,0.706,1.164,1.222
		s0.369,1.099,0.369,1.749c0,0.164-0.014,0.363-0.043,0.598c-0.422,0.082-0.799,0.135-1.133,0.158
		c-0.632,0.047-1.264,0.07-1.896,0.07h-2.817c0.012,0.84,0.157,1.52,0.436,2.04c0.278,0.52,0.662,0.903,1.151,1.149
		c0.489,0.247,0.997,0.37,1.524,0.37c0.357,0,0.714-0.058,1.068-0.174c0.354-0.115,0.793-0.328,1.314-0.637L228.391,193.286z
		 M222.756,189.693c0.164,0.018,0.475,0.035,0.932,0.053c0.873,0.029,1.475,0.044,1.803,0.044c0.779,0,1.291-0.015,1.537-0.044
		c0.006-0.141,0.01-0.249,0.01-0.325c0-0.926-0.188-1.605-0.562-2.039s-0.877-0.65-1.504-0.65c-0.662,0-1.195,0.237-1.6,0.712
		S222.762,188.667,222.756,189.693z"/>
	<path fill="#231F20" d="M229.657,194.65v-0.501c0.666-0.012,1.025-0.023,1.078-0.035c0.1-0.018,0.176-0.045,0.225-0.083
		c0.051-0.038,0.09-0.093,0.12-0.163c0.059-0.135,0.095-0.346,0.106-0.633c0.029-1.564,0.043-2.382,0.043-2.452v-1.046
		c0-0.469-0.008-0.973-0.025-1.512c-0.012-0.346-0.037-0.551-0.075-0.615s-0.105-0.112-0.202-0.146
		c-0.097-0.031-0.479-0.045-1.146-0.039v-0.501c1.184-0.164,2.047-0.378,2.592-0.642c0.117-0.059,0.197-0.088,0.238-0.088
		s0.072,0.015,0.096,0.044s0.035,0.073,0.035,0.132c0,0.041-0.002,0.088-0.008,0.141c-0.029,0.357-0.047,0.911-0.053,1.661
		c0.264-0.305,0.506-0.606,0.729-0.905s0.385-0.492,0.484-0.58c0.176-0.152,0.377-0.273,0.605-0.365
		c0.229-0.09,0.467-0.136,0.713-0.136s0.488,0.053,0.729,0.158l0.053,0.123c-0.088,0.779-0.137,1.465-0.148,2.057h-0.396
		c-0.135-0.281-0.291-0.486-0.47-0.615s-0.403-0.193-0.673-0.193c-0.451,0-0.834,0.187-1.15,0.558
		c-0.316,0.373-0.475,0.931-0.475,1.675v0.905c0,0.387,0.014,1.093,0.043,2.118c0.006,0.363,0.021,0.595,0.045,0.694
		s0.054,0.172,0.092,0.215c0.038,0.045,0.102,0.081,0.189,0.11c0.176,0.053,0.65,0.105,1.424,0.158v0.501
		c-1.031-0.041-1.91-0.062-2.637-0.062C231.086,194.588,230.36,194.609,229.657,194.65z"/>
	<path fill="#231F20" d="M236.758,187.759v-0.369c0.563-0.223,1.012-0.422,1.344-0.598c0-1.395,0-2.285,0-2.672
		c0.609-0.211,1.105-0.437,1.486-0.677l0.211,0.176c-0.064,0.486-0.135,1.559-0.211,3.217c0.469,0.006,0.75,0.009,0.844,0.009
		c0.053,0,0.354-0.006,0.904-0.018c0.305-0.006,0.533-0.018,0.686-0.035l0.062,0.062l-0.186,0.817
		c-0.369-0.006-0.709-0.009-1.02-0.009s-0.74,0.003-1.291,0.009l-0.045,3.577c-0.018,0.873-0.012,1.395,0.018,1.564
		s0.085,0.318,0.167,0.444c0.081,0.126,0.188,0.227,0.319,0.303s0.355,0.135,0.67,0.176c0.24,0,0.434-0.01,0.582-0.031
		c0.149-0.02,0.338-0.071,0.565-0.153l0.104,0.343c-0.274,0.217-0.541,0.442-0.799,0.677c-0.223,0.082-0.43,0.136-0.623,0.163
		c-0.193,0.025-0.415,0.039-0.667,0.039c-0.31,0-0.558-0.035-0.741-0.105c-0.185-0.07-0.354-0.168-0.506-0.295
		c-0.151-0.125-0.277-0.285-0.379-0.479s-0.166-0.498-0.195-0.914c0.006-0.398,0.018-0.835,0.035-1.31
		c0.006-0.094,0.008-0.196,0.008-0.308v-3.647h-0.359C237.45,187.715,237.122,187.73,236.758,187.759z"/>
	<path fill="#231F20" d="M249.995,193.286l-0.281,0.633c-0.404,0.252-0.701,0.42-0.889,0.502c-0.275,0.123-0.59,0.228-0.944,0.312
		s-0.728,0.128-1.12,0.128c-0.773,0-1.475-0.161-2.102-0.483s-1.114-0.804-1.463-1.446c-0.349-0.641-0.523-1.393-0.523-2.254
		c0-0.674,0.093-1.281,0.277-1.824c0.185-0.541,0.395-0.941,0.629-1.199c0.17-0.188,0.434-0.402,0.791-0.646
		c0.357-0.242,0.711-0.435,1.062-0.575c0.463-0.193,0.965-0.29,1.504-0.29c0.656,0,1.249,0.149,1.779,0.448s0.918,0.706,1.164,1.222
		s0.369,1.099,0.369,1.749c0,0.164-0.014,0.363-0.043,0.598c-0.422,0.082-0.799,0.135-1.133,0.158
		c-0.632,0.047-1.264,0.07-1.896,0.07h-2.817c0.012,0.84,0.157,1.52,0.436,2.04c0.278,0.52,0.662,0.903,1.151,1.149
		c0.489,0.247,0.997,0.37,1.524,0.37c0.357,0,0.714-0.058,1.068-0.174c0.354-0.115,0.793-0.328,1.314-0.637L249.995,193.286z
		 M244.36,189.693c0.164,0.018,0.475,0.035,0.932,0.053c0.873,0.029,1.475,0.044,1.803,0.044c0.779,0,1.291-0.015,1.537-0.044
		c0.006-0.141,0.01-0.249,0.01-0.325c0-0.926-0.188-1.605-0.562-2.039s-0.877-0.65-1.504-0.65c-0.662,0-1.195,0.237-1.6,0.712
		S244.366,188.667,244.36,189.693z"/>
	<path fill="#231F20" d="M251.163,194.65v-0.501c0.281,0,0.502-0.041,0.66-0.123c0.211-0.117,0.494-0.384,0.852-0.8l2.057-2.518
		l-0.744-1.11c-0.396-0.599-0.784-1.133-1.163-1.602s-0.692-0.776-0.938-0.923c-0.094-0.053-0.205-0.079-0.335-0.079
		c-0.053,0-0.146,0.006-0.282,0.018l-0.105-0.501c0.68-0.076,1.369-0.19,2.066-0.343c0.223,0.205,0.428,0.422,0.615,0.65
		c0.322,0.416,0.715,0.98,1.178,1.694l0.65,1.025l0.545-0.702c0.428-0.544,1.031-1.378,1.811-2.501
		c0.305,0.018,0.533,0.026,0.686,0.026c0.141,0,0.359-0.009,0.658-0.026v0.501c-0.258,0.006-0.452,0.053-0.581,0.141
		c-0.271,0.182-0.714,0.649-1.331,1.404l-0.842,1.004l-0.543,0.707l0.325,0.493c0.141,0.205,0.518,0.732,1.13,1.58
		c0.613,0.848,1.045,1.406,1.297,1.676c0.129,0.135,0.238,0.22,0.326,0.255s0.26,0.053,0.518,0.053v0.501
		c-0.41-0.041-0.779-0.062-1.107-0.062c-0.346,0-0.709,0.021-1.09,0.062c-0.375-0.476-0.711-0.934-1.01-1.373l-1.336-2.008
		c-0.65,0.757-1.459,1.884-2.426,3.381c-0.234-0.041-0.492-0.062-0.773-0.062C251.653,194.588,251.397,194.609,251.163,194.65z"/>
</g>
<g enable-background="new    ">
	<path fill="#231F20" d="M274.173,186.696l0.606,6.592c1.02-1.195,1.834-2.317,2.443-3.366c0.357-0.615,0.536-1.061,0.536-1.336
		c0-0.129-0.029-0.243-0.088-0.343c-0.023-0.053-0.116-0.13-0.276-0.233c-0.162-0.102-0.274-0.207-0.339-0.316
		c-0.064-0.107-0.097-0.224-0.097-0.347c0-0.182,0.067-0.335,0.202-0.462c0.135-0.125,0.308-0.188,0.519-0.188
		c0.24,0,0.443,0.09,0.611,0.269c0.166,0.179,0.25,0.417,0.25,0.716c0,0.305-0.044,0.589-0.132,0.853
		c-0.176,0.504-0.519,1.154-1.028,1.951c-0.621,0.955-1.262,1.842-1.92,2.658c-0.66,0.818-1.15,1.391-1.473,1.719h-0.325
		l-0.571-6.082l-3.63,6.082h-0.387c-0.041-2.502-0.167-4.477-0.378-5.924c-0.088-0.604-0.234-0.999-0.439-1.187
		c-0.146-0.135-0.369-0.202-0.668-0.202c-0.17,0-0.387,0.018-0.65,0.053v-0.316l2.522-0.589c0.352,0.979,0.58,2.481,0.686,4.509
		c0.035,0.768,0.064,1.251,0.088,1.45l3.612-5.959H274.173z"/>
</g>
<g enable-background="new    ">
	<path fill="#231F20" d="M283.534,187.417v-0.501c1.137-0.129,2.092-0.375,2.865-0.738l0.193,0.141
		c-0.047,1.248-0.07,2.203-0.07,2.865v1.6c0.029,1.523,0.047,2.347,0.053,2.47c0.006,0.293,0.038,0.507,0.097,0.642
		c0.029,0.053,0.067,0.099,0.114,0.137s0.117,0.068,0.211,0.092c0.035,0.006,0.36,0.015,0.976,0.026v0.501
		c-0.891-0.041-1.603-0.062-2.136-0.062c-0.469,0-1.236,0.021-2.303,0.062v-0.501l0.84-0.009c0.124-0.006,0.22-0.027,0.287-0.066
		c0.068-0.037,0.12-0.086,0.155-0.145c0.065-0.117,0.106-0.325,0.124-0.624c0-0.076,0.015-0.917,0.044-2.522v-1.547
		c0-0.873-0.029-1.392-0.088-1.556c-0.035-0.088-0.099-0.153-0.188-0.198C284.616,187.439,284.225,187.417,283.534,187.417z
		 M285.678,182.275c0.275,0,0.508,0.097,0.699,0.29c0.189,0.193,0.285,0.428,0.285,0.703c0,0.27-0.097,0.501-0.29,0.694
		s-0.425,0.29-0.694,0.29c-0.275,0-0.51-0.097-0.703-0.29s-0.29-0.425-0.29-0.694c0-0.275,0.097-0.51,0.29-0.703
		S285.403,182.275,285.678,182.275z"/>
	<path fill="#231F20" d="M289.185,191.996h0.527c0.006,0.34,0.023,0.609,0.053,0.809s0.079,0.395,0.149,0.584
		c0.07,0.191,0.18,0.352,0.326,0.484c0.146,0.131,0.307,0.234,0.48,0.307c0.173,0.074,0.349,0.122,0.527,0.146
		c0.18,0.023,0.451,0.035,0.815,0.035c0.599,0,1.091-0.158,1.475-0.475c0.385-0.316,0.577-0.75,0.577-1.301
		c0-0.246-0.061-0.463-0.181-0.65s-0.294-0.334-0.52-0.439s-0.712-0.243-1.457-0.413s-1.227-0.293-1.444-0.369
		c-0.328-0.123-0.59-0.272-0.783-0.448s-0.348-0.398-0.462-0.668s-0.172-0.562-0.172-0.879c0-0.463,0.122-0.889,0.365-1.278
		s0.626-0.706,1.149-0.949c0.521-0.243,1.091-0.365,1.707-0.365c0.369,0,0.798,0.052,1.285,0.154s0.883,0.229,1.188,0.382
		c-0.041,0.65-0.07,1.312-0.088,1.986h-0.501c-0.029-0.428-0.062-0.709-0.102-0.844c-0.038-0.135-0.09-0.255-0.154-0.36
		s-0.176-0.218-0.334-0.338c-0.159-0.12-0.363-0.228-0.613-0.321c-0.249-0.094-0.556-0.141-0.92-0.141
		c-0.517,0-0.932,0.152-1.246,0.457s-0.472,0.662-0.472,1.072c0,0.229,0.046,0.425,0.136,0.589c0.092,0.164,0.213,0.298,0.366,0.4
		c0.152,0.103,0.366,0.194,0.643,0.276l1.462,0.36c0.739,0.188,1.248,0.349,1.527,0.483s0.503,0.345,0.674,0.628
		c0.17,0.285,0.255,0.626,0.255,1.024c0,0.791-0.327,1.481-0.981,2.069c-0.654,0.59-1.529,0.884-2.627,0.884
		c-0.505,0-1.177-0.076-2.016-0.229c-0.463-0.088-0.713-0.149-0.748-0.185c-0.023-0.018-0.035-0.047-0.035-0.088
		s0.006-0.091,0.018-0.149c0.053-0.252,0.088-0.498,0.105-0.738S289.173,192.757,289.185,191.996z"/>
	<path fill="#231F20" d="M300.901,187.417v-0.501c1.137-0.129,2.092-0.375,2.865-0.738l0.193,0.141
		c-0.047,1.248-0.07,2.203-0.07,2.865v1.6c0.029,1.523,0.047,2.347,0.053,2.47c0.006,0.293,0.038,0.507,0.097,0.642
		c0.029,0.053,0.067,0.099,0.114,0.137s0.117,0.068,0.211,0.092c0.035,0.006,0.36,0.015,0.976,0.026v0.501
		c-0.891-0.041-1.603-0.062-2.136-0.062c-0.469,0-1.236,0.021-2.303,0.062v-0.501l0.84-0.009c0.124-0.006,0.22-0.027,0.287-0.066
		c0.068-0.037,0.12-0.086,0.155-0.145c0.065-0.117,0.106-0.325,0.124-0.624c0-0.076,0.015-0.917,0.044-2.522v-1.547
		c0-0.873-0.029-1.392-0.088-1.556c-0.035-0.088-0.099-0.153-0.188-0.198C301.983,187.439,301.592,187.417,300.901,187.417z
		 M303.045,182.275c0.275,0,0.508,0.097,0.699,0.29c0.189,0.193,0.285,0.428,0.285,0.703c0,0.27-0.097,0.501-0.29,0.694
		s-0.425,0.29-0.694,0.29c-0.275,0-0.51-0.097-0.703-0.29s-0.29-0.425-0.29-0.694c0-0.275,0.097-0.51,0.29-0.703
		S302.77,182.275,303.045,182.275z"/>
	<path fill="#231F20" d="M306.157,194.65v-0.501c0.666-0.012,1.025-0.023,1.078-0.035c0.101-0.018,0.176-0.045,0.226-0.083
		s0.09-0.093,0.12-0.163c0.059-0.135,0.094-0.346,0.105-0.633c0.029-1.564,0.044-2.382,0.044-2.452v-1.046
		c0-0.469-0.009-0.973-0.026-1.512c-0.012-0.346-0.037-0.551-0.074-0.615c-0.039-0.064-0.105-0.112-0.203-0.146
		c-0.096-0.031-0.479-0.045-1.146-0.039v-0.501c1.184-0.164,2.048-0.378,2.593-0.642c0.117-0.059,0.196-0.088,0.237-0.088
		s0.073,0.015,0.097,0.044s0.035,0.073,0.035,0.132c0,0.041-0.003,0.088-0.009,0.141c-0.029,0.357-0.047,0.911-0.053,1.661
		c0.264-0.305,0.507-0.606,0.729-0.905s0.384-0.492,0.483-0.58c0.176-0.152,0.378-0.273,0.606-0.365
		c0.229-0.09,0.466-0.136,0.712-0.136s0.489,0.053,0.729,0.158l0.053,0.123c-0.088,0.779-0.138,1.465-0.149,2.057h-0.396
		c-0.135-0.281-0.292-0.486-0.47-0.615c-0.18-0.129-0.403-0.193-0.673-0.193c-0.451,0-0.835,0.187-1.151,0.558
		c-0.316,0.373-0.475,0.931-0.475,1.675v0.905c0,0.387,0.015,1.093,0.044,2.118c0.006,0.363,0.021,0.595,0.044,0.694
		s0.055,0.172,0.092,0.215c0.039,0.045,0.102,0.081,0.189,0.11c0.176,0.053,0.65,0.105,1.424,0.158v0.501
		c-1.031-0.041-1.91-0.062-2.637-0.062C307.586,194.588,306.86,194.609,306.157,194.65z"/>
	<path fill="#231F20" d="M313.267,194.65v-0.501c0.666-0.012,1.025-0.023,1.079-0.035c0.1-0.018,0.175-0.045,0.225-0.083
		c0.051-0.038,0.09-0.093,0.119-0.163c0.059-0.135,0.095-0.346,0.106-0.633c0.029-1.564,0.044-2.382,0.044-2.452v-1.046
		c0-0.469-0.009-0.973-0.026-1.512c-0.012-0.346-0.036-0.551-0.075-0.615c-0.037-0.064-0.105-0.112-0.201-0.146
		c-0.098-0.031-0.479-0.045-1.147-0.039v-0.501c1.184-0.164,2.048-0.378,2.593-0.642c0.117-0.059,0.196-0.088,0.237-0.088
		s0.073,0.015,0.097,0.044s0.035,0.073,0.035,0.132c0,0.041-0.003,0.088-0.009,0.141c-0.029,0.357-0.047,0.911-0.053,1.661
		c0.264-0.305,0.507-0.606,0.729-0.905s0.384-0.492,0.483-0.58c0.176-0.152,0.378-0.273,0.606-0.365
		c0.229-0.09,0.466-0.136,0.712-0.136s0.489,0.053,0.729,0.158l0.053,0.123c-0.088,0.779-0.138,1.465-0.149,2.057h-0.396
		c-0.135-0.281-0.291-0.486-0.471-0.615c-0.178-0.129-0.402-0.193-0.672-0.193c-0.451,0-0.835,0.187-1.151,0.558
		c-0.316,0.373-0.475,0.931-0.475,1.675v0.905c0,0.387,0.015,1.093,0.044,2.118c0.006,0.363,0.021,0.595,0.044,0.694
		s0.054,0.172,0.093,0.215c0.037,0.045,0.101,0.081,0.188,0.11c0.176,0.053,0.65,0.105,1.424,0.158v0.501
		c-1.031-0.041-1.91-0.062-2.637-0.062C314.697,194.588,313.97,194.609,313.267,194.65z"/>
	<path fill="#231F20" d="M327.417,193.286l-0.281,0.633c-0.404,0.252-0.7,0.42-0.888,0.502c-0.275,0.123-0.59,0.228-0.945,0.312
		c-0.354,0.085-0.728,0.128-1.12,0.128c-0.773,0-1.474-0.161-2.101-0.483s-1.115-0.804-1.463-1.446
		c-0.35-0.641-0.523-1.393-0.523-2.254c0-0.674,0.092-1.281,0.277-1.824c0.184-0.541,0.394-0.941,0.628-1.199
		c0.17-0.188,0.434-0.402,0.791-0.646c0.357-0.242,0.712-0.435,1.063-0.575c0.463-0.193,0.964-0.29,1.503-0.29
		c0.656,0,1.249,0.149,1.78,0.448c0.529,0.299,0.918,0.706,1.164,1.222s0.369,1.099,0.369,1.749c0,0.164-0.015,0.363-0.044,0.598
		c-0.421,0.082-0.799,0.135-1.132,0.158c-0.633,0.047-1.264,0.07-1.896,0.07h-2.816c0.012,0.84,0.156,1.52,0.436,2.04
		c0.277,0.52,0.662,0.903,1.15,1.149c0.49,0.247,0.998,0.37,1.525,0.37c0.357,0,0.713-0.058,1.068-0.174
		c0.354-0.115,0.792-0.328,1.313-0.637L327.417,193.286z M321.784,189.693c0.164,0.018,0.475,0.035,0.932,0.053
		c0.873,0.029,1.474,0.044,1.802,0.044c0.779,0,1.292-0.015,1.538-0.044c0.006-0.141,0.009-0.249,0.009-0.325
		c0-0.926-0.188-1.605-0.562-2.039s-0.876-0.65-1.503-0.65c-0.662,0-1.195,0.237-1.6,0.712S321.79,188.667,321.784,189.693z"/>
	<path fill="#231F20" d="M338.008,186.88l0.07,0.167c-0.229,0.346-0.378,0.583-0.448,0.712h-1.635
		c0.135,0.345,0.202,0.67,0.202,0.974c0,0.444-0.115,0.878-0.348,1.302c-0.23,0.425-0.569,0.787-1.015,1.088
		s-0.92,0.505-1.424,0.609c-0.328,0.07-0.771,0.1-1.327,0.088c-0.381,0.303-0.621,0.53-0.721,0.682
		c-0.064,0.105-0.097,0.219-0.097,0.342c0,0.14,0.042,0.264,0.128,0.371c0.084,0.108,0.215,0.184,0.391,0.227
		c0.264,0.073,0.732,0.11,1.406,0.11l1.898-0.044c0.662,0,1.164,0.087,1.508,0.26c0.342,0.173,0.596,0.438,0.76,0.792
		c0.164,0.355,0.246,0.756,0.246,1.201c0,0.604-0.197,1.22-0.594,1.845c-0.395,0.624-0.982,1.117-1.762,1.479
		c-0.779,0.36-1.652,0.541-2.619,0.541c-0.809,0-1.497-0.126-2.065-0.378s-0.989-0.589-1.261-1.011
		c-0.273-0.422-0.409-0.864-0.409-1.327c0-0.258,0.04-0.5,0.118-0.726c0.08-0.226,0.213-0.467,0.4-0.725
		c0.715-0.328,1.228-0.615,1.538-0.861c-0.486-0.158-0.798-0.308-0.937-0.448c-0.137-0.141-0.206-0.281-0.206-0.422
		c0-0.117,0.088-0.434,0.264-0.949c0.287-0.24,0.738-0.58,1.354-1.02c-0.527-0.146-0.933-0.317-1.218-0.514
		c-0.283-0.195-0.505-0.462-0.663-0.798c-0.158-0.337-0.237-0.707-0.237-1.11c0-0.597,0.152-1.131,0.457-1.602
		s0.817-0.854,1.538-1.149c0.721-0.296,1.389-0.443,2.004-0.443c0.398,0,0.778,0.064,1.138,0.193
		c0.361,0.129,0.702,0.322,1.024,0.58C336.57,186.91,337.417,186.898,338.008,186.88z M333.394,194.747
		c-0.873,0-1.421,0.012-1.644,0.035c-0.111,0.018-0.237,0.076-0.378,0.176c-0.463,0.328-0.709,0.51-0.738,0.545
		c-0.059,0.059-0.123,0.179-0.193,0.36c-0.123,0.328-0.185,0.659-0.185,0.993c0,0.615,0.238,1.135,0.717,1.56
		c0.477,0.425,1.135,0.638,1.973,0.638c0.621,0,1.188-0.125,1.701-0.374c0.512-0.249,0.898-0.588,1.16-1.02
		c0.26-0.43,0.391-0.862,0.391-1.296c-0.018-0.375-0.074-0.659-0.172-0.853c-0.096-0.193-0.213-0.346-0.352-0.457
		c-0.137-0.111-0.326-0.202-0.566-0.272C334.967,194.764,334.396,194.752,333.394,194.747z M330.819,188.854
		c0,0.415,0.078,0.818,0.232,1.21c0.156,0.393,0.385,0.688,0.686,0.887c0.303,0.198,0.646,0.298,1.033,0.298
		c0.504,0,0.949-0.162,1.336-0.487c0.387-0.324,0.58-0.846,0.58-1.565c0-0.736-0.193-1.323-0.58-1.759s-0.853-0.653-1.397-0.653
		c-0.568,0-1.025,0.18-1.371,0.54C330.992,187.683,330.819,188.193,330.819,188.854z"/>
	<path fill="#231F20" d="M348.678,194.149v0.501c-0.768-0.041-1.348-0.062-1.74-0.062c-0.434,0-0.873,0.021-1.318,0.062
		c0.035-0.475,0.062-1.008,0.079-1.6c-0.352,0.281-0.771,0.665-1.257,1.151c-0.111,0.111-0.22,0.193-0.324,0.246
		c-0.252,0.141-0.504,0.241-0.756,0.304c-0.252,0.061-0.553,0.092-0.904,0.092c-0.475,0-0.871-0.064-1.19-0.193
		s-0.593-0.325-0.821-0.589c-0.171-0.193-0.302-0.444-0.393-0.751c-0.092-0.309-0.138-0.679-0.138-1.112
		c0-0.205,0.007-0.398,0.022-0.58c0.014-0.182,0.021-0.36,0.021-0.536v-1.503c0-0.152-0.009-0.536-0.026-1.151
		c-0.012-0.387-0.038-0.639-0.079-0.756c-0.023-0.059-0.062-0.105-0.114-0.141c-0.088-0.059-0.243-0.088-0.466-0.088
		c-0.322,0-0.577-0.003-0.765-0.009v-0.501c1.26-0.141,2.174-0.366,2.742-0.677c0.094-0.053,0.167-0.079,0.22-0.079
		c0.041,0,0.074,0.015,0.102,0.044c0.025,0.029,0.039,0.073,0.039,0.132c0,0.047-0.003,0.105-0.009,0.176
		c-0.023,0.188-0.044,0.548-0.062,1.081c-0.035,0.979-0.053,1.635-0.053,1.969v1.714c0,0.715,0.049,1.217,0.145,1.508
		c0.098,0.289,0.284,0.521,0.562,0.693c0.278,0.174,0.622,0.26,1.032,0.26c0.281,0,0.562-0.049,0.839-0.146
		c0.278-0.097,0.529-0.236,0.752-0.419c0.164-0.135,0.331-0.315,0.502-0.544c0.129-0.17,0.213-0.3,0.255-0.391
		c0.041-0.091,0.067-0.224,0.079-0.399c0.029-0.516,0.044-1.028,0.044-1.538v-0.738c0-0.152-0.009-0.536-0.026-1.151
		c-0.012-0.387-0.038-0.639-0.079-0.756c-0.023-0.059-0.062-0.105-0.114-0.141c-0.088-0.059-0.243-0.088-0.466-0.088
		c-0.322,0-0.577-0.003-0.765-0.009v-0.501c1.256-0.141,2.168-0.366,2.734-0.677c0.094-0.053,0.166-0.079,0.219-0.079
		c0.041,0,0.074,0.015,0.102,0.044c0.025,0.029,0.039,0.073,0.039,0.132c0,0.047-0.003,0.105-0.008,0.176
		c-0.017,0.188-0.035,0.56-0.057,1.116c-0.033,0.955-0.05,1.6-0.05,1.934v1.204l0.018,1.222c0.022,0.709,0.036,1.125,0.044,1.248
		c0.006,0.293,0.038,0.507,0.096,0.642c0.029,0.053,0.067,0.099,0.113,0.137c0.047,0.038,0.117,0.068,0.211,0.092
		C347.744,194.128,348.067,194.137,348.678,194.149z"/>
	<path fill="#231F20" d="M349.583,194.65v-0.501l0.826-0.009c0.129-0.006,0.228-0.027,0.294-0.065
		c0.068-0.038,0.119-0.087,0.154-0.146c0.064-0.117,0.103-0.325,0.114-0.623c0.006-0.076,0.026-0.917,0.062-2.521v-3.646
		c0-0.978-0.015-1.987-0.044-3.029c-0.023-0.703-0.056-1.095-0.097-1.177c-0.03-0.059-0.077-0.1-0.143-0.123
		c-0.088-0.041-0.494-0.062-1.22-0.062v-0.519c1.324-0.164,2.244-0.369,2.76-0.615c0.076-0.035,0.135-0.053,0.176-0.053
		s0.073,0.013,0.097,0.04c0.023,0.025,0.035,0.062,0.035,0.109c0,0.041-0.006,0.1-0.018,0.176l-0.009,0.29
		c-0.029,1.048-0.047,1.94-0.053,2.679l-0.018,1.37v4.558c0.024,1.522,0.039,2.346,0.044,2.469c0.006,0.293,0.041,0.506,0.105,0.641
		c0.024,0.053,0.06,0.099,0.107,0.137c0.047,0.038,0.117,0.068,0.211,0.092c0.042,0.006,0.369,0.015,0.982,0.026v0.501
		c-0.797-0.041-1.497-0.062-2.101-0.062C351.277,194.588,350.521,194.609,349.583,194.65z"/>
	<path fill="#231F20" d="M356.281,188.629l-0.466-0.123c0.006-0.135,0.009-0.319,0.009-0.554c0-0.246-0.003-0.442-0.009-0.589
		c0.745-0.486,1.355-0.814,1.831-0.984c0.363-0.123,0.771-0.185,1.224-0.185c0.668,0,1.232,0.126,1.689,0.378
		s0.799,0.612,1.021,1.081c0.152,0.328,0.229,0.776,0.229,1.345l-0.044,1.608v2.619c0,0.281,0.023,0.483,0.07,0.606
		c0.035,0.088,0.091,0.152,0.167,0.193c0.059,0.035,0.182,0.059,0.369,0.07l0.571,0.053v0.501c-0.48-0.041-0.902-0.062-1.266-0.062
		c-0.352,0-0.82,0.021-1.406,0.062l0.044-1.547c-1.195,0.902-1.904,1.41-2.127,1.525c-0.223,0.113-0.504,0.171-0.844,0.171
		c-0.709,0-1.262-0.188-1.656-0.567c-0.396-0.377-0.594-0.88-0.594-1.507c0-0.404,0.068-0.773,0.207-1.107
		c0.137-0.334,0.303-0.599,0.496-0.796c0.193-0.195,0.39-0.341,0.589-0.435c0.34-0.158,0.892-0.328,1.657-0.51
		c0.764-0.182,1.521-0.316,2.271-0.404c0.006-0.557-0.062-0.99-0.202-1.301s-0.378-0.565-0.712-0.765s-0.741-0.299-1.222-0.299
		c-0.346,0-0.649,0.047-0.909,0.141c-0.262,0.094-0.421,0.173-0.479,0.237l-0.158,0.316
		C356.474,188.155,356.357,188.43,356.281,188.629z M360.315,190.009c-0.762,0.129-1.412,0.272-1.951,0.431s-0.92,0.322-1.143,0.492
		c-0.135,0.1-0.252,0.249-0.352,0.448c-0.152,0.293-0.229,0.618-0.229,0.976c0,0.434,0.12,0.772,0.36,1.015
		c0.24,0.244,0.574,0.365,1.002,0.365c0.393,0,0.78-0.112,1.165-0.338c0.383-0.226,0.766-0.564,1.146-1.016V190.009z"/>
	<path fill="#231F20" d="M363.787,194.65v-0.501c0.666-0.012,1.025-0.023,1.079-0.035c0.1-0.018,0.175-0.045,0.225-0.083
		c0.051-0.038,0.09-0.093,0.119-0.163c0.059-0.135,0.095-0.346,0.106-0.633c0.029-1.564,0.044-2.382,0.044-2.452v-1.046
		c0-0.469-0.009-0.973-0.026-1.512c-0.012-0.346-0.036-0.551-0.075-0.615c-0.037-0.064-0.105-0.112-0.201-0.146
		c-0.098-0.031-0.479-0.045-1.147-0.039v-0.501c1.184-0.164,2.048-0.378,2.593-0.642c0.117-0.059,0.196-0.088,0.237-0.088
		s0.073,0.015,0.097,0.044s0.035,0.073,0.035,0.132c0,0.041-0.003,0.088-0.009,0.141c-0.029,0.357-0.047,0.911-0.053,1.661
		c0.264-0.305,0.507-0.606,0.729-0.905s0.384-0.492,0.483-0.58c0.176-0.152,0.378-0.273,0.606-0.365
		c0.229-0.09,0.466-0.136,0.712-0.136s0.489,0.053,0.729,0.158l0.053,0.123c-0.088,0.779-0.138,1.465-0.149,2.057h-0.396
		c-0.135-0.281-0.291-0.486-0.471-0.615c-0.178-0.129-0.402-0.193-0.672-0.193c-0.451,0-0.835,0.187-1.151,0.558
		c-0.316,0.373-0.475,0.931-0.475,1.675v0.905c0,0.387,0.015,1.093,0.044,2.118c0.006,0.363,0.021,0.595,0.044,0.694
		s0.054,0.172,0.093,0.215c0.037,0.045,0.101,0.081,0.188,0.11c0.176,0.053,0.65,0.105,1.424,0.158v0.501
		c-1.031-0.041-1.91-0.062-2.637-0.062C365.216,194.588,364.49,194.609,363.787,194.65z"/>
	<path fill="#231F20" d="M371.407,192.637c0.293,0,0.541,0.103,0.742,0.308c0.203,0.205,0.304,0.454,0.304,0.747
		c0,0.287-0.103,0.533-0.308,0.738s-0.451,0.308-0.738,0.308c-0.293,0-0.542-0.103-0.747-0.308s-0.308-0.451-0.308-0.738
		c0-0.293,0.103-0.542,0.308-0.747S371.114,192.637,371.407,192.637z"/>
</g>
<g>
	<path fill="#B0B6C8" d="M269.399,33.25c-7.891-2.47-16.55,0.99-22.938,5.438c-6.205,4.32-8.562,9.732-8.562,17.025
		c0,4.066,1.432,8.057,0.322,12.051c-2.076,7.479-7.329,14.051-10.366,21.16c-1.536,3.598-3.839,6.564-4.467,10.514
		c-0.583,3.665-0.146,7.354,0.498,10.958c0.405,2.266,0.495,5.092,1.413,7.199c1.576,3.621,5.266,6.88,8.387,9.148
		c2.919,2.123,5.993,4.073,8.968,6.137c3.277,2.272,3.242,4.471,5.171,7.693c3.67,6.139,12.986,10.385,19.443,12.864
		c2.912,1.119,5.895,2.202,8.455,4c1.975,1.388,3.699,3.03,5.958,4.007c6.493,2.809,13.125,1.653,19.522-0.55
		c3.66-1.263,6.967-2.742,10.883-3.332c4.584-0.69,8.729-1.292,13.045-3.004c9.977-3.954,18.469-7.959,24.072-17.498
		c2.373-4.037,5.461-8.052,6.953-12.49c1.564-4.657,0.736-10.278,0.742-15.151c0.006-7.049-0.826-14.596-2.729-21.422
		c-1.502-5.396-5.543-8.814-8.047-13.595c-2.1-4.009-3.168-8.636-4.471-12.909c-1.002-3.284-2.484-7.057-5.256-9.177
		c-2.01-1.536-4.418-2.23-6.498-3.691c-6.76-4.746-12.5-11.228-20.75-13.573c-2.426-0.688-4.87-0.486-7.303-1.302
		c-2.967-0.995-5.615-1.337-8.67-1.75c-4.201-0.567-8.188-0.719-12.285,0.257c-3.232,0.77-6.896,1.111-10.244,0.994"/>
	<g>
		<polygon fill="none" stroke="#231F20" points="257.899,46.5 322.649,59.25 341.149,117.75 289.399,149.5 240.399,116 		"/>
		<line fill="none" stroke="#231F20" x1="289.399" y1="95.5" x2="257.899" y2="46.5"/>
		<line fill="none" stroke="#231F20" x1="289.399" y1="95.5" x2="240.399" y2="116"/>
		<line fill="none" stroke="#231F20" x1="289.399" y1="95.5" x2="289.399" y2="149.5"/>
		<line fill="none" stroke="#231F20" x1="289.399" y1="95.5" x2="341.399" y2="118"/>
		<line fill="none" stroke="#231F20" x1="289.399" y1="95.5" x2="322.899" y2="59"/>
		<circle fill="#231F20" cx="289.399" cy="95.5" r="4"/>
		<line fill="none" stroke="#231F20" x1="257.899" y1="46.5" x2="244.649" y2="28.75"/>
		<line fill="none" stroke="#231F20" x1="257.899" y1="46.5" x2="274.649" y2="29.25"/>
		<line fill="none" stroke="#231F20" x1="322.649" y1="59.25" x2="310.649" y2="31.25"/>
		<line fill="none" stroke="#231F20" x1="322.649" y1="59.25" x2="338.649" y2="51"/>
		<line fill="none" stroke="#231F20" x1="240.399" y1="116" x2="221.149" y2="96"/>
		<line fill="none" stroke="#231F20" x1="240.399" y1="116" x2="228.649" y2="139"/>
		<line fill="none" stroke="#231F20" x1="257.899" y1="46.5" x2="234.399" y2="58"/>
		<line fill="none" stroke="#231F20" x1="289.399" y1="149.5" x2="288.149" y2="167"/>
		<line fill="none" stroke="#231F20" x1="289.399" y1="149.5" x2="271.399" y2="161.75"/>
		<line fill="none" stroke="#231F20" x1="289.399" y1="149.5" x2="310.399" y2="163"/>
		<line fill="none" stroke="#231F20" x1="341.149" y1="117.75" x2="351.649" y2="139.25"/>
		<line fill="none" stroke="#231F20" x1="341.149" y1="117.75" x2="362.899" y2="112.667"/>
	</g>
	<g enable-background="new    ">
		<path fill="#231F20" d="M301.329,105.126l0.701,7.617c1.178-1.381,2.119-2.678,2.822-3.89c0.414-0.711,0.62-1.226,0.62-1.544
			c0-0.148-0.034-0.281-0.102-0.396c-0.027-0.061-0.134-0.15-0.319-0.269c-0.188-0.119-0.317-0.24-0.392-0.366
			c-0.075-0.125-0.112-0.259-0.112-0.4c0-0.21,0.078-0.388,0.234-0.533c0.155-0.146,0.355-0.219,0.6-0.219
			c0.277,0,0.512,0.104,0.705,0.31c0.193,0.207,0.289,0.482,0.289,0.828c0,0.352-0.051,0.681-0.152,0.985
			c-0.203,0.582-0.599,1.334-1.188,2.254c-0.718,1.104-1.457,2.128-2.219,3.072c-0.762,0.945-1.33,1.606-1.701,1.986h-0.377
			l-0.66-7.028l-4.193,7.028h-0.447c-0.048-2.892-0.193-5.173-0.438-6.846c-0.102-0.697-0.271-1.154-0.508-1.371
			c-0.169-0.155-0.426-0.233-0.771-0.233c-0.196,0-0.447,0.021-0.752,0.061v-0.365l2.916-0.681c0.406,1.131,0.67,2.867,0.791,5.21
			c0.041,0.888,0.075,1.446,0.102,1.676l4.175-6.886H301.329z"/>
	</g>
</g>
<line fill="none" stroke="#231F20" stroke-width="0.9624" x1="111.149" y1="138.917" x2="144.233" y2="141.333"/>
<line fill="none" stroke="#231F20" x1="38.399" y1="90.167" x2="14.233" y2="69.667"/>
<line fill="none" stroke="#231F20" x1="49.399" y1="127.917" x2="26.233" y2="129.333"/>
</svg>
