<?xml version="1.0" encoding="utf-8"?>
<!-- Generator: Adobe Illustrator 14.0.0, SVG Export Plug-In . SVG Version: 6.00 Build 43363)  -->
<!DOCTYPE svg PUBLIC "-//W3C//DTD SVG 1.1//EN" "http://www.w3.org/Graphics/SVG/1.1/DTD/svg11.dtd">
<svg version="1.1" id="Layer_1" xmlns="http://www.w3.org/2000/svg" xmlns:xlink="http://www.w3.org/1999/xlink" x="0px" y="0px"
	 width="321.428px" height="317.348px" viewBox="0 0 321.428 317.348" enable-background="new 0 0 321.428 317.348"
	 xml:space="preserve">
<g>
	<g>
		
			<radialGradient id="SVGID_1_" cx="217.0283" cy="221.9226" r="231.356" gradientTransform="matrix(1 0 0 -1 0 317.3472)" gradientUnits="userSpaceOnUse">
			<stop  offset="0.1629" style="stop-color:#FFFFFF"/>
			<stop  offset="0.427" style="stop-color:#767676"/>
			<stop  offset="0.7022" style="stop-color:#231F20"/>
			<stop  offset="0.7658" style="stop-color:#272324"/>
			<stop  offset="0.8304" style="stop-color:#332F30"/>
			<stop  offset="0.8955" style="stop-color:#464444"/>
			<stop  offset="0.9606" style="stop-color:#616060"/>
			<stop  offset="1" style="stop-color:#757575"/>
		</radialGradient>
		<circle opacity="0.8" fill="url(#SVGID_1_)" enable-background="new    " cx="161.874" cy="158.251" r="148.667"/>
		<circle opacity="0.2" fill="#244C9F" enable-background="new    " cx="161.874" cy="158.251" r="148.667"/>
		<circle fill="none" stroke="#231F20" stroke-width="6" cx="161.874" cy="158.251" r="148.667"/>
	</g>
	<g>
		<path fill="none" stroke="#231F20" stroke-width="2.4397" d="M161.938,75.94c13.709,6.911,27.648,15.384,41.336,25.329
			c13.639,9.907,25.965,20.507,36.744,31.366c0,0-5.875,31.121-11.158,47.382c-5.184,15.952-18.322,44.809-18.322,44.809
			c-15.247,2.502-31.621,3.86-48.664,3.861c-17.099,0-33.523-1.368-48.813-3.886c0,0-12.967-28.758-18.174-44.784
			c-5.345-16.451-11.753-46.779-11.753-46.779c10.921-11.07,23.451-21.878,37.341-31.97C134.219,91.282,161.938,75.94,161.938,75.94
			z"/>
		<path opacity="0.75" fill="#231F20" enable-background="new    " d="M161.938,75.94c13.709,6.911,27.648,15.384,41.336,25.329
			c13.639,9.907,25.965,20.507,36.744,31.366c0,0-5.875,31.121-11.158,47.382c-5.184,15.952-18.322,44.809-18.322,44.809
			c-15.247,2.502-31.621,3.86-48.664,3.861c-17.099,0-33.523-1.368-48.813-3.886c0,0-12.967-28.758-18.174-44.784
			c-5.345-16.451-11.753-46.779-11.753-46.779c10.921-11.07,23.451-21.878,37.341-31.97C134.219,91.282,161.938,75.94,161.938,75.94
			z"/>
		<path fill="none" stroke="#FFFFFF" stroke-linecap="round" d="M217.219,206.31c-2.086-0.752-4.336-1.162-6.682-1.162
			c-10.868,0-19.679,8.81-19.679,19.678c0,0.498,0.02,0.993,0.056,1.482"/>
		<path fill="none" stroke="#FFFFFF" stroke-linecap="round" d="M224.92,120.184c-2.547,3.316-4.062,7.469-4.062,11.974
			c0,8.883,5.887,16.391,13.972,18.837"/>
		<path fill="none" stroke="#FFFFFF" stroke-linecap="round" d="M145.81,86.526c3.471,5.589,9.665,9.31,16.728,9.31
			c6.984,0,13.12-3.639,16.611-9.125"/>
		<path fill="none" stroke="#FFFFFF" stroke-linecap="round" d="M88.452,151.967c8.659-2.064,15.097-9.851,15.097-19.142
			c0-4.885-1.779-9.354-4.726-12.793"/>
		<path fill="none" stroke="#FFFFFF" stroke-linecap="round" d="M132.465,225.985c0.056-0.603,0.084-1.211,0.084-1.827
			c0-10.868-8.81-19.678-19.678-19.678c-2.448,0-4.791,0.445-6.953,1.263"/>
		<g enable-background="new    ">
			<path fill="#FFFFFF" d="M168.471,206.901c2.652-11.246,4.824-19.177,6.517-23.793c0.918-2.35,1.926-4.062,3.022-5.138
				c1.086-1.002,2.423-1.504,4.01-1.504c1.326,0,2.412,0.376,3.259,1.128c0.855,0.742,1.294,1.797,1.314,3.164
				c-0.021,1.546-0.584,2.841-1.691,3.885c-1.117,1.065-2.412,1.78-3.885,2.146v0.062c2.935,0.47,4.412,2.172,4.434,5.106
				c-0.021,2.12-0.805,4.01-2.35,5.67c-1.535,1.733-3.535,2.632-6,2.694c-0.961-0.021-1.779-0.309-2.459-0.861
				c-0.71-0.533-1.227-1.248-1.551-2.146l-0.062,0.031l-1.895,9.555H168.471z M174.376,191.222
				c-0.596,2.475-0.893,4.036-0.893,4.684c0.021,1.023,0.37,1.869,1.049,2.537c0.668,0.721,1.504,1.081,2.506,1.081
				c1.023,0,1.9-0.309,2.632-0.925c0.71-0.595,1.269-1.356,1.677-2.286c0.448-0.919,0.768-1.891,0.955-2.914
				c0.166-0.981,0.25-1.879,0.25-2.694c-0.021-2.244-1.044-3.378-3.07-3.398c-0.365,0-0.73,0.031-1.096,0.094
				c-0.365,0.084-0.643,0.125-0.83,0.125c-0.471-0.021-0.716-0.234-0.736-0.642c-0.021-0.616,0.276-0.935,0.893-0.956
				c0.345,0,0.689,0.042,1.034,0.126c0.313,0.125,0.663,0.188,1.05,0.188c0.709,0,1.342-0.225,1.895-0.674
				c0.512-0.396,0.939-0.918,1.285-1.565c0.188-0.324,0.359-0.663,0.517-1.019c0.125-0.365,0.229-0.721,0.313-1.065
				c0.156-0.71,0.234-1.373,0.234-1.989c0-0.772-0.193-1.404-0.58-1.896c-0.428-0.49-1.027-0.746-1.801-0.768
				c-1.326,0.021-2.512,0.836-3.556,2.444c-1.055,1.576-1.88,3.618-2.475,6.124L174.376,191.222z"/>
		</g>
		<g enable-background="new    ">
			<path fill="#FFFFFF" d="M188.282,210.382l0.62-0.009c0.407-0.049,0.733-0.139,0.978-0.27c0.243-0.131,0.41-0.357,0.502-0.681
				l2.549-9.204c0.043-0.152,0.074-0.282,0.096-0.389s0.033-0.203,0.033-0.287c0-0.214-0.07-0.357-0.211-0.43
				c-0.14-0.073-0.361-0.109-0.666-0.109l-0.896,0.045v-0.283l0.237-0.036c0.17-0.03,0.623-0.118,1.355-0.265
				c0.733-0.146,1.255-0.252,1.565-0.32l0.282-0.063l0.174-0.027l0.109,0.063c0,0.037-0.001,0.074-0.004,0.11
				c-0.004,0.036-0.011,0.073-0.023,0.109l-3.041,11.187c-0.012,0.049-0.023,0.098-0.031,0.146c-0.01,0.049-0.014,0.098-0.014,0.146
				c0,0.249,0.109,0.407,0.328,0.475c0.219,0.066,0.643,0.109,1.27,0.127v0.274h-5.213V210.382z"/>
		</g>
		<g enable-background="new    ">
			<path fill="#FFFFFF" d="M107.304,202.067c2.652-11.246,4.824-19.177,6.516-23.793c0.918-2.35,1.926-4.062,3.023-5.138
				c1.086-1.002,2.422-1.504,4.01-1.504c1.326,0,2.412,0.376,3.258,1.128c0.856,0.742,1.294,1.797,1.315,3.164
				c-0.021,1.546-0.585,2.841-1.691,3.885c-1.118,1.065-2.413,1.78-3.885,2.146v0.062c2.934,0.47,4.412,2.172,4.433,5.106
				c-0.021,2.12-0.804,4.01-2.349,5.67c-1.535,1.733-3.535,2.632-6,2.694c-0.961-0.021-1.78-0.309-2.459-0.861
				c-0.71-0.533-1.227-1.248-1.551-2.146l-0.062,0.031l-1.896,9.555H107.304z M113.209,186.388
				c-0.595,2.475-0.893,4.036-0.893,4.684c0.021,1.023,0.371,1.869,1.049,2.537c0.668,0.721,1.504,1.081,2.506,1.081
				c1.023,0,1.9-0.309,2.631-0.925c0.71-0.595,1.269-1.356,1.676-2.286c0.449-0.919,0.768-1.891,0.956-2.914
				c0.167-0.981,0.25-1.879,0.25-2.694c-0.021-2.244-1.044-3.378-3.07-3.398c-0.366,0-0.731,0.031-1.096,0.094
				c-0.366,0.084-0.642,0.125-0.83,0.125c-0.47-0.021-0.716-0.234-0.736-0.642c-0.021-0.616,0.276-0.935,0.893-0.956
				c0.345,0,0.689,0.042,1.034,0.126c0.313,0.125,0.663,0.188,1.049,0.188c0.71,0,1.342-0.225,1.895-0.674
				c0.512-0.396,0.94-0.918,1.285-1.565c0.188-0.324,0.36-0.663,0.517-1.019c0.125-0.365,0.229-0.721,0.313-1.065
				c0.157-0.71,0.235-1.373,0.235-1.989c0-0.772-0.193-1.404-0.58-1.896c-0.428-0.49-1.028-0.746-1.801-0.768
				c-1.326,0.021-2.511,0.836-3.556,2.444c-1.055,1.576-1.879,3.618-2.475,6.124L113.209,186.388z"/>
		</g>
		<g enable-background="new    ">
			<path fill="#FFFFFF" d="M127.333,205.867c-0.572-0.188-0.858-0.505-0.858-0.949c0-0.244,0.081-0.432,0.242-0.566
				c0.161-0.134,0.337-0.201,0.525-0.201c0.243,0,0.603,0.178,1.077,0.535c0.476,0.355,0.883,0.533,1.224,0.533
				c0.804,0,1.539-0.369,2.206-1.109c0.666-0.739,1-1.663,1-2.771c0-1.229-0.463-2.133-1.389-2.712
				c-0.535-0.335-1.439-0.621-2.712-0.858v-0.283l1.954-4.091h4.785l-0.438,1.343h-4.284l-0.785,1.643
				c1.354,0.214,2.396,0.675,3.126,1.385c0.729,0.709,1.095,1.688,1.095,2.936c0,1.357-0.548,2.587-1.645,3.689
				c-1.096,1.09-2.447,1.635-4.054,1.635C128.019,206.023,127.662,205.97,127.333,205.867z"/>
		</g>
		<g enable-background="new    ">
			<path fill="#FFFFFF" d="M104.304,147.733c2.652-11.246,4.824-19.177,6.516-23.793c0.918-2.35,1.926-4.062,3.023-5.138
				c1.086-1.002,2.422-1.504,4.01-1.504c1.326,0,2.412,0.376,3.258,1.128c0.856,0.742,1.294,1.797,1.315,3.164
				c-0.021,1.546-0.585,2.841-1.691,3.885c-1.118,1.065-2.413,1.78-3.885,2.146v0.062c2.934,0.47,4.412,2.172,4.433,5.106
				c-0.021,2.12-0.804,4.01-2.349,5.67c-1.535,1.733-3.535,2.632-6,2.694c-0.961-0.021-1.78-0.309-2.459-0.861
				c-0.71-0.533-1.227-1.248-1.551-2.146l-0.062,0.031l-1.896,9.555H104.304z M110.209,132.054
				c-0.595,2.475-0.893,4.036-0.893,4.684c0.021,1.023,0.371,1.869,1.049,2.537c0.668,0.721,1.504,1.081,2.506,1.081
				c1.023,0,1.9-0.309,2.631-0.925c0.71-0.595,1.269-1.356,1.676-2.286c0.449-0.919,0.768-1.891,0.956-2.914
				c0.167-0.981,0.25-1.879,0.25-2.694c-0.021-2.244-1.044-3.378-3.07-3.398c-0.366,0-0.731,0.031-1.096,0.094
				c-0.366,0.084-0.642,0.125-0.83,0.125c-0.47-0.021-0.716-0.234-0.736-0.642c-0.021-0.616,0.276-0.935,0.893-0.956
				c0.345,0,0.689,0.042,1.034,0.126c0.313,0.125,0.663,0.188,1.049,0.188c0.71,0,1.342-0.225,1.895-0.674
				c0.512-0.396,0.94-0.918,1.285-1.565c0.188-0.324,0.36-0.663,0.517-1.019c0.125-0.365,0.229-0.721,0.313-1.065
				c0.157-0.71,0.235-1.373,0.235-1.989c0-0.772-0.193-1.404-0.58-1.896c-0.428-0.49-1.028-0.746-1.801-0.768
				c-1.326,0.021-2.511,0.836-3.556,2.444c-1.055,1.576-1.879,3.618-2.475,6.124L110.209,132.054z"/>
		</g>
		<g enable-background="new    ">
			<path fill="#FFFFFF" d="M131.404,138.885h0.777l-2.253,8.137h1.771l-0.255,1.169h-1.84l-0.923,3.333h-1.47l0.923-3.333h-4.905
				l0.365-1.251L131.404,138.885z M130.107,141.063h0.007l-5.698,5.877l-0.003,0.082h4.044L130.107,141.063z"/>
		</g>
		<g enable-background="new    ">
			<path fill="#FFFFFF" d="M150.471,130.233c2.652-11.246,4.824-19.177,6.516-23.793c0.918-2.35,1.926-4.062,3.023-5.138
				c1.086-1.002,2.423-1.504,4.01-1.504c1.326,0,2.412,0.376,3.259,1.128c0.855,0.742,1.294,1.797,1.314,3.164
				c-0.021,1.546-0.584,2.841-1.691,3.885c-1.117,1.065-2.412,1.78-3.885,2.146v0.062c2.935,0.47,4.412,2.172,4.434,5.106
				c-0.021,2.12-0.805,4.01-2.35,5.67c-1.535,1.733-3.535,2.632-6,2.694c-0.961-0.021-1.78-0.309-2.459-0.861
				c-0.71-0.533-1.227-1.248-1.551-2.146l-0.062,0.031l-1.896,9.555H150.471z M156.375,114.554
				c-0.595,2.475-0.893,4.036-0.893,4.684c0.021,1.023,0.371,1.869,1.049,2.537c0.668,0.721,1.504,1.081,2.506,1.081
				c1.023,0,1.9-0.309,2.631-0.925c0.71-0.595,1.269-1.356,1.677-2.286c0.448-0.919,0.768-1.891,0.955-2.914
				c0.166-0.981,0.25-1.879,0.25-2.694c-0.021-2.244-1.044-3.378-3.07-3.398c-0.365,0-0.73,0.031-1.096,0.094
				c-0.366,0.084-0.642,0.125-0.83,0.125c-0.47-0.021-0.716-0.234-0.736-0.642c-0.021-0.616,0.276-0.935,0.893-0.956
				c0.345,0,0.689,0.042,1.034,0.126c0.313,0.125,0.663,0.188,1.05,0.188c0.709,0,1.342-0.225,1.895-0.674
				c0.512-0.396,0.939-0.918,1.285-1.565c0.188-0.324,0.359-0.663,0.517-1.019c0.125-0.365,0.229-0.721,0.313-1.065
				c0.156-0.71,0.234-1.373,0.234-1.989c0-0.772-0.193-1.404-0.58-1.896c-0.428-0.49-1.027-0.746-1.801-0.768
				c-1.326,0.021-2.511,0.836-3.556,2.444c-1.055,1.576-1.879,3.618-2.475,6.124L156.375,114.554z"/>
		</g>
		<g enable-background="new    ">
			<path fill="#FFFFFF" d="M170.911,132.422c0.14,0.052,0.283,0.127,0.429,0.224l0.438,0.302c0.23,0.158,0.417,0.271,0.557,0.338
				c0.25,0.115,0.49,0.173,0.722,0.173c0.614,0,1.165-0.284,1.653-0.854c0.486-0.569,0.73-1.304,0.73-2.205
				c0-1.022-0.271-1.799-0.812-2.329c-0.543-0.529-1.307-0.794-2.293-0.794c-0.049,0-0.09,0.001-0.123,0.004
				c-0.033,0.004-0.107,0.008-0.224,0.014l-0.019-0.301c1.638-0.226,2.796-0.638,3.475-1.237c0.68-0.6,1.019-1.204,1.019-1.812
				c0-0.414-0.122-0.803-0.366-1.165c-0.244-0.361-0.687-0.543-1.327-0.543c-0.372,0-0.739,0.101-1.099,0.302
				c-0.36,0.2-0.684,0.502-0.971,0.903l-0.301-0.101c0.359-0.663,0.799-1.147,1.319-1.451c0.521-0.305,1.076-0.457,1.667-0.457
				c0.797,0,1.445,0.215,1.945,0.644c0.498,0.43,0.748,0.988,0.748,1.676c0,0.725-0.299,1.321-0.895,1.79
				c-0.391,0.311-1.06,0.643-2.01,0.995v0.064c0.457,0.213,0.812,0.466,1.068,0.758c0.469,0.529,0.703,1.232,0.703,2.109
				c0,1.242-0.48,2.329-1.442,3.26c-1.005,0.98-2.234,1.471-3.689,1.471c-0.529,0-0.962-0.055-1.296-0.164
				c-0.579-0.189-0.868-0.527-0.868-1.014c0-0.171,0.063-0.326,0.192-0.466c0.127-0.141,0.325-0.21,0.593-0.21
				C170.612,132.344,170.771,132.37,170.911,132.422z"/>
		</g>
		<g enable-background="new    ">
			<path fill="#FFFFFF" d="M198.638,157.733c2.652-11.246,4.824-19.177,6.516-23.793c0.919-2.35,1.927-4.062,3.023-5.138
				c1.086-1.002,2.422-1.504,4.01-1.504c1.326,0,2.412,0.376,3.258,1.128c0.856,0.742,1.295,1.797,1.316,3.164
				c-0.021,1.546-0.586,2.841-1.691,3.885c-1.118,1.065-2.413,1.78-3.885,2.146v0.062c2.934,0.47,4.411,2.172,4.432,5.106
				c-0.021,2.12-0.804,4.01-2.349,5.67c-1.535,1.733-3.535,2.632-5.999,2.694c-0.961-0.021-1.781-0.309-2.459-0.861
				c-0.711-0.533-1.228-1.248-1.551-2.146l-0.062,0.031l-1.896,9.555H198.638z M204.542,142.054
				c-0.595,2.475-0.893,4.036-0.893,4.684c0.021,1.023,0.371,1.869,1.05,2.537c0.669,0.721,1.504,1.081,2.507,1.081
				c1.023,0,1.9-0.309,2.631-0.925c0.71-0.595,1.27-1.356,1.676-2.286c0.449-0.919,0.768-1.891,0.956-2.914
				c0.167-0.981,0.251-1.879,0.251-2.694c-0.021-2.244-1.045-3.378-3.07-3.398c-0.366,0-0.731,0.031-1.097,0.094
				c-0.366,0.084-0.642,0.125-0.83,0.125c-0.47-0.021-0.716-0.234-0.736-0.642c-0.021-0.616,0.276-0.935,0.893-0.956
				c0.345,0,0.689,0.042,1.034,0.126c0.312,0.125,0.662,0.188,1.049,0.188c0.711,0,1.342-0.225,1.896-0.674
				c0.512-0.396,0.94-0.918,1.284-1.565c0.188-0.324,0.361-0.663,0.518-1.019c0.125-0.365,0.229-0.721,0.312-1.065
				c0.157-0.71,0.235-1.373,0.235-1.989c0-0.772-0.193-1.404-0.579-1.896c-0.429-0.49-1.029-0.746-1.802-0.768
				c-1.326,0.021-2.511,0.836-3.556,2.444c-1.055,1.576-1.879,3.618-2.475,6.124L204.542,142.054z"/>
		</g>
		<g enable-background="new    ">
			<path fill="#FFFFFF" d="M217.753,161.205l3.945-4.182c0.676-0.712,1.215-1.352,1.617-1.918c0.712-0.998,1.068-1.844,1.068-2.539
				c0-0.645-0.209-1.193-0.626-1.644s-0.987-0.676-1.712-0.676c-0.682,0-1.279,0.228-1.79,0.685
				c-0.274,0.25-0.552,0.609-0.831,1.078l-0.393-0.137c0.469-1.266,1.205-2.143,2.209-2.63c0.524-0.25,1.081-0.375,1.672-0.375
				c0.955,0,1.709,0.326,2.26,0.977s0.826,1.376,0.826,2.173c0,0.694-0.205,1.349-0.614,1.963c-0.41,0.615-1.104,1.428-2.084,2.438
				l-3.485,3.598v0.082h3.422c0.498,0,0.869-0.082,1.112-0.246c0.243-0.165,0.471-0.472,0.683-0.922l0.301,0.127l-0.932,2.466
				h-6.648V161.205z"/>
		</g>
	</g>
</g>
</svg>
