<?xml version="1.0" encoding="utf-8"?>
<!-- Generator: Adobe Illustrator 14.0.0, SVG Export Plug-In . SVG Version: 6.00 Build 43363)  -->
<!DOCTYPE svg PUBLIC "-//W3C//DTD SVG 1.1//EN" "http://www.w3.org/Graphics/SVG/1.1/DTD/svg11.dtd">
<svg version="1.1" id="Layer_1" xmlns="http://www.w3.org/2000/svg" xmlns:xlink="http://www.w3.org/1999/xlink" x="0px" y="0px"
	 width="347.959px" height="480.613px" viewBox="0 0 347.959 480.613" enable-background="new 0 0 347.959 480.613"
	 xml:space="preserve">
<g>
	<g>
		<g>
			<g>
				
					<radialGradient id="SVGID_1_" cx="193.0332" cy="127.8491" r="77.7201" gradientTransform="matrix(1 0 0 -1 0 480.6123)" gradientUnits="userSpaceOnUse">
					<stop  offset="0.1629" style="stop-color:#FFFFFF"/>
					<stop  offset="0.427" style="stop-color:#767676"/>
					<stop  offset="0.7022" style="stop-color:#231F20"/>
					<stop  offset="0.7658" style="stop-color:#272324"/>
					<stop  offset="0.8304" style="stop-color:#332F30"/>
					<stop  offset="0.8955" style="stop-color:#464444"/>
					<stop  offset="0.9606" style="stop-color:#616060"/>
					<stop  offset="1" style="stop-color:#757575"/>
				</radialGradient>
				<circle opacity="0.8" fill="url(#SVGID_1_)" enable-background="new    " cx="174.505" cy="373.868" r="49.94"/>
				<circle opacity="0.2" fill="#244C9F" enable-background="new    " cx="174.505" cy="373.868" r="49.94"/>
				<g opacity="0.4">
					<path opacity="0.75" fill="#231F20" enable-background="new    " d="M174.511,401.47c0,0,2.905,4.312,10.633,10.918
						c8.631,7.379,13.219,5.039,13.219,5.039s-9.741,6.215-23.516,6.215c-13.772,0-25.026-6.719-25.026-6.719
						s3.41,3.641,13.152-3.863C168.109,409.103,174.511,401.47,174.511,401.47z"/>
					<path opacity="0.75" fill="#231F20" enable-background="new    " d="M174.511,401.47c0,0,14.775-16.516,24.188-41.654
						c7.656-20.455,2.688-28.386,2.688-28.386s-9.572-7.728-26.537-7.728s-25.027,6.047-25.027,6.047s-9.02,4.592,0.834,30.906
						C160.127,385.953,174.511,401.47,174.511,401.47z"/>
				</g>
				<g opacity="0.9">
					<path opacity="0.75" fill="#231F20" enable-background="new    " d="M174.394,346.042c0,0-5.711-6.719-11.925-11.926
						c-6.214-5.207-11.757-4.199-11.757-4.199s9.742-6.215,23.515-6.215c13.772,0,25.026,6.719,25.026,6.719
						s-4.199-2.687-13.102,4.031C180.978,338.359,174.394,346.042,174.394,346.042z"/>
					<path opacity="0.75" fill="#231F20" enable-background="new    " d="M174.562,345.875c0,0-14.612,16.965-24.187,41.654
						c-7.896,20.363-2.688,28.387-2.688,28.387s9.574,7.727,26.538,7.727c16.965,0,25.026-6.047,25.026-6.047
						s9.021-4.828-0.672-29.897C188.839,362.503,174.562,345.875,174.562,345.875z"/>
				</g>
				<circle fill="none" stroke="#231F20" stroke-width="2.0155" cx="174.505" cy="373.868" r="49.94"/>
				<g>
					<path fill="none" stroke="#231F20" stroke-width="0.1679" stroke-dasharray="2.0155" d="M224.446,373.869
						c0-8.781-22.359-15.9-49.941-15.9s-49.941,7.119-49.941,15.9"/>
					<path fill="none" stroke="#231F20" stroke-width="0.6719" d="M124.564,373.869c0,8.781,22.359,15.9,49.941,15.9
						s49.941-7.119,49.941-15.9"/>
				</g>
				<g>
					<path fill="none" stroke="#231F20" stroke-width="0.1679" stroke-dasharray="2.0155" d="M149.535,330.619
						c-7.605,4.391-2.591,27.313,11.2,51.2c13.792,23.888,31.135,39.69,38.741,35.3"/>
					<path fill="none" stroke="#231F20" stroke-width="0.6719" d="M199.478,417.119c7.604-4.393,2.59-27.313-11.201-51.201
						c-13.791-23.885-31.135-39.689-38.74-35.299"/>
				</g>
				<g>
					<path fill="none" stroke="#231F20" stroke-width="0.1679" stroke-dasharray="2.0155" d="M149.535,417.119
						c7.605,4.391,24.95-11.414,38.741-35.3c13.789-23.888,18.805-46.81,11.199-51.2"/>
					<path fill="none" stroke="#231F20" stroke-width="0.6719" d="M199.478,330.619c-7.605-4.392-24.951,11.414-38.742,35.299
						c-13.791,23.888-18.805,46.811-11.2,51.201"/>
				</g>
			</g>
			<g>
				
					<radialGradient id="SVGID_2_" cx="78.2852" cy="127.8491" r="77.7192" gradientTransform="matrix(1 0 0 -1 0 480.6123)" gradientUnits="userSpaceOnUse">
					<stop  offset="0.1629" style="stop-color:#FFFFFF"/>
					<stop  offset="0.427" style="stop-color:#767676"/>
					<stop  offset="0.7022" style="stop-color:#231F20"/>
					<stop  offset="0.7658" style="stop-color:#272324"/>
					<stop  offset="0.8304" style="stop-color:#332F30"/>
					<stop  offset="0.8955" style="stop-color:#464444"/>
					<stop  offset="0.9606" style="stop-color:#616060"/>
					<stop  offset="1" style="stop-color:#757575"/>
				</radialGradient>
				<circle opacity="0.8" fill="url(#SVGID_2_)" enable-background="new    " cx="59.757" cy="373.868" r="49.94"/>
				<circle opacity="0.2" fill="#244C9F" enable-background="new    " cx="59.757" cy="373.868" r="49.94"/>
				<g opacity="0.4">
					<path opacity="0.75" fill="#231F20" enable-background="new    " d="M83.874,359.794c0,0,2.28-4.672,4.139-14.666
						c2.075-11.164-2.246-13.967-2.246-13.967s10.253,5.33,17.139,17.258c6.887,11.928,6.695,25.033,6.695,25.033
						s1.447-4.773-9.921-9.459C93.686,361.522,83.874,359.794,83.874,359.794z"/>
					<path opacity="0.75" fill="#231F20" enable-background="new    " d="M83.874,359.794c0,0-21.691-4.537-48.167-0.119
						C14.164,363.272,9.78,371.542,9.78,371.542s-1.905,12.153,6.577,26.846c8.482,14.691,17.75,18.65,17.75,18.65
						s8.485,5.516,26.347-16.176C77.626,380.009,83.874,359.794,83.874,359.794z"/>
				</g>
				<g opacity="0.9">
					<path opacity="0.75" fill="#231F20" enable-background="new    " d="M35.931,387.61c0,0-2.963,8.306-4.365,16.29
						c-1.401,7.986,2.243,12.281,2.243,12.281s-10.253-5.328-17.14-17.256c-6.886-11.928-6.695-25.033-6.695-25.033
						s-0.228,4.98,10.042,9.331C25.985,385.751,35.931,387.61,35.931,387.61z"/>
					<path opacity="0.75" fill="#231F20" enable-background="new    " d="M35.701,387.55c0,0,21.998,4.173,48.167,0.117
						c21.583-3.342,25.926-11.864,25.926-11.864s1.904-12.154-6.578-26.847c-8.482-14.691-17.75-18.649-17.75-18.649
						s-8.691-5.399-25.556,15.53C42.963,366.871,35.701,387.55,35.701,387.55z"/>
				</g>
				<circle fill="none" stroke="#231F20" stroke-width="2.0155" cx="59.757" cy="373.868" r="49.94"/>
				<g>
					<path fill="none" stroke="#231F20" stroke-width="0.1679" stroke-dasharray="2.0155" d="M109.698,373.869
						c0-8.781-22.359-15.9-49.941-15.9s-49.941,7.119-49.941,15.9"/>
					<path fill="none" stroke="#231F20" stroke-width="0.6719" d="M9.816,373.869c0,8.781,22.359,15.9,49.941,15.9
						s49.941-7.119,49.941-15.9"/>
				</g>
				<g>
					<path fill="none" stroke="#231F20" stroke-width="0.1679" stroke-dasharray="2.0155" d="M34.787,330.619
						c-7.605,4.391-2.591,27.313,11.2,51.2c13.791,23.888,31.136,39.69,38.741,35.3"/>
					<path fill="none" stroke="#231F20" stroke-width="0.6719" d="M84.727,417.119c7.605-4.393,2.591-27.313-11.2-51.201
						c-13.791-23.885-31.136-39.689-38.74-35.299"/>
				</g>
				<g>
					<path fill="none" stroke="#231F20" stroke-width="0.1679" stroke-dasharray="2.0155" d="M34.787,417.119
						c7.605,4.391,24.95-11.414,38.741-35.3c13.791-23.888,18.805-46.81,11.2-51.2"/>
					<path fill="none" stroke="#231F20" stroke-width="0.6719" d="M84.727,330.619c-7.605-4.392-24.95,11.414-38.74,35.299
						c-13.791,23.888-18.805,46.811-11.2,51.201"/>
				</g>
			</g>
			<g>
				
					<radialGradient id="SVGID_3_" cx="307.7236" cy="127.8491" r="77.7177" gradientTransform="matrix(1 0 0 -1 0 480.6123)" gradientUnits="userSpaceOnUse">
					<stop  offset="0.1629" style="stop-color:#FFFFFF"/>
					<stop  offset="0.427" style="stop-color:#767676"/>
					<stop  offset="0.7022" style="stop-color:#231F20"/>
					<stop  offset="0.7658" style="stop-color:#272324"/>
					<stop  offset="0.8304" style="stop-color:#332F30"/>
					<stop  offset="0.8955" style="stop-color:#464444"/>
					<stop  offset="0.9606" style="stop-color:#616060"/>
					<stop  offset="1" style="stop-color:#757575"/>
				</radialGradient>
				<circle opacity="0.8" fill="url(#SVGID_3_)" enable-background="new    " cx="289.194" cy="373.868" r="49.94"/>
				<circle opacity="0.2" fill="#244C9F" enable-background="new    " cx="289.194" cy="373.868" r="49.94"/>
				<g opacity="0.4">
					<path opacity="0.75" fill="#231F20" enable-background="new    " d="M265.162,359.753c0,0-5.187,0.359-14.771,3.748
						c-10.705,3.783-10.974,8.928-10.974,8.928s-0.511-11.545,6.375-23.471c6.888-11.929,18.332-18.314,18.332-18.314
						s-4.856,1.134-3.231,13.32C261.753,350.391,265.162,359.753,265.162,359.753z"/>
					<path opacity="0.75" fill="#231F20" enable-background="new    " d="M265.162,359.753c0,0,6.916,21.054,23.981,41.773
						c13.885,16.857,23.238,16.52,23.238,16.52s11.479-4.428,19.96-19.119c8.481-14.691,7.277-24.696,7.277-24.696
						s0.533-10.106-27.184-14.729C285.793,355.056,265.162,359.753,265.162,359.753z"/>
				</g>
				<g opacity="0.9">
					<path opacity="0.75" fill="#231F20" enable-background="new    " d="M313.223,387.365c0,0,8.675-1.587,16.291-4.365
						c7.616-2.777,9.516-8.082,9.516-8.082s0.512,11.543-6.375,23.471c-6.887,11.93-18.332,18.314-18.332,18.314
						s4.428-2.293,3.06-13.361C316.586,396.908,313.223,387.365,313.223,387.365z"/>
					<path opacity="0.75" fill="#231F20" enable-background="new    " d="M313.285,387.595c0,0-7.386-21.139-23.981-41.774
						C275.617,328.8,266.065,329.3,266.065,329.3s-11.479,4.429-19.959,19.119c-8.482,14.691-7.277,24.697-7.277,24.697
						s-0.331,10.228,26.229,14.366C291.746,391.645,313.285,387.595,313.285,387.595z"/>
				</g>
				<circle fill="none" stroke="#231F20" stroke-width="2.0155" cx="289.194" cy="373.868" r="49.94"/>
				<g>
					<path fill="none" stroke="#231F20" stroke-width="0.1679" stroke-dasharray="2.0155" d="M339.135,373.869
						c0-8.781-22.359-15.9-49.94-15.9c-27.582,0-49.94,7.119-49.94,15.9"/>
					<path fill="none" stroke="#231F20" stroke-width="0.6719" d="M239.253,373.869c0,8.781,22.359,15.9,49.941,15.9
						c27.58,0,49.939-7.119,49.939-15.9"/>
				</g>
				<g>
					<path fill="none" stroke="#231F20" stroke-width="0.1679" stroke-dasharray="2.0155" d="M264.224,330.619
						c-7.604,4.391-2.591,27.313,11.199,51.2c13.791,23.888,31.136,39.69,38.741,35.3"/>
					<path fill="none" stroke="#231F20" stroke-width="0.6719" d="M314.164,417.119c7.604-4.393,2.591-27.313-11.2-51.201
						c-13.79-23.885-31.135-39.689-38.74-35.299"/>
				</g>
				<g>
					<path fill="none" stroke="#231F20" stroke-width="0.1679" stroke-dasharray="2.0155" d="M264.224,417.119
						c7.605,4.391,24.95-11.414,38.741-35.3c13.79-23.888,18.805-46.81,11.199-51.2"/>
					<path fill="none" stroke="#231F20" stroke-width="0.6719" d="M314.164,330.619c-7.605-4.392-24.95,11.414-38.741,35.299
						c-13.79,23.888-18.805,46.811-11.199,51.201"/>
				</g>
			</g>
		</g>
		<g enable-background="new    ">
			<path fill="#231F20" d="M36.589,459.043c0.876-0.219,1.568-0.625,2.078-1.218c0.509-0.592,1.523-2.184,3.043-4.772l11.555-19.787
				h0.87l3.807,22.396c0.245,1.443,0.534,2.342,0.87,2.696c0.334,0.354,1.05,0.583,2.145,0.686v0.638h-9.758v-0.638
				c1.172-0.116,1.932-0.258,2.28-0.425c0.554-0.258,0.831-0.76,0.831-1.508c0-0.193-0.007-0.398-0.02-0.618
				c-0.013-0.219-0.032-0.405-0.058-0.561l-0.85-5.179h-8.45l-2.488,4.444c-0.167,0.297-0.315,0.612-0.444,0.947
				c-0.219,0.593-0.329,1.089-0.329,1.488c0,0.502,0.171,0.856,0.512,1.062s0.95,0.322,1.826,0.348v0.638h-7.42V459.043z
				 M53.151,449.343l-1.683-10.261l-5.746,10.261H53.151z"/>
		</g>
		<g enable-background="new    ">
			<path fill="#231F20" d="M62.94,472.476l0.767-0.012c0.503-0.06,0.904-0.171,1.205-0.332s0.507-0.441,0.62-0.839l3.145-11.356
				c0.053-0.188,0.092-0.347,0.118-0.479c0.026-0.131,0.039-0.25,0.039-0.354c0-0.263-0.086-0.439-0.259-0.529
				c-0.173-0.091-0.447-0.136-0.822-0.136l-1.104,0.057v-0.35l0.293-0.045c0.21-0.037,0.768-0.146,1.672-0.327
				c0.904-0.18,1.549-0.312,1.932-0.394l0.349-0.079l0.214-0.034l0.136,0.079c0,0.045-0.002,0.09-0.006,0.136
				c-0.004,0.045-0.014,0.09-0.028,0.135l-3.752,13.8c-0.016,0.061-0.028,0.121-0.039,0.181c-0.012,0.061-0.018,0.12-0.018,0.181
				c0,0.308,0.136,0.503,0.406,0.585c0.27,0.083,0.792,0.136,1.565,0.158v0.338H62.94V472.476z"/>
		</g>
		<g enable-background="new    ">
			<path fill="#231F20" d="M159.283,459.043c0.876-0.219,1.568-0.625,2.078-1.218c0.509-0.592,1.523-2.184,3.043-4.772
				l11.555-19.787h0.87l3.807,22.396c0.244,1.443,0.533,2.342,0.869,2.696c0.334,0.354,1.05,0.583,2.145,0.686v0.638h-9.758v-0.638
				c1.172-0.116,1.932-0.258,2.279-0.425c0.555-0.258,0.832-0.76,0.832-1.508c0-0.193-0.008-0.398-0.02-0.618
				c-0.014-0.219-0.033-0.405-0.059-0.561l-0.85-5.179h-8.449l-2.488,4.444c-0.167,0.297-0.315,0.612-0.444,0.947
				c-0.219,0.593-0.329,1.089-0.329,1.488c0,0.502,0.171,0.856,0.512,1.062s0.95,0.322,1.826,0.348v0.638h-7.42V459.043z
				 M175.845,449.343l-1.683-10.261l-5.746,10.261H175.845z"/>
		</g>
		<g enable-background="new    ">
			<path fill="#231F20" d="M184.779,472.464l4.866-5.159c0.834-0.879,1.498-1.667,1.994-2.366c0.879-1.231,1.318-2.275,1.318-3.132
				c0-0.796-0.258-1.472-0.772-2.027c-0.514-0.556-1.218-0.834-2.112-0.834c-0.841,0-1.577,0.282-2.208,0.845
				c-0.338,0.309-0.68,0.751-1.024,1.33l-0.484-0.169c0.578-1.562,1.486-2.644,2.726-3.245c0.646-0.308,1.333-0.462,2.062-0.462
				c1.18,0,2.108,0.402,2.788,1.206s1.02,1.697,1.02,2.681c0,0.856-0.253,1.664-0.758,2.422c-0.506,0.759-1.363,1.762-2.571,3.008
				L187.321,471v0.101h4.223c0.614,0,1.072-0.101,1.372-0.304c0.301-0.203,0.581-0.582,0.842-1.138l0.371,0.157l-1.148,3.042h-8.201
				V472.464z"/>
		</g>
		<g enable-background="new    ">
			<path fill="#231F20" d="M276.843,459.043c0.876-0.219,1.568-0.625,2.077-1.218c0.509-0.592,1.522-2.184,3.044-4.772
				l11.555-19.787h0.869l3.807,22.396c0.245,1.443,0.535,2.342,0.87,2.696s1.05,0.583,2.145,0.686v0.638h-9.758v-0.638
				c1.172-0.116,1.933-0.258,2.28-0.425c0.553-0.258,0.83-0.76,0.83-1.508c0-0.193-0.006-0.398-0.02-0.618
				c-0.012-0.219-0.031-0.405-0.057-0.561l-0.85-5.179h-8.45l-2.488,4.444c-0.167,0.297-0.315,0.612-0.444,0.947
				c-0.219,0.593-0.328,1.089-0.328,1.488c0,0.502,0.17,0.856,0.512,1.062s0.949,0.322,1.826,0.348v0.638h-7.42V459.043z
				 M293.404,449.343l-1.683-10.261l-5.746,10.261H293.404z"/>
		</g>
		<g enable-background="new    ">
			<path fill="#231F20" d="M303.972,470.881c0.173,0.064,0.35,0.156,0.529,0.276l0.541,0.372c0.285,0.195,0.515,0.334,0.688,0.417
				c0.308,0.143,0.604,0.214,0.89,0.214c0.759,0,1.438-0.352,2.039-1.054s0.901-1.608,0.901-2.721c0-1.262-0.334-2.219-1.003-2.872
				c-0.668-0.653-1.611-0.98-2.827-0.98c-0.061,0-0.111,0.002-0.152,0.006s-0.133,0.009-0.275,0.017l-0.023-0.372
				c2.021-0.277,3.449-0.786,4.287-1.526c0.837-0.739,1.256-1.484,1.256-2.236c0-0.511-0.15-0.989-0.452-1.436
				c-0.301-0.447-0.847-0.671-1.638-0.671c-0.459,0-0.91,0.124-1.354,0.372s-0.844,0.619-1.197,1.115l-0.371-0.124
				c0.442-0.818,0.985-1.416,1.627-1.791c0.643-0.376,1.328-0.563,2.057-0.563c0.983,0,1.783,0.265,2.399,0.794
				c0.615,0.529,0.924,1.219,0.924,2.067c0,0.894-0.368,1.63-1.104,2.208c-0.48,0.383-1.307,0.793-2.479,1.229v0.078
				c0.563,0.264,1.003,0.575,1.318,0.936c0.578,0.653,0.867,1.521,0.867,2.603c0,1.531-0.593,2.872-1.779,4.021
				c-1.239,1.209-2.757,1.813-4.552,1.813c-0.653,0-1.187-0.067-1.6-0.202c-0.713-0.233-1.07-0.65-1.07-1.251
				c0-0.21,0.079-0.401,0.237-0.574c0.157-0.173,0.401-0.26,0.731-0.26C303.604,470.786,303.799,470.818,303.972,470.881z"/>
		</g>
	</g>
	<g>
		<g>
			<g>
				
					<radialGradient id="SVGID_4_" cx="217.1104" cy="403.7026" r="178.1526" gradientTransform="matrix(1 0 0 -1 0 480.6123)" gradientUnits="userSpaceOnUse">
					<stop  offset="0.1629" style="stop-color:#FFFFFF"/>
					<stop  offset="0.427" style="stop-color:#767676"/>
					<stop  offset="0.7022" style="stop-color:#231F20"/>
					<stop  offset="0.7658" style="stop-color:#272324"/>
					<stop  offset="0.8304" style="stop-color:#332F30"/>
					<stop  offset="0.8955" style="stop-color:#464444"/>
					<stop  offset="0.9606" style="stop-color:#616060"/>
					<stop  offset="1" style="stop-color:#757575"/>
				</radialGradient>
				<circle opacity="0.8" fill="url(#SVGID_4_)" enable-background="new    " cx="174.638" cy="125.289" r="114.48"/>
				<circle opacity="0.2" fill="#244C9F" enable-background="new    " cx="174.638" cy="125.289" r="114.48"/>
				<path opacity="0.75" fill="#231F20" enable-background="new    " d="M206.53,107.514
					c-16.363-28.684-32.149-45.625-32.149-45.625s-15.979,19.251-29.839,42.353c-13.861,23.101-25.219,52.748-25.219,52.748
					s21.754,4.621,55.25,4.621s55.251-4.621,55.251-4.621S222.896,136.198,206.53,107.514z"/>
				<circle fill="none" stroke="#231F20" stroke-width="4.6203" cx="174.638" cy="125.289" r="114.48"/>
				<g>
					<path fill="none" stroke="#231F20" stroke-width="0.385" stroke-dasharray="4.6203" d="M289.118,125.289
						c0-20.13-51.256-36.449-114.48-36.449S60.158,105.159,60.158,125.289"/>
					<path fill="none" stroke="#231F20" stroke-width="1.5401" d="M60.158,125.289c0,20.13,51.254,36.449,114.479,36.449
						c63.225,0,114.479-16.319,114.479-36.449"/>
				</g>
				<g>
					<path fill="none" stroke="#231F20" stroke-width="0.385" stroke-dasharray="4.6203" d="M117.398,26.147
						c-17.434,10.065-5.939,62.613,25.674,117.367c31.613,54.755,71.373,90.983,88.806,80.917"/>
					<path fill="none" stroke="#231F20" stroke-width="1.5401" d="M231.878,224.432c17.434-10.064,5.938-62.612-25.675-117.367
						c-31.612-54.754-71.372-90.982-88.805-80.917"/>
				</g>
				<g>
					<path fill="none" stroke="#231F20" stroke-width="0.385" stroke-dasharray="4.6203" d="M117.398,224.432
						c17.434,10.065,57.193-26.164,88.806-80.917c31.611-54.755,43.107-107.302,25.674-117.367"/>
					<path fill="none" stroke="#231F20" stroke-width="1.5401" d="M231.878,26.147c-17.434-10.065-57.193,26.163-88.806,80.918
						c-31.612,54.754-43.107,107.301-25.674,117.366"/>
				</g>
			</g>
			<g enable-background="new    ">
				<path fill="#231F20" d="M161.08,274.489c0.876-0.219,1.568-0.625,2.078-1.218c0.509-0.592,1.523-2.184,3.043-4.772
					l11.555-19.787h0.87l3.807,22.396c0.244,1.443,0.533,2.342,0.869,2.696c0.334,0.354,1.05,0.583,2.145,0.686v0.638h-9.758v-0.638
					c1.172-0.116,1.932-0.258,2.279-0.425c0.555-0.258,0.832-0.76,0.832-1.508c0-0.193-0.008-0.398-0.02-0.618
					c-0.014-0.219-0.033-0.405-0.059-0.561l-0.85-5.179h-8.449l-2.488,4.444c-0.167,0.297-0.315,0.612-0.444,0.947
					c-0.219,0.593-0.329,1.089-0.329,1.488c0,0.502,0.171,0.856,0.512,1.062s0.95,0.322,1.826,0.348v0.638h-7.42V274.489z
					 M177.642,264.789l-1.683-10.261l-5.746,10.261H177.642z"/>
			</g>
		</g>
		<g>
			<g enable-background="new    ">
				<path fill="#FFFFFF" d="M154.898,141.163c-0.112,0.571-0.358,1.122-0.736,1.652c-0.394,0.571-0.92,0.864-1.58,0.881
					c-0.362,0-0.667-0.112-0.917-0.338c-0.25-0.217-0.43-0.475-0.543-0.771c-0.249-0.676-0.366-1.307-0.35-1.894h-0.048
					c-0.442,0.788-1.049,1.479-1.821,2.074c-0.788,0.604-1.721,0.912-2.798,0.929c-1.343-0.017-2.396-0.45-3.16-1.303
					c-0.788-0.82-1.182-1.89-1.182-3.208c0.016-1.817,0.66-3.458,1.93-4.922c1.198-1.479,2.722-2.243,4.571-2.291
					c0.506,0,0.957,0.096,1.351,0.289c0.362,0.201,0.667,0.475,0.917,0.82c0.475,0.708,0.711,1.54,0.711,2.497h0.048l1.17-3.365
					h2.002l-3.063,7.804c0,0.515,0.121,0.985,0.362,1.411c0.233,0.427,0.607,0.647,1.122,0.663c0.41,0,0.728-0.096,0.953-0.289
					c0.233-0.201,0.442-0.49,0.627-0.868L154.898,141.163z M146.033,143.081c0.78-0.016,1.463-0.285,2.05-0.808
					c0.579-0.515,1.05-1.158,1.412-1.931c0.755-1.664,1.134-3.196,1.134-4.595c0-0.378-0.024-0.756-0.073-1.134
					c-0.064-0.378-0.181-0.716-0.35-1.014c-0.145-0.313-0.358-0.562-0.639-0.748c-0.298-0.177-0.667-0.265-1.11-0.265
					c-0.756,0.016-1.423,0.297-2.002,0.844c-0.563,0.539-1.042,1.23-1.436,2.075c-0.772,1.776-1.158,3.349-1.158,4.716
					c0,0.724,0.173,1.375,0.519,1.954C144.727,142.763,145.277,143.065,146.033,143.081z"/>
			</g>
			<g enable-background="new    ">
				<path fill="#FFFFFF" d="M156.512,151.442l0.478-0.007c0.314-0.037,0.565-0.106,0.752-0.207s0.316-0.275,0.387-0.524l1.963-7.088
					c0.033-0.117,0.058-0.217,0.074-0.299c0.016-0.082,0.024-0.156,0.024-0.222c0-0.164-0.054-0.274-0.162-0.33
					c-0.108-0.057-0.279-0.085-0.514-0.085l-0.689,0.035v-0.218l0.183-0.028c0.131-0.023,0.479-0.091,1.044-0.204
					c0.564-0.112,0.966-0.194,1.205-0.246l0.218-0.049l0.133-0.021l0.084,0.05c0,0.028-0.001,0.056-0.003,0.084
					c-0.002,0.028-0.008,0.057-0.018,0.085l-2.342,8.614c-0.009,0.037-0.018,0.074-0.024,0.112
					c-0.007,0.037-0.011,0.075-0.011,0.112c0,0.192,0.084,0.314,0.253,0.365c0.168,0.052,0.494,0.085,0.977,0.099v0.211h-4.014
					V151.442z"/>
			</g>
			<g enable-background="new    ">
				<path fill="#FFFFFF" d="M178.026,97.989c-0.113,0.571-0.358,1.122-0.736,1.652c-0.395,0.571-0.92,0.864-1.58,0.881
					c-0.361,0-0.668-0.112-0.916-0.338c-0.25-0.217-0.431-0.475-0.543-0.771c-0.249-0.676-0.366-1.307-0.35-1.894h-0.048
					c-0.442,0.788-1.049,1.479-1.821,2.074c-0.788,0.604-1.721,0.912-2.798,0.929c-1.343-0.017-2.396-0.45-3.16-1.303
					c-0.788-0.82-1.182-1.89-1.182-3.208c0.016-1.817,0.66-3.458,1.93-4.922c1.198-1.479,2.722-2.243,4.571-2.291
					c0.506,0,0.957,0.096,1.351,0.289c0.362,0.201,0.667,0.475,0.917,0.82c0.475,0.708,0.711,1.54,0.711,2.497h0.048l1.169-3.365
					h2.003l-3.063,7.804c0,0.515,0.121,0.985,0.361,1.411c0.233,0.427,0.607,0.647,1.122,0.663c0.41,0,0.728-0.096,0.953-0.289
					c0.233-0.201,0.442-0.49,0.627-0.868L178.026,97.989z M169.161,99.907c0.78-0.016,1.463-0.285,2.05-0.808
					c0.579-0.515,1.05-1.158,1.412-1.931c0.755-1.664,1.134-3.196,1.134-4.595c0-0.378-0.024-0.756-0.073-1.134
					c-0.064-0.378-0.181-0.716-0.35-1.014c-0.145-0.313-0.358-0.562-0.639-0.748c-0.298-0.177-0.667-0.265-1.11-0.265
					c-0.756,0.016-1.423,0.297-2.002,0.844c-0.563,0.539-1.042,1.23-1.436,2.075c-0.772,1.776-1.158,3.349-1.158,4.716
					c0,0.724,0.173,1.375,0.519,1.954C167.854,99.589,168.405,99.891,169.161,99.907z"/>
			</g>
			<g enable-background="new    ">
				<path fill="#FFFFFF" d="M179.104,108.26l3.038-3.221c0.52-0.548,0.935-1.041,1.244-1.477c0.549-0.769,0.823-1.42,0.823-1.955
					c0-0.497-0.161-0.919-0.482-1.266c-0.321-0.347-0.761-0.521-1.318-0.521c-0.524,0-0.984,0.176-1.378,0.527
					c-0.211,0.192-0.425,0.469-0.64,0.83l-0.303-0.105c0.361-0.975,0.928-1.65,1.702-2.025c0.402-0.192,0.832-0.288,1.286-0.288
					c0.736,0,1.316,0.25,1.74,0.752c0.425,0.502,0.637,1.06,0.637,1.674c0,0.535-0.158,1.039-0.474,1.512
					c-0.315,0.474-0.851,1.1-1.604,1.878l-2.685,2.771v0.063h2.636c0.384,0,0.669-0.063,0.856-0.189
					c0.188-0.127,0.362-0.363,0.525-0.71l0.231,0.099l-0.717,1.898h-5.119V108.26z"/>
			</g>
			<g enable-background="new    ">
				<path fill="#FFFFFF" d="M197.534,141.78c-0.113,0.571-0.358,1.122-0.736,1.652c-0.395,0.571-0.92,0.864-1.58,0.881
					c-0.361,0-0.668-0.112-0.916-0.338c-0.25-0.217-0.431-0.475-0.543-0.771c-0.25-0.676-0.366-1.307-0.35-1.894h-0.049
					c-0.442,0.788-1.049,1.479-1.821,2.074c-0.788,0.604-1.721,0.912-2.798,0.929c-1.344-0.017-2.396-0.45-3.16-1.303
					c-0.789-0.82-1.183-1.89-1.183-3.208c0.017-1.817,0.659-3.458,1.931-4.922c1.197-1.479,2.721-2.243,4.57-2.291
					c0.507,0,0.957,0.096,1.352,0.289c0.361,0.201,0.667,0.475,0.916,0.82c0.475,0.708,0.712,1.54,0.712,2.497h0.048l1.17-3.365
					h2.003l-3.063,7.804c0,0.515,0.121,0.985,0.361,1.411c0.233,0.427,0.607,0.647,1.122,0.663c0.41,0,0.728-0.096,0.953-0.289
					c0.233-0.201,0.442-0.49,0.627-0.868L197.534,141.78z M188.669,143.698c0.779-0.016,1.463-0.285,2.05-0.808
					c0.579-0.515,1.05-1.158,1.411-1.931c0.756-1.664,1.135-3.196,1.135-4.595c0-0.378-0.025-0.756-0.073-1.134
					c-0.064-0.378-0.181-0.716-0.35-1.014c-0.145-0.313-0.358-0.562-0.64-0.748c-0.297-0.177-0.667-0.265-1.109-0.265
					c-0.756,0.016-1.424,0.297-2.002,0.844c-0.562,0.539-1.041,1.23-1.436,2.075c-0.771,1.776-1.158,3.349-1.158,4.716
					c0,0.724,0.174,1.375,0.52,1.954C187.362,143.38,187.913,143.682,188.669,143.698z"/>
			</g>
			<g enable-background="new    ">
				<path fill="#FFFFFF" d="M199.632,151.064c0.107,0.039,0.218,0.097,0.33,0.172l0.338,0.232c0.178,0.121,0.321,0.208,0.429,0.26
					c0.192,0.089,0.378,0.134,0.556,0.134c0.474,0,0.897-0.22,1.272-0.657c0.375-0.438,0.563-1.005,0.563-1.698
					c0-0.788-0.209-1.386-0.626-1.794c-0.418-0.407-1.006-0.611-1.766-0.611c-0.037,0-0.069,0.001-0.095,0.003
					c-0.025,0.003-0.083,0.007-0.172,0.011l-0.015-0.231c1.262-0.174,2.153-0.491,2.676-0.953s0.784-0.927,0.784-1.396
					c0-0.319-0.094-0.618-0.282-0.896c-0.188-0.279-0.528-0.419-1.021-0.419c-0.287,0-0.569,0.077-0.847,0.232
					c-0.277,0.154-0.526,0.387-0.747,0.696l-0.231-0.078c0.276-0.511,0.615-0.883,1.016-1.118c0.401-0.234,0.829-0.352,1.283-0.352
					c0.614,0,1.113,0.166,1.498,0.496c0.385,0.331,0.577,0.761,0.577,1.29c0,0.559-0.23,1.018-0.689,1.379
					c-0.3,0.239-0.815,0.494-1.547,0.767v0.049c0.352,0.164,0.626,0.358,0.822,0.584c0.361,0.407,0.542,0.949,0.542,1.624
					c0,0.956-0.371,1.793-1.111,2.511c-0.773,0.755-1.721,1.132-2.841,1.132c-0.408,0-0.741-0.042-0.999-0.127
					c-0.445-0.145-0.668-0.405-0.668-0.78c0-0.131,0.05-0.251,0.147-0.358c0.099-0.107,0.251-0.162,0.458-0.162
					C199.402,151.003,199.523,151.024,199.632,151.064z"/>
			</g>
			<path fill="none" stroke="#FFFFFF" stroke-width="0.77" stroke-linecap="round" d="M142.157,159.588
				c0.096-0.854,0.145-1.721,0.145-2.6c0-9.334-5.565-17.368-13.559-20.965"/>
			<path fill="none" stroke="#FFFFFF" stroke-width="0.77" stroke-linecap="round" d="M220.425,135.957
				c-8.072,3.564-13.708,11.64-13.708,21.032c0,0.881,0.05,1.75,0.146,2.604"/>
			<path fill="none" stroke="#FFFFFF" stroke-width="0.77" stroke-linecap="round" d="M161.086,79.97
				c3.822,2.835,8.555,4.513,13.681,4.513c4.978,0,9.584-1.583,13.346-4.272"/>
		</g>
	</g>
</g>
</svg>
