<?xml version="1.0" encoding="utf-8"?>
<!-- Generator: Adobe Illustrator 14.0.0, SVG Export Plug-In . SVG Version: 6.00 Build 43363)  -->
<!DOCTYPE svg PUBLIC "-//W3C//DTD SVG 1.1//EN" "http://www.w3.org/Graphics/SVG/1.1/DTD/svg11.dtd">
<svg version="1.1" id="Layer_1" xmlns="http://www.w3.org/2000/svg" xmlns:xlink="http://www.w3.org/1999/xlink" x="0px" y="0px"
	 width="420px" height="297.333px" viewBox="0 0 420 297.333" enable-background="new 0 0 420 297.333" xml:space="preserve">
<polygon opacity="0.2" fill="#1B1F8A" enable-background="new    " points="413.839,145.667 209.841,263.447 209.838,27.887 "/>
<polygon opacity="0.2" fill="#1B1F8A" enable-background="new    " points="5.838,145.667 209.838,27.887 209.839,263.447 "/>
<polyline opacity="0.2" fill="none" enable-background="new    " points="209.838,27.887 413.839,145.667 209.841,263.447 "/>
<polyline fill="none" stroke="#000000" stroke-width="1.8889" stroke-linecap="round" stroke-linejoin="round" enable-background="new    " points="
	209.839,263.447 5.838,145.667 209.838,27.887 "/>
<polyline fill="none" stroke="#000000" stroke-width="1.8889" stroke-linecap="round" stroke-linejoin="round" enable-background="new    " points="
	209.838,27.887 413.839,145.667 209.841,263.447 "/>
<path fill="none" stroke="#000000" stroke-width="1.8889" stroke-linecap="round" stroke-linejoin="round" d="M209.838,263.447"/>
<path fill="none" stroke="#000000" stroke-width="1.8889" stroke-linecap="round" stroke-linejoin="round" d="M209.838,27.887"/>
<line fill="none" stroke="#000000" stroke-linecap="round" stroke-linejoin="round" stroke-dasharray="4" x1="141.838" y1="145.667" x2="277.838" y2="145.667"/>
<polyline fill="none" stroke="#000000" stroke-linecap="round" stroke-linejoin="round" points="195.338,145.667 195.338,131.167 
	209.838,131.167 "/>
<path fill="none" stroke="#000000" stroke-linecap="round" stroke-linejoin="round" d="M34.42,162.17
	c2.81-4.854,4.418-10.491,4.418-16.504c0-6.011-1.607-11.647-4.416-16.502"/>
<circle cx="141.838" cy="145.667" r="3.795"/>
<circle cx="277.838" cy="145.667" r="3.795"/>
<g>
	<defs>
		<rect id="SVGID_1_" x="44.4" y="138.367" width="27.2" height="21.6"/>
	</defs>
	<clipPath id="SVGID_2_">
		<use xlink:href="#SVGID_1_"  overflow="visible"/>
	</clipPath>
	<path clip-path="url(#SVGID_2_)" d="M55.519,148.635c-2.53,2.214-4.743,2.529-5.893,2.529c-1.725,0-2.586-1.293-2.586-3.133
		c0-1.409,0.752-4.514,1.678-5.98c1.359-2.099,2.921-2.646,3.934-2.646c2.866,0,2.866,3.767,2.866,6.009
		C55.518,146.478,55.518,148.145,55.519,148.635 M57.439,144.694c0-4.517-2.68-5.927-4.811-5.927c-3.945,0-7.748,4.119-7.748,8.175
		c0,2.676,1.727,4.863,4.664,4.863c1.813,0,3.887-0.66,6.075-2.413c0.375,1.522,1.324,2.413,2.62,2.413
		c1.525,0,2.422-1.579,2.422-2.039c0-0.202-0.173-0.288-0.345-0.288c-0.202,0-0.288,0.087-0.375,0.287
		c-0.517,1.401-1.553,1.401-1.61,1.401c-0.891,0-0.891-2.243-0.891-2.934c0-0.604,0-0.662,0.288-1.006
		c2.702-3.395,3.306-6.731,3.306-6.76c0-0.058-0.029-0.287-0.345-0.287c-0.288,0-0.288,0.086-0.432,0.603
		c-0.517,1.812-1.465,3.998-2.817,5.695L57.439,144.694z"/>
	<path clip-path="url(#SVGID_2_)" d="M66.646,156.774c-0.342,1.387-1.409,2.553-2.596,2.553c-0.262,0-0.504-0.026-0.725-0.08
		c0.516-0.24,0.675-0.72,0.675-1.02c0-0.48-0.38-0.74-0.78-0.74c-0.62,0-1.14,0.531-1.14,1.161c0,0.747,0.784,1.239,1.989,1.239
		c1.206,0,3.558-0.723,4.181-3.175l1.809-7.191c0.06-0.221,0.102-0.401,0.102-0.703c0-1.105-0.946-1.891-2.152-1.891
		c-2.231,0-3.519,2.812-3.519,3.095c0,0.264,0.282,0.264,0.343,0.264c0.241,0,0.262-0.062,0.403-0.365
		c0.504-1.176,1.551-2.432,2.72-2.432c0.503,0,0.686,0.342,0.686,0.984c0,0.222-0.041,0.503-0.062,0.604 M70.897,143.278
		c0-0.337-0.262-0.752-0.803-0.752c-0.583,0-1.125,0.555-1.125,1.089c0,0.316,0.241,0.752,0.803,0.752
		C70.314,144.367,70.897,143.852,70.897,143.278z"/>
</g>
<line fill="none" stroke="#000000" stroke-width="1.8889" stroke-linecap="round" stroke-linejoin="round" x1="209.838" y1="27.887" x2="209.838" y2="263.447"/>
<path fill="none" stroke="#000000" stroke-linecap="round" stroke-linejoin="round" d="M385.256,129.162
	c-2.81,4.855-4.418,10.492-4.418,16.504c0,6.012,1.607,11.647,4.416,16.502"/>
<circle cx="209.838" cy="27.887" r="3.795"/>
<circle cx="209.838" cy="263.447" r="3.795"/>
<g>
	<defs>
		<rect id="SVGID_3_" x="350.1" y="131.367" width="24.801" height="29.6"/>
	</defs>
	<clipPath id="SVGID_4_">
		<use xlink:href="#SVGID_3_"  overflow="visible"/>
	</clipPath>
	<path clip-path="url(#SVGID_4_)" d="M362.609,139.767c-0.803-0.321-1.721-0.321-1.979-0.321c-0.689,0-2.238,0-2.238,0.927
		c0,0.753,1.263,0.753,1.95,0.753c0.401,0,1.234,0,2.151-0.355c0.632,0.659,0.861,1.488,0.861,2.403
		c0,1.144-0.574,3.833-1.406,5.406c-0.659,1.201-2.123,2.945-4.188,2.945c-2.553,0-4.016-1.891-4.016-4.182
		c0-0.687,0.114-1.117,0.372-2.149c0.259-1.06,1.147-4.64,1.32-5.298c1.348-5.299,4.762-7.651,7.314-7.651
		c0.86,0,2.066,0.432,2.066,2.327C364.819,135.262,364.474,138.362,362.609,139.767 M359.111,140.315
		c0.287-0.143,0.488-0.228,1.463-0.228c0.431,0,0.774,0,1.148,0.171c-0.518,0.229-1.148,0.229-1.377,0.229
		C359.628,140.487,359.6,140.487,359.111,140.315z M350.503,156.728c-0.028,0.115-0.086,0.287-0.086,0.432
		c0,0.286,0.287,0.286,0.345,0.286c0.144,0,0.201-0.027,0.287-0.114c0.143-0.144,0.949-3.831,2.184-8.499
		c0.432,1.652,1.926,3.332,4.599,3.332c3.794,0,7.646-3.841,7.646-7.912c0-2.036-0.92-3.297-1.926-3.986
		c1.983-1.204,3.108-3.24,3.108-4.989c0-1.864-1.325-3.672-3.855-3.672c-3.735,0-6.983,3.939-7.933,7.705L350.503,156.728z"/>
	<path clip-path="url(#SVGID_4_)" d="M370.506,157.133c-0.342,1.388-1.408,2.554-2.596,2.554c-0.262,0-0.504-0.026-0.726-0.081
		c0.517-0.239,0.676-0.719,0.676-1.02c0-0.48-0.38-0.74-0.78-0.74c-0.62,0-1.141,0.531-1.141,1.161c0,0.748,0.785,1.24,1.99,1.24
		s3.558-0.724,4.181-3.175l1.809-7.192c0.06-0.22,0.103-0.401,0.103-0.703c0-1.104-0.946-1.89-2.152-1.89
		c-2.231,0-3.519,2.811-3.519,3.095c0,0.263,0.282,0.263,0.343,0.263c0.241,0,0.261-0.062,0.402-0.364
		c0.504-1.176,1.552-2.433,2.72-2.433c0.504,0,0.686,0.343,0.686,0.985c0,0.222-0.041,0.503-0.062,0.604 M374.757,143.638
		c0-0.337-0.262-0.752-0.803-0.752c-0.583,0-1.125,0.555-1.125,1.089c0,0.317,0.24,0.752,0.803,0.752
		C374.174,144.727,374.757,144.212,374.757,143.638z"/>
</g>
<g>
	<defs>
		<rect id="SVGID_5_" x="202.7" y="5.966" width="21.6" height="18.4"/>
	</defs>
	<clipPath id="SVGID_6_">
		<use xlink:href="#SVGID_5_"  overflow="visible"/>
	</clipPath>
	<path clip-path="url(#SVGID_6_)" d="M216.061,8.704c0-1.553-0.761-2.017-1.287-2.017c-0.731,0-1.434,0.749-1.434,1.383
		c0,0.373,0.147,0.547,0.472,0.863c0.62,0.575,1.004,1.323,1.004,2.358c0,1.208-1.751,7.794-5.11,7.794
		c-1.464,0-2.124-1.006-2.124-2.502c0-1.611,0.771-3.711,1.656-6.098c0.2-0.488,0.344-0.891,0.344-1.438
		c0-1.295-0.917-2.361-2.349-2.361c-2.691,0-3.778,4.193-3.778,4.454c0,0.289,0.283,0.289,0.34,0.289
		c0.283,0,0.312-0.058,0.453-0.52c0.822-2.917,2.042-3.583,2.864-3.583c0.227,0,0.708,0,0.708,0.923
		c0,0.719-0.282,1.495-0.477,2.013c-1.237,3.336-1.602,4.659-1.602,5.896c0,3.106,2.521,3.566,3.84,3.566
		C214.419,19.725,216.062,10.2,216.061,8.704"/>
	<path clip-path="url(#SVGID_6_)" d="M218.96,21.397c-0.08,0.263-0.181,0.505-0.181,0.849c0,0.952,0.802,1.72,1.903,1.72
		c2.003,0,2.887-2.803,2.887-3.107c0-0.265-0.263-0.265-0.323-0.265c-0.282,0-0.303,0.123-0.383,0.347
		c-0.464,1.63-1.352,2.465-2.139,2.465c-0.402,0-0.504-0.263-0.504-0.708c0-0.466,0.142-0.85,0.323-1.295
		c0.201-0.546,0.424-1.093,0.646-1.618c0.182-0.486,0.909-2.327,0.989-2.57c0.061-0.202,0.122-0.444,0.122-0.647
		c0-0.95-0.804-1.722-1.907-1.722c-1.986,0-2.91,2.751-2.91,3.095c0,0.263,0.283,0.263,0.344,0.263c0.283,0,0.303-0.102,0.364-0.324
		c0.524-1.743,1.415-2.473,2.163-2.473c0.322,0,0.506,0.164,0.506,0.71c0,0.465-0.125,0.769-0.64,2.022 M223.047,11.198
		c0-0.317-0.241-0.752-0.803-0.752c-0.543,0-1.125,0.515-1.125,1.089c0,0.336,0.261,0.752,0.804,0.752
		C222.505,12.287,223.047,11.732,223.047,11.198z"/>
</g>
<g>
	<defs>
		<rect id="SVGID_7_" x="203.434" y="271.367" width="22.4" height="21.6"/>
	</defs>
	<clipPath id="SVGID_8_">
		<use xlink:href="#SVGID_7_"  overflow="visible"/>
	</clipPath>
	<path clip-path="url(#SVGID_8_)" d="M216.314,273.784c0-1.553-0.76-2.018-1.287-2.018c-0.73,0-1.434,0.75-1.434,1.383
		c0,0.375,0.147,0.547,0.473,0.863c0.619,0.576,1.003,1.324,1.003,2.359c0,1.207-1.751,7.794-5.109,7.794
		c-1.464,0-2.124-1.006-2.124-2.502c0-1.611,0.771-3.711,1.656-6.098c0.2-0.489,0.343-0.892,0.343-1.438
		c0-1.295-0.917-2.361-2.349-2.361c-2.691,0-3.778,4.194-3.778,4.455c0,0.288,0.283,0.288,0.34,0.288
		c0.283,0,0.312-0.057,0.454-0.52c0.823-2.918,2.042-3.583,2.864-3.583c0.227,0,0.708,0,0.708,0.922
		c0,0.719-0.281,1.496-0.478,2.014c-1.237,3.336-1.602,4.659-1.602,5.896c0,3.105,2.521,3.566,3.84,3.566
		c4.837,0,6.481-9.524,6.481-11.021"/>
	<path clip-path="url(#SVGID_8_)" d="M221.361,289.774c-0.343,1.387-1.41,2.553-2.598,2.553c-0.262,0-0.503-0.026-0.725-0.08
		c0.516-0.24,0.675-0.72,0.675-1.02c0-0.48-0.38-0.74-0.78-0.74c-0.619,0-1.139,0.531-1.139,1.161c0,0.747,0.783,1.239,1.989,1.239
		s3.558-0.723,4.181-3.175l1.809-7.191c0.061-0.221,0.102-0.401,0.102-0.703c0-1.105-0.945-1.891-2.152-1.891
		c-2.23,0-3.518,2.812-3.518,3.095c0,0.264,0.282,0.264,0.342,0.264c0.242,0,0.262-0.062,0.402-0.365
		c0.506-1.176,1.553-2.432,2.721-2.432c0.504,0,0.686,0.342,0.686,0.984c0,0.222-0.041,0.503-0.062,0.604 M225.611,276.278
		c0-0.337-0.262-0.752-0.804-0.752c-0.582,0-1.125,0.555-1.125,1.089c0,0.316,0.241,0.752,0.804,0.752
		C225.029,277.367,225.611,276.852,225.611,276.278z"/>
</g>
<g>
	<defs>
		<rect id="SVGID_9_" x="228" y="150.466" width="24" height="22.4"/>
	</defs>
	<clipPath id="SVGID_10_">
		<use xlink:href="#SVGID_9_"  overflow="visible"/>
	</clipPath>
	<path clip-path="url(#SVGID_10_)" d="M231.217,164.946c1.119-4.368,4.074-4.798,4.82-4.798c1.349,0,2.123,0.833,2.123,1.81
		c0,2.988-4.591,2.988-5.768,2.988 M232.549,165.585c0.836,0,2.968-0.055,4.408-0.64c2.019-0.868,2.163-2.575,2.163-2.98
		c0-1.272-1.097-2.459-3.087-2.459c-3.2,0-7.555,2.795-7.555,7.83c0,2.936,1.699,5.209,4.521,5.209c4.117,0,6.538-3.043,6.538-3.388
		c0-0.173-0.174-0.374-0.347-0.374c-0.145,0-0.202,0.058-0.374,0.287c-2.272,2.835-5.408,2.835-5.754,2.835
		c-2.244,0-2.504-2.413-2.504-3.331c0-0.345,0.029-1.235,0.461-2.988L232.549,165.585z"/>
	<path clip-path="url(#SVGID_10_)" d="M251.081,154.635c0.362-0.16,0.362-0.279,0.362-0.361c0-0.18-0.181-0.261-0.281-0.261
		s-3.434,0.643-3.977,0.762l-0.461-3.707c-0.04-0.28-0.081-0.522-0.322-0.522c-0.201,0-0.281,0.182-0.321,0.502l-0.442,3.728
		l-3.695-0.721c-0.241-0.041-0.281-0.041-0.301-0.041c-0.102,0-0.281,0.081-0.281,0.261c0,0.081,0.039,0.141,0.1,0.221
		c0.08,0.061,3.253,1.523,3.696,1.724l-1.828,3.326c-0.141,0.241-0.141,0.281-0.141,0.321c0,0.14,0.12,0.28,0.262,0.28
		c0.181,0,0.602-0.481,1.385-1.365c0.502-0.562,1.044-1.105,1.566-1.648c0.984,1.005,2.41,2.592,2.651,2.812
		c0.161,0.161,0.181,0.2,0.302,0.2c0.141,0,0.261-0.14,0.261-0.28c0-0.079-0.24-0.521-0.381-0.781
		c-0.342-0.642-1.226-2.204-1.588-2.846"/>
</g>
<g>
	<defs>
		<rect id="SVGID_11_" x="216.338" y="58.807" width="12" height="13.6"/>
	</defs>
	<clipPath id="SVGID_12_">
		<use xlink:href="#SVGID_11_"  overflow="visible"/>
	</clipPath>
	<path clip-path="url(#SVGID_12_)" d="M219.555,64.646c1.119-4.368,4.074-4.798,4.82-4.798c1.35,0,2.123,0.833,2.123,1.811
		c0,2.988-4.59,2.988-5.768,2.988 M220.887,65.286c0.836,0,2.969-0.055,4.41-0.64c2.016-0.868,2.162-2.575,2.162-2.979
		c0-1.273-1.098-2.459-3.088-2.459c-3.199,0-7.555,2.794-7.555,7.83c0,2.935,1.699,5.208,4.521,5.208
		c4.115,0,6.537-3.043,6.537-3.387c0-0.173-0.174-0.375-0.346-0.375c-0.145,0-0.201,0.059-0.373,0.287
		c-2.273,2.835-5.41,2.835-5.756,2.835c-2.244,0-2.504-2.413-2.504-3.331c0-0.345,0.029-1.235,0.461-2.988L220.887,65.286z"/>
</g>
<g>
	<line fill="none" stroke="#231F20" stroke-width="2.1179" x1="204.181" y1="198.417" x2="215.5" y2="198.417"/>
	<line fill="none" stroke="#231F20" stroke-width="2.1179" x1="204.181" y1="203.167" x2="215.5" y2="203.167"/>
</g>
<g>
	<line fill="none" stroke="#231F20" stroke-width="2.1179" x1="204.181" y1="89.792" x2="215.5" y2="89.792"/>
	<line fill="none" stroke="#231F20" stroke-width="2.1179" x1="204.181" y1="94.542" x2="215.5" y2="94.542"/>
</g>
</svg>
