<?xml version="1.0" encoding="utf-8"?>
<!-- Generator: Adobe Illustrator 14.0.0, SVG Export Plug-In . SVG Version: 6.00 Build 43363)  -->
<!DOCTYPE svg PUBLIC "-//W3C//DTD SVG 1.1//EN" "http://www.w3.org/Graphics/SVG/1.1/DTD/svg11.dtd">
<svg version="1.1" id="Layer_1" xmlns="http://www.w3.org/2000/svg" xmlns:xlink="http://www.w3.org/1999/xlink" x="0px" y="0px"
	 width="497.975px" height="281.986px" viewBox="0 0 497.975 281.986" enable-background="new 0 0 497.975 281.986"
	 xml:space="preserve">
<g>
	<g>
		<g>
			<path fill="none" stroke="#231F20" d="M165.756,26.902c0,0-8,43-31,81s-36,91-36,91"/>
			<path fill="none" stroke="#231F20" d="M182.756,26.902c0,0-8,43-31,81s-36,91-36,91"/>
			<path fill="none" stroke="#231F20" d="M204.756,40.902c0,0,4,42-21,92s-38,97-38,97"/>
			<path fill="none" stroke="#231F20" d="M216.756,52.902c0,0,4,42-21,92s-38,97-38,97"/>
			<path fill="none" stroke="#231F20" d="M232.09,52.235c0,0,4,42-21,92c-25,50-38,97-38,97"/>
			<path fill="none" stroke="#231F20" d="M188.756,42.902c0,0,11,23-12,67s-46,110-46,110"/>
			<path fill="none" stroke="#231F20" d="M147.756,21.902c0,0-4,38-27,81s-36,87-36,87"/>
			<path fill="none" stroke="#231F20" d="M131.756,21.902c0,0-4,38-27,81s-36,87-36,87"/>
			<path fill="none" stroke="#231F20" d="M120.423,14.568c0,0-4,38-27,81s-36,87-36,87"/>
		</g>
		<g>
			<g>
				<g>
					<g>
						<g>
							<polygon fill="#3F3B3C" points="99.293,190.867 99.314,196.79 102.257,191.65 							"/>
						</g>
					</g>
					<g>
						<g>
							<polygon fill="#3F3B3C" points="101.789,182.61 101.638,188.531 104.729,183.479 							"/>
						</g>
					</g>
					<g>
						<g>
							<polygon fill="#3F3B3C" points="104.298,174.372 104.022,180.287 107.219,175.302 							"/>
						</g>
					</g>
					<g>
						<g>
							<polygon fill="#3F3B3C" points="107.144,166.242 106.742,172.15 110.044,167.234 							"/>
						</g>
					</g>
					<g>
						<g>
							<polygon fill="#3F3B3C" points="109.922,158.123 109.52,164.031 112.822,159.115 							"/>
						</g>
					</g>
					<g>
						<g>
							<polygon fill="#3F3B3C" points="113.083,150.049 112.324,155.922 115.917,151.215 							"/>
						</g>
					</g>
					<g>
						<g>
							<polygon fill="#3F3B3C" points="116.346,142.114 115.588,147.987 119.181,143.28 							"/>
						</g>
					</g>
					<g>
						<g>
							<polygon fill="#3F3B3C" points="119.61,134.179 118.852,140.052 122.445,135.344 							"/>
						</g>
					</g>
					<g>
						<g>
							<polygon fill="#3F3B3C" points="123.393,126.331 122.101,132.11 126.109,127.75 							"/>
						</g>
					</g>
					<g>
						<g>
							<polygon fill="#3F3B3C" points="127.368,118.726 126.076,124.505 130.084,120.146 							"/>
						</g>
					</g>
					<g>
						<g>
							<polygon fill="#3F3B3C" points="131.343,111.122 130.052,116.901 134.06,112.542 							"/>
						</g>
					</g>
					<g>
						<g>
							<polygon fill="#3F3B3C" points="135.322,103.519 134.026,109.297 138.038,104.941 							"/>
						</g>
					</g>
					<g>
						<g>
							<polygon fill="#3F3B3C" points="139.304,95.917 138.007,101.696 142.019,97.34 							"/>
						</g>
					</g>
					<g>
						<g>
							<polygon fill="#3F3B3C" points="143.285,88.317 141.988,94.095 146,89.739 							"/>
						</g>
					</g>
					<g>
						<g>
							<polygon fill="#3F3B3C" points="146.844,80.691 146.136,86.571 149.688,81.833 							"/>
						</g>
					</g>
					<g>
						<g>
							<polygon fill="#3F3B3C" points="150.039,72.728 149.332,78.607 152.884,73.869 							"/>
						</g>
					</g>
					<g>
						<g>
							<polygon fill="#3F3B3C" points="153.234,64.765 152.527,70.644 156.079,65.906 							"/>
						</g>
					</g>
					<g>
						<g>
							<polygon fill="#3F3B3C" points="155.967,56.757 155.7,62.673 158.889,57.683 							"/>
						</g>
					</g>
					<g>
						<g>
							<polygon fill="#3F3B3C" points="158.559,48.577 158.292,54.493 161.481,49.503 							"/>
						</g>
					</g>
					<g>
						<g>
							<polygon fill="#3F3B3C" points="160.922,40.422 160.989,46.344 163.892,41.182 							"/>
						</g>
					</g>
					<g>
						<g>
							<polygon fill="#3F3B3C" points="163.048,32.109 163.115,38.031 166.018,32.869 							"/>
						</g>
					</g>
					<g>
						<g>
							<polygon fill="#3F3B3C" points="164.852,23.785 165.161,29.699 167.851,24.423 							"/>
						</g>
					</g>
				</g>
			</g>
			<g>
				<g>
					<g>
						<g>
							<polygon fill="#3F3B3C" points="116.293,190.867 116.314,196.79 119.257,191.65 							"/>
						</g>
					</g>
					<g>
						<g>
							<polygon fill="#3F3B3C" points="118.789,182.61 118.638,188.531 121.729,183.479 							"/>
						</g>
					</g>
					<g>
						<g>
							<polygon fill="#3F3B3C" points="121.298,174.372 121.022,180.287 124.219,175.302 							"/>
						</g>
					</g>
					<g>
						<g>
							<polygon fill="#3F3B3C" points="124.144,166.242 123.742,172.15 127.044,167.234 							"/>
						</g>
					</g>
					<g>
						<g>
							<polygon fill="#3F3B3C" points="126.922,158.123 126.52,164.031 129.822,159.115 							"/>
						</g>
					</g>
					<g>
						<g>
							<polygon fill="#3F3B3C" points="130.083,150.049 129.324,155.922 132.917,151.215 							"/>
						</g>
					</g>
					<g>
						<g>
							<polygon fill="#3F3B3C" points="133.346,142.114 132.588,147.987 136.181,143.28 							"/>
						</g>
					</g>
					<g>
						<g>
							<polygon fill="#3F3B3C" points="136.61,134.179 135.852,140.052 139.445,135.344 							"/>
						</g>
					</g>
					<g>
						<g>
							<polygon fill="#3F3B3C" points="140.393,126.331 139.101,132.11 143.109,127.75 							"/>
						</g>
					</g>
					<g>
						<g>
							<polygon fill="#3F3B3C" points="144.368,118.726 143.076,124.505 147.084,120.146 							"/>
						</g>
					</g>
					<g>
						<g>
							<polygon fill="#3F3B3C" points="148.343,111.122 147.052,116.901 151.06,112.542 							"/>
						</g>
					</g>
					<g>
						<g>
							<polygon fill="#3F3B3C" points="152.322,103.519 151.026,109.297 155.038,104.941 							"/>
						</g>
					</g>
					<g>
						<g>
							<polygon fill="#3F3B3C" points="156.304,95.917 155.007,101.696 159.019,97.34 							"/>
						</g>
					</g>
					<g>
						<g>
							<polygon fill="#3F3B3C" points="160.285,88.317 158.988,94.095 163,89.739 							"/>
						</g>
					</g>
					<g>
						<g>
							<polygon fill="#3F3B3C" points="163.844,80.691 163.136,86.571 166.688,81.833 							"/>
						</g>
					</g>
					<g>
						<g>
							<polygon fill="#3F3B3C" points="167.039,72.728 166.332,78.607 169.884,73.869 							"/>
						</g>
					</g>
					<g>
						<g>
							<polygon fill="#3F3B3C" points="170.234,64.765 169.527,70.644 173.079,65.906 							"/>
						</g>
					</g>
					<g>
						<g>
							<polygon fill="#3F3B3C" points="172.967,56.757 172.7,62.673 175.889,57.683 							"/>
						</g>
					</g>
					<g>
						<g>
							<polygon fill="#3F3B3C" points="175.559,48.577 175.292,54.493 178.481,49.503 							"/>
						</g>
					</g>
					<g>
						<g>
							<polygon fill="#3F3B3C" points="177.922,40.422 177.989,46.344 180.892,41.182 							"/>
						</g>
					</g>
					<g>
						<g>
							<polygon fill="#3F3B3C" points="180.048,32.109 180.115,38.031 183.018,32.869 							"/>
						</g>
					</g>
					<g>
						<g>
							<polygon fill="#3F3B3C" points="181.852,23.785 182.161,29.699 184.851,24.423 							"/>
						</g>
					</g>
				</g>
			</g>
			<g>
				<g>
					<g>
						<g>
							<polygon fill="#3F3B3C" points="145.726,224.564 145.585,230.485 148.667,225.427 							"/>
						</g>
					</g>
					<g>
						<g>
							<polygon fill="#3F3B3C" points="148.341,216.354 148.058,222.269 151.261,217.288 							"/>
						</g>
					</g>
					<g>
						<g>
							<polygon fill="#3F3B3C" points="150.955,208.181 150.672,214.096 153.875,209.115 							"/>
						</g>
					</g>
					<g>
						<g>
							<polygon fill="#3F3B3C" points="153.894,200.066 153.421,205.969 156.782,201.093 							"/>
						</g>
					</g>
					<g>
						<g>
							<polygon fill="#3F3B3C" points="156.768,191.982 156.295,197.884 159.656,193.008 							"/>
						</g>
					</g>
					<g>
						<g>
							<polygon fill="#3F3B3C" points="159.833,183.904 159.124,189.783 162.678,185.045 							"/>
						</g>
					</g>
					<g>
						<g>
							<polygon fill="#3F3B3C" points="163.031,175.941 162.321,181.82 165.875,177.083 							"/>
						</g>
					</g>
					<g>
						<g>
							<polygon fill="#3F3B3C" points="166.228,167.978 165.519,173.858 169.073,169.121 							"/>
						</g>
					</g>
					<g>
						<g>
							<polygon fill="#3F3B3C" points="169.426,160.016 168.716,165.896 172.27,161.158 							"/>
						</g>
					</g>
					<g>
						<g>
							<polygon fill="#3F3B3C" points="173.142,152.192 172.131,158.027 175.924,153.479 							"/>
						</g>
					</g>
					<g>
						<g>
							<polygon fill="#3F3B3C" points="176.745,144.404 175.734,150.24 179.527,145.691 							"/>
						</g>
					</g>
					<g>
						<g>
							<polygon fill="#3F3B3C" points="180.349,136.617 179.337,142.452 183.13,137.904 							"/>
						</g>
					</g>
					<g>
						<g>
							<polygon fill="#3F3B3C" points="183.77,128.825 183.02,134.7 186.606,129.987 							"/>
						</g>
					</g>
					<g>
						<g>
							<polygon fill="#3F3B3C" points="187.022,120.885 186.272,126.759 189.859,122.047 							"/>
						</g>
					</g>
					<g>
						<g>
							<polygon fill="#3F3B3C" points="190.275,112.945 189.525,118.819 193.111,114.107 							"/>
						</g>
					</g>
					<g>
						<g>
							<polygon fill="#3F3B3C" points="193.527,105.005 192.777,110.879 196.364,106.167 							"/>
						</g>
					</g>
					<g>
						<g>
							<polygon fill="#3F3B3C" points="195.782,96.96 195.858,102.882 198.752,97.715 							"/>
						</g>
					</g>
					<g>
						<g>
							<polygon fill="#3F3B3C" points="197.895,88.645 197.972,94.566 200.866,89.399 							"/>
						</g>
					</g>
					<g>
						<g>
							<polygon fill="#3F3B3C" points="200.008,80.329 200.085,86.25 202.979,81.083 							"/>
						</g>
					</g>
					<g>
						<g>
							<polygon fill="#3F3B3C" points="201.301,72.041 202.08,77.911 204.34,72.438 							"/>
						</g>
					</g>
					<g>
						<g>
							<polygon fill="#3F3B3C" points="202.412,63.532 203.191,69.403 205.451,63.929 							"/>
						</g>
					</g>
					<g>
						<g>
							<polygon fill="#3F3B3C" points="203.146,55.146 204.502,60.911 206.21,55.24 							"/>
						</g>
					</g>
					<g>
						<g>
							<polygon fill="#3F3B3C" points="203.411,46.569 204.767,52.334 206.475,46.664 							"/>
						</g>
					</g>
					<g>
						<g>
							<polygon fill="#3F3B3C" points="203.096,38.114 204.886,43.759 206.158,37.975 							"/>
						</g>
					</g>
				</g>
			</g>
			<g>
				<g>
					<g>
						<g>
							<polygon fill="#3F3B3C" points="157.726,236.564 157.585,242.485 160.667,237.427 							"/>
						</g>
					</g>
					<g>
						<g>
							<polygon fill="#3F3B3C" points="160.341,228.354 160.058,234.269 163.261,229.288 							"/>
						</g>
					</g>
					<g>
						<g>
							<polygon fill="#3F3B3C" points="162.955,220.181 162.672,226.096 165.875,221.115 							"/>
						</g>
					</g>
					<g>
						<g>
							<polygon fill="#3F3B3C" points="165.894,212.066 165.421,217.969 168.782,213.093 							"/>
						</g>
					</g>
					<g>
						<g>
							<polygon fill="#3F3B3C" points="168.768,203.982 168.295,209.884 171.656,205.008 							"/>
						</g>
					</g>
					<g>
						<g>
							<polygon fill="#3F3B3C" points="171.833,195.904 171.124,201.783 174.678,197.045 							"/>
						</g>
					</g>
					<g>
						<g>
							<polygon fill="#3F3B3C" points="175.031,187.941 174.321,193.82 177.875,189.083 							"/>
						</g>
					</g>
					<g>
						<g>
							<polygon fill="#3F3B3C" points="178.228,179.978 177.519,185.858 181.073,181.121 							"/>
						</g>
					</g>
					<g>
						<g>
							<polygon fill="#3F3B3C" points="181.426,172.016 180.716,177.896 184.27,173.158 							"/>
						</g>
					</g>
					<g>
						<g>
							<polygon fill="#3F3B3C" points="185.142,164.192 184.131,170.027 187.924,165.479 							"/>
						</g>
					</g>
					<g>
						<g>
							<polygon fill="#3F3B3C" points="188.745,156.404 187.734,162.24 191.527,157.691 							"/>
						</g>
					</g>
					<g>
						<g>
							<polygon fill="#3F3B3C" points="192.349,148.617 191.337,154.452 195.13,149.904 							"/>
						</g>
					</g>
					<g>
						<g>
							<polygon fill="#3F3B3C" points="195.77,140.825 195.02,146.7 198.606,141.987 							"/>
						</g>
					</g>
					<g>
						<g>
							<polygon fill="#3F3B3C" points="199.022,132.885 198.272,138.759 201.859,134.047 							"/>
						</g>
					</g>
					<g>
						<g>
							<polygon fill="#3F3B3C" points="202.275,124.945 201.525,130.819 205.111,126.107 							"/>
						</g>
					</g>
					<g>
						<g>
							<polygon fill="#3F3B3C" points="205.527,117.005 204.777,122.879 208.364,118.167 							"/>
						</g>
					</g>
					<g>
						<g>
							<polygon fill="#3F3B3C" points="207.782,108.96 207.858,114.882 210.752,109.715 							"/>
						</g>
					</g>
					<g>
						<g>
							<polygon fill="#3F3B3C" points="209.895,100.645 209.972,106.566 212.866,101.399 							"/>
						</g>
					</g>
					<g>
						<g>
							<polygon fill="#3F3B3C" points="212.008,92.329 212.085,98.25 214.979,93.083 							"/>
						</g>
					</g>
					<g>
						<g>
							<polygon fill="#3F3B3C" points="213.301,84.041 214.08,89.911 216.34,84.438 							"/>
						</g>
					</g>
					<g>
						<g>
							<polygon fill="#3F3B3C" points="214.412,75.532 215.191,81.403 217.451,75.929 							"/>
						</g>
					</g>
					<g>
						<g>
							<polygon fill="#3F3B3C" points="215.146,67.146 216.502,72.911 218.21,67.24 							"/>
						</g>
					</g>
					<g>
						<g>
							<polygon fill="#3F3B3C" points="215.411,58.569 216.767,64.334 218.475,58.664 							"/>
						</g>
					</g>
					<g>
						<g>
							<polygon fill="#3F3B3C" points="215.096,50.114 216.886,55.759 218.158,49.975 							"/>
						</g>
					</g>
				</g>
			</g>
			<g>
				<g>
					<g>
						<g>
							<polygon fill="#3F3B3C" points="173.059,235.898 172.919,241.819 176,236.761 							"/>
						</g>
					</g>
					<g>
						<g>
							<polygon fill="#3F3B3C" points="175.675,227.687 175.392,233.603 178.594,228.622 							"/>
						</g>
					</g>
					<g>
						<g>
							<polygon fill="#3F3B3C" points="178.289,219.515 178.006,225.43 181.208,220.449 							"/>
						</g>
					</g>
					<g>
						<g>
							<polygon fill="#3F3B3C" points="181.227,211.4 180.755,217.303 184.115,212.426 							"/>
						</g>
					</g>
					<g>
						<g>
							<polygon fill="#3F3B3C" points="184.101,203.315 183.629,209.218 186.99,204.341 							"/>
						</g>
					</g>
					<g>
						<g>
							<polygon fill="#3F3B3C" points="187.167,195.237 186.458,201.116 190.011,196.379 							"/>
						</g>
					</g>
					<g>
						<g>
							<polygon fill="#3F3B3C" points="190.364,187.275 189.655,193.154 193.209,188.417 							"/>
						</g>
					</g>
					<g>
						<g>
							<polygon fill="#3F3B3C" points="193.562,179.312 192.853,185.191 196.406,180.455 							"/>
						</g>
					</g>
					<g>
						<g>
							<polygon fill="#3F3B3C" points="196.759,171.349 196.05,177.229 199.604,172.492 							"/>
						</g>
					</g>
					<g>
						<g>
							<polygon fill="#3F3B3C" points="200.476,163.525 199.464,169.36 203.257,164.812 							"/>
						</g>
					</g>
					<g>
						<g>
							<polygon fill="#3F3B3C" points="204.079,155.738 203.067,161.573 206.861,157.025 							"/>
						</g>
					</g>
					<g>
						<g>
							<polygon fill="#3F3B3C" points="207.682,147.951 206.671,153.786 210.464,149.238 							"/>
						</g>
					</g>
					<g>
						<g>
							<polygon fill="#3F3B3C" points="211.104,140.159 210.354,146.033 213.94,141.32 							"/>
						</g>
					</g>
					<g>
						<g>
							<polygon fill="#3F3B3C" points="214.356,132.218 213.606,138.093 217.192,133.38 							"/>
						</g>
					</g>
					<g>
						<g>
							<polygon fill="#3F3B3C" points="217.608,124.278 216.858,130.153 220.445,125.44 							"/>
						</g>
					</g>
					<g>
						<g>
							<polygon fill="#3F3B3C" points="220.861,116.338 220.111,122.212 223.697,117.5 							"/>
						</g>
					</g>
					<g>
						<g>
							<polygon fill="#3F3B3C" points="223.115,108.294 223.192,114.216 226.086,109.049 							"/>
						</g>
					</g>
					<g>
						<g>
							<polygon fill="#3F3B3C" points="225.229,99.978 225.305,105.899 228.2,100.733 							"/>
						</g>
					</g>
					<g>
						<g>
							<polygon fill="#3F3B3C" points="227.342,91.662 227.418,97.583 230.313,92.417 							"/>
						</g>
					</g>
					<g>
						<g>
							<polygon fill="#3F3B3C" points="228.634,83.374 229.414,89.245 231.674,83.771 							"/>
						</g>
					</g>
					<g>
						<g>
							<polygon fill="#3F3B3C" points="229.746,74.866 230.524,80.736 232.785,75.263 							"/>
						</g>
					</g>
					<g>
						<g>
							<polygon fill="#3F3B3C" points="230.48,66.479 231.835,72.244 233.543,66.574 							"/>
						</g>
					</g>
					<g>
						<g>
							<polygon fill="#3F3B3C" points="230.745,57.903 232.1,63.667 233.809,57.998 							"/>
						</g>
					</g>
					<g>
						<g>
							<polygon fill="#3F3B3C" points="230.429,49.447 232.219,55.092 233.491,49.309 							"/>
						</g>
					</g>
				</g>
			</g>
			<g>
				<g>
					<g>
						<g>
							<polygon fill="#3F3B3C" points="130.356,216.452 129.884,222.355 133.245,217.478 							"/>
						</g>
					</g>
					<g>
						<g>
							<polygon fill="#3F3B3C" points="133.294,208.374 132.764,214.272 136.172,209.429 							"/>
						</g>
					</g>
					<g>
						<g>
							<polygon fill="#3F3B3C" points="136.248,200.318 135.718,206.216 139.126,201.373 							"/>
						</g>
					</g>
					<g>
						<g>
							<polygon fill="#3F3B3C" points="139.326,192.286 138.713,198.175 142.189,193.38 							"/>
						</g>
					</g>
					<g>
						<g>
							<polygon fill="#3F3B3C" points="142.392,184.271 141.78,190.162 145.255,185.367 							"/>
						</g>
					</g>
					<g>
						<g>
							<polygon fill="#3F3B3C" points="145.556,176.265 144.832,182.142 148.398,177.415 							"/>
						</g>
					</g>
					<g>
						<g>
							<polygon fill="#3F3B3C" points="148.774,168.31 148.049,174.188 151.616,169.46 							"/>
						</g>
					</g>
					<g>
						<g>
							<polygon fill="#3F3B3C" points="151.992,160.356 151.268,166.234 154.833,161.505 							"/>
						</g>
					</g>
					<g>
						<g>
							<polygon fill="#3F3B3C" points="155.36,152.42 154.478,158.276 158.17,153.646 							"/>
						</g>
					</g>
					<g>
						<g>
							<polygon fill="#3F3B3C" points="158.792,144.556 157.909,150.412 161.601,145.781 							"/>
						</g>
					</g>
					<g>
						<g>
							<polygon fill="#3F3B3C" points="162.223,136.691 161.34,142.547 165.033,137.917 							"/>
						</g>
					</g>
					<g>
						<g>
							<polygon fill="#3F3B3C" points="165.84,128.843 164.716,134.657 168.596,130.183 							"/>
						</g>
					</g>
					<g>
						<g>
							<polygon fill="#3F3B3C" points="169.593,121.126 168.469,126.941 172.349,122.467 							"/>
						</g>
					</g>
					<g>
						<g>
							<polygon fill="#3F3B3C" points="173.346,113.41 172.222,119.225 176.102,114.751 							"/>
						</g>
					</g>
					<g>
						<g>
							<polygon fill="#3F3B3C" points="176.79,105.68 176.095,111.562 179.637,106.816 							"/>
						</g>
					</g>
					<g>
						<g>
							<polygon fill="#3F3B3C" points="179.969,97.71 179.273,103.591 182.816,98.846 							"/>
						</g>
					</g>
					<g>
						<g>
							<polygon fill="#3F3B3C" points="183.147,89.74 182.452,95.622 185.994,90.876 							"/>
						</g>
					</g>
					<g>
						<g>
							<polygon fill="#3F3B3C" points="186.326,81.77 185.63,87.651 189.173,82.906 							"/>
						</g>
					</g>
					<g>
						<g>
							<polygon fill="#3F3B3C" points="187.824,73.722 188.519,79.604 190.858,74.163 							"/>
						</g>
					</g>
					<g>
						<g>
							<polygon fill="#3F3B3C" points="189.058,65.231 189.752,71.112 192.091,65.671 							"/>
						</g>
					</g>
					<g>
						<g>
							<polygon fill="#3F3B3C" points="189.903,56.896 191.306,62.649 192.967,56.965 							"/>
						</g>
					</g>
					<g>
						<g>
							<polygon fill="#3F3B3C" points="188.712,48.557 190.804,54.098 191.762,48.253 							"/>
						</g>
					</g>
					<g>
						<g>
							<polygon fill="#3F3B3C" points="186.43,40.64 189.622,45.628 189.351,39.712 							"/>
						</g>
					</g>
				</g>
			</g>
			<g>
				<g>
					<g>
						<g>
							<polygon fill="#3F3B3C" points="86.811,178.674 86.427,184.583 89.714,179.658 							"/>
						</g>
					</g>
					<g>
						<g>
							<polygon fill="#3F3B3C" points="89.563,170.547 89.18,176.457 92.467,171.531 							"/>
						</g>
					</g>
					<g>
						<g>
							<polygon fill="#3F3B3C" points="92.617,162.475 92.041,168.369 95.486,163.552 							"/>
						</g>
					</g>
					<g>
						<g>
							<polygon fill="#3F3B3C" points="95.632,154.442 95.057,160.335 98.502,155.519 							"/>
						</g>
					</g>
					<g>
						<g>
							<polygon fill="#3F3B3C" points="98.888,146.435 98.064,152.299 101.71,147.633 							"/>
						</g>
					</g>
					<g>
						<g>
							<polygon fill="#3F3B3C" points="102.24,138.537 101.416,144.401 105.062,139.734 							"/>
						</g>
					</g>
					<g>
						<g>
							<polygon fill="#3F3B3C" points="105.592,130.638 104.768,136.502 108.414,131.835 							"/>
						</g>
					</g>
					<g>
						<g>
							<polygon fill="#3F3B3C" points="109.262,122.791 108.112,128.6 112.013,124.144 							"/>
						</g>
					</g>
					<g>
						<g>
							<polygon fill="#3F3B3C" points="113.05,115.092 111.9,120.901 115.801,116.445 							"/>
						</g>
					</g>
					<g>
						<g>
							<polygon fill="#3F3B3C" points="116.838,107.393 115.688,113.202 119.589,108.746 							"/>
						</g>
					</g>
					<g>
						<g>
							<polygon fill="#3F3B3C" points="120.626,99.694 119.477,105.503 123.377,101.047 							"/>
						</g>
					</g>
					<g>
						<g>
							<polygon fill="#3F3B3C" points="124.057,91.881 123.097,97.725 126.85,93.144 							"/>
						</g>
					</g>
					<g>
						<g>
							<polygon fill="#3F3B3C" points="127.591,84.062 126.631,89.906 130.384,85.325 							"/>
						</g>
					</g>
					<g>
						<g>
							<polygon fill="#3F3B3C" points="131.125,76.244 130.166,82.087 133.918,77.506 							"/>
						</g>
					</g>
					<g>
						<g>
							<polygon fill="#3F3B3C" points="134.23,68.452 133.959,74.368 137.152,69.38 							"/>
						</g>
					</g>
					<g>
						<g>
							<polygon fill="#3F3B3C" points="136.828,60.274 136.557,66.19 139.749,61.202 							"/>
						</g>
					</g>
					<g>
						<g>
							<polygon fill="#3F3B3C" points="139.425,52.096 139.154,58.012 142.346,53.024 							"/>
						</g>
					</g>
					<g>
						<g>
							<polygon fill="#3F3B3C" points="142.022,43.918 141.751,49.834 144.944,44.846 							"/>
						</g>
					</g>
					<g>
						<g>
							<polygon fill="#3F3B3C" points="143.645,35.625 143.918,41.542 146.639,36.281 							"/>
						</g>
					</g>
					<g>
						<g>
							<polygon fill="#3F3B3C" points="145.48,27.244 145.754,33.16 148.475,27.899 							"/>
						</g>
					</g>
					<g>
						<g>
							<polygon fill="#3F3B3C" points="146.662,18.847 147.335,24.731 149.694,19.299 							"/>
						</g>
					</g>
				</g>
			</g>
			<g>
				<g>
					<g>
						<g>
							<polygon fill="#3F3B3C" points="70.811,178.674 70.427,184.583 73.714,179.658 							"/>
						</g>
					</g>
					<g>
						<g>
							<polygon fill="#3F3B3C" points="73.563,170.547 73.18,176.457 76.467,171.531 							"/>
						</g>
					</g>
					<g>
						<g>
							<polygon fill="#3F3B3C" points="76.617,162.475 76.041,168.369 79.486,163.552 							"/>
						</g>
					</g>
					<g>
						<g>
							<polygon fill="#3F3B3C" points="79.632,154.442 79.057,160.335 82.502,155.519 							"/>
						</g>
					</g>
					<g>
						<g>
							<polygon fill="#3F3B3C" points="82.888,146.435 82.064,152.299 85.71,147.633 							"/>
						</g>
					</g>
					<g>
						<g>
							<polygon fill="#3F3B3C" points="86.24,138.537 85.416,144.401 89.062,139.734 							"/>
						</g>
					</g>
					<g>
						<g>
							<polygon fill="#3F3B3C" points="89.592,130.638 88.768,136.502 92.414,131.835 							"/>
						</g>
					</g>
					<g>
						<g>
							<polygon fill="#3F3B3C" points="93.262,122.791 92.112,128.6 96.013,124.144 							"/>
						</g>
					</g>
					<g>
						<g>
							<polygon fill="#3F3B3C" points="97.05,115.092 95.9,120.901 99.801,116.445 							"/>
						</g>
					</g>
					<g>
						<g>
							<polygon fill="#3F3B3C" points="100.838,107.393 99.688,113.202 103.589,108.746 							"/>
						</g>
					</g>
					<g>
						<g>
							<polygon fill="#3F3B3C" points="104.626,99.694 103.477,105.503 107.377,101.047 							"/>
						</g>
					</g>
					<g>
						<g>
							<polygon fill="#3F3B3C" points="108.057,91.881 107.097,97.725 110.85,93.144 							"/>
						</g>
					</g>
					<g>
						<g>
							<polygon fill="#3F3B3C" points="111.591,84.062 110.631,89.906 114.384,85.325 							"/>
						</g>
					</g>
					<g>
						<g>
							<polygon fill="#3F3B3C" points="115.125,76.244 114.166,82.087 117.918,77.506 							"/>
						</g>
					</g>
					<g>
						<g>
							<polygon fill="#3F3B3C" points="118.23,68.452 117.959,74.368 121.152,69.38 							"/>
						</g>
					</g>
					<g>
						<g>
							<polygon fill="#3F3B3C" points="120.828,60.274 120.557,66.19 123.749,61.202 							"/>
						</g>
					</g>
					<g>
						<g>
							<polygon fill="#3F3B3C" points="123.425,52.096 123.154,58.012 126.346,53.024 							"/>
						</g>
					</g>
					<g>
						<g>
							<polygon fill="#3F3B3C" points="126.022,43.918 125.751,49.834 128.944,44.846 							"/>
						</g>
					</g>
					<g>
						<g>
							<polygon fill="#3F3B3C" points="127.645,35.625 127.918,41.542 130.639,36.281 							"/>
						</g>
					</g>
					<g>
						<g>
							<polygon fill="#3F3B3C" points="129.48,27.244 129.754,33.16 132.475,27.899 							"/>
						</g>
					</g>
					<g>
						<g>
							<polygon fill="#3F3B3C" points="130.662,18.847 131.335,24.731 133.694,19.299 							"/>
						</g>
					</g>
				</g>
			</g>
			<g>
				<g>
					<g>
						<g>
							<polygon fill="#3F3B3C" points="59.477,171.341 59.093,177.25 62.38,172.324 							"/>
						</g>
					</g>
					<g>
						<g>
							<polygon fill="#3F3B3C" points="62.23,163.214 61.846,169.124 65.133,164.197 							"/>
						</g>
					</g>
					<g>
						<g>
							<polygon fill="#3F3B3C" points="65.283,155.141 64.707,161.036 68.153,156.219 							"/>
						</g>
					</g>
					<g>
						<g>
							<polygon fill="#3F3B3C" points="68.299,147.108 67.723,153.002 71.168,148.186 							"/>
						</g>
					</g>
					<g>
						<g>
							<polygon fill="#3F3B3C" points="71.555,139.102 70.731,144.966 74.376,140.299 							"/>
						</g>
					</g>
					<g>
						<g>
							<polygon fill="#3F3B3C" points="74.907,131.203 74.083,137.067 77.728,132.4 							"/>
						</g>
					</g>
					<g>
						<g>
							<polygon fill="#3F3B3C" points="78.258,123.304 77.435,129.169 81.08,124.502 							"/>
						</g>
					</g>
					<g>
						<g>
							<polygon fill="#3F3B3C" points="81.929,115.458 80.779,121.267 84.679,116.811 							"/>
						</g>
					</g>
					<g>
						<g>
							<polygon fill="#3F3B3C" points="85.717,107.758 84.567,113.568 88.467,109.112 							"/>
						</g>
					</g>
					<g>
						<g>
							<polygon fill="#3F3B3C" points="89.505,100.059 88.355,105.869 92.255,101.413 							"/>
						</g>
					</g>
					<g>
						<g>
							<polygon fill="#3F3B3C" points="93.293,92.36 92.143,98.169 96.043,93.713 							"/>
						</g>
					</g>
					<g>
						<g>
							<polygon fill="#3F3B3C" points="96.723,84.547 95.763,90.391 99.516,85.81 							"/>
						</g>
					</g>
					<g>
						<g>
							<polygon fill="#3F3B3C" points="100.257,76.729 99.297,82.573 103.05,77.991 							"/>
						</g>
					</g>
					<g>
						<g>
							<polygon fill="#3F3B3C" points="103.792,68.91 102.832,74.754 106.585,70.172 							"/>
						</g>
					</g>
					<g>
						<g>
							<polygon fill="#3F3B3C" points="106.897,61.119 106.626,67.035 109.818,62.046 							"/>
						</g>
					</g>
					<g>
						<g>
							<polygon fill="#3F3B3C" points="109.494,52.941 109.223,58.857 112.416,53.869 							"/>
						</g>
					</g>
					<g>
						<g>
							<polygon fill="#3F3B3C" points="112.091,44.763 111.821,50.679 115.013,45.691 							"/>
						</g>
					</g>
					<g>
						<g>
							<polygon fill="#3F3B3C" points="114.689,36.585 114.418,42.501 117.61,37.513 							"/>
						</g>
					</g>
					<g>
						<g>
							<polygon fill="#3F3B3C" points="116.312,28.292 116.584,34.208 119.306,28.948 							"/>
						</g>
					</g>
					<g>
						<g>
							<polygon fill="#3F3B3C" points="118.147,19.91 118.42,25.826 121.141,20.566 							"/>
						</g>
					</g>
					<g>
						<g>
							<polygon fill="#3F3B3C" points="119.329,11.514 120.001,17.397 122.36,11.965 							"/>
						</g>
					</g>
				</g>
			</g>
		</g>
	</g>
	
		<line opacity="0.4" fill="none" stroke="#1B1F8A" stroke-width="8" enable-background="new    " x1="177.756" y1="51.902" x2="117.756" y2="203.902"/>
</g>
<g>
	<g>
		<g>
			<path fill="none" stroke="#231F20" d="M414.936,26.902c0,0-8,43-31,81s-36,91-36,91"/>
			<path fill="none" stroke="#231F20" d="M431.936,26.902c0,0-8,43-31,81s-36,91-36,91"/>
			<path fill="none" stroke="#231F20" d="M453.936,40.902c0,0,4,42-21,92s-38,97-38,97"/>
			<path fill="none" stroke="#231F20" d="M465.936,52.902c0,0,4,42-21,92s-38,97-38,97"/>
			<path fill="none" stroke="#231F20" d="M481.27,52.235c0,0,4,42-21,92c-25,50-38,97-38,97"/>
			<path fill="none" stroke="#231F20" d="M437.936,42.902c0,0,11,23-12,67s-46,110-46,110"/>
			<path fill="none" stroke="#231F20" d="M396.936,21.902c0,0-4,38-27,81s-36,87-36,87"/>
			<path fill="none" stroke="#231F20" d="M380.936,21.902c0,0-4,38-27,81s-36,87-36,87"/>
			<path fill="none" stroke="#231F20" d="M369.602,14.568c0,0-4,38-27,81s-36,87-36,87"/>
		</g>
		<g>
			<g>
				<g>
					<g>
						<g>
							<polygon fill="#3F3B3C" points="348.473,190.867 348.494,196.79 351.436,191.65 							"/>
						</g>
					</g>
					<g>
						<g>
							<polygon fill="#3F3B3C" points="350.969,182.61 350.818,188.531 353.909,183.479 							"/>
						</g>
					</g>
					<g>
						<g>
							<polygon fill="#3F3B3C" points="353.478,174.372 353.202,180.288 356.399,175.302 							"/>
						</g>
					</g>
					<g>
						<g>
							<polygon fill="#3F3B3C" points="356.324,166.242 355.922,172.15 359.224,167.234 							"/>
						</g>
					</g>
					<g>
						<g>
							<polygon fill="#3F3B3C" points="359.101,158.123 358.7,164.031 362.001,159.115 							"/>
						</g>
					</g>
					<g>
						<g>
							<polygon fill="#3F3B3C" points="362.262,150.049 361.503,155.922 365.097,151.215 							"/>
						</g>
					</g>
					<g>
						<g>
							<polygon fill="#3F3B3C" points="365.526,142.114 364.767,147.987 368.361,143.28 							"/>
						</g>
					</g>
					<g>
						<g>
							<polygon fill="#3F3B3C" points="368.79,134.178 368.031,140.052 371.625,135.344 							"/>
						</g>
					</g>
					<g>
						<g>
							<polygon fill="#3F3B3C" points="372.573,126.331 371.281,132.11 375.29,127.75 							"/>
						</g>
					</g>
					<g>
						<g>
							<polygon fill="#3F3B3C" points="376.548,118.726 375.256,124.505 379.264,120.146 							"/>
						</g>
					</g>
					<g>
						<g>
							<polygon fill="#3F3B3C" points="380.523,111.122 379.231,116.901 383.24,112.542 							"/>
						</g>
					</g>
					<g>
						<g>
							<polygon fill="#3F3B3C" points="384.502,103.518 383.206,109.296 387.217,104.941 							"/>
						</g>
					</g>
					<g>
						<g>
							<polygon fill="#3F3B3C" points="388.483,95.917 387.187,101.696 391.199,97.34 							"/>
						</g>
					</g>
					<g>
						<g>
							<polygon fill="#3F3B3C" points="392.465,88.317 391.168,94.095 395.18,89.739 							"/>
						</g>
					</g>
					<g>
						<g>
							<polygon fill="#3F3B3C" points="396.024,80.691 395.316,86.571 398.869,81.833 							"/>
						</g>
					</g>
					<g>
						<g>
							<polygon fill="#3F3B3C" points="399.219,72.728 398.511,78.607 402.064,73.869 							"/>
						</g>
					</g>
					<g>
						<g>
							<polygon fill="#3F3B3C" points="402.415,64.765 401.707,70.644 405.259,65.906 							"/>
						</g>
					</g>
					<g>
						<g>
							<polygon fill="#3F3B3C" points="405.147,56.757 404.879,62.673 408.069,57.683 							"/>
						</g>
					</g>
					<g>
						<g>
							<polygon fill="#3F3B3C" points="407.739,48.578 407.471,54.493 410.661,49.503 							"/>
						</g>
					</g>
					<g>
						<g>
							<polygon fill="#3F3B3C" points="410.101,40.422 410.168,46.344 413.071,41.182 							"/>
						</g>
					</g>
					<g>
						<g>
							<polygon fill="#3F3B3C" points="412.228,32.109 412.295,38.031 415.198,32.869 							"/>
						</g>
					</g>
					<g>
						<g>
							<polygon fill="#3F3B3C" points="414.032,23.786 414.341,29.7 417.03,24.423 							"/>
						</g>
					</g>
				</g>
			</g>
			<g>
				<g>
					<g>
						<g>
							<polygon fill="#3F3B3C" points="365.473,190.867 365.494,196.79 368.436,191.65 							"/>
						</g>
					</g>
					<g>
						<g>
							<polygon fill="#3F3B3C" points="367.969,182.61 367.818,188.531 370.909,183.479 							"/>
						</g>
					</g>
					<g>
						<g>
							<polygon fill="#3F3B3C" points="370.478,174.372 370.202,180.288 373.399,175.302 							"/>
						</g>
					</g>
					<g>
						<g>
							<polygon fill="#3F3B3C" points="373.324,166.242 372.922,172.15 376.224,167.234 							"/>
						</g>
					</g>
					<g>
						<g>
							<polygon fill="#3F3B3C" points="376.101,158.123 375.7,164.031 379.001,159.115 							"/>
						</g>
					</g>
					<g>
						<g>
							<polygon fill="#3F3B3C" points="379.262,150.049 378.503,155.922 382.097,151.215 							"/>
						</g>
					</g>
					<g>
						<g>
							<polygon fill="#3F3B3C" points="382.526,142.114 381.767,147.987 385.361,143.28 							"/>
						</g>
					</g>
					<g>
						<g>
							<polygon fill="#3F3B3C" points="385.79,134.178 385.031,140.052 388.625,135.344 							"/>
						</g>
					</g>
					<g>
						<g>
							<polygon fill="#3F3B3C" points="389.573,126.331 388.281,132.11 392.29,127.75 							"/>
						</g>
					</g>
					<g>
						<g>
							<polygon fill="#3F3B3C" points="393.548,118.726 392.256,124.505 396.264,120.146 							"/>
						</g>
					</g>
					<g>
						<g>
							<polygon fill="#3F3B3C" points="397.523,111.122 396.231,116.901 400.24,112.542 							"/>
						</g>
					</g>
					<g>
						<g>
							<polygon fill="#3F3B3C" points="401.502,103.518 400.206,109.296 404.217,104.941 							"/>
						</g>
					</g>
					<g>
						<g>
							<polygon fill="#3F3B3C" points="405.483,95.917 404.187,101.696 408.199,97.34 							"/>
						</g>
					</g>
					<g>
						<g>
							<polygon fill="#3F3B3C" points="409.465,88.317 408.168,94.095 412.18,89.739 							"/>
						</g>
					</g>
					<g>
						<g>
							<polygon fill="#3F3B3C" points="413.024,80.691 412.316,86.571 415.869,81.833 							"/>
						</g>
					</g>
					<g>
						<g>
							<polygon fill="#3F3B3C" points="416.219,72.728 415.511,78.607 419.064,73.869 							"/>
						</g>
					</g>
					<g>
						<g>
							<polygon fill="#3F3B3C" points="419.415,64.765 418.707,70.644 422.259,65.906 							"/>
						</g>
					</g>
					<g>
						<g>
							<polygon fill="#3F3B3C" points="422.147,56.757 421.879,62.673 425.069,57.683 							"/>
						</g>
					</g>
					<g>
						<g>
							<polygon fill="#3F3B3C" points="424.739,48.578 424.471,54.493 427.661,49.503 							"/>
						</g>
					</g>
					<g>
						<g>
							<polygon fill="#3F3B3C" points="427.101,40.422 427.168,46.344 430.071,41.182 							"/>
						</g>
					</g>
					<g>
						<g>
							<polygon fill="#3F3B3C" points="429.228,32.109 429.295,38.031 432.198,32.869 							"/>
						</g>
					</g>
					<g>
						<g>
							<polygon fill="#3F3B3C" points="431.032,23.786 431.341,29.7 434.03,24.423 							"/>
						</g>
					</g>
				</g>
			</g>
			<g>
				<g>
					<g>
						<g>
							<polygon fill="#3F3B3C" points="394.905,224.564 394.765,230.485 397.846,225.427 							"/>
						</g>
					</g>
					<g>
						<g>
							<polygon fill="#3F3B3C" points="397.521,216.354 397.238,222.269 400.44,217.288 							"/>
						</g>
					</g>
					<g>
						<g>
							<polygon fill="#3F3B3C" points="400.135,208.181 399.852,214.096 403.054,209.115 							"/>
						</g>
					</g>
					<g>
						<g>
							<polygon fill="#3F3B3C" points="403.073,200.066 402.601,205.969 405.961,201.093 							"/>
						</g>
					</g>
					<g>
						<g>
							<polygon fill="#3F3B3C" points="405.948,191.982 405.475,197.884 408.835,193.008 							"/>
						</g>
					</g>
					<g>
						<g>
							<polygon fill="#3F3B3C" points="409.013,183.903 408.303,189.783 411.857,185.045 							"/>
						</g>
					</g>
					<g>
						<g>
							<polygon fill="#3F3B3C" points="412.21,175.941 411.5,181.82 415.055,177.083 							"/>
						</g>
					</g>
					<g>
						<g>
							<polygon fill="#3F3B3C" points="415.408,167.978 414.699,173.858 418.252,169.121 							"/>
						</g>
					</g>
					<g>
						<g>
							<polygon fill="#3F3B3C" points="418.605,160.016 417.896,165.895 421.45,161.158 							"/>
						</g>
					</g>
					<g>
						<g>
							<polygon fill="#3F3B3C" points="422.322,152.192 421.31,158.027 425.104,153.479 							"/>
						</g>
					</g>
					<g>
						<g>
							<polygon fill="#3F3B3C" points="425.925,144.404 424.914,150.24 428.707,145.691 							"/>
						</g>
					</g>
					<g>
						<g>
							<polygon fill="#3F3B3C" points="429.528,136.617 428.517,142.452 432.31,137.904 							"/>
						</g>
					</g>
					<g>
						<g>
							<polygon fill="#3F3B3C" points="432.95,128.825 432.2,134.7 435.787,129.987 							"/>
						</g>
					</g>
					<g>
						<g>
							<polygon fill="#3F3B3C" points="436.202,120.885 435.452,126.759 439.039,122.047 							"/>
						</g>
					</g>
					<g>
						<g>
							<polygon fill="#3F3B3C" points="439.455,112.945 438.705,118.819 442.292,114.106 							"/>
						</g>
					</g>
					<g>
						<g>
							<polygon fill="#3F3B3C" points="442.708,105.004 441.957,110.879 445.543,106.167 							"/>
						</g>
					</g>
					<g>
						<g>
							<polygon fill="#3F3B3C" points="444.961,96.96 445.039,102.882 447.932,97.715 							"/>
						</g>
					</g>
					<g>
						<g>
							<polygon fill="#3F3B3C" points="447.075,88.645 447.152,94.566 450.045,89.399 							"/>
						</g>
					</g>
					<g>
						<g>
							<polygon fill="#3F3B3C" points="449.188,80.329 449.265,86.25 452.159,81.083 							"/>
						</g>
					</g>
					<g>
						<g>
							<polygon fill="#3F3B3C" points="450.481,72.041 451.259,77.911 453.52,72.438 							"/>
						</g>
					</g>
					<g>
						<g>
							<polygon fill="#3F3B3C" points="451.591,63.532 452.371,69.403 454.631,63.929 							"/>
						</g>
					</g>
					<g>
						<g>
							<polygon fill="#3F3B3C" points="452.327,55.146 453.681,60.911 455.39,55.24 							"/>
						</g>
					</g>
					<g>
						<g>
							<polygon fill="#3F3B3C" points="452.59,46.569 453.946,52.334 455.655,46.664 							"/>
						</g>
					</g>
					<g>
						<g>
							<polygon fill="#3F3B3C" points="452.276,38.114 454.065,43.759 455.337,37.975 							"/>
						</g>
					</g>
				</g>
			</g>
			<g>
				<g>
					<g>
						<g>
							<polygon fill="#3F3B3C" points="406.905,236.564 406.765,242.485 409.846,237.427 							"/>
						</g>
					</g>
					<g>
						<g>
							<polygon fill="#3F3B3C" points="409.521,228.354 409.238,234.269 412.44,229.288 							"/>
						</g>
					</g>
					<g>
						<g>
							<polygon fill="#3F3B3C" points="412.135,220.181 411.852,226.096 415.054,221.115 							"/>
						</g>
					</g>
					<g>
						<g>
							<polygon fill="#3F3B3C" points="415.073,212.066 414.601,217.969 417.961,213.093 							"/>
						</g>
					</g>
					<g>
						<g>
							<polygon fill="#3F3B3C" points="417.948,203.982 417.475,209.884 420.835,205.008 							"/>
						</g>
					</g>
					<g>
						<g>
							<polygon fill="#3F3B3C" points="421.013,195.903 420.303,201.783 423.857,197.045 							"/>
						</g>
					</g>
					<g>
						<g>
							<polygon fill="#3F3B3C" points="424.21,187.941 423.5,193.82 427.055,189.083 							"/>
						</g>
					</g>
					<g>
						<g>
							<polygon fill="#3F3B3C" points="427.408,179.978 426.699,185.858 430.252,181.121 							"/>
						</g>
					</g>
					<g>
						<g>
							<polygon fill="#3F3B3C" points="430.605,172.016 429.896,177.895 433.45,173.158 							"/>
						</g>
					</g>
					<g>
						<g>
							<polygon fill="#3F3B3C" points="434.322,164.192 433.31,170.027 437.104,165.479 							"/>
						</g>
					</g>
					<g>
						<g>
							<polygon fill="#3F3B3C" points="437.925,156.404 436.914,162.24 440.707,157.691 							"/>
						</g>
					</g>
					<g>
						<g>
							<polygon fill="#3F3B3C" points="441.528,148.617 440.517,154.452 444.31,149.904 							"/>
						</g>
					</g>
					<g>
						<g>
							<polygon fill="#3F3B3C" points="444.95,140.825 444.2,146.7 447.787,141.987 							"/>
						</g>
					</g>
					<g>
						<g>
							<polygon fill="#3F3B3C" points="448.202,132.885 447.452,138.759 451.039,134.047 							"/>
						</g>
					</g>
					<g>
						<g>
							<polygon fill="#3F3B3C" points="451.455,124.945 450.705,130.819 454.292,126.106 							"/>
						</g>
					</g>
					<g>
						<g>
							<polygon fill="#3F3B3C" points="454.708,117.004 453.957,122.879 457.543,118.167 							"/>
						</g>
					</g>
					<g>
						<g>
							<polygon fill="#3F3B3C" points="456.961,108.96 457.039,114.882 459.932,109.715 							"/>
						</g>
					</g>
					<g>
						<g>
							<polygon fill="#3F3B3C" points="459.075,100.645 459.152,106.566 462.045,101.399 							"/>
						</g>
					</g>
					<g>
						<g>
							<polygon fill="#3F3B3C" points="461.188,92.329 461.265,98.25 464.159,93.083 							"/>
						</g>
					</g>
					<g>
						<g>
							<polygon fill="#3F3B3C" points="462.481,84.041 463.259,89.911 465.52,84.438 							"/>
						</g>
					</g>
					<g>
						<g>
							<polygon fill="#3F3B3C" points="463.591,75.533 464.371,81.403 466.631,75.929 							"/>
						</g>
					</g>
					<g>
						<g>
							<polygon fill="#3F3B3C" points="464.327,67.146 465.681,72.911 467.39,67.24 							"/>
						</g>
					</g>
					<g>
						<g>
							<polygon fill="#3F3B3C" points="464.59,58.569 465.946,64.334 467.655,58.664 							"/>
						</g>
					</g>
					<g>
						<g>
							<polygon fill="#3F3B3C" points="464.276,50.114 466.065,55.759 467.337,49.975 							"/>
						</g>
					</g>
				</g>
			</g>
			<g>
				<g>
					<g>
						<g>
							<polygon fill="#3F3B3C" points="422.239,235.898 422.099,241.819 425.18,236.761 							"/>
						</g>
					</g>
					<g>
						<g>
							<polygon fill="#3F3B3C" points="424.855,227.687 424.572,233.603 427.775,228.622 							"/>
						</g>
					</g>
					<g>
						<g>
							<polygon fill="#3F3B3C" points="427.469,219.515 427.186,225.43 430.389,220.449 							"/>
						</g>
					</g>
					<g>
						<g>
							<polygon fill="#3F3B3C" points="430.407,211.4 429.935,217.303 433.295,212.426 							"/>
						</g>
					</g>
					<g>
						<g>
							<polygon fill="#3F3B3C" points="433.282,203.315 432.809,209.218 436.169,204.341 							"/>
						</g>
					</g>
					<g>
						<g>
							<polygon fill="#3F3B3C" points="436.347,195.237 435.637,201.117 439.192,196.379 							"/>
						</g>
					</g>
					<g>
						<g>
							<polygon fill="#3F3B3C" points="439.544,187.275 438.835,193.154 442.389,188.417 							"/>
						</g>
					</g>
					<g>
						<g>
							<polygon fill="#3F3B3C" points="442.742,179.312 442.033,185.191 445.586,180.455 							"/>
						</g>
					</g>
					<g>
						<g>
							<polygon fill="#3F3B3C" points="445.94,171.349 445.23,177.229 448.784,172.492 							"/>
						</g>
					</g>
					<g>
						<g>
							<polygon fill="#3F3B3C" points="449.656,163.525 448.644,169.36 452.438,164.812 							"/>
						</g>
					</g>
					<g>
						<g>
							<polygon fill="#3F3B3C" points="453.259,155.738 452.248,161.573 456.041,157.025 							"/>
						</g>
					</g>
					<g>
						<g>
							<polygon fill="#3F3B3C" points="456.862,147.951 455.851,153.786 459.644,149.238 							"/>
						</g>
					</g>
					<g>
						<g>
							<polygon fill="#3F3B3C" points="460.284,140.159 459.534,146.033 463.121,141.32 							"/>
						</g>
					</g>
					<g>
						<g>
							<polygon fill="#3F3B3C" points="463.537,132.218 462.786,138.093 466.373,133.38 							"/>
						</g>
					</g>
					<g>
						<g>
							<polygon fill="#3F3B3C" points="466.789,124.278 466.039,130.153 469.625,125.44 							"/>
						</g>
					</g>
					<g>
						<g>
							<polygon fill="#3F3B3C" points="470.042,116.338 469.291,122.212 472.877,117.5 							"/>
						</g>
					</g>
					<g>
						<g>
							<polygon fill="#3F3B3C" points="472.295,108.294 472.373,114.216 475.266,109.049 							"/>
						</g>
					</g>
					<g>
						<g>
							<polygon fill="#3F3B3C" points="474.409,99.978 474.486,105.899 477.379,100.733 							"/>
						</g>
					</g>
					<g>
						<g>
							<polygon fill="#3F3B3C" points="476.522,91.662 476.599,97.583 479.493,92.417 							"/>
						</g>
					</g>
					<g>
						<g>
							<polygon fill="#3F3B3C" points="477.815,83.374 478.593,89.245 480.854,83.771 							"/>
						</g>
					</g>
					<g>
						<g>
							<polygon fill="#3F3B3C" points="478.925,74.866 479.705,80.737 481.965,75.263 							"/>
						</g>
					</g>
					<g>
						<g>
							<polygon fill="#3F3B3C" points="479.661,66.479 481.015,72.244 482.724,66.574 							"/>
						</g>
					</g>
					<g>
						<g>
							<polygon fill="#3F3B3C" points="479.924,57.903 481.28,63.667 482.989,57.998 							"/>
						</g>
					</g>
					<g>
						<g>
							<polygon fill="#3F3B3C" points="479.61,49.447 481.399,55.092 482.671,49.309 							"/>
						</g>
					</g>
				</g>
			</g>
			<g>
				<g>
					<g>
						<g>
							<polygon fill="#3F3B3C" points="379.536,216.452 379.064,222.355 382.424,217.478 							"/>
						</g>
					</g>
					<g>
						<g>
							<polygon fill="#3F3B3C" points="382.474,208.374 381.943,214.272 385.352,209.429 							"/>
						</g>
					</g>
					<g>
						<g>
							<polygon fill="#3F3B3C" points="385.428,200.318 384.897,206.216 388.305,201.373 							"/>
						</g>
					</g>
					<g>
						<g>
							<polygon fill="#3F3B3C" points="388.506,192.286 387.893,198.175 391.369,193.38 							"/>
						</g>
					</g>
					<g>
						<g>
							<polygon fill="#3F3B3C" points="391.572,184.271 390.959,190.162 394.435,185.367 							"/>
						</g>
					</g>
					<g>
						<g>
							<polygon fill="#3F3B3C" points="394.736,176.264 394.011,182.142 397.578,177.415 							"/>
						</g>
					</g>
					<g>
						<g>
							<polygon fill="#3F3B3C" points="397.954,168.31 397.229,174.188 400.795,169.46 							"/>
						</g>
					</g>
					<g>
						<g>
							<polygon fill="#3F3B3C" points="401.171,160.356 400.447,166.234 404.013,161.505 							"/>
						</g>
					</g>
					<g>
						<g>
							<polygon fill="#3F3B3C" points="404.54,152.42 403.657,158.276 407.349,153.646 							"/>
						</g>
					</g>
					<g>
						<g>
							<polygon fill="#3F3B3C" points="407.971,144.556 407.088,150.412 410.781,145.781 							"/>
						</g>
					</g>
					<g>
						<g>
							<polygon fill="#3F3B3C" points="411.403,136.691 410.52,142.547 414.212,137.917 							"/>
						</g>
					</g>
					<g>
						<g>
							<polygon fill="#3F3B3C" points="415.02,128.843 413.896,134.658 417.776,130.184 							"/>
						</g>
					</g>
					<g>
						<g>
							<polygon fill="#3F3B3C" points="418.772,121.126 417.649,126.941 421.529,122.467 							"/>
						</g>
					</g>
					<g>
						<g>
							<polygon fill="#3F3B3C" points="422.526,113.41 421.402,119.225 425.282,114.751 							"/>
						</g>
					</g>
					<g>
						<g>
							<polygon fill="#3F3B3C" points="425.969,105.68 425.274,111.562 428.817,106.816 							"/>
						</g>
					</g>
					<g>
						<g>
							<polygon fill="#3F3B3C" points="429.148,97.71 428.453,103.591 431.996,98.846 							"/>
						</g>
					</g>
					<g>
						<g>
							<polygon fill="#3F3B3C" points="432.327,89.74 431.631,95.622 435.174,90.876 							"/>
						</g>
					</g>
					<g>
						<g>
							<polygon fill="#3F3B3C" points="435.505,81.77 434.81,87.651 438.352,82.906 							"/>
						</g>
					</g>
					<g>
						<g>
							<polygon fill="#3F3B3C" points="437.004,73.722 437.698,79.604 440.038,74.163 							"/>
						</g>
					</g>
					<g>
						<g>
							<polygon fill="#3F3B3C" points="438.238,65.231 438.932,71.112 441.271,65.671 							"/>
						</g>
					</g>
					<g>
						<g>
							<polygon fill="#3F3B3C" points="439.083,56.896 440.485,62.649 442.147,56.965 							"/>
						</g>
					</g>
					<g>
						<g>
							<polygon fill="#3F3B3C" points="437.892,48.557 439.983,54.098 440.942,48.253 							"/>
						</g>
					</g>
					<g>
						<g>
							<polygon fill="#3F3B3C" points="435.61,40.64 438.801,45.628 438.532,39.712 							"/>
						</g>
					</g>
				</g>
			</g>
			<g>
				<g>
					<g>
						<g>
							<polygon fill="#3F3B3C" points="335.991,178.674 335.607,184.584 338.893,179.658 							"/>
						</g>
					</g>
					<g>
						<g>
							<polygon fill="#3F3B3C" points="338.743,170.547 338.36,176.458 341.646,171.531 							"/>
						</g>
					</g>
					<g>
						<g>
							<polygon fill="#3F3B3C" points="341.796,162.475 341.22,168.369 344.666,163.552 							"/>
						</g>
					</g>
					<g>
						<g>
							<polygon fill="#3F3B3C" points="344.812,154.442 344.237,160.336 347.682,155.519 							"/>
						</g>
					</g>
					<g>
						<g>
							<polygon fill="#3F3B3C" points="348.068,146.435 347.244,152.299 350.889,147.633 							"/>
						</g>
					</g>
					<g>
						<g>
							<polygon fill="#3F3B3C" points="351.42,138.537 350.596,144.401 354.242,139.734 							"/>
						</g>
					</g>
					<g>
						<g>
							<polygon fill="#3F3B3C" points="354.772,130.638 353.948,136.502 357.593,131.835 							"/>
						</g>
					</g>
					<g>
						<g>
							<polygon fill="#3F3B3C" points="358.442,122.791 357.292,128.6 361.193,124.144 							"/>
						</g>
					</g>
					<g>
						<g>
							<polygon fill="#3F3B3C" points="362.23,115.092 361.081,120.901 364.981,116.445 							"/>
						</g>
					</g>
					<g>
						<g>
							<polygon fill="#3F3B3C" points="366.018,107.393 364.868,113.202 368.769,108.746 							"/>
						</g>
					</g>
					<g>
						<g>
							<polygon fill="#3F3B3C" points="369.806,99.694 368.657,105.503 372.557,101.047 							"/>
						</g>
					</g>
					<g>
						<g>
							<polygon fill="#3F3B3C" points="373.236,91.881 372.276,97.725 376.029,93.144 							"/>
						</g>
					</g>
					<g>
						<g>
							<polygon fill="#3F3B3C" points="376.771,84.062 375.811,89.906 379.564,85.325 							"/>
						</g>
					</g>
					<g>
						<g>
							<polygon fill="#3F3B3C" points="380.305,76.244 379.345,82.087 383.098,77.506 							"/>
						</g>
					</g>
					<g>
						<g>
							<polygon fill="#3F3B3C" points="383.41,68.452 383.139,74.368 386.332,69.38 							"/>
						</g>
					</g>
					<g>
						<g>
							<polygon fill="#3F3B3C" points="386.007,60.274 385.737,66.19 388.929,61.202 							"/>
						</g>
					</g>
					<g>
						<g>
							<polygon fill="#3F3B3C" points="388.605,52.096 388.333,58.012 391.526,53.024 							"/>
						</g>
					</g>
					<g>
						<g>
							<polygon fill="#3F3B3C" points="391.202,43.918 390.931,49.834 394.124,44.846 							"/>
						</g>
					</g>
					<g>
						<g>
							<polygon fill="#3F3B3C" points="392.825,35.625 393.098,41.542 395.819,36.281 							"/>
						</g>
					</g>
					<g>
						<g>
							<polygon fill="#3F3B3C" points="394.661,27.244 394.933,33.16 397.655,27.899 							"/>
						</g>
					</g>
					<g>
						<g>
							<polygon fill="#3F3B3C" points="395.841,18.847 396.515,24.731 398.874,19.298 							"/>
						</g>
					</g>
				</g>
			</g>
			<g>
				<g>
					<g>
						<g>
							<polygon fill="#3F3B3C" points="319.991,178.674 319.607,184.584 322.893,179.658 							"/>
						</g>
					</g>
					<g>
						<g>
							<polygon fill="#3F3B3C" points="322.743,170.547 322.36,176.458 325.646,171.531 							"/>
						</g>
					</g>
					<g>
						<g>
							<polygon fill="#3F3B3C" points="325.796,162.475 325.22,168.369 328.666,163.552 							"/>
						</g>
					</g>
					<g>
						<g>
							<polygon fill="#3F3B3C" points="328.812,154.442 328.237,160.336 331.682,155.519 							"/>
						</g>
					</g>
					<g>
						<g>
							<polygon fill="#3F3B3C" points="332.068,146.435 331.244,152.299 334.889,147.633 							"/>
						</g>
					</g>
					<g>
						<g>
							<polygon fill="#3F3B3C" points="335.42,138.537 334.596,144.401 338.242,139.734 							"/>
						</g>
					</g>
					<g>
						<g>
							<polygon fill="#3F3B3C" points="338.772,130.638 337.948,136.502 341.593,131.835 							"/>
						</g>
					</g>
					<g>
						<g>
							<polygon fill="#3F3B3C" points="342.442,122.791 341.292,128.6 345.193,124.144 							"/>
						</g>
					</g>
					<g>
						<g>
							<polygon fill="#3F3B3C" points="346.23,115.092 345.081,120.901 348.981,116.445 							"/>
						</g>
					</g>
					<g>
						<g>
							<polygon fill="#3F3B3C" points="350.018,107.393 348.868,113.202 352.769,108.746 							"/>
						</g>
					</g>
					<g>
						<g>
							<polygon fill="#3F3B3C" points="353.806,99.694 352.657,105.503 356.557,101.047 							"/>
						</g>
					</g>
					<g>
						<g>
							<polygon fill="#3F3B3C" points="357.236,91.881 356.276,97.725 360.029,93.144 							"/>
						</g>
					</g>
					<g>
						<g>
							<polygon fill="#3F3B3C" points="360.771,84.062 359.811,89.906 363.564,85.325 							"/>
						</g>
					</g>
					<g>
						<g>
							<polygon fill="#3F3B3C" points="364.305,76.244 363.345,82.087 367.098,77.506 							"/>
						</g>
					</g>
					<g>
						<g>
							<polygon fill="#3F3B3C" points="367.41,68.452 367.139,74.368 370.332,69.38 							"/>
						</g>
					</g>
					<g>
						<g>
							<polygon fill="#3F3B3C" points="370.007,60.274 369.737,66.19 372.929,61.202 							"/>
						</g>
					</g>
					<g>
						<g>
							<polygon fill="#3F3B3C" points="372.605,52.096 372.333,58.012 375.526,53.024 							"/>
						</g>
					</g>
					<g>
						<g>
							<polygon fill="#3F3B3C" points="375.202,43.918 374.931,49.834 378.124,44.846 							"/>
						</g>
					</g>
					<g>
						<g>
							<polygon fill="#3F3B3C" points="376.825,35.625 377.098,41.542 379.819,36.281 							"/>
						</g>
					</g>
					<g>
						<g>
							<polygon fill="#3F3B3C" points="378.661,27.244 378.933,33.16 381.655,27.899 							"/>
						</g>
					</g>
					<g>
						<g>
							<polygon fill="#3F3B3C" points="379.841,18.847 380.515,24.731 382.874,19.298 							"/>
						</g>
					</g>
				</g>
			</g>
			<g>
				<g>
					<g>
						<g>
							<polygon fill="#3F3B3C" points="308.657,171.341 308.273,177.25 311.559,172.325 							"/>
						</g>
					</g>
					<g>
						<g>
							<polygon fill="#3F3B3C" points="311.409,163.214 311.026,169.124 314.313,164.198 							"/>
						</g>
					</g>
					<g>
						<g>
							<polygon fill="#3F3B3C" points="314.462,155.141 313.886,161.036 317.332,156.218 							"/>
						</g>
					</g>
					<g>
						<g>
							<polygon fill="#3F3B3C" points="317.478,147.108 316.903,153.002 320.348,148.186 							"/>
						</g>
					</g>
					<g>
						<g>
							<polygon fill="#3F3B3C" points="320.734,139.102 319.91,144.966 323.555,140.299 							"/>
						</g>
					</g>
					<g>
						<g>
							<polygon fill="#3F3B3C" points="324.085,131.203 323.262,137.067 326.908,132.4 							"/>
						</g>
					</g>
					<g>
						<g>
							<polygon fill="#3F3B3C" points="327.438,123.304 326.614,129.169 330.259,124.501 							"/>
						</g>
					</g>
					<g>
						<g>
							<polygon fill="#3F3B3C" points="331.108,115.458 329.958,121.267 333.859,116.811 							"/>
						</g>
					</g>
					<g>
						<g>
							<polygon fill="#3F3B3C" points="334.896,107.758 333.747,113.568 337.647,109.112 							"/>
						</g>
					</g>
					<g>
						<g>
							<polygon fill="#3F3B3C" points="338.684,100.059 337.534,105.869 341.435,101.413 							"/>
						</g>
					</g>
					<g>
						<g>
							<polygon fill="#3F3B3C" points="342.472,92.36 341.322,98.169 345.223,93.713 							"/>
						</g>
					</g>
					<g>
						<g>
							<polygon fill="#3F3B3C" points="345.902,84.547 344.942,90.391 348.695,85.81 							"/>
						</g>
					</g>
					<g>
						<g>
							<polygon fill="#3F3B3C" points="349.437,76.729 348.477,82.573 352.23,77.991 							"/>
						</g>
					</g>
					<g>
						<g>
							<polygon fill="#3F3B3C" points="352.971,68.91 352.011,74.754 355.764,70.172 							"/>
						</g>
					</g>
					<g>
						<g>
							<polygon fill="#3F3B3C" points="356.076,61.119 355.805,67.035 358.998,62.046 							"/>
						</g>
					</g>
					<g>
						<g>
							<polygon fill="#3F3B3C" points="358.673,52.941 358.403,58.857 361.595,53.869 							"/>
						</g>
					</g>
					<g>
						<g>
							<polygon fill="#3F3B3C" points="361.271,44.763 361,50.679 364.192,45.691 							"/>
						</g>
					</g>
					<g>
						<g>
							<polygon fill="#3F3B3C" points="363.868,36.585 363.597,42.501 366.79,37.513 							"/>
						</g>
					</g>
					<g>
						<g>
							<polygon fill="#3F3B3C" points="365.491,28.292 365.764,34.208 368.485,28.948 							"/>
						</g>
					</g>
					<g>
						<g>
							<polygon fill="#3F3B3C" points="367.327,19.91 367.599,25.826 370.321,20.566 							"/>
						</g>
					</g>
					<g>
						<g>
							<polygon fill="#3F3B3C" points="368.507,11.514 369.181,17.397 371.54,11.965 							"/>
						</g>
					</g>
				</g>
			</g>
		</g>
	</g>
	
		<line opacity="0.4" fill="none" stroke="#1B1F8A" stroke-width="8" enable-background="new    " x1="320.936" y1="97.902" x2="472.936" y2="157.902"/>
</g>
<g>
	<defs>
		<rect id="SVGID_1_" x="11.217" y="255.493" width="214.339" height="19.199"/>
	</defs>
	<clipPath id="SVGID_2_">
		<use xlink:href="#SVGID_1_"  overflow="visible"/>
	</clipPath>
	<path clip-path="url(#SVGID_2_)" d="M14.417,268.745c0.093,0.291,0.869,1.275,2.275,1.275c2.201,0,4.125-1.8,4.125-4.168
		c0-2.332-1.789-4.151-3.853-4.151c-1.438,0-2.211,0.816-2.579,1.225v-1.225l-2.654,0.201v0.567c1.28,0,1.406,0.112,1.406,0.922
		v8.617c0,0.829-0.199,0.829-1.406,0.829v0.576c0.625-0.019,1.58-0.055,2.057-0.055c0.496,0,1.432,0.036,2.075,0.055v-0.576
		c-1.242,0-1.446,0-1.446-0.829v-3.097 M14.417,263.625c0.537-0.941,1.443-1.477,2.386-1.477c1.35,0,2.479,1.623,2.479,3.707
		c0,2.23-1.294,3.779-2.663,3.779c-0.74,0-1.442-0.368-1.941-1.124c-0.26-0.387-0.26-0.405-0.26-0.774V263.625z"/>
	<path clip-path="url(#SVGID_2_)" d="M24.528,268.386v-2.838c0-1.823,0.778-3.464,2.188-3.464c0.13,0,0.167,0,0.204,0
		c-0.053,0.019-0.408,0.247-0.408,0.74c0,0.531,0.391,0.815,0.8,0.815c0.335,0,0.8-0.222,0.8-0.812s-0.573-1.128-1.367-1.128
		c-1.347,0-2.012,1.238-2.271,2.031V261.7l-2.567,0.201v0.566c1.262,0,1.405,0.129,1.405,1.029v4.929
		c0,0.827-0.198,0.827-1.405,0.827v0.576c0.716-0.02,1.58-0.055,2.093-0.055c0.735,0,1.598,0,2.333,0.055v-0.576h-0.391
		C24.565,269.252,24.528,269.049,24.528,268.386"/>
	<path clip-path="url(#SVGID_2_)" d="M31.953,258.5c0-0.58-0.453-0.961-0.96-0.961c-0.562,0-0.959,0.488-0.959,0.961
		c0,0.488,0.398,0.959,0.959,0.959C31.5,259.459,31.953,259.08,31.953,258.5 M31.889,261.7l-2.583,0.201v0.566
		c1.201,0,1.368,0.111,1.368,1.011v4.947c0,0.827-0.204,0.827-1.441,0.827v0.576c0.587-0.02,1.58-0.055,2.02-0.055
		c0.643,0,1.286,0.035,1.91,0.055v-0.576c-1.2,0-1.272-0.093-1.272-0.809L31.889,261.7z"/>
	<path clip-path="url(#SVGID_2_)" d="M35.666,263.498v4.928c0,0.828-0.197,0.828-1.397,0.828v0.575
		c0.643-0.019,1.58-0.055,2.076-0.055c0.478,0,1.432,0.036,2.056,0.055v-0.575c-1.25,0-1.455,0-1.455-0.83v-3.39
		c0-1.916,1.304-2.949,2.48-2.949c1.158,0,1.36,0.995,1.36,2.046v4.293c0,0.83-0.2,0.83-1.412,0.83v0.575
		c0.643-0.019,1.58-0.055,2.075-0.055c0.478,0,1.432,0.036,2.057,0.055v-0.575c-1.237,0-1.441,0-1.441-0.83v-3.39
		c0-1.916,1.305-2.949,2.48-2.949c1.158,0,1.36,0.995,1.36,2.046v4.293c0,0.83-0.201,0.83-1.427,0.83v0.575
		c0.642-0.019,1.58-0.055,2.075-0.055c0.477,0,1.432,0.036,2.057,0.055v-0.575c-0.951,0-1.408,0-1.426-0.552v-3.509
		c0-1.58,0-2.149-0.574-2.812c-0.258-0.312-0.867-0.681-1.936-0.681c-1.55,0-2.361,1.108-2.675,1.812
		c-0.258-1.607-1.623-1.812-2.453-1.812c-1.346,0-2.213,0.795-2.729,1.94v-1.94l-2.548,0.201v0.567
		C35.522,262.469,35.665,262.597,35.666,263.498"/>
	<path clip-path="url(#SVGID_2_)" d="M54.993,265.413v1.844c0,1.752-1.314,2.379-2.135,2.379c-0.895,0-1.642-0.645-1.642-1.566
		C51.217,267.053,51.983,265.524,54.993,265.413 M55.136,268.433c0.074,0.743,0.568,1.524,1.428,1.524
		c0.384,0,1.501-0.259,1.501-1.757v-1.035h-0.448v1.034c0,1.07-0.46,1.182-0.663,1.182c-0.607,0-0.681-0.831-0.681-0.924v-3.691
		c0-0.774,0-1.494-0.655-2.178c-0.709-0.72-1.617-1.017-2.489-1.017c-1.49,0-2.744,0.866-2.744,2.08
		c0,0.552,0.362,0.865,0.832,0.865c0.506,0,0.832-0.371,0.832-0.854c0-0.223-0.093-0.835-0.951-0.854
		c0.492-0.648,1.383-0.854,1.965-0.854c0.892,0,1.93,0.727,1.93,2.385v0.688c-0.932,0.056-2.21,0.111-3.36,0.661
		c-1.369,0.624-1.825,1.579-1.825,2.385c0,1.488,1.775,1.945,2.928,1.945C53.946,270.02,54.789,269.291,55.136,268.433z"/>
	<path clip-path="url(#SVGID_2_)" d="M61.457,257.092l-2.657,0.201v0.566c1.293,0,1.441,0.132,1.441,1.03v9.537
		c0,0.825-0.204,0.825-1.441,0.825v0.576c0.606-0.02,1.58-0.055,2.039-0.055s1.359,0.035,2.039,0.055v-0.576
		c-1.219,0-1.42,0-1.42-0.825"/>
	<path clip-path="url(#SVGID_2_)" d="M74.769,258.083c0-0.439,0-0.479-0.42-0.479c-1.132,1.152-2.738,1.152-3.321,1.152v0.576
		c0.366,0,1.446,0,2.397-0.467v9.506c0,0.66-0.055,0.882-1.702,0.882h-0.585v0.575c0.642-0.055,2.24-0.055,2.975-0.055
		c0.734,0,2.332,0,2.975,0.055v-0.575h-0.594c-1.669,0-1.725-0.202-1.725-0.882"/>
	<rect x="78.802" y="265.348" clip-path="url(#SVGID_2_)" width="4.863" height="1.088"/>
	<path clip-path="url(#SVGID_2_)" d="M87.953,262.467h2.099v-0.576h-2.149v-2.12c0-1.609,0.881-2.487,1.689-2.487
		c0.055,0,0.331,0,0.606,0.128c-0.232,0.073-0.58,0.308-0.58,0.76c0,0.415,0.294,0.775,0.79,0.775c0.533,0,0.809-0.358,0.809-0.79
		c0-0.664-0.677-1.257-1.646-1.257c-1.28,0-2.834,0.966-2.834,2.897v2.094h-1.442v0.576h1.442v5.958
		c0,0.827-0.201,0.827-1.424,0.827v0.576c0.716-0.02,1.58-0.055,2.093-0.055c0.735,0,1.598,0,2.333,0.055v-0.576h-0.387
		c-1.363,0-1.399-0.202-1.399-0.864"/>
	<path clip-path="url(#SVGID_2_)" d="M94.906,269.572c-0.785,0-1.588-0.388-2.081-1.238c-0.457-0.813-0.457-1.939-0.457-2.605
		c0-0.721,0-1.72,0.438-2.532c0.493-0.852,1.351-1.239,2.081-1.239c0.803,0,1.588,0.407,2.063,1.202s0.475,1.867,0.475,2.569
		c0,0.666,0,1.663-0.403,2.477C96.622,269.037,95.818,269.572,94.906,269.572 M98.961,265.879c0-2.355-1.835-4.308-4.055-4.308
		c-2.293,0-4.073,2.007-4.073,4.308c0,2.374,1.908,4.141,4.055,4.141C97.107,270.02,98.961,268.216,98.961,265.879z"/>
	<path clip-path="url(#SVGID_2_)" d="M102.608,268.386v-2.838c0-1.823,0.779-3.464,2.188-3.464c0.13,0,0.167,0,0.205,0
		c-0.053,0.019-0.408,0.247-0.408,0.74c0,0.531,0.39,0.815,0.8,0.815c0.335,0,0.8-0.222,0.8-0.812s-0.573-1.128-1.367-1.128
		c-1.348,0-2.013,1.238-2.271,2.031V261.7l-2.567,0.201v0.566c1.261,0,1.405,0.129,1.405,1.029v4.929
		c0,0.827-0.198,0.827-1.405,0.827v0.576c0.716-0.02,1.58-0.055,2.094-0.055c0.734,0,1.597,0,2.332,0.055v-0.576h-0.391
		C102.646,269.252,102.608,269.049,102.608,268.386"/>
	<path clip-path="url(#SVGID_2_)" d="M108.689,263.498v4.928c0,0.828-0.197,0.828-1.396,0.828v0.575
		c0.643-0.019,1.579-0.055,2.075-0.055c0.478,0,1.433,0.036,2.057,0.055v-0.575c-1.25,0-1.456,0-1.456-0.83v-3.39
		c0-1.916,1.304-2.949,2.48-2.949c1.158,0,1.36,0.995,1.36,2.046v4.293c0,0.83-0.2,0.83-1.412,0.83v0.575
		c0.643-0.019,1.58-0.055,2.075-0.055c0.478,0,1.433,0.036,2.057,0.055v-0.575c-1.237,0-1.44,0-1.44-0.83v-3.39
		c0-1.916,1.304-2.949,2.48-2.949c1.157,0,1.36,0.995,1.36,2.046v4.293c0,0.83-0.201,0.83-1.427,0.83v0.575
		c0.643-0.019,1.58-0.055,2.075-0.055c0.478,0,1.432,0.036,2.057,0.055v-0.575c-0.95,0-1.407,0-1.425-0.552v-3.509
		c0-1.58,0-2.149-0.574-2.812c-0.259-0.312-0.868-0.681-1.937-0.681c-1.55,0-2.361,1.108-2.675,1.812
		c-0.259-1.607-1.623-1.812-2.453-1.812c-1.347,0-2.213,0.795-2.729,1.94v-1.94l-2.549,0.201v0.567
		C108.546,262.469,108.688,262.597,108.689,263.498"/>
	<path clip-path="url(#SVGID_2_)" d="M134.224,274.252c0-0.056,0-0.092-0.313-0.404c-2.297-2.313-2.885-5.785-2.885-8.595
		c0-3.197,0.698-6.394,2.959-8.688c0.239-0.221,0.239-0.258,0.239-0.312c0-0.128-0.074-0.184-0.186-0.184
		c-0.184,0-1.847,1.248-2.938,3.581c-0.942,2.021-1.164,4.06-1.164,5.603c0,1.433,0.203,3.654,1.22,5.73
		c1.108,2.26,2.697,3.452,2.882,3.452C134.148,274.435,134.223,274.38,134.224,274.252"/>
	<path clip-path="url(#SVGID_2_)" d="M141.841,262.724c-0.727,0.054-0.833,0.597-0.833,0.832c0,0.47,0.325,0.832,0.831,0.832
		c0.47,0,0.833-0.311,0.833-0.86c0-1.242-1.394-1.956-2.806-1.956c-2.292,0-3.978,1.989-3.978,4.271
		c0,2.355,1.814,4.177,3.939,4.177c2.455,0,3.042-2.194,3.042-2.376c0-0.184-0.183-0.184-0.238-0.184
		c-0.165,0-0.201,0.073-0.237,0.184c-0.53,1.708-1.719,1.928-2.394,1.928c-0.968,0-2.576-0.794-2.576-3.766
		c0-3.009,1.496-3.786,2.463-3.786C140.052,262.02,141.202,262.04,141.841,262.724"/>
	<path clip-path="url(#SVGID_2_)" d="M146.769,258.5c0-0.58-0.453-0.961-0.96-0.961c-0.561,0-0.959,0.488-0.959,0.961
		c0,0.488,0.398,0.959,0.959,0.959C146.315,259.459,146.769,259.08,146.769,258.5 M146.705,261.7l-2.583,0.201v0.566
		c1.202,0,1.368,0.111,1.368,1.011v4.947c0,0.827-0.203,0.827-1.441,0.827v0.576c0.587-0.02,1.58-0.055,2.02-0.055
		c0.642,0,1.285,0.035,1.91,0.055v-0.576c-1.2,0-1.272-0.093-1.272-0.809L146.705,261.7z"/>
	<path clip-path="url(#SVGID_2_)" d="M151.697,268.386v-2.838c0-1.823,0.778-3.464,2.188-3.464c0.13,0,0.167,0,0.204,0
		c-0.053,0.019-0.407,0.247-0.407,0.74c0,0.531,0.39,0.815,0.8,0.815c0.334,0,0.8-0.222,0.8-0.812s-0.574-1.128-1.368-1.128
		c-1.347,0-2.012,1.238-2.271,2.031V261.7l-2.567,0.201v0.566c1.262,0,1.406,0.129,1.406,1.029v4.929
		c0,0.827-0.199,0.827-1.406,0.827v0.576c0.716-0.02,1.58-0.055,2.094-0.055c0.735,0,1.598,0,2.332,0.055v-0.576h-0.391
		C151.733,269.252,151.697,269.049,151.697,268.386"/>
	<path clip-path="url(#SVGID_2_)" d="M162.321,262.724c-0.727,0.054-0.833,0.597-0.833,0.832c0,0.47,0.325,0.832,0.831,0.832
		c0.471,0,0.833-0.311,0.833-0.86c0-1.242-1.394-1.956-2.805-1.956c-2.292,0-3.978,1.989-3.978,4.271
		c0,2.355,1.813,4.177,3.938,4.177c2.456,0,3.042-2.194,3.042-2.376c0-0.184-0.184-0.184-0.238-0.184
		c-0.164,0-0.201,0.073-0.238,0.184c-0.529,1.708-1.718,1.928-2.393,1.928c-0.968,0-2.577-0.794-2.577-3.766
		c0-3.009,1.496-3.786,2.463-3.786C160.532,262.02,161.682,262.04,162.321,262.724"/>
	<path clip-path="url(#SVGID_2_)" d="M171.024,268.377v1.643l2.657-0.201v-0.567c-1.293,0-1.44-0.129-1.44-1.028V261.7l-2.691,0.201
		v0.566c1.267,0,1.411,0.13,1.411,1.033v3.279c0,1.604-0.882,2.855-2.223,2.855c-1.544,0-1.617-0.865-1.617-1.822V261.7
		l-2.677,0.201v0.566c1.397,0,1.397,0.057,1.397,1.692v2.755c0,1.434,0,3.105,2.803,3.105
		C169.677,270.02,170.488,269.509,171.024,268.377"/>
	<path clip-path="url(#SVGID_2_)" d="M177.361,257.092l-2.657,0.201v0.566c1.293,0,1.44,0.132,1.44,1.03v9.537
		c0,0.825-0.203,0.825-1.44,0.825v0.576c0.606-0.02,1.579-0.055,2.037-0.055c0.459,0,1.359,0.035,2.039,0.055v-0.576
		c-1.219,0-1.419,0-1.419-0.825"/>
	<path clip-path="url(#SVGID_2_)" d="M185.169,265.413v1.844c0,1.752-1.314,2.379-2.135,2.379c-0.895,0-1.642-0.645-1.642-1.566
		C181.392,267.053,182.159,265.524,185.169,265.413 M185.312,268.433c0.073,0.743,0.567,1.524,1.427,1.524
		c0.385,0,1.501-0.259,1.501-1.757v-1.035h-0.447v1.034c0,1.07-0.46,1.182-0.664,1.182c-0.608,0-0.681-0.831-0.681-0.924v-3.691
		c0-0.774,0-1.494-0.655-2.178c-0.709-0.72-1.617-1.017-2.489-1.017c-1.488,0-2.742,0.866-2.742,2.08
		c0,0.552,0.361,0.865,0.831,0.865c0.506,0,0.832-0.371,0.832-0.854c0-0.223-0.094-0.835-0.951-0.854
		c0.492-0.648,1.383-0.854,1.966-0.854c0.891,0,1.929,0.727,1.929,2.385v0.688c-0.931,0.056-2.208,0.111-3.359,0.661
		c-1.369,0.624-1.825,1.579-1.825,2.385c0,1.488,1.775,1.945,2.928,1.945C184.123,270.02,184.965,269.291,185.312,268.433z"/>
	<path clip-path="url(#SVGID_2_)" d="M191.569,262.467h2.604v-0.576h-2.604v-3.327h-0.462c-0.019,1.489-0.573,3.432-2.388,3.505
		v0.398h1.571v5.072c0,2.261,1.697,2.48,2.354,2.48c1.295,0,1.806-1.302,1.806-2.476V266.5h-0.448v1.012
		c0,1.36-0.544,2.06-1.216,2.06c-1.216,0-1.216-1.675-1.216-1.987"/>
	<path clip-path="url(#SVGID_2_)" d="M198.865,258.5c0-0.58-0.453-0.961-0.96-0.961c-0.561,0-0.959,0.488-0.959,0.961
		c0,0.488,0.398,0.959,0.959,0.959C198.412,259.459,198.865,259.08,198.865,258.5 M198.801,261.7l-2.583,0.201v0.566
		c1.202,0,1.368,0.111,1.368,1.011v4.947c0,0.827-0.203,0.827-1.44,0.827v0.576c0.587-0.02,1.579-0.055,2.019-0.055
		c0.643,0,1.285,0.035,1.91,0.055v-0.576c-1.2,0-1.272-0.093-1.272-0.809V261.7z"/>
	<path clip-path="url(#SVGID_2_)" d="M205.177,269.572c-0.784,0-1.587-0.388-2.08-1.238c-0.456-0.813-0.456-1.939-0.456-2.605
		c0-0.721,0-1.72,0.438-2.532c0.492-0.852,1.35-1.239,2.08-1.239c0.803,0,1.588,0.407,2.062,1.202
		c0.476,0.795,0.476,1.867,0.476,2.569c0,0.666,0,1.663-0.403,2.477C206.894,269.037,206.091,269.572,205.177,269.572
		 M209.233,265.879c0-2.355-1.836-4.308-4.055-4.308c-2.293,0-4.073,2.007-4.073,4.308c0,2.374,1.908,4.141,4.055,4.141
		C207.379,270.02,209.233,268.216,209.233,265.879z"/>
	<path clip-path="url(#SVGID_2_)" d="M211.794,263.498v4.928c0,0.828-0.198,0.828-1.397,0.828v0.575
		c0.642-0.019,1.579-0.055,2.076-0.055c0.478,0,1.432,0.036,2.056,0.055v-0.575c-1.25,0-1.456,0-1.456-0.83v-3.39
		c0-1.916,1.304-2.949,2.48-2.949c1.157,0,1.359,0.995,1.359,2.046v4.293c0,0.83-0.2,0.83-1.412,0.83v0.575
		c0.643-0.019,1.58-0.055,2.074-0.055c0.478,0,1.433,0.036,2.058,0.055v-0.575c-0.961,0-1.423,0-1.441-0.552v-3.509
		c0-1.58,0-2.149-0.573-2.812c-0.259-0.312-0.869-0.681-1.941-0.681c-1.348,0-2.216,0.795-2.733,1.94v-1.94l-2.548,0.201v0.567
		C211.651,262.469,211.794,262.597,211.794,263.498"/>
	<path clip-path="url(#SVGID_2_)" d="M225.297,265.252c0-1.434-0.203-3.655-1.214-5.73c-1.103-2.26-2.683-3.453-2.867-3.453
		c-0.11,0-0.184,0.072-0.184,0.184c0,0.055,0,0.092,0.347,0.422c1.789,1.818,2.831,4.739,2.831,8.578
		c0,3.141-0.676,6.373-2.94,8.688c-0.237,0.22-0.237,0.256-0.237,0.312c0,0.11,0.074,0.184,0.184,0.184
		c0.184,0,1.837-1.248,2.922-3.581C225.076,268.834,225.297,266.795,225.297,265.252"/>
</g>
<g>
	<defs>
		<rect id="SVGID_3_" x="302.253" y="255.493" width="142.08" height="19.199"/>
	</defs>
	<clipPath id="SVGID_4_">
		<use xlink:href="#SVGID_3_"  overflow="visible"/>
	</clipPath>
	<path clip-path="url(#SVGID_4_)" d="M309.232,263.875v3.785c0,0.333,0,0.369-0.202,0.684c-0.548,0.886-1.369,1.292-2.154,1.292
		c-0.822,0-1.479-0.479-1.916-1.182c-0.476-0.757-0.53-1.81-0.53-2.566c0-0.683,0.037-1.79,0.565-2.621
		c0.384-0.572,1.078-1.183,2.062-1.183c0.64,0,1.406,0.278,1.973,1.108C309.232,263.506,309.232,263.543,309.232,263.875
		 M309.236,268.819v1.201l2.695-0.201v-0.566c-1.276,0-1.422-0.128-1.422-1.026v-11.133l-2.655,0.2v0.567
		c1.293,0,1.44,0.129,1.44,1.026v3.963c-0.532-0.667-1.32-1.15-2.312-1.15c-2.163,0-4.089,1.801-4.089,4.17
		c0,2.333,1.796,4.15,3.886,4.15C307.953,270.02,308.777,269.401,309.236,268.819z"/>
	<path clip-path="url(#SVGID_4_)" d="M319.596,268.377v1.643l2.657-0.201v-0.567c-1.293,0-1.44-0.129-1.44-1.028V261.7l-2.691,0.201
		v0.566c1.267,0,1.412,0.13,1.412,1.033v3.279c0,1.604-0.883,2.855-2.223,2.855c-1.544,0-1.617-0.865-1.617-1.822V261.7
		l-2.677,0.201v0.566c1.396,0,1.396,0.057,1.396,1.692v2.755c0,1.434,0,3.105,2.804,3.105
		C318.25,270.02,319.061,269.509,319.596,268.377"/>
	<path clip-path="url(#SVGID_4_)" d="M328.622,265.413v1.844c0,1.752-1.314,2.379-2.135,2.379c-0.895,0-1.642-0.645-1.642-1.566
		C324.845,267.053,325.611,265.524,328.622,265.413 M328.764,268.433c0.073,0.743,0.567,1.524,1.428,1.524
		c0.385,0,1.502-0.259,1.502-1.757v-1.035h-0.449v1.034c0,1.07-0.459,1.182-0.662,1.182c-0.607,0-0.682-0.831-0.682-0.924v-3.691
		c0-0.774,0-1.494-0.654-2.178c-0.709-0.72-1.617-1.017-2.489-1.017c-1.489,0-2.743,0.866-2.743,2.08
		c0,0.552,0.361,0.865,0.832,0.865c0.507,0,0.832-0.371,0.832-0.854c0-0.223-0.094-0.835-0.951-0.854
		c0.491-0.648,1.384-0.854,1.966-0.854c0.892,0,1.93,0.727,1.93,2.385v0.688c-0.933,0.056-2.21,0.111-3.359,0.661
		c-1.37,0.624-1.826,1.579-1.826,2.385c0,1.488,1.776,1.945,2.929,1.945C327.575,270.02,328.417,269.291,328.764,268.433z"/>
	<path clip-path="url(#SVGID_4_)" d="M335.084,257.092l-2.656,0.201v0.566c1.293,0,1.44,0.132,1.44,1.03v9.537
		c0,0.825-0.203,0.825-1.44,0.825v0.576c0.605-0.02,1.578-0.055,2.038-0.055c0.458,0,1.358,0.035,2.038,0.055v-0.576
		c-1.219,0-1.42,0-1.42-0.825"/>
	<path clip-path="url(#SVGID_4_)" d="M348.397,258.083c0-0.439,0-0.479-0.421-0.479c-1.131,1.152-2.737,1.152-3.321,1.152v0.576
		c0.367,0,1.446,0,2.398-0.467v9.506c0,0.66-0.055,0.882-1.702,0.882h-0.586v0.575c0.643-0.055,2.24-0.055,2.976-0.055
		c0.734,0,2.332,0,2.975,0.055v-0.575h-0.595c-1.669,0-1.724-0.202-1.724-0.882"/>
	<rect x="352.43" y="265.348" clip-path="url(#SVGID_4_)" width="4.862" height="1.088"/>
	<path clip-path="url(#SVGID_4_)" d="M361.645,262.467h2.099v-0.576h-2.148v-2.12c0-1.609,0.881-2.487,1.688-2.487
		c0.056,0,0.331,0,0.606,0.128c-0.231,0.073-0.579,0.308-0.579,0.76c0,0.415,0.293,0.775,0.789,0.775
		c0.534,0,0.809-0.358,0.809-0.79c0-0.664-0.676-1.257-1.645-1.257c-1.281,0-2.835,0.966-2.835,2.897v2.094h-1.442v0.576h1.442
		v5.958c0,0.827-0.2,0.827-1.424,0.827v0.576c0.716-0.02,1.579-0.055,2.094-0.055c0.735,0,1.598,0,2.332,0.055v-0.576h-0.387
		c-1.362,0-1.399-0.202-1.399-0.864"/>
	<path clip-path="url(#SVGID_4_)" d="M368.534,269.572c-0.785,0-1.588-0.388-2.081-1.238c-0.456-0.813-0.456-1.939-0.456-2.605
		c0-0.721,0-1.72,0.438-2.532c0.493-0.852,1.35-1.239,2.08-1.239c0.804,0,1.588,0.407,2.062,1.202
		c0.476,0.795,0.476,1.867,0.476,2.569c0,0.666,0,1.663-0.402,2.477C370.25,269.037,369.447,269.572,368.534,269.572
		 M372.589,265.879c0-2.355-1.835-4.308-4.056-4.308c-2.293,0-4.072,2.007-4.072,4.308c0,2.374,1.908,4.141,4.055,4.141
		C370.736,270.02,372.589,268.216,372.589,265.879z"/>
	<path clip-path="url(#SVGID_4_)" d="M376.301,268.386v-2.838c0-1.823,0.778-3.464,2.188-3.464c0.13,0,0.166,0,0.203,0
		c-0.053,0.019-0.407,0.247-0.407,0.74c0,0.531,0.391,0.815,0.8,0.815c0.336,0,0.801-0.222,0.801-0.812s-0.574-1.128-1.367-1.128
		c-1.348,0-2.014,1.238-2.272,2.031V261.7l-2.566,0.201v0.566c1.262,0,1.405,0.129,1.405,1.029v4.929
		c0,0.827-0.199,0.827-1.405,0.827v0.576c0.717-0.02,1.579-0.055,2.094-0.055c0.734,0,1.597,0,2.331,0.055v-0.576h-0.391
		C376.338,269.252,376.301,269.049,376.301,268.386"/>
	<path clip-path="url(#SVGID_4_)" d="M382.317,263.498v4.928c0,0.828-0.197,0.828-1.396,0.828v0.575
		c0.644-0.019,1.581-0.055,2.076-0.055c0.478,0,1.432,0.036,2.057,0.055v-0.575c-1.25,0-1.456,0-1.456-0.83v-3.39
		c0-1.916,1.305-2.949,2.479-2.949c1.159,0,1.36,0.995,1.36,2.046v4.293c0,0.83-0.199,0.83-1.411,0.83v0.575
		c0.643-0.019,1.578-0.055,2.075-0.055c0.477,0,1.432,0.036,2.057,0.055v-0.575c-1.237,0-1.44,0-1.44-0.83v-3.39
		c0-1.916,1.304-2.949,2.48-2.949c1.156,0,1.359,0.995,1.359,2.046v4.293c0,0.83-0.201,0.83-1.427,0.83v0.575
		c0.643-0.019,1.579-0.055,2.074-0.055c0.478,0,1.433,0.036,2.058,0.055v-0.575c-0.951,0-1.408,0-1.425-0.552v-3.509
		c0-1.58,0-2.149-0.574-2.812c-0.259-0.312-0.867-0.681-1.937-0.681c-1.551,0-2.362,1.108-2.676,1.812
		c-0.258-1.607-1.622-1.812-2.453-1.812c-1.346,0-2.212,0.795-2.729,1.94v-1.94l-2.548,0.201v0.567
		C382.174,262.469,382.317,262.597,382.317,263.498"/>
	<path clip-path="url(#SVGID_4_)" d="M407.851,274.252c0-0.056,0-0.092-0.312-0.404c-2.298-2.313-2.886-5.785-2.886-8.595
		c0-3.197,0.698-6.394,2.959-8.688c0.239-0.221,0.239-0.258,0.239-0.312c0-0.128-0.074-0.184-0.185-0.184
		c-0.185,0-1.848,1.248-2.938,3.581c-0.941,2.021-1.164,4.06-1.164,5.603c0,1.433,0.203,3.654,1.219,5.73
		c1.108,2.26,2.697,3.452,2.883,3.452C407.776,274.435,407.851,274.38,407.851,274.252"/>
	<path clip-path="url(#SVGID_4_)" d="M415.982,261.892h-3.937v-2.066c0-1.7,1.396-2.541,2.758-2.541c0.167,0,0.663,0,1.179,0.192
		c-0.168,0.073-0.466,0.254-0.466,0.727c0,0.328,0.148,0.6,0.466,0.709 M415.982,262.467v5.958c0,0.827-0.204,0.827-1.44,0.827
		v0.576c0.606-0.02,1.58-0.055,2.039-0.055s1.358,0.035,2.038,0.055v-0.576c-1.221,0-1.421,0-1.421-0.825v-11.335l-0.665,0.11
		c-0.074,0-0.093-0.019-0.167-0.056c-0.59-0.247-1.349-0.247-1.551-0.247c-1.938,0-3.953,1.021-3.953,2.915v2.076h-1.423v0.576
		h1.423v5.958c0,0.827-0.198,0.827-1.405,0.827v0.576c0.606-0.02,1.579-0.055,2.038-0.055c0.46,0,1.359,0.035,2.039,0.055v-0.576
		c-1.25,0-1.455,0-1.455-0.827v-5.958H415.982z"/>
	<path clip-path="url(#SVGID_4_)" d="M426.284,268.377v1.643l2.658-0.201v-0.567c-1.294,0-1.44-0.129-1.44-1.028V261.7l-2.691,0.201
		v0.566c1.267,0,1.411,0.13,1.411,1.033v3.279c0,1.604-0.883,2.855-2.223,2.855c-1.544,0-1.617-0.865-1.617-1.822V261.7
		l-2.677,0.201v0.566c1.396,0,1.396,0.057,1.396,1.692v2.755c0,1.434,0,3.105,2.804,3.105
		C424.937,270.02,425.749,269.509,426.284,268.377"/>
	<path clip-path="url(#SVGID_4_)" d="M434.549,265.501c0.553-0.698,1.252-1.599,1.694-2.076c0.57-0.663,1.325-0.938,2.19-0.958
		v-0.576c-0.479,0.037-1.031,0.056-1.51,0.056c-0.552,0-1.527-0.036-1.767-0.056v0.576c0.386,0.038,0.533,0.278,0.533,0.573
		c0,0.296-0.185,0.535-0.276,0.646l-1.142,1.439l-1.435-1.864c-0.166-0.185-0.166-0.222-0.166-0.333
		c0-0.276,0.275-0.443,0.645-0.462v-0.576c-0.479,0.019-1.693,0.055-1.988,0.055c-0.387,0-1.252-0.019-1.748-0.055v0.576
		c1.288,0,1.307,0.018,2.172,1.122l1.822,2.372c-0.865,1.102-0.865,1.139-1.729,2.188c-0.885,1.066-1.971,1.103-2.356,1.103v0.576
		c0.479-0.037,1.049-0.056,1.527-0.056c0.533,0,1.307,0.037,1.748,0.056v-0.576c-0.405-0.055-0.534-0.293-0.534-0.567
		c0-0.404,0.534-1.008,1.657-2.328c0.533,0.715,0.682,0.917,1.398,1.832c0.147,0.203,0.388,0.496,0.388,0.605
		c0,0.164-0.166,0.439-0.663,0.458v0.576c0.552-0.019,1.583-0.056,1.988-0.056c0.496,0,1.215,0.019,1.767,0.056v-0.576
		c-0.994,0-1.325-0.036-1.749-0.57"/>
	<path clip-path="url(#SVGID_4_)" d="M444.333,265.252c0-1.434-0.203-3.655-1.213-5.73c-1.103-2.26-2.684-3.453-2.867-3.453
		c-0.11,0-0.184,0.072-0.184,0.184c0,0.055,0,0.092,0.347,0.422c1.789,1.818,2.829,4.739,2.829,8.578
		c0,3.141-0.675,6.373-2.938,8.688c-0.237,0.22-0.237,0.256-0.237,0.312c0,0.11,0.073,0.184,0.184,0.184
		c0.184,0,1.838-1.248,2.922-3.581C444.112,268.834,444.333,266.795,444.333,265.252"/>
</g>
</svg>
