<?xml version="1.0" encoding="utf-8"?>
<!-- Generator: Adobe Illustrator 14.0.0, SVG Export Plug-In . SVG Version: 6.00 Build 43363)  -->
<!DOCTYPE svg PUBLIC "-//W3C//DTD SVG 1.1//EN" "http://www.w3.org/Graphics/SVG/1.1/DTD/svg11.dtd">
<svg version="1.1" id="Layer_1" xmlns="http://www.w3.org/2000/svg" xmlns:xlink="http://www.w3.org/1999/xlink" x="0px" y="0px"
	 width="326.667px" height="174px" viewBox="0 0 326.667 174" enable-background="new 0 0 326.667 174" xml:space="preserve">
<circle opacity="0.2" fill="#1B1F8A" enable-background="new    " cx="180.985" cy="67.819" r="8.837"/>
<g>
	<g>
		<line fill="none" stroke="#231F20" stroke-width="1.5842" x1="180.986" y1="67.82" x2="219.463" y2="61.37"/>
		<polygon fill="#231F20" points="227.185,60.076 217.049,66.345 218.886,61.467 215.558,57.455 		"/>
	</g>
</g>
<circle opacity="0.2" fill="#1B1F8A" enable-background="new    " cx="120.181" cy="97.473" r="8.837"/>
<g>
	<g>
		<line fill="none" stroke="#231F20" stroke-width="1.5842" x1="120.182" y1="97.473" x2="137.333" y2="65.333"/>
		<polygon fill="#231F20" points="141.02,58.426 139.802,70.282 137.058,65.85 131.849,66.038 		"/>
	</g>
</g>
<circle opacity="0.2" fill="#1B1F8A" enable-background="new    " cx="235.906" cy="41.323" r="8.836"/>
<g>
	<g>
		<line fill="none" stroke="#231F20" stroke-width="1.5842" x1="235.905" y1="41.323" x2="264.773" y2="54.634"/>
		<polygon fill="#231F20" points="271.884,57.913 259.977,57.386 264.242,54.389 263.751,49.2 		"/>
	</g>
</g>
<path opacity="0.2" fill="#1B1F8A" enable-background="new    " d="M74.971,128.469c2.832-3.979,1.899-9.494-2.077-12.323
	c-3.977-2.83-9.492-1.903-12.324,2.076c-2.828,3.975-1.901,9.495,2.076,12.324C66.623,133.376,72.143,132.444,74.971,128.469z"/>
<g>
	<g>
		<line fill="none" stroke="#231F20" stroke-width="1.5842" x1="67.771" y1="123.346" x2="82.583" y2="97.558"/>
		<polygon fill="#231F20" points="86.483,90.769 84.896,102.582 82.292,98.066 77.079,98.091 		"/>
	</g>
</g>
<circle opacity="0.2" fill="#1B1F8A" enable-background="new    " cx="16.749" cy="147.873" r="8.837"/>
<g>
	<g>
		<line fill="none" stroke="#231F20" stroke-width="1.5842" x1="16.75" y1="147.873" x2="40.047" y2="157.219"/>
		<polygon fill="#231F20" points="47.314,160.134 35.396,160.209 39.504,157.001 38.752,151.843 		"/>
	</g>
</g>
<path opacity="0.2" fill="#1B1F8A" enable-background="new    " d="M299.657,19.595c2.831-3.979,1.9-9.496-2.075-12.325
	c-3.979-2.831-9.492-1.9-12.323,2.079c-2.828,3.974-1.901,9.49,2.077,12.321C291.311,24.499,296.829,23.569,299.657,19.595z"/>
<g>
	<g>
		<line fill="none" stroke="#231F20" stroke-width="1.5842" x1="292.459" y1="14.47" x2="313.967" y2="22.544"/>
		<polygon fill="#231F20" points="321.297,25.296 309.383,25.639 313.419,22.339 312.552,17.199 		"/>
	</g>
</g>
<line fill="none" stroke="#000000" stroke-width="3.9108" x1="15.372" y1="148.69" x2="293.462" y2="12.983"/>
<g>
	<g>
		
			<line fill="none" stroke="#231F20" stroke-width="1.9554" stroke-dasharray="5.8662" x1="161.984" y1="127.696" x2="244.012" y2="87.667"/>
		<polygon fill="#231F20" points="252.697,83.429 242.897,94.402 243.362,87.984 238.018,84.402 		"/>
	</g>
</g>
<g>
	<defs>
		<rect id="SVGID_1_" x="28.729" y="68.235" width="45.519" height="27.064"/>
	</defs>
	<clipPath id="SVGID_2_">
		<use xlink:href="#SVGID_1_"  overflow="visible"/>
	</clipPath>
	<path clip-path="url(#SVGID_2_)" d="M42.629,81.226c-3.084,2.733-5.781,3.123-7.181,3.123c-2.101,0-3.151-1.597-3.151-3.867
		c0-1.74,0.917-5.572,2.046-7.382c1.657-2.591,3.562-3.267,4.795-3.267c3.492,0,3.492,4.65,3.492,7.419
		C42.63,78.564,42.63,80.624,42.629,81.226 M44.966,76.388c0-5.555-3.255-7.292-5.844-7.292c-4.792,0-9.408,5.049-9.408,10.025
		c0,3.282,2.114,5.966,5.708,5.966c2.221,0,4.757-0.806,7.436-2.945c0.457,1.859,1.621,2.945,3.207,2.945
		c1.868,0,2.963-1.928,2.963-2.489c0-0.245-0.218-0.352-0.436-0.352c-0.253,0-0.363,0.106-0.471,0.356
		c-0.652,1.745-1.958,1.745-2.03,1.745c-1.125,0-1.125-2.759-1.125-3.609c0-0.742,0-0.814,0.362-1.238
		c3.397-4.177,4.158-8.28,4.158-8.315c0-0.07-0.037-0.354-0.435-0.354c-0.361,0-0.361,0.105-0.542,0.743
		c-0.65,2.229-1.844,4.918-3.543,7.006L44.966,76.388z"/>
	<path clip-path="url(#SVGID_2_)" d="M57.277,82.064c1.438-1.895,2.678-2.264,3.47-2.264c0.967,0,1.812,0.713,1.812,2.386
		c0,1.01-0.546,3.519-1.29,4.945c-0.62,1.205-1.834,2.385-3.101,2.385c-1.76,0-2.206-1.894-2.206-2.139
		c0-0.099,0.05-0.271,0.075-0.37 M52.604,93.054c-0.173,0.694-0.222,0.893-1.211,0.893c-0.321,0-0.668,0-0.668,0.502
		c0,0.265,0.223,0.358,0.346,0.358c0.644,0,1.459-0.099,2.127-0.099c0.841,0,1.781,0.099,2.597,0.099
		c0.223,0,0.495-0.071,0.495-0.526c0-0.334-0.347-0.334-0.644-0.334c-0.543,0-1.211,0-1.211-0.299c0-0.125,0.173-0.771,0.272-1.146
		c0.296-1.316,0.643-2.659,0.916-3.705c0.296,0.494,1.062,1.456,2.547,1.456c3.018,0,6.358-3.349,6.358-7.047
		c0-2.905-2.005-4.147-3.711-4.147c-1.533,0-2.844,1.069-3.512,1.783c-0.42-1.451-1.806-1.783-2.548-1.783
		c-0.964,0-1.558,0.651-1.954,1.327c-0.495,0.852-0.89,2.353-0.89,2.503c0,0.324,0.345,0.324,0.42,0.324
		c0.346,0,0.371-0.073,0.543-0.742c0.372-1.436,0.842-2.675,1.806-2.675c0.644,0,0.817,0.547,0.817,1.215
		c0,0.273-0.05,0.595-0.076,0.744L52.604,93.054z"/>
	<path clip-path="url(#SVGID_2_)" d="M73.084,90.917c0-0.253-0.298-0.253-0.368-0.253c-0.297,0-0.315,0.073-0.419,0.415
		c-0.297,0.984-1.083,2.006-1.956,2.006c-0.402,0-0.525-0.282-0.525-0.669c0-0.37,0.088-0.563,0.229-0.898
		c0.141-0.353,0.282-0.704,0.369-0.95c0.071-0.16,0.755-1.798,1.002-2.432c0.139-0.353,0.245-0.581,0.245-0.881
		c0-0.846-0.815-1.551-1.934-1.551c-1.862,0-2.855,2.22-2.855,2.688c0,0.242,0.283,0.242,0.371,0.242
		c0.301,0,0.319-0.086,0.408-0.344c0.391-1.219,1.24-1.974,2.004-1.974c0.336,0,0.532,0.195,0.532,0.671
		c0,0.069,0,0.299-0.106,0.633c-0.124,0.318-0.914,2.202-1.161,2.802c-0.123,0.299-0.123,0.334-0.386,0.934
		c-0.087,0.246-0.193,0.493-0.193,0.793c0,0.915,0.861,1.55,1.914,1.55C72.101,93.7,73.084,91.365,73.084,90.917 M72.255,82.416
		c0-0.43-0.318-0.77-0.776-0.77c-0.495,0-1.076,0.482-1.076,1.072c0,0.503,0.389,0.771,0.759,0.771
		C71.744,83.49,72.255,82.952,72.255,82.416z"/>
</g>
<g>
	<defs>
		<rect id="SVGID_3_" x="66.058" y="136.85" width="28.295" height="23.374"/>
	</defs>
	<clipPath id="SVGID_4_">
		<use xlink:href="#SVGID_3_"  overflow="visible"/>
	</clipPath>
	<path clip-path="url(#SVGID_4_)" d="M75.461,142.284c0.248-0.958,1.201-1.951,1.836-2.483c1.237-1.1,2.261-1.352,2.861-1.352
		c1.414,0,2.261,1.244,2.261,3.338s-1.166,6.177-1.802,7.524c-1.202,2.484-2.897,3.654-4.205,3.654
		c-2.333,0-2.792-2.944-2.792-3.157c0-0.072,0-0.142,0.105-0.568 M69.252,157.666c-0.282,1.204-0.353,1.454-1.911,1.454
		c-0.424,0-0.813,0-0.813,0.677c0,0.285,0.178,0.428,0.46,0.428c0.956,0,1.982-0.105,2.972-0.105c1.169,0,2.373,0.105,3.504,0.105
		c0.177,0,0.638,0,0.638-0.713c0-0.392-0.354-0.392-0.849-0.392c-1.77,0-1.77-0.25-1.77-0.568c0-0.426,1.487-6.198,1.735-7.087
		c0.459,1.015,1.451,2.239,3.256,2.239c4.105,0,8.53-5.154,8.53-10.343c0-3.318-2.019-5.65-4.708-5.65
		c-1.769,0-3.47,1.281-4.638,2.669c-0.354-1.922-1.876-2.669-3.185-2.669c-1.627,0-2.301,1.383-2.619,2.02
		c-0.637,1.205-1.097,3.33-1.097,3.436c0,0.354,0.354,0.354,0.424,0.354c0.354,0,0.389-0.036,0.602-0.821
		c0.601-2.536,1.309-4.252,2.583-4.252c0.602,0,1.097,0.288,1.097,1.635c0,0.814-0.105,1.206-0.249,1.809L69.252,157.666z"/>
	<path clip-path="url(#SVGID_4_)" d="M88.417,155.731c-0.096,0.322-0.215,0.618-0.215,1.04c0,1.16,0.973,2.099,2.313,2.099
		c2.435,0,3.506-3.407,3.506-3.777c0-0.321-0.321-0.321-0.395-0.321c-0.346,0-0.371,0.146-0.468,0.415
		c-0.567,1.948-1.653,2.947-2.614,2.947c-0.494,0-0.618-0.321-0.618-0.865c0-0.568,0.167-1.038,0.382-1.582
		c0.238-0.666,0.502-1.334,0.764-1.977c0.215-0.594,1.074-2.844,1.17-3.14c0.071-0.247,0.142-0.544,0.142-0.791
		c0-1.162-0.976-2.103-2.315-2.103c-2.414,0-3.535,3.404-3.535,3.828c0,0.325,0.346,0.325,0.419,0.325
		c0.346,0,0.371-0.123,0.446-0.396c0.642-2.128,1.729-3.019,2.644-3.019c0.395,0,0.619,0.199,0.619,0.867
		c0,0.568-0.143,0.938-0.736,2.472 M93.378,143.217c0-0.402-0.297-0.956-0.989-0.956c-0.667,0-1.384,0.653-1.384,1.384
		c0,0.428,0.321,0.955,0.989,0.955C92.71,144.6,93.378,143.898,93.378,143.217z"/>
</g>
<g>
	<defs>
		<rect id="SVGID_5_" x="206.294" y="112.184" width="14.763" height="25.736"/>
	</defs>
	<clipPath id="SVGID_6_">
		<use xlink:href="#SVGID_5_"  overflow="visible"/>
	</clipPath>
	<polyline clip-path="url(#SVGID_6_)" points="214.984,112.291 210.233,117.086 210.871,117.721 214.984,114.15 219.063,117.721 
		219.705,117.086 	"/>
	<path clip-path="url(#SVGID_6_)" d="M209.76,127.931c1.384-5.486,5.04-6.028,5.963-6.028c1.667,0,2.627,1.048,2.627,2.274
		c0,3.754-5.682,3.754-7.136,3.754 M211.43,128.67c1.021,0,3.626-0.064,5.386-0.739c2.464-1.078,2.642-3.202,2.642-3.707
		c0-1.585-1.344-3.06-3.783-3.06c-3.921,0-9.258,3.426-9.258,9.603c0,3.602,2.087,6.389,5.553,6.389
		c5.056,0,8.027-3.724,8.027-4.147c0-0.21-0.213-0.456-0.425-0.456c-0.175,0-0.246,0.072-0.457,0.355
		c-2.784,3.512-6.625,3.512-7.048,3.512c-2.749,0-3.066-2.959-3.066-4.086c0-0.423,0.035-1.514,0.563-3.663H211.43z"/>
</g>
<polygon points="156.92,90.506 152.964,89.158 156.145,79.836 146.823,76.655 148.174,72.702 161.449,77.229 "/>
</svg>
