<?xml version="1.0" encoding="utf-8"?>
<!-- Generator: Adobe Illustrator 14.0.0, SVG Export Plug-In . SVG Version: 6.00 Build 43363)  -->
<!DOCTYPE svg PUBLIC "-//W3C//DTD SVG 1.1//EN" "http://www.w3.org/Graphics/SVG/1.1/DTD/svg11.dtd">
<svg version="1.1" id="Layer_1" xmlns="http://www.w3.org/2000/svg" xmlns:xlink="http://www.w3.org/1999/xlink" x="0px" y="0px"
	 width="297.569px" height="274.486px" viewBox="0 0 297.569 274.486" enable-background="new 0 0 297.569 274.486"
	 xml:space="preserve">
<polygon opacity="0.2" fill="#1B1F8A" enable-background="new    " points="289.215,141.007 219.759,20.706 80.846,20.706 
	11.39,141.007 80.846,261.308 219.759,261.308 "/>
<polygon fill="none" stroke="#000000" stroke-width="1.8889" enable-background="new    " points="289.215,141.007 219.759,20.706 
	80.846,20.706 11.39,141.007 80.846,261.308 219.759,261.308 "/>
<line fill="none" stroke="#000000" stroke-dasharray="6" enable-background="new    " x1="150.303" y1="60.806" x2="219.759" y2="100.906"/>
<line fill="none" stroke="#000000" x1="80.846" y1="20.706" x2="219.759" y2="261.308"/>
<line fill="none" stroke="#000000" x1="179.46" y1="90.505" x2="219.759" y2="20.706"/>
<line fill="none" stroke="#000000" x1="80.846" y1="261.308" x2="168.109" y2="110.163"/>
<line fill="none" stroke="#000000" x1="109.236" y1="141.007" x2="11.39" y2="141.007"/>
<line fill="none" stroke="#000000" x1="289.215" y1="141.007" x2="140.236" y2="141.007"/>
<circle cx="150.362" cy="140.902" r="5.172"/>
<circle cx="150.363" cy="60.806" r="3.88"/>
<circle cx="219.759" cy="100.806" r="3.88"/>
<polyline fill="none" stroke="#000000" points="194.663,86.417 200.224,76.786 190.592,71.225 "/>
<g>
	<defs>
		
			<rect id="SVGID_1_" x="131.187" y="84.722" transform="matrix(-0.866 -0.5 0.5 -0.866 271.7162 272.6518)" width="82.4" height="30.401"/>
	</defs>
	<clipPath id="SVGID_2_">
		<use xlink:href="#SVGID_1_"  overflow="visible"/>
	</clipPath>
	<path clip-path="url(#SVGID_2_)" d="M135.7,94.298c0.042-0.073,0.071-0.124-0.109-0.792c-1.312-4.935,0.602-10.097,2.799-13.901
		c2.498-4.327,5.945-8.106,10.811-9.44c0.497-0.111,0.525-0.161,0.569-0.235c0.1-0.174,0.047-0.312-0.104-0.398
		c-0.25-0.145-3.479,0.253-6.777,2.56c-2.854,2-4.748,4.587-5.954,6.675c-1.119,1.939-2.582,5.107-2.829,8.711
		c-0.266,3.925,0.951,6.783,1.201,6.927c0.15,0.086,0.294,0.069,0.395-0.104"/>
	<path clip-path="url(#SVGID_2_)" d="M148.845,88.703c0.054-0.035,0.327-0.109,0.402-0.065c0.099,0.057,0.412,1.689,0.486,1.962
		c0.262,1.207,0.524,2.412,0.84,3.583c0.027,0.18,0.102,0.223,0.127,0.237c0.197,0.114,0.373-0.016,0.431-0.115
		c0.071-0.124,0.076-1.908,0.088-3.588c0.019-1.179,0.043-1.562,0.064-2.345l5.459,0.505c0.447,0.026,0.531-0.058,0.588-0.157
		c0.071-0.124,0.042-0.307-0.131-0.406c-0.025-0.015-1.369-0.492-5.517-1.894l2.124-4.994c0.207-0.475,0.241-0.59,0.018-0.719
		c-0.197-0.114-0.345-0.033-0.638,0.361l-3.239,4.35l-4.056-3.565c-0.108-0.097-0.268-0.222-0.342-0.265
		c-0.175-0.101-0.346-0.033-0.417,0.09c-0.114,0.198-0.019,0.32,0.183,0.602l3.167,4.475l-4.684,2.788
		c-0.32,0.212-0.359,0.222-0.402,0.297c-0.058,0.099-0.083,0.315,0.115,0.43c0.049,0.028,0.124,0.071,0.529-0.057"/>
	<path clip-path="url(#SVGID_2_)" d="M162.4,97.776c-0.382,0.376-0.411,0.427-1.027,0.635c-1.883,0.739-3.128,0.551-3.822,0.15
		c-1.24-0.716-0.797-2.286-0.236-3.257c0.718-1.244,3.279-3.849,4.512-4.665c1.616-1.025,3.265-1.302,4.256-0.73
		c1.611,0.931,0.781,3.173,0.695,3.323c-0.087,0.149-0.224,0.27-0.321,0.38 M175.656,86.75c0.015-0.025,0.159-0.275-0.165-0.462
		c-0.372-0.215-2.852-1.35-3.301-1.542c-0.213-0.09-0.433-0.052-0.618,0.27c-0.172,0.297,0.051,0.426,0.423,0.641
		c1.188,0.686,1.137,0.889,0.993,1.138l-0.361,0.455l-4.89,5.041c0.095-1.196-0.227-2.296-1.34-2.938
		c-2.896-1.673-8.083,0.222-10.184,3.86c-1.352,2.342-0.94,4.773,0.991,5.888c0.494,0.286,1.789,0.901,4.296-0.008
		c-0.406,1.159-0.015,2.48,1.175,3.167c0.866,0.5,1.766,0.257,2.62-0.311c0.938-0.652,2.137-1.983,2.165-2.032
		c0.144-0.249-0.079-0.377-0.154-0.42c-0.247-0.143-0.33-0.058-0.605,0.248c-1.352,1.37-2.643,2.576-3.657,1.99
		c-0.667-0.385-0.369-1.073-0.082-1.571c0.345-0.597,0.494-0.742,0.837-1.107L175.656,86.75z"/>
	<path clip-path="url(#SVGID_2_)" d="M175.496,107.437c-0.315,1.179,0.18,2.327,1.245,2.942c0.868,0.501,1.769,0.26,2.625-0.308
		c0.938-0.651,2.139-1.981,2.167-2.031c0.144-0.249-0.081-0.379-0.155-0.422c-0.248-0.143-0.329-0.058-0.605,0.247
		c-1.149,1.189-2.595,2.605-3.636,2.004c-0.521-0.301-0.582-0.767-0.109-1.586c0.315-0.546,1.287-1.542,1.988-2.297
		c0.739-0.765,1.504-1.516,2.242-2.281c0.29-0.33,1.082-1.13,1.397-1.445c0.454-0.5,1.246-1.301,1.332-1.45
		c0.258-0.446,0.041-0.871-0.331-1.085c-0.125-0.072-0.783-0.418-1.469,0.311c-1.519,1.542-5.118,5.259-6.175,6.403
		c-0.082,0.084-2.221,1.499-4.03,0.454c-1.29-0.745-0.89-2.009-0.357-2.929c0.806-1.396,2.625-2.969,4.252-4.32
		c0.725-0.58,1.047-0.857,1.32-1.331c0.647-1.121,0.387-2.503-0.854-3.219c-2.354-1.359-5.368,1.743-5.499,1.969
		c-0.145,0.25,0.101,0.391,0.15,0.42c0.245,0.142,0.299,0.105,0.652-0.224c1.871-1.823,3.338-2.209,4.272-1.67
		c0.221,0.127,0.599,0.381,0.138,1.178c-0.345,0.598-1.026,1.167-1.386,1.458c-2.312,1.952-3.708,3.206-4.413,4.426
		c-1.366,2.367-0.015,3.977,1.325,4.75c1.638,0.945,3.177,0.341,3.916,0.038"/>
	<path clip-path="url(#SVGID_2_)" d="M190.975,109.965c1.12-1.94,2.582-5.107,2.832-8.709c0.269-3.922-0.94-6.783-1.189-6.927
		c-0.15-0.086-0.311-0.04-0.396,0.109c-0.043,0.075-0.071,0.125,0.143,0.845c1.02,3.872,0.156,8.644-2.845,13.842
		c-2.454,4.251-5.903,8.096-10.799,9.447c-0.497,0.112-0.525,0.163-0.568,0.236c-0.086,0.15-0.044,0.307,0.105,0.393
		c0.25,0.144,3.472-0.251,6.767-2.559C187.875,114.641,189.769,112.054,190.975,109.965"/>
	<path clip-path="url(#SVGID_2_)" d="M190.992,120.537c-0.201,0.189-0.409,0.348-0.581,0.646c-0.476,0.824-0.166,1.891,0.788,2.441
		c1.734,1.001,3.901-0.984,4.055-1.249c0.132-0.229-0.097-0.361-0.148-0.391c-0.244-0.141-0.323-0.044-0.505,0.11
		c-1.217,1.18-2.403,1.459-3.086,1.065c-0.349-0.201-0.304-0.479-0.081-0.865c0.232-0.403,0.547-0.665,0.927-0.959
		c0.448-0.373,0.914-0.735,1.368-1.079c0.401-0.329,1.951-1.56,2.143-1.73c0.154-0.145,0.328-0.324,0.43-0.499
		c0.476-0.823,0.164-1.894-0.791-2.445c-1.721-0.993-3.896,0.927-4.067,1.225c-0.132,0.228,0.113,0.37,0.166,0.4
		c0.244,0.141,0.312,0.063,0.477-0.099c1.326-1.246,2.462-1.434,3.11-1.059c0.279,0.161,0.355,0.394,0.082,0.867
		c-0.232,0.403-0.491,0.604-1.565,1.432 M199.631,113.749c0.159-0.275,0.168-0.772-0.319-1.053c-0.47-0.271-1.232-0.117-1.52,0.381
		c-0.168,0.291-0.148,0.782,0.321,1.053C198.617,114.42,199.364,114.211,199.631,113.749z"/>
	<path clip-path="url(#SVGID_2_)" d="M198.199,128.505c-0.989,1.031-2.496,1.507-3.524,0.913c-0.227-0.131-0.423-0.274-0.588-0.432
		c0.566,0.05,0.945-0.285,1.095-0.546c0.24-0.415,0.041-0.83-0.306-1.03c-0.537-0.311-1.253-0.11-1.568,0.436
		c-0.374,0.647,0.06,1.465,1.104,2.068c1.044,0.603,3.443,1.152,5.208-0.659l5.162-5.324c0.162-0.162,0.289-0.297,0.439-0.558
		c0.553-0.957,0.127-2.11-0.918-2.713c-1.932-1.115-4.452,0.675-4.594,0.921c-0.132,0.228,0.112,0.369,0.164,0.399
		c0.21,0.121,0.257,0.078,0.532-0.114c1.023-0.766,2.56-1.331,3.571-0.747c0.437,0.252,0.422,0.639,0.101,1.196
		c-0.11,0.191-0.287,0.415-0.355,0.491 M208.629,118.943c0.168-0.292,0.149-0.782-0.319-1.053c-0.505-0.292-1.251-0.082-1.519,0.381
		c-0.158,0.274-0.168,0.771,0.319,1.052C207.58,119.595,208.342,119.441,208.629,118.943z"/>
</g>
<circle cx="219.759" cy="20.706" r="5.173"/>
<g>
	<defs>
		<rect id="SVGID_3_" x="228.902" y="7.902" width="31" height="27"/>
	</defs>
	<clipPath id="SVGID_4_">
		<use xlink:href="#SVGID_3_"  overflow="visible"/>
	</clipPath>
	<path clip-path="url(#SVGID_4_)" d="M240.865,22.293c0.395,1.474,1.647,2.407,3.186,2.407c1.254,0,2.078-0.825,2.65-1.974
		c0.609-1.292,1.076-3.482,1.076-3.553c0-0.359-0.325-0.359-0.432-0.359c-0.358,0-0.394,0.144-0.501,0.646
		c-0.501,2.005-1.182,4.441-2.684,4.441c-0.752,0-1.108-0.466-1.108-1.649c0-0.787,0.429-2.473,0.716-3.728
		c0.321-1.29,0.68-2.581,1.002-3.871c0.106-0.538,0.465-1.899,0.608-2.438c0.18-0.824,0.536-2.187,0.536-2.401
		c0-0.646-0.501-0.968-1.036-0.968c-0.18,0-1.109,0.035-1.396,1.255c-0.68,2.616-2.254,8.891-2.683,10.79
		c-0.036,0.143-1.468,3.011-4.079,3.011c-1.861,0-2.218-1.618-2.218-2.948c0-2.014,0.985-4.854,1.901-7.334
		c0.423-1.079,0.599-1.582,0.599-2.265c0-1.618-1.146-2.951-2.936-2.951c-3.4,0-4.723,5.242-4.723,5.568
		c0,0.36,0.354,0.36,0.425,0.36c0.354,0,0.39-0.072,0.567-0.649c0.886-3.143,2.232-4.479,3.579-4.479
		c0.319,0,0.887,0.039,0.887,1.189c0,0.863-0.382,1.904-0.589,2.445c-1.283,3.559-2.012,5.788-2.012,7.55
		c0,3.416,2.471,4.313,4.404,4.313c2.363,0,3.652-1.616,4.261-2.406"/>
	<path clip-path="url(#SVGID_4_)" d="M254.51,30.911c-0.428,1.734-1.761,3.191-3.245,3.191c-0.327,0-0.63-0.033-0.906-0.101
		c0.646-0.3,0.844-0.899,0.844-1.274c0-0.601-0.475-0.925-0.975-0.925c-0.775,0-1.425,0.664-1.425,1.451
		c0,0.935,0.979,1.55,2.486,1.55c1.508,0,4.447-0.904,5.227-3.969l2.261-8.989c0.075-0.276,0.127-0.502,0.127-0.879
		c0-1.382-1.182-2.363-2.69-2.363c-2.789,0-4.397,3.514-4.397,3.868c0,0.329,0.353,0.329,0.428,0.329
		c0.302,0,0.327-0.076,0.504-0.456c0.63-1.47,1.939-3.04,3.399-3.04c0.63,0,0.857,0.428,0.857,1.231
		c0,0.276-0.052,0.628-0.078,0.754 M259.823,14.041c0-0.421-0.327-0.939-1.004-0.939c-0.728,0-1.406,0.693-1.406,1.361
		c0,0.396,0.302,0.939,1.004,0.939C259.096,15.402,259.823,14.76,259.823,14.041z"/>
</g>
<g>
	<defs>
		<rect id="SVGID_5_" x="109.978" y="129.507" width="29" height="23"/>
	</defs>
	<clipPath id="SVGID_6_">
		<use xlink:href="#SVGID_5_"  overflow="visible"/>
	</clipPath>
	<path clip-path="url(#SVGID_6_)" d="M121.94,144.298c0.395,1.473,1.647,2.407,3.186,2.407c1.254,0,2.078-0.825,2.65-1.975
		c0.609-1.292,1.076-3.481,1.076-3.553c0-0.358-0.325-0.358-0.432-0.358c-0.358,0-0.394,0.144-0.501,0.646
		c-0.501,2.005-1.182,4.44-2.684,4.44c-0.752,0-1.108-0.466-1.108-1.648c0-0.788,0.429-2.473,0.716-3.729
		c0.321-1.289,0.68-2.58,1.002-3.87c0.106-0.538,0.465-1.9,0.608-2.438c0.18-0.825,0.536-2.187,0.536-2.402
		c0-0.645-0.501-0.968-1.036-0.968c-0.18,0-1.109,0.036-1.396,1.255c-0.68,2.617-2.254,8.892-2.683,10.79
		c-0.036,0.144-1.468,3.011-4.079,3.011c-1.861,0-2.218-1.617-2.218-2.947c0-2.014,0.985-4.854,1.901-7.334
		c0.423-1.079,0.599-1.582,0.599-2.266c0-1.617-1.146-2.95-2.936-2.95c-3.4,0-4.723,5.241-4.723,5.567
		c0,0.361,0.354,0.361,0.425,0.361c0.354,0,0.39-0.072,0.567-0.65c0.886-3.142,2.232-4.479,3.579-4.479
		c0.319,0,0.887,0.039,0.887,1.188c0,0.863-0.382,1.905-0.589,2.445c-1.283,3.56-2.012,5.789-2.012,7.55
		c0,3.416,2.471,4.314,4.404,4.314c2.363,0,3.652-1.616,4.261-2.407"/>
	<path clip-path="url(#SVGID_6_)" d="M132.902,148.795c-0.1,0.329-0.225,0.632-0.225,1.062c0,1.189,1.002,2.15,2.379,2.15
		c2.504,0,3.608-3.504,3.608-3.885c0-0.331-0.33-0.331-0.404-0.331c-0.354,0-0.378,0.153-0.479,0.434
		c-0.58,2.038-1.688,3.082-2.673,3.082c-0.504,0-0.63-0.329-0.63-0.885c0-0.582,0.177-1.062,0.404-1.619
		c0.252-0.683,0.53-1.366,0.808-2.022c0.227-0.607,1.136-2.908,1.237-3.213c0.076-0.253,0.151-0.556,0.151-0.809
		c0-1.188-1.005-2.152-2.384-2.152c-2.482,0-3.637,3.438-3.637,3.868c0,0.329,0.354,0.329,0.429,0.329
		c0.354,0,0.379-0.127,0.455-0.404c0.657-2.179,1.77-3.091,2.704-3.091c0.404,0,0.632,0.204,0.632,0.888
		c0,0.582-0.154,0.961-0.799,2.528 M138.012,136.046c0-0.396-0.302-0.94-1.004-0.94c-0.679,0-1.406,0.644-1.406,1.361
		c0,0.42,0.326,0.94,1.004,0.94C137.333,137.407,138.012,136.714,138.012,136.046z"/>
</g>
<polygon points="177.29,68.35 178.095,71.085 171.649,72.98 173.546,79.425 170.812,80.229 168.109,71.051 "/>
</svg>
