<?xml version="1.0" encoding="utf-8"?>
<!-- Generator: Adobe Illustrator 14.0.0, SVG Export Plug-In . SVG Version: 6.00 Build 43363)  -->
<!DOCTYPE svg PUBLIC "-//W3C//DTD SVG 1.1//EN" "http://www.w3.org/Graphics/SVG/1.1/DTD/svg11.dtd">
<svg version="1.1" id="Layer_1" xmlns="http://www.w3.org/2000/svg" xmlns:xlink="http://www.w3.org/1999/xlink" x="0px" y="0px"
	 width="241.487px" height="154.492px" viewBox="0 0 241.487 154.492" enable-background="new 0 0 241.487 154.492"
	 xml:space="preserve">
<circle cx="121.403" cy="138.759" r="3.875"/>
<circle cx="121.404" cy="14.052" r="3.875"/>
<circle cx="13.403" cy="76.405" r="3.875"/>
<circle cx="229.404" cy="76.405" r="3.875"/>
<polygon points="114.639,75.397 116.678,73.405 121.37,78.216 126.179,73.524 128.167,75.563 121.32,82.247 "/>
<polygon points="70.009,51.612 67.235,50.958 68.781,44.417 62.242,42.873 62.9,40.101 72.211,42.299 "/>
<polygon points="75.487,104.236 76.308,106.966 69.87,108.897 71.801,115.333 69.072,116.149 66.319,106.986 "/>
<polygon points="167.166,48.71 166.346,45.98 172.783,44.049 170.852,37.613 173.58,36.797 176.334,45.96 "/>
<polygon points="174.149,100.487 176.923,101.142 175.377,107.683 181.916,109.228 181.259,111.999 171.946,109.802 "/>
<g>
	<defs>
		<rect id="SVGID_1_" x="47.57" y="18.799" width="23" height="18"/>
	</defs>
	<clipPath id="SVGID_2_">
		<use xlink:href="#SVGID_1_"  overflow="visible"/>
	</clipPath>
	<path clip-path="url(#SVGID_2_)" d="M50.687,25.1c1.125-4.46,4.097-4.9,4.847-4.9c1.356,0,2.136,0.852,2.136,1.849
		c0,3.052-4.617,3.052-5.801,3.052 M52.044,25.701c0.83,0,2.947-0.053,4.379-0.601c2.002-0.877,2.146-2.604,2.146-3.014
		c0-1.288-1.093-2.487-3.075-2.487c-3.188,0-7.524,2.785-7.524,7.806c0,2.928,1.695,5.193,4.513,5.193
		c4.11,0,6.524-3.027,6.524-3.371c0-0.171-0.173-0.371-0.345-0.371c-0.143,0-0.2,0.059-0.372,0.289C56.028,32,52.906,32,52.562,32
		c-2.234,0-2.492-2.405-2.492-3.321c0-0.344,0.029-1.23,0.458-2.978H52.044z"/>
	<path clip-path="url(#SVGID_2_)" d="M66.771,23.864c0-0.541-0.04-0.563-0.6-0.563c-1.276,1.279-3.094,1.299-3.912,1.299v0.7
		c0.482,0,1.808,0,2.912-0.589v10.264c0,0.664,0,0.925-2.009,0.925H62.4v0.7c0.362-0.02,2.832-0.08,3.575-0.08
		c0.623,0,3.153,0.062,3.595,0.08v-0.7h-0.771c-2.027,0-2.027-0.261-2.027-0.923"/>
</g>
<g>
	<defs>
		<rect id="SVGID_3_" x="113.945" y="96.609" width="23" height="18"/>
	</defs>
	<clipPath id="SVGID_4_">
		<use xlink:href="#SVGID_3_"  overflow="visible"/>
	</clipPath>
	<path clip-path="url(#SVGID_4_)" d="M117.062,102.91c1.125-4.46,4.097-4.9,4.847-4.9c1.356,0,2.136,0.852,2.136,1.849
		c0,3.052-4.617,3.052-5.801,3.052 M118.42,103.511c0.83,0,2.947-0.053,4.379-0.601c2.002-0.877,2.146-2.604,2.146-3.014
		c0-1.288-1.093-2.487-3.075-2.487c-3.188,0-7.524,2.785-7.524,7.806c0,2.928,1.695,5.193,4.513,5.193
		c4.11,0,6.524-3.027,6.524-3.371c0-0.171-0.173-0.371-0.345-0.371c-0.143,0-0.2,0.059-0.372,0.289
		c-2.263,2.854-5.385,2.854-5.729,2.854c-2.234,0-2.492-2.405-2.492-3.321c0-0.344,0.029-1.23,0.458-2.978H118.42z"/>
	<path clip-path="url(#SVGID_4_)" d="M136.545,110.754h-0.68c-0.06,0.443-0.259,1.633-0.519,1.834
		c-0.16,0.121-1.696,0.121-1.977,0.121h-3.672c2.096-1.862,2.794-2.424,3.991-3.364c1.477-1.183,2.854-2.425,2.854-4.327
		c0-2.424-2.11-3.907-4.659-3.907c-2.468,0-4.141,1.74-4.141,3.58c0,1.021,0.853,1.12,1.05,1.12c0.477,0,1.05-0.337,1.05-1.05
		c0-0.357-0.141-1.05-1.19-1.05c0.623-1.45,1.99-1.899,2.935-1.899c2.01,0,3.056,1.567,3.056,3.19c0,1.745-1.241,3.129-1.881,3.853
		l-4.819,4.774c-0.2,0.181-0.2,0.221-0.2,0.781h8.202"/>
</g>
<g>
	<defs>
		<rect id="SVGID_5_" x="47.57" y="114.899" width="23" height="19"/>
	</defs>
	<clipPath id="SVGID_6_">
		<use xlink:href="#SVGID_5_"  overflow="visible"/>
	</clipPath>
	<path clip-path="url(#SVGID_6_)" d="M50.687,121.101c1.125-4.459,4.097-4.9,4.847-4.9c1.356,0,2.136,0.852,2.136,1.848
		c0,3.053-4.617,3.053-5.801,3.053 M52.044,121.7c0.83,0,2.947-0.051,4.379-0.6c2.002-0.877,2.146-2.604,2.146-3.014
		c0-1.289-1.093-2.486-3.075-2.486c-3.188,0-7.524,2.785-7.524,7.805c0,2.928,1.695,5.193,4.513,5.193
		c4.11,0,6.524-3.027,6.524-3.371c0-0.17-0.173-0.371-0.345-0.371c-0.143,0-0.2,0.059-0.372,0.289
		c-2.263,2.854-5.385,2.854-5.729,2.854c-2.234,0-2.492-2.404-2.492-3.32c0-0.344,0.029-1.23,0.458-2.979H52.044z"/>
	<path clip-path="url(#SVGID_6_)" d="M65.565,125.899c1.573,0,2.704,1.092,2.704,3.25c0,2.504-1.451,3.25-2.62,3.25
		c-0.806,0-2.58-0.236-3.426-1.5c0.946-0.039,1.169-0.693,1.169-1.109c0-0.635-0.484-1.09-1.108-1.09
		c-0.563,0-1.129,0.344-1.129,1.17c0,1.898,2.083,3.129,4.507,3.129c2.784,0,4.708-1.861,4.708-3.863
		c0-1.562-1.284-3.125-3.487-3.586c2.104-0.762,2.865-2.264,2.865-3.484c0-1.582-1.824-2.766-4.049-2.766s-3.929,1.068-3.929,2.652
		c0,0.672,0.448,1.047,1.061,1.047c0.632,0,1.04-0.469,1.04-1.039c0-0.592-0.411-1.02-1.049-1.061c0.706-0.799,2.098-1,2.844-1
		c0.908,0,2.18,0.434,2.18,2.148c0,0.828-0.282,1.734-0.808,2.346c-0.666,0.748-1.229,0.787-2.239,0.848
		c-0.504,0.039-0.545,0.039-0.646,0.059c-0.04,0-0.202,0.045-0.202,0.289c0,0.311,0.182,0.311,0.525,0.311"/>
</g>
<polygon opacity="0.2" fill="#1B1F8A" enable-background="new    " points="121.403,14.052 229.403,76.405 121.403,138.759 "/>
<polygon opacity="0.2" fill="#1B1F8A" enable-background="new    " points="121.403,14.052 13.403,76.405 121.403,138.759 "/>
<polyline fill="none" stroke="#000000" stroke-width="1.367" points="121.403,94.405 121.403,14.052 229.403,76.405 
	121.403,138.759 121.403,112.405 "/>
<polyline fill="none" stroke="#000000" stroke-width="1.367" points="121.403,14.052 13.403,76.405 121.403,138.759 "/>
<g>
	<g>
		<path fill="none" stroke="#000000" stroke-width="3" stroke-linecap="round" d="M97.369,90.546
			c-3.618,3.619-8.619,5.857-14.144,5.857c-11.046,0-19.999-8.953-19.999-19.998s8.953-19.999,19.999-19.999
			c11.047,0,20,8.954,20,19.999"/>
		<polygon points="103.226,84.878 98.348,72.938 103.226,75.772 108.103,72.938 		"/>
	</g>
</g>
<g>
	<g>
		<path fill="none" stroke="#000000" stroke-width="3" stroke-linecap="round" d="M169.369,90.546
			c-3.618,3.619-8.619,5.857-14.144,5.857c-11.046,0-19.999-8.953-19.999-19.998s8.953-19.999,19.999-19.999
			c11.047,0,20,8.954,20,19.999"/>
		<polygon points="175.226,84.878 170.348,72.938 175.226,75.772 180.103,72.938 		"/>
	</g>
</g>
<g>
	<defs>
		<rect id="SVGID_7_" x="70.403" y="68.405" width="26" height="17"/>
	</defs>
	<clipPath id="SVGID_8_">
		<use xlink:href="#SVGID_7_"  overflow="visible"/>
	</clipPath>
	<path clip-path="url(#SVGID_8_)" d="M75.358,80.605c-1.408,0-2.557-1.034-2.557-3.103c0-0.861,0.345-3.218,1.35-4.912
		c1.207-1.982,2.93-2.387,3.907-2.387c2.413,0,2.644,1.897,2.644,2.788c0,1.351-0.576,3.706-1.552,5.171
		C78.029,79.858,76.479,80.605,75.358,80.605 M84.767,70.204c0.373,0,1.406,0,1.406-0.996c0-0.704-0.604-0.704-1.121-0.704h-6.536
		c-4.329,0-7.513,4.743-7.513,8.161c0,2.528,1.692,4.539,4.303,4.539c3.384,0,7.197-3.466,7.197-7.877c0-0.486,0-1.861-0.893-3.123
		H84.767z"/>
	<path clip-path="url(#SVGID_8_)" d="M93.005,72.47c0-0.541-0.041-0.563-0.6-0.563c-1.277,1.279-3.094,1.299-3.912,1.299v0.7
		c0.482,0,1.807,0,2.911-0.589V83.58c0,0.664,0,0.925-2.008,0.925h-0.763v0.7c0.361-0.02,2.832-0.08,3.574-0.08
		c0.623,0,3.154,0.062,3.596,0.08v-0.7h-0.771c-2.027,0-2.027-0.261-2.027-0.923"/>
</g>
<g>
	<defs>
		<rect id="SVGID_9_" x="141.403" y="68.405" width="26.744" height="17"/>
	</defs>
	<clipPath id="SVGID_10_">
		<use xlink:href="#SVGID_9_"  overflow="visible"/>
	</clipPath>
	<path clip-path="url(#SVGID_10_)" d="M146.358,80.605c-1.408,0-2.557-1.034-2.557-3.103c0-0.861,0.345-3.218,1.35-4.912
		c1.207-1.982,2.93-2.387,3.907-2.387c2.413,0,2.644,1.897,2.644,2.788c0,1.351-0.576,3.706-1.552,5.171
		C149.029,79.858,147.479,80.605,146.358,80.605 M155.767,70.204c0.373,0,1.406,0,1.406-0.996c0-0.704-0.604-0.704-1.121-0.704
		h-6.536c-4.329,0-7.513,4.743-7.513,8.161c0,2.528,1.692,4.539,4.303,4.539c3.384,0,7.197-3.466,7.197-7.877
		c0-0.486,0-1.861-0.893-3.123H155.767z"/>
	<path clip-path="url(#SVGID_10_)" d="M167.403,81.55h-0.68c-0.061,0.443-0.26,1.633-0.52,1.834
		c-0.16,0.121-1.695,0.121-1.976,0.121h-3.672c2.096-1.862,2.794-2.424,3.991-3.364c1.477-1.183,2.854-2.425,2.854-4.327
		c0-2.424-2.111-3.907-4.659-3.907c-2.468,0-4.141,1.74-4.141,3.58c0,1.021,0.852,1.12,1.05,1.12c0.476,0,1.05-0.337,1.05-1.05
		c0-0.357-0.141-1.05-1.191-1.05c0.623-1.45,1.99-1.899,2.935-1.899c2.01,0,3.056,1.567,3.056,3.19c0,1.745-1.24,3.129-1.881,3.853
		l-4.818,4.774c-0.2,0.181-0.2,0.221-0.2,0.781h8.202"/>
</g>
<g>
	<defs>
		<rect id="SVGID_11_" x="171.003" y="18.799" width="24" height="18"/>
	</defs>
	<clipPath id="SVGID_12_">
		<use xlink:href="#SVGID_11_"  overflow="visible"/>
	</clipPath>
	<path clip-path="url(#SVGID_12_)" d="M174.12,25.1c1.125-4.46,4.097-4.9,4.847-4.9c1.356,0,2.136,0.852,2.136,1.849
		c0,3.052-4.617,3.052-5.801,3.052 M175.478,25.701c0.83,0,2.947-0.053,4.379-0.601c2.002-0.877,2.146-2.604,2.146-3.014
		c0-1.288-1.093-2.487-3.075-2.487c-3.188,0-7.524,2.785-7.524,7.806c0,2.928,1.695,5.193,4.513,5.193
		c4.11,0,6.524-3.027,6.524-3.371c0-0.171-0.173-0.371-0.345-0.371c-0.143,0-0.2,0.059-0.372,0.289
		C179.461,32,176.339,32,175.995,32c-2.234,0-2.492-2.405-2.492-3.321c0-0.344,0.029-1.23,0.458-2.978H175.478z"/>
	<path clip-path="url(#SVGID_12_)" d="M190.303,25.231v7.368h-5.272 M194.128,33.299v-0.7h-2.224v-8.938
		c0-0.421,0-0.562-0.443-0.562c-0.241,0-0.321,0-0.522,0.282l-6.651,9.218v0.7h5.905v1.666c0,0.691,0,0.934-1.627,0.934h-0.543v0.7
		c1.004-0.04,2.289-0.08,3.014-0.08c0.743,0,2.029,0.04,3.033,0.08v-0.7h-0.541c-1.623,0-1.623-0.242-1.623-0.934v-1.666H194.128z"
		/>
</g>
<g>
	<defs>
		<rect id="SVGID_13_" x="171.003" y="114.899" width="23" height="19"/>
	</defs>
	<clipPath id="SVGID_14_">
		<use xlink:href="#SVGID_13_"  overflow="visible"/>
	</clipPath>
	<path clip-path="url(#SVGID_14_)" d="M174.12,121.101c1.125-4.459,4.098-4.9,4.848-4.9c1.355,0,2.135,0.852,2.135,1.848
		c0,3.053-4.617,3.053-5.801,3.053 M175.479,121.7c0.83,0,2.946-0.051,4.378-0.6c2.002-0.877,2.146-2.604,2.146-3.014
		c0-1.289-1.092-2.486-3.074-2.486c-3.188,0-7.525,2.785-7.525,7.805c0,2.928,1.696,5.193,4.514,5.193
		c4.109,0,6.523-3.027,6.523-3.371c0-0.17-0.172-0.371-0.344-0.371c-0.143,0-0.201,0.059-0.373,0.289
		c-2.262,2.854-5.385,2.854-5.729,2.854c-2.234,0-2.492-2.404-2.492-3.32c0-0.344,0.029-1.23,0.459-2.979H175.479z"/>
	<path clip-path="url(#SVGID_14_)" d="M186.603,121.394c1.027,0.207,1.631,0.207,1.953,0.207c2.656,0,4.227-1.768,4.227-2.061
		c0-0.217-0.141-0.275-0.24-0.275c-0.041,0-0.08,0-0.162,0.059c-0.48,0.18-1.543,0.578-3.027,0.578
		c-0.562,0-1.625-0.041-2.928-0.537c-0.201-0.1-0.242-0.1-0.262-0.1c-0.262,0-0.262,0.221-0.262,0.543v5.924
		c0,0.342,0,0.582,0.312,0.582c0.174,0,0.195-0.039,0.389-0.275c0.859-1.08,2.08-1.236,2.779-1.236c1.199,0,1.74,0.965,1.84,1.127
		c0.359,0.662,0.48,1.426,0.48,2.592c0,0.604,0,1.789-0.602,2.674c-0.498,0.723-1.357,1.207-2.336,1.207
		c-1.299,0-2.639-0.742-3.137-2.1c0.758,0.07,1.139-0.434,1.139-0.975c0-0.865-0.74-1.025-1-1.025c-0.039,0-0.998,0-0.998,1.084
		c0,1.809,1.639,3.615,4.037,3.615c2.559,0,4.797-1.908,4.797-4.439c0-2.271-1.721-4.361-4.199-4.361
		c-0.881,0-1.92,0.221-2.799,0.988"/>
</g>
</svg>
