<?xml version="1.0" encoding="utf-8"?>
<!-- Generator: Adobe Illustrator 14.0.0, SVG Export Plug-In . SVG Version: 6.00 Build 43363)  -->
<!DOCTYPE svg PUBLIC "-//W3C//DTD SVG 1.1//EN" "http://www.w3.org/Graphics/SVG/1.1/DTD/svg11.dtd">
<svg version="1.1" id="Layer_1" xmlns="http://www.w3.org/2000/svg" xmlns:xlink="http://www.w3.org/1999/xlink" x="0px" y="0px"
	 width="425.979px" height="232.489px" viewBox="0 0 425.979 232.489" enable-background="new 0 0 425.979 232.489"
	 xml:space="preserve">
<linearGradient id="SVGID_1_" gradientUnits="userSpaceOnUse" x1="214.0103" y1="214.9028" x2="214.0102" y2="13.3481">
	<stop  offset="0" style="stop-color:#FFFFFF"/>
	<stop  offset="1" style="stop-color:#1B1F8A"/>
</linearGradient>
<polygon opacity="0.6" fill="url(#SVGID_1_)" enable-background="new    " points="13.73,214.903 414.291,214.903 299.48,13.348 "/>
<polygon fill="none" stroke="#000000" stroke-width="1.8889" enable-background="new    " points="13.73,214.903 414.291,214.903 
	299.48,13.348 "/>
<path fill="none" stroke="#000000" stroke-width="1.8889" d="M78.73,214.903c0-13.955-4.397-26.883-11.882-37.473"/>
<path fill="none" stroke="#000000" stroke-width="1.8889" d="M390.363,172.898c-14.579,8.322-24.406,24.017-24.406,42.005"/>
<g>
	<defs>
		<rect id="SVGID_2_" x="81.899" y="182.903" width="17" height="14"/>
	</defs>
	<clipPath id="SVGID_3_">
		<use xlink:href="#SVGID_2_"  overflow="visible"/>
	</clipPath>
	<path clip-path="url(#SVGID_3_)" d="M92.797,193.463c-2.506,2.222-4.698,2.538-5.836,2.538c-1.708,0-2.562-1.298-2.562-3.144
		c0-1.414,0.745-4.529,1.663-6c1.347-2.106,2.895-2.655,3.897-2.655c2.84,0,2.84,3.78,2.84,6.03c0,1.066,0,2.74,0,3.23
		 M94.698,189.531c0-4.516-2.646-5.928-4.75-5.928c-3.895,0-7.647,4.104-7.647,8.149c0,2.668,1.719,4.85,4.64,4.85
		c1.805,0,3.867-0.655,6.044-2.395c0.372,1.512,1.318,2.395,2.607,2.395c1.518,0,2.409-1.567,2.409-2.023
		c0-0.199-0.178-0.286-0.354-0.286c-0.206,0-0.295,0.087-0.383,0.29C96.733,196,95.672,196,95.613,196
		c-0.914,0-0.914-2.242-0.914-2.934c0-0.604,0-0.662,0.294-1.007c2.762-3.395,3.38-6.73,3.38-6.759c0-0.058-0.029-0.288-0.353-0.288
		c-0.294,0-0.294,0.086-0.441,0.604c-0.528,1.812-1.499,3.998-2.88,5.695L94.698,189.531z"/>
</g>
<g>
	<defs>
		<rect id="SVGID_4_" x="350.899" y="171.903" width="17" height="27"/>
	</defs>
	<clipPath id="SVGID_5_">
		<use xlink:href="#SVGID_4_"  overflow="visible"/>
	</clipPath>
	<path clip-path="url(#SVGID_5_)" d="M363.293,180.924c-0.803-0.321-1.719-0.321-1.977-0.321c-0.688,0-2.234,0-2.234,0.938
		c0,0.763,1.261,0.763,1.947,0.763c0.401,0,1.231,0,2.148-0.375c0.63,0.662,0.858,1.492,0.858,2.408c0,1.146-0.573,3.84-1.402,5.415
		c-0.659,1.203-2.119,2.951-4.182,2.951c-2.549,0-4.009-1.892-4.009-4.186c0-0.688,0.114-1.118,0.372-2.15
		c0.258-1.061,1.146-4.645,1.317-5.304c1.346-5.305,4.754-7.659,7.302-7.659c0.858,0,2.063,0.432,2.063,2.326
		c0,0.688-0.346,3.788-2.207,5.194 M359.81,181.489c0.287-0.179,0.487-0.286,1.463-0.286c0.43,0,0.774,0,1.147,0.214
		c-0.516,0.286-1.147,0.286-1.377,0.286C360.326,181.703,360.297,181.703,359.81,181.489z M351.202,197.885
		c-0.029,0.114-0.086,0.287-0.086,0.431c0,0.287,0.286,0.287,0.344,0.287c0.144,0,0.2-0.029,0.286-0.115
		c0.144-0.144,0.945-3.831,2.177-8.498c0.43,1.642,1.919,3.312,4.582,3.312c3.78,0,7.617-3.83,7.617-7.89
		c0-2.03-0.916-3.288-1.919-3.973c1.977-1.201,3.098-3.23,3.098-4.974c0-1.858-1.321-3.661-3.841-3.661
		c-3.724,0-6.959,3.936-7.904,7.694L351.202,197.885z"/>
</g>
<polygon fill="none" stroke="#000000" stroke-width="1.8889" enable-background="new    " points="13.73,214.903 414.291,214.903 
	299.48,13.348 "/>
<circle fill="#231F20" cx="299.48" cy="13.348" r="5.086"/>
</svg>
