<?xml version="1.0" encoding="utf-8"?>
<!-- Generator: Adobe Illustrator 14.0.0, SVG Export Plug-In . SVG Version: 6.00 Build 43363)  -->
<!DOCTYPE svg PUBLIC "-//W3C//DTD SVG 1.1//EN" "http://www.w3.org/Graphics/SVG/1.1/DTD/svg11.dtd">
<svg version="1.1" id="Layer_1" xmlns="http://www.w3.org/2000/svg" xmlns:xlink="http://www.w3.org/1999/xlink" x="0px" y="0px"
	 width="439.479px" height="257.084px" viewBox="0 0 439.479 257.084" enable-background="new 0 0 439.479 257.084"
	 xml:space="preserve">
<polygon opacity="0.2" fill="#1B1F8A" enable-background="new    " points="24.23,216 424.79,216 309.979,14.445 "/>
<polygon fill="none" stroke="#000000" stroke-width="1.8889" enable-background="new    " points="24.23,216 424.79,216 
	309.979,14.445 "/>
<path fill="none" stroke="#000000" stroke-width="1.8889" d="M280.865,34.076c6.31,9.34,16.994,15.479,29.114,15.48
	c6.324,0,12.257-1.672,17.382-4.598"/>
<g>
	<defs>
		<rect id="SVGID_1_" x="293.954" y="55.185" width="13" height="21.92"/>
	</defs>
	<clipPath id="SVGID_2_">
		<use xlink:href="#SVGID_1_"  overflow="visible"/>
	</clipPath>
	<path clip-path="url(#SVGID_2_)" d="M303.339,66.684c-0.316,1.323-0.919,3.767-2.009,5.837c-1.004,1.955-2.094,3.363-3.327,3.363
		c-0.946,0-1.549-0.834-1.549-3.507c0-1.207,0.172-2.875,0.918-5.693 M297.6,65.784c0.49-1.839,1.068-4.139,2.222-6.179
		c0.779-1.409,1.847-3.02,3.145-3.02c1.414,0,1.588,1.841,1.588,3.479c0,1.408-0.231,2.874-0.924,5.721L297.6,65.784z
		 M306.454,61.854c0-1.889-0.52-5.869-3.458-5.869c-4.005,0-8.441,8.074-8.441,14.63c0,2.691,0.836,5.869,3.457,5.869
		C302.075,76.484,306.454,68.268,306.454,61.854z"/>
</g>
<circle fill="#231F20" cx="24.23" cy="216" r="5.086"/>
<circle fill="#231F20" cx="424.79" cy="216" r="5.086"/>
<g>
	<defs>
		<rect id="SVGID_3_" x="11.144" y="224.085" width="9" height="20"/>
	</defs>
	<clipPath id="SVGID_4_">
		<use xlink:href="#SVGID_3_"  overflow="visible"/>
	</clipPath>
	<path clip-path="url(#SVGID_4_)" d="M16.824,236.039c0.35-0.834,0.35-0.892,0.641-1.668c0.232-0.575,0.379-0.979,0.379-1.524
		c0-1.295-0.923-2.361-2.364-2.361c-2.708,0-3.803,4.177-3.803,4.436c0,0.288,0.29,0.288,0.348,0.288
		c0.29,0,0.319-0.058,0.464-0.522c0.783-2.729,1.944-3.602,2.929-3.602c0.232,0,0.727,0,0.727,0.923c0,0.604-0.204,1.208-0.32,1.496
		c-0.232,0.748-1.542,4.084-2.009,5.321c-0.291,0.748-0.67,1.697-0.67,2.301c0,1.352,0.975,2.359,2.351,2.359
		c2.694,0,3.754-4.146,3.754-4.402c0-0.287-0.259-0.287-0.346-0.287c-0.288,0-0.288,0.087-0.432,0.52
		c-0.518,1.813-1.469,3.57-2.938,3.57c-0.489,0-0.69-0.288-0.69-0.949c0-0.719,0.175-1.121,0.844-2.875 M18.992,225.237
		c0-0.584-0.401-1.053-1.061-1.053c-0.775,0-1.55,0.76-1.55,1.549c0,0.555,0.401,1.051,1.09,1.051
		C18.131,226.784,18.992,226.113,18.992,225.237L18.992,225.237z"/>
</g>
<g>
	<defs>
		<rect id="SVGID_5_" x="418.29" y="224.282" width="13" height="25.8"/>
	</defs>
	<clipPath id="SVGID_6_">
		<use xlink:href="#SVGID_5_"  overflow="visible"/>
	</clipPath>
	<path clip-path="url(#SVGID_6_)" d="M424.7,244.845c-0.544,2.192-1.917,3.836-3.519,3.836c-0.172,0-0.602,0-1.117-0.3
		c0.816-0.198,1.225-0.937,1.225-1.505c0-0.454-0.311-0.994-1.074-0.994c-0.707,0-1.525,0.601-1.525,1.629
		c0,1.144,1.146,1.771,2.523,1.771c2.008,0,4.675-1.523,5.392-4.369l2.638-10.519c0.146-0.575,0.146-0.978,0.146-1.064
		c0-1.638-1.199-2.647-2.629-2.647c-2.913,0-4.542,4.177-4.542,4.436c0,0.288,0.285,0.288,0.342,0.288
		c0.258,0,0.287-0.029,0.514-0.58c0.715-1.771,2.03-3.543,3.601-3.543c0.4,0,0.915,0.117,0.915,1.329
		c0,0.663-0.086,0.98-0.201,1.471 M430.481,225.435c0-0.556-0.402-1.053-1.092-1.053c-0.66,0-1.52,0.672-1.52,1.549
		c0,0.584,0.402,1.051,1.062,1.051C429.707,226.981,430.482,226.222,430.481,225.435L430.481,225.435z"/>
</g>
</svg>
