<?xml version="1.0" encoding="utf-8"?>
<!-- Generator: Adobe Illustrator 14.0.0, SVG Export Plug-In . SVG Version: 6.00 Build 43363)  -->
<!DOCTYPE svg PUBLIC "-//W3C//DTD SVG 1.1//EN" "http://www.w3.org/Graphics/SVG/1.1/DTD/svg11.dtd">
<svg version="1.1" id="Layer_1" xmlns="http://www.w3.org/2000/svg" xmlns:xlink="http://www.w3.org/1999/xlink" x="0px" y="0px"
	 width="729px" height="311px" viewBox="0 0 729 311" enable-background="new 0 0 729 311" xml:space="preserve">
<g>
	<polygon opacity="0.2" fill="#1B1F8A" enable-background="new    " points="12.168,255 129.948,51 247.728,255 	"/>
	<polygon opacity="0.2" fill="none" enable-background="new    " points="365.508,51 247.73,255 129.949,51 	"/>
	
		<polygon fill="none" stroke="#000000" stroke-width="1.8889" stroke-linecap="round" stroke-linejoin="round" enable-background="new    " points="
		12.168,255 129.948,51 247.728,255 	"/>
	
		<polygon fill="none" stroke="#000000" stroke-width="1.8889" stroke-linecap="round" stroke-linejoin="round" enable-background="new    " points="
		365.508,51 247.73,255 129.949,51 	"/>
	<g>
		<g>
			
				<line fill="none" stroke="#000000" stroke-width="1.4167" stroke-linecap="round" stroke-linejoin="round" x1="218.185" y1="136.5" x2="188.931" y2="153.16"/>
			<polygon points="226.876,131.55 217.478,143.53 217.536,136.87 211.779,133.522 			"/>
		</g>
	</g>
	<g>
		<g>
			
				<line fill="none" stroke="#000000" stroke-width="1.4167" stroke-linecap="round" stroke-linejoin="round" x1="130.078" y1="255" x2="130.078" y2="289.125"/>
			<polygon points="130.078,299.127 124.319,285.032 130.078,288.377 135.835,285.032 			"/>
		</g>
	</g>
	<g>
		<g>
			
				<line fill="none" stroke="#000000" stroke-width="1.4167" stroke-linecap="round" stroke-linejoin="round" x1="41.289" y1="135.562" x2="71.166" y2="152.812"/>
			<polygon points="32.627,130.561 47.713,132.622 41.937,135.937 41.955,142.596 			"/>
		</g>
	</g>
	<g>
		<defs>
			<rect id="SVGID_1_" x="118.448" y="177.242" width="23" height="17"/>
		</defs>
		<clipPath id="SVGID_2_">
			<use xlink:href="#SVGID_1_"  overflow="visible"/>
		</clipPath>
		<path clip-path="url(#SVGID_2_)" d="M123.203,189.442c-1.408,0-2.557-1.034-2.557-3.103c0-0.861,0.345-3.218,1.35-4.912
			c1.207-1.982,2.931-2.387,3.907-2.387c2.413,0,2.644,1.897,2.644,2.788c0,1.351-0.575,3.706-1.552,5.171
			C125.874,188.695,124.323,189.442,123.203,189.442 M132.611,179.041c0.373,0,1.406,0,1.406-0.996c0-0.704-0.604-0.704-1.12-0.704
			h-6.537c-4.329,0-7.512,4.743-7.512,8.161c0,2.528,1.691,4.539,4.302,4.539c3.384,0,7.198-3.466,7.198-7.877
			c0-0.486,0-1.861-0.894-3.123H132.611z"/>
		<path clip-path="url(#SVGID_2_)" d="M136.623,191.69c-0.078,0.261-0.175,0.502-0.175,0.844c0,0.944,0.791,1.707,1.88,1.707
			c1.979,0,2.851-2.771,2.851-3.071c0-0.261-0.262-0.261-0.321-0.261c-0.281,0-0.302,0.119-0.381,0.337
			c-0.461,1.584-1.343,2.396-2.125,2.396c-0.401,0-0.502-0.262-0.502-0.703c0-0.462,0.136-0.844,0.311-1.286
			c0.194-0.542,0.408-1.085,0.621-1.607c0.175-0.481,0.873-2.311,0.951-2.552c0.058-0.201,0.116-0.441,0.116-0.643
			c0-0.945-0.793-1.709-1.883-1.709c-1.962,0-2.873,2.767-2.873,3.111c0,0.265,0.281,0.265,0.342,0.265
			c0.281,0,0.301-0.101,0.361-0.322c0.522-1.73,1.406-2.454,2.149-2.454c0.321,0,0.503,0.162,0.503,0.705
			c0,0.462-0.116,0.763-0.599,2.009 M140.655,181.519c0-0.327-0.241-0.777-0.804-0.777c-0.542,0-1.125,0.531-1.125,1.124
			c0,0.348,0.261,0.777,0.804,0.777C140.112,182.643,140.655,182.07,140.655,181.519z"/>
	</g>
	<g>
		<defs>
			<rect id="SVGID_3_" x="234.081" y="109.342" width="25" height="22"/>
		</defs>
		<clipPath id="SVGID_4_">
			<use xlink:href="#SVGID_3_"  overflow="visible"/>
		</clipPath>
		<path clip-path="url(#SVGID_4_)" d="M238.536,122.441c-1.408,0-2.557-1.033-2.557-3.102c0-0.862,0.345-3.218,1.35-4.913
			c1.207-1.981,2.93-2.386,3.907-2.386c2.413,0,2.644,1.896,2.644,2.788c0,1.35-0.576,3.706-1.552,5.171
			C241.207,121.695,239.656,122.441,238.536,122.441 M247.944,112.041c0.373,0,1.406,0,1.406-0.996c0-0.704-0.604-0.704-1.121-0.704
			h-6.536c-4.329,0-7.513,4.743-7.513,8.161c0,2.527,1.692,4.539,4.303,4.539c3.384,0,7.197-3.467,7.197-7.877
			c0-0.487,0-1.862-0.893-3.123H247.944z"/>
		<path clip-path="url(#SVGID_4_)" d="M254.072,127.998c-0.345,1.382-1.42,2.544-2.616,2.544c-0.264,0-0.507-0.033-0.73-0.099
			c0.502-0.246,0.655-0.736,0.655-1.044c0-0.49-0.376-0.757-0.771-0.757c-0.613,0-1.128,0.555-1.128,1.209
			c0,0.779,0.785,1.291,1.994,1.291s3.566-0.725,4.191-3.184l1.812-7.215c0.062-0.223,0.103-0.403,0.103-0.705
			c0-1.108-0.948-1.896-2.159-1.896c-2.238,0-3.531,2.828-3.531,3.112c0,0.264,0.285,0.264,0.347,0.264
			c0.244,0,0.264-0.06,0.407-0.361c0.508-1.168,1.565-2.414,2.744-2.414c0.509,0,0.692,0.342,0.692,0.982
			c0,0.221-0.041,0.501-0.062,0.602 M258.297,114.518c0-0.347-0.261-0.777-0.804-0.777c-0.582,0-1.125,0.572-1.125,1.125
			c0,0.326,0.241,0.776,0.803,0.776C257.714,115.642,258.296,115.111,258.297,114.518L258.297,114.518z"/>
	</g>
</g>
<g>
	<polygon opacity="0.2" fill="none" enable-background="new    " points="365.509,255 483.288,51 601.068,255 	"/>
	<polygon opacity="0.2" fill="#1B1F8A" enable-background="new    " points="718.849,51 601.07,255 483.289,51 	"/>
	
		<polygon fill="none" stroke="#000000" stroke-width="1.8889" stroke-linecap="round" stroke-linejoin="round" enable-background="new    " points="
		365.509,255 483.288,51 601.068,255 	"/>
	
		<polygon fill="none" stroke="#000000" stroke-width="1.8889" stroke-linecap="round" stroke-linejoin="round" enable-background="new    " points="
		718.849,51 601.07,255 483.289,51 	"/>
	<g>
		<g>
			
				<line fill="none" stroke="#000000" stroke-width="1.4167" stroke-linecap="round" stroke-linejoin="round" x1="542.305" y1="153.215" x2="512.831" y2="170"/>
			<polygon points="504.139,174.95 513.538,162.971 513.48,169.63 519.237,172.979 			"/>
		</g>
	</g>
	<g>
		<g>
			
				<line fill="none" stroke="#000000" stroke-width="1.4167" stroke-linecap="round" stroke-linejoin="round" x1="659.635" y1="153.563" x2="689.728" y2="170.938"/>
			<polygon points="698.39,175.938 683.304,173.878 689.08,170.563 689.062,163.904 			"/>
		</g>
	</g>
	<g>
		<g>
			
				<line fill="none" stroke="#000000" stroke-width="1.4167" stroke-linecap="round" stroke-linejoin="round" x1="601.068" y1="17.375" x2="601.068" y2="51"/>
			<polygon points="601.068,7.373 606.827,21.468 601.068,18.123 595.311,21.468 			"/>
		</g>
	</g>
	<g>
		<defs>
			<rect id="SVGID_5_" x="471.988" y="177.242" width="23" height="17"/>
		</defs>
		<clipPath id="SVGID_6_">
			<use xlink:href="#SVGID_5_"  overflow="visible"/>
		</clipPath>
		<path clip-path="url(#SVGID_6_)" d="M476.744,189.442c-1.408,0-2.557-1.034-2.557-3.103c0-0.861,0.344-3.218,1.35-4.912
			c1.207-1.982,2.93-2.387,3.906-2.387c2.414,0,2.645,1.897,2.645,2.788c0,1.351-0.576,3.706-1.553,5.171
			C479.414,188.695,477.863,189.442,476.744,189.442 M486.152,179.041c0.373,0,1.406,0,1.406-0.996c0-0.704-0.605-0.704-1.121-0.704
			H479.9c-4.328,0-7.512,4.743-7.512,8.161c0,2.528,1.691,4.539,4.303,4.539c3.383,0,7.197-3.466,7.197-7.877
			c0-0.486,0-1.861-0.893-3.123H486.152z"/>
		<path clip-path="url(#SVGID_6_)" d="M490.164,191.69c-0.078,0.261-0.176,0.502-0.176,0.844c0,0.944,0.791,1.707,1.881,1.707
			c1.979,0,2.85-2.771,2.85-3.071c0-0.261-0.262-0.261-0.32-0.261c-0.281,0-0.303,0.119-0.381,0.337
			c-0.461,1.584-1.344,2.396-2.125,2.396c-0.402,0-0.502-0.262-0.502-0.703c0-0.462,0.135-0.844,0.311-1.286
			c0.193-0.542,0.408-1.085,0.621-1.607c0.174-0.481,0.873-2.311,0.951-2.552c0.057-0.201,0.115-0.441,0.115-0.643
			c0-0.945-0.793-1.709-1.883-1.709c-1.961,0-2.873,2.767-2.873,3.111c0,0.265,0.281,0.265,0.342,0.265
			c0.281,0,0.301-0.101,0.361-0.322c0.523-1.73,1.406-2.454,2.15-2.454c0.32,0,0.502,0.162,0.502,0.705
			c0,0.462-0.115,0.763-0.598,2.009 M494.195,181.519c0-0.327-0.24-0.777-0.803-0.777c-0.543,0-1.125,0.531-1.125,1.124
			c0,0.348,0.26,0.777,0.803,0.777C493.652,182.643,494.195,182.07,494.195,181.519z"/>
	</g>
	<g>
		<defs>
			<rect id="SVGID_7_" x="587.621" y="109.342" width="25" height="22"/>
		</defs>
		<clipPath id="SVGID_8_">
			<use xlink:href="#SVGID_7_"  overflow="visible"/>
		</clipPath>
		<path clip-path="url(#SVGID_8_)" d="M592.076,122.441c-1.408,0-2.557-1.033-2.557-3.102c0-0.862,0.345-3.218,1.35-4.913
			c1.207-1.981,2.93-2.386,3.907-2.386c2.413,0,2.644,1.896,2.644,2.788c0,1.35-0.576,3.706-1.552,5.171
			C594.747,121.695,593.196,122.441,592.076,122.441 M601.484,112.041c0.373,0,1.406,0,1.406-0.996c0-0.704-0.604-0.704-1.121-0.704
			h-6.536c-4.329,0-7.513,4.743-7.513,8.161c0,2.527,1.692,4.539,4.303,4.539c3.384,0,7.197-3.467,7.197-7.877
			c0-0.487,0-1.862-0.893-3.123H601.484z"/>
		<path clip-path="url(#SVGID_8_)" d="M607.612,127.998c-0.345,1.382-1.42,2.544-2.616,2.544c-0.264,0-0.507-0.033-0.73-0.099
			c0.502-0.246,0.655-0.736,0.655-1.044c0-0.49-0.376-0.757-0.771-0.757c-0.613,0-1.128,0.555-1.128,1.209
			c0,0.779,0.785,1.291,1.994,1.291s3.566-0.725,4.191-3.184l1.812-7.215c0.062-0.223,0.103-0.403,0.103-0.705
			c0-1.108-0.948-1.896-2.159-1.896c-2.238,0-3.531,2.828-3.531,3.112c0,0.264,0.285,0.264,0.347,0.264
			c0.244,0,0.264-0.06,0.407-0.361c0.508-1.168,1.565-2.414,2.744-2.414c0.509,0,0.692,0.342,0.692,0.982
			c0,0.221-0.041,0.501-0.062,0.602 M611.838,114.518c0-0.347-0.261-0.777-0.804-0.777c-0.582,0-1.125,0.572-1.125,1.125
			c0,0.326,0.241,0.776,0.803,0.776C611.255,115.642,611.837,115.111,611.838,114.518L611.838,114.518z"/>
	</g>
</g>
<g>
	<defs>
		<rect id="SVGID_9_" x="138" y="280" width="25" height="21"/>
	</defs>
	<clipPath id="SVGID_10_">
		<use xlink:href="#SVGID_9_"  overflow="visible"/>
	</clipPath>
	<path clip-path="url(#SVGID_10_)" d="M158.891,283.523c0.287-1.146,0.804-2.035,3.1-2.125c0.143,0,0.488-0.028,0.488-0.579
		c0-0.029,0-0.32-0.373-0.32c-0.946,0-1.951,0.086-2.898,0.086c-0.977,0-1.98-0.086-2.927-0.086c-0.173,0-0.517,0-0.517,0.58
		c0,0.319,0.287,0.319,0.517,0.319c1.635,0.028,1.95,0.632,1.95,1.262c0,0.086-0.057,0.516-0.086,0.602l-3.214,12.762l-6.341-14.977
		c-0.229-0.516-0.259-0.549-0.918-0.549h-3.845c-0.574,0-0.832,0-0.832,0.58c0,0.318,0.258,0.318,0.804,0.318
		c0.144,0,1.951,0,1.951,0.26l-3.845,15.393c-0.287,1.146-0.775,2.064-3.1,2.15c-0.172,0-0.486,0.029-0.486,0.58
		c0,0.203,0.143,0.318,0.373,0.318c0.918,0,1.922-0.086,2.868-0.086c0.976,0,2.009,0.086,2.955,0.086c0.145,0,0.517,0,0.517-0.58
		c0-0.289-0.259-0.318-0.574-0.318c-1.664-0.057-1.894-0.688-1.894-1.262c0-0.201,0.029-0.345,0.114-0.659l3.788-15.142
		c0.115,0.172,0.115,0.23,0.258,0.517l7.146,16.899c0.201,0.488,0.287,0.545,0.545,0.545c0.315,0,0.315-0.086,0.459-0.602"/>
</g>
<g>
	<defs>
		<rect id="SVGID_11_" x="565.46" y="6.875" width="25" height="21"/>
	</defs>
	<clipPath id="SVGID_12_">
		<use xlink:href="#SVGID_11_"  overflow="visible"/>
	</clipPath>
	<path clip-path="url(#SVGID_12_)" d="M586.351,10.398c0.287-1.146,0.804-2.035,3.1-2.125c0.143,0,0.488-0.028,0.488-0.579
		c0-0.029,0-0.32-0.373-0.32c-0.946,0-1.951,0.086-2.898,0.086c-0.977,0-1.98-0.086-2.927-0.086c-0.173,0-0.517,0-0.517,0.58
		c0,0.319,0.287,0.319,0.517,0.319c1.635,0.028,1.95,0.632,1.95,1.262c0,0.086-0.057,0.516-0.086,0.602l-3.214,12.762L576.05,7.922
		c-0.229-0.516-0.259-0.549-0.918-0.549h-3.845c-0.574,0-0.832,0-0.832,0.58c0,0.318,0.258,0.318,0.804,0.318
		c0.144,0,1.951,0,1.951,0.26l-3.845,15.393c-0.287,1.146-0.775,2.064-3.1,2.15c-0.172,0-0.486,0.029-0.486,0.58
		c0,0.203,0.143,0.318,0.373,0.318c0.918,0,1.922-0.086,2.868-0.086c0.976,0,2.009,0.086,2.955,0.086c0.145,0,0.517,0,0.517-0.58
		c0-0.289-0.259-0.318-0.574-0.318c-1.664-0.057-1.894-0.688-1.894-1.262c0-0.201,0.029-0.345,0.114-0.659l3.788-15.142
		c0.115,0.172,0.115,0.23,0.258,0.517l7.146,16.899c0.201,0.488,0.287,0.545,0.545,0.545c0.315,0,0.315-0.086,0.459-0.602"/>
</g>
<g>
	<defs>
		<rect id="SVGID_13_" x="31.228" y="103.837" width="25" height="21"/>
	</defs>
	<clipPath id="SVGID_14_">
		<use xlink:href="#SVGID_13_"  overflow="visible"/>
	</clipPath>
	<path clip-path="url(#SVGID_14_)" d="M52.118,107.36c0.287-1.146,0.804-2.035,3.1-2.125c0.143,0,0.488-0.028,0.488-0.579
		c0-0.029,0-0.32-0.373-0.32c-0.946,0-1.951,0.086-2.898,0.086c-0.977,0-1.98-0.086-2.927-0.086c-0.173,0-0.517,0-0.517,0.58
		c0,0.319,0.287,0.319,0.517,0.319c1.635,0.028,1.95,0.632,1.95,1.262c0,0.086-0.057,0.516-0.086,0.602l-3.214,12.762l-6.341-14.977
		c-0.229-0.516-0.259-0.549-0.918-0.549h-3.845c-0.574,0-0.832,0-0.832,0.58c0,0.318,0.258,0.318,0.804,0.318
		c0.144,0,1.951,0,1.951,0.26l-3.845,15.393c-0.287,1.146-0.775,2.064-3.1,2.15c-0.172,0-0.486,0.029-0.486,0.58
		c0,0.203,0.143,0.318,0.373,0.318c0.918,0,1.922-0.086,2.868-0.086c0.976,0,2.009,0.086,2.955,0.086c0.145,0,0.517,0,0.517-0.58
		c0-0.289-0.259-0.318-0.574-0.318c-1.664-0.057-1.894-0.688-1.894-1.262c0-0.201,0.029-0.345,0.114-0.659l3.788-15.142
		c0.115,0.172,0.115,0.23,0.258,0.517l7.146,16.899c0.201,0.488,0.287,0.545,0.545,0.545c0.315,0,0.315-0.086,0.459-0.602"/>
</g>
<g>
	<defs>
		<rect id="SVGID_15_" x="665.181" y="180.242" width="25" height="21"/>
	</defs>
	<clipPath id="SVGID_16_">
		<use xlink:href="#SVGID_15_"  overflow="visible"/>
	</clipPath>
	<path clip-path="url(#SVGID_16_)" d="M686.071,183.766c0.287-1.146,0.804-2.035,3.1-2.125c0.143,0,0.488-0.028,0.488-0.579
		c0-0.029,0-0.32-0.373-0.32c-0.946,0-1.951,0.086-2.898,0.086c-0.977,0-1.98-0.086-2.927-0.086c-0.173,0-0.517,0-0.517,0.58
		c0,0.319,0.287,0.319,0.517,0.319c1.635,0.028,1.95,0.632,1.95,1.262c0,0.086-0.057,0.516-0.086,0.602l-3.214,12.762l-6.341-14.977
		c-0.229-0.516-0.259-0.549-0.918-0.549h-3.845c-0.574,0-0.832,0-0.832,0.58c0,0.318,0.258,0.318,0.804,0.318
		c0.144,0,1.951,0,1.951,0.26l-3.845,15.393c-0.287,1.146-0.775,2.064-3.1,2.15c-0.172,0-0.486,0.029-0.486,0.58
		c0,0.203,0.143,0.318,0.373,0.318c0.918,0,1.922-0.086,2.868-0.086c0.976,0,2.009,0.086,2.955,0.086c0.145,0,0.517,0,0.517-0.58
		c0-0.289-0.259-0.318-0.574-0.318c-1.664-0.057-1.894-0.688-1.894-1.262c0-0.201,0.029-0.345,0.114-0.659l3.788-15.142
		c0.115,0.172,0.115,0.23,0.258,0.517l7.146,16.899c0.201,0.488,0.287,0.545,0.545,0.545c0.315,0,0.315-0.086,0.459-0.602"/>
</g>
<g>
	<defs>
		<rect id="SVGID_17_" x="209.18" y="149.576" width="25" height="21"/>
	</defs>
	<clipPath id="SVGID_18_">
		<use xlink:href="#SVGID_17_"  overflow="visible"/>
	</clipPath>
	<path clip-path="url(#SVGID_18_)" d="M230.071,153.099c0.287-1.146,0.804-2.035,3.1-2.125c0.143,0,0.488-0.028,0.488-0.579
		c0-0.029,0-0.32-0.373-0.32c-0.946,0-1.951,0.086-2.898,0.086c-0.977,0-1.98-0.086-2.927-0.086c-0.173,0-0.517,0-0.517,0.58
		c0,0.319,0.287,0.319,0.517,0.319c1.635,0.028,1.95,0.632,1.95,1.262c0,0.086-0.057,0.516-0.086,0.602l-3.214,12.762l-6.341-14.977
		c-0.229-0.516-0.259-0.549-0.918-0.549h-3.845c-0.574,0-0.832,0-0.832,0.58c0,0.318,0.258,0.318,0.804,0.318
		c0.144,0,1.951,0,1.951,0.26l-3.845,15.393c-0.287,1.146-0.775,2.064-3.1,2.15c-0.172,0-0.486,0.029-0.486,0.58
		c0,0.203,0.143,0.318,0.373,0.318c0.918,0,1.922-0.086,2.868-0.086c0.976,0,2.009,0.086,2.955,0.086c0.145,0,0.517,0,0.517-0.58
		c0-0.289-0.259-0.318-0.574-0.318c-1.664-0.057-1.894-0.689-1.894-1.262c0-0.201,0.029-0.346,0.114-0.66l3.788-15.141
		c0.115,0.172,0.115,0.23,0.258,0.517l7.146,16.9c0.201,0.488,0.287,0.545,0.545,0.545c0.315,0,0.315-0.086,0.459-0.602"/>
</g>
<g>
	<defs>
		<rect id="SVGID_19_" x="499.181" y="136.909" width="25" height="21.001"/>
	</defs>
	<clipPath id="SVGID_20_">
		<use xlink:href="#SVGID_19_"  overflow="visible"/>
	</clipPath>
	<path clip-path="url(#SVGID_20_)" d="M520.071,140.433c0.287-1.146,0.804-2.035,3.1-2.125c0.143,0,0.488-0.028,0.488-0.579
		c0-0.029,0-0.32-0.373-0.32c-0.946,0-1.951,0.086-2.898,0.086c-0.977,0-1.98-0.086-2.927-0.086c-0.173,0-0.517,0-0.517,0.58
		c0,0.319,0.287,0.319,0.517,0.319c1.635,0.028,1.95,0.632,1.95,1.262c0,0.086-0.057,0.516-0.086,0.602l-3.214,12.763l-6.341-14.978
		c-0.229-0.516-0.259-0.549-0.918-0.549h-3.845c-0.574,0-0.832,0-0.832,0.58c0,0.318,0.258,0.318,0.804,0.318
		c0.144,0,1.951,0,1.951,0.26l-3.845,15.394c-0.287,1.146-0.775,2.064-3.1,2.15c-0.172,0-0.486,0.029-0.486,0.58
		c0,0.203,0.143,0.318,0.373,0.318c0.918,0,1.922-0.086,2.868-0.086c0.976,0,2.009,0.086,2.955,0.086c0.145,0,0.517,0,0.517-0.58
		c0-0.289-0.259-0.318-0.574-0.318c-1.664-0.057-1.894-0.689-1.894-1.262c0-0.201,0.029-0.346,0.114-0.66l3.788-15.142
		c0.115,0.172,0.115,0.23,0.258,0.517l7.146,16.9c0.201,0.488,0.287,0.545,0.545,0.545c0.315,0,0.315-0.086,0.459-0.602"/>
</g>
</svg>
