<?xml version="1.0" encoding="utf-8"?>
<!-- Generator: Adobe Illustrator 14.0.0, SVG Export Plug-In . SVG Version: 6.00 Build 43363)  -->
<!DOCTYPE svg PUBLIC "-//W3C//DTD SVG 1.1//EN" "http://www.w3.org/Graphics/SVG/1.1/DTD/svg11.dtd">
<svg version="1.1" id="Layer_1" xmlns="http://www.w3.org/2000/svg" xmlns:xlink="http://www.w3.org/1999/xlink" x="0px" y="0px"
	 width="169px" height="174px" viewBox="0 0 169 174" enable-background="new 0 0 169 174" xml:space="preserve">
<g>
	<polygon fill="none" stroke="#000000" stroke-width="1.367" points="22.396,127.332 84.75,19.333 147.104,127.332 	"/>
	<polygon opacity="0.2" fill="#1B1F8A" enable-background="new    " points="22.396,127.332 84.75,19.333 147.104,127.332 	"/>
</g>
<g>
	<g>
		<path fill="none" stroke="#231F20" stroke-width="3" stroke-linecap="round" d="M94.096,101.093
			c-2.412,2.413-5.746,3.905-9.429,3.905c-7.364,0-13.333-5.969-13.333-13.332s5.969-13.333,13.333-13.333S98,84.303,98,91.666"/>
		<polygon fill="#231F20" points="98,100.139 93.122,88.199 98,91.032 102.877,88.199 		"/>
	</g>
</g>
<circle fill="#231F20" cx="22.395" cy="127.332" r="3.874"/>
<circle fill="#231F20" cx="147.104" cy="127.332" r="3.875"/>
<circle fill="#231F20" cx="84.417" cy="19.333" r="3.875"/>
<polygon points="86.843,120.576 88.834,122.615 84.023,127.308 88.716,132.116 86.676,134.104 79.992,127.258 "/>
<polygon points="58.129,79.522 55.4,80.343 53.469,73.905 47.034,75.837 46.217,73.107 55.38,70.355 "/>
<polygon points="107.214,71.928 107.902,69.162 114.424,70.789 116.047,64.269 118.812,64.96 116.5,74.244 "/>
<g>
	<defs>
		<rect id="SVGID_1_" x="76" y="84" width="16" height="14"/>
	</defs>
	<clipPath id="SVGID_2_">
		<use xlink:href="#SVGID_1_"  overflow="visible"/>
	</clipPath>
	<path clip-path="url(#SVGID_2_)" d="M81.155,97.1c-1.408,0-2.557-1.033-2.557-3.102c0-0.862,0.345-3.218,1.35-4.913
		c1.207-1.981,2.93-2.386,3.907-2.386c2.413,0,2.644,1.896,2.644,2.788c0,1.35-0.576,3.706-1.552,5.171
		C83.826,96.354,82.275,97.1,81.155,97.1 M90.562,86.699c0.373,0,1.406,0,1.406-0.996c0-0.704-0.604-0.704-1.12-0.704h-6.536
		c-4.33,0-7.513,4.743-7.513,8.161c0,2.527,1.692,4.539,4.302,4.539c3.384,0,7.198-3.467,7.198-7.877c0-0.487,0-1.862-0.893-3.123
		H90.562z"/>
</g>
<g>
	<defs>
		<rect id="SVGID_3_" x="72" y="141" width="23" height="18"/>
	</defs>
	<clipPath id="SVGID_4_">
		<use xlink:href="#SVGID_3_"  overflow="visible"/>
	</clipPath>
	<path clip-path="url(#SVGID_4_)" d="M75.117,147.301c1.125-4.46,4.097-4.9,4.847-4.9c1.356,0,2.136,0.852,2.136,1.849
		c0,3.052-4.617,3.052-5.801,3.052 M76.475,147.901c0.83,0,2.947-0.053,4.379-0.601c2.002-0.877,2.146-2.604,2.146-3.014
		c0-1.288-1.093-2.487-3.075-2.487c-3.188,0-7.524,2.785-7.524,7.806c0,2.928,1.695,5.193,4.513,5.193
		c4.11,0,6.524-3.027,6.524-3.371c0-0.171-0.173-0.371-0.345-0.371c-0.143,0-0.2,0.059-0.372,0.289
		c-2.263,2.854-5.385,2.854-5.729,2.854c-2.234,0-2.492-2.405-2.492-3.321c0-0.344,0.029-1.23,0.458-2.978H76.475z"/>
	<path clip-path="url(#SVGID_4_)" d="M91.201,146.064c0-0.541-0.04-0.563-0.6-0.563c-1.276,1.279-3.094,1.299-3.912,1.299v0.7
		c0.482,0,1.808,0,2.912-0.589v10.264c0,0.664,0,0.925-2.009,0.925H86.83v0.7c0.362-0.02,2.832-0.08,3.575-0.08
		c0.623,0,3.153,0.062,3.595,0.08v-0.7h-0.771c-2.027,0-2.027-0.261-2.027-0.923"/>
</g>
<g>
	<defs>
		<rect id="SVGID_5_" x="19" y="55" width="23" height="18"/>
	</defs>
	<clipPath id="SVGID_6_">
		<use xlink:href="#SVGID_5_"  overflow="visible"/>
	</clipPath>
	<path clip-path="url(#SVGID_6_)" d="M22.117,61.301c1.125-4.46,4.097-4.9,4.847-4.9c1.356,0,2.136,0.852,2.136,1.849
		c0,3.052-4.617,3.052-5.801,3.052 M23.475,61.901c0.83,0,2.947-0.053,4.379-0.601C29.855,60.424,30,58.697,30,58.287
		c0-1.288-1.093-2.487-3.075-2.487c-3.188,0-7.524,2.785-7.524,7.806c0,2.928,1.695,5.193,4.513,5.193
		c4.11,0,6.524-3.027,6.524-3.371c0-0.171-0.173-0.371-0.345-0.371c-0.143,0-0.2,0.059-0.372,0.289
		C27.458,68.2,24.336,68.2,23.992,68.2c-2.234,0-2.492-2.405-2.492-3.321c0-0.344,0.029-1.23,0.458-2.978H23.475z"/>
	<path clip-path="url(#SVGID_6_)" d="M41.6,69.145h-0.68c-0.06,0.443-0.259,1.633-0.519,1.834c-0.16,0.121-1.696,0.121-1.977,0.121
		h-3.672c2.096-1.862,2.794-2.424,3.991-3.364c1.477-1.183,2.854-2.425,2.854-4.327c0-2.424-2.11-3.907-4.659-3.907
		c-2.468,0-4.141,1.74-4.141,3.58c0,1.021,0.853,1.12,1.05,1.12c0.477,0,1.05-0.337,1.05-1.05c0-0.357-0.141-1.05-1.19-1.05
		c0.623-1.45,1.99-1.899,2.935-1.899c2.01,0,3.056,1.567,3.056,3.19c0,1.745-1.241,3.129-1.881,3.853l-4.819,4.774
		c-0.2,0.181-0.2,0.221-0.2,0.781H41"/>
</g>
<g>
	<defs>
		<rect id="SVGID_7_" x="124" y="55" width="23" height="19"/>
	</defs>
	<clipPath id="SVGID_8_">
		<use xlink:href="#SVGID_7_"  overflow="visible"/>
	</clipPath>
	<path clip-path="url(#SVGID_8_)" d="M127.117,61.201c1.125-4.46,4.097-4.901,4.847-4.901c1.356,0,2.136,0.853,2.136,1.849
		c0,3.053-4.617,3.053-5.801,3.053 M128.475,61.801c0.83,0,2.947-0.052,4.379-0.6c2.002-0.877,2.146-2.604,2.146-3.014
		c0-1.289-1.093-2.487-3.075-2.487c-3.188,0-7.524,2.785-7.524,7.806c0,2.927,1.695,5.193,4.513,5.193
		c4.11,0,6.524-3.028,6.524-3.371c0-0.171-0.173-0.371-0.345-0.371c-0.143,0-0.2,0.058-0.372,0.289
		c-2.263,2.854-5.385,2.854-5.729,2.854c-2.234,0-2.492-2.404-2.492-3.32c0-0.344,0.029-1.231,0.458-2.979H128.475z"/>
	<path clip-path="url(#SVGID_8_)" d="M141.995,66c1.573,0,2.704,1.091,2.704,3.25c0,2.503-1.451,3.25-2.62,3.25
		c-0.806,0-2.58-0.236-3.426-1.5c0.946-0.039,1.169-0.694,1.169-1.11c0-0.634-0.484-1.09-1.108-1.09
		c-0.563,0-1.129,0.345-1.129,1.171c0,1.898,2.083,3.129,4.507,3.129c2.784,0,4.708-1.862,4.708-3.864
		c0-1.562-1.284-3.124-3.487-3.585c2.104-0.762,2.865-2.264,2.865-3.484c0-1.582-1.824-2.766-4.049-2.766s-3.929,1.068-3.929,2.651
		c0,0.672,0.448,1.048,1.061,1.048c0.632,0,1.04-0.469,1.04-1.039c0-0.592-0.411-1.021-1.049-1.062
		C139.958,60.2,141.35,60,142.096,60c0.908,0,2.18,0.434,2.18,2.148c0,0.828-0.282,1.733-0.808,2.345
		c-0.666,0.749-1.229,0.788-2.239,0.848c-0.504,0.039-0.545,0.039-0.646,0.06c-0.04,0-0.202,0.045-0.202,0.289
		c0,0.311,0.182,0.311,0.525,0.311"/>
</g>
</svg>
