<?xml version="1.0" encoding="utf-8"?>
<!-- Generator: Adobe Illustrator 14.0.0, SVG Export Plug-In . SVG Version: 6.00 Build 43363)  -->
<!DOCTYPE svg PUBLIC "-//W3C//DTD SVG 1.1//EN" "http://www.w3.org/Graphics/SVG/1.1/DTD/svg11.dtd">
<svg version="1.1" id="Layer_1" xmlns="http://www.w3.org/2000/svg" xmlns:xlink="http://www.w3.org/1999/xlink" x="0px" y="0px"
	 width="374px" height="166.333px" viewBox="0 0 374 166.333" enable-background="new 0 0 374 166.333" xml:space="preserve">
<g>
	<polygon fill="none" stroke="#000000" stroke-width="1.367" points="15.312,136.999 77.667,28.999 140.021,136.999 	"/>
	<polygon opacity="0.2" fill="#1B1F8A" enable-background="new    " points="15.312,136.999 77.667,28.999 140.021,136.999 	"/>
</g>
<g>
	<polygon fill="none" stroke="#000000" stroke-width="1.367" points="230.396,136.999 292.75,28.999 355.104,136.999 	"/>
	<polygon opacity="0.2" fill="#1B1F8A" enable-background="new    " points="230.396,136.999 292.75,28.999 355.104,136.999 	"/>
</g>
<g>
	<g>
		<path fill="none" stroke="#231F20" stroke-width="3" stroke-linecap="round" d="M86.763,91.906C84.35,89.493,81.016,88,77.333,88
			C69.97,88,64,93.969,64,101.333c0,7.363,5.969,13.333,13.333,13.333s13.333-5.969,13.333-13.333"/>
		<polygon fill="#231F20" points="90.667,92.86 95.544,104.8 90.667,101.966 85.789,104.8 		"/>
	</g>
</g>
<g>
	<g>
		<path fill="none" stroke="#231F20" stroke-width="3" stroke-linecap="round" d="M302.096,110.759
			c-2.412,2.413-5.746,3.906-9.429,3.906c-7.364,0-13.333-5.969-13.333-13.333c0-7.363,5.969-13.333,13.333-13.333
			S306,93.969,306,101.332"/>
		<polygon fill="#231F20" points="306,109.805 301.122,97.865 306,100.699 310.877,97.865 		"/>
	</g>
</g>
<circle fill="#231F20" cx="15.312" cy="136.999" r="3.875"/>
<circle fill="#231F20" cx="140.021" cy="136.999" r="3.875"/>
<circle fill="#231F20" cx="77.333" cy="28.999" r="3.875"/>
<g>
	<defs>
		<rect id="SVGID_1_" x="2.312" y="144.667" width="26" height="19"/>
	</defs>
	<clipPath id="SVGID_2_">
		<use xlink:href="#SVGID_1_"  overflow="visible"/>
	</clipPath>
	<path clip-path="url(#SVGID_2_)" d="M10.155,149.083c0.201-0.779,0.977-1.586,1.493-2.019c1.005-0.895,1.838-1.099,2.326-1.099
		c1.149,0,1.838,1.011,1.838,2.713s-0.948,5.021-1.465,6.116c-0.978,2.02-2.355,2.971-3.418,2.971c-1.896,0-2.269-2.394-2.269-2.566
		c0-0.059,0-0.115,0.086-0.462 M5.109,161.586c-0.229,0.979-0.287,1.182-1.554,1.182c-0.345,0-0.661,0-0.661,0.551
		c0,0.231,0.144,0.348,0.374,0.348c0.777,0,1.611-0.086,2.416-0.086c0.95,0,1.928,0.086,2.848,0.086c0.145,0,0.518,0,0.518-0.58
		c0-0.318-0.287-0.318-0.69-0.318c-1.439,0-1.439-0.203-1.439-0.462c0-0.346,1.209-5.038,1.41-5.761
		c0.374,0.825,1.18,1.82,2.647,1.82c3.337,0,6.934-4.189,6.934-8.407c0-2.697-1.641-4.593-3.827-4.593
		c-1.438,0-2.82,1.042-3.769,2.17c-0.288-1.562-1.525-2.17-2.589-2.17c-1.323,0-1.87,1.124-2.129,1.642
		c-0.518,0.979-0.892,2.707-0.892,2.793c0,0.288,0.288,0.288,0.345,0.288c0.288,0,0.316-0.029,0.489-0.668
		c0.489-2.062,1.064-3.456,2.1-3.456c0.489,0,0.892,0.234,0.892,1.329c0,0.662-0.086,0.98-0.202,1.47L5.109,161.586z"/>
	<path clip-path="url(#SVGID_2_)" d="M24.914,149.63c0-0.541-0.04-0.562-0.599-0.562c-1.277,1.278-3.094,1.299-3.912,1.299v0.7
		c0.482,0,1.807,0,2.911-0.59v10.265c0,0.664,0,0.925-2.008,0.925h-0.763v0.7c0.362-0.021,2.832-0.08,3.575-0.08
		c0.623,0,3.154,0.061,3.595,0.08v-0.7h-0.771c-2.028,0-2.028-0.261-2.028-0.923"/>
</g>
<g>
	<defs>
		<rect id="SVGID_3_" x="126.521" y="144.667" width="27" height="19"/>
	</defs>
	<clipPath id="SVGID_4_">
		<use xlink:href="#SVGID_3_"  overflow="visible"/>
	</clipPath>
	<path clip-path="url(#SVGID_4_)" d="M134.363,149.083c0.201-0.779,0.977-1.586,1.493-2.019c1.005-0.895,1.838-1.099,2.326-1.099
		c1.149,0,1.838,1.011,1.838,2.713s-0.948,5.021-1.465,6.116c-0.978,2.02-2.355,2.971-3.418,2.971c-1.896,0-2.269-2.394-2.269-2.566
		c0-0.059,0-0.115,0.086-0.462 M129.317,161.586c-0.229,0.979-0.287,1.182-1.554,1.182c-0.345,0-0.661,0-0.661,0.551
		c0,0.231,0.144,0.348,0.374,0.348c0.777,0,1.611-0.086,2.416-0.086c0.95,0,1.928,0.086,2.848,0.086c0.145,0,0.518,0,0.518-0.58
		c0-0.318-0.287-0.318-0.69-0.318c-1.439,0-1.439-0.203-1.439-0.462c0-0.346,1.209-5.038,1.41-5.761
		c0.374,0.825,1.18,1.82,2.647,1.82c3.337,0,6.934-4.189,6.934-8.407c0-2.697-1.641-4.593-3.827-4.593
		c-1.438,0-2.82,1.042-3.769,2.17c-0.288-1.562-1.525-2.17-2.589-2.17c-1.323,0-1.87,1.124-2.129,1.642
		c-0.518,0.979-0.892,2.707-0.892,2.793c0,0.288,0.288,0.288,0.345,0.288c0.288,0,0.316-0.029,0.489-0.668
		c0.489-2.062,1.064-3.456,2.1-3.456c0.489,0,0.892,0.234,0.892,1.329c0,0.662-0.086,0.98-0.202,1.47L129.317,161.586z"/>
	<path clip-path="url(#SVGID_4_)" d="M152.521,158.711h-0.68c-0.06,0.443-0.259,1.632-0.519,1.834
		c-0.16,0.121-1.696,0.121-1.976,0.121h-3.672c2.096-1.863,2.793-2.424,3.991-3.365c1.477-1.182,2.855-2.424,2.855-4.327
		c0-2.424-2.111-3.906-4.659-3.906c-2.468,0-4.141,1.739-4.141,3.579c0,1.021,0.853,1.121,1.05,1.121c0.476,0,1.05-0.338,1.05-1.051
		c0-0.356-0.141-1.05-1.191-1.05c0.623-1.45,1.99-1.899,2.934-1.899c2.01,0,3.056,1.567,3.056,3.191
		c0,1.745-1.241,3.129-1.881,3.852l-4.819,4.774c-0.2,0.181-0.2,0.221-0.2,0.782h8.202"/>
</g>
<circle fill="#231F20" cx="230.395" cy="136.999" r="3.874"/>
<circle fill="#231F20" cx="355.104" cy="136.999" r="3.875"/>
<circle fill="#231F20" cx="292.417" cy="28.999" r="3.875"/>
<g>
	<defs>
		<rect id="SVGID_5_" x="217.396" y="144.667" width="26" height="19"/>
	</defs>
	<clipPath id="SVGID_6_">
		<use xlink:href="#SVGID_5_"  overflow="visible"/>
	</clipPath>
	<path clip-path="url(#SVGID_6_)" d="M225.238,149.083c0.201-0.779,0.977-1.586,1.493-2.019c1.005-0.895,1.838-1.099,2.326-1.099
		c1.149,0,1.838,1.011,1.838,2.713s-0.948,5.021-1.465,6.116c-0.978,2.02-2.355,2.971-3.418,2.971c-1.896,0-2.269-2.394-2.269-2.566
		c0-0.059,0-0.115,0.086-0.462 M220.192,161.586c-0.229,0.979-0.287,1.182-1.554,1.182c-0.345,0-0.661,0-0.661,0.551
		c0,0.231,0.144,0.348,0.374,0.348c0.777,0,1.611-0.086,2.416-0.086c0.95,0,1.928,0.086,2.848,0.086c0.145,0,0.518,0,0.518-0.58
		c0-0.318-0.287-0.318-0.69-0.318c-1.439,0-1.439-0.203-1.439-0.462c0-0.346,1.209-5.038,1.41-5.761
		c0.374,0.825,1.18,1.82,2.647,1.82c3.337,0,6.935-4.189,6.935-8.407c0-2.697-1.642-4.593-3.828-4.593
		c-1.438,0-2.82,1.042-3.769,2.17c-0.288-1.562-1.525-2.17-2.589-2.17c-1.323,0-1.87,1.124-2.129,1.642
		c-0.518,0.979-0.892,2.707-0.892,2.793c0,0.288,0.288,0.288,0.345,0.288c0.288,0,0.316-0.029,0.489-0.668
		c0.489-2.062,1.064-3.456,2.1-3.456c0.489,0,0.892,0.234,0.892,1.329c0,0.662-0.086,0.98-0.202,1.47L220.192,161.586z"/>
	<path clip-path="url(#SVGID_6_)" d="M239.996,149.63c0-0.541-0.039-0.562-0.599-0.562c-1.276,1.278-3.095,1.299-3.912,1.299v0.7
		c0.481,0,1.808,0,2.911-0.59v10.265c0,0.664,0,0.925-2.008,0.925h-0.764v0.7c0.363-0.021,2.832-0.08,3.576-0.08
		c0.623,0,3.153,0.061,3.594,0.08v-0.7h-0.771c-2.028,0-2.028-0.261-2.028-0.923"/>
</g>
<g>
	<defs>
		<rect id="SVGID_7_" x="341.604" y="144.667" width="27" height="19"/>
	</defs>
	<clipPath id="SVGID_8_">
		<use xlink:href="#SVGID_7_"  overflow="visible"/>
	</clipPath>
	<path clip-path="url(#SVGID_8_)" d="M349.446,149.083c0.201-0.779,0.977-1.586,1.493-2.019c1.005-0.895,1.838-1.099,2.326-1.099
		c1.148,0,1.838,1.011,1.838,2.713s-0.948,5.021-1.465,6.116c-0.978,2.02-2.355,2.971-3.418,2.971c-1.896,0-2.27-2.394-2.27-2.566
		c0-0.059,0-0.115,0.086-0.462 M344.4,161.586c-0.229,0.979-0.287,1.182-1.554,1.182c-0.345,0-0.661,0-0.661,0.551
		c0,0.231,0.145,0.348,0.374,0.348c0.776,0,1.611-0.086,2.416-0.086c0.95,0,1.928,0.086,2.848,0.086c0.145,0,0.519,0,0.519-0.58
		c0-0.318-0.287-0.318-0.69-0.318c-1.438,0-1.438-0.203-1.438-0.462c0-0.346,1.209-5.038,1.41-5.761
		c0.373,0.825,1.18,1.82,2.646,1.82c3.337,0,6.934-4.189,6.934-8.407c0-2.697-1.641-4.593-3.826-4.593
		c-1.438,0-2.82,1.042-3.77,2.17c-0.288-1.562-1.525-2.17-2.589-2.17c-1.323,0-1.87,1.124-2.129,1.642
		c-0.519,0.979-0.892,2.707-0.892,2.793c0,0.288,0.287,0.288,0.345,0.288c0.288,0,0.315-0.029,0.489-0.668
		c0.488-2.062,1.063-3.456,2.1-3.456c0.489,0,0.892,0.234,0.892,1.329c0,0.662-0.086,0.98-0.202,1.47L344.4,161.586z"/>
	<path clip-path="url(#SVGID_8_)" d="M367.604,158.711h-0.68c-0.061,0.443-0.26,1.632-0.52,1.834
		c-0.16,0.121-1.695,0.121-1.976,0.121h-3.672c2.096-1.863,2.794-2.424,3.991-3.365c1.477-1.182,2.854-2.424,2.854-4.327
		c0-2.424-2.111-3.906-4.659-3.906c-2.468,0-4.141,1.739-4.141,3.579c0,1.021,0.852,1.121,1.05,1.121c0.476,0,1.05-0.338,1.05-1.051
		c0-0.356-0.141-1.05-1.191-1.05c0.623-1.45,1.99-1.899,2.935-1.899c2.01,0,3.056,1.567,3.056,3.191c0,1.745-1.24,3.129-1.881,3.852
		l-4.818,4.774c-0.2,0.181-0.2,0.221-0.2,0.782h8.202"/>
</g>
<g>
	<defs>
		<rect id="SVGID_9_" x="63.833" y="3.016" width="27" height="19"/>
	</defs>
	<clipPath id="SVGID_10_">
		<use xlink:href="#SVGID_9_"  overflow="visible"/>
	</clipPath>
	<path clip-path="url(#SVGID_10_)" d="M71.676,7.433c0.201-0.779,0.977-1.586,1.493-2.019c1.005-0.895,1.838-1.099,2.326-1.099
		c1.149,0,1.838,1.011,1.838,2.713s-0.948,5.021-1.465,6.116c-0.978,2.02-2.355,2.971-3.418,2.971c-1.896,0-2.269-2.394-2.269-2.566
		c0-0.059,0-0.115,0.086-0.462 M66.63,19.936c-0.229,0.979-0.287,1.182-1.554,1.182c-0.345,0-0.661,0-0.661,0.551
		c0,0.231,0.144,0.348,0.374,0.348c0.777,0,1.611-0.086,2.416-0.086c0.95,0,1.928,0.086,2.848,0.086c0.145,0,0.518,0,0.518-0.58
		c0-0.318-0.287-0.318-0.69-0.318c-1.439,0-1.439-0.203-1.439-0.462c0-0.346,1.209-5.038,1.41-5.761
		c0.374,0.825,1.18,1.82,2.647,1.82c3.337,0,6.934-4.189,6.934-8.407c0-2.697-1.641-4.593-3.827-4.593
		c-1.438,0-2.82,1.042-3.769,2.17c-0.288-1.562-1.525-2.17-2.589-2.17c-1.323,0-1.87,1.124-2.129,1.642
		c-0.518,0.979-0.892,2.707-0.892,2.793c0,0.288,0.288,0.288,0.345,0.288c0.288,0,0.316-0.029,0.489-0.668
		c0.489-2.062,1.064-3.456,2.1-3.456c0.489,0,0.892,0.234,0.892,1.329c0,0.662-0.086,0.98-0.202,1.47L66.63,19.936z"/>
	<path clip-path="url(#SVGID_10_)" d="M85.229,14.016c1.573,0,2.704,1.091,2.704,3.25c0,2.503-1.451,3.25-2.62,3.25
		c-0.806,0-2.58-0.236-3.426-1.5c0.947-0.039,1.168-0.694,1.168-1.11c0-0.634-0.484-1.09-1.107-1.09
		c-0.564,0-1.129,0.345-1.129,1.171c0,1.898,2.083,3.129,4.507,3.129c2.784,0,4.708-1.862,4.708-3.864
		c0-1.562-1.284-3.124-3.488-3.585c2.105-0.762,2.866-2.264,2.866-3.484c0-1.582-1.824-2.766-4.049-2.766s-3.929,1.068-3.929,2.651
		c0,0.672,0.449,1.048,1.061,1.048c0.632,0,1.04-0.469,1.04-1.039c0-0.592-0.411-1.021-1.049-1.062
		c0.706-0.799,2.098-0.999,2.844-0.999c0.908,0,2.179,0.434,2.179,2.148c0,0.828-0.282,1.733-0.807,2.345
		c-0.666,0.749-1.23,0.788-2.239,0.848c-0.504,0.039-0.545,0.039-0.646,0.06c-0.04,0-0.202,0.045-0.202,0.289
		c0,0.311,0.182,0.311,0.525,0.311"/>
</g>
<g>
	<defs>
		<rect id="SVGID_11_" x="278.917" y="3.016" width="27" height="19"/>
	</defs>
	<clipPath id="SVGID_12_">
		<use xlink:href="#SVGID_11_"  overflow="visible"/>
	</clipPath>
	<path clip-path="url(#SVGID_12_)" d="M286.76,7.433c0.201-0.779,0.977-1.586,1.493-2.019c1.005-0.895,1.838-1.099,2.326-1.099
		c1.149,0,1.838,1.011,1.838,2.713s-0.948,5.021-1.465,6.116c-0.978,2.02-2.354,2.971-3.418,2.971c-1.896,0-2.269-2.394-2.269-2.566
		c0-0.059,0-0.115,0.086-0.462 M281.714,19.936c-0.229,0.979-0.286,1.182-1.554,1.182c-0.346,0-0.661,0-0.661,0.551
		c0,0.231,0.144,0.348,0.374,0.348c0.777,0,1.611-0.086,2.416-0.086c0.949,0,1.928,0.086,2.848,0.086c0.145,0,0.518,0,0.518-0.58
		c0-0.318-0.286-0.318-0.689-0.318c-1.439,0-1.439-0.203-1.439-0.462c0-0.346,1.209-5.038,1.41-5.761
		c0.375,0.825,1.18,1.82,2.647,1.82c3.337,0,6.935-4.189,6.935-8.407c0-2.697-1.642-4.593-3.828-4.593
		c-1.438,0-2.819,1.042-3.769,2.17c-0.288-1.562-1.524-2.17-2.589-2.17c-1.322,0-1.87,1.124-2.129,1.642
		c-0.518,0.979-0.893,2.707-0.893,2.793c0,0.288,0.289,0.288,0.346,0.288c0.287,0,0.316-0.029,0.488-0.668
		c0.49-2.062,1.064-3.456,2.101-3.456c0.489,0,0.892,0.234,0.892,1.329c0,0.662-0.086,0.98-0.201,1.47L281.714,19.936z"/>
	<path clip-path="url(#SVGID_12_)" d="M300.312,14.016c1.572,0,2.703,1.091,2.703,3.25c0,2.503-1.451,3.25-2.619,3.25
		c-0.807,0-2.58-0.236-3.426-1.5c0.946-0.039,1.168-0.694,1.168-1.11c0-0.634-0.484-1.09-1.107-1.09
		c-0.564,0-1.129,0.345-1.129,1.171c0,1.898,2.082,3.129,4.507,3.129c2.784,0,4.708-1.862,4.708-3.864
		c0-1.562-1.284-3.124-3.488-3.585c2.105-0.762,2.866-2.264,2.866-3.484c0-1.582-1.824-2.766-4.05-2.766
		c-2.225,0-3.928,1.068-3.928,2.651c0,0.672,0.448,1.048,1.061,1.048c0.632,0,1.04-0.469,1.04-1.039c0-0.592-0.411-1.021-1.05-1.062
		c0.707-0.799,2.099-0.999,2.845-0.999c0.907,0,2.179,0.434,2.179,2.148c0,0.828-0.281,1.733-0.807,2.345
		c-0.666,0.749-1.23,0.788-2.239,0.848c-0.504,0.039-0.545,0.039-0.646,0.06c-0.041,0-0.203,0.045-0.203,0.289
		c0,0.311,0.183,0.311,0.525,0.311"/>
</g>
<polygon points="294.843,130.242 296.834,132.282 292.023,136.974 296.716,141.783 294.676,143.771 287.992,136.924 "/>
</svg>
