<?xml version="1.0" encoding="utf-8"?>
<!-- Generator: Adobe Illustrator 14.0.0, SVG Export Plug-In . SVG Version: 6.00 Build 43363)  -->
<!DOCTYPE svg PUBLIC "-//W3C//DTD SVG 1.1//EN" "http://www.w3.org/Graphics/SVG/1.1/DTD/svg11.dtd">
<svg version="1.1" id="Layer_1" xmlns="http://www.w3.org/2000/svg" xmlns:xlink="http://www.w3.org/1999/xlink" x="0px" y="0px"
	 width="236px" height="266px" viewBox="0 0 236 266" enable-background="new 0 0 236 266" xml:space="preserve">
<line fill="none" stroke="#000000" stroke-width="1.8889" stroke-linecap="round" stroke-linejoin="round" enable-background="new    " x1="217.915" y1="12.916" x2="217.915" y2="247.09"/>
<g>
	<line fill="none" stroke="#000000" stroke-width="2.7039" x1="202.562" y1="191.294" x2="202.562" y2="74.205"/>
	<polyline points="203.872,74.73 193.251,85.353 191.617,83.713 203.872,71.459 	"/>
</g>
<line fill="none" stroke="#000000" stroke-width="1.8889" stroke-linecap="round" stroke-linejoin="round" enable-background="new    " x1="217.915" y1="12.916" x2="15.594" y2="130.001"/>
<g enable-background="new    ">
	<g>
		
			<line fill="none" stroke="#000000" stroke-width="1.3222" stroke-linecap="round" stroke-linejoin="round" x1="42.942" y1="102.439" x2="184.567" y2="20.478"/>
		<polygon points="192.647,15.802 183.952,27.043 183.963,20.828 178.569,17.74 		"/>
	</g>
</g>
<line fill="none" stroke="#000000" stroke-width="1.8889" stroke-linecap="round" stroke-linejoin="round" enable-background="new    " x1="15.594" y1="130.001" x2="217.915" y2="247.09"/>
<g enable-background="new    ">
	<g>
		
			<line fill="none" stroke="#000000" stroke-width="1.3222" stroke-linecap="round" stroke-linejoin="round" x1="42.942" y1="157.565" x2="184.567" y2="239.527"/>
		<polygon points="192.647,244.203 178.568,242.265 183.963,239.177 183.952,232.962 		"/>
	</g>
</g>
<text transform="matrix(1 0 0 1 176.8643 134.6382)" font-family="'Courier'" font-size="16.4908">he</text>
<path fill="none" stroke="#000000" stroke-linecap="round" stroke-linejoin="round" d="M43.753,146.504
	c2.81-4.854,4.418-10.491,4.418-16.504c0-6.011-1.607-11.647-4.416-16.502"/>
<g>
	<path d="M64.852,132.969c-2.53,2.214-4.743,2.529-5.893,2.529c-1.725,0-2.586-1.293-2.586-3.133c0-1.409,0.752-4.514,1.678-5.98
		c1.359-2.099,2.921-2.646,3.934-2.646c2.866,0,2.866,3.767,2.866,6.009C64.851,130.812,64.851,132.479,64.852,132.969
		 M66.772,129.028c0-4.517-2.68-5.927-4.811-5.927c-3.945,0-7.748,4.118-7.748,8.175c0,2.676,1.727,4.863,4.664,4.863
		c1.813,0,3.887-0.66,6.075-2.413c0.375,1.522,1.324,2.413,2.62,2.413c1.525,0,2.422-1.579,2.422-2.039
		c0-0.202-0.173-0.288-0.345-0.288c-0.202,0-0.288,0.087-0.375,0.287c-0.517,1.401-1.553,1.401-1.61,1.401
		c-0.891,0-0.891-2.243-0.891-2.934c0-0.604,0-0.662,0.288-1.006c2.702-3.395,3.306-6.731,3.306-6.76
		c0-0.058-0.029-0.286-0.345-0.286c-0.288,0-0.288,0.086-0.432,0.603c-0.517,1.812-1.465,3.998-2.817,5.695L66.772,129.028z"/>
</g>
<g>
	<defs>
		<rect id="SVGID_1_" x="108.233" y="35.034" width="15.2" height="13.6"/>
	</defs>
	<clipPath id="SVGID_2_">
		<use xlink:href="#SVGID_1_"  overflow="visible"/>
	</clipPath>
	<path clip-path="url(#SVGID_2_)" d="M117.563,46.546c0.314,1.179,1.318,1.926,2.549,1.926c1.002,0,1.661-0.66,2.12-1.579
		c0.486-1.034,0.86-2.786,0.86-2.843c0-0.287-0.26-0.287-0.346-0.287c-0.286,0-0.314,0.115-0.4,0.517
		c-0.401,1.604-0.945,3.553-2.146,3.553c-0.602,0-0.888-0.372-0.888-1.319c0-0.63,0.344-1.979,0.573-2.982
		c0.258-1.031,0.544-2.064,0.802-3.097c0.085-0.431,0.372-1.52,0.487-1.95c0.143-0.66,0.429-1.75,0.429-1.922
		c0-0.516-0.401-0.773-0.83-0.773c-0.143,0-0.887,0.027-1.115,1.004c-0.544,2.093-1.804,7.112-2.147,8.632
		c-0.027,0.114-1.173,2.408-3.262,2.408c-1.489,0-1.775-1.294-1.775-2.358c0-1.611,0.789-3.883,1.521-5.867
		c0.339-0.863,0.479-1.266,0.479-1.812c0-1.295-0.917-2.361-2.349-2.361c-2.72,0-3.779,4.194-3.779,4.455
		c0,0.288,0.284,0.288,0.34,0.288c0.283,0,0.312-0.058,0.453-0.52c0.709-2.514,1.787-3.584,2.864-3.584
		c0.255,0,0.709,0.031,0.709,0.952c0,0.69-0.306,1.523-0.472,1.956c-1.026,2.847-1.608,4.631-1.608,6.04
		c0,2.732,1.976,3.45,3.523,3.45c1.89,0,2.921-1.293,3.408-1.925"/>
</g>
<g>
	<defs>
		<rect id="SVGID_3_" x="108.933" y="208.034" width="12.8" height="13.6"/>
	</defs>
	<clipPath id="SVGID_4_">
		<use xlink:href="#SVGID_3_"  overflow="visible"/>
	</clipPath>
	<path clip-path="url(#SVGID_4_)" d="M121.654,210.451c0-1.553-0.761-2.018-1.288-2.018c-0.73,0-1.434,0.75-1.434,1.383
		c0,0.375,0.147,0.547,0.473,0.863c0.619,0.576,1.003,1.324,1.003,2.359c0,1.207-1.751,7.794-5.109,7.794
		c-1.464,0-2.125-1.006-2.125-2.502c0-1.611,0.771-3.711,1.657-6.098c0.199-0.489,0.343-0.892,0.343-1.438
		c0-1.295-0.917-2.361-2.349-2.361c-2.691,0-3.778,4.194-3.778,4.455c0,0.288,0.283,0.288,0.34,0.288
		c0.283,0,0.312-0.057,0.453-0.52c0.823-2.918,2.042-3.583,2.864-3.583c0.228,0,0.709,0,0.709,0.922
		c0,0.719-0.282,1.496-0.478,2.014c-1.237,3.336-1.602,4.659-1.602,5.896c0,3.105,2.521,3.566,3.84,3.566
		C120.011,221.472,121.655,211.948,121.654,210.451"/>
</g>
</svg>
