<?xml version="1.0" encoding="utf-8"?>
<!-- Generator: Adobe Illustrator 14.0.0, SVG Export Plug-In . SVG Version: 6.00 Build 43363)  -->
<!DOCTYPE svg PUBLIC "-//W3C//DTD SVG 1.1//EN" "http://www.w3.org/Graphics/SVG/1.1/DTD/svg11.dtd">
<svg version="1.1" id="Layer_1" xmlns="http://www.w3.org/2000/svg" xmlns:xlink="http://www.w3.org/1999/xlink" x="0px" y="0px"
	 width="301.485px" height="275.986px" viewBox="0 0 301.485 275.986" enable-background="new 0 0 301.485 275.986"
	 xml:space="preserve">
<polygon opacity="0.2" fill="#1B1F8A" enable-background="new    " points="289.215,139.507 219.759,19.206 80.846,19.206 
	11.39,139.507 80.846,259.808 219.759,259.808 "/>
<polyline fill="none" stroke="#000000" stroke-width="1.8889" enable-background="new    " points="258.176,85.745 219.759,19.206 
	80.846,19.206 11.39,139.507 80.846,259.808 219.759,259.808 289.215,139.507 265.011,97.584 "/>
<line fill="none" stroke="#000000" x1="80.846" y1="19.206" x2="219.759" y2="259.808"/>
<line fill="none" stroke="#000000" x1="168.529" y1="107.938" x2="219.759" y2="19.206"/>
<line fill="none" stroke="#000000" x1="80.846" y1="259.808" x2="156.544" y2="128.695"/>
<line fill="none" stroke="#000000" x1="289.215" y1="139.507" x2="11.39" y2="139.507"/>
<circle cx="150.362" cy="139.402" r="5.172"/>
<circle cx="219.759" cy="19.206" r="5.173"/>
<g>
	<defs>
		<rect id="SVGID_1_" x="150.902" y="108.938" width="29" height="23"/>
	</defs>
	<clipPath id="SVGID_2_">
		<use xlink:href="#SVGID_1_"  overflow="visible"/>
	</clipPath>
	<path clip-path="url(#SVGID_2_)" d="M162.865,123.729c0.395,1.473,1.647,2.407,3.186,2.407c1.254,0,2.078-0.825,2.65-1.975
		c0.609-1.292,1.076-3.481,1.076-3.553c0-0.358-0.325-0.358-0.432-0.358c-0.358,0-0.394,0.144-0.501,0.646
		c-0.501,2.005-1.182,4.44-2.684,4.44c-0.752,0-1.108-0.466-1.108-1.648c0-0.788,0.429-2.473,0.716-3.729
		c0.321-1.289,0.68-2.58,1.002-3.87c0.106-0.538,0.465-1.9,0.608-2.438c0.18-0.825,0.536-2.187,0.536-2.402
		c0-0.645-0.501-0.968-1.036-0.968c-0.18,0-1.109,0.036-1.396,1.255c-0.68,2.617-2.254,8.892-2.683,10.79
		c-0.036,0.144-1.468,3.011-4.079,3.011c-1.861,0-2.218-1.617-2.218-2.947c0-2.014,0.985-4.854,1.901-7.334
		c0.423-1.079,0.599-1.582,0.599-2.266c0-1.617-1.146-2.95-2.936-2.95c-3.4,0-4.723,5.241-4.723,5.567
		c0,0.361,0.354,0.361,0.425,0.361c0.354,0,0.39-0.072,0.567-0.65c0.886-3.142,2.232-4.479,3.579-4.479
		c0.319,0,0.887,0.039,0.887,1.188c0,0.863-0.382,1.905-0.589,2.445c-1.283,3.56-2.012,5.789-2.012,7.55
		c0,3.416,2.471,4.314,4.404,4.314c2.363,0,3.652-1.616,4.261-2.407"/>
	<path clip-path="url(#SVGID_2_)" d="M173.827,128.226c-0.1,0.329-0.225,0.632-0.225,1.062c0,1.189,1.002,2.15,2.379,2.15
		c2.504,0,3.608-3.504,3.608-3.885c0-0.331-0.33-0.331-0.404-0.331c-0.354,0-0.378,0.153-0.479,0.434
		c-0.58,2.038-1.688,3.082-2.673,3.082c-0.504,0-0.63-0.329-0.63-0.885c0-0.582,0.177-1.062,0.404-1.619
		c0.252-0.683,0.53-1.366,0.808-2.022c0.227-0.607,1.136-2.908,1.237-3.213c0.076-0.253,0.151-0.556,0.151-0.809
		c0-1.188-1.005-2.152-2.384-2.152c-2.482,0-3.637,3.438-3.637,3.868c0,0.329,0.354,0.329,0.429,0.329
		c0.354,0,0.379-0.127,0.455-0.404c0.657-2.179,1.77-3.091,2.704-3.091c0.404,0,0.632,0.204,0.632,0.888
		c0,0.582-0.154,0.961-0.799,2.528 M178.937,115.477c0-0.396-0.302-0.94-1.004-0.94c-0.679,0-1.406,0.644-1.406,1.361
		c0,0.42,0.326,0.94,1.004,0.94C178.258,116.838,178.937,116.145,178.937,115.477z"/>
</g>
<g>
	<defs>
		<rect id="SVGID_3_" x="228.902" y="6.402" width="31" height="27"/>
	</defs>
	<clipPath id="SVGID_4_">
		<use xlink:href="#SVGID_3_"  overflow="visible"/>
	</clipPath>
	<path clip-path="url(#SVGID_4_)" d="M240.865,20.793c0.395,1.474,1.647,2.407,3.186,2.407c1.254,0,2.078-0.825,2.65-1.974
		c0.609-1.292,1.076-3.482,1.076-3.553c0-0.359-0.325-0.359-0.432-0.359c-0.358,0-0.394,0.144-0.501,0.646
		c-0.501,2.005-1.182,4.441-2.684,4.441c-0.752,0-1.108-0.466-1.108-1.649c0-0.787,0.429-2.473,0.716-3.728
		c0.321-1.29,0.68-2.581,1.002-3.871c0.106-0.538,0.465-1.899,0.608-2.438c0.18-0.824,0.536-2.187,0.536-2.401
		c0-0.646-0.501-0.968-1.036-0.968c-0.18,0-1.109,0.035-1.396,1.255c-0.68,2.616-2.254,8.891-2.683,10.79
		c-0.036,0.143-1.468,3.011-4.079,3.011c-1.861,0-2.218-1.618-2.218-2.948c0-2.014,0.985-4.854,1.901-7.334
		c0.423-1.079,0.599-1.582,0.599-2.265c0-1.618-1.146-2.951-2.936-2.951c-3.4,0-4.723,5.242-4.723,5.568
		c0,0.36,0.354,0.36,0.425,0.36c0.354,0,0.39-0.072,0.567-0.649c0.886-3.143,2.232-4.479,3.579-4.479
		c0.319,0,0.887,0.039,0.887,1.189c0,0.863-0.382,1.904-0.589,2.445c-1.283,3.559-2.012,5.788-2.012,7.55
		c0,3.416,2.471,4.313,4.404,4.313c2.363,0,3.652-1.616,4.261-2.406"/>
	<path clip-path="url(#SVGID_4_)" d="M254.51,29.411c-0.428,1.734-1.761,3.191-3.245,3.191c-0.327,0-0.63-0.033-0.906-0.101
		c0.646-0.3,0.844-0.899,0.844-1.274c0-0.601-0.475-0.925-0.975-0.925c-0.775,0-1.425,0.664-1.425,1.451
		c0,0.935,0.979,1.55,2.486,1.55c1.508,0,4.447-0.904,5.227-3.969l2.261-8.989c0.075-0.276,0.127-0.502,0.127-0.879
		c0-1.382-1.182-2.363-2.69-2.363c-2.789,0-4.397,3.514-4.397,3.868c0,0.329,0.353,0.329,0.428,0.329
		c0.302,0,0.327-0.076,0.504-0.456c0.63-1.47,1.939-3.04,3.399-3.04c0.63,0,0.857,0.428,0.857,1.231
		c0,0.276-0.052,0.628-0.078,0.754 M259.823,12.541c0-0.421-0.327-0.939-1.004-0.939c-0.728,0-1.406,0.693-1.406,1.361
		c0,0.396,0.302,0.939,1.004,0.939C259.096,13.902,259.823,13.26,259.823,12.541z"/>
</g>
<g>
	<defs>
		<rect id="SVGID_5_" x="195.824" y="70.607" width="68.801" height="30.4"/>
	</defs>
	<clipPath id="SVGID_6_">
		<use xlink:href="#SVGID_5_"  overflow="visible"/>
	</clipPath>
	<path clip-path="url(#SVGID_6_)" d="M203.082,99.28c0-0.085,0-0.143-0.492-0.631c-3.604-3.617-4.526-9.044-4.526-13.438
		c0-4.996,1.097-9.993,4.642-13.581c0.377-0.345,0.377-0.402,0.377-0.488c0-0.201-0.116-0.293-0.29-0.293
		c-0.289,0-2.887,1.958-4.59,5.605c-1.473,3.159-1.818,6.346-1.818,8.758c0,2.239,0.317,5.714,1.905,8.958
		c1.732,3.532,4.215,5.398,4.504,5.398c0.173,0,0.289-0.087,0.289-0.288"/>
	<path clip-path="url(#SVGID_6_)" d="M213.624,88.942c-0.144,0.517-0.144,0.575-0.573,1.064c-1.26,1.582-2.434,2.042-3.234,2.042
		c-1.432,0-1.833-1.581-1.833-2.702c0-1.437,0.915-4.974,1.574-6.296c0.887-1.696,2.176-2.76,3.321-2.76
		c1.86,0,2.263,2.357,2.263,2.53s-0.059,0.345-0.087,0.489 M219.59,72.766c0-0.029,0-0.318-0.374-0.318
		c-0.429,0-3.144,0.257-3.63,0.315c-0.229,0.028-0.399,0.171-0.399,0.543c0,0.343,0.257,0.343,0.686,0.343
		c1.372,0,1.429,0.201,1.429,0.489l-0.086,0.574l-1.715,6.81c-0.514-1.083-1.343-1.875-2.629-1.875
		c-3.344,0-6.888,4.234-6.888,8.435c0,2.705,1.571,4.604,3.802,4.604c0.57,0,2-0.114,3.715-2.155
		c0.229,1.207,1.229,2.155,2.602,2.155c1,0,1.657-0.66,2.115-1.579c0.485-1.034,0.857-2.786,0.857-2.842
		c0-0.287-0.257-0.287-0.344-0.287c-0.285,0-0.314,0.115-0.399,0.517c-0.485,1.862-1,3.552-2.172,3.552
		c-0.771,0-0.857-0.745-0.857-1.319c0-0.689,0.057-0.89,0.171-1.377L219.59,72.766z"/>
	<path clip-path="url(#SVGID_6_)" d="M229.715,90.761c0.315,1.178,1.317,1.925,2.549,1.925c1.002,0,1.662-0.659,2.12-1.579
		c0.487-1.034,0.861-2.785,0.861-2.842c0-0.288-0.261-0.288-0.347-0.288c-0.285,0-0.313,0.115-0.4,0.517
		c-0.4,1.604-0.944,3.553-2.146,3.553c-0.602,0-0.887-0.373-0.887-1.319c0-0.63,0.343-1.979,0.572-2.983
		c0.258-1.032,0.545-2.065,0.802-3.097c0.086-0.431,0.372-1.52,0.487-1.95c0.143-0.66,0.429-1.75,0.429-1.922
		c0-0.516-0.4-0.774-0.829-0.774c-0.144,0-0.887,0.029-1.117,1.004c-0.543,2.094-1.803,7.113-2.146,8.632
		c-0.028,0.114-1.174,2.409-3.263,2.409c-1.489,0-1.775-1.295-1.775-2.358c0-1.612,0.789-3.884,1.522-5.867
		c0.338-0.864,0.479-1.266,0.479-1.812c0-1.294-0.917-2.361-2.349-2.361c-2.72,0-3.778,4.193-3.778,4.455
		c0,0.289,0.283,0.289,0.34,0.289c0.283,0,0.312-0.058,0.454-0.521c0.709-2.514,1.786-3.583,2.863-3.583
		c0.256,0,0.709,0.03,0.709,0.951c0,0.69-0.306,1.524-0.471,1.956c-1.027,2.847-1.609,4.63-1.609,6.04
		c0,2.733,1.977,3.451,3.523,3.451c1.891,0,2.922-1.293,3.409-1.925"/>
	<path clip-path="url(#SVGID_6_)" d="M244.464,85.211c0-2.24-0.317-5.714-1.902-8.959c-1.729-3.53-4.206-5.404-4.494-5.404
		c-0.173,0-0.287,0.121-0.287,0.293c0,0.087,0,0.144,0.546,0.66c2.817,2.843,4.457,7.408,4.457,13.41
		c0,4.909-1.064,9.963-4.63,13.581c-0.373,0.345-0.373,0.403-0.373,0.488c0,0.173,0.114,0.288,0.287,0.288
		c0.288,0,2.882-1.953,4.581-5.599C244.117,90.81,244.464,87.623,244.464,85.211"/>
	<path clip-path="url(#SVGID_6_)" d="M249.685,94.357c-0.08,0.264-0.181,0.506-0.181,0.85c0,0.952,0.802,1.72,1.903,1.72
		c2.003,0,2.887-2.803,2.887-3.108c0-0.265-0.263-0.265-0.323-0.265c-0.282,0-0.303,0.123-0.383,0.348
		c-0.464,1.63-1.352,2.465-2.139,2.465c-0.402,0-0.504-0.263-0.504-0.708c0-0.466,0.142-0.849,0.323-1.294
		c0.201-0.547,0.425-1.093,0.646-1.619c0.182-0.485,0.909-2.327,0.989-2.57c0.061-0.202,0.122-0.444,0.122-0.647
		c0-0.951-0.804-1.722-1.907-1.722c-1.986,0-2.91,2.75-2.91,3.095c0,0.263,0.284,0.263,0.344,0.263c0.283,0,0.303-0.102,0.364-0.324
		c0.524-1.742,1.415-2.472,2.163-2.472c0.322,0,0.506,0.164,0.506,0.709c0,0.466-0.125,0.769-0.64,2.023 M253.771,84.159
		c0-0.317-0.241-0.752-0.803-0.752c-0.543,0-1.125,0.515-1.125,1.089c0,0.336,0.261,0.751,0.804,0.751
		C253.229,85.248,253.771,84.693,253.771,84.159z"/>
	<path clip-path="url(#SVGID_6_)" d="M259.991,97.654c-0.343,1.388-1.409,2.553-2.597,2.553c-0.262,0-0.504-0.026-0.726-0.08
		c0.517-0.241,0.676-0.72,0.676-1.021c0-0.479-0.38-0.74-0.78-0.74c-0.619,0-1.14,0.531-1.14,1.161c0,0.748,0.784,1.24,1.989,1.24
		c1.206,0,3.558-0.724,4.181-3.175l1.809-7.191c0.061-0.221,0.103-0.402,0.103-0.703c0-1.105-0.946-1.891-2.152-1.891
		c-2.231,0-3.519,2.811-3.519,3.094c0,0.263,0.282,0.263,0.343,0.263c0.241,0,0.261-0.061,0.403-0.365
		c0.504-1.175,1.551-2.432,2.719-2.432c0.504,0,0.686,0.342,0.686,0.985c0,0.221-0.04,0.503-0.062,0.603 M264.242,84.159
		c0-0.337-0.262-0.752-0.804-0.752c-0.583,0-1.125,0.555-1.125,1.089c0,0.316,0.241,0.751,0.804,0.751
		C263.659,85.248,264.242,84.733,264.242,84.159z"/>
</g>
<polygon points="193.325,79.05 190.622,79.958 188.483,73.589 182.115,75.729 181.208,73.027 190.277,69.979 "/>
</svg>
