<?xml version="1.0" encoding="utf-8"?>
<!-- Generator: Adobe Illustrator 14.0.0, SVG Export Plug-In . SVG Version: 6.00 Build 43363)  -->
<!DOCTYPE svg PUBLIC "-//W3C//DTD SVG 1.1//EN" "http://www.w3.org/Graphics/SVG/1.1/DTD/svg11.dtd">
<svg version="1.1" id="Layer_1" xmlns="http://www.w3.org/2000/svg" xmlns:xlink="http://www.w3.org/1999/xlink" x="0px" y="0px"
	 width="524px" height="304px" viewBox="0 0 524 304" enable-background="new 0 0 524 304" xml:space="preserve">
<g>
	<path opacity="0.2" fill-rule="evenodd" clip-rule="evenodd" fill="#1B1F8A" enable-background="new    " d="M11.257,290.042
		V195.52c3.002-0.922,3.503-4.068,5.057-6.067c2.568-3.308,6.141-6.826,8.092-9.104c0.807-0.941,1.182-3.017,2.022-4.047
		c3.608-4.412,7.788-8.141,11.125-12.136c1.721-2.062,3.559-5.402,5.058-7.081c1.7-1.906,4.367-3.154,6.068-5.055
		c1.977-2.212,3.062-4.942,5.057-7.081c4.965-5.323,12.225-12.128,17.194-17.194c6.473-6.604,10.235-9.685,19.217-16.183
		c1.109-0.802,2.892-1.116,4.046-2.023c2.913-2.284,8.306-8.583,12.137-6.068c0.451,0.297,0.603,4.381,1.012,7.081
		c0.274,1.812-0.034,6.153,0,7.079c0.201,5.509-0.004,14.461,2.021,16.183c2.006,1.705,16.201,1.135,19.217,0
		c5.237-1.97,6.976-6.82,10.115-10.115c3.085-3.236,6.897-7.245,11.125-9.103c1.644-0.723,5.194-0.508,7.08-1.011
		c4.591-1.227,7.143-3.109,12.137-3.034c1.909,0.027,4.42,1.719,7.081,1.011c2.611-0.697,4.676-3.901,8.091-6.068
		c2.909-1.847,6.878-3.933,10.115-5.058c2.961-1.029,9.315-1.195,11.125-2.023c5.043-2.308,12.75-12.268,17.194-16.182
		c3.004-2.648,5.318-5.032,6.068-5.058c1.95-0.067,3.857,4.359,5.057,5.058c1.722,1.001,6.802,1.973,9.103,2.022
		c8.703,0.196,15.575-6.787,25.286-11.126c2.297-1.027,4.997-2.697,6.069-3.034c3.072-0.972,7.263,0.11,9.103-1.012
		c1.443-0.877,3.07-4.309,5.057-7.078c3.625-5.053,7.6-9.498,10.114-14.162c1.703-3.155,2.083-6.426,4.047-9.101
		c2.744-3.744,8.378-7.495,12.137-9.105c6.456-2.766,14.007,0.017,19.216,2.023c1.942,0.748,4.356,1.482,5.059,2.023
		c2.845,2.202,3.477,5.546,5.056,8.093c2.855,4.608,11.559,3.619,16.182,6.067c1.292,0.684,1.594,2.396,3.036,3.034
		c2.806,1.245,6.368,1.859,9.102,3.034c2.877,1.239,5.342,2.769,8.091,4.048c8.877,4.127,17.85,6.815,26.298,10.112
		c1.307,0.51,2.535,1.468,4.046,2.023c1.527,0.564,3.89,0.438,5.057,1.011c4.373,2.154,7.118,6.182,11.125,8.094
		c3.147,1.498,7.995,1.677,12.137,3.033c5.243,1.714,8.944,3.879,12.137,4.045c5.621,0.292,10.917-2.117,16.184-2.023
		c14.707,0.264,28.428,8.674,45.515,6.068v199.71H11.257z"/>
	<path fill-rule="evenodd" clip-rule="evenodd" fill="none" stroke="#000000" stroke-width="1.7322" d="M11.257,195.52
		c3.002-0.922,3.503-4.068,5.057-6.067c2.568-3.308,6.141-6.826,8.092-9.104c0.807-0.941,1.182-3.017,2.022-4.047
		c3.608-4.412,7.788-8.141,11.125-12.136c1.721-2.062,3.559-5.402,5.058-7.081c1.7-1.906,4.367-3.154,6.068-5.055
		c1.977-2.212,3.062-4.942,5.057-7.081c4.965-5.323,12.225-12.128,17.194-17.194c6.473-6.604,10.235-9.685,19.217-16.183
		c1.109-0.802,2.892-1.116,4.046-2.023c2.913-2.284,8.306-8.583,12.137-6.068c0.451,0.297,0.603,4.381,1.012,7.081
		c0.274,1.812-0.034,6.153,0,7.079c0.201,5.509-0.004,14.461,2.021,16.183c2.006,1.705,16.201,1.135,19.217,0
		c5.237-1.97,6.976-6.82,10.115-10.115c3.085-3.236,6.897-7.245,11.125-9.103c1.644-0.723,5.194-0.508,7.08-1.011
		c4.591-1.227,7.143-3.109,12.137-3.034c1.909,0.027,4.42,1.719,7.081,1.011c2.611-0.697,4.676-3.901,8.091-6.068
		c2.909-1.847,6.878-3.933,10.115-5.058c2.961-1.029,9.315-1.195,11.125-2.023c5.043-2.308,12.75-12.268,17.194-16.182
		c3.004-2.648,5.318-5.032,6.068-5.058c1.95-0.067,3.857,4.359,5.057,5.058c1.722,1.001,6.802,1.973,9.103,2.022
		c8.703,0.196,15.575-6.787,25.286-11.126c2.297-1.027,4.997-2.697,6.069-3.034c3.072-0.972,7.263,0.11,9.103-1.012
		c1.443-0.877,3.07-4.309,5.057-7.078c3.625-5.053,7.6-9.498,10.114-14.162c1.703-3.155,2.083-6.426,4.047-9.101
		c2.744-3.744,8.378-7.495,12.137-9.105c6.456-2.766,14.007,0.017,19.216,2.023c1.942,0.748,4.356,1.482,5.059,2.023
		c2.845,2.202,3.477,5.546,5.056,8.093c2.855,4.608,11.559,3.619,16.182,6.067c1.292,0.684,1.594,2.396,3.036,3.034
		c2.806,1.245,6.368,1.859,9.102,3.034c2.877,1.239,5.342,2.769,8.091,4.048c8.877,4.127,17.85,6.815,26.298,10.112
		c1.307,0.51,2.535,1.468,4.046,2.023c1.527,0.564,3.89,0.438,5.057,1.011c4.373,2.154,7.118,6.182,11.125,8.094
		c3.147,1.498,7.995,1.677,12.137,3.033c5.243,1.714,8.944,3.879,12.137,4.045c5.621,0.292,10.917-2.117,16.184-2.023
		c14.707,0.264,28.428,8.674,45.515,6.068"/>
</g>
<g>
	<path opacity="0.2" fill="#1B1F8A" enable-background="new    " d="M11.081,290.042V173.496
		c9.751-6.957,16.721-17.182,23.361-26.964c7.084-10.434,13.851-21.468,22.634-30.597c3.999-4.156,8.393-7.888,13.421-10.745
		c4.827-2.743,10.017-4.665,15.375-6.09c8.03-2.136,16.393-3.38,24.716-3.157c9.739,0.261,19.191,2.857,28.883,3.535
		c8.226,0.575,16.269-0.493,24.001-3.428c11.858-4.502,21.626-13.136,31.463-20.872c7.895-6.209,16.575-10.909,26.738-11.532
		c6.566-0.404,13.13,0.633,19.702,0.419c9.915-0.321,19.186-3.837,27.06-9.851c9.703-7.408,17.134-17.112,25.175-26.183
		c6.232-7.032,13.772-15.429,23.763-16.313c3.527-0.312,7.108,0.355,10.436,1.513c6.139,2.137,11.91,5.262,17.713,8.161
		c11.489,5.738,22.835,11.673,34.186,17.678c10.968,5.802,22.697,9.381,34.231,13.814c10.707,4.114,21.208,9.213,32.533,11.423
		c7.478,1.459,15.127,1.748,22.728,1.537c8.259-0.228,16.564-1.682,24.829-1.226c7.32,0.404,13.58,3.337,18.892,8.369v217.054
		H11.081z"/>
	<path fill="none" stroke="#000000" stroke-width="1.7322" d="M11.081,173.496c9.751-6.957,16.721-17.182,23.361-26.964
		c7.084-10.434,13.851-21.468,22.634-30.597c3.999-4.156,8.393-7.888,13.421-10.745c4.827-2.743,10.017-4.665,15.375-6.09
		c8.03-2.136,16.393-3.38,24.716-3.157c9.739,0.261,19.191,2.857,28.883,3.535c8.226,0.575,16.269-0.493,24.001-3.428
		c11.858-4.502,21.626-13.136,31.463-20.872c7.895-6.209,16.575-10.909,26.738-11.532c6.566-0.404,13.13,0.633,19.702,0.419
		c9.915-0.321,19.186-3.837,27.06-9.851c9.703-7.408,17.134-17.112,25.175-26.183c6.232-7.032,13.772-15.429,23.763-16.313
		c3.527-0.312,7.108,0.355,10.436,1.513c6.139,2.137,11.91,5.262,17.713,8.161c11.489,5.738,22.835,11.673,34.186,17.678
		c10.968,5.802,22.697,9.381,34.231,13.814c10.707,4.114,21.208,9.213,32.533,11.423c7.478,1.459,15.127,1.748,22.728,1.537
		c8.259-0.228,16.564-1.682,24.829-1.226c7.32,0.404,13.58,3.337,18.892,8.369"/>
</g>
<path opacity="0.2" fill="#891B1B" enable-background="new    " d="M512.92,290.042c-3.646,0-7.291,0-10.937,0
	c-13.246,0-26.491,0-39.738,0c-12.921,0-25.842,0-38.764,0c-12.782,0-25.563,0-38.346,0c-12.723,0-25.444,0-38.168,0
	c-12.99,0-25.98,0-38.971,0c-13.58,0-27.16,0-40.739,0c-10.239,0-20.478,0-30.716,0c-7.746,0-15.493,0-23.239,0
	c-7.872,0-15.742,0-23.614,0c-7.769,0-15.537,0-23.306,0c-8.337,0-16.676-0.001-25.013-0.001c-8.77,0-17.541,0.006-26.31-0.076
	c-9.525-0.089-19.224-0.119-28.631-1.787c-11.198-1.984-20.9-7.007-29.107-14.881c-8.879-8.52-15.798-18.892-23.202-28.653
	c-3.567-4.702-7.432-9.507-12.089-13.179c-3.152-2.484-6.841-4.517-10.951-4.528v63.105"/>
<path opacity="0.2" fill="#89401B" enable-background="new    " d="M512.92,290.042c-2.199,0-4.396,0-6.596,0
	c-12.677,0-25.353,0-38.028,0c-12.839,0-25.678,0-38.517,0c-13.363,0-26.729,0-40.094,0c-13.316,0-26.633,0-39.949,0
	c-12.664,0-25.329,0-37.993,0c-9.555,0-19.11,0-28.666,0c-7.673,0-15.347,0-23.021,0c-7.782,0-15.565,0-23.348,0
	c-7.746,0-15.492,0-23.238,0c-8.591,0-17.183-0.003-25.773-0.003c-9.042,0-18.085,0.014-27.126-0.135
	c-9.77-0.16-19.77-0.395-29.276-2.873c-11.171-2.912-20.363-9.632-28.027-18.109c-8.384-9.274-15.218-19.808-23.132-29.465
	c-5.143-6.276-12.837-14.236-21.819-12.182c-4.639,1.062-8.664,4.359-11.89,7.718c-4.164,4.337-7.82,9.094-11.414,13.905
	c-7.308,9.783-14.443,20.081-23.933,27.917v13.227"/>
<path opacity="0.2" fill="#89521B" enable-background="new    " d="M11.08,289.921c9.363-0.14,18.908-0.307,28.085-2.346
	c10.667-2.371,20.517-8.03,27.897-16.132c4.279-4.698,8.324-9.472,12.146-14.551c3.742-4.972,7.322-10.114,11.289-14.912
	c5.394-6.524,12.681-15.952,22.254-14.978c4.644,0.473,8.592,3.374,11.931,6.434c4.359,3.993,8.023,8.795,11.557,13.512
	c7.431,9.919,14.55,20.397,23.929,28.621c8.481,7.437,18.499,11.499,29.589,13.067c9.311,1.316,18.824,1.278,28.208,1.351
	c8.97,0.068,17.941,0.054,26.911,0.054c8.264,0,16.527,0.001,24.79,0.001c7.813,0,15.627,0,23.441,0c7.808,0,15.614,0,23.422,0
	c7.674,0,15.346,0,23.019,0c10.476,0,20.951,0,31.426,0c13.123,0,26.248,0,39.372,0c13.485,0,26.972,0,40.456,0
	c13.076,0,26.149,0,39.225,0c7.631,0,15.262,0,22.894,0"/>
<path opacity="0.2" fill="#89641B" enable-background="new    " d="M11.08,290.042c8.505,0,17.009,0.003,25.514-0.004
	c8.919-0.009,17.84,0.009,26.758-0.153c9.662-0.176,19.597-0.441,28.961-3.048c10.966-3.052,20.093-9.73,27.531-18.224
	c8.443-9.641,15.523-20.325,23.754-30.136c5.173-6.168,12.865-13.487,21.637-11.035c4.894,1.369,9.075,5.094,12.407,8.788
	c4.446,4.933,8.397,10.234,12.378,15.54c7.298,9.728,14.558,19.896,24.506,27.119c8.841,6.42,18.987,9.218,29.746,10.241
	c9.051,0.862,18.188,0.828,27.271,0.877c8.805,0.048,17.612,0.034,26.417,0.034c8.328,0,16.658,0,24.986,0
	c7.639,0,15.275,0,22.913,0c7.721,0,15.441,0,23.162,0c7.704,0,15.406,0,23.11,0c11.121,0,22.241,0,33.362,0
	c12.693,0,25.385,0,38.078,0c13.118,0,26.238,0,39.357,0c3.33,0,6.659,0,9.989,0"/>
<path opacity="0.2" fill="#89771B" enable-background="new    " d="M11.08,290.042c7.726,0,15.452,0,23.178,0
	c7.578,0,15.155,0,22.732,0c8.531,0,17.062,0,25.592-0.001c8.968-0.002,17.938,0.022,26.904-0.094
	c9.419-0.123,18.998-0.197,28.274-2.008c10.974-2.142,20.494-7.395,28.429-15.247c8.98-8.886,16.026-19.513,23.707-29.486
	c3.398-4.411,7.115-8.761,11.535-12.184c3.085-2.39,6.806-4.183,10.78-4.08c4.48,0.117,8.487,2.681,11.769,5.532
	c4.705,4.085,8.436,9.118,12.263,13.993c7.526,9.589,14.203,19.721,23.159,28.09c8.157,7.621,18.203,12.168,29.183,13.855
	c9.299,1.429,18.783,1.474,28.173,1.562c8.686,0.082,17.373,0.066,26.06,0.066c8.427,0,16.852,0.001,25.277,0.001
	c7.808,0,15.616,0,23.424,0c7.733,0,15.468,0,23.2,0c7.582,0,15.163,0,22.744,0c9.909,0,19.819,0,29.728,0
	c12.945,0,25.893,0,38.838,0c2.298,0,4.595,0,6.891,0"/>
<path opacity="0.2" fill="#89891B" enable-background="new    " d="M11.08,290.042c10.063,0,20.126,0,30.189,0
	c7.722,0,15.443,0,23.165,0c7.858,0,15.718,0,23.576,0c7.748,0,15.496,0,23.244,0c8.277,0,16.553,0,24.83-0.003
	c9.021-0.003,18.047,0.03,27.068-0.144c9.882-0.192,20.022-0.41,29.606-3.076c11.473-3.193,20.338-10.341,28.229-19.013
	c8.464-9.3,15.082-20.14,23.273-29.674c5.13-5.97,12.557-13.005,21.134-10.745c5.205,1.372,9.435,5.384,12.984,9.229
	c4.035,4.368,7.56,9.201,11.138,13.943c7.562,10.025,14.947,20.868,25.287,28.291c8.9,6.39,19.032,9.281,29.839,10.28
	c9.204,0.85,18.483,0.838,27.719,0.878c8.597,0.038,17.192,0.033,25.789,0.033c8.423,0,16.846,0,25.268,0c7.865,0,15.728,0,23.593,0
	c7.759,0,15.517,0,23.275,0c7.605,0,15.211,0,22.816,0c6.604,0,13.211,0,19.817,0"/>
<path opacity="0.2" fill="#79891B" enable-background="new    " d="M11.08,290.042c12.952,0,25.905,0,38.857,0
	c11.102,0,22.203,0,33.304,0c7.452,0,14.903,0,22.355,0c7.652,0,15.304,0,22.957,0c7.669,0,15.338,0,23.007,0
	c8.295,0,16.59,0,24.886,0c8.6,0,17.199,0.006,25.799-0.034c9.654-0.046,19.355-0.042,28.966-1.046
	c10.76-1.125,20.845-4.412,29.455-11.105c10.292-7.999,17.782-19.001,25.529-29.321c3.418-4.552,6.891-9.047,10.824-13.168
	c3.343-3.504,7.381-6.985,12.226-8.093c8.911-2.038,16.342,5.752,21.548,11.871c8.11,9.532,14.723,20.274,23.172,29.531
	c7.814,8.562,16.902,15.351,28.238,18.352c9.271,2.454,19.057,2.686,28.59,2.862c9.054,0.169,18.109,0.14,27.164,0.148
	c8.548,0.009,17.097,0.003,25.644,0.003c7.93,0,15.861,0,23.792,0c7.878,0,15.754,0,23.633,0c0.631,0,1.263,0,1.895,0"/>
<path opacity="0.2" fill="#67891B" enable-background="new    " d="M11.08,290.042c12.952,0,25.905,0,38.857,0
	c12.734,0,25.469,0,38.202,0c12.101,0,24.201,0,36.302,0c8.166,0,16.332,0,24.498,0c7.893,0,15.786,0,23.68,0
	c7.778,0,15.556,0,23.333,0c7.997,0,15.995,0,23.992,0c8.588,0,17.177,0.003,25.765-0.013c8.948-0.018,17.914,0.021,26.853-0.411
	c9.974-0.48,20.37-1.544,29.401-6.138c11.28-5.734,19.158-15.162,26.898-24.886c3.857-4.849,7.38-9.964,11.174-14.863
	c3.518-4.543,7.305-9.235,11.936-12.698c3.108-2.324,6.689-4.167,10.658-4.094c3.999,0.075,7.717,2.097,10.745,4.579
	c4.536,3.717,8.359,8.289,11.887,12.954c3.951,5.225,7.829,10.504,11.851,15.674c7.259,9.332,15.363,18.439,26.224,23.608
	c9.27,4.41,19.61,5.464,29.741,5.905c9.062,0.396,18.145,0.36,27.214,0.37c8.694,0.011,17.39,0.012,26.086,0.012
	c2.182,0,4.362,0,6.544,0"/>
<path opacity="0.2" fill="#54891B" enable-background="new    " d="M11.08,290.042c12.952,0,25.905,0,38.857,0
	c12.734,0,25.469,0,38.202,0c12.757,0,25.513,0,38.269,0c12.998,0,25.995,0,38.992,0c9.091,0,18.184,0,27.275,0
	c7.771,0,15.542,0,23.313,0c7.74,0,15.48,0,23.221,0c7.863,0,15.728,0,23.592,0c8.483,0,16.965-0.004,25.449-0.004
	c9.023,0,18.051,0.037,27.071-0.175c9.612-0.225,19.42-0.558,28.716-3.25c11.168-3.235,20.453-10.51,27.91-19.268
	c8.319-9.773,15.235-20.686,23.789-30.253c5.503-6.154,13.254-12.556,21.925-9.143c5.261,2.071,9.199,6.413,12.905,10.501
	c4.081,4.503,7.604,9.582,11.219,14.454c6.936,9.347,14.131,19.263,23.736,26.067c8.9,6.307,18.913,9.154,29.683,10.158
	c5.888,0.55,11.806,0.69,17.716,0.79"/>
<path opacity="0.2" fill="#41891B" enable-background="new    " d="M11.08,290.042c12.952,0,25.905,0,38.857,0
	c12.734,0,25.469,0,38.202,0c12.757,0,25.513,0,38.269,0c12.877,0,25.754,0,38.631,0c13.398,0,26.797,0,40.195,0
	c10.686,0,21.372,0,32.059,0c7.459,0,14.92,0,22.381,0c7.698,0,15.396,0,23.094,0c7.941,0,15.882,0,23.823,0
	c8.429,0,16.86-0.001,25.29-0.001c8.922,0,17.843,0.013,26.764-0.074c9.439-0.094,18.962-0.191,28.298-1.713
	c11.023-1.797,20.796-6.708,28.925-14.363c8.904-8.384,15.652-18.659,23.096-28.28c3.704-4.791,7.466-9.646,12.114-13.571
	c3.097-2.615,6.829-4.858,10.969-5.084c3.868-0.209,7.481,1.451,10.554,3.682c4.593,3.333,8.38,7.834,11.835,12.293
	c7.614,9.823,14.536,20.312,23.321,29.164c1.644,1.656,3.367,3.233,5.164,4.722v13.227"/>
<path opacity="0.2" fill="#2E891B" enable-background="new    " d="M11.08,290.042c12.952,0,25.905,0,38.857,0
	c12.734,0,25.469,0,38.202,0c12.757,0,25.513,0,38.269,0c12.877,0,25.754,0,38.631,0c13.398,0,26.797,0,40.195,0
	c13.288,0,26.575,0,39.862,0c11.63,0,23.26,0,34.892,0c7.826,0,15.652,0,23.48,0c7.767,0,15.534,0,23.301,0
	c7.525,0,15.049,0,22.572,0c8.306,0,16.611,0,24.916,0c8.568,0,17.139,0.015,25.708-0.022c9.351-0.041,18.735,0.013,28.064-0.698
	c10.598-0.808,21.11-3.022,30.056-9.055c10.049-6.775,17.548-16.535,24.703-26.152c3.732-5.018,7.409-10.082,11.436-14.869
	c3.358-3.993,7.185-8.11,11.892-10.521c2.111-1.082,4.417-1.788,6.804-1.787v63.108"/>
<path fill="none" stroke="#231F20" stroke-width="0.7383" stroke-dasharray="5.9068" d="M512.92,290.042c-3.646,0-7.291,0-10.937,0
	c-13.246,0-26.491,0-39.738,0c-12.921,0-25.842,0-38.764,0c-12.782,0-25.563,0-38.346,0c-12.723,0-25.444,0-38.168,0
	c-12.99,0-25.98,0-38.971,0c-13.58,0-27.16,0-40.739,0c-10.239,0-20.478,0-30.716,0c-7.746,0-15.493,0-23.239,0
	c-7.872,0-15.742,0-23.614,0c-7.769,0-15.537,0-23.306,0c-8.337,0-16.676-0.001-25.013-0.001c-8.77,0-17.541,0.006-26.31-0.076
	c-9.525-0.089-19.224-0.119-28.631-1.787c-11.198-1.984-20.9-7.007-29.107-14.881c-8.879-8.52-15.798-18.892-23.202-28.653
	c-3.567-4.702-7.432-9.507-12.089-13.179c-3.152-2.484-6.841-4.517-10.951-4.528"/>
<path fill="none" stroke="#231F20" stroke-width="0.7383" d="M512.92,290.042c-2.199,0-4.396,0-6.596,0c-12.677,0-25.353,0-38.028,0
	c-12.839,0-25.678,0-38.517,0c-13.363,0-26.729,0-40.094,0c-13.316,0-26.633,0-39.949,0c-12.664,0-25.329,0-37.993,0
	c-9.555,0-19.11,0-28.666,0c-7.673,0-15.347,0-23.021,0c-7.782,0-15.565,0-23.348,0c-7.746,0-15.492,0-23.238,0
	c-8.591,0-17.183-0.003-25.773-0.003c-9.042,0-18.085,0.014-27.126-0.135c-9.77-0.16-19.77-0.395-29.276-2.873
	c-11.171-2.912-20.363-9.632-28.027-18.109c-8.384-9.274-15.218-19.808-23.132-29.465c-5.143-6.276-12.837-14.236-21.819-12.182
	c-4.639,1.062-8.664,4.359-11.89,7.718c-4.164,4.337-7.82,9.094-11.414,13.905c-7.308,9.783-14.443,20.081-23.933,27.917v13.227"/>
<path fill="none" stroke="#231F20" stroke-width="0.7383" stroke-dasharray="5.9068" d="M11.08,289.921
	c9.363-0.14,18.908-0.307,28.085-2.346c10.667-2.371,20.517-8.03,27.897-16.132c4.279-4.698,8.324-9.472,12.146-14.551
	c3.742-4.972,7.322-10.114,11.289-14.912c5.394-6.524,12.681-15.952,22.254-14.978c4.644,0.473,8.592,3.374,11.931,6.434
	c4.359,3.993,8.023,8.795,11.557,13.512c7.431,9.919,14.55,20.397,23.929,28.621c8.481,7.437,18.499,11.499,29.589,13.067
	c9.311,1.316,18.824,1.278,28.208,1.351c8.97,0.068,17.941,0.054,26.911,0.054c8.264,0,16.527,0.001,24.79,0.001
	c7.813,0,15.627,0,23.441,0c7.808,0,15.614,0,23.422,0c7.674,0,15.346,0,23.019,0c10.476,0,20.951,0,31.426,0
	c13.123,0,26.248,0,39.372,0c13.485,0,26.972,0,40.456,0c13.076,0,26.149,0,39.225,0c7.631,0,15.262,0,22.894,0"/>
<path fill="none" stroke="#231F20" stroke-width="0.7383" d="M11.08,290.042c8.505,0,17.009,0.003,25.514-0.004
	c8.919-0.009,17.84,0.009,26.758-0.153c9.662-0.176,19.597-0.441,28.961-3.048c10.966-3.052,20.093-9.73,27.531-18.224
	c8.443-9.641,15.523-20.325,23.754-30.136c5.173-6.168,12.865-13.487,21.637-11.035c4.894,1.369,9.075,5.094,12.407,8.788
	c4.446,4.933,8.397,10.234,12.378,15.54c7.298,9.728,14.558,19.896,24.506,27.119c8.841,6.42,18.987,9.218,29.746,10.241
	c9.051,0.862,18.188,0.828,27.271,0.877c8.805,0.048,17.612,0.034,26.417,0.034c8.328,0,16.658,0,24.986,0
	c7.639,0,15.275,0,22.913,0c7.721,0,15.441,0,23.162,0c7.704,0,15.406,0,23.11,0c11.121,0,22.241,0,33.362,0
	c12.693,0,25.385,0,38.078,0c13.118,0,26.238,0,39.357,0c3.33,0,6.659,0,9.989,0"/>
<path fill="none" stroke="#231F20" stroke-width="0.7383" stroke-dasharray="5.9068" d="M11.08,290.042c7.726,0,15.452,0,23.178,0
	c7.578,0,15.155,0,22.732,0c8.531,0,17.062,0,25.592-0.001c8.968-0.002,17.938,0.022,26.904-0.094
	c9.419-0.123,18.998-0.197,28.274-2.008c10.974-2.142,20.494-7.395,28.429-15.247c8.98-8.886,16.026-19.513,23.707-29.486
	c3.398-4.411,7.115-8.761,11.535-12.184c3.085-2.39,6.806-4.183,10.78-4.08c4.48,0.117,8.487,2.681,11.769,5.532
	c4.705,4.085,8.436,9.118,12.263,13.993c7.526,9.589,14.203,19.721,23.159,28.09c8.157,7.621,18.203,12.168,29.183,13.855
	c9.299,1.429,18.783,1.474,28.173,1.562c8.686,0.082,17.373,0.066,26.06,0.066c8.427,0,16.852,0.001,25.277,0.001
	c7.808,0,15.616,0,23.424,0c7.733,0,15.468,0,23.2,0c7.582,0,15.163,0,22.744,0c9.909,0,19.819,0,29.728,0
	c12.945,0,25.893,0,38.838,0c2.298,0,4.595,0,6.891,0"/>
<path fill="none" stroke="#231F20" stroke-width="0.7383" d="M11.08,290.042c10.063,0,20.126,0,30.189,0c7.722,0,15.443,0,23.165,0
	c7.858,0,15.718,0,23.576,0c7.748,0,15.496,0,23.244,0c8.277,0,16.553,0,24.83-0.003c9.021-0.003,18.047,0.03,27.068-0.144
	c9.882-0.192,20.022-0.41,29.606-3.076c11.473-3.193,20.338-10.341,28.229-19.013c8.464-9.3,15.082-20.14,23.273-29.674
	c5.13-5.97,12.557-13.005,21.134-10.745c5.205,1.372,9.435,5.384,12.984,9.229c4.035,4.368,7.56,9.201,11.138,13.943
	c7.562,10.025,14.947,20.868,25.287,28.291c8.9,6.39,19.032,9.281,29.839,10.28c9.204,0.85,18.483,0.838,27.719,0.878
	c8.597,0.038,17.192,0.033,25.789,0.033c8.423,0,16.846,0,25.268,0c7.865,0,15.728,0,23.593,0c7.759,0,15.517,0,23.275,0
	c7.605,0,15.211,0,22.816,0c6.604,0,13.211,0,19.817,0"/>
<path fill="none" stroke="#231F20" stroke-width="0.7383" stroke-dasharray="5.9068" d="M11.08,290.042c12.952,0,25.905,0,38.857,0
	c11.102,0,22.203,0,33.304,0c7.452,0,14.903,0,22.355,0c7.652,0,15.304,0,22.957,0c7.669,0,15.338,0,23.007,0
	c8.295,0,16.59,0,24.886,0c8.6,0,17.199,0.006,25.799-0.034c9.654-0.046,19.355-0.042,28.966-1.046
	c10.76-1.125,20.845-4.412,29.455-11.105c10.292-7.999,17.782-19.001,25.529-29.321c3.418-4.552,6.891-9.047,10.824-13.168
	c3.343-3.504,7.381-6.985,12.226-8.093c8.911-2.038,16.342,5.752,21.548,11.871c8.11,9.532,14.723,20.274,23.172,29.531
	c7.814,8.562,16.902,15.351,28.238,18.352c9.271,2.454,19.057,2.686,28.59,2.862c9.054,0.169,18.109,0.14,27.164,0.148
	c8.548,0.009,17.097,0.003,25.644,0.003c7.93,0,15.861,0,23.792,0c7.878,0,15.754,0,23.633,0c0.631,0,1.263,0,1.895,0"/>
<path fill="none" stroke="#231F20" stroke-width="0.7383" d="M11.08,290.042c12.952,0,25.905,0,38.857,0c12.734,0,25.469,0,38.202,0
	c12.101,0,24.201,0,36.302,0c8.166,0,16.332,0,24.498,0c7.893,0,15.786,0,23.68,0c7.778,0,15.556,0,23.333,0
	c7.997,0,15.995,0,23.992,0c8.588,0,17.177,0.003,25.765-0.013c8.948-0.018,17.914,0.021,26.853-0.411
	c9.974-0.48,20.37-1.544,29.401-6.138c11.28-5.734,19.158-15.162,26.898-24.886c3.857-4.849,7.38-9.964,11.174-14.863
	c3.518-4.543,7.305-9.235,11.936-12.698c3.108-2.324,6.689-4.167,10.658-4.094c3.999,0.075,7.717,2.097,10.745,4.579
	c4.536,3.717,8.359,8.289,11.887,12.954c3.951,5.225,7.829,10.504,11.851,15.674c7.259,9.332,15.363,18.439,26.224,23.608
	c9.27,4.41,19.61,5.464,29.741,5.905c9.062,0.396,18.145,0.36,27.214,0.37c8.694,0.011,17.39,0.012,26.086,0.012
	c2.182,0,4.362,0,6.544,0"/>
<path fill="none" stroke="#231F20" stroke-width="0.7383" stroke-dasharray="5.9068" d="M11.08,290.042c12.952,0,25.905,0,38.857,0
	c12.734,0,25.469,0,38.202,0c12.757,0,25.513,0,38.269,0c12.998,0,25.995,0,38.992,0c9.091,0,18.184,0,27.275,0
	c7.771,0,15.542,0,23.313,0c7.74,0,15.48,0,23.221,0c7.863,0,15.728,0,23.592,0c8.483,0,16.965-0.004,25.449-0.004
	c9.023,0,18.051,0.037,27.071-0.175c9.612-0.225,19.42-0.558,28.716-3.25c11.168-3.235,20.453-10.51,27.91-19.268
	c8.319-9.773,15.235-20.686,23.789-30.253c5.503-6.154,13.254-12.556,21.925-9.143c5.261,2.071,9.199,6.413,12.905,10.501
	c4.081,4.503,7.604,9.582,11.219,14.454c6.936,9.347,14.131,19.263,23.736,26.067c8.9,6.307,18.913,9.154,29.683,10.158
	c5.888,0.55,11.806,0.69,17.716,0.79"/>
<path fill="none" stroke="#231F20" stroke-width="0.7383" d="M11.08,290.042c12.952,0,25.905,0,38.857,0c12.734,0,25.469,0,38.202,0
	c12.757,0,25.513,0,38.269,0c12.877,0,25.754,0,38.631,0c13.398,0,26.797,0,40.195,0c10.686,0,21.372,0,32.059,0
	c7.459,0,14.92,0,22.381,0c7.698,0,15.396,0,23.094,0c7.941,0,15.882,0,23.823,0c8.429,0,16.86-0.001,25.29-0.001
	c8.922,0,17.843,0.013,26.764-0.074c9.439-0.094,18.962-0.191,28.298-1.713c11.023-1.797,20.796-6.708,28.925-14.363
	c8.904-8.384,15.652-18.659,23.096-28.28c3.704-4.791,7.466-9.646,12.114-13.571c3.097-2.615,6.829-4.858,10.969-5.084
	c3.868-0.209,7.481,1.451,10.554,3.682c4.593,3.333,8.38,7.834,11.835,12.293c7.614,9.823,14.536,20.312,23.321,29.164
	c1.644,1.656,3.367,3.233,5.164,4.722v13.227"/>
<path fill="none" stroke="#231F20" stroke-width="0.7383" stroke-dasharray="5.9068" d="M11.08,290.042c12.952,0,25.905,0,38.857,0
	c12.734,0,25.469,0,38.202,0c12.757,0,25.513,0,38.269,0c12.877,0,25.754,0,38.631,0c13.398,0,26.797,0,40.195,0
	c13.288,0,26.575,0,39.862,0c11.63,0,23.26,0,34.892,0c7.826,0,15.652,0,23.48,0c7.767,0,15.534,0,23.301,0
	c7.525,0,15.049,0,22.572,0c8.306,0,16.611,0,24.916,0c8.568,0,17.139,0.015,25.708-0.022c9.351-0.041,18.735,0.013,28.064-0.698
	c10.598-0.808,21.11-3.022,30.056-9.055c10.049-6.775,17.548-16.535,24.703-26.152c3.732-5.018,7.409-10.082,11.436-14.869
	c3.358-3.993,7.185-8.11,11.892-10.521c2.111-1.082,4.417-1.788,6.804-1.787"/>
<g>
	<defs>
		<rect id="SVGID_1_" x="251" y="197" width="24" height="26.8"/>
	</defs>
	<clipPath id="SVGID_2_">
		<use xlink:href="#SVGID_1_"  overflow="visible"/>
	</clipPath>
	<path clip-path="url(#SVGID_2_)" d="M260.67,205c2.189,0.117,3.83,1.438,3.83,3.964c0,3.388-2.477,7.493-6.796,7.837
		 M256.971,216.8c-1.714-0.086-3.771-1.091-3.771-3.961c0-3.444,2.457-7.464,6.714-7.839L256.971,216.8z M262.479,197.89
		c0-0.057,0.086-0.372,0.086-0.401s0-0.289-0.346-0.289c-0.289,0-0.317,0.088-0.432,0.574l-1.671,6.625
		c-4.581,0.146-8.816,3.964-8.816,7.866c0,2.728,2.018,4.994,5.532,5.195c-0.23,0.889-0.432,1.808-0.663,2.698
		c-0.346,1.349-0.634,2.438-0.634,2.525c0,0.287,0.202,0.316,0.345,0.316c0.144,0,0.202-0.029,0.288-0.115
		c0.058-0.057,0.23-0.746,0.317-1.147c0.374-1.406,0.72-2.841,1.095-4.276c4.639-0.143,8.818-4.018,8.818-7.864
		c0-2.267-1.529-4.907-5.534-5.196L262.479,197.89z"/>
	<path clip-path="url(#SVGID_2_)" d="M269.475,219.048c-0.078,0.261-0.175,0.502-0.175,0.845c0,0.943,0.791,1.706,1.88,1.706
		c1.979,0,2.851-2.77,2.851-3.07c0-0.261-0.261-0.261-0.321-0.261c-0.281,0-0.301,0.118-0.381,0.336
		c-0.461,1.584-1.343,2.396-2.125,2.396c-0.401,0-0.502-0.261-0.502-0.703c0-0.462,0.136-0.844,0.311-1.286
		c0.194-0.542,0.408-1.085,0.621-1.606c0.175-0.482,0.873-2.312,0.951-2.553c0.059-0.2,0.116-0.441,0.116-0.643
		c0-0.945-0.793-1.709-1.882-1.709c-1.963,0-2.873,2.768-2.873,3.112c0,0.264,0.281,0.264,0.341,0.264
		c0.281,0,0.301-0.1,0.362-0.322c0.521-1.729,1.405-2.454,2.148-2.454c0.321,0,0.503,0.162,0.503,0.705
		c0,0.463-0.116,0.764-0.599,2.01 M273.507,208.876c0-0.327-0.241-0.777-0.804-0.777c-0.542,0-1.125,0.531-1.125,1.124
		c0,0.349,0.261,0.777,0.804,0.777C272.964,210,273.507,209.428,273.507,208.876z"/>
</g>
<g>
	<defs>
		<rect id="SVGID_3_" x="57" y="147" width="15" height="14"/>
	</defs>
	<clipPath id="SVGID_4_">
		<use xlink:href="#SVGID_3_"  overflow="visible"/>
	</clipPath>
	<path clip-path="url(#SVGID_4_)" d="M66.342,158.793c0.316,1.166,1.32,1.906,2.553,1.906c1.004,0,1.664-0.657,2.123-1.572
		c0.488-1.029,0.862-2.773,0.862-2.83c0-0.287-0.261-0.287-0.347-0.287c-0.288,0-0.316,0.116-0.403,0.52
		c-0.403,1.611-0.95,3.57-2.159,3.57c-0.604,0-0.892-0.373-0.892-1.32c0-0.633,0.345-1.982,0.576-2.988
		c0.259-1.034,0.547-2.068,0.806-3.104c0.086-0.431,0.374-1.521,0.489-1.952c0.144-0.661,0.432-1.753,0.432-1.925
		c0-0.518-0.403-0.776-0.835-0.776c-0.144,0-0.892,0.028-1.123,1.006c-0.547,2.097-1.812,7.124-2.159,8.647
		c-0.028,0.114-1.18,2.412-3.28,2.412c-1.497,0-1.785-1.294-1.785-2.358c0-1.611,0.828-3.884,1.596-5.867
		c0.355-0.863,0.503-1.267,0.503-1.812c0-1.295-0.923-2.362-2.364-2.362c-2.736,0-3.803,4.177-3.803,4.436
		c0,0.288,0.29,0.288,0.348,0.288c0.291,0,0.319-0.058,0.465-0.522c0.725-2.526,1.826-3.602,2.93-3.602
		c0.261,0,0.726,0.032,0.726,0.952c0,0.69-0.322,1.524-0.499,1.955c-1.085,2.848-1.699,4.631-1.699,6.04
		c0,2.731,1.979,3.452,3.528,3.452C64.822,160.699,65.855,159.419,66.342,158.793"/>
</g>
<g>
	<defs>
		<rect id="SVGID_5_" x="40" y="90" width="15" height="21"/>
	</defs>
	<clipPath id="SVGID_6_">
		<use xlink:href="#SVGID_5_"  overflow="visible"/>
	</clipPath>
	<path clip-path="url(#SVGID_6_)" d="M52.635,90.9c0,0.028-1.095,1.377-2.363,1.377c-0.661,0-1.383-0.431-1.873-0.717
		c-0.777-0.459-1.297-0.66-1.786-0.66c-1.095,0-1.644,0.639-3.112,2.264l0.461,0.435c0-0.028,1.095-1.377,2.363-1.377
		c0.663,0,1.384,0.431,1.873,0.718c0.777,0.459,1.297,0.66,1.787,0.66c1.095,0,1.643-0.638,3.112-2.264"/>
	<path clip-path="url(#SVGID_6_)" d="M49.342,108.493c0.316,1.166,1.32,1.905,2.553,1.905c1.004,0,1.664-0.656,2.123-1.571
		c0.488-1.029,0.862-2.773,0.862-2.83c0-0.287-0.261-0.287-0.347-0.287c-0.288,0-0.316,0.116-0.403,0.519
		c-0.403,1.612-0.95,3.571-2.159,3.571c-0.604,0-0.892-0.373-0.892-1.321c0-0.632,0.345-1.981,0.576-2.987
		c0.259-1.034,0.547-2.068,0.806-3.104c0.086-0.431,0.374-1.521,0.489-1.952c0.144-0.662,0.432-1.753,0.432-1.926
		c0-0.517-0.403-0.775-0.835-0.775c-0.144,0-0.892,0.028-1.123,1.006c-0.547,2.097-1.812,7.124-2.159,8.646
		c-0.028,0.115-1.18,2.413-3.28,2.413c-1.497,0-1.785-1.294-1.785-2.358c0-1.611,0.828-3.884,1.596-5.867
		c0.355-0.863,0.503-1.267,0.503-1.812c0-1.295-0.923-2.361-2.364-2.361c-2.736,0-3.803,4.177-3.803,4.436
		c0,0.288,0.29,0.288,0.348,0.288c0.291,0,0.319-0.058,0.465-0.522C41.668,99.075,42.77,98,43.873,98
		c0.261,0,0.726,0.032,0.726,0.952c0,0.69-0.322,1.524-0.499,1.955c-1.085,2.848-1.699,4.631-1.699,6.04
		c0,2.731,1.979,3.451,3.528,3.451C47.822,110.398,48.855,109.119,49.342,108.493"/>
</g>
</svg>
