<?xml version="1.0" encoding="utf-8"?>
<!-- Generator: Adobe Illustrator 14.0.0, SVG Export Plug-In . SVG Version: 6.00 Build 43363)  -->
<!DOCTYPE svg PUBLIC "-//W3C//DTD SVG 1.1//EN" "http://www.w3.org/Graphics/SVG/1.1/DTD/svg11.dtd">
<svg version="1.1" id="Layer_1" xmlns="http://www.w3.org/2000/svg" xmlns:xlink="http://www.w3.org/1999/xlink" x="0px" y="0px"
	 width="459px" height="261px" viewBox="0 0 459 261" enable-background="new 0 0 459 261" xml:space="preserve">
<polygon fill="none" stroke="#000000" stroke-width="1.2459" stroke-linecap="round" stroke-linejoin="round" points="
	111.864,106.285 140.643,56.439 169.422,106.285 "/>
<polygon fill="none" stroke="#000000" stroke-width="1.2459" stroke-linecap="round" stroke-linejoin="round" points="
	83.085,56.346 140.643,56.439 111.783,106.238 "/>
<polygon fill="none" stroke="#000000" stroke-width="1.2459" stroke-linecap="round" stroke-linejoin="round" points="112.027,6.5 
	140.643,56.439 83.086,56.252 "/>
<polygon fill="none" stroke="#000000" stroke-width="1.2459" stroke-linecap="round" stroke-linejoin="round" points="
	169.665,6.733 140.643,56.439 112.108,6.453 "/>
<polygon fill="none" stroke="#000000" stroke-width="1.2459" stroke-linecap="round" stroke-linejoin="round" points="198.2,56.813 
	140.643,56.439 169.746,6.781 "/>
<polygon fill="none" stroke="#000000" stroke-width="1.2459" stroke-linecap="round" stroke-linejoin="round" points="
	169.266,106.375 140.643,56.439 198.201,56.62 "/>
<circle fill="#A39DCF" cx="140.643" cy="56.439" r="5.317"/>
<g>
	<polygon fill="none" stroke="#000000" stroke-width="1.2459" stroke-linecap="round" stroke-linejoin="round" points="
		111.864,253.165 140.643,203.318 169.422,253.165 	"/>
	<polygon opacity="0.4" fill="#1B1F8A" enable-background="new    " points="112.064,186.481 112.064,219.935 140.422,236.549 
		169.665,219.713 169.665,186.926 140.865,170.088 	"/>
	<polygon fill="none" stroke="#000000" stroke-width="1.2459" stroke-linecap="round" stroke-linejoin="round" points="
		83.085,203.226 140.643,203.318 111.783,253.118 	"/>
	<polygon fill="none" stroke="#000000" stroke-width="1.2459" stroke-linecap="round" stroke-linejoin="round" points="
		112.027,153.38 140.643,203.318 83.086,203.132 	"/>
	<polygon fill="none" stroke="#000000" stroke-width="1.2459" stroke-linecap="round" stroke-linejoin="round" points="
		169.665,153.613 140.643,203.318 112.108,153.333 	"/>
	<polygon fill="none" stroke="#000000" stroke-width="1.2459" stroke-linecap="round" stroke-linejoin="round" points="
		198.2,203.693 140.643,203.318 169.746,153.662 	"/>
	<polygon fill="none" stroke="#000000" stroke-width="1.2459" stroke-linecap="round" stroke-linejoin="round" points="
		169.266,253.255 140.643,203.318 198.201,203.5 	"/>
</g>
<g>
	<line fill="none" stroke="#231F20" stroke-width="5.9467" x1="140.667" y1="112.931" x2="140.667" y2="136.718"/>
	<polygon fill="#231F20" points="133.231,134.549 140.643,147.388 148.055,134.549 	"/>
</g>
<g>
	
		<line opacity="0.4" fill="none" stroke="#1B1F8A" stroke-width="3.6455" enable-background="new    " x1="285.653" y1="85.104" x2="285.708" y2="27.546"/>
	<polyline fill="none" stroke="#000000" stroke-width="1.2459" points="285.708,27.546 335.555,56.324 285.708,85.104 	"/>
	<polyline fill="none" stroke="#000000" stroke-width="1.2459" points="285.653,85.104 235.834,56.277 285.708,27.546 	"/>
</g>
<g>
	<polygon fill="none" stroke="#000000" stroke-width="1.2459" stroke-linecap="round" stroke-linejoin="round" points="
		285.708,231.982 285.708,174.427 335.555,203.204 	"/>
	<polygon fill="none" stroke="#000000" stroke-width="1.2459" stroke-linecap="round" stroke-linejoin="round" points="
		235.834,203.157 285.708,174.427 285.653,231.983 	"/>
	
		<line opacity="0.4" fill="none" stroke="#1B1F8A" stroke-width="3.6455" enable-background="new    " x1="269.155" y1="202.912" x2="301.991" y2="202.629"/>
</g>
<g>
	<line fill="none" stroke="#231F20" stroke-width="5.9467" x1="285.718" y1="112.931" x2="285.718" y2="136.718"/>
	<polygon fill="#231F20" points="278.282,134.549 285.694,147.388 293.106,134.549 	"/>
</g>
<polygon opacity="0.4" fill="#1B1F8A" enable-background="new    " points="383.358,73.387 412.137,23.541 440.916,73.387 "/>
<polygon fill="none" stroke="#000000" stroke-width="1.2459" points="383.358,73.387 412.137,23.541 440.916,73.387 "/>
<polygon fill="none" stroke="#000000" stroke-width="1.2459" stroke-linecap="round" stroke-linejoin="round" points="
	383.358,220.267 412.137,170.42 440.916,220.267 "/>
<path fill="#A39DCF" d="M417.454,203.485c0-2.938-2.378-5.318-5.317-5.318c-2.937,0-5.316,2.381-5.316,5.318
	c0,2.937,2.38,5.317,5.316,5.317C415.076,208.803,417.454,206.422,417.454,203.485z"/>
<g>
	<line fill="none" stroke="#231F20" stroke-width="5.9467" x1="412.16" y1="112.931" x2="412.16" y2="136.718"/>
	<polygon fill="#231F20" points="404.725,134.549 412.137,147.388 419.549,134.549 	"/>
</g>
<g>
	<defs>
		<rect id="SVGID_1_" x="13.326" y="47.995" width="50.08" height="16.075"/>
	</defs>
	<clipPath id="SVGID_2_">
		<use xlink:href="#SVGID_1_"  overflow="visible"/>
	</clipPath>
	<path clip-path="url(#SVGID_2_)" d="M16.417,59.56c0.089,0.282,0.84,1.233,2.197,1.233c2.127,0,3.985-1.739,3.985-4.027
		c0-2.253-1.728-4.01-3.722-4.01c-1.389,0-2.136,0.789-2.491,1.182v-1.182l-2.563,0.194v0.547c1.236,0,1.357,0.109,1.357,0.892
		v8.325c0,0.801-0.191,0.801-1.357,0.801v0.556c0.603-0.018,1.526-0.053,1.986-0.053c0.479,0,1.384,0.035,2.004,0.053v-0.556
		c-1.2,0-1.396,0-1.396-0.801v-2.992 M16.417,54.614c0.518-0.908,1.394-1.426,2.304-1.426c1.304,0,2.395,1.569,2.395,3.582
		c0,2.155-1.251,3.651-2.573,3.651c-0.714,0-1.394-0.356-1.875-1.086c-0.25-0.374-0.25-0.392-0.25-0.748V54.614z"/>
	<path clip-path="url(#SVGID_2_)" d="M26.186,59.214v-2.741c0-1.762,0.751-3.347,2.114-3.347c0.125,0,0.161,0,0.197,0
		c-0.051,0.019-0.394,0.238-0.394,0.715c0,0.513,0.377,0.788,0.773,0.788c0.323,0,0.773-0.214,0.773-0.785
		c0-0.57-0.554-1.088-1.321-1.088c-1.302,0-1.944,1.195-2.194,1.962v-1.962l-2.479,0.193v0.547c1.218,0,1.357,0.124,1.357,0.995
		v4.76c0,0.799-0.191,0.799-1.357,0.799v0.557c0.691-0.019,1.525-0.053,2.022-0.053c0.71,0,1.543,0,2.253,0.053v-0.557h-0.377
		C26.221,60.051,26.186,59.854,26.186,59.214"/>
	<path clip-path="url(#SVGID_2_)" d="M33.357,49.663c0-0.56-0.438-0.927-0.927-0.927c-0.542,0-0.927,0.472-0.927,0.927
		c0,0.472,0.385,0.928,0.927,0.928C32.919,50.591,33.357,50.224,33.357,49.663 M33.295,52.755L30.8,52.949v0.547
		c1.16,0,1.321,0.107,1.321,0.977v4.778c0,0.799-0.196,0.799-1.392,0.799v0.557c0.568-0.019,1.526-0.053,1.951-0.053
		c0.621,0,1.242,0.035,1.845,0.053v-0.557c-1.16,0-1.229-0.089-1.229-0.781L33.295,52.755z"/>
	<path clip-path="url(#SVGID_2_)" d="M36.944,54.492v4.76c0,0.799-0.19,0.799-1.349,0.799v0.557c0.62-0.018,1.526-0.054,2.004-0.054
		c0.461,0,1.384,0.036,1.987,0.054v-0.557c-1.207,0-1.406,0-1.406-0.801v-3.275c0-1.851,1.26-2.849,2.396-2.849
		c1.119,0,1.314,0.961,1.314,1.976v4.147c0,0.801-0.193,0.801-1.364,0.801v0.557c0.621-0.018,1.526-0.054,2.005-0.054
		c0.461,0,1.383,0.036,1.987,0.054v-0.557c-1.195,0-1.391,0-1.391-0.801v-3.275c0-1.851,1.26-2.849,2.396-2.849
		c1.118,0,1.314,0.961,1.314,1.976v4.147c0,0.801-0.194,0.801-1.379,0.801v0.557c0.621-0.018,1.526-0.054,2.005-0.054
		c0.461,0,1.384,0.036,1.987,0.054v-0.557c-0.918,0-1.359,0-1.376-0.533v-3.389c0-1.527,0-2.078-0.555-2.716
		c-0.25-0.301-0.838-0.658-1.87-0.658c-1.497,0-2.282,1.071-2.585,1.75c-0.249-1.553-1.568-1.75-2.37-1.75
		c-1.301,0-2.138,0.768-2.637,1.874v-1.874l-2.462,0.194v0.547c1.211,0,1.349,0.125,1.349,0.995"/>
	<path clip-path="url(#SVGID_2_)" d="M55.616,56.341v1.782c0,1.692-1.27,2.298-2.062,2.298c-0.864,0-1.586-0.623-1.586-1.514
		C51.967,57.927,52.707,56.448,55.616,56.341 M55.754,59.259c0.07,0.719,0.548,1.473,1.378,1.473c0.372,0,1.451-0.25,1.451-1.697v-1
		H58.15v1c0,1.034-0.444,1.141-0.641,1.141c-0.586,0-0.657-0.803-0.657-0.892v-3.565c0-0.749,0-1.445-0.634-2.104
		c-0.684-0.696-1.562-0.982-2.404-0.982c-1.439,0-2.65,0.836-2.65,2.009c0,0.534,0.349,0.836,0.803,0.836
		c0.489,0,0.804-0.359,0.804-0.825c0-0.215-0.09-0.807-0.919-0.826c0.475-0.627,1.336-0.824,1.898-0.824
		c0.862,0,1.865,0.702,1.865,2.303v0.666c-0.9,0.054-2.135,0.107-3.246,0.638c-1.323,0.604-1.763,1.525-1.763,2.305
		c0,1.437,1.715,1.879,2.829,1.879C54.604,60.793,55.418,60.088,55.754,59.259z"/>
	<path clip-path="url(#SVGID_2_)" d="M61.86,48.304l-2.567,0.194v0.547c1.25,0,1.393,0.127,1.393,0.994v9.214
		c0,0.797-0.197,0.797-1.393,0.797v0.557c0.585-0.019,1.525-0.053,1.969-0.053c0.443,0,1.312,0.035,1.969,0.053v-0.557
		c-1.178,0-1.371,0-1.371-0.797"/>
</g>
<g>
	<defs>
		<rect id="SVGID_3_" x="21.441" y="194.901" width="33.387" height="12.934"/>
	</defs>
	<clipPath id="SVGID_4_">
		<use xlink:href="#SVGID_3_"  overflow="visible"/>
	</clipPath>
	<path clip-path="url(#SVGID_4_)" d="M28.182,201.641v3.655c0,0.321,0,0.356-0.195,0.66c-0.529,0.856-1.323,1.249-2.082,1.249
		c-0.793,0-1.428-0.463-1.851-1.143c-0.458-0.73-0.512-1.748-0.512-2.479c0-0.659,0.036-1.73,0.547-2.532
		c0.37-0.554,1.041-1.143,1.993-1.143c0.617,0,1.358,0.268,1.905,1.07C28.182,201.283,28.182,201.319,28.182,201.641
		 M28.186,206.414v1.161l2.604-0.194v-0.547c-1.232,0-1.373-0.124-1.373-0.992v-10.755l-2.565,0.195v0.547
		c1.248,0,1.391,0.125,1.391,0.992v3.827c-0.514-0.644-1.275-1.11-2.233-1.11c-2.089,0-3.95,1.74-3.95,4.028
		c0,2.253,1.735,4.009,3.753,4.009C26.947,207.575,27.743,206.978,28.186,206.414z"/>
	<path clip-path="url(#SVGID_4_)" d="M38.195,205.988v1.587l2.567-0.194v-0.548c-1.249,0-1.391-0.124-1.391-0.993v-6.302
		l-2.601,0.194v0.547c1.224,0,1.364,0.126,1.364,0.998v3.168c0,1.549-0.853,2.759-2.147,2.759c-1.491,0-1.562-0.836-1.562-1.761
		v-5.905l-2.585,0.194v0.547c1.349,0,1.349,0.055,1.349,1.634v2.663c0,1.384,0,2.999,2.708,2.999
		C36.895,207.575,37.678,207.083,38.195,205.988"/>
	<path clip-path="url(#SVGID_4_)" d="M46.914,203.124v1.782c0,1.692-1.27,2.298-2.062,2.298c-0.864,0-1.586-0.623-1.586-1.515
		C43.266,204.71,44.005,203.231,46.914,203.124 M47.052,206.042c0.07,0.719,0.549,1.473,1.379,1.473c0.371,0,1.45-0.249,1.45-1.696
		v-1.001h-0.433v0.999c0,1.035-0.444,1.142-0.64,1.142c-0.587,0-0.658-0.803-0.658-0.893V202.5c0-0.748,0-1.443-0.633-2.104
		c-0.685-0.696-1.562-0.983-2.404-0.983c-1.438,0-2.65,0.837-2.65,2.01c0,0.534,0.35,0.837,0.804,0.837
		c0.489,0,0.804-0.359,0.804-0.825c0-0.215-0.09-0.807-0.919-0.826c0.475-0.626,1.336-0.824,1.898-0.824
		c0.862,0,1.865,0.703,1.865,2.304v0.666c-0.9,0.054-2.134,0.106-3.246,0.639c-1.323,0.603-1.763,1.524-1.763,2.305
		c0,1.437,1.715,1.878,2.829,1.878C45.903,207.575,46.716,206.871,47.052,206.042z"/>
	<path clip-path="url(#SVGID_4_)" d="M53.157,195.086l-2.567,0.195v0.547c1.25,0,1.392,0.127,1.392,0.995v9.214
		c0,0.797-0.196,0.797-1.392,0.797v0.556c0.585-0.018,1.526-0.053,1.969-0.053c0.443,0,1.312,0.035,1.97,0.053v-0.556
		c-1.179,0-1.373,0-1.373-0.797"/>
</g>
</svg>
