<?xml version="1.0" encoding="utf-8"?>
<!-- Generator: Adobe Illustrator 14.0.0, SVG Export Plug-In . SVG Version: 6.00 Build 43363)  -->
<!DOCTYPE svg PUBLIC "-//W3C//DTD SVG 1.1//EN" "http://www.w3.org/Graphics/SVG/1.1/DTD/svg11.dtd">
<svg version="1.1" id="Layer_1" xmlns="http://www.w3.org/2000/svg" xmlns:xlink="http://www.w3.org/1999/xlink" x="0px" y="0px"
	 width="371px" height="371px" viewBox="0 0 371 371" enable-background="new 0 0 371 371" xml:space="preserve">
<radialGradient id="SVGID_1_" cx="182.5513" cy="182.5854" r="515.5939" gradientTransform="matrix(0.8288 0.5595 -0.2796 0.4142 82.2917 4.8268)" gradientUnits="userSpaceOnUse">
	<stop  offset="0" style="stop-color:#1B1F8A"/>
	<stop  offset="0.0529" style="stop-color:#2D3193"/>
	<stop  offset="0.2485" style="stop-color:#6C6FB4"/>
	<stop  offset="0.4356" style="stop-color:#A1A2CF"/>
	<stop  offset="0.6093" style="stop-color:#CACAE4"/>
	<stop  offset="0.7666" style="stop-color:#E7E7F3"/>
	<stop  offset="0.902" style="stop-color:#F9F9FC"/>
	<stop  offset="1" style="stop-color:#FFFFFF"/>
</radialGradient>
<rect x="7.345" y="6" fill-rule="evenodd" clip-rule="evenodd" fill="url(#SVGID_1_)" width="357.311" height="358"/>
<g>
	<g>
		
			<line fill="none" stroke="#000000" stroke-width="0.5" stroke-miterlimit="3.25" x1="41.294" y1="343.253" x2="25.955" y2="343.253"/>
		
			<line fill="none" stroke="#000000" stroke-width="0.5" stroke-miterlimit="3.25" x1="40.255" y1="320.645" x2="26.011" y2="320.645"/>
		
			<line fill="none" stroke="#000000" stroke-width="0.5" stroke-miterlimit="3.25" x1="39.216" y1="298.038" x2="26.068" y2="298.038"/>
		
			<line fill="none" stroke="#000000" stroke-width="0.5" stroke-miterlimit="3.25" x1="38.177" y1="275.43" x2="26.125" y2="275.43"/>
		
			<line fill="none" stroke="#000000" stroke-width="0.5" stroke-miterlimit="3.25" x1="37.138" y1="252.823" x2="26.181" y2="252.823"/>
		
			<line fill="none" stroke="#000000" stroke-width="0.5" stroke-miterlimit="3.25" x1="36.099" y1="230.215" x2="26.238" y2="230.215"/>
		
			<line fill="none" stroke="#000000" stroke-width="0.5" stroke-miterlimit="3.25" x1="35.06" y1="207.608" x2="26.294" y2="207.608"/>
		<line fill="none" stroke="#000000" stroke-width="0.5" stroke-miterlimit="3.25" x1="34.021" y1="185" x2="26.351" y2="185"/>
		
			<line fill="none" stroke="#000000" stroke-width="0.5" stroke-miterlimit="3.25" x1="32.982" y1="162.392" x2="26.408" y2="162.392"/>
		
			<line fill="none" stroke="#000000" stroke-width="0.5" stroke-miterlimit="3.25" x1="31.943" y1="139.785" x2="26.464" y2="139.785"/>
		
			<line fill="none" stroke="#000000" stroke-width="0.5" stroke-miterlimit="3.25" x1="30.904" y1="117.177" x2="26.521" y2="117.177"/>
		<line fill="none" stroke="#000000" stroke-width="0.5" stroke-miterlimit="3.25" x1="29.864" y1="94.57" x2="26.577" y2="94.57"/>
		
			<line fill="none" stroke="#000000" stroke-width="0.5" stroke-miterlimit="3.25" x1="28.825" y1="71.962" x2="26.634" y2="71.962"/>
		
			<line fill="none" stroke="#000000" stroke-width="0.5" stroke-miterlimit="3.25" x1="27.786" y1="49.355" x2="26.691" y2="49.355"/>
		
			<line fill="none" stroke="#000000" stroke-width="0.5" stroke-miterlimit="3.25" x1="62.863" y1="343.253" x2="48.619" y2="343.253"/>
		
			<line fill="none" stroke="#000000" stroke-width="0.5" stroke-miterlimit="3.25" x1="61.824" y1="320.645" x2="48.675" y2="320.645"/>
		
			<line fill="none" stroke="#000000" stroke-width="0.5" stroke-miterlimit="3.25" x1="60.785" y1="298.038" x2="48.732" y2="298.038"/>
		
			<line fill="none" stroke="#000000" stroke-width="0.5" stroke-miterlimit="3.25" x1="59.746" y1="275.43" x2="48.789" y2="275.43"/>
		
			<line fill="none" stroke="#000000" stroke-width="0.5" stroke-miterlimit="3.25" x1="58.707" y1="252.823" x2="48.845" y2="252.823"/>
		
			<line fill="none" stroke="#000000" stroke-width="0.5" stroke-miterlimit="3.25" x1="57.667" y1="230.215" x2="48.902" y2="230.215"/>
		
			<line fill="none" stroke="#000000" stroke-width="0.5" stroke-miterlimit="3.25" x1="56.628" y1="207.608" x2="48.958" y2="207.608"/>
		<line fill="none" stroke="#000000" stroke-width="0.5" stroke-miterlimit="3.25" x1="55.589" y1="185" x2="49.015" y2="185"/>
		
			<line fill="none" stroke="#000000" stroke-width="0.5" stroke-miterlimit="3.25" x1="54.55" y1="162.392" x2="49.072" y2="162.392"/>
		
			<line fill="none" stroke="#000000" stroke-width="0.5" stroke-miterlimit="3.25" x1="53.511" y1="139.785" x2="49.128" y2="139.785"/>
		
			<line fill="none" stroke="#000000" stroke-width="0.5" stroke-miterlimit="3.25" x1="52.472" y1="117.177" x2="49.185" y2="117.177"/>
		<line fill="none" stroke="#000000" stroke-width="0.5" stroke-miterlimit="3.25" x1="51.433" y1="94.57" x2="49.242" y2="94.57"/>
		
			<line fill="none" stroke="#000000" stroke-width="0.5" stroke-miterlimit="3.25" x1="50.394" y1="71.962" x2="49.298" y2="71.962"/>
		
			<line fill="none" stroke="#000000" stroke-width="0.5" stroke-miterlimit="3.25" x1="48.316" y1="26.747" x2="49.411" y2="26.747"/>
		
			<line fill="none" stroke="#000000" stroke-width="0.5" stroke-miterlimit="3.25" x1="84.431" y1="343.253" x2="71.283" y2="343.253"/>
		
			<line fill="none" stroke="#000000" stroke-width="0.5" stroke-miterlimit="3.25" x1="83.392" y1="320.645" x2="71.34" y2="320.645"/>
		
			<line fill="none" stroke="#000000" stroke-width="0.5" stroke-miterlimit="3.25" x1="82.353" y1="298.038" x2="71.396" y2="298.038"/>
		
			<line fill="none" stroke="#000000" stroke-width="0.5" stroke-miterlimit="3.25" x1="81.314" y1="275.43" x2="71.453" y2="275.43"/>
		
			<line fill="none" stroke="#000000" stroke-width="0.5" stroke-miterlimit="3.25" x1="80.275" y1="252.823" x2="71.509" y2="252.823"/>
		
			<line fill="none" stroke="#000000" stroke-width="0.5" stroke-miterlimit="3.25" x1="79.236" y1="230.215" x2="71.566" y2="230.215"/>
		
			<line fill="none" stroke="#000000" stroke-width="0.5" stroke-miterlimit="3.25" x1="78.197" y1="207.608" x2="71.623" y2="207.608"/>
		<line fill="none" stroke="#000000" stroke-width="0.5" stroke-miterlimit="3.25" x1="77.158" y1="185" x2="71.679" y2="185"/>
		
			<line fill="none" stroke="#000000" stroke-width="0.5" stroke-miterlimit="3.25" x1="76.119" y1="162.392" x2="71.736" y2="162.392"/>
		
			<line fill="none" stroke="#000000" stroke-width="0.5" stroke-miterlimit="3.25" x1="75.08" y1="139.785" x2="71.792" y2="139.785"/>
		
			<line fill="none" stroke="#000000" stroke-width="0.5" stroke-miterlimit="3.25" x1="74.04" y1="117.177" x2="71.849" y2="117.177"/>
		<line fill="none" stroke="#000000" stroke-width="0.5" stroke-miterlimit="3.25" x1="73.001" y1="94.57" x2="71.906" y2="94.57"/>
		
			<line fill="none" stroke="#000000" stroke-width="0.5" stroke-miterlimit="3.25" x1="70.923" y1="49.355" x2="72.019" y2="49.355"/>
		
			<line fill="none" stroke="#000000" stroke-width="0.5" stroke-miterlimit="3.25" x1="69.884" y1="26.747" x2="72.076" y2="26.747"/>
		
			<line fill="none" stroke="#000000" stroke-width="0.5" stroke-miterlimit="3.25" x1="106" y1="343.253" x2="93.947" y2="343.253"/>
		
			<line fill="none" stroke="#000000" stroke-width="0.5" stroke-miterlimit="3.25" x1="104.961" y1="320.645" x2="94.004" y2="320.645"/>
		
			<line fill="none" stroke="#000000" stroke-width="0.5" stroke-miterlimit="3.25" x1="103.922" y1="298.038" x2="94.06" y2="298.038"/>
		
			<line fill="none" stroke="#000000" stroke-width="0.5" stroke-miterlimit="3.25" x1="102.883" y1="275.43" x2="94.117" y2="275.43"/>
		
			<line fill="none" stroke="#000000" stroke-width="0.5" stroke-miterlimit="3.25" x1="101.843" y1="252.823" x2="94.174" y2="252.823"/>
		
			<line fill="none" stroke="#000000" stroke-width="0.5" stroke-miterlimit="3.25" x1="100.804" y1="230.215" x2="94.23" y2="230.215"/>
		
			<line fill="none" stroke="#000000" stroke-width="0.5" stroke-miterlimit="3.25" x1="99.765" y1="207.608" x2="94.287" y2="207.608"/>
		<line fill="none" stroke="#000000" stroke-width="0.5" stroke-miterlimit="3.25" x1="98.726" y1="185" x2="94.343" y2="185"/>
		
			<line fill="none" stroke="#000000" stroke-width="0.5" stroke-miterlimit="3.25" x1="97.687" y1="162.392" x2="94.4" y2="162.392"/>
		
			<line fill="none" stroke="#000000" stroke-width="0.5" stroke-miterlimit="3.25" x1="96.648" y1="139.785" x2="94.457" y2="139.785"/>
		
			<line fill="none" stroke="#000000" stroke-width="0.5" stroke-miterlimit="3.25" x1="95.609" y1="117.177" x2="94.513" y2="117.177"/>
		
			<line fill="none" stroke="#000000" stroke-width="0.5" stroke-miterlimit="3.25" x1="93.531" y1="71.962" x2="94.626" y2="71.962"/>
		
			<line fill="none" stroke="#000000" stroke-width="0.5" stroke-miterlimit="3.25" x1="92.492" y1="49.355" x2="94.683" y2="49.355"/>
		
			<line fill="none" stroke="#000000" stroke-width="0.5" stroke-miterlimit="3.25" x1="91.453" y1="26.747" x2="94.74" y2="26.747"/>
		
			<line fill="none" stroke="#000000" stroke-width="0.5" stroke-miterlimit="3.25" x1="127.568" y1="343.253" x2="116.611" y2="343.253"/>
		
			<line fill="none" stroke="#000000" stroke-width="0.5" stroke-miterlimit="3.25" x1="126.529" y1="320.645" x2="116.668" y2="320.645"/>
		
			<line fill="none" stroke="#000000" stroke-width="0.5" stroke-miterlimit="3.25" x1="125.49" y1="298.038" x2="116.725" y2="298.038"/>
		
			<line fill="none" stroke="#000000" stroke-width="0.5" stroke-miterlimit="3.25" x1="124.451" y1="275.43" x2="116.781" y2="275.43"/>
		
			<line fill="none" stroke="#000000" stroke-width="0.5" stroke-miterlimit="3.25" x1="123.412" y1="252.823" x2="116.838" y2="252.823"/>
		
			<line fill="none" stroke="#000000" stroke-width="0.5" stroke-miterlimit="3.25" x1="122.373" y1="230.215" x2="116.894" y2="230.215"/>
		
			<line fill="none" stroke="#000000" stroke-width="0.5" stroke-miterlimit="3.25" x1="121.334" y1="207.608" x2="116.951" y2="207.608"/>
		<line fill="none" stroke="#000000" stroke-width="0.5" stroke-miterlimit="3.25" x1="120.295" y1="185" x2="117.008" y2="185"/>
		
			<line fill="none" stroke="#000000" stroke-width="0.5" stroke-miterlimit="3.25" x1="119.256" y1="162.392" x2="117.064" y2="162.392"/>
		
			<line fill="none" stroke="#000000" stroke-width="0.5" stroke-miterlimit="3.25" x1="118.216" y1="139.785" x2="117.121" y2="139.785"/>
		
			<line fill="none" stroke="#000000" stroke-width="0.5" stroke-miterlimit="3.25" x1="116.138" y1="94.57" x2="117.234" y2="94.57"/>
		
			<line fill="none" stroke="#000000" stroke-width="0.5" stroke-miterlimit="3.25" x1="115.099" y1="71.962" x2="117.291" y2="71.962"/>
		
			<line fill="none" stroke="#000000" stroke-width="0.5" stroke-miterlimit="3.25" x1="114.06" y1="49.355" x2="117.347" y2="49.355"/>
		
			<line fill="none" stroke="#000000" stroke-width="0.5" stroke-miterlimit="3.25" x1="113.021" y1="26.747" x2="117.404" y2="26.747"/>
		
			<line fill="none" stroke="#000000" stroke-width="0.5" stroke-miterlimit="3.25" x1="149.137" y1="343.253" x2="139.275" y2="343.253"/>
		
			<line fill="none" stroke="#000000" stroke-width="0.5" stroke-miterlimit="3.25" x1="148.098" y1="320.645" x2="139.332" y2="320.645"/>
		
			<line fill="none" stroke="#000000" stroke-width="0.5" stroke-miterlimit="3.25" x1="147.059" y1="298.038" x2="139.389" y2="298.038"/>
		
			<line fill="none" stroke="#000000" stroke-width="0.5" stroke-miterlimit="3.25" x1="146.019" y1="275.43" x2="139.445" y2="275.43"/>
		
			<line fill="none" stroke="#000000" stroke-width="0.5" stroke-miterlimit="3.25" x1="144.98" y1="252.823" x2="139.502" y2="252.823"/>
		
			<line fill="none" stroke="#000000" stroke-width="0.5" stroke-miterlimit="3.25" x1="143.941" y1="230.215" x2="139.558" y2="230.215"/>
		
			<line fill="none" stroke="#000000" stroke-width="0.5" stroke-miterlimit="3.25" x1="142.902" y1="207.608" x2="139.615" y2="207.608"/>
		<line fill="none" stroke="#000000" stroke-width="0.5" stroke-miterlimit="3.25" x1="141.863" y1="185" x2="139.672" y2="185"/>
		
			<line fill="none" stroke="#000000" stroke-width="0.5" stroke-miterlimit="3.25" x1="140.824" y1="162.392" x2="139.728" y2="162.392"/>
		
			<line fill="none" stroke="#000000" stroke-width="0.5" stroke-miterlimit="3.25" x1="138.746" y1="117.177" x2="139.842" y2="117.177"/>
		
			<line fill="none" stroke="#000000" stroke-width="0.5" stroke-miterlimit="3.25" x1="137.707" y1="94.57" x2="139.898" y2="94.57"/>
		
			<line fill="none" stroke="#000000" stroke-width="0.5" stroke-miterlimit="3.25" x1="136.668" y1="71.962" x2="139.955" y2="71.962"/>
		
			<line fill="none" stroke="#000000" stroke-width="0.5" stroke-miterlimit="3.25" x1="135.629" y1="49.355" x2="140.011" y2="49.355"/>
		
			<line fill="none" stroke="#000000" stroke-width="0.5" stroke-miterlimit="3.25" x1="134.589" y1="26.747" x2="140.068" y2="26.747"/>
		
			<line fill="none" stroke="#000000" stroke-width="0.5" stroke-miterlimit="3.25" x1="170.705" y1="343.253" x2="161.94" y2="343.253"/>
		
			<line fill="none" stroke="#000000" stroke-width="0.5" stroke-miterlimit="3.25" x1="169.666" y1="320.645" x2="161.996" y2="320.645"/>
		
			<line fill="none" stroke="#000000" stroke-width="0.5" stroke-miterlimit="3.25" x1="168.627" y1="298.038" x2="162.053" y2="298.038"/>
		
			<line fill="none" stroke="#000000" stroke-width="0.5" stroke-miterlimit="3.25" x1="167.588" y1="275.43" x2="162.109" y2="275.43"/>
		
			<line fill="none" stroke="#000000" stroke-width="0.5" stroke-miterlimit="3.25" x1="166.549" y1="252.823" x2="162.166" y2="252.823"/>
		
			<line fill="none" stroke="#000000" stroke-width="0.5" stroke-miterlimit="3.25" x1="165.51" y1="230.215" x2="162.223" y2="230.215"/>
		
			<line fill="none" stroke="#000000" stroke-width="0.5" stroke-miterlimit="3.25" x1="164.471" y1="207.608" x2="162.279" y2="207.608"/>
		<line fill="none" stroke="#000000" stroke-width="0.5" stroke-miterlimit="3.25" x1="163.432" y1="185" x2="162.336" y2="185"/>
		
			<line fill="none" stroke="#000000" stroke-width="0.5" stroke-miterlimit="3.25" x1="161.353" y1="139.785" x2="162.449" y2="139.785"/>
		
			<line fill="none" stroke="#000000" stroke-width="0.5" stroke-miterlimit="3.25" x1="160.314" y1="117.177" x2="162.506" y2="117.177"/>
		
			<line fill="none" stroke="#000000" stroke-width="0.5" stroke-miterlimit="3.25" x1="159.275" y1="94.57" x2="162.562" y2="94.57"/>
		
			<line fill="none" stroke="#000000" stroke-width="0.5" stroke-miterlimit="3.25" x1="158.236" y1="71.962" x2="162.619" y2="71.962"/>
		
			<line fill="none" stroke="#000000" stroke-width="0.5" stroke-miterlimit="3.25" x1="157.197" y1="49.355" x2="162.676" y2="49.355"/>
		
			<line fill="none" stroke="#000000" stroke-width="0.5" stroke-miterlimit="3.25" x1="156.158" y1="26.747" x2="162.732" y2="26.747"/>
		
			<line fill="none" stroke="#000000" stroke-width="0.5" stroke-miterlimit="3.25" x1="192.273" y1="343.253" x2="184.604" y2="343.253"/>
		
			<line fill="none" stroke="#000000" stroke-width="0.5" stroke-miterlimit="3.25" x1="191.234" y1="320.645" x2="184.66" y2="320.645"/>
		
			<line fill="none" stroke="#000000" stroke-width="0.5" stroke-miterlimit="3.25" x1="190.195" y1="298.038" x2="184.717" y2="298.038"/>
		
			<line fill="none" stroke="#000000" stroke-width="0.5" stroke-miterlimit="3.25" x1="189.156" y1="275.43" x2="184.774" y2="275.43"/>
		
			<line fill="none" stroke="#000000" stroke-width="0.5" stroke-miterlimit="3.25" x1="188.117" y1="252.823" x2="184.83" y2="252.823"/>
		
			<line fill="none" stroke="#000000" stroke-width="0.5" stroke-miterlimit="3.25" x1="187.078" y1="230.215" x2="184.887" y2="230.215"/>
		
			<line fill="none" stroke="#000000" stroke-width="0.5" stroke-miterlimit="3.25" x1="186.039" y1="207.608" x2="184.943" y2="207.608"/>
		
			<line fill="none" stroke="#000000" stroke-width="0.5" stroke-miterlimit="3.25" x1="183.961" y1="162.392" x2="185.057" y2="162.392"/>
		
			<line fill="none" stroke="#000000" stroke-width="0.5" stroke-miterlimit="3.25" x1="182.922" y1="139.785" x2="185.113" y2="139.785"/>
		
			<line fill="none" stroke="#000000" stroke-width="0.5" stroke-miterlimit="3.25" x1="181.883" y1="117.177" x2="185.17" y2="117.177"/>
		
			<line fill="none" stroke="#000000" stroke-width="0.5" stroke-miterlimit="3.25" x1="180.844" y1="94.57" x2="185.227" y2="94.57"/>
		
			<line fill="none" stroke="#000000" stroke-width="0.5" stroke-miterlimit="3.25" x1="179.805" y1="71.962" x2="185.283" y2="71.962"/>
		
			<line fill="none" stroke="#000000" stroke-width="0.5" stroke-miterlimit="3.25" x1="178.765" y1="49.355" x2="185.34" y2="49.355"/>
		
			<line fill="none" stroke="#000000" stroke-width="0.5" stroke-miterlimit="3.25" x1="177.726" y1="26.747" x2="185.396" y2="26.747"/>
		
			<line fill="none" stroke="#000000" stroke-width="0.5" stroke-miterlimit="3.25" x1="213.842" y1="343.253" x2="207.268" y2="343.253"/>
		
			<line fill="none" stroke="#000000" stroke-width="0.5" stroke-miterlimit="3.25" x1="212.803" y1="320.645" x2="207.324" y2="320.645"/>
		
			<line fill="none" stroke="#000000" stroke-width="0.5" stroke-miterlimit="3.25" x1="211.764" y1="298.038" x2="207.381" y2="298.038"/>
		
			<line fill="none" stroke="#000000" stroke-width="0.5" stroke-miterlimit="3.25" x1="210.725" y1="275.43" x2="207.438" y2="275.43"/>
		
			<line fill="none" stroke="#000000" stroke-width="0.5" stroke-miterlimit="3.25" x1="209.686" y1="252.823" x2="207.494" y2="252.823"/>
		
			<line fill="none" stroke="#000000" stroke-width="0.5" stroke-miterlimit="3.25" x1="208.646" y1="230.215" x2="207.551" y2="230.215"/>
		<line fill="none" stroke="#000000" stroke-width="0.5" stroke-miterlimit="3.25" x1="206.568" y1="185" x2="207.664" y2="185"/>
		
			<line fill="none" stroke="#000000" stroke-width="0.5" stroke-miterlimit="3.25" x1="205.529" y1="162.392" x2="207.721" y2="162.392"/>
		
			<line fill="none" stroke="#000000" stroke-width="0.5" stroke-miterlimit="3.25" x1="204.49" y1="139.785" x2="207.777" y2="139.785"/>
		
			<line fill="none" stroke="#000000" stroke-width="0.5" stroke-miterlimit="3.25" x1="203.451" y1="117.177" x2="207.834" y2="117.177"/>
		
			<line fill="none" stroke="#000000" stroke-width="0.5" stroke-miterlimit="3.25" x1="202.412" y1="94.57" x2="207.891" y2="94.57"/>
		
			<line fill="none" stroke="#000000" stroke-width="0.5" stroke-miterlimit="3.25" x1="201.373" y1="71.962" x2="207.947" y2="71.962"/>
		
			<line fill="none" stroke="#000000" stroke-width="0.5" stroke-miterlimit="3.25" x1="200.334" y1="49.355" x2="208.004" y2="49.355"/>
		
			<line fill="none" stroke="#000000" stroke-width="0.5" stroke-miterlimit="3.25" x1="199.295" y1="26.747" x2="208.061" y2="26.747"/>
		
			<line fill="none" stroke="#000000" stroke-width="0.5" stroke-miterlimit="3.25" x1="235.411" y1="343.253" x2="229.932" y2="343.253"/>
		
			<line fill="none" stroke="#000000" stroke-width="0.5" stroke-miterlimit="3.25" x1="234.371" y1="320.645" x2="229.989" y2="320.645"/>
		
			<line fill="none" stroke="#000000" stroke-width="0.5" stroke-miterlimit="3.25" x1="233.332" y1="298.038" x2="230.045" y2="298.038"/>
		
			<line fill="none" stroke="#000000" stroke-width="0.5" stroke-miterlimit="3.25" x1="232.293" y1="275.43" x2="230.102" y2="275.43"/>
		
			<line fill="none" stroke="#000000" stroke-width="0.5" stroke-miterlimit="3.25" x1="231.254" y1="252.823" x2="230.158" y2="252.823"/>
		
			<line fill="none" stroke="#000000" stroke-width="0.5" stroke-miterlimit="3.25" x1="229.176" y1="207.608" x2="230.271" y2="207.608"/>
		<line fill="none" stroke="#000000" stroke-width="0.5" stroke-miterlimit="3.25" x1="228.137" y1="185" x2="230.328" y2="185"/>
		
			<line fill="none" stroke="#000000" stroke-width="0.5" stroke-miterlimit="3.25" x1="227.098" y1="162.392" x2="230.385" y2="162.392"/>
		
			<line fill="none" stroke="#000000" stroke-width="0.5" stroke-miterlimit="3.25" x1="226.059" y1="139.785" x2="230.441" y2="139.785"/>
		
			<line fill="none" stroke="#000000" stroke-width="0.5" stroke-miterlimit="3.25" x1="225.02" y1="117.177" x2="230.498" y2="117.177"/>
		
			<line fill="none" stroke="#000000" stroke-width="0.5" stroke-miterlimit="3.25" x1="223.98" y1="94.57" x2="230.555" y2="94.57"/>
		
			<line fill="none" stroke="#000000" stroke-width="0.5" stroke-miterlimit="3.25" x1="222.941" y1="71.962" x2="230.611" y2="71.962"/>
		
			<line fill="none" stroke="#000000" stroke-width="0.5" stroke-miterlimit="3.25" x1="221.902" y1="49.355" x2="230.668" y2="49.355"/>
		
			<line fill="none" stroke="#000000" stroke-width="0.5" stroke-miterlimit="3.25" x1="220.863" y1="26.747" x2="230.725" y2="26.747"/>
		
			<line fill="none" stroke="#000000" stroke-width="0.5" stroke-miterlimit="3.25" x1="256.979" y1="343.253" x2="252.596" y2="343.253"/>
		
			<line fill="none" stroke="#000000" stroke-width="0.5" stroke-miterlimit="3.25" x1="255.939" y1="320.645" x2="252.652" y2="320.645"/>
		
			<line fill="none" stroke="#000000" stroke-width="0.5" stroke-miterlimit="3.25" x1="254.9" y1="298.038" x2="252.709" y2="298.038"/>
		
			<line fill="none" stroke="#000000" stroke-width="0.5" stroke-miterlimit="3.25" x1="253.861" y1="275.43" x2="252.766" y2="275.43"/>
		
			<line fill="none" stroke="#000000" stroke-width="0.5" stroke-miterlimit="3.25" x1="251.784" y1="230.215" x2="252.879" y2="230.215"/>
		
			<line fill="none" stroke="#000000" stroke-width="0.5" stroke-miterlimit="3.25" x1="250.744" y1="207.608" x2="252.936" y2="207.608"/>
		<line fill="none" stroke="#000000" stroke-width="0.5" stroke-miterlimit="3.25" x1="249.705" y1="185" x2="252.992" y2="185"/>
		
			<line fill="none" stroke="#000000" stroke-width="0.5" stroke-miterlimit="3.25" x1="248.666" y1="162.392" x2="253.049" y2="162.392"/>
		
			<line fill="none" stroke="#000000" stroke-width="0.5" stroke-miterlimit="3.25" x1="247.627" y1="139.785" x2="253.105" y2="139.785"/>
		
			<line fill="none" stroke="#000000" stroke-width="0.5" stroke-miterlimit="3.25" x1="246.588" y1="117.177" x2="253.162" y2="117.177"/>
		
			<line fill="none" stroke="#000000" stroke-width="0.5" stroke-miterlimit="3.25" x1="245.549" y1="94.57" x2="253.219" y2="94.57"/>
		
			<line fill="none" stroke="#000000" stroke-width="0.5" stroke-miterlimit="3.25" x1="244.51" y1="71.962" x2="253.275" y2="71.962"/>
		
			<line fill="none" stroke="#000000" stroke-width="0.5" stroke-miterlimit="3.25" x1="243.471" y1="49.355" x2="253.332" y2="49.355"/>
		
			<line fill="none" stroke="#000000" stroke-width="0.5" stroke-miterlimit="3.25" x1="242.432" y1="26.747" x2="253.389" y2="26.747"/>
		
			<line fill="none" stroke="#000000" stroke-width="0.5" stroke-miterlimit="3.25" x1="278.547" y1="343.253" x2="275.26" y2="343.253"/>
		
			<line fill="none" stroke="#000000" stroke-width="0.5" stroke-miterlimit="3.25" x1="277.508" y1="320.645" x2="275.316" y2="320.645"/>
		
			<line fill="none" stroke="#000000" stroke-width="0.5" stroke-miterlimit="3.25" x1="276.469" y1="298.038" x2="275.374" y2="298.038"/>
		
			<line fill="none" stroke="#000000" stroke-width="0.5" stroke-miterlimit="3.25" x1="274.391" y1="252.823" x2="275.486" y2="252.823"/>
		
			<line fill="none" stroke="#000000" stroke-width="0.5" stroke-miterlimit="3.25" x1="273.352" y1="230.215" x2="275.543" y2="230.215"/>
		
			<line fill="none" stroke="#000000" stroke-width="0.5" stroke-miterlimit="3.25" x1="272.312" y1="207.608" x2="275.6" y2="207.608"/>
		<line fill="none" stroke="#000000" stroke-width="0.5" stroke-miterlimit="3.25" x1="271.273" y1="185" x2="275.657" y2="185"/>
		
			<line fill="none" stroke="#000000" stroke-width="0.5" stroke-miterlimit="3.25" x1="270.234" y1="162.392" x2="275.713" y2="162.392"/>
		
			<line fill="none" stroke="#000000" stroke-width="0.5" stroke-miterlimit="3.25" x1="269.195" y1="139.785" x2="275.77" y2="139.785"/>
		
			<line fill="none" stroke="#000000" stroke-width="0.5" stroke-miterlimit="3.25" x1="268.157" y1="117.177" x2="275.826" y2="117.177"/>
		
			<line fill="none" stroke="#000000" stroke-width="0.5" stroke-miterlimit="3.25" x1="267.117" y1="94.57" x2="275.883" y2="94.57"/>
		
			<line fill="none" stroke="#000000" stroke-width="0.5" stroke-miterlimit="3.25" x1="266.078" y1="71.962" x2="275.939" y2="71.962"/>
		
			<line fill="none" stroke="#000000" stroke-width="0.5" stroke-miterlimit="3.25" x1="265.039" y1="49.355" x2="275.996" y2="49.355"/>
		<line fill="none" stroke="#000000" stroke-width="0.5" stroke-miterlimit="3.25" x1="264" y1="26.747" x2="276.053" y2="26.747"/>
		
			<line fill="none" stroke="#000000" stroke-width="0.5" stroke-miterlimit="3.25" x1="300.116" y1="343.253" x2="297.924" y2="343.253"/>
		
			<line fill="none" stroke="#000000" stroke-width="0.5" stroke-miterlimit="3.25" x1="299.077" y1="320.645" x2="297.98" y2="320.645"/>
		
			<line fill="none" stroke="#000000" stroke-width="0.5" stroke-miterlimit="3.25" x1="296.999" y1="275.43" x2="298.094" y2="275.43"/>
		
			<line fill="none" stroke="#000000" stroke-width="0.5" stroke-miterlimit="3.25" x1="295.96" y1="252.823" x2="298.15" y2="252.823"/>
		
			<line fill="none" stroke="#000000" stroke-width="0.5" stroke-miterlimit="3.25" x1="294.92" y1="230.215" x2="298.208" y2="230.215"/>
		
			<line fill="none" stroke="#000000" stroke-width="0.5" stroke-miterlimit="3.25" x1="293.881" y1="207.608" x2="298.264" y2="207.608"/>
		<line fill="none" stroke="#000000" stroke-width="0.5" stroke-miterlimit="3.25" x1="292.842" y1="185" x2="298.32" y2="185"/>
		
			<line fill="none" stroke="#000000" stroke-width="0.5" stroke-miterlimit="3.25" x1="291.803" y1="162.392" x2="298.377" y2="162.392"/>
		
			<line fill="none" stroke="#000000" stroke-width="0.5" stroke-miterlimit="3.25" x1="290.764" y1="139.785" x2="298.434" y2="139.785"/>
		
			<line fill="none" stroke="#000000" stroke-width="0.5" stroke-miterlimit="3.25" x1="289.725" y1="117.177" x2="298.491" y2="117.177"/>
		
			<line fill="none" stroke="#000000" stroke-width="0.5" stroke-miterlimit="3.25" x1="288.686" y1="94.57" x2="298.547" y2="94.57"/>
		
			<line fill="none" stroke="#000000" stroke-width="0.5" stroke-miterlimit="3.25" x1="287.646" y1="71.962" x2="298.604" y2="71.962"/>
		
			<line fill="none" stroke="#000000" stroke-width="0.5" stroke-miterlimit="3.25" x1="286.607" y1="49.355" x2="298.66" y2="49.355"/>
		
			<line fill="none" stroke="#000000" stroke-width="0.5" stroke-miterlimit="3.25" x1="285.568" y1="26.747" x2="298.717" y2="26.747"/>
		
			<line fill="none" stroke="#000000" stroke-width="0.5" stroke-miterlimit="3.25" x1="321.684" y1="343.253" x2="320.589" y2="343.253"/>
		
			<line fill="none" stroke="#000000" stroke-width="0.5" stroke-miterlimit="3.25" x1="319.606" y1="298.038" x2="320.702" y2="298.038"/>
		
			<line fill="none" stroke="#000000" stroke-width="0.5" stroke-miterlimit="3.25" x1="318.567" y1="275.43" x2="320.758" y2="275.43"/>
		
			<line fill="none" stroke="#000000" stroke-width="0.5" stroke-miterlimit="3.25" x1="317.528" y1="252.823" x2="320.815" y2="252.823"/>
		
			<line fill="none" stroke="#000000" stroke-width="0.5" stroke-miterlimit="3.25" x1="316.489" y1="230.215" x2="320.872" y2="230.215"/>
		
			<line fill="none" stroke="#000000" stroke-width="0.5" stroke-miterlimit="3.25" x1="315.45" y1="207.608" x2="320.928" y2="207.608"/>
		<line fill="none" stroke="#000000" stroke-width="0.5" stroke-miterlimit="3.25" x1="314.411" y1="185" x2="320.985" y2="185"/>
		
			<line fill="none" stroke="#000000" stroke-width="0.5" stroke-miterlimit="3.25" x1="313.372" y1="162.392" x2="321.042" y2="162.392"/>
		
			<line fill="none" stroke="#000000" stroke-width="0.5" stroke-miterlimit="3.25" x1="312.333" y1="139.785" x2="321.098" y2="139.785"/>
		
			<line fill="none" stroke="#000000" stroke-width="0.5" stroke-miterlimit="3.25" x1="311.293" y1="117.177" x2="321.155" y2="117.177"/>
		
			<line fill="none" stroke="#000000" stroke-width="0.5" stroke-miterlimit="3.25" x1="310.254" y1="94.57" x2="321.211" y2="94.57"/>
		
			<line fill="none" stroke="#000000" stroke-width="0.5" stroke-miterlimit="3.25" x1="309.215" y1="71.962" x2="321.268" y2="71.962"/>
		
			<line fill="none" stroke="#000000" stroke-width="0.5" stroke-miterlimit="3.25" x1="308.176" y1="49.355" x2="321.325" y2="49.355"/>
		
			<line fill="none" stroke="#000000" stroke-width="0.5" stroke-miterlimit="3.25" x1="307.137" y1="26.747" x2="321.381" y2="26.747"/>
		
			<line fill="none" stroke="#000000" stroke-width="0.5" stroke-miterlimit="3.25" x1="342.214" y1="320.645" x2="343.309" y2="320.645"/>
		
			<line fill="none" stroke="#000000" stroke-width="0.5" stroke-miterlimit="3.25" x1="341.175" y1="298.038" x2="343.366" y2="298.038"/>
		
			<line fill="none" stroke="#000000" stroke-width="0.5" stroke-miterlimit="3.25" x1="340.136" y1="275.43" x2="343.423" y2="275.43"/>
		
			<line fill="none" stroke="#000000" stroke-width="0.5" stroke-miterlimit="3.25" x1="339.096" y1="252.823" x2="343.479" y2="252.823"/>
		
			<line fill="none" stroke="#000000" stroke-width="0.5" stroke-miterlimit="3.25" x1="338.057" y1="230.215" x2="343.536" y2="230.215"/>
		
			<line fill="none" stroke="#000000" stroke-width="0.5" stroke-miterlimit="3.25" x1="337.018" y1="207.608" x2="343.592" y2="207.608"/>
		<line fill="none" stroke="#000000" stroke-width="0.5" stroke-miterlimit="3.25" x1="335.979" y1="185" x2="343.649" y2="185"/>
		
			<line fill="none" stroke="#000000" stroke-width="0.5" stroke-miterlimit="3.25" x1="334.94" y1="162.392" x2="343.706" y2="162.392"/>
		
			<line fill="none" stroke="#000000" stroke-width="0.5" stroke-miterlimit="3.25" x1="333.901" y1="139.785" x2="343.762" y2="139.785"/>
		
			<line fill="none" stroke="#000000" stroke-width="0.5" stroke-miterlimit="3.25" x1="332.862" y1="117.177" x2="343.819" y2="117.177"/>
		
			<line fill="none" stroke="#000000" stroke-width="0.5" stroke-miterlimit="3.25" x1="331.823" y1="94.57" x2="343.875" y2="94.57"/>
		
			<line fill="none" stroke="#000000" stroke-width="0.5" stroke-miterlimit="3.25" x1="330.784" y1="71.962" x2="343.932" y2="71.962"/>
		
			<line fill="none" stroke="#000000" stroke-width="0.5" stroke-miterlimit="3.25" x1="329.745" y1="49.355" x2="343.989" y2="49.355"/>
		
			<line fill="none" stroke="#000000" stroke-width="0.5" stroke-miterlimit="3.25" x1="328.706" y1="26.747" x2="344.045" y2="26.747"/>
	</g>
	<g>
		<polyline fill-rule="evenodd" clip-rule="evenodd" points="27.353,347.241 27.131,346.787 26.645,345.699 26.387,345.045 
			26.163,344.385 26.008,343.77 25.955,343.253 26.008,342.784 26.163,342.178 26.387,341.496 26.645,340.8 27.131,339.611 
			27.353,339.106 12.2,343.253 27.353,347.241 		"/>
		<polyline fill-rule="evenodd" clip-rule="evenodd" points="27.31,324.348 27.104,323.927 26.652,322.917 26.413,322.309 
			26.205,321.696 26.061,321.126 26.011,320.645 26.061,320.21 26.205,319.647 26.413,319.014 26.652,318.368 27.104,317.264 
			27.31,316.794 13.239,320.645 27.31,324.348 		"/>
		<polyline fill-rule="evenodd" clip-rule="evenodd" points="27.267,301.456 27.076,301.067 26.66,300.134 26.438,299.573 
			26.247,299.008 26.114,298.481 26.068,298.038 26.114,297.636 26.247,297.117 26.438,296.532 26.66,295.935 27.076,294.916 
			27.267,294.483 14.278,298.038 27.267,301.456 		"/>
		<polyline fill-rule="evenodd" clip-rule="evenodd" points="27.223,278.562 27.049,278.207 26.667,277.352 26.464,276.838 
			26.288,276.319 26.166,275.837 26.125,275.43 26.166,275.062 26.288,274.586 26.464,274.05 26.667,273.503 27.049,272.569 
			27.223,272.172 15.317,275.43 27.223,278.562 		"/>
		<polyline fill-rule="evenodd" clip-rule="evenodd" points="27.18,255.671 27.021,255.347 26.674,254.57 26.49,254.102 
			26.33,253.631 26.219,253.192 26.181,252.823 26.219,252.488 26.33,252.055 26.49,251.568 26.674,251.071 27.021,250.222 
			27.18,249.86 16.356,252.823 27.18,255.671 		"/>
		<polyline fill-rule="evenodd" clip-rule="evenodd" points="27.137,232.779 26.994,232.487 26.682,231.788 26.516,231.367 
			26.372,230.943 26.272,230.548 26.238,230.215 26.272,229.914 26.372,229.524 26.516,229.086 26.682,228.638 26.994,227.874 
			27.137,227.549 17.395,230.215 27.137,232.779 		"/>
		<polyline fill-rule="evenodd" clip-rule="evenodd" points="27.094,209.886 26.967,209.627 26.689,209.005 26.541,208.631 
			26.414,208.254 26.325,207.903 26.294,207.608 26.325,207.34 26.414,206.993 26.541,206.604 26.689,206.206 26.967,205.527 
			27.094,205.238 18.435,207.608 27.094,209.886 		"/>
		<polyline fill-rule="evenodd" clip-rule="evenodd" points="27.05,186.994 26.939,186.767 26.696,186.223 26.567,185.896 
			26.455,185.566 26.378,185.259 26.351,185 26.378,184.766 26.455,184.463 26.567,184.122 26.696,183.774 26.939,183.179 
			27.05,182.926 19.474,185 27.05,186.994 		"/>
		<polyline fill-rule="evenodd" clip-rule="evenodd" points="27.007,164.101 26.912,163.907 26.703,163.441 26.593,163.16 
			26.497,162.878 26.43,162.614 26.408,162.392 26.43,162.192 26.497,161.932 26.593,161.64 26.703,161.341 26.912,160.832 
			27.007,160.615 20.513,162.392 27.007,164.101 		"/>
		<polyline fill-rule="evenodd" clip-rule="evenodd" points="26.964,141.209 26.884,141.047 26.711,140.659 26.619,140.425 
			26.539,140.189 26.483,139.97 26.464,139.785 26.483,139.618 26.539,139.401 26.619,139.158 26.711,138.909 26.884,138.484 
			26.964,138.304 21.552,139.785 26.964,141.209 		"/>
		<polyline fill-rule="evenodd" clip-rule="evenodd" points="26.92,118.317 26.857,118.187 26.718,117.876 26.644,117.689 
			26.58,117.501 26.536,117.325 26.521,117.177 26.536,117.044 26.58,116.87 26.644,116.675 26.718,116.477 26.857,116.137 
			26.92,115.992 22.591,117.177 26.92,118.317 		"/>
		<polyline fill-rule="evenodd" clip-rule="evenodd" points="26.877,95.424 26.829,95.327 26.725,95.094 26.67,94.954 
			26.622,94.812 26.589,94.681 26.577,94.57 26.589,94.469 26.622,94.34 26.67,94.193 26.725,94.044 26.829,93.79 26.877,93.681 
			23.63,94.57 26.877,95.424 		"/>
		<polyline fill-rule="evenodd" clip-rule="evenodd" points="26.834,72.532 26.802,72.467 26.733,72.312 26.696,72.218 
			26.664,72.124 26.642,72.036 26.634,71.962 26.642,71.895 26.664,71.809 26.696,71.711 26.733,71.612 26.802,71.442 26.834,71.37 
			24.669,71.962 26.834,72.532 		"/>
		<polyline fill-rule="evenodd" clip-rule="evenodd" points="26.791,49.64 26.775,49.607 26.74,49.529 26.721,49.483 26.706,49.436 
			26.694,49.392 26.691,49.355 26.694,49.321 26.706,49.278 26.721,49.229 26.74,49.18 26.775,49.095 26.791,49.059 25.708,49.355 
			26.791,49.64 		"/>
		<polyline fill-rule="evenodd" clip-rule="evenodd" points="49.918,346.956 49.711,346.535 49.26,345.524 49.02,344.917 
			48.813,344.304 48.668,343.733 48.619,343.253 48.668,342.818 48.813,342.255 49.02,341.622 49.26,340.975 49.711,339.871 
			49.918,339.402 35.847,343.253 49.918,346.956 		"/>
		<polyline fill-rule="evenodd" clip-rule="evenodd" points="49.874,324.062 49.684,323.675 49.267,322.742 49.046,322.181 
			48.854,321.615 48.721,321.089 48.675,320.645 48.721,320.244 48.854,319.724 49.046,319.14 49.267,318.543 49.684,317.524 
			49.874,317.091 36.886,320.645 49.874,324.062 		"/>
		<polyline fill-rule="evenodd" clip-rule="evenodd" points="49.831,301.171 49.656,300.815 49.275,299.96 49.072,299.445 
			48.896,298.927 48.774,298.444 48.732,298.038 48.774,297.67 48.896,297.193 49.072,296.658 49.275,296.111 49.656,295.177 
			49.831,294.779 37.925,298.038 49.831,301.171 		"/>
		<polyline fill-rule="evenodd" clip-rule="evenodd" points="49.788,278.279 49.629,277.955 49.282,277.177 49.097,276.71 
			48.938,276.239 48.827,275.8 48.789,275.43 48.827,275.096 48.938,274.663 49.097,274.175 49.282,273.678 49.629,272.829 
			49.788,272.468 38.964,275.43 49.788,278.279 		"/>
		<polyline fill-rule="evenodd" clip-rule="evenodd" points="49.744,255.386 49.602,255.095 49.289,254.395 49.123,253.974 
			48.979,253.55 48.88,253.155 48.845,252.823 48.88,252.521 48.979,252.132 49.123,251.693 49.289,251.246 49.602,250.482 
			49.744,250.157 40.003,252.823 49.744,255.386 		"/>
		<polyline fill-rule="evenodd" clip-rule="evenodd" points="49.701,232.494 49.574,232.235 49.296,231.613 49.149,231.239 
			49.021,230.862 48.932,230.511 48.902,230.215 48.932,229.947 49.021,229.601 49.149,229.211 49.296,228.814 49.574,228.134 
			49.701,227.845 41.042,230.215 49.701,232.494 		"/>
		<polyline fill-rule="evenodd" clip-rule="evenodd" points="49.658,209.601 49.547,209.375 49.304,208.831 49.175,208.503 
			49.063,208.173 48.985,207.866 48.958,207.608 48.985,207.373 49.063,207.07 49.175,206.729 49.304,206.381 49.547,205.787 
			49.658,205.534 42.081,207.608 49.658,209.601 		"/>
		<polyline fill-rule="evenodd" clip-rule="evenodd" points="49.615,186.709 49.519,186.515 49.311,186.048 49.2,185.768 
			49.105,185.485 49.038,185.222 49.015,185 49.038,184.799 49.105,184.539 49.2,184.247 49.311,183.949 49.519,183.439 
			49.615,183.223 43.12,185 49.615,186.709 		"/>
		<polyline fill-rule="evenodd" clip-rule="evenodd" points="49.571,163.817 49.492,163.655 49.318,163.266 49.226,163.032 
			49.146,162.797 49.091,162.577 49.072,162.392 49.091,162.225 49.146,162.009 49.226,161.765 49.318,161.516 49.492,161.092 
			49.571,160.911 44.159,162.392 49.571,163.817 		"/>
		<polyline fill-rule="evenodd" clip-rule="evenodd" points="49.528,140.924 49.464,140.795 49.326,140.484 49.252,140.297 
			49.188,140.108 49.144,139.933 49.128,139.785 49.144,139.651 49.188,139.478 49.252,139.283 49.326,139.084 49.464,138.744 
			49.528,138.6 45.198,139.785 49.528,140.924 		"/>
		<polyline fill-rule="evenodd" clip-rule="evenodd" points="49.485,118.032 49.437,117.935 49.333,117.702 49.278,117.561 
			49.23,117.42 49.196,117.288 49.185,117.177 49.196,117.077 49.23,116.947 49.278,116.801 49.333,116.652 49.437,116.397 
			49.485,116.289 46.237,117.177 49.485,118.032 		"/>
		<polyline fill-rule="evenodd" clip-rule="evenodd" points="49.441,95.14 49.41,95.075 49.34,94.919 49.303,94.826 49.271,94.732 
			49.249,94.644 49.242,94.57 49.249,94.503 49.271,94.416 49.303,94.319 49.34,94.219 49.41,94.05 49.441,93.977 47.277,94.57 
			49.441,95.14 		"/>
		<polyline fill-rule="evenodd" clip-rule="evenodd" points="49.398,72.247 49.382,72.215 49.347,72.137 49.329,72.09 
			49.313,72.043 49.302,71.999 49.298,71.962 49.302,71.929 49.313,71.886 49.329,71.837 49.347,71.787 49.382,71.702 
			49.398,71.666 48.316,71.962 49.398,72.247 		"/>
		<polyline fill-rule="evenodd" clip-rule="evenodd" points="49.311,26.462 49.327,26.495 49.362,26.572 49.38,26.619 
			49.396,26.666 49.408,26.71 49.411,26.747 49.408,26.781 49.396,26.824 49.38,26.873 49.362,26.922 49.327,27.007 49.311,27.043 
			50.394,26.747 49.311,26.462 		"/>
		<polyline fill-rule="evenodd" clip-rule="evenodd" points="72.482,346.671 72.291,346.282 71.875,345.349 71.653,344.789 
			71.462,344.223 71.329,343.696 71.283,343.253 71.329,342.851 71.462,342.332 71.653,341.747 71.875,341.15 72.291,340.132 
			72.482,339.698 59.493,343.253 72.482,346.671 		"/>
		<polyline fill-rule="evenodd" clip-rule="evenodd" points="72.439,323.778 72.264,323.422 71.882,322.567 71.679,322.053 
			71.504,321.535 71.382,321.052 71.34,320.645 71.382,320.277 71.504,319.801 71.679,319.265 71.882,318.718 72.264,317.784 
			72.439,317.387 60.532,320.645 72.439,323.778 		"/>
		<polyline fill-rule="evenodd" clip-rule="evenodd" points="72.395,300.886 72.237,300.562 71.889,299.785 71.705,299.318 
			71.545,298.846 71.434,298.407 71.396,298.038 71.434,297.703 71.545,297.27 71.705,296.783 71.889,296.286 72.237,295.438 
			72.395,295.075 61.571,298.038 72.395,300.886 		"/>
		<polyline fill-rule="evenodd" clip-rule="evenodd" points="72.352,277.994 72.209,277.702 71.897,277.003 71.731,276.582 
			71.587,276.158 71.487,275.763 71.453,275.43 71.487,275.129 71.587,274.739 71.731,274.301 71.897,273.853 72.209,273.089 
			72.352,272.764 62.611,275.43 72.352,277.994 		"/>
		<polyline fill-rule="evenodd" clip-rule="evenodd" points="72.309,255.101 72.182,254.842 71.904,254.22 71.756,253.846 
			71.629,253.469 71.54,253.118 71.509,252.823 71.54,252.555 71.629,252.209 71.756,251.819 71.904,251.421 72.182,250.742 
			72.309,250.453 63.65,252.823 72.309,255.101 		"/>
		<polyline fill-rule="evenodd" clip-rule="evenodd" points="72.265,232.209 72.154,231.982 71.911,231.438 71.782,231.111 
			71.67,230.781 71.593,230.474 71.566,230.215 71.593,229.981 71.67,229.678 71.782,229.337 71.911,228.989 72.154,228.394 
			72.265,228.141 64.689,230.215 72.265,232.209 		"/>
		<polyline fill-rule="evenodd" clip-rule="evenodd" points="72.222,209.317 72.127,209.122 71.919,208.656 71.808,208.375 
			71.712,208.093 71.646,207.829 71.623,207.608 71.646,207.407 71.712,207.147 71.808,206.855 71.919,206.556 72.127,206.047 
			72.222,205.83 65.728,207.608 72.222,209.317 		"/>
		<polyline fill-rule="evenodd" clip-rule="evenodd" points="72.179,186.424 72.099,186.262 71.926,185.874 71.834,185.64 
			71.754,185.404 71.698,185.185 71.679,185 71.698,184.833 71.754,184.616 71.834,184.373 71.926,184.124 72.099,183.699 
			72.179,183.519 66.767,185 72.179,186.424 		"/>
		<polyline fill-rule="evenodd" clip-rule="evenodd" points="72.135,163.532 72.072,163.402 71.933,163.091 71.859,162.904 
			71.795,162.716 71.751,162.54 71.736,162.392 71.751,162.259 71.795,162.085 71.859,161.891 71.933,161.692 72.072,161.352 
			72.135,161.208 67.806,162.392 72.135,163.532 		"/>
		<polyline fill-rule="evenodd" clip-rule="evenodd" points="72.092,140.639 72.045,140.542 71.94,140.309 71.885,140.169 
			71.837,140.027 71.804,139.896 71.792,139.785 71.804,139.685 71.837,139.555 71.885,139.409 71.94,139.259 72.045,139.005 
			72.092,138.896 68.845,139.785 72.092,140.639 		"/>
		<polyline fill-rule="evenodd" clip-rule="evenodd" points="72.049,117.747 72.017,117.682 71.948,117.527 71.911,117.433 
			71.879,117.339 71.857,117.251 71.849,117.177 71.857,117.11 71.879,117.024 71.911,116.926 71.948,116.827 72.017,116.657 
			72.049,116.585 69.884,117.177 72.049,117.747 		"/>
		<polyline fill-rule="evenodd" clip-rule="evenodd" points="72.006,94.855 71.99,94.822 71.955,94.745 71.937,94.698 
			71.921,94.651 71.909,94.607 71.906,94.57 71.909,94.536 71.921,94.493 71.937,94.444 71.955,94.395 71.99,94.31 72.006,94.274 
			70.923,94.57 72.006,94.855 		"/>
		<polyline fill-rule="evenodd" clip-rule="evenodd" points="71.919,49.07 71.935,49.102 71.97,49.18 71.988,49.227 72.004,49.274 
			72.015,49.318 72.019,49.355 72.015,49.388 72.004,49.432 71.988,49.48 71.97,49.53 71.935,49.615 71.919,49.651 73.001,49.355 
			71.919,49.07 		"/>
		<polyline fill-rule="evenodd" clip-rule="evenodd" points="71.876,26.178 71.907,26.242 71.977,26.398 72.014,26.491 
			72.046,26.586 72.068,26.673 72.076,26.747 72.068,26.814 72.046,26.901 72.014,26.998 71.977,27.098 71.907,27.267 71.876,27.34 
			74.04,26.747 71.876,26.178 		"/>
		<polyline fill-rule="evenodd" clip-rule="evenodd" points="95.046,346.386 94.872,346.03 94.49,345.175 94.287,344.661 
			94.111,344.142 93.989,343.659 93.947,343.253 93.989,342.885 94.111,342.408 94.287,341.873 94.49,341.326 94.872,340.392 
			95.046,339.994 83.14,343.253 95.046,346.386 		"/>
		<polyline fill-rule="evenodd" clip-rule="evenodd" points="95.003,323.494 94.844,323.17 94.497,322.392 94.312,321.925 
			94.153,321.454 94.042,321.015 94.004,320.645 94.042,320.311 94.153,319.878 94.312,319.391 94.497,318.893 94.844,318.044 
			95.003,317.683 84.179,320.645 95.003,323.494 		"/>
		<polyline fill-rule="evenodd" clip-rule="evenodd" points="94.959,300.601 94.817,300.31 94.504,299.61 94.338,299.19 
			94.194,298.765 94.095,298.37 94.06,298.038 94.095,297.737 94.194,297.347 94.338,296.908 94.504,296.461 94.817,295.697 
			94.959,295.372 85.218,298.038 94.959,300.601 		"/>
		<polyline fill-rule="evenodd" clip-rule="evenodd" points="94.916,277.709 94.789,277.45 94.511,276.828 94.364,276.454 
			94.236,276.077 94.147,275.726 94.117,275.43 94.147,275.162 94.236,274.816 94.364,274.426 94.511,274.029 94.789,273.349 
			94.916,273.06 86.257,275.43 94.916,277.709 		"/>
		<polyline fill-rule="evenodd" clip-rule="evenodd" points="94.873,254.817 94.762,254.59 94.519,254.046 94.39,253.718 
			94.278,253.389 94.2,253.081 94.174,252.823 94.2,252.588 94.278,252.285 94.39,251.944 94.519,251.596 94.762,251.002 
			94.873,250.749 87.296,252.823 94.873,254.817 		"/>
		<polyline fill-rule="evenodd" clip-rule="evenodd" points="94.83,231.924 94.734,231.73 94.526,231.263 94.415,230.983 
			94.32,230.7 94.253,230.437 94.23,230.215 94.253,230.014 94.32,229.755 94.415,229.462 94.526,229.164 94.734,228.654 
			94.83,228.438 88.335,230.215 94.83,231.924 		"/>
		<polyline fill-rule="evenodd" clip-rule="evenodd" points="94.786,209.032 94.707,208.87 94.533,208.481 94.441,208.247 
			94.361,208.012 94.306,207.792 94.287,207.608 94.306,207.44 94.361,207.224 94.441,206.98 94.533,206.732 94.707,206.307 
			94.786,206.126 89.374,207.608 94.786,209.032 		"/>
		<polyline fill-rule="evenodd" clip-rule="evenodd" points="94.743,186.139 94.68,186.01 94.541,185.699 94.467,185.512 
			94.403,185.323 94.359,185.148 94.343,185 94.359,184.866 94.403,184.693 94.467,184.498 94.541,184.299 94.68,183.96 
			94.743,183.815 90.413,185 94.743,186.139 		"/>
		<polyline fill-rule="evenodd" clip-rule="evenodd" points="94.7,163.247 94.652,163.15 94.548,162.917 94.493,162.776 
			94.445,162.635 94.411,162.503 94.4,162.392 94.411,162.292 94.445,162.162 94.493,162.016 94.548,161.867 94.652,161.612 
			94.7,161.504 91.453,162.392 94.7,163.247 		"/>
		<polyline fill-rule="evenodd" clip-rule="evenodd" points="94.656,140.355 94.625,140.29 94.555,140.134 94.518,140.041 
			94.486,139.947 94.464,139.859 94.457,139.785 94.464,139.718 94.486,139.631 94.518,139.534 94.555,139.435 94.625,139.265 
			94.656,139.192 92.492,139.785 94.656,140.355 		"/>
		<polyline fill-rule="evenodd" clip-rule="evenodd" points="94.613,117.462 94.597,117.43 94.563,117.352 94.544,117.305 
			94.528,117.258 94.517,117.214 94.513,117.177 94.517,117.144 94.528,117.101 94.544,117.052 94.563,117.002 94.597,116.917 
			94.613,116.881 93.531,117.177 94.613,117.462 		"/>
		<polyline fill-rule="evenodd" clip-rule="evenodd" points="94.527,71.677 94.542,71.71 94.577,71.788 94.596,71.834 
			94.612,71.881 94.623,71.925 94.626,71.962 94.623,71.996 94.612,72.039 94.596,72.088 94.577,72.137 94.542,72.222 
			94.527,72.259 95.609,71.962 94.527,71.677 		"/>
		<polyline fill-rule="evenodd" clip-rule="evenodd" points="94.483,48.785 94.515,48.85 94.584,49.005 94.621,49.099 
			94.653,49.193 94.675,49.281 94.683,49.355 94.675,49.422 94.653,49.508 94.621,49.606 94.584,49.705 94.515,49.875 
			94.483,49.947 96.648,49.355 94.483,48.785 		"/>
		<polyline fill-rule="evenodd" clip-rule="evenodd" points="94.44,25.893 94.488,25.99 94.592,26.223 94.647,26.363 94.695,26.505 
			94.728,26.636 94.74,26.747 94.728,26.848 94.695,26.977 94.647,27.124 94.592,27.273 94.488,27.528 94.44,27.636 97.687,26.747 
			94.44,25.893 		"/>
		<polyline fill-rule="evenodd" clip-rule="evenodd" points="117.61,346.101 117.452,345.777 117.104,345 116.92,344.533 
			116.76,344.061 116.649,343.623 116.611,343.253 116.649,342.918 116.76,342.485 116.92,341.998 117.104,341.501 117.452,340.652 
			117.61,340.291 106.787,343.253 117.61,346.101 		"/>
		<polyline fill-rule="evenodd" clip-rule="evenodd" points="117.567,323.209 117.424,322.917 117.112,322.218 116.946,321.797 
			116.802,321.373 116.702,320.978 116.668,320.645 116.702,320.344 116.802,319.954 116.946,319.516 117.112,319.068 
			117.424,318.304 117.567,317.979 107.826,320.645 117.567,323.209 		"/>
		<polyline fill-rule="evenodd" clip-rule="evenodd" points="117.524,300.316 117.397,300.057 117.119,299.435 116.971,299.062 
			116.844,298.684 116.755,298.333 116.725,298.038 116.755,297.77 116.844,297.424 116.971,297.034 117.119,296.636 
			117.397,295.957 117.524,295.668 108.865,298.038 117.524,300.316 		"/>
		<polyline fill-rule="evenodd" clip-rule="evenodd" points="117.48,277.424 117.369,277.197 117.126,276.653 116.997,276.326 
			116.885,275.996 116.808,275.689 116.781,275.43 116.808,275.196 116.885,274.893 116.997,274.552 117.126,274.204 
			117.369,273.609 117.48,273.357 109.904,275.43 117.48,277.424 		"/>
		<polyline fill-rule="evenodd" clip-rule="evenodd" points="117.437,254.532 117.342,254.337 117.134,253.871 117.023,253.591 
			116.927,253.308 116.861,253.044 116.838,252.823 116.861,252.622 116.927,252.362 117.023,252.07 117.134,251.771 
			117.342,251.262 117.437,251.045 110.943,252.823 117.437,254.532 		"/>
		<polyline fill-rule="evenodd" clip-rule="evenodd" points="117.394,231.639 117.315,231.477 117.141,231.089 117.049,230.855 
			116.969,230.619 116.913,230.4 116.894,230.215 116.913,230.048 116.969,229.831 117.049,229.588 117.141,229.339 
			117.315,228.915 117.394,228.734 111.982,230.215 117.394,231.639 		"/>
		<polyline fill-rule="evenodd" clip-rule="evenodd" points="117.351,208.747 117.287,208.617 117.148,208.306 117.074,208.119 
			117.011,207.931 116.966,207.755 116.951,207.608 116.966,207.474 117.011,207.301 117.074,207.106 117.148,206.907 
			117.287,206.567 117.351,206.423 113.021,207.608 117.351,208.747 		"/>
		<polyline fill-rule="evenodd" clip-rule="evenodd" points="117.307,185.855 117.26,185.757 117.155,185.524 117.1,185.384 
			117.052,185.243 117.019,185.111 117.008,185 117.019,184.9 117.052,184.77 117.1,184.624 117.155,184.474 117.26,184.22 
			117.307,184.111 114.06,185 117.307,185.855 		"/>
		<polyline fill-rule="evenodd" clip-rule="evenodd" points="117.264,162.962 117.232,162.897 117.163,162.742 117.126,162.648 
			117.094,162.554 117.072,162.466 117.064,162.392 117.072,162.326 117.094,162.239 117.126,162.142 117.163,162.042 
			117.232,161.872 117.264,161.8 115.099,162.392 117.264,162.962 		"/>
		<polyline fill-rule="evenodd" clip-rule="evenodd" points="117.221,140.07 117.205,140.037 117.17,139.96 117.152,139.913 
			117.136,139.866 117.125,139.822 117.121,139.785 117.125,139.751 117.136,139.708 117.152,139.659 117.17,139.61 
			117.205,139.525 117.221,139.489 116.138,139.785 117.221,140.07 		"/>
		<polyline fill-rule="evenodd" clip-rule="evenodd" points="117.134,94.285 117.15,94.317 117.185,94.395 117.203,94.442 
			117.219,94.489 117.23,94.533 117.234,94.57 117.23,94.603 117.219,94.647 117.203,94.695 117.185,94.745 117.15,94.83 
			117.134,94.866 118.216,94.57 117.134,94.285 		"/>
		<polyline fill-rule="evenodd" clip-rule="evenodd" points="117.091,71.393 117.123,71.457 117.192,71.613 117.229,71.706 
			117.261,71.801 117.283,71.888 117.291,71.962 117.283,72.029 117.261,72.116 117.229,72.213 117.192,72.312 117.123,72.483 
			117.091,72.555 119.256,71.962 117.091,71.393 		"/>
		<polyline fill-rule="evenodd" clip-rule="evenodd" points="117.047,48.5 117.095,48.597 117.199,48.831 117.255,48.971 
			117.302,49.112 117.336,49.244 117.347,49.355 117.336,49.455 117.302,49.585 117.255,49.731 117.199,49.88 117.095,50.135 
			117.047,50.243 120.295,49.355 117.047,48.5 		"/>
		<polyline fill-rule="evenodd" clip-rule="evenodd" points="117.004,25.608 117.068,25.737 117.207,26.048 117.28,26.235 
			117.344,26.424 117.389,26.599 117.404,26.747 117.389,26.881 117.344,27.054 117.28,27.249 117.207,27.448 117.068,27.788 
			117.004,27.932 121.334,26.747 117.004,25.608 		"/>
		<polyline fill-rule="evenodd" clip-rule="evenodd" points="140.175,345.816 140.032,345.525 139.719,344.825 139.553,344.405 
			139.41,343.98 139.31,343.586 139.275,343.253 139.31,342.952 139.41,342.562 139.553,342.124 139.719,341.676 140.032,340.912 
			140.175,340.587 130.433,343.253 140.175,345.816 		"/>
		<polyline fill-rule="evenodd" clip-rule="evenodd" points="140.131,322.924 140.004,322.665 139.727,322.043 139.579,321.669 
			139.451,321.292 139.363,320.941 139.332,320.645 139.363,320.378 139.451,320.031 139.579,319.641 139.727,319.244 
			140.004,318.564 140.131,318.275 131.472,320.645 140.131,322.924 		"/>
		<polyline fill-rule="evenodd" clip-rule="evenodd" points="140.088,300.032 139.977,299.805 139.734,299.261 139.605,298.934 
			139.493,298.604 139.415,298.297 139.389,298.038 139.415,297.803 139.493,297.5 139.605,297.159 139.734,296.811 
			139.977,296.217 140.088,295.964 132.511,298.038 140.088,300.032 		"/>
		<polyline fill-rule="evenodd" clip-rule="evenodd" points="140.045,277.139 139.949,276.945 139.741,276.478 139.63,276.198 
			139.535,275.915 139.468,275.652 139.445,275.43 139.468,275.229 139.535,274.97 139.63,274.677 139.741,274.379 139.949,273.87 
			140.045,273.653 133.55,275.43 140.045,277.139 		"/>
		<polyline fill-rule="evenodd" clip-rule="evenodd" points="140.001,254.247 139.922,254.085 139.748,253.696 139.656,253.463 
			139.576,253.227 139.521,253.007 139.502,252.823 139.521,252.655 139.576,252.439 139.656,252.195 139.748,251.947 
			139.922,251.522 140.001,251.341 134.589,252.823 140.001,254.247 		"/>
		<polyline fill-rule="evenodd" clip-rule="evenodd" points="139.958,231.354 139.895,231.225 139.756,230.914 139.682,230.727 
			139.618,230.538 139.574,230.363 139.558,230.215 139.574,230.081 139.618,229.908 139.682,229.713 139.756,229.514 
			139.895,229.175 139.958,229.03 135.629,230.215 139.958,231.354 		"/>
		<polyline fill-rule="evenodd" clip-rule="evenodd" points="139.915,208.462 139.867,208.365 139.763,208.132 139.708,207.991 
			139.66,207.85 139.627,207.718 139.615,207.608 139.627,207.507 139.66,207.377 139.708,207.231 139.763,207.082 139.867,206.827 
			139.915,206.719 136.668,207.608 139.915,208.462 		"/>
		<polyline fill-rule="evenodd" clip-rule="evenodd" points="139.872,185.57 139.84,185.505 139.77,185.349 139.733,185.256 
			139.702,185.162 139.679,185.074 139.672,185 139.679,184.933 139.702,184.846 139.733,184.749 139.77,184.65 139.84,184.48 
			139.872,184.408 137.707,185 139.872,185.57 		"/>
		<polyline fill-rule="evenodd" clip-rule="evenodd" points="139.828,162.677 139.812,162.645 139.778,162.567 139.759,162.52 
			139.743,162.473 139.732,162.429 139.728,162.392 139.732,162.359 139.743,162.316 139.759,162.267 139.778,162.217 
			139.812,162.132 139.828,162.096 138.746,162.392 139.828,162.677 		"/>
		<polyline fill-rule="evenodd" clip-rule="evenodd" points="139.742,116.893 139.757,116.925 139.792,117.003 139.811,117.049 
			139.827,117.097 139.838,117.14 139.842,117.177 139.838,117.211 139.827,117.254 139.811,117.303 139.792,117.353 
			139.757,117.437 139.742,117.474 140.824,117.177 139.742,116.893 		"/>
		<polyline fill-rule="evenodd" clip-rule="evenodd" points="139.698,94 139.73,94.065 139.8,94.22 139.836,94.314 139.868,94.408 
			139.891,94.496 139.898,94.57 139.891,94.637 139.868,94.723 139.836,94.821 139.8,94.92 139.73,95.09 139.698,95.162 
			141.863,94.57 139.698,94 		"/>
		<polyline fill-rule="evenodd" clip-rule="evenodd" points="139.655,71.108 139.703,71.205 139.807,71.438 139.862,71.578 
			139.91,71.72 139.943,71.851 139.955,71.962 139.943,72.062 139.91,72.193 139.862,72.339 139.807,72.488 139.703,72.743 
			139.655,72.851 142.902,71.962 139.655,71.108 		"/>
		<polyline fill-rule="evenodd" clip-rule="evenodd" points="139.612,48.215 139.675,48.345 139.814,48.656 139.888,48.843 
			139.952,49.031 139.996,49.207 140.011,49.355 139.996,49.489 139.952,49.662 139.888,49.857 139.814,50.056 139.675,50.395 
			139.612,50.54 143.941,49.355 139.612,48.215 		"/>
		<polyline fill-rule="evenodd" clip-rule="evenodd" points="139.568,25.323 139.648,25.485 139.821,25.874 139.914,26.107 
			139.993,26.343 140.049,26.562 140.068,26.747 140.049,26.915 139.993,27.131 139.914,27.375 139.821,27.623 139.648,28.048 
			139.568,28.228 144.98,26.747 139.568,25.323 		"/>
		<polyline fill-rule="evenodd" clip-rule="evenodd" points="162.739,345.532 162.612,345.272 162.334,344.651 162.187,344.277 
			162.059,343.9 161.97,343.549 161.94,343.253 161.97,342.985 162.059,342.639 162.187,342.249 162.334,341.851 162.612,341.172 
			162.739,340.883 154.08,343.253 162.739,345.532 		"/>
		<polyline fill-rule="evenodd" clip-rule="evenodd" points="162.696,322.639 162.584,322.412 162.341,321.868 162.212,321.541 
			162.101,321.211 162.023,320.904 161.996,320.645 162.023,320.411 162.101,320.108 162.212,319.767 162.341,319.419 
			162.584,318.824 162.696,318.572 155.119,320.645 162.696,322.639 		"/>
		<polyline fill-rule="evenodd" clip-rule="evenodd" points="162.652,299.747 162.557,299.552 162.349,299.086 162.238,298.806 
			162.142,298.523 162.076,298.26 162.053,298.038 162.076,297.837 162.142,297.577 162.238,297.285 162.349,296.987 
			162.557,296.477 162.652,296.26 156.158,298.038 162.652,299.747 		"/>
		<polyline fill-rule="evenodd" clip-rule="evenodd" points="162.609,276.854 162.53,276.692 162.356,276.304 162.264,276.07 
			162.184,275.834 162.128,275.615 162.109,275.43 162.128,275.263 162.184,275.046 162.264,274.803 162.356,274.554 162.53,274.13 
			162.609,273.949 157.197,275.43 162.609,276.854 		"/>
		<polyline fill-rule="evenodd" clip-rule="evenodd" points="162.566,253.962 162.502,253.832 162.363,253.521 162.29,253.335 
			162.226,253.146 162.181,252.971 162.166,252.823 162.181,252.689 162.226,252.516 162.29,252.321 162.363,252.122 
			162.502,251.782 162.566,251.638 158.236,252.823 162.566,253.962 		"/>
		<polyline fill-rule="evenodd" clip-rule="evenodd" points="162.522,231.07 162.475,230.972 162.371,230.739 162.315,230.599 
			162.267,230.458 162.234,230.326 162.223,230.215 162.234,230.115 162.267,229.985 162.315,229.839 162.371,229.689 
			162.475,229.435 162.522,229.326 159.275,230.215 162.522,231.07 		"/>
		<polyline fill-rule="evenodd" clip-rule="evenodd" points="162.479,208.177 162.447,208.112 162.378,207.957 162.341,207.864 
			162.309,207.769 162.287,207.681 162.279,207.608 162.287,207.541 162.309,207.454 162.341,207.357 162.378,207.257 
			162.447,207.087 162.479,207.015 160.314,207.608 162.479,208.177 		"/>
		<polyline fill-rule="evenodd" clip-rule="evenodd" points="162.436,185.285 162.42,185.252 162.385,185.175 162.367,185.128 
			162.351,185.081 162.34,185.037 162.336,185 162.34,184.967 162.351,184.923 162.367,184.875 162.385,184.825 162.42,184.74 
			162.436,184.704 161.353,185 162.436,185.285 		"/>
		<polyline fill-rule="evenodd" clip-rule="evenodd" points="162.349,139.5 162.365,139.532 162.4,139.61 162.418,139.657 
			162.434,139.704 162.445,139.748 162.449,139.785 162.445,139.818 162.434,139.862 162.418,139.91 162.4,139.96 162.365,140.045 
			162.349,140.081 163.432,139.785 162.349,139.5 		"/>
		<polyline fill-rule="evenodd" clip-rule="evenodd" points="162.306,116.608 162.338,116.672 162.407,116.828 162.444,116.921 
			162.476,117.016 162.498,117.103 162.506,117.177 162.498,117.244 162.476,117.331 162.444,117.428 162.407,117.528 
			162.338,117.698 162.306,117.77 164.471,117.177 162.306,116.608 		"/>
		<polyline fill-rule="evenodd" clip-rule="evenodd" points="162.263,93.715 162.31,93.812 162.414,94.046 162.47,94.186 
			162.518,94.327 162.551,94.459 162.562,94.57 162.551,94.67 162.518,94.8 162.47,94.946 162.414,95.095 162.31,95.35 
			162.263,95.459 165.51,94.57 162.263,93.715 		"/>
		<polyline fill-rule="evenodd" clip-rule="evenodd" points="162.219,70.823 162.283,70.953 162.422,71.263 162.495,71.45 
			162.559,71.639 162.604,71.814 162.619,71.962 162.604,72.096 162.559,72.269 162.495,72.464 162.422,72.663 162.283,73.003 
			162.219,73.147 166.549,71.962 162.219,70.823 		"/>
		<polyline fill-rule="evenodd" clip-rule="evenodd" points="162.176,47.931 162.255,48.093 162.429,48.481 162.521,48.715 
			162.601,48.951 162.656,49.17 162.676,49.355 162.656,49.522 162.601,49.739 162.521,49.982 162.429,50.231 162.255,50.655 
			162.176,50.836 167.588,49.355 162.176,47.931 		"/>
		<polyline fill-rule="evenodd" clip-rule="evenodd" points="162.133,25.038 162.228,25.233 162.436,25.699 162.547,25.979 
			162.643,26.262 162.709,26.525 162.732,26.747 162.709,26.948 162.643,27.208 162.547,27.5 162.436,27.798 162.228,28.308 
			162.133,28.525 168.627,26.747 162.133,25.038 		"/>
		<polyline fill-rule="evenodd" clip-rule="evenodd" points="185.303,345.247 185.191,345.02 184.949,344.476 184.82,344.149 
			184.708,343.819 184.63,343.512 184.604,343.253 184.63,343.019 184.708,342.715 184.82,342.375 184.949,342.026 185.191,341.432 
			185.303,341.179 177.726,343.253 185.303,345.247 		"/>
		<polyline fill-rule="evenodd" clip-rule="evenodd" points="185.26,322.354 185.165,322.16 184.956,321.694 184.846,321.413 
			184.75,321.13 184.683,320.867 184.66,320.645 184.683,320.444 184.75,320.185 184.846,319.892 184.956,319.594 185.165,319.085 
			185.26,318.868 178.765,320.645 185.26,322.354 		"/>
		<polyline fill-rule="evenodd" clip-rule="evenodd" points="185.216,299.462 185.137,299.3 184.964,298.911 184.871,298.678 
			184.791,298.442 184.736,298.223 184.717,298.038 184.736,297.87 184.791,297.654 184.871,297.41 184.964,297.162 
			185.137,296.737 185.216,296.557 179.805,298.038 185.216,299.462 		"/>
		<polyline fill-rule="evenodd" clip-rule="evenodd" points="185.173,276.57 185.109,276.44 184.971,276.129 184.897,275.942 
			184.833,275.754 184.789,275.578 184.774,275.43 184.789,275.296 184.833,275.123 184.897,274.928 184.971,274.729 
			185.109,274.39 185.173,274.245 180.844,275.43 185.173,276.57 		"/>
		<polyline fill-rule="evenodd" clip-rule="evenodd" points="185.13,253.677 185.082,253.58 184.978,253.347 184.923,253.207 
			184.875,253.065 184.842,252.934 184.83,252.823 184.842,252.722 184.875,252.592 184.923,252.446 184.978,252.297 
			185.082,252.042 185.13,251.934 181.883,252.823 185.13,253.677 		"/>
		<polyline fill-rule="evenodd" clip-rule="evenodd" points="185.087,230.785 185.055,230.72 184.985,230.565 184.949,230.471 
			184.917,230.377 184.894,230.289 184.887,230.215 184.894,230.148 184.917,230.062 184.949,229.964 184.985,229.865 
			185.055,229.695 185.087,229.623 182.922,230.215 185.087,230.785 		"/>
		<polyline fill-rule="evenodd" clip-rule="evenodd" points="185.043,207.892 185.027,207.86 184.993,207.782 184.974,207.736 
			184.958,207.688 184.947,207.645 184.943,207.608 184.947,207.574 184.958,207.531 184.974,207.482 184.993,207.432 
			185.027,207.347 185.043,207.311 183.961,207.608 185.043,207.892 		"/>
		<polyline fill-rule="evenodd" clip-rule="evenodd" points="184.957,162.108 184.973,162.14 185.007,162.218 185.025,162.264 
			185.042,162.312 185.053,162.355 185.057,162.392 185.053,162.426 185.042,162.469 185.025,162.518 185.007,162.568 
			184.973,162.653 184.957,162.689 186.039,162.392 184.957,162.108 		"/>
		<polyline fill-rule="evenodd" clip-rule="evenodd" points="184.913,139.215 184.945,139.28 185.016,139.435 185.051,139.529 
			185.083,139.623 185.105,139.711 185.113,139.785 185.105,139.852 185.083,139.938 185.051,140.036 185.016,140.135 
			184.945,140.305 184.913,140.377 187.078,139.785 184.913,139.215 		"/>
		<polyline fill-rule="evenodd" clip-rule="evenodd" points="184.87,116.323 184.918,116.42 185.021,116.653 185.077,116.793 
			185.125,116.935 185.158,117.066 185.17,117.177 185.158,117.278 185.125,117.408 185.077,117.554 185.021,117.703 
			184.918,117.958 184.87,118.066 188.117,117.177 184.87,116.323 		"/>
		<polyline fill-rule="evenodd" clip-rule="evenodd" points="184.827,93.43 184.89,93.56 185.029,93.871 185.104,94.058 
			185.167,94.246 185.211,94.422 185.227,94.57 185.211,94.704 185.167,94.877 185.104,95.072 185.029,95.271 184.89,95.61 
			184.827,95.755 189.156,94.57 184.827,93.43 		"/>
		<polyline fill-rule="evenodd" clip-rule="evenodd" points="184.784,70.538 184.863,70.7 185.036,71.089 185.129,71.322 
			185.209,71.558 185.264,71.777 185.283,71.962 185.264,72.13 185.209,72.346 185.129,72.59 185.036,72.838 184.863,73.263 
			184.784,73.443 190.195,71.962 184.784,70.538 		"/>
		<polyline fill-rule="evenodd" clip-rule="evenodd" points="184.74,47.646 184.835,47.84 185.044,48.306 185.154,48.587 
			185.25,48.87 185.316,49.133 185.34,49.355 185.316,49.556 185.25,49.815 185.154,50.108 185.044,50.406 184.835,50.915 
			184.74,51.132 191.234,49.355 184.74,47.646 		"/>
		<polyline fill-rule="evenodd" clip-rule="evenodd" points="184.697,24.753 184.808,24.98 185.051,25.524 185.18,25.851 
			185.292,26.181 185.37,26.488 185.396,26.747 185.37,26.981 185.292,27.285 185.18,27.625 185.051,27.974 184.808,28.568 
			184.697,28.821 192.273,26.747 184.697,24.753 		"/>
		<polyline fill-rule="evenodd" clip-rule="evenodd" points="207.867,344.962 207.771,344.767 207.564,344.301 207.453,344.021 
			207.357,343.738 207.291,343.475 207.268,343.253 207.291,343.052 207.357,342.792 207.453,342.5 207.564,342.202 
			207.771,341.692 207.867,341.475 201.373,343.253 207.867,344.962 		"/>
		<polyline fill-rule="evenodd" clip-rule="evenodd" points="207.824,322.069 207.745,321.907 207.57,321.519 207.479,321.285 
			207.398,321.049 207.344,320.83 207.324,320.645 207.344,320.478 207.398,320.261 207.479,320.018 207.57,319.769 
			207.745,319.345 207.824,319.164 202.412,320.645 207.824,322.069 		"/>
		<polyline fill-rule="evenodd" clip-rule="evenodd" points="207.781,299.177 207.717,299.047 207.578,298.737 207.505,298.55 
			207.441,298.361 207.396,298.186 207.381,298.038 207.396,297.904 207.441,297.731 207.505,297.536 207.578,297.337 
			207.717,296.997 207.781,296.853 203.451,298.038 207.781,299.177 		"/>
		<polyline fill-rule="evenodd" clip-rule="evenodd" points="207.736,276.285 207.689,276.188 207.586,275.954 207.529,275.814 
			207.482,275.673 207.449,275.541 207.438,275.43 207.449,275.33 207.482,275.2 207.529,275.054 207.586,274.905 207.689,274.65 
			207.736,274.541 204.49,275.43 207.736,276.285 		"/>
		<polyline fill-rule="evenodd" clip-rule="evenodd" points="207.693,253.392 207.662,253.328 207.593,253.172 207.557,253.079 
			207.523,252.984 207.502,252.897 207.494,252.823 207.502,252.756 207.523,252.669 207.557,252.572 207.593,252.472 
			207.662,252.302 207.693,252.23 205.529,252.823 207.693,253.392 		"/>
		<polyline fill-rule="evenodd" clip-rule="evenodd" points="207.65,230.5 207.635,230.468 207.6,230.39 207.582,230.343 
			207.566,230.296 207.555,230.252 207.551,230.215 207.555,230.182 207.566,230.138 207.582,230.09 207.6,230.04 207.635,229.955 
			207.65,229.919 206.568,230.215 207.65,230.5 		"/>
		<polyline fill-rule="evenodd" clip-rule="evenodd" points="207.564,184.715 207.58,184.748 207.615,184.825 207.633,184.872 
			207.648,184.919 207.66,184.963 207.664,185 207.66,185.033 207.648,185.077 207.633,185.125 207.615,185.175 207.58,185.26 
			207.564,185.296 208.646,185 207.564,184.715 		"/>
		<polyline fill-rule="evenodd" clip-rule="evenodd" points="207.521,161.823 207.553,161.888 207.622,162.043 207.659,162.136 
			207.691,162.231 207.713,162.319 207.721,162.392 207.713,162.459 207.691,162.546 207.659,162.643 207.622,162.743 
			207.553,162.913 207.521,162.985 209.686,162.392 207.521,161.823 		"/>
		<polyline fill-rule="evenodd" clip-rule="evenodd" points="207.479,138.93 207.525,139.028 207.629,139.261 207.686,139.401 
			207.732,139.542 207.766,139.674 207.777,139.785 207.766,139.885 207.732,140.015 207.686,140.161 207.629,140.311 
			207.525,140.565 207.479,140.674 210.725,139.785 207.479,138.93 		"/>
		<polyline fill-rule="evenodd" clip-rule="evenodd" points="207.434,116.038 207.498,116.168 207.637,116.479 207.71,116.665 
			207.773,116.854 207.818,117.029 207.834,117.177 207.818,117.311 207.773,117.484 207.71,117.679 207.637,117.878 
			207.498,118.218 207.434,118.362 211.764,117.177 207.434,116.038 		"/>
		<polyline fill-rule="evenodd" clip-rule="evenodd" points="207.391,93.146 207.471,93.308 207.645,93.696 207.736,93.93 
			207.816,94.166 207.872,94.385 207.891,94.57 207.872,94.737 207.816,94.954 207.736,95.197 207.645,95.446 207.471,95.87 
			207.391,96.051 212.803,94.57 207.391,93.146 		"/>
		<polyline fill-rule="evenodd" clip-rule="evenodd" points="207.348,70.253 207.443,70.448 207.65,70.914 207.762,71.194 
			207.857,71.477 207.924,71.74 207.947,71.962 207.924,72.163 207.857,72.423 207.762,72.715 207.65,73.013 207.443,73.523 
			207.348,73.74 213.842,71.962 207.348,70.253 		"/>
		<polyline fill-rule="evenodd" clip-rule="evenodd" points="207.305,47.361 207.416,47.588 207.659,48.132 207.788,48.459 
			207.898,48.789 207.977,49.096 208.004,49.355 207.977,49.589 207.898,49.892 207.788,50.233 207.659,50.581 207.416,51.176 
			207.305,51.428 214.881,49.355 207.305,47.361 		"/>
		<polyline fill-rule="evenodd" clip-rule="evenodd" points="207.261,24.468 207.389,24.728 207.666,25.349 207.812,25.723 
			207.941,26.1 208.029,26.451 208.061,26.747 208.029,27.015 207.941,27.361 207.812,27.751 207.666,28.149 207.389,28.828 
			207.261,29.117 215.92,26.747 207.261,24.468 		"/>
		<polyline fill-rule="evenodd" clip-rule="evenodd" points="230.432,344.677 230.352,344.515 230.18,344.126 230.086,343.893 
			230.007,343.657 229.951,343.438 229.932,343.253 229.951,343.085 230.007,342.869 230.086,342.625 230.18,342.377 
			230.352,341.952 230.432,341.772 225.02,343.253 230.432,344.677 		"/>
		<polyline fill-rule="evenodd" clip-rule="evenodd" points="230.389,321.785 230.325,321.655 230.186,321.344 230.111,321.157 
			230.048,320.969 230.004,320.793 229.989,320.645 230.004,320.511 230.048,320.338 230.111,320.143 230.186,319.944 
			230.325,319.605 230.389,319.46 226.059,320.645 230.389,321.785 		"/>
		<polyline fill-rule="evenodd" clip-rule="evenodd" points="230.346,298.892 230.297,298.795 230.193,298.562 230.139,298.422 
			230.09,298.28 230.057,298.149 230.045,298.038 230.057,297.938 230.09,297.807 230.139,297.661 230.193,297.512 230.297,297.257 
			230.346,297.149 227.098,298.038 230.346,298.892 		"/>
		<polyline fill-rule="evenodd" clip-rule="evenodd" points="230.302,276 230.27,275.935 230.2,275.78 230.164,275.686 
			230.132,275.592 230.109,275.504 230.102,275.43 230.109,275.363 230.132,275.277 230.164,275.179 230.2,275.08 230.27,274.91 
			230.302,274.838 228.137,275.43 230.302,276 		"/>
		<polyline fill-rule="evenodd" clip-rule="evenodd" points="230.258,253.107 230.243,253.075 230.208,252.997 230.189,252.951 
			230.173,252.903 230.162,252.86 230.158,252.823 230.162,252.789 230.173,252.746 230.189,252.697 230.208,252.647 
			230.243,252.563 230.258,252.526 229.176,252.823 230.258,253.107 		"/>
		<polyline fill-rule="evenodd" clip-rule="evenodd" points="230.172,207.323 230.188,207.355 230.223,207.433 230.241,207.48 
			230.257,207.527 230.268,207.571 230.271,207.608 230.268,207.641 230.257,207.684 230.241,207.733 230.223,207.783 
			230.188,207.868 230.172,207.904 231.254,207.608 230.172,207.323 		"/>
		<polyline fill-rule="evenodd" clip-rule="evenodd" points="230.128,184.43 230.16,184.495 230.23,184.651 230.268,184.744 
			230.298,184.838 230.32,184.926 230.328,185 230.32,185.067 230.298,185.154 230.268,185.251 230.23,185.35 230.16,185.52 
			230.128,185.592 232.293,185 230.128,184.43 		"/>
		<polyline fill-rule="evenodd" clip-rule="evenodd" points="230.085,161.538 230.133,161.635 230.236,161.868 230.292,162.009 
			230.34,162.15 230.373,162.282 230.385,162.392 230.373,162.493 230.34,162.623 230.292,162.769 230.236,162.918 230.133,163.173 
			230.085,163.281 233.332,162.392 230.085,161.538 		"/>
		<polyline fill-rule="evenodd" clip-rule="evenodd" points="230.042,138.646 230.105,138.775 230.244,139.086 230.318,139.273 
			230.382,139.462 230.426,139.637 230.441,139.785 230.426,139.919 230.382,140.092 230.318,140.287 230.244,140.486 
			230.105,140.825 230.042,140.97 234.371,139.785 230.042,138.646 		"/>
		<polyline fill-rule="evenodd" clip-rule="evenodd" points="229.999,115.753 230.078,115.915 230.252,116.304 230.344,116.537 
			230.424,116.773 230.479,116.993 230.498,117.177 230.479,117.345 230.424,117.561 230.344,117.805 230.252,118.053 
			230.078,118.478 229.999,118.659 235.411,117.177 229.999,115.753 		"/>
		<polyline fill-rule="evenodd" clip-rule="evenodd" points="229.955,92.861 230.051,93.055 230.259,93.522 230.37,93.802 
			230.465,94.085 230.532,94.348 230.555,94.57 230.532,94.771 230.465,95.03 230.37,95.323 230.259,95.621 230.051,96.13 
			229.955,96.347 236.45,94.57 229.955,92.861 		"/>
		<polyline fill-rule="evenodd" clip-rule="evenodd" points="229.912,69.968 230.023,70.195 230.266,70.739 230.395,71.066 
			230.507,71.396 230.585,71.703 230.611,71.962 230.585,72.197 230.507,72.5 230.395,72.841 230.266,73.189 230.023,73.783 
			229.912,74.036 237.489,71.962 229.912,69.968 		"/>
		<polyline fill-rule="evenodd" clip-rule="evenodd" points="229.869,47.076 229.996,47.335 230.273,47.957 230.421,48.331 
			230.549,48.708 230.637,49.059 230.668,49.355 230.637,49.622 230.549,49.969 230.421,50.359 230.273,50.756 229.996,51.436 
			229.869,51.725 238.527,49.355 229.869,47.076 		"/>
		<polyline fill-rule="evenodd" clip-rule="evenodd" points="229.825,24.184 229.968,24.475 230.281,25.175 230.447,25.595 
			230.59,26.02 230.689,26.414 230.725,26.747 230.689,27.048 230.59,27.438 230.447,27.876 230.281,28.324 229.968,29.088 
			229.825,29.413 239.566,26.747 229.825,24.184 		"/>
		<polyline fill-rule="evenodd" clip-rule="evenodd" points="252.996,344.392 252.932,344.263 252.793,343.952 252.721,343.765 
			252.656,343.576 252.611,343.401 252.596,343.253 252.611,343.119 252.656,342.946 252.721,342.751 252.793,342.552 
			252.932,342.212 252.996,342.068 248.666,343.253 252.996,344.392 		"/>
		<polyline fill-rule="evenodd" clip-rule="evenodd" points="252.953,321.5 252.904,321.403 252.801,321.169 252.745,321.029 
			252.698,320.888 252.664,320.756 252.652,320.645 252.664,320.545 252.698,320.415 252.745,320.269 252.801,320.12 
			252.904,319.865 252.953,319.757 249.705,320.645 252.953,321.5 		"/>
		<polyline fill-rule="evenodd" clip-rule="evenodd" points="252.909,298.607 252.877,298.543 252.809,298.387 252.771,298.294 
			252.739,298.199 252.717,298.112 252.709,298.038 252.717,297.971 252.739,297.884 252.771,297.787 252.809,297.688 
			252.877,297.517 252.909,297.445 250.744,298.038 252.909,298.607 		"/>
		<polyline fill-rule="evenodd" clip-rule="evenodd" points="252.866,275.715 252.85,275.683 252.814,275.605 252.797,275.558 
			252.781,275.511 252.77,275.467 252.766,275.43 252.77,275.397 252.781,275.353 252.797,275.305 252.814,275.255 252.85,275.17 
			252.866,275.134 251.784,275.43 252.866,275.715 		"/>
		<polyline fill-rule="evenodd" clip-rule="evenodd" points="252.779,229.93 252.795,229.963 252.83,230.04 252.848,230.087 
			252.864,230.134 252.875,230.178 252.879,230.215 252.875,230.249 252.864,230.292 252.848,230.341 252.83,230.39 
			252.795,230.475 252.779,230.511 253.861,230.215 252.779,229.93 		"/>
		<polyline fill-rule="evenodd" clip-rule="evenodd" points="252.736,207.038 252.768,207.103 252.837,207.258 252.874,207.352 
			252.906,207.446 252.928,207.534 252.936,207.608 252.928,207.674 252.906,207.761 252.874,207.858 252.837,207.958 
			252.768,208.128 252.736,208.2 254.9,207.608 252.736,207.038 		"/>
		<polyline fill-rule="evenodd" clip-rule="evenodd" points="252.693,184.145 252.74,184.243 252.846,184.476 252.9,184.616 
			252.948,184.757 252.98,184.889 252.992,185 252.98,185.1 252.948,185.23 252.9,185.376 252.846,185.526 252.74,185.78 
			252.693,185.889 255.939,185 252.693,184.145 		"/>
		<polyline fill-rule="evenodd" clip-rule="evenodd" points="252.648,161.253 252.713,161.383 252.852,161.694 252.926,161.881 
			252.989,162.069 253.034,162.245 253.049,162.392 253.034,162.526 252.989,162.699 252.926,162.894 252.852,163.093 
			252.713,163.433 252.648,163.577 256.979,162.392 252.648,161.253 		"/>
		<polyline fill-rule="evenodd" clip-rule="evenodd" points="252.605,138.361 252.686,138.523 252.859,138.911 252.951,139.145 
			253.031,139.381 253.087,139.6 253.105,139.785 253.087,139.952 253.031,140.169 252.951,140.412 252.859,140.661 
			252.686,141.085 252.605,141.266 258.018,139.785 252.605,138.361 		"/>
		<polyline fill-rule="evenodd" clip-rule="evenodd" points="252.562,115.468 252.658,115.663 252.866,116.129 252.977,116.409 
			253.073,116.692 253.139,116.956 253.162,117.177 253.139,117.378 253.073,117.638 252.977,117.93 252.866,118.229 
			252.658,118.738 252.562,118.955 259.057,117.177 252.562,115.468 		"/>
		<polyline fill-rule="evenodd" clip-rule="evenodd" points="252.52,92.576 252.631,92.803 252.874,93.347 253.003,93.674 
			253.115,94.004 253.191,94.311 253.219,94.57 253.191,94.804 253.115,95.107 253.003,95.448 252.874,95.796 252.631,96.391 
			252.52,96.643 260.096,94.57 252.52,92.576 		"/>
		<polyline fill-rule="evenodd" clip-rule="evenodd" points="252.477,69.684 252.604,69.943 252.881,70.565 253.029,70.938 
			253.156,71.316 253.245,71.667 253.275,71.962 253.245,72.23 253.156,72.576 253.029,72.966 252.881,73.364 252.604,74.043 
			252.477,74.332 261.135,71.962 252.477,69.684 		"/>
		<polyline fill-rule="evenodd" clip-rule="evenodd" points="252.434,46.791 252.576,47.083 252.889,47.782 253.055,48.203 
			253.198,48.627 253.298,49.022 253.332,49.355 253.298,49.656 253.198,50.046 253.055,50.484 252.889,50.932 252.576,51.696 
			252.434,52.021 262.174,49.355 252.434,46.791 		"/>
		<polyline fill-rule="evenodd" clip-rule="evenodd" points="252.391,23.899 252.548,24.223 252.896,25 253.08,25.467 
			253.24,25.939 253.352,26.377 253.389,26.747 253.352,27.082 253.24,27.515 253.08,28.002 252.896,28.499 252.548,29.348 
			252.391,29.709 263.213,26.747 252.391,23.899 		"/>
		<polyline fill-rule="evenodd" clip-rule="evenodd" points="275.561,344.107 275.512,344.01 275.408,343.777 275.354,343.637 
			275.305,343.495 275.271,343.364 275.26,343.253 275.271,343.152 275.305,343.023 275.354,342.876 275.408,342.727 
			275.512,342.472 275.561,342.364 272.312,343.253 275.561,344.107 		"/>
		<polyline fill-rule="evenodd" clip-rule="evenodd" points="275.518,321.215 275.484,321.15 275.416,320.995 275.379,320.901 
			275.348,320.807 275.325,320.719 275.316,320.645 275.325,320.578 275.348,320.492 275.379,320.394 275.416,320.295 
			275.484,320.125 275.518,320.053 273.352,320.645 275.518,321.215 		"/>
		<polyline fill-rule="evenodd" clip-rule="evenodd" points="275.473,298.323 275.458,298.29 275.423,298.212 275.404,298.166 
			275.389,298.119 275.377,298.075 275.374,298.038 275.377,298.004 275.389,297.961 275.404,297.912 275.423,297.863 
			275.458,297.778 275.473,297.741 274.391,298.038 275.473,298.323 		"/>
		<polyline fill-rule="evenodd" clip-rule="evenodd" points="275.387,252.538 275.402,252.57 275.438,252.648 275.456,252.695 
			275.473,252.742 275.482,252.786 275.486,252.823 275.482,252.856 275.473,252.899 275.456,252.948 275.438,252.998 
			275.402,253.083 275.387,253.119 276.469,252.823 275.387,252.538 		"/>
		<polyline fill-rule="evenodd" clip-rule="evenodd" points="275.344,229.645 275.375,229.71 275.445,229.866 275.482,229.959 
			275.514,230.053 275.536,230.141 275.543,230.215 275.536,230.282 275.514,230.369 275.482,230.466 275.445,230.565 
			275.375,230.735 275.344,230.808 277.508,230.215 275.344,229.645 		"/>
		<polyline fill-rule="evenodd" clip-rule="evenodd" points="275.3,206.753 275.348,206.85 275.452,207.083 275.507,207.224 
			275.555,207.365 275.589,207.497 275.6,207.608 275.589,207.708 275.555,207.838 275.507,207.984 275.452,208.133 
			275.348,208.388 275.3,208.496 278.547,207.608 275.3,206.753 		"/>
		<polyline fill-rule="evenodd" clip-rule="evenodd" points="275.257,183.861 275.32,183.99 275.459,184.301 275.533,184.488 
			275.598,184.677 275.641,184.852 275.657,185 275.641,185.134 275.598,185.307 275.533,185.502 275.459,185.701 275.32,186.04 
			275.257,186.185 279.587,185 275.257,183.861 		"/>
		<polyline fill-rule="evenodd" clip-rule="evenodd" points="275.214,160.968 275.293,161.13 275.467,161.519 275.559,161.753 
			275.639,161.988 275.693,162.208 275.713,162.392 275.693,162.56 275.639,162.776 275.559,163.02 275.467,163.268 
			275.293,163.693 275.214,163.874 280.626,162.392 275.214,160.968 		"/>
		<polyline fill-rule="evenodd" clip-rule="evenodd" points="275.17,138.076 275.266,138.27 275.475,138.737 275.585,139.017 
			275.68,139.3 275.747,139.563 275.77,139.785 275.747,139.986 275.68,140.245 275.585,140.538 275.475,140.836 275.266,141.346 
			275.17,141.562 281.665,139.785 275.17,138.076 		"/>
		<polyline fill-rule="evenodd" clip-rule="evenodd" points="275.127,115.183 275.238,115.41 275.48,115.954 275.609,116.282 
			275.723,116.611 275.8,116.919 275.826,117.177 275.8,117.412 275.723,117.715 275.609,118.056 275.48,118.404 275.238,118.998 
			275.127,119.251 282.704,117.177 275.127,115.183 		"/>
		<polyline fill-rule="evenodd" clip-rule="evenodd" points="275.084,92.291 275.211,92.55 275.489,93.172 275.636,93.546 
			275.764,93.923 275.854,94.274 275.883,94.57 275.854,94.838 275.764,95.184 275.636,95.574 275.489,95.971 275.211,96.651 
			275.084,96.94 283.743,94.57 275.084,92.291 		"/>
		<polyline fill-rule="evenodd" clip-rule="evenodd" points="275.041,69.399 275.184,69.69 275.496,70.39 275.662,70.81 
			275.807,71.235 275.904,71.63 275.939,71.962 275.904,72.263 275.807,72.653 275.662,73.092 275.496,73.539 275.184,74.303 
			275.041,74.628 284.782,71.962 275.041,69.399 		"/>
		<polyline fill-rule="evenodd" clip-rule="evenodd" points="274.997,46.506 275.156,46.83 275.503,47.608 275.688,48.075 
			275.848,48.546 275.958,48.985 275.996,49.355 275.958,49.689 275.848,50.122 275.688,50.609 275.503,51.107 275.156,51.956 
			274.997,52.317 285.82,49.355 274.997,46.506 		"/>
		<polyline fill-rule="evenodd" clip-rule="evenodd" points="274.954,23.614 275.128,23.97 275.51,24.825 275.713,25.339 
			275.889,25.858 276.011,26.341 276.053,26.747 276.011,27.115 275.889,27.592 275.713,28.127 275.51,28.674 275.128,29.608 
			274.954,30.006 286.859,26.747 274.954,23.614 		"/>
		<polyline fill-rule="evenodd" clip-rule="evenodd" points="298.124,343.822 298.093,343.758 298.023,343.602 297.986,343.509 
			297.954,343.414 297.932,343.327 297.924,343.253 297.932,343.186 297.954,343.099 297.986,343.002 298.023,342.902 
			298.093,342.733 298.124,342.66 295.96,343.253 298.124,343.822 		"/>
		<polyline fill-rule="evenodd" clip-rule="evenodd" points="298.081,320.93 298.064,320.898 298.029,320.82 298.012,320.773 
			297.996,320.726 297.984,320.682 297.98,320.645 297.984,320.612 297.996,320.568 298.012,320.52 298.029,320.47 298.064,320.385 
			298.081,320.349 296.999,320.645 298.081,320.93 		"/>
		<polyline fill-rule="evenodd" clip-rule="evenodd" points="297.994,275.145 298.01,275.178 298.045,275.255 298.062,275.302 
			298.079,275.349 298.091,275.393 298.094,275.43 298.091,275.464 298.079,275.507 298.062,275.556 298.045,275.605 298.01,275.69 
			297.994,275.726 299.077,275.43 297.994,275.145 		"/>
		<polyline fill-rule="evenodd" clip-rule="evenodd" points="297.951,252.253 297.982,252.318 298.052,252.473 298.089,252.567 
			298.121,252.661 298.143,252.749 298.15,252.823 298.143,252.89 298.121,252.976 298.089,253.074 298.052,253.173 
			297.982,253.343 297.951,253.415 300.116,252.823 297.951,252.253 		"/>
		<polyline fill-rule="evenodd" clip-rule="evenodd" points="297.908,229.361 297.955,229.458 298.061,229.691 298.115,229.831 
			298.163,229.973 298.195,230.104 298.208,230.215 298.195,230.315 298.163,230.445 298.115,230.591 298.061,230.741 
			297.955,230.995 297.908,231.104 301.154,230.215 297.908,229.361 		"/>
		<polyline fill-rule="evenodd" clip-rule="evenodd" points="297.865,206.468 297.928,206.598 298.066,206.909 298.141,207.096 
			298.205,207.284 298.249,207.46 298.264,207.608 298.249,207.741 298.205,207.915 298.141,208.109 298.066,208.308 
			297.928,208.648 297.865,208.792 302.193,207.608 297.865,206.468 		"/>
		<polyline fill-rule="evenodd" clip-rule="evenodd" points="297.82,183.576 297.9,183.738 298.074,184.126 298.166,184.36 
			298.246,184.596 298.302,184.815 298.32,185 298.302,185.167 298.246,185.384 298.166,185.627 298.074,185.876 297.9,186.301 
			297.82,186.481 303.232,185 297.82,183.576 		"/>
		<polyline fill-rule="evenodd" clip-rule="evenodd" points="297.777,160.683 297.873,160.878 298.081,161.344 298.191,161.625 
			298.288,161.907 298.354,162.171 298.377,162.392 298.354,162.593 298.288,162.853 298.191,163.145 298.081,163.444 
			297.873,163.953 297.777,164.17 304.271,162.392 297.777,160.683 		"/>
		<polyline fill-rule="evenodd" clip-rule="evenodd" points="297.734,137.791 297.846,138.018 298.089,138.562 298.218,138.889 
			298.33,139.219 298.407,139.526 298.434,139.785 298.407,140.019 298.33,140.322 298.218,140.663 298.089,141.011 
			297.846,141.606 297.734,141.859 305.311,139.785 297.734,137.791 		"/>
		<polyline fill-rule="evenodd" clip-rule="evenodd" points="297.691,114.899 297.818,115.158 298.096,115.78 298.244,116.154 
			298.371,116.531 298.46,116.882 298.491,117.177 298.46,117.445 298.371,117.791 298.244,118.181 298.096,118.579 
			297.818,119.258 297.691,119.547 306.35,117.177 297.691,114.899 		"/>
		<polyline fill-rule="evenodd" clip-rule="evenodd" points="297.648,92.006 297.791,92.298 298.104,92.997 298.27,93.418 
			298.413,93.842 298.514,94.237 298.547,94.57 298.514,94.871 298.413,95.261 298.27,95.699 298.104,96.147 297.791,96.911 
			297.648,97.236 307.389,94.57 297.648,92.006 		"/>
		<polyline fill-rule="evenodd" clip-rule="evenodd" points="297.605,69.114 297.764,69.438 298.111,70.215 298.295,70.682 
			298.455,71.154 298.566,71.593 298.604,71.962 298.566,72.297 298.455,72.73 298.295,73.217 298.111,73.714 297.764,74.562 
			297.605,74.925 308.43,71.962 297.605,69.114 		"/>
		<polyline fill-rule="evenodd" clip-rule="evenodd" points="297.561,46.222 297.736,46.578 298.118,47.433 298.32,47.947 
			298.496,48.465 298.618,48.948 298.66,49.355 298.618,49.723 298.496,50.199 298.32,50.735 298.118,51.282 297.736,52.216 
			297.561,52.613 309.468,49.355 297.561,46.222 		"/>
		<polyline fill-rule="evenodd" clip-rule="evenodd" points="297.518,23.329 297.709,23.718 298.125,24.651 298.348,25.211 
			298.538,25.777 298.671,26.304 298.717,26.747 298.671,27.149 298.538,27.668 298.348,28.253 298.125,28.85 297.709,29.868 
			297.518,30.302 310.507,26.747 297.518,23.329 		"/>
		<polyline fill-rule="evenodd" clip-rule="evenodd" points="320.689,343.538 320.673,343.505 320.638,343.428 320.62,343.381 
			320.604,343.334 320.592,343.29 320.589,343.253 320.592,343.219 320.604,343.176 320.62,343.127 320.638,343.078 
			320.673,342.993 320.689,342.957 319.606,343.253 320.689,343.538 		"/>
		<polyline fill-rule="evenodd" clip-rule="evenodd" points="320.602,297.753 320.618,297.785 320.653,297.863 320.671,297.91 
			320.688,297.957 320.698,298.001 320.702,298.038 320.698,298.071 320.688,298.114 320.671,298.163 320.653,298.213 
			320.618,298.298 320.602,298.334 321.684,298.038 320.602,297.753 		"/>
		<polyline fill-rule="evenodd" clip-rule="evenodd" points="320.559,274.86 320.59,274.925 320.66,275.081 320.697,275.174 
			320.729,275.268 320.751,275.356 320.758,275.43 320.751,275.497 320.729,275.584 320.697,275.681 320.66,275.781 320.59,275.95 
			320.559,276.023 322.723,275.43 320.559,274.86 		"/>
		<polyline fill-rule="evenodd" clip-rule="evenodd" points="320.515,251.968 320.562,252.065 320.667,252.298 320.722,252.439 
			320.77,252.58 320.804,252.712 320.815,252.823 320.804,252.923 320.77,253.053 320.722,253.199 320.667,253.348 320.562,253.603 
			320.515,253.711 323.763,252.823 320.515,251.968 		"/>
		<polyline fill-rule="evenodd" clip-rule="evenodd" points="320.472,229.076 320.536,229.205 320.674,229.516 320.748,229.703 
			320.812,229.892 320.856,230.067 320.872,230.215 320.856,230.349 320.812,230.522 320.748,230.717 320.674,230.916 
			320.536,231.256 320.472,231.4 324.802,230.215 320.472,229.076 		"/>
		<polyline fill-rule="evenodd" clip-rule="evenodd" points="320.429,206.183 320.508,206.345 320.682,206.734 320.774,206.968 
			320.854,207.203 320.909,207.423 320.928,207.608 320.909,207.775 320.854,207.991 320.774,208.235 320.682,208.484 
			320.508,208.908 320.429,209.089 325.841,207.608 320.429,206.183 		"/>
		<polyline fill-rule="evenodd" clip-rule="evenodd" points="320.385,183.291 320.481,183.485 320.689,183.952 320.8,184.232 
			320.895,184.515 320.962,184.778 320.985,185 320.962,185.201 320.895,185.461 320.8,185.753 320.689,186.051 320.481,186.561 
			320.385,186.777 326.88,185 320.385,183.291 		"/>
		<polyline fill-rule="evenodd" clip-rule="evenodd" points="320.342,160.399 320.453,160.625 320.696,161.169 320.825,161.497 
			320.938,161.827 321.015,162.134 321.042,162.392 321.015,162.627 320.938,162.93 320.825,163.271 320.696,163.619 
			320.453,164.213 320.342,164.466 327.919,162.392 320.342,160.399 		"/>
		<polyline fill-rule="evenodd" clip-rule="evenodd" points="320.299,137.506 320.426,137.765 320.704,138.387 320.851,138.761 
			320.979,139.138 321.068,139.489 321.098,139.785 321.068,140.053 320.979,140.399 320.851,140.789 320.704,141.186 
			320.426,141.866 320.299,142.155 328.958,139.785 320.299,137.506 		"/>
		<polyline fill-rule="evenodd" clip-rule="evenodd" points="320.256,114.614 320.398,114.905 320.711,115.605 320.877,116.026 
			321.021,116.45 321.12,116.845 321.155,117.177 321.12,117.479 321.021,117.868 320.877,118.307 320.711,118.754 320.398,119.518 
			320.256,119.843 329.997,117.177 320.256,114.614 		"/>
		<polyline fill-rule="evenodd" clip-rule="evenodd" points="320.212,91.721 320.371,92.045 320.718,92.823 320.903,93.29 
			321.062,93.761 321.173,94.2 321.211,94.57 321.173,94.904 321.062,95.337 320.903,95.825 320.718,96.322 320.371,97.171 
			320.212,97.532 331.036,94.57 320.212,91.721 		"/>
		<polyline fill-rule="evenodd" clip-rule="evenodd" points="320.169,68.829 320.344,69.185 320.725,70.04 320.928,70.555 
			321.104,71.073 321.226,71.556 321.268,71.962 321.226,72.33 321.104,72.807 320.928,73.342 320.725,73.889 320.344,74.823 
			320.169,75.221 332.075,71.962 320.169,68.829 		"/>
		<polyline fill-rule="evenodd" clip-rule="evenodd" points="320.126,45.938 320.316,46.325 320.733,47.258 320.954,47.819 
			321.146,48.385 321.279,48.911 321.325,49.355 321.279,49.756 321.146,50.276 320.954,50.86 320.733,51.457 320.316,52.476 
			320.126,52.909 333.114,49.355 320.126,45.938 		"/>
		<polyline fill-rule="evenodd" clip-rule="evenodd" points="320.082,23.044 320.289,23.465 320.74,24.476 320.98,25.083 
			321.188,25.696 321.332,26.267 321.381,26.747 321.332,27.182 321.188,27.745 320.98,28.378 320.74,29.025 320.289,30.129 
			320.082,30.598 334.153,26.747 320.082,23.044 		"/>
		<polyline fill-rule="evenodd" clip-rule="evenodd" points="343.209,320.36 343.225,320.393 343.26,320.471 343.279,320.517 
			343.294,320.564 343.306,320.608 343.309,320.645 343.306,320.679 343.294,320.722 343.279,320.771 343.26,320.82 
			343.225,320.905 343.209,320.941 344.292,320.645 343.209,320.36 		"/>
		<polyline fill-rule="evenodd" clip-rule="evenodd" points="343.166,297.468 343.198,297.533 343.267,297.688 343.304,297.782 
			343.336,297.876 343.358,297.964 343.366,298.038 343.358,298.105 343.336,298.191 343.304,298.289 343.267,298.388 
			343.198,298.558 343.166,298.63 345.331,298.038 343.166,297.468 		"/>
		<polyline fill-rule="evenodd" clip-rule="evenodd" points="343.123,274.576 343.171,274.673 343.275,274.906 343.33,275.046 
			343.378,275.188 343.411,275.319 343.423,275.43 343.411,275.531 343.378,275.66 343.33,275.807 343.275,275.956 343.171,276.21 
			343.123,276.319 346.37,275.43 343.123,274.576 		"/>
		<polyline fill-rule="evenodd" clip-rule="evenodd" points="343.08,251.683 343.143,251.813 343.282,252.124 343.356,252.311 
			343.42,252.499 343.464,252.675 343.479,252.823 343.464,252.956 343.42,253.13 343.356,253.325 343.282,253.523 343.143,253.863 
			343.08,254.008 347.409,252.823 343.08,251.683 		"/>
		<polyline fill-rule="evenodd" clip-rule="evenodd" points="343.036,228.791 343.116,228.953 343.289,229.341 343.381,229.575 
			343.461,229.811 343.517,230.03 343.536,230.215 343.517,230.382 343.461,230.599 343.381,230.842 343.289,231.091 
			343.116,231.516 343.036,231.696 348.448,230.215 343.036,228.791 		"/>
		<polyline fill-rule="evenodd" clip-rule="evenodd" points="342.993,205.899 343.088,206.093 343.297,206.559 343.407,206.84 
			343.503,207.122 343.57,207.386 343.592,207.608 343.57,207.808 343.503,208.068 343.407,208.36 343.297,208.659 343.088,209.168 
			342.993,209.385 349.487,207.608 342.993,205.899 		"/>
		<polyline fill-rule="evenodd" clip-rule="evenodd" points="342.95,183.006 343.061,183.233 343.304,183.777 343.433,184.104 
			343.545,184.434 343.622,184.741 343.649,185 343.622,185.234 343.545,185.537 343.433,185.878 343.304,186.226 343.061,186.821 
			342.95,187.074 350.526,185 342.95,183.006 		"/>
		<polyline fill-rule="evenodd" clip-rule="evenodd" points="342.906,160.114 343.033,160.373 343.311,160.995 343.459,161.369 
			343.586,161.746 343.675,162.097 343.706,162.392 343.675,162.66 343.586,163.007 343.459,163.396 343.311,163.794 
			343.033,164.473 342.906,164.762 351.565,162.392 342.906,160.114 		"/>
		<polyline fill-rule="evenodd" clip-rule="evenodd" points="342.863,137.221 343.006,137.513 343.318,138.212 343.484,138.633 
			343.628,139.057 343.728,139.452 343.762,139.785 343.728,140.086 343.628,140.476 343.484,140.914 343.318,141.362 
			343.006,142.126 342.863,142.451 352.605,139.785 342.863,137.221 		"/>
		<polyline fill-rule="evenodd" clip-rule="evenodd" points="342.82,114.329 342.979,114.653 343.326,115.43 343.51,115.898 
			343.67,116.369 343.781,116.808 343.819,117.177 343.781,117.512 343.67,117.945 343.51,118.432 343.326,118.929 342.979,119.778 
			342.82,120.14 353.644,117.177 342.82,114.329 		"/>
		<polyline fill-rule="evenodd" clip-rule="evenodd" points="342.777,91.438 342.951,91.793 343.333,92.648 343.536,93.162 
			343.712,93.681 343.834,94.163 343.875,94.57 343.834,94.938 343.712,95.414 343.536,95.95 343.333,96.497 342.951,97.431 
			342.777,97.828 354.683,94.57 342.777,91.438 		"/>
		<polyline fill-rule="evenodd" clip-rule="evenodd" points="342.733,68.544 342.924,68.933 343.34,69.866 343.562,70.427 
			343.753,70.992 343.886,71.519 343.932,71.962 343.886,72.364 343.753,72.883 343.562,73.468 343.34,74.065 342.924,75.084 
			342.733,75.517 355.722,71.962 342.733,68.544 		"/>
		<polyline fill-rule="evenodd" clip-rule="evenodd" points="342.69,45.652 342.896,46.073 343.348,47.083 343.587,47.691 
			343.795,48.304 343.939,48.874 343.989,49.355 343.939,49.79 343.795,50.353 343.587,50.986 343.348,51.632 342.896,52.736 
			342.69,53.206 356.761,49.355 342.69,45.652 		"/>
		<polyline fill-rule="evenodd" clip-rule="evenodd" points="342.647,22.759 342.869,23.213 343.355,24.301 343.613,24.955 
			343.837,25.615 343.992,26.23 344.045,26.747 343.992,27.216 343.837,27.822 343.613,28.504 343.355,29.2 342.869,30.389 
			342.647,30.894 357.8,26.747 342.647,22.759 		"/>
	</g>
</g>
</svg>
