<?xml version="1.0" encoding="utf-8"?>
<!-- Generator: Adobe Illustrator 14.0.0, SVG Export Plug-In . SVG Version: 6.00 Build 43363)  -->
<!DOCTYPE svg PUBLIC "-//W3C//DTD SVG 1.1//EN" "http://www.w3.org/Graphics/SVG/1.1/DTD/svg11.dtd">
<svg version="1.1" id="Layer_1" xmlns="http://www.w3.org/2000/svg" xmlns:xlink="http://www.w3.org/1999/xlink" x="0px" y="0px"
	 width="730.464px" height="268.486px" viewBox="0 0 730.464 268.486" enable-background="new 0 0 730.464 268.486"
	 xml:space="preserve">
<g>
	<rect x="17.947" y="13.502" fill="#FFFFFF" stroke="#231F20" stroke-width="1.2464" width="328.073" height="243.548"/>
	<circle opacity="0.2" fill="#1B1F8A" enable-background="new    " cx="70.36" cy="135.277" r="4.635"/>
	<circle opacity="0.2" fill="#1B1F8A" enable-background="new    " cx="124.985" cy="188.583" r="4.635"/>
	<circle opacity="0.2" fill="#1B1F8A" enable-background="new    " cx="184.461" cy="119.217" r="4.635"/>
	<circle opacity="0.2" fill="#1B1F8A" enable-background="new    " cx="143.602" cy="63.322" r="4.635"/>
	<circle opacity="0.2" fill="#1B1F8A" enable-background="new    " cx="238.378" cy="79.556" r="4.635"/>
	<circle opacity="0.2" fill="#1B1F8A" enable-background="new    " cx="267.59" cy="156.323" r="4.635"/>
	<circle opacity="0.2" fill="#1B1F8A" enable-background="new    " cx="205.145" cy="211.93" r="4.635"/>
	<circle opacity="0.2" fill="#1B1F8A" enable-background="new    " cx="265.097" cy="221.198" r="4.635"/>
	<circle opacity="0.2" fill="#1B1F8A" enable-background="new    " cx="309.466" cy="116.296" r="4.635"/>
	<circle opacity="0.2" fill="#1B1F8A" enable-background="new    " cx="225.542" cy="28.219" r="4.635"/>
	<circle opacity="0.2" fill="#1B1F8A" enable-background="new    " cx="290.096" cy="44.699" r="4.635"/>
	<circle opacity="0.2" fill="#1B1F8A" enable-background="new    " cx="318.736" cy="174.737" r="4.635"/>
	<circle opacity="0.2" fill="#1B1F8A" enable-background="new    " cx="143.602" cy="239.135" r="4.635"/>
	<circle opacity="0.2" fill="#1B1F8A" enable-background="new    " cx="45.416" cy="202.659" r="4.635"/>
	<circle opacity="0.2" fill="#1B1F8A" enable-background="new    " cx="61.09" cy="67.958" r="4.635"/>
	<circle opacity="0.2" fill="#1B1F8A" enable-background="new    " cx="29.765" cy="30.917" r="4.635"/>
	<circle opacity="0.2" fill="#1B1F8A" enable-background="new    " cx="328.006" cy="227.848" r="4.635"/>
	<circle opacity="0.2" fill="#1B1F8A" enable-background="new    " cx="107.129" cy="32.855" r="4.635"/>
	<circle opacity="0.2" fill="#1B1F8A" enable-background="new    " cx="85.044" cy="232.482" r="4.635"/>
	<circle opacity="0.2" fill="#1B1F8A" enable-background="new    " cx="124.985" cy="116.298" r="4.635"/>
	<circle opacity="0.2" fill="#1B1F8A" enable-background="new    " cx="216.272" cy="165.47" r="4.635"/>
	<g>
		<g>
			<line fill="none" stroke="#000000" stroke-width="1.2464" x1="70.36" y1="135.277" x2="83.032" y2="114.582"/>
			<polygon points="86.249,109.328 84.741,118.583 82.792,114.974 78.692,114.879 			"/>
		</g>
	</g>
	<g>
		<g>
			<line fill="none" stroke="#000000" stroke-width="1.2464" x1="124.985" y1="116.296" x2="148.237" y2="103.844"/>
			<polygon points="153.668,100.936 147.689,108.161 147.832,104.062 144.341,101.908 			"/>
		</g>
	</g>
	<g>
		<g>
			<line fill="none" stroke="#000000" stroke-width="1.2464" x1="184.461" y1="119.216" x2="209.78" y2="123.851"/>
			<polygon points="215.839,124.96 206.662,126.886 209.327,123.768 207.939,119.909 			"/>
		</g>
	</g>
	<g>
		<g>
			<line fill="none" stroke="#000000" stroke-width="1.2464" x1="216.271" y1="165.468" x2="233.743" y2="181.12"/>
			<polygon points="238.332,185.23 229.499,182.08 233.4,180.812 234.232,176.797 			"/>
		</g>
	</g>
	<g>
		<g>
			<line fill="none" stroke="#000000" stroke-width="1.2464" x1="267.59" y1="156.323" x2="290.097" y2="163.255"/>
			<polygon points="295.984,165.068 286.644,165.902 289.657,163.119 288.731,159.124 			"/>
		</g>
	</g>
	<g>
		<g>
			<line fill="none" stroke="#000000" stroke-width="1.2464" x1="238.378" y1="79.556" x2="262.955" y2="74.921"/>
			<polygon points="269.008,73.779 261.135,78.873 262.502,75.006 259.821,71.903 			"/>
		</g>
	</g>
	<g>
		<g>
			<line fill="none" stroke="#000000" stroke-width="1.2464" x1="309.465" y1="116.296" x2="332.641" y2="110.07"/>
			<polygon points="338.59,108.472 331.126,114.149 332.196,110.19 329.286,107.3 			"/>
		</g>
	</g>
	<g>
		<g>
			<line fill="none" stroke="#000000" stroke-width="1.2464" x1="290.097" y1="44.698" x2="302.396" y2="28.218"/>
			<polygon points="306.081,23.281 303.731,32.359 302.121,28.587 298.047,28.117 			"/>
		</g>
	</g>
	<g>
		<g>
			<line fill="none" stroke="#000000" stroke-width="1.2464" x1="45.416" y1="202.659" x2="43.148" y2="179.372"/>
			<polygon points="42.551,173.241 46.922,181.537 43.192,179.83 39.863,182.225 			"/>
		</g>
	</g>
	<g>
		<g>
			<line fill="none" stroke="#000000" stroke-width="1.2464" x1="124.985" y1="188.583" x2="138.967" y2="173.294"/>
			<polygon points="143.125,168.748 139.883,177.548 138.657,173.634 134.649,172.761 			"/>
		</g>
	</g>
	<g>
		<g>
			<line fill="none" stroke="#000000" stroke-width="1.2464" x1="205.145" y1="211.929" x2="225.542" y2="221.197"/>
			<polygon points="231.15,223.746 221.779,223.383 225.122,221.007 224.714,216.926 			"/>
		</g>
	</g>
	<g>
		<g>
			<line fill="none" stroke="#000000" stroke-width="1.2464" x1="85.044" y1="232.48" x2="89.679" y2="211.929"/>
			<polygon points="91.035,205.92 92.584,215.168 89.578,212.378 85.666,213.607 			"/>
		</g>
	</g>
	<g>
		<g>
			<line fill="none" stroke="#000000" stroke-width="1.2464" x1="143.603" y1="239.134" x2="162.801" y2="234.498"/>
			<polygon points="168.79,233.052 161.184,238.537 162.354,234.606 159.519,231.643 			"/>
		</g>
	</g>
	<g>
		<g>
			<line fill="none" stroke="#000000" stroke-width="1.2464" x1="143.603" y1="63.322" x2="166.54" y2="67.957"/>
			<polygon points="172.578,69.176 163.367,70.934 166.089,67.865 164.771,63.981 			"/>
		</g>
	</g>
	<g>
		<g>
			<line fill="none" stroke="#000000" stroke-width="1.2464" x1="225.542" y1="28.217" x2="243.013" y2="23.583"/>
			<polygon points="248.967,22.004 241.486,27.657 242.568,23.701 239.667,20.802 			"/>
		</g>
	</g>
	<g>
		<g>
			<line fill="none" stroke="#000000" stroke-width="1.2464" x1="265.098" y1="221.197" x2="275.807" y2="232.48"/>
			<polygon points="280.047,236.948 271.499,233.094 275.49,232.146 276.644,228.211 			"/>
		</g>
	</g>
	<g>
		<g>
			<line fill="none" stroke="#000000" stroke-width="1.2464" x1="318.735" y1="174.737" x2="323.371" y2="191.016"/>
			<polygon points="325.058,196.94 319.27,189.562 323.245,190.572 326.091,187.62 			"/>
		</g>
	</g>
	<g>
		<g>
			<line fill="none" stroke="#000000" stroke-width="1.2464" x1="328.005" y1="227.846" x2="329.817" y2="243.769"/>
			<polygon points="330.514,249.89 326.009,241.665 329.765,243.311 333.056,240.863 			"/>
		</g>
	</g>
	<g>
		<g>
			<line fill="none" stroke="#000000" stroke-width="1.2464" x1="61.09" y1="67.957" x2="78.461" y2="56.897"/>
			<polygon points="83.658,53.589 78.24,61.242 78.073,57.145 74.431,55.259 			"/>
		</g>
	</g>
	<g>
		<g>
			<line fill="none" stroke="#000000" stroke-width="1.2464" x1="107.128" y1="32.853" x2="124.985" y2="30.916"/>
			<polygon points="131.109,30.252 122.862,34.714 124.527,30.966 122.097,27.663 			"/>
		</g>
	</g>
	<g>
		<g>
			<line fill="none" stroke="#000000" stroke-width="1.2464" x1="29.766" y1="30.916" x2="45.416" y2="28.217"/>
			<polygon points="51.486,27.17 43.535,32.141 44.962,28.295 42.33,25.151 			"/>
		</g>
	</g>
</g>
<g>
	<rect x="381.818" y="13.502" fill="#FFFFFF" stroke="#231F20" stroke-width="1.2464" width="328.073" height="243.548"/>
	<g>
		<defs>
			<rect id="SVGID_1_" x="381.818" y="13.502" width="328.073" height="243.548"/>
		</defs>
		<clipPath id="SVGID_2_">
			<use xlink:href="#SVGID_1_"  overflow="visible"/>
		</clipPath>
		<g clip-path="url(#SVGID_2_)">
			<line fill="none" stroke="#000000" stroke-width="1.2464" x1="629.655" y1="143.248" x2="693.954" y2="154.592"/>
			<line fill="none" stroke="#000000" stroke-width="1.2464" x1="693.954" y1="154.592" x2="654.128" y2="84.242"/>
			<line fill="none" stroke="#000000" stroke-width="1.2464" x1="654.128" y1="84.242" x2="629.655" y2="143.248"/>
			<line fill="none" stroke="#000000" stroke-width="1.2464" x1="571.979" y1="176.228" x2="505.006" y2="199.209"/>
			<line fill="none" stroke="#000000" stroke-width="1.2464" x1="505.006" y1="199.209" x2="552.999" y2="239.297"/>
			<line fill="none" stroke="#000000" stroke-width="1.2464" x1="552.999" y1="239.297" x2="571.979" y2="176.228"/>
			<line fill="none" stroke="#000000" stroke-width="1.2464" x1="753.646" y1="285.885" x2="679.586" y2="268.488"/>
			<line fill="none" stroke="#000000" stroke-width="1.2464" x1="460.055" y1="159.843" x2="433.327" y2="221.722"/>
			<line fill="none" stroke="#000000" stroke-width="1.2464" x1="433.327" y1="221.722" x2="505.006" y2="199.209"/>
			<line fill="none" stroke="#000000" stroke-width="1.2464" x1="505.006" y1="199.209" x2="460.055" y2="159.843"/>
			<line fill="none" stroke="#000000" stroke-width="1.2464" x1="472.288" y1="61.299" x2="430.726" y2="109.565"/>
			<line fill="none" stroke="#000000" stroke-width="1.2464" x1="430.726" y1="109.565" x2="514.754" y2="122.55"/>
			<line fill="none" stroke="#000000" stroke-width="1.2464" x1="514.754" y1="122.55" x2="472.288" y2="61.299"/>
			<line fill="none" stroke="#000000" stroke-width="1.2464" x1="490.011" y1="-4.017" x2="472.288" y2="61.299"/>
			<line fill="none" stroke="#000000" stroke-width="1.2464" x1="472.288" y1="61.299" x2="534.899" y2="49.943"/>
			<line fill="none" stroke="#000000" stroke-width="1.2464" x1="534.899" y1="49.943" x2="490.011" y2="-4.017"/>
			<line fill="none" stroke="#000000" stroke-width="1.2464" x1="770.838" y1="152.249" x2="725.315" y2="103.434"/>
			<line fill="none" stroke="#000000" stroke-width="1.2464" x1="725.315" y1="103.434" x2="693.954" y2="154.592"/>
			<line fill="none" stroke="#000000" stroke-width="1.2464" x1="693.954" y1="154.592" x2="770.838" y2="152.249"/>
			<line fill="none" stroke="#000000" stroke-width="1.2464" x1="460.055" y1="159.843" x2="392.205" y2="166.16"/>
			<line fill="none" stroke="#000000" stroke-width="1.2464" x1="392.205" y1="166.16" x2="433.327" y2="221.722"/>
			<line fill="none" stroke="#000000" stroke-width="1.2464" x1="416.111" y1="283.738" x2="486.789" y2="271.481"/>
			<line fill="none" stroke="#000000" stroke-width="1.2464" x1="486.789" y1="271.481" x2="433.327" y2="221.722"/>
			<line fill="none" stroke="#000000" stroke-width="1.2464" x1="433.327" y1="221.722" x2="416.111" y2="283.738"/>
			<line fill="none" stroke="#000000" stroke-width="1.2464" x1="552.999" y1="239.297" x2="613.218" y2="262.243"/>
			<line fill="none" stroke="#000000" stroke-width="1.2464" x1="613.218" y1="262.243" x2="571.979" y2="176.228"/>
			<line fill="none" stroke="#000000" stroke-width="1.2464" x1="490.011" y1="-4.017" x2="559.423" y2="-20.418"/>
			<line fill="none" stroke="#000000" stroke-width="1.2464" x1="642.506" y1="206.055" x2="693.954" y2="154.592"/>
			<line fill="none" stroke="#000000" stroke-width="1.2464" x1="629.655" y1="143.248" x2="642.506" y2="206.055"/>
			<line fill="none" stroke="#000000" stroke-width="1.2464" x1="753.646" y1="285.885" x2="717.328" y2="214.559"/>
			<line fill="none" stroke="#000000" stroke-width="1.2464" x1="717.328" y1="214.559" x2="679.586" y2="268.488"/>
			<line fill="none" stroke="#000000" stroke-width="1.2464" x1="359.676" y1="99.199" x2="328.566" y2="158.831"/>
			<line fill="none" stroke="#000000" stroke-width="1.2464" x1="328.566" y1="158.831" x2="392.205" y2="166.16"/>
			<line fill="none" stroke="#000000" stroke-width="1.2464" x1="392.205" y1="166.16" x2="359.676" y2="99.199"/>
			<line fill="none" stroke="#000000" stroke-width="1.2464" x1="642.506" y1="206.055" x2="571.979" y2="176.228"/>
			<line fill="none" stroke="#000000" stroke-width="1.2464" x1="613.218" y1="262.243" x2="642.506" y2="206.055"/>
			<line fill="none" stroke="#000000" stroke-width="1.2464" x1="514.754" y1="122.55" x2="505.006" y2="199.209"/>
			<line fill="none" stroke="#000000" stroke-width="1.2464" x1="571.979" y1="176.228" x2="514.754" y2="122.55"/>
			<line fill="none" stroke="#000000" stroke-width="1.2464" x1="629.655" y1="143.248" x2="571.979" y2="176.228"/>
			<line fill="none" stroke="#000000" stroke-width="1.2464" x1="392.205" y1="166.16" x2="430.726" y2="109.565"/>
			<line fill="none" stroke="#000000" stroke-width="1.2464" x1="430.726" y1="109.565" x2="359.676" y2="99.199"/>
			<line fill="none" stroke="#000000" stroke-width="1.2464" x1="350.517" y1="17.677" x2="424.637" y2="-4.114"/>
			<line fill="none" stroke="#000000" stroke-width="1.2464" x1="514.754" y1="122.55" x2="460.055" y2="159.843"/>
			<line fill="none" stroke="#000000" stroke-width="1.2464" x1="559.503" y1="302.755" x2="486.789" y2="271.481"/>
			<line fill="none" stroke="#000000" stroke-width="1.2464" x1="430.726" y1="109.565" x2="460.055" y2="159.843"/>
			<line fill="none" stroke="#000000" stroke-width="1.2464" x1="534.899" y1="49.943" x2="559.423" y2="-20.418"/>
			<line fill="none" stroke="#000000" stroke-width="1.2464" x1="642.506" y1="206.055" x2="679.586" y2="268.488"/>
			<line fill="none" stroke="#000000" stroke-width="1.2464" x1="717.328" y1="214.559" x2="642.506" y2="206.055"/>
			<line fill="none" stroke="#000000" stroke-width="1.2464" x1="613.218" y1="262.243" x2="559.503" y2="302.755"/>
			<line fill="none" stroke="#000000" stroke-width="1.2464" x1="597.499" y1="37.244" x2="534.899" y2="49.943"/>
			<line fill="none" stroke="#000000" stroke-width="1.2464" x1="534.899" y1="49.943" x2="579.778" y2="103.103"/>
			<line fill="none" stroke="#000000" stroke-width="1.2464" x1="579.778" y1="103.103" x2="597.499" y2="37.244"/>
			<line fill="none" stroke="#000000" stroke-width="1.2464" x1="571.979" y1="176.228" x2="579.778" y2="103.103"/>
			<line fill="none" stroke="#000000" stroke-width="1.2464" x1="579.778" y1="103.103" x2="514.754" y2="122.55"/>
			<line fill="none" stroke="#000000" stroke-width="1.2464" x1="650.188" y1="12.825" x2="654.128" y2="84.242"/>
			<line fill="none" stroke="#000000" stroke-width="1.2464" x1="654.128" y1="84.242" x2="709.799" y2="44.906"/>
			<line fill="none" stroke="#000000" stroke-width="1.2464" x1="709.799" y1="44.906" x2="650.188" y2="12.825"/>
			<line fill="none" stroke="#000000" stroke-width="1.2464" x1="534.899" y1="49.943" x2="514.754" y2="122.55"/>
			<line fill="none" stroke="#000000" stroke-width="1.2464" x1="654.128" y1="84.242" x2="725.315" y2="103.434"/>
			<line fill="none" stroke="#000000" stroke-width="1.2464" x1="725.315" y1="103.434" x2="709.799" y2="44.906"/>
			<line fill="none" stroke="#000000" stroke-width="1.2464" x1="763.583" y1="13.127" x2="783.345" y2="74.635"/>
			<line fill="none" stroke="#000000" stroke-width="1.2464" x1="709.799" y1="44.906" x2="699.501" y2="-20.828"/>
			<line fill="none" stroke="#000000" stroke-width="1.2464" x1="699.501" y1="-20.828" x2="650.188" y2="12.825"/>
			<line fill="none" stroke="#000000" stroke-width="1.2464" x1="725.315" y1="103.434" x2="783.345" y2="74.635"/>
			<line fill="none" stroke="#000000" stroke-width="1.2464" x1="783.345" y1="74.635" x2="709.799" y2="44.906"/>
			<line fill="none" stroke="#000000" stroke-width="1.2464" x1="613.218" y1="262.243" x2="679.586" y2="268.488"/>
			<line fill="none" stroke="#000000" stroke-width="1.2464" x1="328.566" y1="158.831" x2="356.49" y2="227.229"/>
			<line fill="none" stroke="#000000" stroke-width="1.2464" x1="356.49" y1="227.229" x2="392.205" y2="166.16"/>
			<line fill="none" stroke="#000000" stroke-width="1.2464" x1="359.676" y1="99.199" x2="350.517" y2="17.677"/>
			<line fill="none" stroke="#000000" stroke-width="1.2464" x1="359.676" y1="99.199" x2="404.824" y2="52.705"/>
			<line fill="none" stroke="#000000" stroke-width="1.2464" x1="404.824" y1="52.705" x2="350.517" y2="17.677"/>
			<line fill="none" stroke="#000000" stroke-width="1.2464" x1="472.288" y1="61.299" x2="404.824" y2="52.705"/>
			<line fill="none" stroke="#000000" stroke-width="1.2464" x1="404.824" y1="52.705" x2="430.726" y2="109.565"/>
			<line fill="none" stroke="#000000" stroke-width="1.2464" x1="351.097" y1="291.719" x2="356.49" y2="227.229"/>
			<line fill="none" stroke="#000000" stroke-width="1.2464" x1="486.789" y1="271.481" x2="505.006" y2="199.209"/>
			<line fill="none" stroke="#000000" stroke-width="1.2464" x1="472.288" y1="61.299" x2="424.637" y2="-4.114"/>
			<line fill="none" stroke="#000000" stroke-width="1.2464" x1="424.637" y1="-4.114" x2="404.824" y2="52.705"/>
			<line fill="none" stroke="#000000" stroke-width="1.2464" x1="629.655" y1="143.248" x2="579.778" y2="103.103"/>
			<line fill="none" stroke="#000000" stroke-width="1.2464" x1="654.128" y1="84.242" x2="579.778" y2="103.103"/>
			<line fill="none" stroke="#000000" stroke-width="1.2464" x1="597.499" y1="37.244" x2="559.423" y2="-20.418"/>
			<line fill="none" stroke="#000000" stroke-width="1.2464" x1="763.583" y1="13.127" x2="709.799" y2="44.906"/>
			<line fill="none" stroke="#000000" stroke-width="1.2464" x1="486.789" y1="271.481" x2="552.999" y2="239.297"/>
			<line fill="none" stroke="#000000" stroke-width="1.2464" x1="693.954" y1="154.592" x2="717.328" y2="214.559"/>
			<line fill="none" stroke="#000000" stroke-width="1.2464" x1="717.328" y1="214.559" x2="770.838" y2="152.249"/>
			<line fill="none" stroke="#000000" stroke-width="1.2464" x1="356.49" y1="227.229" x2="433.327" y2="221.722"/>
			<line fill="none" stroke="#000000" stroke-width="1.2464" x1="654.128" y1="84.242" x2="597.499" y2="37.244"/>
			<line fill="none" stroke="#000000" stroke-width="1.2464" x1="356.49" y1="227.229" x2="416.111" y2="283.738"/>
			<line fill="none" stroke="#000000" stroke-width="1.2464" x1="552.999" y1="239.297" x2="559.503" y2="302.755"/>
			<line fill="none" stroke="#000000" stroke-width="1.2464" x1="699.501" y1="-20.828" x2="618.466" y2="-45.84"/>
			<line fill="none" stroke="#000000" stroke-width="1.2464" x1="618.466" y1="-45.84" x2="650.188" y2="12.825"/>
			<line fill="none" stroke="#000000" stroke-width="1.2464" x1="650.188" y1="12.825" x2="597.499" y2="37.244"/>
			<line fill="none" stroke="#000000" stroke-width="1.2464" x1="618.466" y1="-45.84" x2="597.499" y2="37.244"/>
			<line fill="none" stroke="#000000" stroke-width="1.2464" x1="559.423" y1="-20.418" x2="618.466" y2="-45.84"/>
			<line fill="none" stroke="#000000" stroke-width="1.2464" x1="424.637" y1="-4.114" x2="490.011" y2="-4.017"/>
			<line fill="none" stroke="#000000" stroke-width="1.2464" x1="351.097" y1="291.719" x2="416.111" y2="283.738"/>
			<line fill="none" stroke="#000000" stroke-width="1.2464" x1="699.501" y1="-20.828" x2="763.583" y2="13.127"/>
		</g>
	</g>
	<g>
		<defs>
			<rect id="SVGID_3_" x="515.833" y="78.87" width="6.48" height="9.971"/>
		</defs>
		<clipPath id="SVGID_4_">
			<use xlink:href="#SVGID_3_"  overflow="visible"/>
		</clipPath>
		<path clip-path="url(#SVGID_4_)" d="M521.916,85.523c0-1.691-1.175-3.112-2.721-3.112c-0.687,0-1.303,0.22-1.817,0.704v-2.79
			c0.286,0.088,0.757,0.19,1.214,0.19c1.756,0,2.758-1.305,2.758-1.492c0-0.085-0.044-0.157-0.144-0.157
			c-0.015,0-0.043,0-0.114,0.042c-0.286,0.128-0.987,0.411-1.945,0.411c-0.572,0-1.23-0.099-1.902-0.396
			c-0.114-0.043-0.143-0.043-0.172-0.043c-0.144,0-0.144,0.115-0.144,0.344v4.235c0,0.257,0,0.372,0.2,0.372
			c0.1,0,0.127-0.043,0.185-0.127c0.157-0.227,0.685-0.993,1.838-0.993c0.741,0,1.097,0.655,1.211,0.912
			c0.228,0.527,0.257,1.083,0.257,1.794c0,0.499,0,1.353-0.343,1.952c-0.342,0.555-0.869,0.925-1.525,0.925
			c-1.039,0-1.853-0.751-2.095-1.588c0.044,0.021,0.088,0.042,0.247,0.042c0.479,0,0.725-0.356,0.725-0.697
			c0-0.342-0.24-0.698-0.705-0.698c-0.197,0-0.691,0.1-0.691,0.75c0,1.218,0.983,2.591,2.578,2.591
			C520.462,88.693,521.916,87.329,521.916,85.523"/>
	</g>
	<g>
		<defs>
			<rect id="SVGID_5_" x="535.276" y="97.701" width="17.45" height="10.47"/>
		</defs>
		<clipPath id="SVGID_6_">
			<use xlink:href="#SVGID_5_"  overflow="visible"/>
		</clipPath>
		<path clip-path="url(#SVGID_6_)" d="M538.367,98.573c0-0.343,0-0.373-0.327-0.373c-0.882,0.897-2.133,0.897-2.587,0.897v0.449
			c0.285,0,1.126,0,1.867-0.364v7.405c0,0.514-0.043,0.687-1.325,0.687h-0.457v0.449c0.501-0.044,1.746-0.044,2.317-0.044
			c0.572,0,1.817,0,2.317,0.044v-0.449h-0.463c-1.301,0-1.343-0.157-1.343-0.686"/>
		<path clip-path="url(#SVGID_6_)" d="M544.102,106.974c0-0.408-0.339-0.748-0.748-0.748c-0.41,0-0.748,0.339-0.748,0.748
			c0,0.41,0.338,0.748,0.748,0.748C543.762,107.722,544.102,107.384,544.102,106.974"/>
		<path clip-path="url(#SVGID_6_)" d="M552.106,99c0.129-0.172,0.129-0.2,0.129-0.501h-3.476c-1.745,0-1.773-0.183-1.831-0.448
			h-0.357L546.099,101h0.357c0.043-0.231,0.172-1.143,0.358-1.317c0.1-0.086,1.216-0.086,1.402-0.086h2.96
			c-0.157,0.229-1.278,1.788-1.59,2.26c-1.278,1.931-1.747,3.92-1.747,5.379c0,0.143,0,0.787,0.649,0.787
			c0.647,0,0.647-0.644,0.647-0.787v-0.729c0-0.787,0.043-1.573,0.157-2.344c0.057-0.33,0.258-1.559,0.885-2.445"/>
	</g>
	<g>
		<defs>
			<rect id="SVGID_7_" x="611.887" y="79.25" width="6.48" height="9.971"/>
		</defs>
		<clipPath id="SVGID_8_">
			<use xlink:href="#SVGID_7_"  overflow="visible"/>
		</clipPath>
		<path clip-path="url(#SVGID_8_)" d="M615.686,83.733c1.163-0.386,1.984-1.385,1.984-2.512c0-1.171-1.253-1.972-2.618-1.972
			c-1.437,0-2.518,0.859-2.518,1.947c0,0.472,0.312,0.745,0.724,0.745c0.439,0,0.723-0.315,0.723-0.73
			c0-0.716-0.669-0.716-0.884-0.716c0.444-0.709,1.388-0.897,1.904-0.897c0.586,0,1.372,0.317,1.372,1.61
			c0,0.173-0.028,1.006-0.4,1.638c-0.43,0.69-0.916,0.733-1.272,0.747c-0.116,0.015-0.459,0.043-0.559,0.043
			c-0.115,0.013-0.215,0.027-0.215,0.156c0,0.143,0.099,0.143,0.34,0.143h0.622c1.16,0,1.685,0.974,1.685,2.376
			c0,1.946-0.98,2.361-1.604,2.361c-0.611,0-1.675-0.241-2.173-1.074c0.497,0.071,0.937-0.24,0.937-0.777
			c0-0.509-0.386-0.792-0.799-0.792c-0.342,0-0.797,0.199-0.797,0.821c0,1.287,1.329,2.221,2.887,2.221
			c1.743,0,3.046-1.299,3.046-2.755C618.069,85.146,617.17,84.033,615.686,83.733"/>
	</g>
	<g>
		<defs>
			<rect id="SVGID_9_" x="557.698" y="61.78" width="17.449" height="9.971"/>
		</defs>
		<clipPath id="SVGID_10_">
			<use xlink:href="#SVGID_9_"  overflow="visible"/>
		</clipPath>
		<path clip-path="url(#SVGID_10_)" d="M563.481,68.813h-0.359c-0.07,0.43-0.172,1.062-0.314,1.277
			c-0.101,0.115-1.047,0.115-1.361,0.115h-2.579l1.52-1.473c2.235-1.974,3.095-2.747,3.095-4.177c0-1.631-1.294-2.776-3.047-2.776
			c-1.624,0-2.686,1.316-2.686,2.589c0,0.801,0.711,0.801,0.755,0.801c0.242,0,0.74-0.17,0.74-0.755c0-0.37-0.251-0.741-0.739-0.741
			c-0.111,0-0.14,0-0.181,0c0.329-0.921,1.104-1.446,1.938-1.446c1.306,0,1.924,1.159,1.924,2.331c0,1.143-0.722,2.271-1.513,3.157
			l-2.766,3.058c-0.158,0.157-0.158,0.185-0.158,0.528h5.329"/>
		<path clip-path="url(#SVGID_10_)" d="M566.922,70.555c0-0.409-0.338-0.748-0.748-0.748c-0.409,0-0.748,0.339-0.748,0.748
			c0,0.409,0.339,0.747,0.748,0.747C566.582,71.302,566.922,70.963,566.922,70.555"/>
		<path clip-path="url(#SVGID_10_)" d="M571.647,67.862c-0.229,0-0.885,0-1.328-0.903c-0.257-0.53-0.257-1.247-0.257-1.949
			c0-0.773,0-1.447,0.299-1.978c0.386-0.717,0.928-0.903,1.429-0.903c0.656,0,1.128,0.487,1.37,1.132
			c0.172,0.459,0.229,1.362,0.229,2.021C573.39,66.472,572.903,67.863,571.647,67.862 M573.402,66.754v0.457
			c0,3.337-1.481,3.993-2.308,3.993c-0.242,0-1.012-0.028-1.396-0.5c0.603,0,0.712-0.408,0.712-0.647
			c0-0.437-0.338-0.648-0.647-0.648c-0.225,0-0.647,0.127-0.647,0.676c0,0.942,0.773,1.519,1.989,1.519
			c1.848,0,3.594-1.941,3.594-5.01c0-3.839-1.645-4.812-2.916-4.812c-0.786,0-1.486,0.257-2.101,0.898
			c-0.586,0.642-0.914,1.239-0.914,2.307c0,1.781,1.255,3.176,2.853,3.176C572.49,68.162,573.075,67.57,573.402,66.754
			L573.402,66.754z"/>
	</g>
	<g>
		<defs>
			<rect id="SVGID_11_" x="470.847" y="86.784" width="16.95" height="9.971"/>
		</defs>
		<clipPath id="SVGID_12_">
			<use xlink:href="#SVGID_11_"  overflow="visible"/>
		</clipPath>
		<path clip-path="url(#SVGID_12_)" d="M473.937,87.157c0-0.342,0-0.373-0.327-0.373c-0.882,0.898-2.132,0.898-2.586,0.898v0.448
			c0.284,0,1.126,0,1.867-0.363v7.405c0,0.514-0.044,0.687-1.327,0.687h-0.455v0.449c0.5-0.043,1.745-0.043,2.317-0.043
			s1.816,0,2.317,0.043v-0.449h-0.464c-1.3,0-1.343-0.158-1.343-0.686"/>
		<path clip-path="url(#SVGID_12_)" d="M479.671,95.559c0-0.409-0.338-0.748-0.748-0.748c-0.409,0-0.748,0.339-0.748,0.748
			c0,0.41,0.339,0.748,0.748,0.748C479.331,96.307,479.671,95.969,479.671,95.559"/>
		<path clip-path="url(#SVGID_12_)" d="M483.849,91.729c0.402,0.244,1.079,0.671,1.771,1.114c0.404,0.271,1.081,0.698,1.081,1.568
			c0,1.055-1.081,1.796-2.262,1.796c-1.237,0-2.274-0.883-2.274-2.067C482.164,93.313,482.625,92.4,483.849,91.729 M485.287,91.125
			c1.048-0.528,1.763-1.27,1.763-2.212c0-1.313-1.279-2.129-2.587-2.129c-1.436,0-2.599,1.059-2.599,2.386
			c0,0.256,0.029,0.899,0.649,1.57c0.151,0.171,0.667,0.528,1.015,0.771c-0.83,0.414-2.062,1.214-2.062,2.626
			c0,1.514,1.458,2.47,2.959,2.47c1.615,0,2.974-1.185,2.974-2.712c0-0.514-0.157-1.156-0.699-1.755
			C486.43,91.839,486.201,91.696,485.287,91.125L485.287,91.125z M483.224,89.769c-0.654-0.43-0.712-0.916-0.712-1.16
			c0-0.874,0.927-1.475,1.938-1.475c1.039,0,1.951,0.746,1.951,1.776c0,0.815-0.556,1.504-1.411,2.004L483.224,89.769z"/>
	</g>
	<g>
		<defs>
			<rect id="SVGID_13_" x="547.99" y="140.636" width="6.979" height="10.471"/>
		</defs>
		<clipPath id="SVGID_14_">
			<use xlink:href="#SVGID_13_"  overflow="visible"/>
		</clipPath>
		<path clip-path="url(#SVGID_14_)" d="M554.449,141.935c0.13-0.171,0.13-0.2,0.13-0.5h-3.477c-1.744,0-1.773-0.183-1.831-0.449
			h-0.357l-0.473,2.949h0.358c0.044-0.231,0.171-1.144,0.357-1.317c0.1-0.086,1.216-0.086,1.402-0.086h2.96
			c-0.155,0.229-1.278,1.788-1.59,2.26c-1.277,1.932-1.745,3.921-1.745,5.379c0,0.144,0,0.786,0.647,0.786s0.647-0.643,0.647-0.786
			v-0.729c0-0.787,0.044-1.573,0.158-2.345c0.057-0.33,0.257-1.56,0.884-2.445"/>
	</g>
	<g>
		<defs>
			<rect id="SVGID_15_" x="605.495" y="110.959" width="6.48" height="9.971"/>
		</defs>
		<clipPath id="SVGID_16_">
			<use xlink:href="#SVGID_15_"  overflow="visible"/>
		</clipPath>
		<path clip-path="url(#SVGID_16_)" d="M611.576,117.993h-0.357c-0.072,0.43-0.173,1.062-0.315,1.277
			c-0.101,0.115-1.045,0.115-1.36,0.115h-2.579l1.519-1.474c2.236-1.974,3.096-2.747,3.096-4.177c0-1.631-1.296-2.775-3.047-2.775
			c-1.624,0-2.687,1.315-2.687,2.589c0,0.801,0.712,0.801,0.755,0.801c0.242,0,0.741-0.17,0.741-0.755c0-0.37-0.252-0.74-0.74-0.74
			c-0.11,0-0.139,0-0.18,0c0.33-0.921,1.104-1.447,1.938-1.447c1.306,0,1.923,1.159,1.923,2.331c0,1.143-0.721,2.271-1.513,3.157
			l-2.766,3.058c-0.158,0.156-0.158,0.185-0.158,0.528h5.329"/>
	</g>
	<g>
		<defs>
			<rect id="SVGID_17_" x="488.603" y="143.378" width="5.484" height="9.972"/>
		</defs>
		<clipPath id="SVGID_18_">
			<use xlink:href="#SVGID_17_"  overflow="visible"/>
		</clipPath>
		<path clip-path="url(#SVGID_18_)" d="M491.942,143.751c0-0.343,0-0.373-0.327-0.373c-0.881,0.897-2.133,0.897-2.587,0.897v0.449
			c0.285,0,1.126,0,1.867-0.364v7.405c0,0.515-0.042,0.687-1.325,0.687h-0.456v0.449c0.5-0.044,1.745-0.044,2.317-0.044
			s1.817,0,2.317,0.044v-0.449h-0.464c-1.3,0-1.343-0.157-1.343-0.686"/>
	</g>
	<g>
		<defs>
			<rect id="SVGID_19_" x="461.748" y="117.861" width="6.48" height="10.47"/>
		</defs>
		<clipPath id="SVGID_20_">
			<use xlink:href="#SVGID_19_"  overflow="visible"/>
		</clipPath>
		<path clip-path="url(#SVGID_20_)" d="M465.687,125.091H462.2l3.486-5.348 M461.8,125.539h3.787v1.231
			c0,0.509-0.027,0.665-1.073,0.665h-0.297v0.449c0.587-0.043,1.33-0.043,1.932-0.043c0.6,0,1.358,0,1.945,0.043v-0.449h-0.306
			c-1.076,0-1.104-0.156-1.104-0.665v-1.231h1.452v-0.448h-1.452v-6.507c0-0.287,0-0.373-0.229-0.373c-0.128,0-0.172,0-0.285,0.172
			l-4.37,6.707V125.539z"/>
	</g>
	<g>
		<defs>
			<rect id="SVGID_21_" x="425.955" y="135.128" width="17.449" height="10.471"/>
		</defs>
		<clipPath id="SVGID_22_">
			<use xlink:href="#SVGID_21_"  overflow="visible"/>
		</clipPath>
		<path clip-path="url(#SVGID_22_)" d="M430.093,142.357h-3.487l3.487-5.348 M426.205,142.806h3.788v1.231
			c0,0.509-0.028,0.664-1.073,0.664h-0.296v0.449c0.587-0.044,1.33-0.044,1.931-0.044c0.6,0,1.359,0,1.944,0.044v-0.449h-0.305
			c-1.076,0-1.104-0.155-1.104-0.664v-1.231h1.452v-0.448h-1.452v-6.507c0-0.287,0-0.373-0.229-0.373c-0.128,0-0.171,0-0.284,0.172
			l-4.372,6.708V142.806z"/>
		<path clip-path="url(#SVGID_22_)" d="M435.677,144.4c0-0.407-0.339-0.747-0.748-0.747c-0.41,0-0.748,0.338-0.748,0.747
			c0,0.41,0.338,0.749,0.748,0.749C435.338,145.149,435.677,144.811,435.677,144.4"/>
		<path clip-path="url(#SVGID_22_)" d="M443.353,142.66h-0.357c-0.072,0.431-0.172,1.062-0.315,1.278
			c-0.1,0.114-1.045,0.114-1.36,0.114h-2.579l1.519-1.473c2.236-1.975,3.096-2.748,3.096-4.178c0-1.631-1.294-2.775-3.047-2.775
			c-1.624,0-2.687,1.315-2.687,2.589c0,0.801,0.712,0.801,0.755,0.801c0.242,0,0.741-0.171,0.741-0.755
			c0-0.371-0.252-0.741-0.739-0.741c-0.111,0-0.14,0-0.181,0c0.33-0.92,1.104-1.446,1.938-1.446c1.306,0,1.923,1.159,1.923,2.33
			c0,1.144-0.721,2.272-1.513,3.158l-2.765,3.057c-0.158,0.158-0.158,0.186-0.158,0.528h5.329"/>
	</g>
	<g>
		<defs>
			<rect id="SVGID_23_" x="641.038" y="117.919" width="17.949" height="10.47"/>
		</defs>
		<clipPath id="SVGID_24_">
			<use xlink:href="#SVGID_23_"  overflow="visible"/>
		</clipPath>
		<path clip-path="url(#SVGID_24_)" d="M645.177,125.148h-3.487l3.487-5.348 M641.29,125.597h3.788v1.23
			c0,0.509-0.029,0.665-1.073,0.665h-0.297v0.449c0.586-0.044,1.33-0.044,1.93-0.044c0.602,0,1.36,0,1.945,0.044v-0.449h-0.306
			c-1.074,0-1.104-0.156-1.104-0.665v-1.23h1.453v-0.449h-1.453v-6.507c0-0.287,0-0.373-0.229-0.373c-0.127,0-0.17,0-0.283,0.172
			l-4.372,6.708L641.29,125.597z"/>
		<path clip-path="url(#SVGID_24_)" d="M650.76,127.192c0-0.409-0.338-0.748-0.747-0.748s-0.747,0.339-0.747,0.748
			s0.338,0.748,0.747,0.748S650.76,127.602,650.76,127.192"/>
		<path clip-path="url(#SVGID_24_)" d="M658.815,119.218c0.129-0.172,0.129-0.2,0.129-0.5h-3.475c-1.746,0-1.775-0.183-1.832-0.449
			h-0.358l-0.471,2.949h0.357c0.043-0.231,0.172-1.143,0.356-1.317c0.102-0.086,1.217-0.086,1.402-0.086h2.962
			c-0.157,0.229-1.279,1.788-1.591,2.26c-1.277,1.931-1.746,3.92-1.746,5.378c0,0.143,0,0.787,0.648,0.787s0.648-0.644,0.648-0.786
			v-0.73c0-0.786,0.043-1.573,0.157-2.344c0.056-0.329,0.257-1.559,0.885-2.445"/>
	</g>
	<g>
		<defs>
			<rect id="SVGID_25_" x="530.277" y="192.338" width="17.45" height="9.971"/>
		</defs>
		<clipPath id="SVGID_26_">
			<use xlink:href="#SVGID_25_"  overflow="visible"/>
		</clipPath>
		<path clip-path="url(#SVGID_26_)" d="M533.108,197.282c0.404,0.243,1.081,0.671,1.772,1.113c0.403,0.271,1.081,0.697,1.081,1.568
			c0,1.055-1.081,1.798-2.262,1.798c-1.239,0-2.276-0.886-2.276-2.068C531.424,198.865,531.886,197.954,533.108,197.282
			 M534.549,196.679c1.048-0.528,1.761-1.271,1.761-2.213c0-1.313-1.279-2.129-2.585-2.129c-1.437,0-2.6,1.059-2.6,2.386
			c0,0.257,0.029,0.899,0.648,1.57c0.152,0.171,0.667,0.527,1.017,0.77c-0.831,0.414-2.063,1.214-2.063,2.627
			c0,1.513,1.458,2.47,2.959,2.47c1.615,0,2.974-1.185,2.974-2.712c0-0.514-0.155-1.156-0.697-1.755
			C535.69,197.392,535.462,197.249,534.549,196.679L534.549,196.679z M532.485,195.322c-0.654-0.431-0.713-0.916-0.713-1.161
			c0-0.873,0.926-1.476,1.938-1.476c1.04,0,1.952,0.747,1.952,1.776c0,0.816-0.556,1.505-1.411,2.005L532.485,195.322z"/>
		<path clip-path="url(#SVGID_26_)" d="M539.999,201.111c0-0.408-0.338-0.747-0.747-0.747c-0.41,0-0.749,0.338-0.749,0.747
			c0,0.41,0.339,0.748,0.749,0.748C539.661,201.859,539.999,201.521,539.999,201.111"/>
		<path clip-path="url(#SVGID_26_)" d="M547.676,199.371h-0.357c-0.072,0.431-0.172,1.062-0.315,1.277
			c-0.1,0.115-1.046,0.115-1.36,0.115h-2.58l1.52-1.474c2.236-1.974,3.095-2.747,3.095-4.177c0-1.631-1.293-2.775-3.046-2.775
			c-1.624,0-2.687,1.314-2.687,2.589c0,0.801,0.712,0.801,0.755,0.801c0.242,0,0.741-0.172,0.741-0.755
			c0-0.371-0.252-0.741-0.739-0.741c-0.111,0-0.14,0-0.181,0c0.329-0.921,1.104-1.445,1.938-1.445c1.306,0,1.923,1.158,1.923,2.329
			c0,1.145-0.721,2.272-1.513,3.157l-2.765,3.058c-0.158,0.157-0.158,0.187-0.158,0.528h5.329"/>
	</g>
	<g>
		<defs>
			<rect id="SVGID_27_" x="513.327" y="153.7" width="6.48" height="9.971"/>
		</defs>
		<clipPath id="SVGID_28_">
			<use xlink:href="#SVGID_27_"  overflow="visible"/>
		</clipPath>
		<path clip-path="url(#SVGID_28_)" d="M516.536,163.223c-0.557,0-1.398-0.357-1.655-1.732c-0.157-0.859-0.157-2.178-0.157-3.021
			c0-0.918,0-1.862,0.114-2.637c0.271-1.704,1.341-1.833,1.698-1.833c0.471,0,1.411,0.259,1.683,1.677
			c0.144,0.802,0.144,1.89,0.144,2.793c0,1.073,0,2.047-0.156,2.964C517.991,162.793,517.177,163.223,516.536,163.223
			 M519.56,158.641c0-1.142-0.073-2.283-0.575-3.34c-0.659-1.371-1.834-1.601-2.436-1.601c-0.859,0-1.906,0.372-2.492,1.7
			c-0.459,0.984-0.529,2.099-0.529,3.24c0,1.069,0.056,2.355,0.644,3.44c0.616,1.155,1.661,1.441,2.363,1.441
			c0.774,0,1.862-0.301,2.493-1.656c0.459-0.985,0.53-2.099,0.53-3.226H519.56z"/>
	</g>
	<g>
		<defs>
			<rect id="SVGID_29_" x="581.879" y="218.512" width="6.479" height="9.972"/>
		</defs>
		<clipPath id="SVGID_30_">
			<use xlink:href="#SVGID_29_"  overflow="visible"/>
		</clipPath>
		<path clip-path="url(#SVGID_30_)" d="M587.96,225.545h-0.358c-0.071,0.431-0.173,1.062-0.315,1.278
			c-0.101,0.114-1.045,0.114-1.36,0.114h-2.579l1.519-1.473c2.236-1.975,3.096-2.747,3.096-4.178c0-1.631-1.295-2.775-3.047-2.775
			c-1.623,0-2.687,1.316-2.687,2.589c0,0.802,0.713,0.802,0.755,0.802c0.242,0,0.741-0.171,0.741-0.755
			c0-0.37-0.252-0.741-0.74-0.741c-0.11,0-0.139,0-0.18,0c0.33-0.921,1.105-1.446,1.938-1.446c1.307,0,1.924,1.159,1.924,2.331
			c0,1.143-0.721,2.271-1.514,3.157l-2.766,3.058c-0.158,0.157-0.158,0.185-0.158,0.528h5.329"/>
	</g>
	<g>
		<defs>
			<rect id="SVGID_31_" x="613.412" y="167.784" width="16.95" height="10.47"/>
		</defs>
		<clipPath id="SVGID_32_">
			<use xlink:href="#SVGID_31_"  overflow="visible"/>
		</clipPath>
		<path clip-path="url(#SVGID_32_)" d="M616.503,168.655c0-0.342,0-0.372-0.328-0.372c-0.882,0.896-2.132,0.896-2.586,0.896v0.449
			c0.284,0,1.126,0,1.867-0.364v7.405c0,0.514-0.044,0.687-1.327,0.687h-0.455v0.449c0.5-0.044,1.745-0.044,2.317-0.044
			s1.816,0,2.317,0.044v-0.449h-0.464c-1.3,0-1.342-0.156-1.342-0.687"/>
		<path clip-path="url(#SVGID_32_)" d="M622.236,177.058c0-0.409-0.338-0.749-0.748-0.749c-0.409,0-0.747,0.34-0.747,0.749
			s0.338,0.747,0.747,0.747S622.236,177.467,622.236,177.058"/>
		<path clip-path="url(#SVGID_32_)" d="M627.72,175.013h-3.485l3.485-5.347 M623.833,175.462h3.788v1.23
			c0,0.509-0.027,0.664-1.073,0.664h-0.297v0.449c0.587-0.044,1.33-0.044,1.932-0.044c0.6,0,1.358,0,1.945,0.044v-0.449h-0.306
			c-1.076,0-1.104-0.155-1.104-0.664v-1.23h1.452v-0.449h-1.452v-6.507c0-0.286,0-0.373-0.229-0.373c-0.128,0-0.172,0-0.285,0.173
			l-4.371,6.707V175.462z"/>
	</g>
	<g>
		<defs>
			<rect id="SVGID_33_" x="449.636" y="188.599" width="17.949" height="9.972"/>
		</defs>
		<clipPath id="SVGID_34_">
			<use xlink:href="#SVGID_33_"  overflow="visible"/>
		</clipPath>
		<path clip-path="url(#SVGID_34_)" d="M453.636,193.082c1.161-0.387,1.982-1.385,1.982-2.513c0-1.171-1.251-1.972-2.616-1.972
			c-1.437,0-2.518,0.859-2.518,1.947c0,0.474,0.312,0.745,0.723,0.745c0.438,0,0.723-0.315,0.723-0.729
			c0-0.717-0.67-0.717-0.883-0.717c0.443-0.708,1.388-0.896,1.902-0.896c0.587,0,1.374,0.316,1.374,1.61
			c0,0.173-0.029,1.005-0.401,1.637c-0.429,0.69-0.915,0.732-1.273,0.747c-0.114,0.015-0.458,0.044-0.559,0.044
			c-0.113,0.013-0.214,0.025-0.214,0.156c0,0.142,0.099,0.142,0.339,0.142h0.624c1.159,0,1.685,0.976,1.685,2.378
			c0,1.944-0.981,2.359-1.605,2.359c-0.61,0-1.675-0.239-2.173-1.073c0.496,0.07,0.936-0.241,0.936-0.777
			c0-0.509-0.385-0.791-0.797-0.791c-0.344,0-0.797,0.198-0.797,0.82c0,1.287,1.329,2.221,2.886,2.221
			c1.744,0,3.045-1.299,3.045-2.754C456.018,194.495,455.119,193.381,453.636,193.082"/>
		<path clip-path="url(#SVGID_34_)" d="M459.357,197.372c0-0.407-0.338-0.747-0.747-0.747s-0.747,0.338-0.747,0.747
			c0,0.41,0.338,0.749,0.747,0.749S459.357,197.782,459.357,197.372"/>
		<path clip-path="url(#SVGID_34_)" d="M463.585,193.543c0.404,0.243,1.081,0.671,1.772,1.113c0.402,0.271,1.081,0.698,1.081,1.568
			c0,1.055-1.081,1.798-2.262,1.798c-1.239,0-2.276-0.885-2.276-2.068C461.9,195.127,462.361,194.215,463.585,193.543
			 M465.024,192.939c1.049-0.528,1.763-1.271,1.763-2.213c0-1.313-1.28-2.129-2.586-2.129c-1.437,0-2.599,1.059-2.599,2.386
			c0,0.257,0.029,0.899,0.647,1.57c0.153,0.171,0.667,0.528,1.016,0.771c-0.831,0.413-2.062,1.213-2.062,2.626
			c0,1.514,1.458,2.47,2.959,2.47c1.615,0,2.975-1.185,2.975-2.712c0-0.514-0.157-1.156-0.698-1.755
			C466.167,193.652,465.938,193.51,465.024,192.939L465.024,192.939z M462.962,191.583c-0.655-0.431-0.712-0.916-0.712-1.161
			c0-0.872,0.925-1.475,1.938-1.475c1.039,0,1.951,0.746,1.951,1.775c0,0.816-0.557,1.505-1.411,2.005L462.962,191.583z"/>
	</g>
	<g>
		<defs>
			<rect id="SVGID_35_" x="654.169" y="152.453" width="6.48" height="9.972"/>
		</defs>
		<clipPath id="SVGID_36_">
			<use xlink:href="#SVGID_35_"  overflow="visible"/>
		</clipPath>
		<path clip-path="url(#SVGID_36_)" d="M657.299,158.536c-0.228,0-0.885,0-1.328-0.903c-0.257-0.529-0.257-1.247-0.257-1.949
			c0-0.773,0-1.448,0.301-1.978c0.385-0.717,0.928-0.903,1.427-0.903c0.657,0,1.128,0.487,1.371,1.132
			c0.172,0.459,0.229,1.362,0.229,2.021C659.042,157.146,658.556,158.537,657.299,158.536 M659.055,157.427v0.458
			c0,3.336-1.482,3.992-2.309,3.992c-0.242,0-1.012-0.028-1.396-0.5c0.604,0,0.714-0.408,0.714-0.647
			c0-0.438-0.339-0.648-0.649-0.648c-0.225,0-0.647,0.127-0.647,0.676c0,0.942,0.773,1.52,1.99,1.52c1.847,0,3.595-1.941,3.595-5.01
			c0-3.841-1.645-4.813-2.918-4.813c-0.786,0-1.486,0.257-2.101,0.898c-0.586,0.642-0.914,1.239-0.914,2.308
			c0,1.78,1.255,3.176,2.853,3.176C658.142,158.835,658.727,158.243,659.055,157.427L659.055,157.427z"/>
	</g>
	<g>
		<defs>
			<rect id="SVGID_37_" x="428.573" y="41.524" width="16.451" height="9.971"/>
		</defs>
		<clipPath id="SVGID_38_">
			<use xlink:href="#SVGID_37_"  overflow="visible"/>
		</clipPath>
		<path clip-path="url(#SVGID_38_)" d="M431.663,41.897c0-0.343,0-0.373-0.327-0.373c-0.883,0.897-2.133,0.897-2.588,0.897v0.449
			c0.285,0,1.127,0,1.867-0.364v7.405c0,0.515-0.043,0.687-1.325,0.687h-0.455v0.449c0.5-0.043,1.744-0.043,2.315-0.043
			c0.573,0,1.817,0,2.318,0.043v-0.449h-0.463c-1.3,0-1.344-0.157-1.344-0.686"/>
		<path clip-path="url(#SVGID_38_)" d="M437.397,50.299c0-0.409-0.339-0.748-0.749-0.748c-0.408,0-0.747,0.339-0.747,0.748
			s0.339,0.748,0.747,0.748C437.058,51.046,437.397,50.708,437.397,50.299"/>
		<path clip-path="url(#SVGID_38_)" d="M442.781,41.897c0-0.343,0-0.373-0.328-0.373c-0.881,0.897-2.132,0.897-2.587,0.897v0.449
			c0.284,0,1.127,0,1.867-0.364v7.405c0,0.515-0.043,0.687-1.325,0.687h-0.456v0.449c0.5-0.043,1.744-0.043,2.316-0.043
			c0.573,0,1.817,0,2.317,0.043v-0.449h-0.463c-1.3,0-1.344-0.157-1.344-0.686"/>
	</g>
	<g>
		<defs>
			<rect id="SVGID_39_" x="618.397" y="41.524" width="16.95" height="9.971"/>
		</defs>
		<clipPath id="SVGID_40_">
			<use xlink:href="#SVGID_39_"  overflow="visible"/>
		</clipPath>
		<path clip-path="url(#SVGID_40_)" d="M621.488,41.897c0-0.343,0-0.373-0.327-0.373c-0.883,0.897-2.133,0.897-2.587,0.897v0.449
			c0.284,0,1.126,0,1.867-0.363v7.405c0,0.514-0.044,0.687-1.327,0.687h-0.455v0.448c0.5-0.043,1.746-0.043,2.317-0.043
			c0.572,0,1.816,0,2.317,0.043v-0.448h-0.463c-1.301,0-1.343-0.158-1.343-0.686"/>
		<path clip-path="url(#SVGID_40_)" d="M627.222,50.299c0-0.408-0.338-0.748-0.748-0.748c-0.409,0-0.747,0.339-0.747,0.748
			c0,0.41,0.338,0.748,0.747,0.748S627.222,50.708,627.222,50.299"/>
		<path clip-path="url(#SVGID_40_)" d="M631.399,46.469c0.403,0.243,1.08,0.671,1.771,1.113c0.403,0.271,1.08,0.698,1.08,1.568
			c0,1.055-1.08,1.797-2.261,1.797c-1.238,0-2.275-0.884-2.275-2.067C629.715,48.053,630.177,47.14,631.399,46.469 M632.838,45.865
			c1.048-0.528,1.763-1.27,1.763-2.212c0-1.313-1.279-2.128-2.586-2.128c-1.437,0-2.6,1.058-2.6,2.385
			c0,0.256,0.029,0.899,0.649,1.57c0.152,0.171,0.667,0.528,1.015,0.771c-0.83,0.414-2.062,1.214-2.062,2.626
			c0,1.514,1.458,2.47,2.959,2.47c1.615,0,2.974-1.185,2.974-2.712c0-0.514-0.157-1.156-0.699-1.755
			c-0.27-0.3-0.499-0.443-1.411-1.014H632.838z M630.775,44.509c-0.655-0.43-0.712-0.916-0.712-1.16
			c0-0.873,0.926-1.475,1.938-1.475c1.039,0,1.951,0.746,1.951,1.776c0,0.815-0.556,1.504-1.411,2.005L630.775,44.509z"/>
	</g>
	<g>
		<defs>
			<rect id="SVGID_41_" x="538.269" y="208.911" width="16.95" height="9.971"/>
		</defs>
		<clipPath id="SVGID_42_">
			<use xlink:href="#SVGID_41_"  overflow="visible"/>
		</clipPath>
		<path clip-path="url(#SVGID_42_)" d="M541.358,209.283c0-0.343,0-0.372-0.327-0.372c-0.882,0.896-2.132,0.896-2.586,0.896v0.449
			c0.284,0,1.126,0,1.867-0.363v7.405c0,0.515-0.044,0.687-1.327,0.687h-0.455v0.449c0.5-0.044,1.745-0.044,2.317-0.044
			s1.816,0,2.317,0.044v-0.449h-0.464c-1.3,0-1.343-0.157-1.343-0.686"/>
		<path clip-path="url(#SVGID_42_)" d="M547.093,217.685c0-0.408-0.338-0.747-0.748-0.747c-0.409,0-0.748,0.338-0.748,0.747
			c0,0.41,0.339,0.748,0.748,0.748C546.753,218.433,547.093,218.095,547.093,217.685"/>
		<path clip-path="url(#SVGID_42_)" d="M551.271,213.855c0.402,0.243,1.079,0.672,1.771,1.113c0.404,0.271,1.081,0.697,1.081,1.569
			c0,1.054-1.081,1.796-2.262,1.796c-1.237,0-2.274-0.883-2.274-2.067C549.586,215.439,550.047,214.527,551.271,213.855
			 M552.709,213.251c1.048-0.527,1.763-1.271,1.763-2.212c0-1.312-1.279-2.128-2.587-2.128c-1.436,0-2.599,1.058-2.599,2.386
			c0,0.256,0.029,0.898,0.649,1.568c0.151,0.172,0.667,0.528,1.015,0.771c-0.83,0.414-2.062,1.215-2.062,2.627
			c0,1.515,1.458,2.47,2.959,2.47c1.615,0,2.974-1.185,2.974-2.712c0-0.514-0.157-1.155-0.699-1.755
			C553.852,213.965,553.623,213.822,552.709,213.251L552.709,213.251z M550.646,211.896c-0.654-0.431-0.712-0.917-0.712-1.161
			c0-0.873,0.927-1.476,1.938-1.476c1.039,0,1.95,0.746,1.95,1.777c0,0.815-0.555,1.503-1.41,2.004L550.646,211.896z"/>
	</g>
	<g>
		<defs>
			<rect id="SVGID_43_" x="473.317" y="232.223" width="17.948" height="9.971"/>
		</defs>
		<clipPath id="SVGID_44_">
			<use xlink:href="#SVGID_43_"  overflow="visible"/>
		</clipPath>
		<path clip-path="url(#SVGID_44_)" d="M477.317,236.705c1.161-0.386,1.982-1.384,1.982-2.512c0-1.171-1.251-1.973-2.617-1.973
			c-1.436,0-2.517,0.859-2.517,1.948c0,0.474,0.312,0.744,0.723,0.744c0.438,0,0.722-0.314,0.722-0.729
			c0-0.717-0.669-0.717-0.882-0.717c0.442-0.709,1.388-0.897,1.902-0.897c0.587,0,1.374,0.316,1.374,1.61
			c0,0.173-0.029,1.006-0.401,1.638c-0.429,0.689-0.916,0.732-1.273,0.747c-0.114,0.015-0.458,0.044-0.559,0.044
			c-0.113,0.012-0.215,0.025-0.215,0.155c0,0.143,0.099,0.143,0.34,0.143h0.623c1.16,0,1.685,0.975,1.685,2.377
			c0,1.945-0.98,2.36-1.605,2.36c-0.609,0-1.675-0.24-2.172-1.073c0.496,0.07,0.936-0.241,0.936-0.778
			c0-0.509-0.385-0.791-0.797-0.791c-0.344,0-0.798,0.198-0.798,0.82c0,1.288,1.329,2.222,2.886,2.222
			c1.744,0,3.046-1.299,3.046-2.755C479.699,238.118,478.801,237.005,477.317,236.705"/>
		<path clip-path="url(#SVGID_44_)" d="M483.039,240.996c0-0.408-0.339-0.748-0.747-0.748c-0.409,0-0.748,0.339-0.748,0.748
			c0,0.41,0.339,0.748,0.748,0.748C482.7,241.744,483.039,241.406,483.039,240.996"/>
		<path clip-path="url(#SVGID_44_)" d="M487.869,241.646c-0.898,0-1.324-0.856-1.411-1.071c-0.256-0.672-0.256-1.813-0.256-2.071
			c0-1.112,0.455-2.541,1.737-2.541c0.228,0,0.883,0,1.324,0.886c0.257,0.528,0.257,1.256,0.257,1.956c0,0.686,0,1.399-0.242,1.913
			C488.851,241.574,488.195,241.646,487.869,241.646 M486.18,237.052v-0.343c0-3.621,1.771-4.139,2.5-4.139
			c0.342,0,0.941,0.09,1.257,0.599c-0.209,0-0.766,0-0.766,0.642c0,0.442,0.339,0.655,0.649,0.655c0.225,0,0.648-0.129,0.648-0.69
			c0-0.863-0.631-1.553-1.819-1.553c-1.832,0-3.765,1.843-3.765,4.997c0,3.812,1.657,4.825,2.986,4.825
			c1.587,0,2.945-1.336,2.945-3.213c0-1.806-1.271-3.17-2.853-3.17C486.992,235.662,486.466,236.379,486.18,237.052z"/>
	</g>
	<g>
		<defs>
			<rect id="SVGID_45_" x="497.498" y="25.322" width="16.95" height="9.971"/>
		</defs>
		<clipPath id="SVGID_46_">
			<use xlink:href="#SVGID_45_"  overflow="visible"/>
		</clipPath>
		<path clip-path="url(#SVGID_46_)" d="M503.28,32.355h-0.358c-0.072,0.43-0.172,1.062-0.315,1.277
			c-0.1,0.115-1.046,0.115-1.361,0.115h-2.579l1.521-1.473c2.234-1.975,3.094-2.747,3.094-4.177c0-1.631-1.293-2.776-3.046-2.776
			c-1.624,0-2.687,1.316-2.687,2.589c0,0.801,0.712,0.801,0.755,0.801c0.243,0,0.741-0.17,0.741-0.754
			c0-0.37-0.252-0.741-0.739-0.741c-0.111,0-0.14,0-0.182,0c0.33-0.921,1.105-1.447,1.938-1.447c1.306,0,1.924,1.159,1.924,2.331
			c0,1.143-0.722,2.271-1.514,3.157l-2.765,3.058c-0.159,0.156-0.159,0.185-0.159,0.528h5.33"/>
		<path clip-path="url(#SVGID_46_)" d="M506.721,34.096c0-0.409-0.339-0.748-0.748-0.748c-0.408,0-0.747,0.339-0.747,0.748
			c0,0.409,0.339,0.748,0.747,0.748C506.382,34.844,506.721,34.505,506.721,34.096"/>
		<path clip-path="url(#SVGID_46_)" d="M512.154,25.695c0-0.343,0-0.373-0.326-0.373c-0.883,0.897-2.133,0.897-2.588,0.897v0.449
			c0.284,0,1.127,0,1.867-0.364v7.405c0,0.514-0.043,0.687-1.326,0.687h-0.456v0.449c0.502-0.043,1.745-0.043,2.317-0.043
			c0.573,0,1.817,0,2.317,0.043v-0.449h-0.462c-1.301,0-1.344-0.157-1.344-0.686"/>
	</g>
	<g>
		<defs>
			<rect id="SVGID_47_" x="629.116" y="234.715" width="17.948" height="9.972"/>
		</defs>
		<clipPath id="SVGID_48_">
			<use xlink:href="#SVGID_47_"  overflow="visible"/>
		</clipPath>
		<path clip-path="url(#SVGID_48_)" d="M631.947,239.659c0.404,0.243,1.081,0.671,1.772,1.114c0.402,0.27,1.08,0.697,1.08,1.567
			c0,1.056-1.08,1.798-2.261,1.798c-1.239,0-2.276-0.885-2.276-2.068C630.263,241.243,630.724,240.331,631.947,239.659
			 M633.388,239.056c1.048-0.528,1.761-1.271,1.761-2.213c0-1.313-1.279-2.129-2.585-2.129c-1.437,0-2.599,1.059-2.599,2.386
			c0,0.257,0.028,0.899,0.647,1.57c0.153,0.172,0.667,0.528,1.016,0.771c-0.831,0.414-2.062,1.213-2.062,2.626
			c0,1.514,1.458,2.47,2.959,2.47c1.615,0,2.974-1.184,2.974-2.712c0-0.514-0.156-1.156-0.698-1.755
			C634.529,239.769,634.3,239.626,633.388,239.056L633.388,239.056z M631.324,237.699c-0.655-0.431-0.712-0.916-0.712-1.161
			c0-0.872,0.925-1.475,1.937-1.475c1.04,0,1.952,0.746,1.952,1.775c0,0.817-0.557,1.505-1.411,2.005L631.324,237.699z"/>
		<path clip-path="url(#SVGID_48_)" d="M638.838,243.488c0-0.407-0.339-0.747-0.747-0.747c-0.409,0-0.748,0.338-0.748,0.747
			c0,0.41,0.339,0.749,0.748,0.749C638.499,244.237,638.838,243.898,638.838,243.488"/>
		<path clip-path="url(#SVGID_48_)" d="M644.233,239.198c1.161-0.386,1.982-1.384,1.982-2.513c0-1.171-1.251-1.972-2.616-1.972
			c-1.437,0-2.518,0.859-2.518,1.947c0,0.474,0.312,0.745,0.724,0.745c0.438,0,0.723-0.315,0.723-0.729
			c0-0.717-0.671-0.717-0.884-0.717c0.443-0.708,1.388-0.896,1.902-0.896c0.587,0,1.374,0.316,1.374,1.61
			c0,0.173-0.029,1.005-0.401,1.637c-0.429,0.69-0.915,0.732-1.273,0.747c-0.114,0.015-0.457,0.044-0.559,0.044
			c-0.113,0.013-0.214,0.025-0.214,0.156c0,0.143,0.099,0.143,0.34,0.143h0.623c1.16,0,1.685,0.975,1.685,2.377
			c0,1.945-0.981,2.36-1.605,2.36c-0.61,0-1.675-0.24-2.172-1.074c0.495,0.071,0.935-0.241,0.935-0.777
			c0-0.509-0.385-0.791-0.797-0.791c-0.342,0-0.797,0.198-0.797,0.82c0,1.287,1.329,2.221,2.886,2.221
			c1.744,0,3.045-1.298,3.045-2.754C646.615,240.611,645.717,239.497,644.233,239.198"/>
	</g>
	<g>
		<defs>
			<rect id="SVGID_49_" x="595.464" y="196.077" width="17.948" height="9.971"/>
		</defs>
		<clipPath id="SVGID_50_">
			<use xlink:href="#SVGID_49_"  overflow="visible"/>
		</clipPath>
		<path clip-path="url(#SVGID_50_)" d="M598.295,201.021c0.404,0.243,1.081,0.67,1.772,1.113c0.402,0.271,1.08,0.697,1.08,1.568
			c0,1.055-1.08,1.797-2.262,1.797c-1.238,0-2.275-0.885-2.275-2.067C596.61,202.604,597.071,201.693,598.295,201.021
			 M599.734,200.418c1.048-0.528,1.762-1.271,1.762-2.213c0-1.313-1.279-2.129-2.585-2.129c-1.437,0-2.6,1.059-2.6,2.386
			c0,0.257,0.029,0.899,0.648,1.569c0.153,0.172,0.666,0.528,1.016,0.771c-0.831,0.414-2.062,1.214-2.062,2.627
			c0,1.513,1.458,2.47,2.959,2.47c1.615,0,2.973-1.185,2.973-2.712c0-0.514-0.155-1.156-0.697-1.755
			C600.876,201.131,600.647,200.988,599.734,200.418L599.734,200.418z M597.672,199.062c-0.655-0.431-0.712-0.916-0.712-1.161
			c0-0.873,0.925-1.476,1.936-1.476c1.041,0,1.953,0.746,1.953,1.776c0,0.816-0.557,1.504-1.411,2.005L597.672,199.062z"/>
		<path clip-path="url(#SVGID_50_)" d="M605.186,204.851c0-0.408-0.339-0.747-0.748-0.747s-0.747,0.338-0.747,0.747
			c0,0.41,0.338,0.748,0.747,0.748S605.186,205.261,605.186,204.851"/>
		<path clip-path="url(#SVGID_50_)" d="M609.911,202.159c-0.229,0-0.885,0-1.328-0.903c-0.256-0.53-0.256-1.247-0.256-1.949
			c0-0.773,0-1.447,0.299-1.979c0.386-0.716,0.928-0.903,1.428-0.903c0.657,0,1.129,0.488,1.371,1.134
			c0.171,0.459,0.229,1.361,0.229,2.021C611.653,200.77,611.168,202.159,609.911,202.159 M611.667,201.051v0.456
			c0,3.338-1.481,3.993-2.309,3.993c-0.242,0-1.011-0.027-1.396-0.5c0.603,0,0.712-0.407,0.712-0.647
			c0-0.437-0.338-0.648-0.647-0.648c-0.226,0-0.647,0.128-0.647,0.677c0,0.941,0.772,1.518,1.988,1.518
			c1.847,0,3.595-1.941,3.595-5.01c0-3.839-1.645-4.812-2.916-4.812c-0.786,0-1.487,0.257-2.102,0.898
			c-0.586,0.64-0.915,1.239-0.915,2.307c0,1.78,1.256,3.175,2.854,3.175C610.755,202.457,611.339,201.867,611.667,201.051
			L611.667,201.051z"/>
	</g>
	<g>
		<defs>
			<rect id="SVGID_51_" x="579.76" y="137.871" width="16.95" height="10.47"/>
		</defs>
		<clipPath id="SVGID_52_">
			<use xlink:href="#SVGID_51_"  overflow="visible"/>
		</clipPath>
		<path clip-path="url(#SVGID_52_)" d="M585.92,139.17c0.129-0.172,0.129-0.2,0.129-0.501h-3.476c-1.745,0-1.774-0.183-1.831-0.449
			h-0.358l-0.472,2.949h0.358c0.043-0.231,0.172-1.143,0.357-1.317c0.101-0.086,1.216-0.086,1.401-0.086h2.962
			c-0.157,0.229-1.279,1.788-1.591,2.261c-1.277,1.932-1.746,3.92-1.746,5.378c0,0.144,0,0.786,0.647,0.786
			c0.649,0,0.649-0.643,0.649-0.786v-0.729c0-0.786,0.042-1.573,0.157-2.345c0.056-0.33,0.257-1.559,0.885-2.445"/>
		<path clip-path="url(#SVGID_52_)" d="M588.982,147.145c0-0.409-0.339-0.749-0.748-0.749c-0.408,0-0.747,0.34-0.747,0.749
			c0,0.408,0.339,0.747,0.747,0.747C588.644,147.892,588.982,147.553,588.982,147.145"/>
		<path clip-path="url(#SVGID_52_)" d="M596.66,145.402h-0.359c-0.071,0.431-0.171,1.062-0.315,1.278
			c-0.1,0.114-1.045,0.114-1.36,0.114h-2.579l1.521-1.473c2.234-1.975,3.094-2.747,3.094-4.178c0-1.631-1.294-2.775-3.047-2.775
			c-1.622,0-2.687,1.315-2.687,2.589c0,0.801,0.713,0.801,0.755,0.801c0.243,0,0.741-0.17,0.741-0.754
			c0-0.371-0.252-0.741-0.738-0.741c-0.112,0-0.141,0-0.182,0c0.33-0.921,1.105-1.446,1.938-1.446c1.307,0,1.925,1.159,1.925,2.33
			c0,1.144-0.721,2.272-1.515,3.158l-2.764,3.058c-0.158,0.155-0.158,0.185-0.158,0.528h5.328"/>
	</g>
	<g>
		<defs>
			<rect id="SVGID_53_" x="431.938" y="74.014" width="17.948" height="10.47"/>
		</defs>
		<clipPath id="SVGID_54_">
			<use xlink:href="#SVGID_53_"  overflow="visible"/>
		</clipPath>
		<path clip-path="url(#SVGID_54_)" d="M435.371,83.937c-0.898,0-1.324-0.856-1.411-1.071c-0.256-0.671-0.256-1.813-0.256-2.07
			c0-1.114,0.455-2.543,1.737-2.543c0.228,0,0.883,0,1.324,0.886c0.257,0.528,0.257,1.257,0.257,1.956c0,0.687,0,1.4-0.242,1.913
			C436.352,83.865,435.697,83.937,435.371,83.937 M433.682,79.344V79c0-3.621,1.771-4.138,2.5-4.138
			c0.342,0,0.941,0.089,1.257,0.599c-0.209,0-0.766,0-0.766,0.642c0,0.441,0.339,0.655,0.649,0.655c0.225,0,0.647-0.129,0.647-0.69
			c0-0.863-0.63-1.554-1.818-1.554c-1.832,0-3.766,1.844-3.766,4.998c0,3.811,1.658,4.825,2.987,4.825
			c1.587,0,2.945-1.336,2.945-3.212c0-1.807-1.271-3.17-2.853-3.17C434.494,77.954,433.968,78.67,433.682,79.344z"/>
		<path clip-path="url(#SVGID_54_)" d="M441.659,83.288c0-0.409-0.339-0.749-0.748-0.749s-0.747,0.339-0.747,0.749
			c0,0.409,0.338,0.747,0.747,0.747S441.659,83.697,441.659,83.288"/>
		<path clip-path="url(#SVGID_54_)" d="M447.193,81.243h-3.487l3.487-5.347 M443.307,81.692h3.788v1.23
			c0,0.509-0.029,0.665-1.073,0.665h-0.298v0.449c0.587-0.044,1.331-0.044,1.931-0.044c0.602,0,1.359,0,1.945,0.044v-0.449h-0.306
			c-1.074,0-1.104-0.156-1.104-0.665v-1.23h1.453v-0.449h-1.453v-6.506c0-0.287,0-0.373-0.228-0.373c-0.13,0-0.172,0-0.285,0.172
			l-4.372,6.708L443.307,81.692z"/>
	</g>
	<g>
		<defs>
			<rect id="SVGID_55_" x="556.452" y="25.725" width="17.449" height="9.972"/>
		</defs>
		<clipPath id="SVGID_56_">
			<use xlink:href="#SVGID_55_"  overflow="visible"/>
		</clipPath>
		<path clip-path="url(#SVGID_56_)" d="M559.283,30.669c0.404,0.244,1.081,0.671,1.772,1.114c0.402,0.27,1.08,0.697,1.08,1.568
			c0,1.055-1.08,1.797-2.261,1.797c-1.239,0-2.276-0.885-2.276-2.068C557.599,32.253,558.06,31.341,559.283,30.669 M560.723,30.066
			c1.048-0.528,1.762-1.271,1.762-2.212c0-1.313-1.279-2.129-2.586-2.129c-1.436,0-2.6,1.059-2.6,2.386
			c0,0.256,0.029,0.899,0.649,1.569c0.151,0.172,0.667,0.528,1.016,0.771c-0.831,0.414-2.062,1.214-2.062,2.627
			c0,1.513,1.458,2.47,2.959,2.47c1.615,0,2.974-1.185,2.974-2.712c0-0.514-0.156-1.156-0.698-1.755
			C561.864,30.779,561.636,30.637,560.723,30.066L560.723,30.066z M558.66,28.71c-0.655-0.431-0.714-0.917-0.714-1.161
			c0-0.874,0.927-1.475,1.938-1.475c1.039,0,1.952,0.745,1.952,1.775c0,0.816-0.557,1.504-1.412,2.004L558.66,28.71z"/>
		<path clip-path="url(#SVGID_56_)" d="M566.174,34.499c0-0.408-0.339-0.747-0.748-0.747c-0.41,0-0.748,0.338-0.748,0.747
			c0,0.41,0.338,0.749,0.748,0.749C565.835,35.247,566.174,34.909,566.174,34.499"/>
		<path clip-path="url(#SVGID_56_)" d="M571.606,26.098c0-0.343,0-0.373-0.327-0.373c-0.881,0.898-2.132,0.898-2.586,0.898v0.448
			c0.284,0,1.126,0,1.867-0.363v7.405c0,0.514-0.043,0.687-1.326,0.687h-0.456v0.449c0.5-0.044,1.745-0.044,2.317-0.044
			c0.573,0,1.817,0,2.317,0.044v-0.449h-0.463c-1.3,0-1.344-0.157-1.344-0.687"/>
	</g>
	<g>
		<defs>
			<rect id="SVGID_57_" x="675.931" y="109.444" width="16.951" height="9.972"/>
		</defs>
		<clipPath id="SVGID_58_">
			<use xlink:href="#SVGID_57_"  overflow="visible"/>
		</clipPath>
		<path clip-path="url(#SVGID_58_)" d="M681.715,116.098c0-1.692-1.174-3.114-2.72-3.114c-0.687,0-1.303,0.222-1.817,0.704v-2.789
			c0.286,0.088,0.756,0.19,1.214,0.19c1.756,0,2.756-1.305,2.756-1.492c0-0.086-0.042-0.157-0.143-0.157
			c-0.014,0-0.043,0-0.115,0.042c-0.286,0.127-0.986,0.411-1.945,0.411c-0.571,0-1.229-0.099-1.902-0.396
			c-0.114-0.043-0.142-0.043-0.171-0.043c-0.143,0-0.143,0.115-0.143,0.344v4.235c0,0.257,0,0.371,0.199,0.371
			c0.101,0,0.128-0.042,0.186-0.126c0.155-0.228,0.683-0.993,1.837-0.993c0.741,0,1.096,0.655,1.211,0.912
			c0.229,0.527,0.258,1.082,0.258,1.795c0,0.498,0,1.352-0.344,1.951c-0.342,0.555-0.869,0.926-1.524,0.926
			c-1.041,0-1.853-0.752-2.095-1.589c0.042,0.022,0.086,0.042,0.246,0.042c0.478,0,0.725-0.356,0.725-0.697
			c0-0.342-0.239-0.699-0.706-0.699c-0.196,0-0.689,0.1-0.689,0.751c0,1.218,0.981,2.591,2.577,2.591
			C680.261,119.267,681.714,117.903,681.715,116.098"/>
		<path clip-path="url(#SVGID_58_)" d="M685.153,118.218c0-0.408-0.338-0.747-0.747-0.747s-0.747,0.338-0.747,0.747
			c0,0.41,0.338,0.749,0.747,0.749S685.153,118.628,685.153,118.218"/>
		<path clip-path="url(#SVGID_58_)" d="M692.833,116.098c0-1.692-1.175-3.114-2.721-3.114c-0.687,0-1.303,0.222-1.817,0.704v-2.789
			c0.286,0.088,0.758,0.19,1.214,0.19c1.756,0,2.757-1.305,2.757-1.492c0-0.086-0.043-0.157-0.144-0.157
			c-0.014,0-0.043,0-0.114,0.042c-0.286,0.127-0.987,0.411-1.945,0.411c-0.571,0-1.229-0.099-1.901-0.396
			c-0.115-0.043-0.144-0.043-0.173-0.043c-0.143,0-0.143,0.115-0.143,0.344v4.235c0,0.257,0,0.371,0.2,0.371
			c0.1,0,0.128-0.042,0.185-0.126c0.156-0.228,0.683-0.993,1.837-0.993c0.741,0,1.097,0.655,1.211,0.912
			c0.229,0.527,0.258,1.082,0.258,1.795c0,0.498,0,1.352-0.343,1.951c-0.342,0.555-0.869,0.926-1.525,0.926
			c-1.04,0-1.853-0.752-2.095-1.589c0.044,0.022,0.087,0.042,0.246,0.042c0.479,0,0.726-0.356,0.726-0.697
			c0-0.342-0.24-0.699-0.706-0.699c-0.197,0-0.69,0.1-0.69,0.751c0,1.218,0.982,2.591,2.578,2.591
			C691.378,119.267,692.832,117.903,692.833,116.098"/>
	</g>
	<g>
		<defs>
			<rect id="SVGID_59_" x="671.577" y="181.12" width="16.95" height="9.972"/>
		</defs>
		<clipPath id="SVGID_60_">
			<use xlink:href="#SVGID_59_"  overflow="visible"/>
		</clipPath>
		<path clip-path="url(#SVGID_60_)" d="M677.361,187.773c0-1.691-1.175-3.113-2.721-3.113c-0.687,0-1.302,0.222-1.817,0.703v-2.788
			c0.286,0.087,0.756,0.189,1.214,0.189c1.757,0,2.757-1.305,2.757-1.491c0-0.086-0.043-0.158-0.144-0.158
			c-0.014,0-0.042,0-0.114,0.043c-0.286,0.128-0.987,0.411-1.945,0.411c-0.572,0-1.229-0.099-1.902-0.396
			c-0.114-0.043-0.143-0.043-0.172-0.043c-0.143,0-0.143,0.114-0.143,0.344v4.234c0,0.257,0,0.371,0.2,0.371
			c0.1,0,0.128-0.043,0.185-0.127c0.156-0.228,0.684-0.993,1.837-0.993c0.741,0,1.097,0.655,1.211,0.912
			c0.229,0.527,0.259,1.082,0.259,1.795c0,0.498,0,1.353-0.344,1.951c-0.342,0.556-0.869,0.927-1.525,0.927
			c-1.04,0-1.853-0.752-2.095-1.59c0.043,0.022,0.087,0.043,0.246,0.043c0.479,0,0.726-0.357,0.726-0.698
			c0-0.342-0.24-0.698-0.706-0.698c-0.197,0-0.69,0.1-0.69,0.751c0,1.219,0.982,2.592,2.578,2.592
			C675.907,190.943,677.36,189.578,677.361,187.773"/>
		<path clip-path="url(#SVGID_60_)" d="M680.8,189.894c0-0.407-0.338-0.747-0.747-0.747s-0.747,0.338-0.747,0.747
			c0,0.41,0.338,0.749,0.747,0.749S680.8,190.304,680.8,189.894"/>
		<path clip-path="url(#SVGID_60_)" d="M686.233,181.493c0-0.344,0-0.373-0.326-0.373c-0.883,0.897-2.133,0.897-2.588,0.897v0.449
			c0.285,0,1.127,0,1.867-0.364v7.405c0,0.514-0.043,0.687-1.325,0.687h-0.457v0.449c0.502-0.044,1.746-0.044,2.317-0.044
			c0.574,0,1.817,0,2.318,0.044v-0.449h-0.463c-1.3,0-1.344-0.157-1.344-0.687"/>
	</g>
	<g>
		<defs>
			<rect id="SVGID_61_" x="495.255" y="59.038" width="16.95" height="10.47"/>
		</defs>
		<clipPath id="SVGID_62_">
			<use xlink:href="#SVGID_61_"  overflow="visible"/>
		</clipPath>
		<path clip-path="url(#SVGID_62_)" d="M501.415,60.337c0.129-0.172,0.129-0.2,0.129-0.501h-3.476c-1.745,0-1.774-0.183-1.831-0.448
			h-0.358l-0.472,2.948h0.358c0.043-0.231,0.172-1.143,0.356-1.317c0.102-0.086,1.217-0.086,1.402-0.086h2.962
			c-0.157,0.229-1.279,1.788-1.591,2.26c-1.277,1.932-1.746,3.921-1.746,5.379c0,0.144,0,0.786,0.647,0.786
			c0.649,0,0.649-0.643,0.649-0.786v-0.729c0-0.787,0.042-1.573,0.157-2.344c0.056-0.33,0.257-1.56,0.885-2.445"/>
		<path clip-path="url(#SVGID_62_)" d="M504.478,68.311c0-0.409-0.339-0.749-0.748-0.749c-0.408,0-0.747,0.34-0.747,0.749
			c0,0.409,0.339,0.748,0.747,0.748C504.139,69.059,504.478,68.72,504.478,68.311"/>
		<path clip-path="url(#SVGID_62_)" d="M509.911,59.909c0-0.343,0-0.373-0.327-0.373c-0.882,0.897-2.132,0.897-2.587,0.897v0.449
			c0.284,0,1.127,0,1.867-0.364v7.405c0,0.514-0.043,0.687-1.326,0.687h-0.456v0.449c0.501-0.043,1.745-0.043,2.317-0.043
			c0.573,0,1.817,0,2.317,0.043v-0.449h-0.462c-1.301,0-1.344-0.157-1.344-0.687"/>
	</g>
	<g>
		<defs>
			<rect id="SVGID_63_" x="412.697" y="177.642" width="16.95" height="10.471"/>
		</defs>
		<clipPath id="SVGID_64_">
			<use xlink:href="#SVGID_63_"  overflow="visible"/>
		</clipPath>
		<path clip-path="url(#SVGID_64_)" d="M418.857,178.941c0.129-0.173,0.129-0.2,0.129-0.501h-3.475
			c-1.746,0-1.775-0.183-1.832-0.448h-0.358l-0.472,2.948h0.358c0.043-0.231,0.172-1.144,0.357-1.317
			c0.101-0.086,1.216-0.086,1.401-0.086h2.962c-0.157,0.229-1.279,1.788-1.591,2.26c-1.277,1.932-1.745,3.921-1.745,5.379
			c0,0.144,0,0.786,0.647,0.786c0.648,0,0.648-0.643,0.648-0.786v-0.729c0-0.787,0.043-1.573,0.157-2.345
			c0.056-0.33,0.257-1.56,0.885-2.445"/>
		<path clip-path="url(#SVGID_64_)" d="M421.92,186.915c0-0.408-0.339-0.748-0.747-0.748c-0.409,0-0.748,0.34-0.748,0.748
			c0,0.409,0.339,0.748,0.748,0.748C421.581,187.663,421.92,187.324,421.92,186.915"/>
		<path clip-path="url(#SVGID_64_)" d="M429.598,185.174h-0.359c-0.071,0.431-0.171,1.062-0.314,1.277
			c-0.101,0.115-1.046,0.115-1.361,0.115h-2.579l1.521-1.473c2.234-1.975,3.094-2.748,3.094-4.178c0-1.631-1.294-2.775-3.047-2.775
			c-1.622,0-2.686,1.314-2.686,2.589c0,0.801,0.712,0.801,0.754,0.801c0.244,0,0.741-0.17,0.741-0.754
			c0-0.372-0.252-0.741-0.738-0.741c-0.112,0-0.141,0-0.182,0c0.33-0.921,1.105-1.446,1.938-1.446c1.307,0,1.925,1.158,1.925,2.329
			c0,1.145-0.721,2.272-1.515,3.159l-2.764,3.058c-0.158,0.155-0.158,0.185-0.158,0.528h5.328"/>
	</g>
	<g>
		<defs>
			<rect id="SVGID_65_" x="392.755" y="89.028" width="17.449" height="10.47"/>
		</defs>
		<clipPath id="SVGID_66_">
			<use xlink:href="#SVGID_65_"  overflow="visible"/>
		</clipPath>
		<path clip-path="url(#SVGID_66_)" d="M398.916,90.327c0.129-0.172,0.129-0.201,0.129-0.501h-3.476
			c-1.746,0-1.775-0.183-1.831-0.449h-0.357l-0.473,2.949h0.358c0.042-0.231,0.171-1.143,0.357-1.317
			c0.1-0.086,1.215-0.086,1.401-0.086h2.961c-0.157,0.229-1.278,1.788-1.591,2.26c-1.276,1.932-1.745,3.92-1.745,5.378
			c0,0.144,0,0.787,0.648,0.787c0.647,0,0.647-0.643,0.647-0.787v-0.729c0-0.786,0.043-1.572,0.157-2.344
			c0.057-0.33,0.257-1.559,0.885-2.445"/>
		<path clip-path="url(#SVGID_66_)" d="M401.979,98.301c0-0.409-0.338-0.749-0.748-0.749c-0.409,0-0.748,0.339-0.748,0.749
			s0.339,0.748,0.748,0.748C401.639,99.049,401.979,98.71,401.979,98.301"/>
		<path clip-path="url(#SVGID_66_)" d="M407.373,94.009c1.161-0.384,1.984-1.384,1.984-2.511c0-1.171-1.253-1.972-2.618-1.972
			c-1.437,0-2.518,0.859-2.518,1.948c0,0.473,0.312,0.744,0.724,0.744c0.439,0,0.723-0.314,0.723-0.729
			c0-0.716-0.671-0.716-0.884-0.716c0.443-0.709,1.388-0.898,1.902-0.898c0.587,0,1.374,0.317,1.374,1.61
			c0,0.173-0.028,1.005-0.4,1.639c-0.43,0.689-0.916,0.732-1.274,0.746c-0.114,0.015-0.457,0.044-0.559,0.044
			c-0.113,0.013-0.214,0.025-0.214,0.156c0,0.142,0.1,0.142,0.34,0.142h0.623c1.16,0,1.685,0.975,1.685,2.377
			c0,1.946-0.98,2.36-1.605,2.36c-0.61,0-1.675-0.24-2.172-1.073c0.496,0.07,0.936-0.241,0.936-0.777
			c0-0.509-0.385-0.792-0.798-0.792c-0.342,0-0.797,0.199-0.797,0.822c0,1.287,1.329,2.22,2.887,2.22
			c1.743,0,3.044-1.299,3.044-2.754C409.755,95.423,408.857,94.309,407.373,94.009"/>
	</g>
	<g>
		<defs>
			<rect id="SVGID_67_" x="680.917" y="66.765" width="17.948" height="9.972"/>
		</defs>
		<clipPath id="SVGID_68_">
			<use xlink:href="#SVGID_67_"  overflow="visible"/>
		</clipPath>
		<path clip-path="url(#SVGID_68_)" d="M684.246,72.848c-0.228,0-0.884,0-1.327-0.903c-0.257-0.53-0.257-1.248-0.257-1.95
			c0-0.773,0-1.447,0.3-1.978c0.386-0.717,0.927-0.903,1.428-0.903c0.657,0,1.127,0.487,1.37,1.132
			c0.172,0.459,0.229,1.362,0.229,2.022C685.988,71.458,685.503,72.848,684.246,72.848 M686.002,71.739v0.457
			c0,3.337-1.482,3.994-2.308,3.994c-0.242,0-1.012-0.028-1.396-0.5c0.603,0,0.713-0.408,0.713-0.647
			c0-0.437-0.339-0.649-0.649-0.649c-0.224,0-0.647,0.128-0.647,0.677c0,0.942,0.774,1.518,1.99,1.518
			c1.847,0,3.594-1.941,3.594-5.01c0-3.839-1.644-4.812-2.916-4.812c-0.786,0-1.487,0.258-2.101,0.898
			c-0.587,0.642-0.915,1.239-0.915,2.307c0,1.781,1.256,3.176,2.853,3.176C685.091,73.146,685.675,72.556,686.002,71.739
			L686.002,71.739z"/>
		<path clip-path="url(#SVGID_68_)" d="M690.639,75.539c0-0.408-0.339-0.748-0.748-0.748s-0.747,0.338-0.747,0.748
			c0,0.41,0.338,0.749,0.747,0.749S690.639,75.949,690.639,75.539"/>
		<path clip-path="url(#SVGID_68_)" d="M694.865,71.709c0.404,0.244,1.081,0.671,1.772,1.114c0.403,0.271,1.081,0.698,1.081,1.568
			c0,1.055-1.081,1.798-2.262,1.798c-1.239,0-2.276-0.885-2.276-2.068c0-0.828,0.462-1.739,1.687-2.411 M696.306,71.106
			c1.048-0.528,1.763-1.271,1.763-2.212c0-1.313-1.281-2.129-2.587-2.129c-1.437,0-2.599,1.059-2.599,2.386
			c0,0.256,0.029,0.899,0.647,1.57c0.153,0.171,0.667,0.528,1.017,0.771c-0.831,0.414-2.063,1.213-2.063,2.626
			c0,1.513,1.458,2.47,2.959,2.47c1.615,0,2.975-1.185,2.975-2.712c0-0.514-0.156-1.156-0.698-1.755
			C697.447,71.819,697.22,71.677,696.306,71.106L696.306,71.106z M694.242,69.75c-0.654-0.431-0.712-0.917-0.712-1.161
			c0-0.874,0.925-1.475,1.938-1.475c1.04,0,1.951,0.746,1.951,1.776c0,0.816-0.556,1.504-1.41,2.004L694.242,69.75z"/>
	</g>
	<g>
		<defs>
			<rect id="SVGID_69_" x="654.493" y="44.331" width="17.948" height="9.971"/>
		</defs>
		<clipPath id="SVGID_70_">
			<use xlink:href="#SVGID_69_"  overflow="visible"/>
		</clipPath>
		<path clip-path="url(#SVGID_70_)" d="M657.822,50.413c-0.228,0-0.884,0-1.327-0.903c-0.257-0.529-0.257-1.246-0.257-1.948
			c0-0.774,0-1.448,0.3-1.978c0.386-0.717,0.928-0.903,1.428-0.903c0.657,0,1.127,0.487,1.37,1.132
			c0.172,0.459,0.229,1.362,0.229,2.022c0,1.189-0.486,2.581-1.742,2.581 M659.578,49.304v0.458c0,3.336-1.482,3.993-2.308,3.993
			c-0.242,0-1.012-0.028-1.396-0.5c0.604,0,0.713-0.408,0.713-0.647c0-0.437-0.339-0.647-0.649-0.647
			c-0.224,0-0.647,0.126-0.647,0.675c0,0.942,0.774,1.519,1.99,1.519c1.847,0,3.595-1.941,3.595-5.01
			c0-3.84-1.645-4.812-2.917-4.812c-0.786,0-1.487,0.257-2.101,0.898c-0.587,0.642-0.915,1.239-0.915,2.308
			c0,1.779,1.256,3.175,2.853,3.175C658.667,50.712,659.251,50.121,659.578,49.304L659.578,49.304z"/>
		<path clip-path="url(#SVGID_70_)" d="M664.215,53.105c0-0.409-0.339-0.749-0.747-0.749c-0.409,0-0.748,0.34-0.748,0.749
			c0,0.409,0.339,0.748,0.748,0.748C663.876,53.853,664.215,53.514,664.215,53.105"/>
		<path clip-path="url(#SVGID_70_)" d="M669.044,53.754c-0.897,0-1.324-0.857-1.41-1.071c-0.256-0.67-0.256-1.813-0.256-2.07
			c0-1.114,0.455-2.542,1.737-2.542c0.228,0,0.882,0,1.324,0.886c0.257,0.528,0.257,1.257,0.257,1.958c0,0.685,0,1.398-0.242,1.913
			C670.026,53.683,669.37,53.754,669.044,53.754 M667.354,49.162v-0.345c0-3.621,1.772-4.137,2.5-4.137
			c0.343,0,0.942,0.089,1.258,0.599c-0.209,0-0.766,0-0.766,0.641c0,0.442,0.338,0.655,0.648,0.655c0.226,0,0.649-0.129,0.649-0.689
			c0-0.864-0.631-1.554-1.82-1.554c-1.831,0-3.765,1.843-3.765,4.997c0,3.811,1.658,4.825,2.987,4.825
			c1.587,0,2.945-1.336,2.945-3.212c0-1.805-1.271-3.169-2.853-3.169C668.168,47.771,667.641,48.487,667.354,49.162z"/>
	</g>
	<g>
		<defs>
			<rect id="SVGID_71_" x="510.599" y="221.005" width="16.95" height="9.971"/>
		</defs>
		<clipPath id="SVGID_72_">
			<use xlink:href="#SVGID_71_"  overflow="visible"/>
		</clipPath>
		<path clip-path="url(#SVGID_72_)" d="M516.381,228.038h-0.358c-0.072,0.431-0.172,1.062-0.315,1.277
			c-0.1,0.114-1.046,0.114-1.361,0.114h-2.579l1.521-1.473c2.234-1.974,3.094-2.747,3.094-4.177c0-1.631-1.294-2.775-3.046-2.775
			c-1.624,0-2.687,1.315-2.687,2.589c0,0.801,0.712,0.801,0.755,0.801c0.243,0,0.741-0.17,0.741-0.755
			c0-0.37-0.252-0.741-0.739-0.741c-0.112,0-0.14,0-0.182,0c0.33-0.92,1.105-1.445,1.938-1.445c1.306,0,1.924,1.158,1.924,2.33
			c0,1.144-0.722,2.271-1.514,3.158l-2.765,3.058c-0.159,0.156-0.159,0.185-0.159,0.527h5.33"/>
		<path clip-path="url(#SVGID_72_)" d="M519.821,229.779c0-0.409-0.339-0.748-0.748-0.748c-0.408,0-0.747,0.339-0.747,0.748
			s0.339,0.747,0.747,0.747C519.482,230.526,519.821,230.188,519.821,229.779"/>
		<path clip-path="url(#SVGID_72_)" d="M525.255,221.377c0-0.342,0-0.372-0.327-0.372c-0.882,0.897-2.132,0.897-2.587,0.897v0.448
			c0.284,0,1.127,0,1.867-0.363v7.405c0,0.515-0.043,0.687-1.326,0.687h-0.456v0.449c0.501-0.044,1.745-0.044,2.317-0.044
			c0.573,0,1.817,0,2.317,0.044v-0.449h-0.462c-1.301,0-1.344-0.157-1.344-0.686"/>
	</g>
	<g>
		<defs>
			<rect id="SVGID_73_" x="667.206" y="213.027" width="17.949" height="10.471"/>
		</defs>
		<clipPath id="SVGID_74_">
			<use xlink:href="#SVGID_73_"  overflow="visible"/>
		</clipPath>
		<path clip-path="url(#SVGID_74_)" d="M671.345,220.256h-3.487l3.487-5.347 M667.458,220.705h3.788v1.23
			c0,0.509-0.029,0.665-1.073,0.665h-0.297v0.449c0.586-0.044,1.33-0.044,1.93-0.044c0.602,0,1.36,0,1.945,0.044v-0.449h-0.306
			c-1.074,0-1.104-0.156-1.104-0.665v-1.23h1.453v-0.449h-1.453v-6.506c0-0.287,0-0.373-0.229-0.373c-0.128,0-0.171,0-0.284,0.172
			l-4.372,6.707L667.458,220.705z"/>
		<path clip-path="url(#SVGID_74_)" d="M676.928,222.301c0-0.408-0.338-0.748-0.747-0.748s-0.747,0.34-0.747,0.748
			c0,0.409,0.338,0.748,0.747,0.748S676.928,222.71,676.928,222.301"/>
		<path clip-path="url(#SVGID_74_)" d="M681.758,222.95c-0.898,0-1.324-0.857-1.411-1.071c-0.255-0.671-0.255-1.813-0.255-2.07
			c0-1.114,0.455-2.543,1.736-2.543c0.228,0,0.883,0,1.324,0.886c0.257,0.528,0.257,1.258,0.257,1.956c0,0.687,0,1.4-0.242,1.914
			C682.74,222.878,682.084,222.95,681.758,222.95 M680.068,218.357v-0.345c0-3.621,1.772-4.138,2.5-4.138
			c0.342,0,0.942,0.09,1.258,0.599c-0.21,0-0.766,0-0.766,0.643c0,0.44,0.338,0.655,0.648,0.655c0.226,0,0.648-0.13,0.648-0.691
			c0-0.862-0.63-1.554-1.819-1.554c-1.832,0-3.765,1.843-3.765,4.998c0,3.811,1.657,4.825,2.987,4.825
			c1.587,0,2.945-1.337,2.945-3.213c0-1.806-1.271-3.169-2.854-3.169C680.882,216.968,680.354,217.684,680.068,218.357z"/>
	</g>
	<g>
		<defs>
			<rect id="SVGID_75_" x="480.228" y="166.46" width="17.948" height="10.47"/>
		</defs>
		<clipPath id="SVGID_76_">
			<use xlink:href="#SVGID_75_"  overflow="visible"/>
		</clipPath>
		<path clip-path="url(#SVGID_76_)" d="M484.366,173.688h-3.487l3.487-5.348 M480.479,174.138h3.788v1.23
			c0,0.509-0.029,0.664-1.074,0.664h-0.297v0.449c0.587-0.044,1.33-0.044,1.931-0.044c0.602,0,1.359,0,1.945,0.044v-0.449h-0.306
			c-1.075,0-1.104-0.155-1.104-0.664v-1.23h1.454v-0.449h-1.454v-6.506c0-0.287,0-0.374-0.229-0.374c-0.128,0-0.17,0-0.283,0.172
			l-4.372,6.708L480.479,174.138z"/>
		<path clip-path="url(#SVGID_76_)" d="M489.949,175.733c0-0.409-0.339-0.749-0.748-0.749c-0.408,0-0.747,0.34-0.747,0.749
			s0.339,0.747,0.747,0.747C489.61,176.48,489.949,176.143,489.949,175.733"/>
		<path clip-path="url(#SVGID_76_)" d="M494.778,176.382c-0.897,0-1.324-0.856-1.41-1.071c-0.256-0.67-0.256-1.813-0.256-2.07
			c0-1.113,0.455-2.543,1.737-2.543c0.228,0,0.882,0,1.324,0.887c0.257,0.528,0.257,1.257,0.257,1.956c0,0.687,0,1.399-0.242,1.913
			C495.761,176.311,495.104,176.382,494.778,176.382 M493.089,171.789v-0.344c0-3.621,1.772-4.139,2.501-4.139
			c0.342,0,0.941,0.09,1.257,0.599c-0.209,0-0.766,0-0.766,0.643c0,0.441,0.339,0.655,0.648,0.655c0.226,0,0.649-0.129,0.649-0.691
			c0-0.861-0.631-1.553-1.82-1.553c-1.831,0-3.765,1.843-3.765,4.997c0,3.812,1.658,4.825,2.987,4.825
			c1.587,0,2.945-1.337,2.945-3.212c0-1.807-1.271-3.17-2.853-3.17C493.902,170.399,493.375,171.115,493.089,171.789z"/>
	</g>
	<g>
		<defs>
			<rect id="SVGID_77_" x="390.262" y="129.044" width="17.949" height="9.972"/>
		</defs>
		<clipPath id="SVGID_78_">
			<use xlink:href="#SVGID_77_"  overflow="visible"/>
		</clipPath>
		<path clip-path="url(#SVGID_78_)" d="M393.094,133.989c0.403,0.244,1.08,0.671,1.771,1.114c0.403,0.271,1.081,0.697,1.081,1.568
			c0,1.055-1.081,1.798-2.262,1.798c-1.238,0-2.275-0.885-2.275-2.068C391.409,135.572,391.87,134.661,393.094,133.989
			 M394.533,133.385c1.048-0.528,1.762-1.271,1.762-2.212c0-1.313-1.279-2.129-2.586-2.129c-1.437,0-2.599,1.059-2.599,2.386
			c0,0.256,0.029,0.899,0.647,1.57c0.153,0.171,0.667,0.528,1.017,0.771c-0.831,0.414-2.063,1.213-2.063,2.626
			c0,1.513,1.459,2.47,2.959,2.47c1.615,0,2.974-1.185,2.974-2.712c0-0.514-0.155-1.156-0.697-1.755
			C395.675,134.099,395.446,133.956,394.533,133.385L394.533,133.385z M392.47,132.029c-0.654-0.431-0.712-0.917-0.712-1.161
			c0-0.874,0.926-1.475,1.937-1.475c1.041,0,1.953,0.746,1.953,1.776c0,0.816-0.557,1.504-1.411,2.004L392.47,132.029z"/>
		<path clip-path="url(#SVGID_78_)" d="M399.983,137.818c0-0.408-0.338-0.748-0.747-0.748s-0.747,0.338-0.747,0.748
			c0,0.41,0.338,0.749,0.747,0.749S399.983,138.229,399.983,137.818"/>
		<path clip-path="url(#SVGID_78_)" d="M404.813,138.468c-0.898,0-1.324-0.857-1.41-1.071c-0.256-0.672-0.256-1.813-0.256-2.072
			c0-1.112,0.455-2.542,1.736-2.542c0.228,0,0.883,0,1.324,0.886c0.257,0.528,0.257,1.256,0.257,1.956c0,0.685,0,1.4-0.242,1.914
			C405.796,138.396,405.14,138.468,404.813,138.468 M403.124,133.875v-0.343c0-3.621,1.772-4.138,2.5-4.138
			c0.342,0,0.942,0.089,1.258,0.599c-0.21,0-0.766,0-0.766,0.642c0,0.441,0.338,0.655,0.648,0.655c0.226,0,0.648-0.129,0.648-0.69
			c0-0.863-0.63-1.554-1.819-1.554c-1.832,0-3.765,1.843-3.765,4.998c0,3.811,1.658,4.825,2.987,4.825
			c1.587,0,2.945-1.336,2.945-3.213c0-1.805-1.271-3.169-2.854-3.169C403.938,132.484,403.41,133.201,403.124,133.875z"/>
	</g>
	<g>
		<defs>
			<rect id="SVGID_79_" x="390.655" y="211.034" width="17.948" height="9.971"/>
		</defs>
		<clipPath id="SVGID_80_">
			<use xlink:href="#SVGID_79_"  overflow="visible"/>
		</clipPath>
		<path clip-path="url(#SVGID_80_)" d="M393.486,215.978c0.404,0.244,1.081,0.671,1.772,1.114c0.402,0.271,1.081,0.697,1.081,1.567
			c0,1.056-1.081,1.798-2.262,1.798c-1.239,0-2.276-0.885-2.276-2.068C391.802,217.562,392.264,216.649,393.486,215.978
			 M394.927,215.374c1.048-0.528,1.761-1.271,1.761-2.213c0-1.312-1.279-2.127-2.585-2.127c-1.437,0-2.599,1.058-2.599,2.385
			c0,0.256,0.029,0.898,0.647,1.569c0.153,0.172,0.667,0.528,1.017,0.771c-0.832,0.414-2.063,1.214-2.063,2.627
			c0,1.513,1.458,2.47,2.959,2.47c1.615,0,2.974-1.185,2.974-2.712c0-0.514-0.156-1.156-0.697-1.756
			C396.068,216.088,395.839,215.945,394.927,215.374L394.927,215.374z M392.863,214.019c-0.655-0.432-0.712-0.917-0.712-1.161
			c0-0.873,0.925-1.476,1.937-1.476c1.041,0,1.952,0.746,1.952,1.777c0,0.815-0.557,1.503-1.41,2.003L392.863,214.019z"/>
		<path clip-path="url(#SVGID_80_)" d="M400.377,219.808c0-0.408-0.339-0.748-0.747-0.748c-0.409,0-0.748,0.339-0.748,0.748
			c0,0.41,0.339,0.748,0.748,0.748C400.038,220.556,400.377,220.218,400.377,219.808"/>
		<path clip-path="url(#SVGID_80_)" d="M404.604,215.978c0.403,0.244,1.08,0.671,1.771,1.114c0.403,0.271,1.081,0.697,1.081,1.567
			c0,1.056-1.081,1.798-2.262,1.798c-1.238,0-2.275-0.885-2.275-2.068C402.92,217.562,403.381,216.649,404.604,215.978
			 M406.044,215.374c1.048-0.528,1.763-1.271,1.763-2.213c0-1.312-1.28-2.127-2.587-2.127c-1.436,0-2.599,1.058-2.599,2.385
			c0,0.256,0.029,0.898,0.647,1.569c0.153,0.172,0.667,0.528,1.017,0.771c-0.831,0.414-2.063,1.214-2.063,2.627
			c0,1.513,1.459,2.47,2.959,2.47c1.615,0,2.976-1.185,2.976-2.712c0-0.514-0.157-1.156-0.699-1.756
			C407.186,216.088,406.958,215.945,406.044,215.374L406.044,215.374z M403.981,214.019c-0.655-0.432-0.713-0.917-0.713-1.161
			c0-0.873,0.926-1.476,1.938-1.476c1.039,0,1.951,0.746,1.951,1.777c0,0.815-0.557,1.503-1.411,2.003L403.981,214.019z"/>
	</g>
	<g>
		<defs>
			<rect id="SVGID_81_" x="457.979" y="218.512" width="6.48" height="9.972"/>
		</defs>
		<clipPath id="SVGID_82_">
			<use xlink:href="#SVGID_81_"  overflow="visible"/>
		</clipPath>
		<path clip-path="url(#SVGID_82_)" d="M461.777,222.995c1.162-0.386,1.984-1.384,1.984-2.513c0-1.171-1.253-1.972-2.618-1.972
			c-1.437,0-2.518,0.859-2.518,1.947c0,0.474,0.312,0.745,0.724,0.745c0.438,0,0.723-0.315,0.723-0.729
			c0-0.718-0.67-0.718-0.884-0.718c0.444-0.708,1.388-0.896,1.903-0.896c0.587,0,1.373,0.316,1.373,1.61
			c0,0.173-0.029,1.005-0.4,1.637c-0.43,0.69-0.916,0.733-1.272,0.747c-0.116,0.015-0.459,0.044-0.56,0.044
			c-0.114,0.013-0.214,0.026-0.214,0.156c0,0.143,0.099,0.143,0.34,0.143h0.622c1.159,0,1.685,0.975,1.685,2.377
			c0,1.945-0.98,2.36-1.604,2.36c-0.611,0-1.675-0.24-2.173-1.074c0.497,0.071,0.937-0.24,0.937-0.777
			c0-0.509-0.386-0.791-0.799-0.791c-0.342,0-0.797,0.198-0.797,0.82c0,1.288,1.329,2.221,2.887,2.221
			c1.743,0,3.046-1.298,3.046-2.754C464.161,224.408,463.261,223.294,461.777,222.995"/>
	</g>
	<polygon points="655.244,151.683 654.291,150.322 657.499,148.075 655.253,144.868 656.613,143.915 659.812,148.484 	"/>
	<polygon points="684.483,129.634 684.04,131.234 680.266,130.189 679.22,133.963 677.619,133.52 679.108,128.145 	"/>
	<polygon points="640.452,107.245 641.986,106.61 643.483,110.229 647.103,108.731 647.736,110.266 642.583,112.398 	"/>
	<polygon points="545.559,180.997 547.051,181.728 545.329,185.245 548.847,186.965 548.118,188.459 543.108,186.008 	"/>
	<polygon points="522.653,219.024 522.505,217.371 526.406,217.021 526.054,213.12 527.709,212.973 528.208,218.526 	"/>
	<polygon points="564.322,214.957 562.859,215.743 561.005,212.294 557.557,214.147 556.771,212.685 561.684,210.043 	"/>
	<polygon points="446.05,182.632 447.594,182.02 449.038,185.659 452.678,184.216 453.29,185.761 448.106,187.816 	"/>
	<polygon points="459.885,217.636 458.412,216.867 460.225,213.396 456.753,211.584 457.521,210.111 462.465,212.691 	"/>
	<polygon points="487.846,178.988 487.955,180.645 484.048,180.903 484.306,184.811 482.648,184.921 482.279,179.355 	"/>
	<polygon points="452.209,78.635 453.866,78.511 454.156,82.416 458.062,82.125 458.187,83.781 452.624,84.197 	"/>
	<polygon points="456.502,117.462 455.521,116.122 458.681,113.808 456.367,110.649 457.707,109.667 461.002,114.167 	"/>
	<polygon points="503.072,98.63 502.776,100.265 498.923,99.566 498.226,103.419 496.591,103.124 497.584,97.635 	"/>
	<polygon points="479.346,20.644 480.787,19.819 482.734,23.216 486.132,21.269 486.958,22.71 482.12,25.483 	"/>
	<polygon points="499.239,60.505 497.875,59.559 500.105,56.34 496.887,54.11 497.833,52.745 502.417,55.921 	"/>
	<polygon points="521.182,27.209 521.029,28.864 517.13,28.506 516.771,32.406 515.118,32.254 515.628,26.7 	"/>
	<polygon points="433.075,158.345 434.354,159.404 431.854,162.419 434.868,164.919 433.807,166.196 429.514,162.637 	"/>
	<polygon points="404.615,189.682 404.861,188.039 408.734,188.618 409.312,184.744 410.955,184.99 410.132,190.506 	"/>
	<polygon points="449.654,231.559 449.714,233.219 445.801,233.359 445.942,237.273 444.28,237.333 444.082,231.759 	"/>
	<polygon points="422.522,246.316 423.968,245.499 425.896,248.907 429.305,246.98 430.121,248.426 425.267,251.171 	"/>
	<polygon points="576.412,252.307 575.733,250.792 579.306,249.189 577.704,245.616 579.221,244.937 581.501,250.026 	"/>
	<polygon points="593.274,211.242 592.722,212.81 589.028,211.51 587.729,215.204 586.161,214.652 588.012,209.391 	"/>
	<polygon points="663.812,190.32 662.151,190.32 662.15,186.404 658.234,186.405 658.234,184.744 663.812,184.743 	"/>
	<polygon points="631.042,170.16 631.957,168.773 635.226,170.932 637.383,167.663 638.77,168.578 635.696,173.233 	"/>
	<polygon points="699.082,233.9 700.717,233.612 701.398,237.469 705.254,236.788 705.543,238.424 700.05,239.393 	"/>
	<polygon points="619.605,192.221 620.229,193.76 616.601,195.232 618.072,198.86 616.533,199.485 614.437,194.317 	"/>
	<polygon points="628.82,240.589 627.235,241.088 626.06,237.353 622.325,238.528 621.826,236.943 627.146,235.269 	"/>
	<polygon points="507.537,148.548 508.851,147.53 511.25,150.627 514.345,148.229 515.362,149.542 510.952,152.957 	"/>
	<polygon points="555.549,155.435 555.601,157.094 551.687,157.219 551.812,161.133 550.153,161.186 549.974,155.612 	"/>
	<polygon points="604.741,152.824 606.344,153.262 605.314,157.04 609.094,158.069 608.656,159.673 603.274,158.206 	"/>
	<polygon points="410.202,146.572 408.569,146.883 407.838,143.034 403.992,143.766 403.682,142.134 409.161,141.092 	"/>
	<polygon points="404.878,101.881 405.87,103.213 402.731,105.553 405.07,108.693 403.739,109.686 400.406,105.214 	"/>
	<polygon points="490.736,134.045 492.369,134.354 491.641,138.202 495.488,138.93 495.179,140.562 489.699,139.525 	"/>
	<polygon points="440.517,134.388 440.939,132.782 444.726,133.778 445.723,129.992 447.329,130.414 445.91,135.808 	"/>
	<polygon points="547.243,26.145 545.747,26.867 544.044,23.341 540.518,25.044 539.795,23.548 544.816,21.123 	"/>
	<polygon points="652.489,230.793 652.899,229.185 656.693,230.15 657.661,226.356 659.271,226.766 657.894,232.17 	"/>
	<polygon points="691.229,207.683 692.263,208.981 689.198,211.421 691.638,214.485 690.338,215.52 686.864,211.155 	"/>
	<polygon points="570.583,38.586 571.969,39.504 569.805,42.768 573.068,44.931 572.152,46.315 567.503,43.235 	"/>
	<polygon points="548.78,72.57 548.92,70.915 552.822,71.244 553.152,67.342 554.808,67.482 554.338,73.04 	"/>
	<polygon points="590.391,78.417 588.952,79.247 586.997,75.854 583.604,77.808 582.774,76.368 587.608,73.585 	"/>
	<polygon points="578.678,150.075 577.385,151.118 574.925,148.071 571.878,150.531 570.835,149.239 575.176,145.736 	"/>
	<polygon points="553.157,106.83 554.619,107.618 552.759,111.064 556.206,112.924 555.417,114.386 550.509,111.738 	"/>
	<polygon points="647.692,39.752 648.8,38.515 651.718,41.127 654.331,38.21 655.569,39.318 651.849,43.474 	"/>
	<polygon points="677.936,72.35 676.299,72.068 676.962,68.209 673.103,67.545 673.384,65.909 678.882,66.854 	"/>
	<polygon points="688.364,29.021 688.842,30.612 685.091,31.738 686.218,35.489 684.627,35.967 683.021,30.625 	"/>
	<polygon points="524.097,74.539 525.543,73.721 527.471,77.129 530.879,75.202 531.697,76.647 526.842,79.394 	"/>
	<polygon points="678.808,94.868 677.979,93.428 681.373,91.475 679.421,88.081 680.86,87.252 683.642,92.086 	"/>
	<polygon points="709.641,17.926 708.663,19.268 705.499,16.961 703.191,20.125 701.85,19.147 705.135,14.64 	"/>
	<polygon points="387.336,182.083 385.729,182.504 384.737,178.718 380.948,179.708 380.528,178.102 385.923,176.688 	"/>
	<polygon points="400.374,62.936 398.714,62.96 398.656,59.045 394.74,59.103 394.716,57.441 400.293,57.359 	"/>
	<polygon points="384.776,35.195 385.127,36.819 381.298,37.645 382.124,41.473 380.5,41.823 379.323,36.371 	"/>
	<polygon points="446.291,54.078 447.308,55.391 444.212,57.788 446.609,60.885 445.294,61.901 441.882,57.491 	"/>
	<polygon points="412.094,78.468 412.675,76.913 416.343,78.285 417.715,74.617 419.27,75.199 417.316,80.423 	"/>
	<polygon points="497.015,246.618 495.588,247.47 493.58,244.108 490.218,246.116 489.366,244.691 494.154,241.831 	"/>
	<polygon points="443.469,14.909 443.211,16.551 439.343,15.943 438.733,19.811 437.093,19.554 437.96,14.044 	"/>
	<polygon points="460.055,37.678 459.796,39.319 455.928,38.711 455.32,42.58 453.679,42.322 454.545,36.812 	"/>
	<polygon points="412.289,19.683 413.785,18.96 415.488,22.486 419.015,20.784 419.737,22.279 414.715,24.705 	"/>
	<polygon points="611.635,123.754 611.812,125.405 607.92,125.827 608.341,129.72 606.689,129.898 606.091,124.354 	"/>
	<polygon points="627.343,86.86 628.77,87.709 626.766,91.074 630.131,93.077 629.281,94.505 624.488,91.652 	"/>
	<polygon points="586.358,13.048 586.025,14.675 582.188,13.89 581.404,17.726 579.776,17.393 580.894,11.929 	"/>
	<polygon points="537.676,251.263 536.106,250.72 537.386,247.019 533.686,245.739 534.229,244.169 539.499,245.992 	"/>
	<polygon points="699.792,180.764 700.46,179.242 704.044,180.817 705.619,177.231 707.14,177.899 704.898,183.006 	"/>
	<polygon points="411.541,227.277 410.286,226.188 412.851,223.229 409.891,220.665 410.979,219.409 415.193,223.061 	"/>
	<polygon points="636.415,64.481 636.569,66.135 632.67,66.498 633.033,70.397 631.379,70.551 630.862,64.998 	"/>
	<polygon points="624.479,20.261 626.038,20.832 624.689,24.509 628.367,25.857 627.796,27.416 622.56,25.497 	"/>
</g>
</svg>
