<?xml version="1.0" encoding="utf-8"?>
<!-- Generator: Adobe Illustrator 14.0.0, SVG Export Plug-In . SVG Version: 6.00 Build 43363)  -->
<!DOCTYPE svg PUBLIC "-//W3C//DTD SVG 1.1//EN" "http://www.w3.org/Graphics/SVG/1.1/DTD/svg11.dtd">
<svg version="1.1" id="Layer_1" xmlns="http://www.w3.org/2000/svg" xmlns:xlink="http://www.w3.org/1999/xlink" x="0px" y="0px"
	 width="469.477px" height="283.486px" viewBox="0 0 469.477 283.486" enable-background="new 0 0 469.477 283.486"
	 xml:space="preserve">
<polygon opacity="0.2" fill="#1B1F8A" enable-background="new    " points="54.228,220.902 454.788,220.902 339.978,19.347 "/>
<polygon fill="none" stroke="#000000" stroke-width="1.8889" enable-background="new    " points="54.228,220.902 454.788,220.902 
	339.978,19.347 "/>
<g>
	<defs>
		<rect id="SVGID_1_" x="54.396" y="231.902" width="397" height="36.32"/>
	</defs>
	<clipPath id="SVGID_2_">
		<use xlink:href="#SVGID_1_"  overflow="visible"/>
	</clipPath>
	<path clip-path="url(#SVGID_2_)" d="M69.095,239.296c0-0.651,0-0.793-0.403-0.793c-1.752-0.029-4.594-0.262-7.178-1.537
		c-3.101-1.563-4.279-3.39-4.996-4.52c-0.086-0.145-0.259-0.145-0.632-0.145c-0.661,0-0.689,0.03-0.689,0.748v0.461
		c3.905,7.039,10.365,8.39,13.294,8.39c0.604,0,0.604-0.028,0.604-0.793"/>
	<rect x="68.78" y="238.471" clip-path="url(#SVGID_2_)" width="171.167" height="3.442"/>
	<path clip-path="url(#SVGID_2_)" d="M253.597,246.808c-3.902-6.969-10.358-8.305-13.284-8.305c-0.603,0-0.603,0.028-0.603,0.793
		v1.812c0,0.652,0,0.793,0.402,0.793c1.75,0.03,4.591,0.257,7.173,1.512c3.099,1.539,4.275,3.335,4.993,4.446
		c0.086,0.144,0.258,0.144,0.631,0.144c0.66,0,0.689-0.029,0.689-0.739"/>
	<path clip-path="url(#SVGID_2_)" d="M266.095,239.296c0-0.764,0-0.793-0.604-0.793c-2.929,0-9.389,1.365-13.294,8.305v0.455
		c0,0.711,0.029,0.738,0.688,0.738c0.546,0,0.574-0.028,0.719-0.228c2.355-3.734,6.316-5.757,12.146-5.873
		c0.345,0,0.345-0.198,0.345-0.793"/>
	<rect x="265.771" y="238.471" clip-path="url(#SVGID_2_)" width="171.167" height="3.442"/>
	<path clip-path="url(#SVGID_2_)" d="M450.496,233.052c0-0.719-0.028-0.749-0.688-0.749c-0.545,0-0.574,0.028-0.717,0.231
		c-2.354,3.796-6.312,5.854-12.138,5.969c-0.345,0-0.345,0.198-0.345,0.793v1.812c0,0.765,0,0.793,0.604,0.793
		c2.927,0,9.382-1.379,13.283-8.39"/>
	<path clip-path="url(#SVGID_2_)" d="M254.86,261.286c0.142-0.54,0.382-1.499,0.382-1.599c0-0.4-0.32-0.641-0.662-0.641
		c-0.382,0-0.742,0.24-0.863,0.58c-0.061,0.16-0.262,0.999-0.402,1.499c-0.281,1.14-0.281,1.18-0.582,2.298
		c-0.261,1.1-0.301,1.26-0.32,1.84c0.08,0.399-0.081,0.778-0.562,1.379c-0.261,0.32-0.663,0.658-1.345,0.658
		c-0.783,0-1.807-0.28-1.807-1.848c0-1.024,0.562-2.511,0.963-3.536c0.341-0.884,0.421-1.064,0.421-1.405
		c0-0.965-0.823-1.709-1.908-1.709c-2.029,0-2.932,2.767-2.932,3.111c0,0.265,0.281,0.265,0.341,0.265
		c0.281,0,0.301-0.101,0.361-0.322c0.502-1.67,1.366-2.454,2.169-2.454c0.341,0,0.502,0.222,0.502,0.705
		c0,0.462-0.18,0.904-0.28,1.165c-1.139,2.933-1.139,3.335-1.139,3.957c0,2.371,2.153,2.672,3.24,2.672c0.382,0,1.368,0,2.273-1.345
		c0.463,0.902,1.57,1.345,2.797,1.345c1.791,0,2.677-1.55,3.08-2.375c0.865-1.691,1.41-4.207,1.41-5.133
		c0-1.511-0.869-1.593-1.01-1.593c-0.525,0-1.091,0.541-1.091,1.062c0,0.341,0.196,0.501,0.334,0.621
		c0.472,0.4,0.728,0.962,0.728,1.604c0,0.262-0.844,5.213-3.395,5.213c-1.626,0-1.626-1.439-1.626-1.779
		c0-0.54,0.08-0.859,0.36-1.999"/>
</g>
<g>
	<path d="M38.902,35c0.652,0,0.793,0,0.793-0.403c0.029-1.752,0.262-4.594,1.537-7.178c1.562-3.102,3.389-4.279,4.52-4.996
		c0.145-0.086,0.145-0.259,0.145-0.632c0-0.661-0.031-0.689-0.748-0.689h-0.461c-7.039,3.905-8.389,10.365-8.389,13.294
		C36.299,35,36.326,35,37.092,35"/>
	<rect x="36.266" y="34.682" width="3.441" height="72.671"/>
	<path d="M31.391,121.003c6.969-3.902,8.305-10.358,8.305-13.284c0-0.604-0.029-0.604-0.793-0.604H37.09
		c-0.652,0-0.793,0-0.793,0.402c-0.029,1.75-0.258,4.591-1.512,7.173c-1.539,3.099-3.336,4.275-4.445,4.993
		c-0.145,0.086-0.145,0.258-0.145,0.631c0,0.66,0.029,0.688,0.74,0.688"/>
	<path d="M38.902,133.501c0.764,0,0.793,0,0.793-0.605c0-2.928-1.365-9.389-8.305-13.293h-0.455c-0.711,0-0.738,0.029-0.738,0.689
		c0,0.545,0.029,0.574,0.229,0.718c3.732,2.354,5.756,6.317,5.873,12.146c0,0.346,0.197,0.346,0.793,0.346"/>
	<rect x="36.266" y="133.177" width="3.441" height="72.672"/>
	<path d="M45.146,219.402c0.719,0,0.75-0.027,0.75-0.688c0-0.545-0.029-0.574-0.232-0.717c-3.797-2.354-5.854-6.312-5.969-12.139
		c0-0.344-0.199-0.344-0.793-0.344H37.09c-0.766,0-0.793,0-0.793,0.604c0,2.926,1.379,9.381,8.391,13.283"/>
</g>
<path d="M17.534,112.344c0.02-0.04,0.08-0.3,0.08-0.32c0-0.1-0.08-0.28-0.32-0.28c-0.4,0-2.058,0.17-2.558,0.213
	c-0.16,0.021-0.439,0.043-0.439,0.489c0,0.298,0.28,0.298,0.52,0.298c0.959,0,0.959,0.141,0.959,0.299c0,0.141-0.04,0.26-0.08,0.439
	l-2.817,11.285c-0.1,0.359-0.1,0.398-0.1,0.439c0,0.299,0.24,0.638,0.679,0.638c0.22,0,0.6-0.101,0.82-0.522
	c0.06-0.121,0.239-0.844,0.339-1.266l0.46-1.788c0.06-0.302,0.26-1.065,0.32-1.366c0.2-0.764,0.2-0.784,0.6-1.427
	c0.639-0.984,1.638-2.131,3.197-2.131c1.119,0,1.179,0.925,1.179,1.407c0,1.205-0.813,3.436-1.117,4.279
	c-0.208,0.562-0.284,0.743-0.284,1.085c0,1.065,0.875,1.729,1.889,1.729c1.99,0,2.865-2.771,2.865-3.071
	c0-0.261-0.263-0.261-0.324-0.261c-0.281,0-0.303,0.119-0.383,0.337c-0.465,1.584-1.354,2.396-2.142,2.396
	c-0.424,0-0.505-0.279-0.505-0.698c0-0.459,0.098-0.718,0.454-1.616c0.237-0.618,1.046-2.733,1.046-3.85
	c0-0.319,0-1.157-0.741-1.735c-0.34-0.289-0.919-0.601-1.858-0.601c-1.458,0-2.518,0.824-3.256,1.711"/>
<path fill="none" stroke="#000000" stroke-width="1.8889" d="M119.228,220.902c0-13.955-4.397-26.883-11.882-37.473"/>
<path fill="none" stroke="#000000" stroke-width="1.8889" d="M430.86,178.897c-14.579,8.322-24.406,24.017-24.406,42.005"/>
<g>
	<defs>
		<rect id="SVGID_3_" x="122.396" y="188.902" width="17" height="14"/>
	</defs>
	<clipPath id="SVGID_4_">
		<use xlink:href="#SVGID_3_"  overflow="visible"/>
	</clipPath>
	<path clip-path="url(#SVGID_4_)" d="M133.295,199.462c-2.506,2.222-4.698,2.538-5.836,2.538c-1.708,0-2.562-1.298-2.562-3.144
		c0-1.414,0.745-4.529,1.663-6c1.347-2.106,2.895-2.655,3.897-2.655c2.84,0,2.84,3.78,2.84,6.03c0,1.066,0,2.74,0,3.23
		 M135.195,195.53c0-4.516-2.646-5.928-4.75-5.928c-3.895,0-7.647,4.104-7.647,8.149c0,2.668,1.719,4.85,4.64,4.85
		c1.805,0,3.867-0.655,6.044-2.395c0.372,1.512,1.318,2.395,2.607,2.395c1.518,0,2.409-1.567,2.409-2.023
		c0-0.199-0.178-0.286-0.354-0.286c-0.206,0-0.295,0.087-0.383,0.29C137.23,202,136.17,202,136.11,202
		c-0.914,0-0.914-2.242-0.914-2.934c0-0.604,0-0.662,0.294-1.007c2.762-3.395,3.38-6.73,3.38-6.759c0-0.058-0.029-0.288-0.353-0.288
		c-0.294,0-0.294,0.086-0.441,0.604c-0.528,1.812-1.499,3.998-2.88,5.695L135.195,195.53z"/>
</g>
<g>
	<defs>
		<rect id="SVGID_5_" x="391.396" y="177.902" width="17" height="27"/>
	</defs>
	<clipPath id="SVGID_6_">
		<use xlink:href="#SVGID_5_"  overflow="visible"/>
	</clipPath>
	<path clip-path="url(#SVGID_6_)" d="M403.791,186.923c-0.803-0.321-1.719-0.321-1.977-0.321c-0.688,0-2.234,0-2.234,0.938
		c0,0.763,1.261,0.763,1.947,0.763c0.401,0,1.231,0,2.148-0.375c0.63,0.662,0.858,1.492,0.858,2.408c0,1.146-0.573,3.84-1.402,5.415
		c-0.659,1.203-2.119,2.951-4.182,2.951c-2.549,0-4.009-1.892-4.009-4.186c0-0.688,0.114-1.118,0.372-2.15
		c0.258-1.061,1.146-4.645,1.317-5.304c1.346-5.305,4.754-7.659,7.302-7.659c0.858,0,2.063,0.432,2.063,2.326
		c0,0.688-0.346,3.788-2.207,5.194 M400.308,187.488c0.287-0.179,0.487-0.286,1.463-0.286c0.43,0,0.774,0,1.147,0.214
		c-0.516,0.286-1.147,0.286-1.377,0.286C400.823,187.702,400.795,187.702,400.308,187.488z M391.699,203.884
		c-0.029,0.114-0.086,0.287-0.086,0.431c0,0.287,0.286,0.287,0.344,0.287c0.144,0,0.2-0.029,0.286-0.115
		c0.144-0.144,0.945-3.831,2.177-8.498c0.43,1.642,1.919,3.312,4.582,3.312c3.78,0,7.617-3.83,7.617-7.89
		c0-2.03-0.916-3.288-1.919-3.973c1.977-1.201,3.098-3.23,3.098-4.974c0-1.858-1.321-3.661-3.841-3.661
		c-3.724,0-6.959,3.936-7.904,7.694L391.699,203.884z"/>
</g>
</svg>
