<?xml version="1.0" encoding="utf-8"?>
<!-- Generator: Adobe Illustrator 14.0.0, SVG Export Plug-In . SVG Version: 6.00 Build 43363)  -->
<!DOCTYPE svg PUBLIC "-//W3C//DTD SVG 1.1//EN" "http://www.w3.org/Graphics/SVG/1.1/DTD/svg11.dtd">
<svg version="1.1" id="Layer_1" xmlns="http://www.w3.org/2000/svg" xmlns:xlink="http://www.w3.org/1999/xlink" x="0px" y="0px"
	 width="310.484px" height="299.985px" viewBox="0 0 310.484 299.985" enable-background="new 0 0 310.484 299.985"
	 xml:space="preserve">
<g opacity="0.4">
	<defs>
		<rect id="SVGID_1_" x="137.715" y="82.939" opacity="0.4" width="11.2" height="18.06"/>
	</defs>
	<clipPath id="SVGID_2_">
		<use xlink:href="#SVGID_1_"  overflow="visible"/>
	</clipPath>
	<path clip-path="url(#SVGID_2_)" d="M143.383,94.139c-0.403,0-1.562,0-2.344-1.588c-0.453-0.931-0.453-2.192-0.453-3.426
		c0-1.359,0-2.544,0.529-3.476c0.68-1.259,1.639-1.59,2.521-1.59c1.159,0,1.99,0.859,2.419,1.993
		c0.303,0.806,0.404,2.393,0.404,3.551C146.459,91.694,145.602,94.138,143.383,94.139 M146.533,92.176v0.805
		c0,5.882-2.621,7.039-4.083,7.039c-0.428,0-1.789-0.051-2.469-0.911c1.103,0,1.304-0.727,1.304-1.154
		c0-0.779-0.603-1.156-1.155-1.156c-0.402,0-1.155,0.227-1.155,1.208c0,1.683,1.357,2.714,3.493,2.714
		c3.24,0,6.307-3.418,6.307-8.821c0-6.759-2.891-8.469-5.127-8.469c-1.382,0-2.613,0.452-3.693,1.584
		c-1.031,1.132-1.609,2.189-1.609,4.075c0,3.145,2.218,5.609,5.039,5.609C144.919,94.698,145.952,93.639,146.533,92.176z"/>
</g>
<linearGradient id="SVGID_3_" gradientUnits="userSpaceOnUse" x1="183.4893" y1="200.417" x2="54.9893" y2="284.4169">
	<stop  offset="0" style="stop-color:#FFFFFF"/>
	<stop  offset="1" style="stop-color:#000000"/>
</linearGradient>
<polygon opacity="0.5" fill="url(#SVGID_3_)" points="80.662,181.882 9.021,226.876 45.279,282.792 176.768,292.402 
	232.684,226.003 173.273,185.377 "/>
<polygon opacity="0.35" fill="#1C258E" points="281.282,120.724 142.695,148.244 225.586,248.827 "/>
<polygon opacity="0.2" fill="#2F3DED" points="281.282,120.724 176.769,33.901 142.695,148.244 "/>
<polygon opacity="0.2" fill="#2733C4" points="73.893,105.98 142.695,148.244 176.769,33.901 "/>
<polygon opacity="0.35" fill="#12185B" points="73.893,105.98 99.12,229.824 142.695,148.244 "/>
<polygon opacity="0.2" fill="#303FF2" points="281.282,120.724 176.769,33.901 252.451,78.131 "/>
<polygon opacity="0.4" fill="#0B0E35" points="99.12,229.824 225.586,248.827 142.695,148.244 "/>
<polygon opacity="0.35" fill="#141A63" points="225.586,248.827 277.023,184.284 281.282,120.724 "/>
<polygon fill="none" stroke="#000000" stroke-width="1.7127" points="176.769,33.901 252.451,78.131 281.282,120.724 
	277.023,184.284 225.586,248.827 99.12,229.824 73.893,105.98 "/>
<g>
	
		<line fill="none" stroke="#231F20" stroke-width="0.6553" stroke-dasharray="3.9316" x1="149.902" y1="73.544" x2="176.769" y2="33.901"/>
	
		<line fill="none" stroke="#231F20" stroke-width="0.6553" stroke-dasharray="3.9316" x1="149.902" y1="73.544" x2="73.893" y2="105.98"/>
	
		<line fill="none" stroke="#231F20" stroke-width="0.6553" stroke-dasharray="3.9316" x1="95.858" y1="139.383" x2="73.893" y2="105.98"/>
	
		<line fill="none" stroke="#231F20" stroke-width="0.6553" stroke-dasharray="3.9316" x1="113.535" y1="166.264" x2="109.95" y2="160.812"/>
	
		<line fill="none" stroke="#231F20" stroke-width="0.6553" stroke-dasharray="3.9316" x1="146.923" y1="81.142" x2="149.902" y2="73.544"/>
	
		<line fill="none" stroke="#231F20" stroke-width="0.6553" stroke-dasharray="3.9316" x1="113.535" y1="166.264" x2="138.796" y2="101.86"/>
	
		<line fill="none" stroke="#231F20" stroke-width="0.6553" stroke-dasharray="3.9316" x1="149.902" y1="73.544" x2="252.451" y2="78.131"/>
	
		<line fill="none" stroke="#231F20" stroke-width="0.6553" stroke-dasharray="3.9316" x1="204.617" y1="147.589" x2="252.451" y2="78.131"/>
	
		<line fill="none" stroke="#231F20" stroke-width="0.6553" stroke-dasharray="3.9316" x1="204.617" y1="147.589" x2="149.902" y2="73.544"/>
	
		<line fill="none" stroke="#231F20" stroke-width="0.6553" stroke-dasharray="3.9316" x1="204.617" y1="147.589" x2="113.535" y2="166.264"/>
	
		<line fill="none" stroke="#231F20" stroke-width="0.6553" stroke-dasharray="3.9316" x1="182.069" y1="231.401" x2="186.27" y2="235.394"/>
	
		<line fill="none" stroke="#231F20" stroke-width="0.6553" stroke-dasharray="3.9316" x1="113.535" y1="166.264" x2="160.789" y2="211.176"/>
	
		<line fill="none" stroke="#231F20" stroke-width="0.6553" stroke-dasharray="3.9316" x1="186.27" y1="235.394" x2="99.12" y2="229.824"/>
	
		<line fill="none" stroke="#231F20" stroke-width="0.6553" stroke-dasharray="3.9316" x1="99.12" y1="229.824" x2="113.535" y2="166.264"/>
	
		<line fill="none" stroke="#231F20" stroke-width="0.6553" stroke-dasharray="3.9316" x1="186.27" y1="235.394" x2="225.586" y2="248.827"/>
	
		<line fill="none" stroke="#231F20" stroke-width="0.6553" stroke-dasharray="3.9316" x1="186.27" y1="235.394" x2="277.023" y2="184.284"/>
	
		<line fill="none" stroke="#231F20" stroke-width="0.6553" stroke-dasharray="3.9316" x1="210.752" y1="150.698" x2="204.617" y2="147.589"/>
	
		<line fill="none" stroke="#231F20" stroke-width="0.6553" stroke-dasharray="3.9316" x1="277.023" y1="184.284" x2="236.485" y2="163.74"/>
	
		<line fill="none" stroke="#231F20" stroke-width="0.6553" stroke-dasharray="3.9316" x1="277.023" y1="184.284" x2="252.451" y2="78.131"/>
	
		<line fill="none" stroke="#231F20" stroke-width="0.6553" stroke-dasharray="3.9316" x1="204.617" y1="147.589" x2="186.27" y2="235.394"/>
</g>
<line fill="none" stroke="#000000" stroke-width="0.8564" x1="176.769" y1="33.901" x2="142.695" y2="148.244"/>
<line fill="none" stroke="#000000" stroke-width="0.8564" x1="165.275" y1="143.76" x2="281.282" y2="120.724"/>
<line fill="none" stroke="#000000" stroke-width="0.8564" x1="142.695" y1="148.244" x2="152.163" y2="146.364"/>
<line fill="none" stroke="#000000" stroke-width="0.8564" x1="142.695" y1="148.244" x2="73.893" y2="105.98"/>
<line fill="none" stroke="#000000" stroke-width="0.8564" x1="142.695" y1="148.244" x2="99.12" y2="229.824"/>
<line fill="none" stroke="#000000" stroke-width="0.8564" x1="142.695" y1="148.244" x2="225.586" y2="248.827"/>
<line fill="none" stroke="#000000" stroke-width="0.8564" x1="225.586" y1="248.827" x2="281.282" y2="120.724"/>
<line fill="none" stroke="#000000" stroke-width="0.8564" x1="176.769" y1="33.901" x2="281.282" y2="120.724"/>
<circle fill="#231F20" cx="142.695" cy="148.244" r="3.981"/>
<circle fill="#231F20" cx="281.282" cy="120.724" r="3.98"/>
<circle fill="#231F20" cx="176.769" cy="33.901" r="3.98"/>
<circle fill="#231F20" cx="252.451" cy="78.131" r="3.98"/>
<circle fill="#231F20" cx="73.893" cy="105.98" r="3.98"/>
<circle fill="#231F20" cx="99.12" cy="229.824" r="3.98"/>
<circle fill="#231F20" cx="225.586" cy="248.827" r="3.98"/>
<circle fill="#231F20" cx="277.023" cy="184.284" r="3.98"/>
<path d="M177.821,9.565c0-0.604,0-0.655-0.581-0.655c-1.568,1.61-3.794,1.61-4.604,1.61v0.77c0.502,0,1.986,0,3.294-0.639v13.013
	c0,0.904-0.076,1.205-2.339,1.205h-0.805v0.77c0.878-0.074,3.062-0.074,4.067-0.074c1.003,0,3.188,0,4.066,0.074v-0.77h-0.794
	c-2.231,0-2.306-0.277-2.306-1.206"/>
<path d="M269.758,70.048h-0.628c-0.125,0.744-0.301,1.836-0.553,2.208c-0.175,0.199-1.831,0.199-2.384,0.199h-4.518l2.66-2.582
	c3.915-3.46,5.422-4.814,5.422-7.322c0-2.858-2.26-4.865-5.319-4.865c-2.837,0-4.693,2.31-4.693,4.545
	c0,1.406,1.267,1.406,1.343,1.406c0.431,0,1.317-0.304,1.317-1.343c0-0.659-0.46-1.318-1.354-1.318c-0.203,0-0.255,0-0.331,0
	c0.575-1.605,1.925-2.52,3.375-2.52c2.274,0,3.351,2.038,3.351,4.099c0,2.01-1.251,3.996-2.626,5.553l-4.801,5.379
	c-0.274,0.276-0.274,0.326-0.274,0.93h9.31"/>
<path d="M63.768,93.697c2.051-0.678,3.5-2.437,3.5-4.422c0-2.062-2.203-3.469-4.604-3.469c-2.526,0-4.428,1.498-4.428,3.394
	c0,0.823,0.559,1.297,1.296,1.297c0.788,0,1.295-0.549,1.295-1.273c0-1.248-1.216-1.248-1.604-1.248
	c0.776-1.218,2.429-1.541,3.33-1.541c1.027,0,2.404,0.555,2.404,2.819c0,0.301-0.051,1.761-0.702,2.867
	c-0.75,1.208-1.601,1.283-2.226,1.308c-0.2,0.025-0.8,0.076-0.976,0.076c-0.201,0.024-0.375,0.049-0.375,0.292
	c0,0.268,0.176,0.268,0.603,0.268h1.105c2.059,0,2.988,1.713,2.988,4.178c0,3.422-1.733,4.152-2.838,4.152
	c-1.08,0-2.962-0.426-3.841-1.906c0.87,0.125,1.642-0.426,1.642-1.379c0-0.902-0.675-1.405-1.4-1.405
	c-0.601,0-1.401,0.352-1.401,1.454c0,2.281,2.338,3.936,5.077,3.936c3.066,0,5.354-2.287,5.354-4.851
	C67.967,96.186,66.383,94.225,63.768,93.697"/>
<path d="M296.048,119.456h-6.154l6.154-9.384 M289.189,120.227h6.647v2.181c0,0.902-0.05,1.178-1.885,1.178h-0.52v0.77
	c1.029-0.075,2.334-0.075,3.389-0.075s2.385,0,3.415,0.075v-0.77h-0.528c-1.859,0-1.91-0.276-1.91-1.178v-2.181h2.514v-0.771h-2.514
	v-11.453c0-0.505,0-0.656-0.403-0.656c-0.226,0-0.301,0-0.501,0.304l-7.704,11.806V120.227z"/>
<path d="M163.737,147.288c0-2.996-2.064-5.515-4.783-5.515c-1.208,0-2.291,0.41-3.197,1.306v-4.896c0.504,0.138,1.335,0.3,2.141,0.3
	c3.098,0,4.862-2.263,4.862-2.586c0-0.149-0.076-0.274-0.252-0.274c-0.025,0-0.076,0-0.201,0.072
	c-0.503,0.213-1.734,0.688-3.421,0.688c-1.006,0-2.164-0.165-3.345-0.663c-0.201-0.071-0.252-0.071-0.302-0.071
	c-0.252,0-0.252,0.201-0.252,0.603v7.431c0,0.452,0,0.653,0.352,0.653c0.177,0,0.227-0.077,0.327-0.228
	c0.276-0.405,1.206-1.773,3.242-1.773c1.307,0,1.935,1.16,2.136,1.613c0.401,0.931,0.453,1.913,0.453,3.171
	c0,0.881,0,2.392-0.603,3.449c-0.601,0.982-1.529,1.637-2.683,1.637c-1.83,0-3.26-1.336-3.687-2.823
	c0.074,0.011,0.147,0.023,0.419,0.023c0.813,0,1.233-0.625,1.233-1.225c0-0.6-0.422-1.226-1.238-1.226
	c-0.347,0-1.212,0.177-1.212,1.337c0,2.168,1.73,4.614,4.541,4.614C161.178,152.904,163.737,150.487,163.737,147.288"/>
<path d="M288.802,200.396c-1.589,0-2.345-1.509-2.495-1.887c-0.454-1.183-0.454-3.193-0.454-3.646c0-1.961,0.807-4.478,3.076-4.478
	c0.402,0,1.562,0,2.344,1.561c0.455,0.931,0.455,2.213,0.455,3.445c0,1.207,0,2.465-0.429,3.37
	C290.542,200.27,289.383,200.396,288.802,200.396 M285.778,192.302v-0.604c0-6.355,3.123-7.262,4.408-7.262
	c0.604,0,1.662,0.147,2.218,0.979c-0.376,0-1.378,0-1.378,1.144c0,0.787,0.603,1.167,1.155,1.167c0.402,0,1.156-0.226,1.156-1.205
	c0-1.509-1.107-2.715-3.193-2.715c-3.216,0-6.606,3.242-6.606,8.796c0,6.71,2.914,8.494,5.252,8.494
	c2.789,0,5.177-2.359,5.177-5.673c0-3.188-2.244-5.599-5.04-5.599C287.215,189.825,286.282,191.102,285.778,192.302L285.778,192.302
	z"/>
<path d="M91.662,234.202c0.228-0.301,0.228-0.352,0.228-0.882h-6.101c-3.062,0-3.113-0.312-3.214-0.769h-0.627l-0.829,5.14h0.627
	c0.075-0.397,0.301-1.964,0.627-2.262c0.175-0.149,2.134-0.149,2.46-0.149h5.197c-0.276,0.403-2.263,3.137-2.816,3.964
	c-2.263,3.385-3.093,6.871-3.093,9.428c0,0.251,0,1.38,1.155,1.38c1.156,0,1.156-1.131,1.156-1.382v-1.28
	c0-1.382,0.075-2.763,0.276-4.12c0.102-0.577,0.453-2.737,1.559-4.295"/>
<path d="M232.734,264.503c0.703,0.429,1.883,1.183,3.088,1.961c0.703,0.478,1.885,1.232,1.885,2.765c0,1.86-1.885,3.168-3.943,3.168
	c-2.158,0-3.967-1.559-3.967-3.645C229.797,267.294,230.601,265.686,232.734,264.503 M235.245,263.446
	c1.797-0.93,3.021-2.236,3.021-3.895c0-2.312-2.227-3.745-4.503-3.745c-2.501,0-4.527,1.86-4.527,4.197
	c0,0.452,0.051,1.583,1.121,2.764c0.271,0.302,1.183,0.93,1.8,1.357c-1.459,0.729-3.621,2.136-3.621,4.624
	c0,2.663,2.563,4.348,5.202,4.348c2.84,0,5.229-2.086,5.229-4.774c0-0.905-0.282-2.036-1.26-3.092
	C237.234,264.703,236.836,264.451,235.245,263.446L235.245,263.446z M231.601,261.062c-1.144-0.754-1.243-1.608-1.243-2.036
	c0-1.532,1.615-2.588,3.382-2.588c1.814,0,3.407,1.307,3.407,3.116c0,1.432-0.971,2.639-2.463,3.519L231.601,261.062z"/>
<g opacity="0.4">
	<defs>
		<rect id="SVGID_4_" x="213.02" y="150.105" opacity="0.4" width="23.1" height="18.06"/>
	</defs>
	<clipPath id="SVGID_5_">
		<use xlink:href="#SVGID_4_"  overflow="visible"/>
	</clipPath>
	<path clip-path="url(#SVGID_5_)" d="M218.829,151.25c0-0.604,0-0.655-0.582-0.655c-1.567,1.609-3.794,1.609-4.603,1.609v0.77
		c0.502,0,1.986,0,3.294-0.639v13.013c0,0.904-0.075,1.205-2.34,1.205h-0.804v0.77c0.878-0.074,3.062-0.074,4.067-0.074
		c1.003,0,3.188,0,4.067,0.074v-0.77h-0.795c-2.231,0-2.306-0.277-2.306-1.205"/>
	<path clip-path="url(#SVGID_5_)" d="M230.191,167.325c-0.975,0-2.448-0.627-2.897-3.039c-0.275-1.507-0.275-3.816-0.275-5.297
		c0-1.607,0-3.265,0.2-4.62c0.475-2.987,2.348-3.215,2.973-3.215c0.823,0,2.472,0.454,2.946,2.939
		c0.251,1.406,0.251,3.313,0.251,4.896c0,1.882,0,3.59-0.275,5.196c-0.374,2.385-1.798,3.137-2.922,3.137 M235.489,159.291
		c0-2.011-0.127-4.021-1.006-5.881c-1.155-2.412-3.214-2.814-4.268-2.814c-1.507,0-3.34,0.653-4.369,2.99
		c-0.804,1.734-0.929,3.694-0.929,5.705c0,1.884,0.1,4.146,1.13,6.056c1.08,2.035,2.913,2.539,4.143,2.539
		c1.355,0,3.265-0.529,4.369-2.916C235.362,163.236,235.489,161.276,235.489,159.291z"/>
</g>
<g opacity="0.4">
	<defs>
		<rect id="SVGID_6_" x="91.478" y="142.485" opacity="0.4" width="21.7" height="17.5"/>
	</defs>
	<clipPath id="SVGID_7_">
		<use xlink:href="#SVGID_6_"  overflow="visible"/>
	</clipPath>
	<path clip-path="url(#SVGID_7_)" d="M97.288,143.63c0-0.604,0-0.655-0.582-0.655c-1.568,1.61-3.794,1.61-4.604,1.61v0.77
		c0.503,0,1.986,0,3.294-0.638v13.013c0,0.904-0.075,1.205-2.339,1.205h-0.805v0.77c0.879-0.074,3.063-0.074,4.068-0.074
		c1.003,0,3.188,0,4.067,0.074v-0.77h-0.794c-2.231,0-2.306-0.276-2.306-1.206"/>
	<path clip-path="url(#SVGID_7_)" d="M109.818,143.63c0-0.604,0-0.655-0.582-0.655c-1.568,1.61-3.794,1.61-4.604,1.61v0.77
		c0.502,0,1.987,0,3.295-0.638v13.013c0,0.904-0.076,1.205-2.339,1.205h-0.806v0.77c0.878-0.074,3.063-0.074,4.068-0.074
		c1.003,0,3.188,0,4.066,0.074v-0.77h-0.793c-2.232,0-2.306-0.276-2.306-1.206"/>
</g>
<g opacity="0.4">
	<defs>
		<rect id="SVGID_8_" x="158.369" y="212.324" opacity="0.4" width="22.4" height="17.5"/>
	</defs>
	<clipPath id="SVGID_9_">
		<use xlink:href="#SVGID_8_"  overflow="visible"/>
	</clipPath>
	<path clip-path="url(#SVGID_9_)" d="M164.179,213.469c0-0.604,0-0.654-0.581-0.654c-1.568,1.609-3.794,1.609-4.604,1.609v0.771
		c0.503,0,1.986,0,3.294-0.639v13.013c0,0.904-0.075,1.205-2.339,1.205h-0.805v0.77c0.878-0.074,3.062-0.074,4.067-0.074
		c1.004,0,3.188,0,4.067,0.074v-0.77h-0.794c-2.231,0-2.307-0.276-2.307-1.206"/>
	<path clip-path="url(#SVGID_9_)" d="M180.561,225.176h-0.629c-0.125,0.744-0.301,1.836-0.552,2.209
		c-0.176,0.198-1.832,0.198-2.384,0.198h-4.519l2.66-2.581c3.916-3.461,5.423-4.815,5.423-7.322c0-2.859-2.26-4.865-5.32-4.865
		c-2.836,0-4.693,2.31-4.693,4.545c0,1.405,1.268,1.405,1.343,1.405c0.432,0,1.318-0.303,1.318-1.342
		c0-0.659-0.46-1.318-1.354-1.318c-0.204,0-0.255,0-0.331,0c0.574-1.605,1.925-2.52,3.374-2.52c2.275,0,3.351,2.038,3.351,4.099
		c0,2.011-1.251,3.996-2.626,5.554l-4.8,5.378c-0.275,0.276-0.275,0.326-0.275,0.93h9.311"/>
</g>
</svg>
