<?xml version="1.0" encoding="utf-8"?>
<!-- Generator: Adobe Illustrator 14.0.0, SVG Export Plug-In . SVG Version: 6.00 Build 43363)  -->
<!DOCTYPE svg PUBLIC "-//W3C//DTD SVG 1.1//EN" "http://www.w3.org/Graphics/SVG/1.1/DTD/svg11.dtd">
<svg version="1.1" id="Layer_1" xmlns="http://www.w3.org/2000/svg" xmlns:xlink="http://www.w3.org/1999/xlink" x="0px" y="0px"
	 width="256px" height="171px" viewBox="0 0 256 171" enable-background="new 0 0 256 171" xml:space="preserve">
<rect x="85.507" y="142.646" transform="matrix(-0.9643 0.2648 -0.2648 -0.9643 224.3134 271.7237)" fill="#FFFFFF" stroke="#231F20" width="16.67" height="16.67"/>
<g>
	<g>
		<polyline fill="none" stroke="#000000" stroke-width="5" points="47.764,14.651 88.012,161.226 234.586,120.978 		"/>
		<polygon points="244.798,118.174 232.021,128.005 233.823,121.188 228.793,116.246 		"/>
		<polygon points="44.96,4.438 54.792,17.215 47.974,15.415 43.032,20.444 		"/>
	</g>
</g>
<g>
	<defs>
		<rect id="SVGID_1_" x="234.585" y="130.736" width="17" height="14"/>
	</defs>
	<clipPath id="SVGID_2_">
		<use xlink:href="#SVGID_1_"  overflow="visible"/>
	</clipPath>
	<path clip-path="url(#SVGID_2_)" d="M245.483,141.297c-2.507,2.222-4.698,2.538-5.837,2.538c-1.707,0-2.562-1.298-2.562-3.144
		c0-1.414,0.745-4.529,1.663-6c1.348-2.106,2.895-2.655,3.898-2.655c2.839,0,2.839,3.78,2.839,6.03c0,1.066,0,2.74,0,3.23
		 M247.384,137.364c0-4.516-2.646-5.928-4.75-5.928c-3.896,0-7.647,4.104-7.647,8.149c0,2.668,1.719,4.85,4.64,4.85
		c1.806,0,3.866-0.655,6.044-2.395c0.372,1.512,1.318,2.395,2.607,2.395c1.518,0,2.409-1.567,2.409-2.023
		c0-0.199-0.178-0.286-0.354-0.286c-0.206,0-0.295,0.087-0.383,0.29c-0.53,1.418-1.591,1.418-1.65,1.418
		c-0.914,0-0.914-2.242-0.914-2.934c0-0.604,0-0.662,0.294-1.007c2.762-3.395,3.38-6.73,3.38-6.759c0-0.058-0.029-0.288-0.353-0.288
		c-0.294,0-0.294,0.086-0.441,0.604c-0.528,1.812-1.499,3.998-2.88,5.695L247.384,137.364z"/>
</g>
<g>
	<defs>
		<rect id="SVGID_3_" x="3.032" y="10.944" width="33" height="15"/>
	</defs>
	<clipPath id="SVGID_4_">
		<use xlink:href="#SVGID_3_"  overflow="visible"/>
	</clipPath>
	<path clip-path="url(#SVGID_4_)" d="M10.469,20.839c0.029-0.058,0.229-0.258,0.315-0.258c0.114,0,1.203,1.251,1.404,1.45
		c0.832,0.909,1.662,1.818,2.521,2.671c0.114,0.143,0.2,0.143,0.229,0.143c0.229,0,0.315-0.2,0.315-0.314
		c0-0.143-0.888-1.686-1.719-3.142c-0.573-1.029-0.745-1.371-1.117-2.058l4.985-2.285c0.401-0.199,0.43-0.313,0.43-0.429
		c0-0.143-0.115-0.286-0.316-0.286c-0.029,0-1.432,0.258-5.73,1.114l-0.659-5.371c-0.057-0.514-0.086-0.63-0.344-0.63
		c-0.229,0-0.315,0.145-0.373,0.63l-0.63,5.371l-5.3-1.057c-0.143-0.029-0.344-0.058-0.43-0.058c-0.2,0-0.315,0.144-0.315,0.286
		c0,0.229,0.143,0.286,0.459,0.429l4.985,2.285l-2.664,4.742c-0.172,0.343-0.201,0.371-0.201,0.457c0,0.114,0.086,0.314,0.314,0.314
		c0.057,0,0.143,0,0.43-0.313"/>
	<path clip-path="url(#SVGID_4_)" d="M29.731,22.505c-2.507,2.222-4.699,2.538-5.837,2.538c-1.708,0-2.562-1.298-2.562-3.144
		c0-1.414,0.745-4.529,1.663-6c1.348-2.106,2.895-2.655,3.898-2.655c2.839,0,2.839,3.78,2.839,6.03
		C29.732,20.341,29.732,22.015,29.731,22.505 M31.63,18.572c0-4.516-2.646-5.928-4.75-5.928c-3.895,0-7.647,4.104-7.647,8.149
		c0,2.668,1.719,4.85,4.64,4.85c1.806,0,3.867-0.655,6.044-2.395c0.372,1.512,1.318,2.395,2.607,2.395
		c1.518,0,2.409-1.567,2.409-2.023c0-0.199-0.178-0.286-0.354-0.286c-0.206,0-0.295,0.087-0.383,0.29
		c-0.53,1.418-1.591,1.418-1.65,1.418c-0.914,0-0.914-2.242-0.914-2.934c0-0.604,0-0.662,0.295-1.007
		c2.762-3.395,3.379-6.73,3.379-6.759c0-0.058-0.029-0.288-0.353-0.288c-0.294,0-0.294,0.086-0.44,0.604
		c-0.529,1.812-1.5,3.998-2.881,5.695L31.63,18.572z"/>
</g>
</svg>
