<?xml version="1.0" encoding="utf-8"?>
<!-- Generator: Adobe Illustrator 14.0.0, SVG Export Plug-In . SVG Version: 6.00 Build 43363)  -->
<!DOCTYPE svg PUBLIC "-//W3C//DTD SVG 1.1//EN" "http://www.w3.org/Graphics/SVG/1.1/DTD/svg11.dtd">
<svg version="1.1" id="Layer_1" xmlns="http://www.w3.org/2000/svg" xmlns:xlink="http://www.w3.org/1999/xlink" x="0px" y="0px"
	 width="625px" height="386px" viewBox="0 0 625 386" enable-background="new 0 0 625 386" xml:space="preserve">
<rect x="96.692" y="22.554" opacity="0.2" fill="#1B1F8A" enable-background="new    " width="477.916" height="321.057"/>
<rect x="96.692" y="82.623" opacity="0.2" fill="#1B1F8A" enable-background="new    " width="367.483" height="260.989"/>
<rect x="96.692" y="22.554" fill="none" stroke="#000000" stroke-width="1.7127" width="477.916" height="321.057"/>
<line fill="none" stroke="#231F20" stroke-width="0.856" stroke-dasharray="5.7169" x1="464.176" y1="82.623" x2="464.176" y2="22.554"/>
<line fill="none" stroke="#231F20" stroke-width="0.856" stroke-dasharray="5.7169" x1="464.176" y1="82.623" x2="574.608" y2="82.623"/>
<g>
	<defs>
		<rect id="SVGID_1_" x="439.936" y="351.066" width="46.686" height="26.934"/>
	</defs>
	<clipPath id="SVGID_2_">
		<use xlink:href="#SVGID_1_"  overflow="visible"/>
	</clipPath>
	<path clip-path="url(#SVGID_2_)" d="M448.214,360.582h2.22c0.516,0,0.772,0,0.772-0.521c0-0.287-0.257-0.287-0.695-0.287h-2.143
		c0.284-1.488,0.258-1.438,0.542-2.924c0.104-0.54,0.465-2.359,0.619-2.668c0.233-0.487,0.671-0.873,1.213-0.873
		c0.104,0,0.773,0,1.266,0.449c-1.132,0.105-1.39,1.022-1.39,1.416c0,0.603,0.457,0.917,0.938,0.917c0.66,0,1.396-0.565,1.396-1.544
		c0-1.185-1.182-1.775-2.235-1.775c-0.873,0-2.49,0.46-3.261,2.989c-0.153,0.537-0.23,0.792-0.849,4.012h-1.771
		c-0.487,0-0.771,0-0.771,0.495c0,0.312,0.231,0.312,0.72,0.312h1.694l-1.927,10.221c-0.462,2.51-0.897,4.862-2.234,4.862
		c-0.103,0-0.745,0-1.232-0.45c1.139-0.075,1.361-0.983,1.361-1.361c0-0.579-0.457-0.884-0.939-0.884
		c-0.658,0-1.395,0.552-1.395,1.505c0,1.128,1.134,1.729,2.191,1.729c1.419,0,2.451-1.524,2.915-2.505
		c0.826-1.627,1.419-4.75,1.445-4.931"/>
	<path clip-path="url(#SVGID_2_)" d="M462.736,377.113c0-0.077,0-0.128-0.438-0.566c-3.223-3.246-4.049-8.115-4.049-12.058
		c0-4.483,0.98-8.968,4.152-12.188c0.335-0.31,0.335-0.361,0.335-0.438c0-0.18-0.104-0.259-0.26-0.259
		c-0.258,0-2.591,1.753-4.12,5.025c-1.321,2.834-1.633,5.694-1.633,7.858c0,2.011,0.286,5.127,1.71,8.039
		c1.556,3.169,3.784,4.843,4.043,4.843C462.632,377.37,462.736,377.293,462.736,377.113"/>
	<path clip-path="url(#SVGID_2_)" d="M472.779,363.102c0.154-0.674,0.747-3.058,2.551-3.058c0.129,0,0.747,0,1.287,0.36
		c-0.71,0.131-1.218,0.787-1.218,1.416c0,0.419,0.279,0.917,0.964,0.917c0.558,0,1.369-0.468,1.369-1.511
		c0-1.355-1.479-1.721-2.333-1.721c-1.502,0-2.406,1.377-2.718,1.974c-0.646-1.714-2.044-1.974-2.794-1.974
		c-2.69,0-4.166,3.336-4.166,3.982c0,0.259,0.258,0.259,0.311,0.259c0.205,0,0.283-0.052,0.334-0.287
		c0.877-2.764,2.578-3.415,3.453-3.415c0.489,0,1.39,0.234,1.39,1.737c0,0.802-0.438,2.537-1.39,6.162
		c-0.412,1.606-1.313,2.693-2.448,2.693c-0.154,0-0.747,0-1.288-0.357c0.657-0.132,1.236-0.682,1.236-1.416
		c0-0.708-0.559-0.919-0.939-0.919c-0.761,0-1.395,0.678-1.395,1.513c0,1.197,1.281,1.719,2.407,1.719
		c1.691,0,2.614-1.789,2.69-1.942c0.308,0.946,1.229,1.942,2.767,1.942c2.639,0,4.103-3.312,4.103-3.952
		c0-0.258-0.232-0.258-0.31-0.258c-0.231,0-0.283,0.104-0.335,0.285c-0.85,2.767-2.602,3.386-3.426,3.386
		c-1.004,0-1.416-0.828-1.416-1.709c0-0.569,0.154-1.14,0.438-2.279"/>
	<path clip-path="url(#SVGID_2_)" d="M486.351,364.488c0-2.01-0.285-5.127-1.702-8.039c-1.547-3.169-3.764-4.845-4.021-4.845
		c-0.154,0-0.258,0.104-0.258,0.258c0,0.077,0,0.129,0.486,0.593c2.509,2.551,3.97,6.648,3.97,12.033
		c0,4.406-0.947,8.941-4.123,12.188c-0.333,0.31-0.333,0.36-0.333,0.438c0,0.155,0.104,0.258,0.258,0.258
		c0.258,0,2.578-1.752,4.099-5.023C486.04,369.513,486.351,366.653,486.351,364.488"/>
</g>
<g>
	<defs>
		<rect id="SVGID_3_" x="44.329" y="69.156" width="45.787" height="26.934"/>
	</defs>
	<clipPath id="SVGID_4_">
		<use xlink:href="#SVGID_3_"  overflow="visible"/>
	</clipPath>
	<path clip-path="url(#SVGID_4_)" d="M53.036,85.709c-0.153,0.675-0.74,1.323-1.301,1.815c-0.536,0.468-1.327,0.934-2.066,0.934
		c-1.276,0-1.659-1.349-1.659-2.386c0-1.245,0.74-4.306,1.429-5.628c0.689-1.271,1.785-2.311,2.857-2.311
		c1.684,0,2.041,2.104,2.041,2.233c0,0.129-0.051,0.285-0.076,0.388 M56.372,79.277c0.026-0.156,0.077-0.284,0.077-0.466
		c0-0.439-0.309-0.697-0.747-0.697c-0.258,0-0.952,0.182-1.056,1.11c-0.463-0.954-1.365-1.629-2.395-1.629
		c-2.936,0-6.127,3.612-6.127,7.326c0,2.554,1.569,4.075,3.423,4.075c1.518,0,2.729-1.21,2.984-1.494l0.027,0.026
		c-0.541,2.308-0.85,3.372-0.85,3.424c-0.102,0.233-0.977,2.802-3.702,2.802c-0.49,0-1.343-0.026-2.066-0.26
		c0.775-0.233,1.058-0.906,1.058-1.348c0-0.415-0.283-0.907-0.981-0.907c-0.568,0-1.395,0.463-1.395,1.488
		c0,1.051,0.953,1.565,3.426,1.565c3.22,0,5.074-2.013,5.46-3.561L56.372,79.277z"/>
	<path clip-path="url(#SVGID_4_)" d="M66.053,95.203c0-0.077,0-0.128-0.439-0.566c-3.223-3.247-4.048-8.116-4.048-12.058
		c0-4.484,0.979-8.968,4.151-12.188c0.336-0.309,0.336-0.361,0.336-0.438c0-0.18-0.104-0.259-0.26-0.259
		c-0.259,0-2.592,1.752-4.121,5.025c-1.322,2.834-1.633,5.694-1.633,7.858c0,2.01,0.286,5.127,1.71,8.039
		c1.554,3.168,3.783,4.843,4.042,4.843C65.947,95.46,66.052,95.383,66.053,95.203"/>
	<path clip-path="url(#SVGID_4_)" d="M76.095,81.191c0.154-0.673,0.747-3.057,2.551-3.057c0.128,0,0.747,0,1.288,0.36
		c-0.711,0.131-1.219,0.787-1.219,1.416c0,0.419,0.28,0.917,0.964,0.917c0.558,0,1.37-0.468,1.37-1.512
		c0-1.355-1.481-1.72-2.334-1.72c-1.501,0-2.407,1.376-2.718,1.974c-0.646-1.714-2.043-1.974-2.793-1.974
		c-2.69,0-4.166,3.336-4.166,3.982c0,0.259,0.258,0.259,0.31,0.259c0.206,0,0.283-0.052,0.335-0.287
		c0.876-2.764,2.577-3.415,3.452-3.415c0.489,0,1.39,0.234,1.39,1.737c0,0.802-0.438,2.537-1.39,6.163
		c-0.412,1.606-1.313,2.693-2.447,2.693c-0.154,0-0.747,0-1.289-0.358c0.657-0.131,1.236-0.681,1.236-1.416
		c0-0.708-0.558-0.919-0.939-0.919c-0.76,0-1.395,0.678-1.395,1.512c0,1.198,1.281,1.719,2.407,1.719
		c1.692,0,2.614-1.789,2.69-1.943c0.308,0.946,1.23,1.943,2.767,1.943c2.639,0,4.102-3.312,4.102-3.952
		c0-0.258-0.232-0.258-0.31-0.258c-0.231,0-0.283,0.104-0.334,0.285c-0.85,2.766-2.602,3.386-3.426,3.386
		c-1.004,0-1.417-0.829-1.417-1.709c0-0.57,0.154-1.14,0.438-2.279"/>
	<path clip-path="url(#SVGID_4_)" d="M89.666,82.578c0-2.01-0.285-5.127-1.702-8.039c-1.547-3.169-3.765-4.845-4.022-4.845
		c-0.154,0-0.258,0.104-0.258,0.258c0,0.077,0,0.129,0.486,0.593c2.509,2.55,3.97,6.648,3.97,12.033
		c0,4.406-0.948,8.941-4.124,12.188c-0.333,0.31-0.333,0.36-0.333,0.438c0,0.155,0.104,0.258,0.258,0.258
		c0.257,0,2.578-1.752,4.1-5.024C89.356,87.603,89.666,84.743,89.666,82.578"/>
</g>
<g>
	<defs>
		<rect id="SVGID_5_" x="6.622" y="9.087" width="83.494" height="26.934"/>
	</defs>
	<clipPath id="SVGID_6_">
		<use xlink:href="#SVGID_5_"  overflow="visible"/>
	</clipPath>
	<path clip-path="url(#SVGID_6_)" d="M15.508,25.641c-0.153,0.675-0.74,1.323-1.301,1.815c-0.537,0.467-1.328,0.934-2.067,0.934
		c-1.275,0-1.658-1.348-1.658-2.385c0-1.245,0.74-4.306,1.428-5.628c0.69-1.271,1.786-2.311,2.858-2.311
		c1.684,0,2.04,2.103,2.04,2.233s-0.051,0.285-0.076,0.388 M18.844,19.208c0.025-0.156,0.077-0.284,0.077-0.465
		c0-0.439-0.31-0.697-0.747-0.697c-0.258,0-0.953,0.182-1.056,1.11c-0.464-0.954-1.365-1.629-2.395-1.629
		c-2.936,0-6.127,3.612-6.127,7.326c0,2.554,1.569,4.075,3.422,4.075c1.519,0,2.729-1.21,2.985-1.494l0.027,0.026
		c-0.541,2.309-0.85,3.372-0.85,3.425c-0.103,0.233-0.977,2.802-3.702,2.802c-0.49,0-1.343-0.026-2.066-0.259
		c0.775-0.233,1.058-0.907,1.058-1.348c0-0.415-0.283-0.907-0.981-0.907c-0.568,0-1.395,0.463-1.395,1.488
		c0,1.051,0.953,1.565,3.425,1.565c3.22,0,5.075-2.013,5.461-3.561L18.844,19.208z"/>
	<path clip-path="url(#SVGID_6_)" d="M28.435,35.135c0-0.077,0-0.128-0.439-0.566c-3.223-3.247-4.048-8.116-4.048-12.058
		c0-4.483,0.979-8.967,4.151-12.188c0.336-0.31,0.336-0.361,0.336-0.438c0-0.18-0.104-0.258-0.26-0.258
		c-0.259,0-2.592,1.752-4.121,5.025c-1.321,2.833-1.633,5.694-1.633,7.858c0,2.01,0.286,5.127,1.71,8.039
		c1.555,3.168,3.783,4.843,4.042,4.843C28.33,35.392,28.434,35.314,28.435,35.135"/>
	<path clip-path="url(#SVGID_6_)" d="M38.567,21.123c0.154-0.673,0.747-3.057,2.55-3.057c0.129,0,0.747,0,1.287,0.36
		c-0.71,0.13-1.218,0.786-1.218,1.416c0,0.419,0.28,0.917,0.964,0.917c0.558,0,1.369-0.468,1.369-1.512
		c0-1.355-1.48-1.72-2.333-1.72c-1.502,0-2.407,1.376-2.718,1.974c-0.646-1.714-2.043-1.974-2.793-1.974
		c-2.69,0-4.166,3.336-4.166,3.982c0,0.258,0.258,0.258,0.31,0.258c0.206,0,0.283-0.052,0.334-0.287
		c0.877-2.763,2.578-3.415,3.453-3.415c0.489,0,1.391,0.234,1.391,1.736c0,0.803-0.438,2.538-1.391,6.163
		c-0.412,1.606-1.313,2.693-2.448,2.693c-0.154,0-0.747,0-1.288-0.358c0.657-0.131,1.236-0.681,1.236-1.416
		c0-0.708-0.559-0.918-0.939-0.918c-0.761,0-1.395,0.677-1.395,1.512c0,1.198,1.281,1.719,2.408,1.719
		c1.691,0,2.614-1.79,2.69-1.943c0.308,0.946,1.23,1.943,2.767,1.943c2.638,0,4.102-3.312,4.102-3.952
		c0-0.258-0.232-0.258-0.31-0.258c-0.231,0-0.283,0.104-0.334,0.285c-0.85,2.766-2.602,3.386-3.426,3.386
		c-1.005,0-1.417-0.829-1.417-1.709c0-0.57,0.154-1.14,0.438-2.279"/>
	<path clip-path="url(#SVGID_6_)" d="M56.628,23.002h7.215c0.362,0,0.854,0,0.854-0.494c0-0.495-0.493-0.495-0.854-0.495h-7.215
		v-7.227c0-0.36,0-0.853-0.494-0.853c-0.495,0-0.495,0.493-0.495,0.853v7.227h-7.223c-0.36,0-0.85,0-0.85,0.495
		c0,0.494,0.49,0.494,0.85,0.494h7.223v7.229c0,0.361,0,0.852,0.495,0.852c0.494,0,0.494-0.49,0.494-0.852"/>
	<path clip-path="url(#SVGID_6_)" d="M74.953,11.348c0-0.026,0-0.285-0.333-0.285c-0.59,0-2.464,0.206-3.131,0.257
		c-0.205,0.026-0.487,0.051-0.487,0.512c0,0.309,0.23,0.309,0.615,0.309c1.233,0,1.285,0.184,1.285,0.44l-0.077,0.515L69.102,27.91
		C69,28.271,69,28.322,69,28.476c0,0.592,0.514,0.721,0.746,0.721c0.412,0,0.824-0.31,0.953-0.671l0.489-1.963
		c0.18-0.774,0.386-1.549,0.565-2.324c0.154-0.567,0.309-1.136,0.438-1.73c0.051-0.155,0.258-1.006,0.282-1.162
		c0.077-0.233,0.876-1.679,1.751-2.376c0.566-0.413,1.365-0.907,2.472-0.907c1.107,0,1.392,0.88,1.392,1.81
		c0,1.395-0.957,4.209-1.56,5.785c-0.201,0.595-0.327,0.904-0.327,1.42c0,1.213,0.896,2.118,2.096,2.118
		c2.403,0,3.35-3.748,3.35-3.952c0-0.258-0.231-0.258-0.309-0.258c-0.256,0-0.256,0.078-0.384,0.466
		c-0.384,1.37-1.204,3.206-2.614,3.206c-0.435,0-0.614-0.259-0.614-0.852c0-0.646,0.225-1.265,0.45-1.833
		c0.4-1.11,1.527-4.183,1.527-5.681c0-1.678-1.029-2.765-2.953-2.765c-1.618,0-2.849,0.805-3.799,1.999"/>
	<path clip-path="url(#SVGID_6_)" d="M89.846,22.51c0-2.011-0.285-5.127-1.703-8.039c-1.546-3.169-3.764-4.845-4.021-4.845
		c-0.154,0-0.258,0.103-0.258,0.257c0,0.077,0,0.129,0.486,0.593c2.509,2.55,3.97,6.648,3.97,12.034
		c0,4.405-0.948,8.941-4.124,12.188c-0.333,0.31-0.333,0.36-0.333,0.438c0,0.155,0.104,0.258,0.258,0.258
		c0.258,0,2.578-1.753,4.099-5.024C89.535,27.534,89.846,24.674,89.846,22.51"/>
</g>
<g>
	<defs>
		<rect id="SVGID_7_" x="530.433" y="351.066" width="84.393" height="26.934"/>
	</defs>
	<clipPath id="SVGID_8_">
		<use xlink:href="#SVGID_7_"  overflow="visible"/>
	</clipPath>
	<path clip-path="url(#SVGID_8_)" d="M538.891,360.582h2.219c0.516,0,0.773,0,0.773-0.521c0-0.287-0.258-0.287-0.696-0.287h-2.142
		c0.284-1.488,0.258-1.438,0.542-2.924c0.103-0.54,0.465-2.359,0.619-2.668c0.232-0.487,0.671-0.873,1.212-0.873
		c0.104,0,0.773,0,1.267,0.449c-1.133,0.105-1.39,1.022-1.39,1.416c0,0.603,0.457,0.917,0.938,0.917
		c0.659,0,1.396-0.565,1.396-1.544c0-1.185-1.182-1.775-2.235-1.775c-0.873,0-2.491,0.46-3.261,2.989
		c-0.154,0.537-0.231,0.792-0.849,4.012h-1.771c-0.487,0-0.771,0-0.771,0.495c0,0.312,0.23,0.312,0.72,0.312h1.694l-1.927,10.221
		c-0.462,2.51-0.898,4.862-2.235,4.862c-0.102,0-0.745,0-1.232-0.45c1.139-0.075,1.361-0.983,1.361-1.361
		c0-0.579-0.456-0.884-0.938-0.884c-0.659,0-1.396,0.552-1.396,1.505c0,1.128,1.135,1.729,2.192,1.729
		c1.419,0,2.451-1.524,2.915-2.505c0.826-1.627,1.419-4.75,1.445-4.931"/>
	<path clip-path="url(#SVGID_8_)" d="M553.324,377.113c0-0.077,0-0.128-0.439-0.566c-3.224-3.246-4.048-8.115-4.048-12.058
		c0-4.483,0.979-8.968,4.151-12.188c0.336-0.31,0.336-0.361,0.336-0.438c0-0.18-0.104-0.259-0.26-0.259
		c-0.26,0-2.592,1.753-4.121,5.025c-1.321,2.834-1.633,5.694-1.633,7.858c0,2.011,0.285,5.127,1.71,8.039
		c1.555,3.169,3.783,4.843,4.043,4.843C553.219,377.37,553.323,377.293,553.324,377.113"/>
	<path clip-path="url(#SVGID_8_)" d="M563.456,363.102c0.154-0.674,0.747-3.058,2.551-3.058c0.129,0,0.747,0,1.287,0.36
		c-0.711,0.131-1.218,0.787-1.218,1.416c0,0.419,0.278,0.917,0.963,0.917c0.558,0,1.37-0.468,1.37-1.511
		c0-1.355-1.48-1.721-2.333-1.721c-1.502,0-2.408,1.377-2.718,1.974c-0.646-1.714-2.045-1.974-2.794-1.974
		c-2.691,0-4.166,3.336-4.166,3.982c0,0.259,0.258,0.259,0.311,0.259c0.205,0,0.283-0.052,0.334-0.287
		c0.877-2.764,2.576-3.415,3.452-3.415c0.489,0,1.391,0.234,1.391,1.737c0,0.802-0.438,2.537-1.391,6.162
		c-0.412,1.606-1.313,2.693-2.447,2.693c-0.154,0-0.747,0-1.288-0.357c0.656-0.132,1.236-0.682,1.236-1.416
		c0-0.708-0.559-0.919-0.939-0.919c-0.761,0-1.395,0.678-1.395,1.513c0,1.197,1.281,1.719,2.407,1.719
		c1.691,0,2.614-1.789,2.69-1.942c0.308,0.946,1.229,1.942,2.767,1.942c2.638,0,4.102-3.312,4.102-3.952
		c0-0.258-0.231-0.258-0.309-0.258c-0.231,0-0.284,0.104-0.335,0.285c-0.851,2.767-2.603,3.386-3.427,3.386
		c-1.004,0-1.416-0.828-1.416-1.709c0-0.569,0.155-1.14,0.438-2.279"/>
	<path clip-path="url(#SVGID_8_)" d="M581.518,364.981h7.214c0.362,0,0.854,0,0.854-0.494s-0.491-0.494-0.854-0.494h-7.214v-7.228
		c0-0.36,0-0.853-0.495-0.853c-0.493,0-0.493,0.492-0.493,0.853v7.228h-7.223c-0.36,0-0.852,0-0.852,0.494s0.491,0.494,0.852,0.494
		h7.223v7.229c0,0.361,0,0.852,0.493,0.852c0.495,0,0.495-0.49,0.495-0.852"/>
	<path clip-path="url(#SVGID_8_)" d="M599.842,353.326c0-0.025,0-0.284-0.334-0.284c-0.59,0-2.464,0.205-3.131,0.257
		c-0.206,0.025-0.487,0.051-0.487,0.512c0,0.309,0.23,0.309,0.615,0.309c1.232,0,1.285,0.185,1.285,0.44l-0.077,0.515l-3.723,14.815
		c-0.102,0.36-0.102,0.412-0.102,0.565c0,0.592,0.514,0.721,0.746,0.721c0.411,0,0.823-0.311,0.952-0.672l0.489-1.963
		c0.18-0.774,0.386-1.55,0.565-2.324c0.154-0.567,0.309-1.136,0.438-1.73c0.051-0.155,0.257-1.006,0.282-1.161
		c0.077-0.233,0.876-1.679,1.751-2.376c0.566-0.413,1.364-0.906,2.472-0.906s1.392,0.88,1.392,1.81c0,1.395-0.956,4.209-1.559,5.784
		c-0.202,0.595-0.327,0.904-0.327,1.421c0,1.213,0.895,2.118,2.096,2.118c2.403,0,3.35-3.748,3.35-3.953
		c0-0.258-0.23-0.258-0.308-0.258c-0.256,0-0.256,0.078-0.384,0.467c-0.385,1.369-1.204,3.205-2.614,3.205
		c-0.435,0-0.614-0.258-0.614-0.852c0-0.646,0.226-1.265,0.45-1.834c0.4-1.109,1.527-4.183,1.527-5.68
		c0-1.679-1.029-2.766-2.953-2.766c-1.618,0-2.85,0.805-3.799,1.999"/>
	<path clip-path="url(#SVGID_8_)" d="M614.733,364.488c0-2.01-0.284-5.127-1.701-8.039c-1.547-3.169-3.765-4.845-4.021-4.845
		c-0.154,0-0.258,0.104-0.258,0.258c0,0.077,0,0.129,0.486,0.593c2.509,2.551,3.97,6.648,3.97,12.033
		c0,4.406-0.947,8.941-4.123,12.188c-0.333,0.31-0.333,0.36-0.333,0.438c0,0.155,0.104,0.258,0.258,0.258
		c0.257,0,2.577-1.752,4.099-5.023C614.424,369.513,614.733,366.653,614.733,364.488"/>
</g>
<line fill="none" stroke="#000000" stroke-width="0.8564" x1="464.176" y1="82.623" x2="464.176" y2="343.611"/>
<line fill="none" stroke="#000000" stroke-width="0.8564" x1="464.176" y1="82.623" x2="96.692" y2="82.623"/>
<g>
	<path d="M495.367,61.792c-2.495,0-4.263-2.058-4.263-5.41c0-1.119,0.354-4.827,2.296-7.8c1.74-2.642,4.212-3.966,6.206-3.966
		c2.067,0,4.338,1.426,4.338,5.211c0,1.83-0.683,5.793-3.18,8.916C499.555,60.292,497.487,61.792,495.367,61.792 M506.245,50.812
		c0-4.078-2.691-6.816-6.471-6.816c-5.479,0-11.06,5.752-11.06,11.654c0,4.204,2.841,6.762,6.493,6.762
		C500.585,62.411,506.245,56.865,506.245,50.812z"/>
	<path d="M515.981,68c0-0.076,0-0.127-0.434-0.559c-3.178-3.2-3.991-8.003-3.991-11.892c0-4.421,0.966-8.843,4.094-12.019
		c0.331-0.305,0.331-0.356,0.331-0.433c0-0.177-0.103-0.254-0.256-0.254c-0.256,0-2.556,1.729-4.063,4.955
		c-1.303,2.796-1.611,5.615-1.611,7.749c0,1.983,0.283,5.057,1.688,7.929c1.532,3.125,3.73,4.775,3.986,4.775
		C515.878,68.253,515.98,68.177,515.981,68"/>
	<path d="M524.759,44.543c0-0.026,0-0.282-0.329-0.282c-0.582,0-2.431,0.202-3.088,0.254c-0.202,0.025-0.479,0.05-0.479,0.505
		c0,0.304,0.227,0.304,0.607,0.304c1.215,0,1.266,0.182,1.266,0.436l-0.076,0.506l-3.67,14.61c-0.101,0.355-0.101,0.406-0.101,0.559
		c0,0.583,0.507,0.71,0.735,0.71c0.406,0,0.813-0.306,0.939-0.662l0.482-1.936c0.177-0.764,0.38-1.528,0.557-2.293
		c0.153-0.56,0.306-1.119,0.434-1.706c0.051-0.152,0.254-0.991,0.278-1.145c0.076-0.229,0.863-1.656,1.726-2.343
		c0.559-0.408,1.347-0.896,2.438-0.896c1.091,0,1.372,0.87,1.372,1.786c0,1.375-0.943,4.15-1.538,5.704
		c-0.198,0.587-0.322,0.892-0.322,1.4c0,1.197,0.883,2.089,2.067,2.089c2.37,0,3.304-3.695,3.304-3.897
		c0-0.254-0.228-0.254-0.303-0.254c-0.254,0-0.254,0.077-0.38,0.46c-0.38,1.351-1.188,3.161-2.578,3.161
		c-0.429,0-0.605-0.256-0.605-0.84c0-0.638,0.222-1.248,0.444-1.809c0.395-1.095,1.506-4.125,1.506-5.601
		c0-1.656-1.016-2.729-2.912-2.729c-1.595,0-2.81,0.793-3.747,1.972"/>
	<path d="M541.04,48.107h-0.602c-0.054,0.393-0.23,1.444-0.46,1.624c-0.142,0.107-1.502,0.107-1.75,0.107h-3.251
		c1.855-1.648,2.474-2.146,3.534-2.979c1.308-1.048,2.527-2.147,2.527-3.832c0-2.146-1.869-3.459-4.126-3.459
		c-2.185,0-3.665,1.541-3.665,3.17c0,0.902,0.754,0.991,0.93,0.991c0.421,0,0.93-0.299,0.93-0.929c0-0.316-0.125-0.93-1.055-0.93
		c0.552-1.284,1.762-1.681,2.597-1.681c1.78,0,2.706,1.386,2.706,2.824c0,1.544-1.098,2.77-1.664,3.411l-4.268,4.226
		c-0.177,0.16-0.177,0.195-0.177,0.692h7.262"/>
	<path d="M550.866,55.549c0-1.982-0.281-5.057-1.679-7.927c-1.525-3.126-3.712-4.777-3.966-4.777c-0.152,0-0.254,0.101-0.254,0.254
		c0,0.076,0,0.127,0.479,0.584c2.475,2.515,3.915,6.557,3.915,11.866c0,4.346-0.935,8.817-4.066,12.019
		c-0.328,0.306-0.328,0.356-0.328,0.433c0,0.153,0.102,0.254,0.254,0.254c0.254,0,2.542-1.728,4.042-4.954
		C550.561,60.505,550.866,57.685,550.866,55.549"/>
</g>
<g>
	<path d="M502.14,219.414c-2.519,0-4.301-2.075-4.301-5.457c0-1.128,0.356-4.869,2.316-7.867c1.755-2.666,4.249-4,6.26-4
		c2.086,0,4.376,1.438,4.376,5.256c0,1.845-0.688,5.842-3.207,8.994C506.362,217.902,504.275,219.414,502.14,219.414
		 M513.112,208.338c0-4.113-2.714-6.875-6.529-6.875c-5.525,0-11.154,5.801-11.154,11.755c0,4.241,2.866,6.821,6.551,6.821
		C507.403,220.039,513.112,214.444,513.112,208.338z"/>
	<path d="M522.934,225.677c0-0.077,0-0.127-0.438-0.563c-3.206-3.229-4.026-8.073-4.026-11.994c0-4.461,0.974-8.922,4.13-12.125
		c0.334-0.307,0.334-0.359,0.334-0.436c0-0.18-0.104-0.258-0.259-0.258c-0.258,0-2.578,1.744-4.099,5
		c-1.315,2.818-1.625,5.664-1.625,7.816c0,2,0.284,5.101,1.702,7.998c1.546,3.151,3.763,4.816,4.021,4.816
		C522.829,225.932,522.933,225.855,522.934,225.677"/>
	<path d="M531.697,202.015c0-0.026,0-0.284-0.331-0.284c-0.587,0-2.451,0.205-3.114,0.256c-0.205,0.025-0.485,0.051-0.485,0.509
		c0,0.308,0.229,0.308,0.612,0.308c1.226,0,1.277,0.184,1.277,0.438l-0.077,0.512l-3.701,14.738
		c-0.102,0.358-0.102,0.41-0.102,0.562c0,0.589,0.512,0.717,0.741,0.717c0.41,0,0.82-0.309,0.948-0.668l0.487-1.953
		c0.179-0.77,0.383-1.541,0.562-2.312c0.153-0.563,0.308-1.129,0.437-1.721c0.051-0.154,0.256-1,0.281-1.154
		c0.077-0.232,0.87-1.671,1.742-2.364c0.562-0.411,1.356-0.901,2.458-0.901c1.101,0,1.385,0.875,1.385,1.8
		c0,1.388-0.952,4.187-1.552,5.755c-0.2,0.591-0.325,0.898-0.325,1.412c0,1.207,0.89,2.107,2.086,2.107
		c2.391,0,3.331-3.729,3.331-3.932c0-0.256-0.229-0.256-0.306-0.256c-0.255,0-0.255,0.077-0.382,0.463
		c-0.382,1.363-1.199,3.189-2.601,3.189c-0.433,0-0.61-0.258-0.61-0.848c0-0.643,0.223-1.258,0.447-1.824
		c0.398-1.104,1.518-4.16,1.518-5.65c0-1.67-1.022-2.751-2.938-2.751c-1.607,0-2.833,0.801-3.778,1.988"/>
	<path d="M546.603,213.117c0-2-0.284-5.1-1.694-7.996c-1.539-3.153-3.744-4.82-4.001-4.82c-0.153,0-0.256,0.104-0.256,0.257
		c0,0.077,0,0.128,0.483,0.589c2.496,2.538,3.949,6.614,3.949,11.971c0,4.383-0.942,8.895-4.102,12.125
		c-0.331,0.308-0.331,0.357-0.331,0.435c0,0.154,0.103,0.257,0.256,0.257c0.257,0,2.565-1.744,4.078-4.998
		c1.309-2.819,1.617-5.664,1.617-7.816"/>
</g>
<g>
	<path d="M261.558,59.5c-2.519,0-4.301-2.075-4.301-5.457c0-1.128,0.356-4.869,2.316-7.867c1.755-2.666,4.249-4,6.26-4
		c2.086,0,4.376,1.438,4.376,5.256c0,1.845-0.688,5.842-3.207,8.994C265.781,57.988,263.694,59.5,261.558,59.5 M272.531,48.424
		c0-4.113-2.714-6.875-6.529-6.875c-5.525,0-11.154,5.801-11.154,11.755c0,4.241,2.866,6.821,6.551,6.821
		C266.822,60.125,272.531,54.53,272.531,48.424z"/>
	<path d="M282.352,65.763c0-0.077,0-0.127-0.438-0.563c-3.206-3.229-4.026-8.073-4.026-11.994c0-4.461,0.974-8.922,4.13-12.125
		c0.334-0.307,0.334-0.359,0.334-0.436c0-0.18-0.104-0.258-0.259-0.258c-0.258,0-2.578,1.744-4.099,5
		c-1.315,2.818-1.625,5.664-1.625,7.816c0,2,0.284,5.101,1.702,7.998c1.546,3.151,3.763,4.816,4.021,4.816
		C282.248,66.018,282.351,65.941,282.352,65.763"/>
	<path d="M291.116,42.101c0-0.026,0-0.284-0.331-0.284c-0.587,0-2.451,0.205-3.114,0.256c-0.205,0.025-0.485,0.051-0.485,0.509
		c0,0.308,0.229,0.308,0.612,0.308c1.226,0,1.277,0.184,1.277,0.438l-0.077,0.512l-3.701,14.738
		c-0.102,0.358-0.102,0.41-0.102,0.562c0,0.589,0.512,0.717,0.741,0.717c0.41,0,0.82-0.309,0.948-0.668l0.487-1.953
		c0.179-0.77,0.383-1.541,0.562-2.312c0.153-0.563,0.308-1.129,0.437-1.721c0.051-0.154,0.256-1,0.281-1.154
		c0.077-0.232,0.87-1.671,1.742-2.364c0.562-0.411,1.356-0.901,2.458-0.901c1.101,0,1.385,0.875,1.385,1.8
		c0,1.388-0.952,4.187-1.552,5.755c-0.2,0.591-0.325,0.898-0.325,1.412c0,1.207,0.89,2.107,2.086,2.107
		c2.391,0,3.331-3.729,3.331-3.932c0-0.256-0.229-0.256-0.306-0.256c-0.255,0-0.255,0.077-0.382,0.463
		c-0.382,1.363-1.199,3.189-2.601,3.189c-0.433,0-0.61-0.258-0.61-0.848c0-0.643,0.223-1.258,0.447-1.824
		c0.398-1.104,1.518-4.16,1.518-5.65c0-1.67-1.022-2.751-2.938-2.751c-1.607,0-2.833,0.801-3.778,1.988"/>
	<path d="M306.021,53.203c0-2-0.284-5.1-1.694-7.996c-1.539-3.153-3.744-4.82-4.001-4.82c-0.153,0-0.256,0.104-0.256,0.257
		c0,0.077,0,0.128,0.483,0.589c2.496,2.538,3.949,6.614,3.949,11.971c0,4.383-0.942,8.895-4.102,12.125
		c-0.331,0.308-0.331,0.357-0.331,0.435c0,0.154,0.103,0.257,0.256,0.257c0.257,0,2.565-1.744,4.078-4.998
		c1.309-2.819,1.617-5.664,1.617-7.816"/>
</g>
</svg>
