<?xml version="1.0" encoding="utf-8"?>
<!-- Generator: Adobe Illustrator 14.0.0, SVG Export Plug-In . SVG Version: 6.00 Build 43363)  -->
<!DOCTYPE svg PUBLIC "-//W3C//DTD SVG 1.1//EN" "http://www.w3.org/Graphics/SVG/1.1/DTD/svg11.dtd">
<svg version="1.1" id="Layer_1" xmlns="http://www.w3.org/2000/svg" xmlns:xlink="http://www.w3.org/1999/xlink" x="0px" y="0px"
	 width="403px" height="232px" viewBox="0 0 403 232" enable-background="new 0 0 403 232" xml:space="preserve">
<path fill="#231F20" d="M53.287,205.521c0.242-2.654-1.713-5-4.364-5.242c-2.652-0.241-4.999,1.713-5.241,4.367
	c-0.241,2.65,1.713,4.996,4.365,5.238S53.045,208.172,53.287,205.521z"/>
<circle fill="#231F20" cx="164.657" cy="30.902" r="4.822"/>
<line fill="none" stroke="#000000" stroke-width="2.6677" x1="47.954" y1="206.038" x2="165.248" y2="30.557"/>
<polygon points="111.396,123.137 108.602,123.7 107.275,117.113 100.689,118.44 100.127,115.647 109.506,113.755 "/>
<g>
	<defs>
		<rect id="SVGID_1_" x="10.661" y="208.65" width="80.491" height="14.27"/>
	</defs>
	<clipPath id="SVGID_2_">
		<use xlink:href="#SVGID_1_"  overflow="visible"/>
	</clipPath>
	<path clip-path="url(#SVGID_2_)" d="M15.027,215.744v-5.286c0-0.646,0.039-0.784,0.957-0.784h1.737
		c3.104,0,3.104,2.076,3.104,3.035c0,0.92,0,3.035-3.104,3.035 M15.104,216.221h3.307c2.348,0,4.462-1.58,4.462-3.531
		c0-1.912-1.938-3.631-4.618-3.631h-6.907v0.615h0.46c1.477,0,1.516,0.215,1.516,0.918v10.305c0,0.705-0.039,0.919-1.516,0.919
		h-0.46v0.614c0.685-0.059,2.133-0.059,2.876-0.059c0.744,0,2.211,0,2.896,0.059v-0.614h-0.47c-1.507,0-1.545-0.216-1.545-0.922
		V216.221z"/>
	<path clip-path="url(#SVGID_2_)" d="M29.761,217.723v1.965c0,1.867-1.4,2.535-2.275,2.535c-0.953,0-1.75-0.688-1.75-1.67
		C25.735,219.473,26.552,217.841,29.761,217.723 M29.913,220.941c0.077,0.793,0.605,1.625,1.521,1.625c0.41,0,1.6-0.275,1.6-1.872
		v-1.104h-0.477v1.103c0,1.141-0.491,1.259-0.707,1.259c-0.647,0-0.726-0.886-0.726-0.983v-3.935c0-0.826,0-1.594-0.699-2.321
		c-0.755-0.768-1.723-1.084-2.653-1.084c-1.587,0-2.923,0.922-2.923,2.217c0,0.589,0.385,0.922,0.887,0.922
		c0.54,0,0.887-0.395,0.887-0.909c0-0.237-0.1-0.891-1.014-0.911c0.524-0.691,1.474-0.91,2.095-0.91c0.95,0,2.057,0.775,2.057,2.542
		v0.734c-0.993,0.06-2.354,0.118-3.581,0.705c-1.459,0.665-1.945,1.683-1.945,2.542c0,1.584,1.892,2.072,3.122,2.072
		C28.645,222.633,29.542,221.855,29.913,220.941z"/>
	<path clip-path="url(#SVGID_2_)" d="M37.276,218.625c0.43,0.078,2.034,0.394,2.034,1.809c0,1.004-0.685,1.789-2.211,1.789
		c-1.643,0-2.346-1.119-2.718-2.787c-0.059-0.256-0.078-0.334-0.273-0.334c-0.254,0-0.254,0.137-0.254,0.488v2.574
		c0,0.332,0,0.469,0.215,0.469c0.098,0,0.117-0.02,0.49-0.387c0.039-0.038,0.039-0.076,0.392-0.443
		c0.862,0.811,1.745,0.83,2.156,0.83c2.255,0,3.158-1.318,3.158-2.736c0-1.043-0.587-1.633-0.822-1.87
		c-0.646-0.63-1.408-0.787-2.23-0.944c-1.095-0.217-2.405-0.473-2.405-1.615c0-0.688,0.51-1.497,2.195-1.497
		c2.156,0,2.254,1.806,2.293,2.427c0.02,0.18,0.196,0.18,0.235,0.18c0.256,0,0.256-0.1,0.256-0.475v-1.998
		c0-0.336,0-0.476-0.216-0.476c-0.098,0-0.138,0-0.393,0.235c-0.059,0.078-0.256,0.254-0.334,0.312
		c-0.747-0.548-1.552-0.548-1.847-0.548c-2.397,0-3.144,1.318-3.144,2.419c0,0.688,0.313,1.24,0.84,1.672
		C35.32,218.23,35.867,218.348,37.276,218.625"/>
	<path clip-path="url(#SVGID_2_)" d="M47.292,217.723v1.965c0,1.867-1.401,2.535-2.276,2.535c-0.953,0-1.75-0.688-1.75-1.67
		C43.266,219.473,44.083,217.841,47.292,217.723 M47.443,220.941c0.078,0.793,0.605,1.625,1.521,1.625
		c0.41,0,1.601-0.275,1.601-1.872v-1.104h-0.478v1.103c0,1.141-0.49,1.259-0.707,1.259c-0.647,0-0.726-0.886-0.726-0.983v-3.935
		c0-0.826,0-1.594-0.699-2.321c-0.755-0.768-1.723-1.084-2.653-1.084c-1.587,0-2.924,0.922-2.924,2.217
		c0,0.589,0.386,0.922,0.887,0.922c0.54,0,0.887-0.395,0.887-0.909c0-0.237-0.1-0.891-1.014-0.911
		c0.524-0.691,1.475-0.91,2.095-0.91c0.95,0,2.057,0.775,2.057,2.542v0.734c-0.993,0.06-2.355,0.118-3.581,0.705
		c-1.459,0.665-1.945,1.683-1.945,2.542c0,1.584,1.892,2.072,3.122,2.072C46.175,222.633,47.073,221.855,47.443,220.941z"/>
	<path clip-path="url(#SVGID_2_)" d="M58.139,216.086v4.032c0,0.354,0,0.394-0.215,0.729c-0.584,0.944-1.459,1.378-2.296,1.378
		c-0.876,0-1.576-0.512-2.043-1.26c-0.505-0.807-0.564-1.929-0.564-2.735c0-0.728,0.039-1.908,0.604-2.794
		c0.408-0.609,1.147-1.261,2.198-1.261c0.681,0,1.498,0.296,2.102,1.182c0.215,0.335,0.215,0.374,0.215,0.728 M58.144,221.353v1.28
		l2.873-0.214v-0.604c-1.36,0-1.516-0.137-1.516-1.094v-11.865l-2.829,0.215v0.604c1.376,0,1.534,0.137,1.534,1.094v4.225
		c-0.567-0.712-1.408-1.227-2.463-1.227c-2.305,0-4.358,1.92-4.358,4.443c0,2.486,1.914,4.424,4.141,4.424
		C56.776,222.633,57.654,221.975,58.144,221.353z"/>
	<path clip-path="url(#SVGID_2_)" d="M63.797,217.518c0.118-2.979,1.761-3.48,2.428-3.48c2.016,0,2.213,2.701,2.213,3.48
		 M69.244,217.928c0.43,0,0.489,0,0.489-0.41c0-1.963-1.057-3.889-3.502-3.889c-2.27,0-4.069,2.021-4.069,4.474
		c0,2.628,2.054,4.53,4.303,4.53c2.387,0,3.268-2.163,3.268-2.533c0-0.195-0.157-0.234-0.254-0.234
		c-0.176,0-0.215,0.118-0.254,0.274c-0.684,2.017-2.439,2.017-2.635,2.017c-0.976,0-1.757-0.584-2.206-1.307
		c-0.586-0.935-0.586-2.221-0.586-2.922H69.244z"/>
	<path clip-path="url(#SVGID_2_)" d="M72.394,215.682v5.252c0,0.882-0.21,0.882-1.488,0.882v0.614
		c0.685-0.02,1.683-0.059,2.211-0.059c0.509,0,1.527,0.039,2.192,0.059v-0.614c-1.332,0-1.551,0-1.551-0.884v-3.613
		c0-2.043,1.39-3.143,2.643-3.143c1.234,0,1.45,1.061,1.45,2.18v4.576c0,0.884-0.213,0.884-1.505,0.884v0.614
		c0.685-0.02,1.683-0.059,2.211-0.059c0.509,0,1.526,0.039,2.192,0.059v-0.614c-1.024,0-1.516,0-1.536-0.587v-3.74
		c0-1.684,0-2.291-0.611-2.996c-0.276-0.332-0.926-0.726-2.068-0.726c-1.438,0-2.363,0.847-2.914,2.067v-2.067l-2.716,0.214v0.604
		C72.242,214.584,72.394,214.722,72.394,215.682"/>
	<path clip-path="url(#SVGID_2_)" d="M87.537,217.723v1.965c0,1.867-1.401,2.535-2.276,2.535c-0.952,0-1.749-0.688-1.749-1.67
		C83.511,219.473,84.328,217.841,87.537,217.723 M87.688,220.941c0.078,0.793,0.605,1.625,1.522,1.625c0.41,0,1.6-0.275,1.6-1.872
		v-1.104h-0.478v1.103c0,1.141-0.49,1.259-0.707,1.259c-0.647,0-0.726-0.886-0.726-0.983v-3.935c0-0.826,0-1.594-0.699-2.321
		c-0.755-0.768-1.723-1.084-2.652-1.084c-1.588,0-2.924,0.922-2.924,2.217c0,0.589,0.386,0.922,0.887,0.922
		c0.54,0,0.887-0.395,0.887-0.909c0-0.237-0.1-0.891-1.014-0.911c0.524-0.691,1.474-0.91,2.095-0.91c0.95,0,2.057,0.775,2.057,2.542
		v0.734c-0.993,0.06-2.354,0.118-3.58,0.705c-1.46,0.665-1.946,1.683-1.946,2.542c0,1.584,1.892,2.072,3.121,2.072
		C86.421,222.633,87.318,221.855,87.688,220.941z"/>
</g>
<g>
	<defs>
		<rect id="SVGID_3_" x="126.367" y="8.333" width="77.762" height="14.952"/>
	</defs>
	<clipPath id="SVGID_4_">
		<use xlink:href="#SVGID_3_"  overflow="visible"/>
	</clipPath>
	<path clip-path="url(#SVGID_4_)" d="M133.119,11.364l2.212,6.381h-4.404 M134.158,9.203c-0.098-0.254-0.138-0.394-0.451-0.394
		s-0.372,0.12-0.47,0.394l-4.06,11.669c-0.353,0.995-1.137,1.288-2.196,1.308v0.614c0.451-0.02,1.294-0.059,2-0.059
		c0.608,0,1.627,0.039,2.255,0.059V22.18c-0.98,0-1.471-0.485-1.471-0.989c0-0.059,0.02-0.253,0.039-0.292l0.903-2.541h4.843
		l1.039,2.967c0.02,0.078,0.059,0.194,0.059,0.272c0,0.582-1.098,0.582-1.627,0.582v0.614c0.706-0.059,2.078-0.059,2.824-0.059
		c0.843,0,1.745,0.02,2.57,0.059V22.18h-0.355c-1.176,0-1.451-0.136-1.667-0.781L134.158,9.203z"/>
	<path clip-path="url(#SVGID_4_)" d="M144.511,9.219l-2.832,0.214v0.604c1.378,0,1.536,0.14,1.536,1.098V21.3
		c0,0.879-0.217,0.879-1.536,0.879v0.614c0.646-0.021,1.684-0.059,2.172-0.059s1.448,0.039,2.173,0.059V22.18
		c-1.299,0-1.513,0-1.513-0.879"/>
	<path clip-path="url(#SVGID_4_)" d="M149.9,14.949h2.774v-0.614H149.9v-3.546h-0.493c-0.02,1.586-0.611,3.657-2.545,3.735v0.426
		h1.675v5.406c0,2.409,1.808,2.643,2.508,2.643c1.381,0,1.925-1.388,1.925-2.638v-1.113h-0.478v1.078
		c0,1.451-0.581,2.196-1.296,2.196c-1.296,0-1.296-1.786-1.296-2.118"/>
	<path clip-path="url(#SVGID_4_)" d="M160.405,18.087v1.966c0,1.867-1.4,2.535-2.275,2.535c-0.953,0-1.75-0.688-1.75-1.67
		C156.38,19.837,157.196,18.205,160.405,18.087 M160.557,21.306c0.078,0.792,0.605,1.625,1.522,1.625c0.41,0,1.6-0.275,1.6-1.872
		v-1.104h-0.478v1.103c0,1.141-0.491,1.259-0.707,1.259c-0.647,0-0.726-0.885-0.726-0.984v-3.935c0-0.826,0-1.593-0.698-2.321
		c-0.755-0.768-1.723-1.084-2.653-1.084c-1.587,0-2.923,0.923-2.923,2.217c0,0.589,0.385,0.923,0.887,0.923
		c0.54,0,0.887-0.396,0.887-0.91c0-0.237-0.1-0.891-1.014-0.91c0.524-0.691,1.474-0.91,2.095-0.91c0.95,0,2.057,0.775,2.057,2.542
		v0.734c-0.993,0.06-2.355,0.118-3.581,0.705c-1.459,0.665-1.945,1.682-1.945,2.542c0,1.584,1.892,2.073,3.121,2.073
		C159.289,22.998,160.187,22.221,160.557,21.306z"/>
	<path clip-path="url(#SVGID_4_)" d="M171.321,16.45v4.033c0,0.355,0,0.394-0.215,0.729c-0.583,0.944-1.458,1.378-2.296,1.378
		c-0.876,0-1.576-0.512-2.043-1.26c-0.505-0.807-0.563-1.929-0.563-2.735c0-0.728,0.039-1.908,0.603-2.793
		c0.408-0.61,1.148-1.261,2.198-1.261c0.681,0,1.498,0.296,2.102,1.182c0.215,0.334,0.215,0.374,0.215,0.728 M171.325,21.717v1.281
		l2.873-0.214V22.18c-1.359,0-1.515-0.137-1.515-1.094V9.22l-2.83,0.215v0.604c1.376,0,1.534,0.137,1.534,1.094v4.224
		c-0.567-0.712-1.407-1.226-2.463-1.226c-2.305,0-4.358,1.92-4.358,4.444c0,2.486,1.914,4.424,4.142,4.424
		C169.958,22.998,170.837,22.339,171.325,21.717z"/>
	<path clip-path="url(#SVGID_4_)" d="M176.912,17.883c0.118-2.979,1.761-3.48,2.427-3.48c2.016,0,2.213,2.701,2.213,3.48
		 M182.358,18.292c0.43,0,0.489,0,0.489-0.41c0-1.964-1.057-3.89-3.502-3.89c-2.27,0-4.069,2.021-4.069,4.474
		c0,2.627,2.054,4.531,4.303,4.531c2.387,0,3.268-2.164,3.268-2.533c0-0.195-0.157-0.234-0.255-0.234
		c-0.175,0-0.215,0.118-0.254,0.273c-0.684,2.017-2.44,2.017-2.635,2.017c-0.976,0-1.756-0.584-2.206-1.306
		c-0.585-0.935-0.585-2.222-0.585-2.922H182.358z"/>
	<path clip-path="url(#SVGID_4_)" d="M185.575,16.046v5.252c0,0.882-0.21,0.882-1.488,0.882v0.614
		c0.685-0.02,1.684-0.059,2.212-0.059c0.509,0,1.526,0.039,2.191,0.059V22.18c-1.332,0-1.551,0-1.551-0.884v-3.613
		c0-2.042,1.39-3.142,2.643-3.142c1.234,0,1.45,1.061,1.45,2.18v4.576c0,0.884-0.212,0.884-1.505,0.884v0.614
		c0.685-0.02,1.684-0.059,2.211-0.059c0.509,0,1.527,0.039,2.192,0.059V22.18c-1.024,0-1.515,0-1.536-0.587v-3.74
		c0-1.684,0-2.292-0.61-2.997c-0.276-0.332-0.926-0.725-2.068-0.725c-1.438,0-2.363,0.847-2.915,2.067v-2.067l-2.716,0.214v0.604
		C185.423,14.949,185.575,15.086,185.575,16.046"/>
	<path clip-path="url(#SVGID_4_)" d="M200.65,18.087v1.966c0,1.867-1.4,2.535-2.275,2.535c-0.953,0-1.75-0.688-1.75-1.67
		C196.625,19.837,197.441,18.205,200.65,18.087 M200.802,21.306c0.078,0.792,0.605,1.625,1.522,1.625
		c0.41,0,1.601-0.275,1.601-1.872v-1.104h-0.478v1.103c0,1.141-0.49,1.259-0.707,1.259c-0.646,0-0.726-0.885-0.726-0.984v-3.935
		c0-0.826,0-1.593-0.698-2.321c-0.755-0.768-1.724-1.084-2.654-1.084c-1.586,0-2.923,0.923-2.923,2.217
		c0,0.589,0.385,0.923,0.887,0.923c0.54,0,0.887-0.396,0.887-0.91c0-0.237-0.1-0.891-1.014-0.91c0.524-0.691,1.475-0.91,2.096-0.91
		c0.95,0,2.056,0.775,2.056,2.542v0.734c-0.992,0.06-2.354,0.118-3.58,0.705c-1.459,0.665-1.946,1.682-1.946,2.542
		c0,1.584,1.893,2.073,3.122,2.073C199.534,22.998,200.432,22.221,200.802,21.306z"/>
</g>
<g>
	<path d="M119.545,118.643c0-0.469,0-0.511-0.448-0.511c-1.207,1.228-2.917,1.228-3.54,1.228v0.614c0.39,0,1.541,0,2.555-0.497
		v10.132c0,0.704-0.059,0.938-1.814,0.938h-0.624v0.615c0.685-0.06,2.388-0.06,3.17-0.06c0.783,0,2.486,0,3.17,0.06v-0.615h-0.633
		c-1.779,0-1.838-0.215-1.838-0.938"/>
	<path d="M132.371,127.234c0-2.312-1.606-4.258-3.722-4.258c-0.939,0-1.781,0.301-2.486,0.962v-3.815
		c0.391,0.12,1.035,0.26,1.66,0.26c2.403,0,3.772-1.785,3.772-2.041c0-0.117-0.059-0.215-0.196-0.215c-0.02,0-0.059,0-0.157,0.058
		c-0.391,0.175-1.35,0.562-2.661,0.562c-0.783,0-1.683-0.136-2.603-0.542c-0.156-0.059-0.195-0.059-0.235-0.059
		c-0.196,0-0.196,0.156-0.196,0.469v5.794c0,0.352,0,0.509,0.272,0.509c0.137,0,0.176-0.059,0.253-0.175
		c0.214-0.31,0.935-1.358,2.514-1.358c1.014,0,1.501,0.896,1.657,1.248c0.312,0.721,0.352,1.48,0.352,2.455
		c0,0.683,0,1.852-0.47,2.67c-0.468,0.76-1.189,1.268-2.086,1.268c-1.423,0-2.535-1.028-2.866-2.174
		c0.059,0.028,0.119,0.057,0.337,0.057c0.654,0,0.992-0.486,0.992-0.953c0-0.469-0.328-0.955-0.964-0.955
		c-0.271,0-0.946,0.137-0.946,1.027c0,1.666,1.345,3.544,3.528,3.544c2.26,0,4.249-1.866,4.249-4.335"/>
	<path d="M139.054,118.643c0-0.469,0-0.511-0.448-0.511c-1.207,1.228-2.917,1.228-3.54,1.228v0.614c0.391,0,1.541,0,2.556-0.497
		v10.132c0,0.704-0.059,0.938-1.814,0.938h-0.624v0.615c0.685-0.06,2.387-0.06,3.17-0.06c0.783,0,2.485,0,3.17,0.06v-0.615h-0.633
		c-1.779,0-1.839-0.215-1.839-0.938"/>
	<path d="M145.262,124.414v5.252c0,0.881-0.21,0.881-1.489,0.881v0.615c0.685-0.021,1.684-0.06,2.212-0.06
		c0.509,0,1.527,0.039,2.191,0.06v-0.615c-1.332,0-1.55,0-1.55-0.883v-3.613c0-2.043,1.39-3.143,2.643-3.143
		c1.233,0,1.449,1.061,1.449,2.18v4.576c0,0.883-0.213,0.883-1.504,0.883v0.615c0.685-0.021,1.683-0.06,2.211-0.06
		c0.509,0,1.526,0.039,2.192,0.06v-0.615c-1.318,0-1.536,0-1.536-0.883v-3.613c0-2.043,1.39-3.143,2.643-3.143
		c1.234,0,1.45,1.061,1.45,2.18v4.576c0,0.883-0.214,0.883-1.521,0.883v0.615c0.685-0.021,1.684-0.06,2.212-0.06
		c0.509,0,1.527,0.039,2.192,0.06v-0.615c-1.012,0-1.5,0-1.519-0.587v-3.739c0-1.686,0-2.292-0.612-2.996
		c-0.275-0.333-0.924-0.727-2.063-0.727c-1.651,0-2.517,1.182-2.851,1.932c-0.275-1.714-1.73-1.932-2.615-1.932
		c-1.435,0-2.359,0.848-2.909,2.068v-2.068l-2.716,0.215v0.604C145.109,123.316,145.261,123.454,145.262,124.414"/>
</g>
<path fill="#231F20" d="M240.33,205.521c0.242-2.654-1.713-5-4.363-5.242c-2.652-0.241-4.999,1.713-5.241,4.367
	c-0.241,2.65,1.714,4.996,4.365,5.238C237.743,210.127,240.089,208.172,240.33,205.521z"/>
<circle fill="#231F20" cx="351.701" cy="30.902" r="4.822"/>
<line fill="none" stroke="#000000" stroke-width="2.6677" x1="234.997" y1="206.038" x2="352.292" y2="30.557"/>
<polygon points="288.011,114.318 290.805,113.755 292.131,120.342 298.718,119.015 299.278,121.809 289.9,123.699 "/>
<g>
	<defs>
		<rect id="SVGID_5_" x="197.705" y="208.65" width="80.49" height="14.27"/>
	</defs>
	<clipPath id="SVGID_6_">
		<use xlink:href="#SVGID_5_"  overflow="visible"/>
	</clipPath>
	<path clip-path="url(#SVGID_6_)" d="M202.07,215.744v-5.286c0-0.646,0.039-0.784,0.957-0.784h1.738
		c3.104,0,3.104,2.076,3.104,3.035c0,0.92,0,3.035-3.104,3.035 M202.146,216.221h3.308c2.348,0,4.462-1.58,4.462-3.531
		c0-1.912-1.938-3.631-4.619-3.631h-6.907v0.615h0.461c1.477,0,1.515,0.215,1.515,0.918v10.305c0,0.705-0.039,0.919-1.515,0.919
		h-0.461v0.614c0.685-0.059,2.133-0.059,2.876-0.059s2.211,0,2.896,0.059v-0.614h-0.469c-1.508,0-1.547-0.216-1.547-0.922V216.221z"
		/>
	<path clip-path="url(#SVGID_6_)" d="M216.805,217.723v1.965c0,1.867-1.401,2.535-2.275,2.535c-0.954,0-1.75-0.688-1.75-1.67
		C212.779,219.473,213.596,217.841,216.805,217.723 M216.957,220.941c0.077,0.793,0.604,1.625,1.521,1.625
		c0.41,0,1.6-0.275,1.6-1.872v-1.104h-0.477v1.103c0,1.141-0.491,1.259-0.708,1.259c-0.647,0-0.725-0.886-0.725-0.983v-3.935
		c0-0.826,0-1.594-0.699-2.321c-0.755-0.768-1.723-1.084-2.652-1.084c-1.587,0-2.923,0.922-2.923,2.217
		c0,0.589,0.385,0.922,0.886,0.922c0.539,0,0.888-0.395,0.888-0.909c0-0.237-0.101-0.891-1.015-0.911
		c0.523-0.691,1.475-0.91,2.095-0.91c0.95,0,2.057,0.775,2.057,2.542v0.734c-0.993,0.06-2.354,0.118-3.58,0.705
		c-1.459,0.665-1.945,1.683-1.945,2.542c0,1.584,1.892,2.072,3.121,2.072C215.688,222.633,216.587,221.855,216.957,220.941z"/>
	<path clip-path="url(#SVGID_6_)" d="M224.32,218.625c0.431,0.078,2.034,0.394,2.034,1.809c0,1.004-0.686,1.789-2.211,1.789
		c-1.644,0-2.347-1.119-2.718-2.787c-0.059-0.256-0.078-0.334-0.274-0.334c-0.254,0-0.254,0.137-0.254,0.488v2.574
		c0,0.332,0,0.469,0.215,0.469c0.099,0,0.117-0.02,0.49-0.387c0.039-0.038,0.039-0.076,0.392-0.443
		c0.862,0.811,1.745,0.83,2.157,0.83c2.254,0,3.157-1.318,3.157-2.736c0-1.043-0.588-1.633-0.822-1.87
		c-0.646-0.63-1.408-0.787-2.229-0.944c-1.096-0.217-2.405-0.473-2.405-1.615c0-0.688,0.509-1.497,2.195-1.497
		c2.156,0,2.254,1.806,2.293,2.427c0.02,0.18,0.196,0.18,0.234,0.18c0.256,0,0.256-0.1,0.256-0.475v-1.998
		c0-0.336,0-0.476-0.216-0.476c-0.099,0-0.137,0-0.393,0.235c-0.059,0.078-0.256,0.254-0.335,0.312
		c-0.746-0.548-1.551-0.548-1.846-0.548c-2.397,0-3.144,1.318-3.144,2.419c0,0.688,0.312,1.24,0.84,1.672
		C222.363,218.23,222.911,218.348,224.32,218.625"/>
	<path clip-path="url(#SVGID_6_)" d="M234.335,217.723v1.965c0,1.867-1.4,2.535-2.275,2.535c-0.952,0-1.75-0.688-1.75-1.67
		C230.31,219.473,231.126,217.841,234.335,217.723 M234.487,220.941c0.077,0.793,0.604,1.625,1.521,1.625
		c0.41,0,1.601-0.275,1.601-1.872v-1.104h-0.478v1.103c0,1.141-0.49,1.259-0.706,1.259c-0.647,0-0.727-0.886-0.727-0.983v-3.935
		c0-0.826,0-1.594-0.698-2.321c-0.755-0.768-1.724-1.084-2.653-1.084c-1.587,0-2.924,0.922-2.924,2.217
		c0,0.589,0.386,0.922,0.888,0.922c0.54,0,0.886-0.395,0.886-0.909c0-0.237-0.099-0.891-1.014-0.911
		c0.524-0.691,1.475-0.91,2.096-0.91c0.95,0,2.057,0.775,2.057,2.542v0.734c-0.993,0.06-2.355,0.118-3.581,0.705
		c-1.458,0.665-1.944,1.683-1.944,2.542c0,1.584,1.892,2.072,3.121,2.072C233.219,222.633,234.116,221.855,234.487,220.941z"/>
	<path clip-path="url(#SVGID_6_)" d="M245.183,216.086v4.032c0,0.354,0,0.394-0.215,0.729c-0.584,0.944-1.459,1.378-2.296,1.378
		c-0.876,0-1.576-0.512-2.043-1.26c-0.506-0.807-0.564-1.929-0.564-2.735c0-0.728,0.039-1.908,0.604-2.794
		c0.408-0.609,1.147-1.261,2.198-1.261c0.681,0,1.498,0.296,2.102,1.182c0.215,0.335,0.215,0.374,0.215,0.728 M245.188,221.353v1.28
		l2.873-0.214v-0.604c-1.36,0-1.516-0.137-1.516-1.094v-11.865l-2.829,0.215v0.604c1.376,0,1.534,0.137,1.534,1.094v4.225
		c-0.567-0.712-1.408-1.227-2.464-1.227c-2.305,0-4.357,1.92-4.357,4.443c0,2.486,1.913,4.424,4.141,4.424
		C243.82,222.633,244.698,221.975,245.188,221.353z"/>
	<path clip-path="url(#SVGID_6_)" d="M250.841,217.518c0.118-2.979,1.762-3.48,2.428-3.48c2.016,0,2.213,2.701,2.213,3.48
		 M256.287,217.928c0.43,0,0.489,0,0.489-0.41c0-1.963-1.057-3.889-3.503-3.889c-2.269,0-4.068,2.021-4.068,4.474
		c0,2.628,2.054,4.53,4.304,4.53c2.387,0,3.268-2.163,3.268-2.533c0-0.195-0.157-0.234-0.254-0.234
		c-0.177,0-0.216,0.118-0.255,0.274c-0.684,2.017-2.439,2.017-2.635,2.017c-0.976,0-1.757-0.584-2.206-1.307
		c-0.586-0.935-0.586-2.221-0.586-2.922H256.287z"/>
	<path clip-path="url(#SVGID_6_)" d="M259.438,215.682v5.252c0,0.882-0.21,0.882-1.488,0.882v0.614
		c0.685-0.02,1.683-0.059,2.211-0.059c0.509,0,1.527,0.039,2.191,0.059v-0.614c-1.331,0-1.551,0-1.551-0.884v-3.613
		c0-2.043,1.391-3.143,2.644-3.143c1.233,0,1.45,1.061,1.45,2.18v4.576c0,0.884-0.214,0.884-1.505,0.884v0.614
		c0.685-0.02,1.683-0.059,2.211-0.059c0.509,0,1.526,0.039,2.192,0.059v-0.614c-1.023,0-1.516,0-1.535-0.587v-3.74
		c0-1.684,0-2.291-0.611-2.996c-0.275-0.332-0.926-0.726-2.067-0.726c-1.438,0-2.363,0.847-2.914,2.067v-2.067l-2.716,0.214v0.604
		C259.285,214.584,259.438,214.722,259.438,215.682"/>
	<path clip-path="url(#SVGID_6_)" d="M274.58,217.723v1.965c0,1.867-1.4,2.535-2.276,2.535c-0.952,0-1.749-0.688-1.749-1.67
		C270.555,219.473,271.371,217.841,274.58,217.723 M274.732,220.941c0.078,0.793,0.605,1.625,1.521,1.625
		c0.41,0,1.601-0.275,1.601-1.872v-1.104h-0.478v1.103c0,1.141-0.49,1.259-0.707,1.259c-0.647,0-0.726-0.886-0.726-0.983v-3.935
		c0-0.826,0-1.594-0.698-2.321c-0.756-0.768-1.723-1.084-2.653-1.084c-1.587,0-2.923,0.922-2.923,2.217
		c0,0.589,0.386,0.922,0.887,0.922c0.539,0,0.887-0.395,0.887-0.909c0-0.237-0.1-0.891-1.014-0.911
		c0.523-0.691,1.474-0.91,2.094-0.91c0.951,0,2.058,0.775,2.058,2.542v0.734c-0.993,0.06-2.354,0.118-3.581,0.705
		c-1.459,0.665-1.945,1.683-1.945,2.542c0,1.584,1.893,2.072,3.121,2.072C273.465,222.633,274.361,221.855,274.732,220.941z"/>
</g>
<g>
	<defs>
		<rect id="SVGID_7_" x="313.411" y="8.333" width="77.762" height="14.952"/>
	</defs>
	<clipPath id="SVGID_8_">
		<use xlink:href="#SVGID_7_"  overflow="visible"/>
	</clipPath>
	<path clip-path="url(#SVGID_8_)" d="M320.163,11.364l2.211,6.381h-4.403 M321.202,9.203c-0.099-0.254-0.138-0.394-0.451-0.394
		s-0.372,0.12-0.471,0.394l-4.06,11.669c-0.352,0.995-1.137,1.288-2.195,1.308v0.614c0.45-0.02,1.293-0.059,1.999-0.059
		c0.607,0,1.628,0.039,2.255,0.059V22.18c-0.979,0-1.47-0.485-1.47-0.989c0-0.059,0.02-0.253,0.038-0.292l0.903-2.541h4.843
		l1.039,2.967c0.02,0.078,0.059,0.194,0.059,0.272c0,0.582-1.098,0.582-1.628,0.582v0.614c0.706-0.059,2.079-0.059,2.825-0.059
		c0.843,0,1.744,0.02,2.569,0.059V22.18h-0.354c-1.177,0-1.45-0.136-1.667-0.781L321.202,9.203z"/>
	<path clip-path="url(#SVGID_8_)" d="M331.555,9.219l-2.832,0.214v0.604c1.378,0,1.536,0.14,1.536,1.098V21.3
		c0,0.879-0.218,0.879-1.536,0.879v0.614c0.646-0.021,1.684-0.059,2.172-0.059c0.489,0,1.448,0.039,2.173,0.059V22.18
		c-1.3,0-1.513,0-1.513-0.879"/>
	<path clip-path="url(#SVGID_8_)" d="M336.944,14.949h2.774v-0.614h-2.774v-3.546h-0.493c-0.021,1.586-0.611,3.657-2.546,3.735
		v0.426h1.675v5.406c0,2.409,1.809,2.643,2.508,2.643c1.382,0,1.926-1.388,1.926-2.638v-1.113h-0.478v1.078
		c0,1.451-0.58,2.196-1.296,2.196c-1.296,0-1.296-1.786-1.296-2.118"/>
	<path clip-path="url(#SVGID_8_)" d="M347.449,18.087v1.966c0,1.867-1.401,2.535-2.275,2.535c-0.954,0-1.75-0.688-1.75-1.67
		C343.424,19.837,344.24,18.205,347.449,18.087 M347.601,21.306c0.078,0.792,0.605,1.625,1.521,1.625
		c0.41,0,1.601-0.275,1.601-1.872v-1.104h-0.478v1.103c0,1.141-0.49,1.259-0.706,1.259c-0.648,0-0.726-0.885-0.726-0.984v-3.935
		c0-0.826,0-1.593-0.699-2.321c-0.755-0.768-1.724-1.084-2.652-1.084c-1.588,0-2.924,0.923-2.924,2.217
		c0,0.589,0.385,0.923,0.887,0.923c0.54,0,0.887-0.396,0.887-0.91c0-0.237-0.1-0.891-1.014-0.91c0.524-0.691,1.475-0.91,2.095-0.91
		c0.95,0,2.057,0.775,2.057,2.542v0.734c-0.993,0.06-2.354,0.118-3.58,0.705c-1.46,0.665-1.945,1.682-1.945,2.542
		c0,1.584,1.892,2.073,3.121,2.073C346.332,22.998,347.23,22.221,347.601,21.306z"/>
	<path clip-path="url(#SVGID_8_)" d="M358.365,16.45v4.033c0,0.355,0,0.394-0.216,0.729c-0.583,0.944-1.458,1.378-2.296,1.378
		c-0.876,0-1.576-0.512-2.043-1.26c-0.506-0.807-0.563-1.929-0.563-2.735c0-0.728,0.038-1.908,0.603-2.793
		c0.408-0.61,1.148-1.261,2.198-1.261c0.681,0,1.498,0.296,2.102,1.182c0.216,0.334,0.216,0.374,0.216,0.728 M358.369,21.717v1.281
		l2.873-0.214V22.18c-1.359,0-1.515-0.137-1.515-1.094V9.22l-2.83,0.215v0.604c1.376,0,1.534,0.137,1.534,1.094v4.224
		c-0.567-0.712-1.407-1.226-2.464-1.226c-2.305,0-4.357,1.92-4.357,4.444c0,2.486,1.914,4.424,4.142,4.424
		C357.002,22.998,357.881,22.339,358.369,21.717z"/>
	<path clip-path="url(#SVGID_8_)" d="M363.955,17.883c0.118-2.979,1.762-3.48,2.428-3.48c2.016,0,2.213,2.701,2.213,3.48
		 M369.401,18.292c0.43,0,0.489,0,0.489-0.41c0-1.964-1.058-3.89-3.503-3.89c-2.27,0-4.068,2.021-4.068,4.474
		c0,2.627,2.054,4.531,4.303,4.531c2.387,0,3.269-2.164,3.269-2.533c0-0.195-0.157-0.234-0.256-0.234
		c-0.175,0-0.214,0.118-0.253,0.273c-0.684,2.017-2.44,2.017-2.635,2.017c-0.976,0-1.757-0.584-2.206-1.306
		c-0.586-0.935-0.586-2.222-0.586-2.922H369.401z"/>
	<path clip-path="url(#SVGID_8_)" d="M372.619,16.046v5.252c0,0.882-0.21,0.882-1.488,0.882v0.614
		c0.685-0.02,1.684-0.059,2.212-0.059c0.509,0,1.526,0.039,2.191,0.059V22.18c-1.332,0-1.551,0-1.551-0.884v-3.613
		c0-2.042,1.39-3.142,2.643-3.142c1.234,0,1.45,1.061,1.45,2.18v4.576c0,0.884-0.213,0.884-1.505,0.884v0.614
		c0.685-0.02,1.684-0.059,2.211-0.059c0.51,0,1.527,0.039,2.192,0.059V22.18c-1.023,0-1.516,0-1.535-0.587v-3.74
		c0-1.684,0-2.292-0.611-2.997c-0.275-0.332-0.926-0.725-2.067-0.725c-1.438,0-2.362,0.847-2.914,2.067v-2.067l-2.716,0.214v0.604
		C372.467,14.949,372.619,15.086,372.619,16.046"/>
	<path clip-path="url(#SVGID_8_)" d="M387.694,18.087v1.966c0,1.867-1.4,2.535-2.275,2.535c-0.953,0-1.75-0.688-1.75-1.67
		C383.669,19.837,384.484,18.205,387.694,18.087 M387.846,21.306c0.078,0.792,0.605,1.625,1.521,1.625
		c0.411,0,1.602-0.275,1.602-1.872v-1.104h-0.479v1.103c0,1.141-0.49,1.259-0.706,1.259c-0.647,0-0.726-0.885-0.726-0.984v-3.935
		c0-0.826,0-1.593-0.699-2.321c-0.755-0.768-1.723-1.084-2.653-1.084c-1.586,0-2.923,0.923-2.923,2.217
		c0,0.589,0.385,0.923,0.887,0.923c0.54,0,0.887-0.396,0.887-0.91c0-0.237-0.1-0.891-1.014-0.91c0.524-0.691,1.475-0.91,2.096-0.91
		c0.95,0,2.056,0.775,2.056,2.542v0.734c-0.993,0.06-2.354,0.118-3.58,0.705c-1.459,0.665-1.945,1.682-1.945,2.542
		c0,1.584,1.893,2.073,3.121,2.073C386.578,22.998,387.476,22.221,387.846,21.306z"/>
</g>
<g>
	<rect x="302.02" y="126.386" width="5.184" height="1.159"/>
	<path d="M314.092,118.643c0-0.469,0-0.511-0.448-0.511c-1.205,1.228-2.917,1.228-3.539,1.228v0.614c0.39,0,1.541,0,2.555-0.497
		v10.132c0,0.704-0.059,0.938-1.813,0.938h-0.624v0.615c0.685-0.06,2.388-0.06,3.17-0.06c0.784,0,2.486,0,3.171,0.06v-0.615h-0.633
		c-1.779,0-1.838-0.215-1.838-0.938"/>
	<path d="M326.917,127.234c0-2.312-1.605-4.258-3.722-4.258c-0.939,0-1.781,0.301-2.485,0.962v-3.815
		c0.391,0.12,1.035,0.26,1.659,0.26c2.404,0,3.772-1.785,3.772-2.041c0-0.117-0.059-0.215-0.195-0.215c-0.021,0-0.059,0-0.157,0.058
		c-0.391,0.175-1.35,0.562-2.661,0.562c-0.782,0-1.683-0.136-2.603-0.542c-0.156-0.059-0.195-0.059-0.234-0.059
		c-0.196,0-0.196,0.156-0.196,0.469v5.794c0,0.352,0,0.509,0.273,0.509c0.136,0,0.175-0.059,0.253-0.175
		c0.214-0.31,0.936-1.358,2.514-1.358c1.014,0,1.501,0.896,1.657,1.248c0.312,0.721,0.353,1.48,0.353,2.455
		c0,0.683,0,1.852-0.47,2.67c-0.468,0.76-1.189,1.268-2.087,1.268c-1.424,0-2.534-1.028-2.866-2.174
		c0.06,0.028,0.118,0.057,0.337,0.057c0.654,0,0.992-0.486,0.992-0.953c0-0.469-0.328-0.955-0.965-0.955
		c-0.271,0-0.945,0.137-0.945,1.027c0,1.666,1.345,3.544,3.527,3.544c2.26,0,4.249-1.866,4.249-4.335"/>
	<path d="M333.601,118.643c0-0.469,0-0.511-0.447-0.511c-1.207,1.228-2.918,1.228-3.54,1.228v0.614c0.391,0,1.541,0,2.555-0.497
		v10.132c0,0.704-0.059,0.938-1.813,0.938h-0.624v0.615c0.685-0.06,2.388-0.06,3.171-0.06c0.782,0,2.485,0,3.17,0.06v-0.615h-0.633
		c-1.778,0-1.839-0.215-1.839-0.938"/>
	<path d="M339.809,124.414v5.252c0,0.881-0.209,0.881-1.488,0.881v0.615c0.685-0.021,1.684-0.06,2.212-0.06
		c0.509,0,1.527,0.039,2.191,0.06v-0.615c-1.331,0-1.551,0-1.551-0.883v-3.613c0-2.043,1.391-3.143,2.644-3.143
		c1.233,0,1.449,1.061,1.449,2.18v4.576c0,0.883-0.213,0.883-1.505,0.883v0.615c0.686-0.021,1.684-0.06,2.212-0.06
		c0.509,0,1.526,0.039,2.192,0.06v-0.615c-1.318,0-1.535,0-1.535-0.883v-3.613c0-2.043,1.39-3.143,2.643-3.143
		c1.234,0,1.45,1.061,1.45,2.18v4.576c0,0.883-0.215,0.883-1.521,0.883v0.615c0.686-0.021,1.684-0.06,2.212-0.06
		c0.509,0,1.526,0.039,2.192,0.06v-0.615c-1.013,0-1.5,0-1.519-0.587v-3.739c0-1.686,0-2.292-0.612-2.996
		c-0.275-0.333-0.924-0.727-2.063-0.727c-1.651,0-2.517,1.182-2.852,1.932c-0.275-1.714-1.729-1.932-2.614-1.932
		c-1.436,0-2.359,0.848-2.909,2.068v-2.068l-2.716,0.215v0.604C339.656,123.316,339.809,123.454,339.809,124.414"/>
</g>
</svg>
