<?xml version="1.0" encoding="utf-8"?>
<!-- Generator: Adobe Illustrator 14.0.0, SVG Export Plug-In . SVG Version: 6.00 Build 43363)  -->
<!DOCTYPE svg PUBLIC "-//W3C//DTD SVG 1.1//EN" "http://www.w3.org/Graphics/SVG/1.1/DTD/svg11.dtd">
<svg version="1.1" id="Layer_1" xmlns="http://www.w3.org/2000/svg" xmlns:xlink="http://www.w3.org/1999/xlink" x="0px" y="0px"
	 width="294px" height="260.215px" viewBox="0 0 294 260.215" enable-background="new 0 0 294 260.215" xml:space="preserve">
<polygon opacity="0.2" fill="#1B1F8A" enable-background="new    " points="286.312,129.771 216.856,9.47 77.943,9.47 
	8.487,129.771 77.943,250.072 216.856,250.072 "/>
<polygon fill="none" stroke="#000000" stroke-width="1.8889" enable-background="new    " points="286.312,129.771 216.856,9.47 
	77.943,9.47 8.487,129.771 77.943,250.072 216.856,250.072 "/>
<polygon opacity="0.2" fill="#1B1F8A" enable-background="new    " points="77.943,89.67 147.4,49.57 216.856,89.67 
	216.856,169.872 147.4,209.971 77.943,169.872 "/>
<polygon fill="none" stroke="#000000" stroke-dasharray="6" enable-background="new    " points="77.943,89.67 147.4,49.57 
	216.856,89.67 216.856,169.872 147.4,209.971 77.943,169.872 "/>
<line fill="none" stroke="#000000" x1="164.731" y1="159.79" x2="216.856" y2="250.072"/>
<line fill="none" stroke="#000000" x1="77.943" y1="9.47" x2="154.094" y2="141.364"/>
<line fill="none" stroke="#000000" x1="139.578" y1="143.318" x2="216.856" y2="9.47"/>
<line fill="none" stroke="#000000" x1="77.943" y1="250.072" x2="129.05" y2="161.551"/>
<line fill="none" stroke="#000000" x1="286.312" y1="129.771" x2="8.487" y2="129.771"/>
<circle cx="147.46" cy="129.666" r="5.172"/>
<g>
	<defs>
		<rect id="SVGID_1_" x="97.6" y="135.367" width="100.8" height="29.6"/>
	</defs>
	<clipPath id="SVGID_2_">
		<use xlink:href="#SVGID_1_"  overflow="visible"/>
	</clipPath>
	<path clip-path="url(#SVGID_2_)" d="M104.377,164.36c0-0.086,0-0.144-0.491-0.632c-3.604-3.618-4.527-9.044-4.527-13.438
		c0-4.996,1.097-9.993,4.642-13.582c0.376-0.344,0.376-0.401,0.376-0.487c0-0.201-0.116-0.293-0.29-0.293
		c-0.289,0-2.886,1.959-4.589,5.605c-1.473,3.158-1.819,6.346-1.819,8.758c0,2.239,0.318,5.713,1.906,8.958
		c1.732,3.532,4.214,5.398,4.503,5.398C104.262,164.648,104.377,164.562,104.377,164.36"/>
	<path clip-path="url(#SVGID_2_)" d="M114.919,154.021c-0.143,0.518-0.143,0.575-0.573,1.064c-1.26,1.581-2.433,2.041-3.235,2.041
		c-1.431,0-1.833-1.582-1.833-2.702c0-1.437,0.916-4.974,1.574-6.296c0.887-1.696,2.176-2.761,3.321-2.761
		c1.86,0,2.263,2.358,2.263,2.531c0,0.172-0.058,0.344-0.087,0.488 M120.886,137.844c0-0.029,0-0.317-0.375-0.317
		c-0.429,0-3.144,0.257-3.629,0.313c-0.229,0.029-0.4,0.172-0.4,0.543c0,0.344,0.257,0.344,0.686,0.344
		c1.372,0,1.429,0.202,1.429,0.489l-0.086,0.574l-1.714,6.81c-0.514-1.084-1.343-1.874-2.629-1.874
		c-3.344,0-6.888,4.233-6.888,8.435c0,2.704,1.572,4.604,3.802,4.604c0.571,0,2.001-0.115,3.716-2.155
		c0.229,1.208,1.229,2.155,2.601,2.155c1,0,1.657-0.66,2.115-1.579c0.486-1.034,0.858-2.786,0.858-2.843
		c0-0.287-0.257-0.287-0.343-0.287c-0.285,0-0.314,0.115-0.4,0.517c-0.485,1.862-1,3.554-2.172,3.554
		c-0.771,0-0.857-0.746-0.857-1.32c0-0.688,0.057-0.891,0.171-1.377L120.886,137.844z"/>
	<path clip-path="url(#SVGID_2_)" d="M134.243,152.941c0.028-0.058,0.229-0.257,0.315-0.257c0.114,0,1.203,1.256,1.402,1.455
		c0.83,0.913,1.66,1.827,2.519,2.684c0.114,0.143,0.2,0.143,0.229,0.143c0.229,0,0.315-0.201,0.315-0.316
		c0-0.143-0.887-1.689-1.718-3.15c-0.573-1.031-0.744-1.375-1.116-2.063l4.98-2.292c0.4-0.201,0.431-0.314,0.431-0.43
		c0-0.143-0.117-0.286-0.317-0.286c-0.029,0-1.431,0.258-5.725,1.117l-0.659-5.386c-0.057-0.517-0.085-0.632-0.343-0.632
		c-0.229,0-0.316,0.145-0.373,0.632l-0.629,5.386l-5.295-1.06c-0.144-0.028-0.343-0.058-0.429-0.058
		c-0.201,0-0.315,0.144-0.315,0.286c0,0.229,0.143,0.287,0.458,0.43l4.98,2.292l-2.662,4.757c-0.171,0.344-0.2,0.372-0.2,0.457
		c0,0.115,0.085,0.316,0.315,0.316c0.057,0,0.143,0,0.43-0.314"/>
	<path clip-path="url(#SVGID_2_)" d="M156.919,154.021c-0.144,0.518-0.144,0.575-0.573,1.064c-1.26,1.581-2.434,2.041-3.234,2.041
		c-1.432,0-1.833-1.582-1.833-2.702c0-1.437,0.916-4.974,1.575-6.296c0.887-1.696,2.176-2.761,3.32-2.761
		c1.86,0,2.263,2.358,2.263,2.531c0,0.172-0.059,0.344-0.087,0.488 M162.886,137.844c0-0.029,0-0.317-0.375-0.317
		c-0.428,0-3.144,0.257-3.63,0.313c-0.228,0.029-0.399,0.172-0.399,0.543c0,0.344,0.257,0.344,0.686,0.344
		c1.372,0,1.429,0.202,1.429,0.489l-0.086,0.574l-1.714,6.81c-0.515-1.084-1.343-1.874-2.63-1.874c-3.344,0-6.888,4.233-6.888,8.435
		c0,2.704,1.571,4.604,3.802,4.604c0.571,0,2.001-0.115,3.716-2.155c0.229,1.208,1.229,2.155,2.601,2.155
		c1,0,1.658-0.66,2.115-1.579c0.486-1.034,0.857-2.786,0.857-2.843c0-0.287-0.257-0.287-0.343-0.287
		c-0.286,0-0.314,0.115-0.399,0.517c-0.486,1.862-1,3.554-2.172,3.554c-0.772,0-0.858-0.746-0.858-1.32
		c0-0.688,0.058-0.891,0.172-1.377L162.886,137.844z"/>
	<path clip-path="url(#SVGID_2_)" d="M173.01,155.839c0.316,1.179,1.318,1.926,2.55,1.926c1.002,0,1.661-0.66,2.12-1.58
		c0.486-1.032,0.86-2.785,0.86-2.842c0-0.287-0.261-0.287-0.346-0.287c-0.286,0-0.314,0.115-0.4,0.517
		c-0.401,1.604-0.945,3.553-2.147,3.553c-0.602,0-0.887-0.373-0.887-1.319c0-0.63,0.344-1.978,0.573-2.981
		c0.258-1.032,0.544-2.065,0.802-3.098c0.086-0.43,0.371-1.52,0.487-1.95c0.143-0.66,0.428-1.749,0.428-1.921
		c0-0.517-0.399-0.775-0.829-0.775c-0.144,0-0.887,0.029-1.116,1.005c-0.544,2.093-1.803,7.112-2.146,8.631
		c-0.029,0.115-1.175,2.409-3.264,2.409c-1.489,0-1.774-1.294-1.774-2.358c0-1.61,0.788-3.884,1.521-5.867
		c0.339-0.863,0.479-1.266,0.479-1.812c0-1.295-0.917-2.361-2.35-2.361c-2.719,0-3.777,4.194-3.777,4.455
		c0,0.288,0.282,0.288,0.34,0.288c0.282,0,0.312-0.058,0.453-0.52c0.709-2.514,1.786-3.583,2.863-3.583
		c0.256,0,0.71,0.031,0.71,0.95c0,0.69-0.306,1.524-0.472,1.956c-1.026,2.848-1.608,4.632-1.608,6.041
		c0,2.732,1.976,3.451,3.522,3.451c1.891,0,2.922-1.293,3.409-1.926"/>
	<path clip-path="url(#SVGID_2_)" d="M187.76,150.29c0-2.24-0.318-5.715-1.903-8.958c-1.728-3.531-4.205-5.404-4.493-5.404
		c-0.173,0-0.288,0.12-0.288,0.293c0,0.086,0,0.144,0.547,0.66c2.817,2.843,4.456,7.408,4.456,13.409
		c0,4.91-1.064,9.963-4.63,13.582c-0.373,0.345-0.373,0.402-0.373,0.488c0,0.172,0.115,0.286,0.288,0.286
		c0.288,0,2.881-1.952,4.58-5.599C187.412,155.889,187.76,152.702,187.76,150.29"/>
	<path clip-path="url(#SVGID_2_)" d="M192.979,159.437c-0.079,0.263-0.18,0.505-0.18,0.85c0,0.951,0.802,1.72,1.903,1.72
		c2.003,0,2.886-2.803,2.886-3.107c0-0.266-0.263-0.266-0.322-0.266c-0.282,0-0.303,0.124-0.384,0.348
		c-0.464,1.63-1.351,2.465-2.138,2.465c-0.403,0-0.505-0.262-0.505-0.707c0-0.466,0.143-0.85,0.324-1.296
		c0.201-0.546,0.423-1.092,0.646-1.618c0.182-0.485,0.908-2.326,0.989-2.569c0.061-0.203,0.122-0.445,0.122-0.647
		c0-0.95-0.805-1.721-1.908-1.721c-1.986,0-2.909,2.75-2.909,3.094c0,0.263,0.282,0.263,0.344,0.263
		c0.282,0,0.303-0.102,0.364-0.323c0.524-1.743,1.414-2.473,2.162-2.473c0.323,0,0.506,0.163,0.506,0.71
		c0,0.466-0.125,0.769-0.64,2.022 M197.067,149.238c0-0.316-0.241-0.753-0.804-0.753c-0.542,0-1.125,0.516-1.125,1.09
		c0,0.336,0.262,0.752,0.804,0.752C196.525,150.327,197.067,149.772,197.067,149.238z"/>
</g>
</svg>
