<?xml version="1.0" encoding="utf-8"?>
<!-- Generator: Adobe Illustrator 14.0.0, SVG Export Plug-In . SVG Version: 6.00 Build 43363)  -->
<!DOCTYPE svg PUBLIC "-//W3C//DTD SVG 1.1//EN" "http://www.w3.org/Graphics/SVG/1.1/DTD/svg11.dtd">
<svg version="1.1" id="Layer_1" xmlns="http://www.w3.org/2000/svg" xmlns:xlink="http://www.w3.org/1999/xlink" x="0px" y="0px"
	 width="336px" height="304px" viewBox="0 0 336 304" enable-background="new 0 0 336 304" xml:space="preserve">
<polygon opacity="0.2" fill="#1B1F8A" enable-background="new    " points="14.467,158.754 152.529,51.038 152.633,50.957 
	327.26,94.143 205.848,256.375 "/>
<g>
	<g>
		<polyline fill="none" stroke="#231F20" stroke-width="4" points="224,265.5 14.467,158.754 165,40.5 		"/>
		<polygon fill="#231F20" points="173.884,33.521 165.383,48.47 164.336,41.022 157.348,38.242 		"/>
		<polygon fill="#231F20" points="234.066,270.628 216.929,269.197 223.248,265.116 222.833,257.607 		"/>
	</g>
</g>
<g>
	<g>
		<line fill="none" stroke="#000000" x1="14.467" y1="158.754" x2="236" y2="29.335"/>
		<polygon points="242.097,25.773 235.556,34.302 235.544,29.601 231.455,27.283 		"/>
	</g>
</g>
<line fill="none" stroke="#000000" stroke-dasharray="5.9068" x1="236.233" y1="134.002" x2="236" y2="35.335"/>
<polygon fill="#FFFFFF" stroke="#231F20" points="224.236,122.782 236.233,121.5 236.233,133.885 224.236,135.167 "/>
<g>
	<g>
		<line fill="none" stroke="#000000" x1="14.467" y1="158.754" x2="236.233" y2="134.002"/>
		<polygon points="243.25,133.219 233.812,138.362 235.709,134.061 232.911,130.283 		"/>
	</g>
</g>
<g>
	<defs>
		<rect id="SVGID_1_" x="194" y="271" width="23" height="18"/>
	</defs>
	<clipPath id="SVGID_2_">
		<use xlink:href="#SVGID_1_"  overflow="visible"/>
	</clipPath>
	<path clip-path="url(#SVGID_2_)" d="M197.117,277.301c1.125-4.46,4.097-4.9,4.847-4.9c1.356,0,2.136,0.852,2.136,1.849
		c0,3.052-4.617,3.052-5.801,3.052 M198.475,277.901c0.83,0,2.947-0.053,4.379-0.601c2.002-0.877,2.146-2.604,2.146-3.014
		c0-1.288-1.093-2.487-3.075-2.487c-3.188,0-7.524,2.785-7.524,7.806c0,2.928,1.695,5.193,4.513,5.193
		c4.11,0,6.524-3.027,6.524-3.371c0-0.171-0.173-0.371-0.345-0.371c-0.143,0-0.2,0.059-0.372,0.289
		c-2.263,2.854-5.385,2.854-5.729,2.854c-2.234,0-2.492-2.405-2.492-3.321c0-0.344,0.029-1.23,0.458-2.978H198.475z"/>
	<path clip-path="url(#SVGID_2_)" d="M213.201,276.064c0-0.541-0.04-0.563-0.6-0.563c-1.276,1.279-3.094,1.299-3.912,1.299v0.7
		c0.482,0,1.808,0,2.912-0.589v10.264c0,0.664,0,0.925-2.009,0.925h-0.763v0.7c0.362-0.02,2.832-0.08,3.575-0.08
		c0.623,0,3.153,0.062,3.595,0.08v-0.7h-0.771c-2.027,0-2.027-0.261-2.027-0.923"/>
</g>
<g>
	<defs>
		<rect id="SVGID_3_" x="127" y="25" width="23" height="18"/>
	</defs>
	<clipPath id="SVGID_4_">
		<use xlink:href="#SVGID_3_"  overflow="visible"/>
	</clipPath>
	<path clip-path="url(#SVGID_4_)" d="M130.117,31.301c1.125-4.46,4.097-4.9,4.847-4.9c1.356,0,2.136,0.852,2.136,1.849
		c0,3.052-4.617,3.052-5.801,3.052 M131.475,31.901c0.83,0,2.947-0.053,4.379-0.601c2.002-0.877,2.146-2.604,2.146-3.014
		c0-1.288-1.093-2.487-3.075-2.487c-3.188,0-7.524,2.785-7.524,7.806c0,2.928,1.695,5.193,4.513,5.193
		c4.11,0,6.524-3.027,6.524-3.371c0-0.171-0.173-0.371-0.345-0.371c-0.143,0-0.2,0.059-0.372,0.289
		c-2.263,2.854-5.385,2.854-5.729,2.854c-2.234,0-2.492-2.405-2.492-3.321c0-0.344,0.029-1.23,0.458-2.978H131.475z"/>
	<path clip-path="url(#SVGID_4_)" d="M149.6,39.145h-0.68c-0.06,0.443-0.259,1.633-0.519,1.834c-0.16,0.121-1.696,0.121-1.977,0.121
		h-3.672c2.096-1.862,2.794-2.424,3.991-3.364c1.477-1.183,2.854-2.425,2.854-4.327c0-2.424-2.11-3.907-4.659-3.907
		c-2.468,0-4.141,1.74-4.141,3.58c0,1.021,0.853,1.12,1.05,1.12c0.477,0,1.05-0.337,1.05-1.05c0-0.357-0.141-1.05-1.19-1.05
		c0.623-1.45,1.99-1.899,2.935-1.899c2.01,0,3.056,1.567,3.056,3.19c0,1.745-1.241,3.129-1.881,3.853l-4.819,4.774
		c-0.2,0.181-0.2,0.221-0.2,0.781H149"/>
</g>
<g>
	<defs>
		<rect id="SVGID_5_" x="218" y="12" width="14" height="14"/>
	</defs>
	<clipPath id="SVGID_6_">
		<use xlink:href="#SVGID_5_"  overflow="visible"/>
	</clipPath>
	<path clip-path="url(#SVGID_6_)" d="M231.398,14.71c0-1.549-0.754-2.01-1.276-2.01c-0.726,0-1.422,0.751-1.422,1.384
		c0,0.374,0.148,0.546,0.478,0.863c0.627,0.574,1.017,1.322,1.017,2.358c0,1.208-1.767,7.796-5.152,7.796
		c-1.476,0-2.142-1.008-2.142-2.503c0-1.61,0.809-3.71,1.738-6.098c0.21-0.489,0.36-0.891,0.36-1.438
		c0-1.295-0.923-2.361-2.364-2.361c-2.708,0-3.803,4.177-3.803,4.436c0,0.288,0.29,0.288,0.348,0.288
		c0.29,0,0.319-0.058,0.465-0.522c0.841-2.933,2.088-3.602,2.93-3.602c0.231,0,0.726,0,0.726,0.923c0,0.72-0.297,1.496-0.505,2.014
		c-1.307,3.336-1.693,4.659-1.693,5.896c0,3.107,2.56,3.567,3.898,3.567c4.778,0,6.4-9.497,6.4-10.989"/>
</g>
<g>
	<defs>
		<rect id="SVGID_7_" x="222" y="142" width="14" height="21"/>
	</defs>
	<clipPath id="SVGID_8_">
		<use xlink:href="#SVGID_7_"  overflow="visible"/>
	</clipPath>
	<path clip-path="url(#SVGID_8_)" d="M234.635,142.9c0,0.028-1.095,1.377-2.363,1.377c-0.661,0-1.383-0.431-1.873-0.717
		c-0.777-0.459-1.297-0.66-1.786-0.66c-1.095,0-1.644,0.639-3.112,2.264l0.461,0.435c0-0.028,1.095-1.377,2.363-1.377
		c0.663,0,1.384,0.431,1.873,0.718c0.777,0.459,1.297,0.66,1.787,0.66c1.095,0,1.643-0.638,3.112-2.264"/>
	<path clip-path="url(#SVGID_8_)" d="M235.398,151.41c0-1.549-0.754-2.01-1.276-2.01c-0.726,0-1.422,0.751-1.422,1.384
		c0,0.374,0.148,0.546,0.478,0.862c0.627,0.575,1.017,1.323,1.017,2.359c0,1.208-1.767,7.795-5.152,7.795
		c-1.476,0-2.142-1.007-2.142-2.502c0-1.611,0.809-3.71,1.738-6.098c0.21-0.489,0.36-0.891,0.36-1.438
		c0-1.295-0.923-2.361-2.364-2.361c-2.708,0-3.803,4.177-3.803,4.436c0,0.288,0.29,0.288,0.348,0.288
		c0.29,0,0.319-0.058,0.465-0.523c0.841-2.932,2.088-3.601,2.93-3.601c0.231,0,0.726,0,0.726,0.923c0,0.719-0.297,1.496-0.505,2.014
		c-1.307,3.336-1.693,4.658-1.693,5.896c0,3.106,2.56,3.567,3.898,3.567c4.778,0,6.4-9.497,6.4-10.989"/>
</g>
</svg>
