<?xml version="1.0" encoding="utf-8"?>
<!-- Generator: Adobe Illustrator 14.0.0, SVG Export Plug-In . SVG Version: 6.00 Build 43363)  -->
<!DOCTYPE svg PUBLIC "-//W3C//DTD SVG 1.1//EN" "http://www.w3.org/Graphics/SVG/1.1/DTD/svg11.dtd">
<svg version="1.1" id="Layer_1" xmlns="http://www.w3.org/2000/svg" xmlns:xlink="http://www.w3.org/1999/xlink" x="0px" y="0px"
	 width="301.485px" height="275.986px" viewBox="0 0 301.485 275.986" enable-background="new 0 0 301.485 275.986"
	 xml:space="preserve">
<polygon opacity="0.2" fill="#1B1F8A" enable-background="new    " points="289.215,139.507 219.759,19.206 80.846,19.206 
	11.39,139.507 80.846,259.808 219.759,259.808 "/>
<polygon fill="none" stroke="#000000" stroke-width="1.8889" enable-background="new    " points="289.215,139.507 219.759,19.206 
	80.846,19.206 11.39,139.507 80.846,259.808 219.759,259.808 "/>
<line fill="none" stroke="#000000" x1="80.846" y1="19.206" x2="219.759" y2="259.808"/>
<line fill="none" stroke="#000000" x1="168.529" y1="107.938" x2="219.759" y2="19.206"/>
<line fill="none" stroke="#000000" x1="80.846" y1="259.808" x2="156.544" y2="128.695"/>
<line fill="none" stroke="#000000" x1="289.215" y1="139.507" x2="11.39" y2="139.507"/>
<circle cx="150.362" cy="139.402" r="5.172"/>
<g>
	<defs>
		<rect id="SVGID_1_" x="150.902" y="108.938" width="29" height="23"/>
	</defs>
	<clipPath id="SVGID_2_">
		<use xlink:href="#SVGID_1_"  overflow="visible"/>
	</clipPath>
	<path clip-path="url(#SVGID_2_)" d="M162.865,123.729c0.395,1.473,1.647,2.407,3.186,2.407c1.254,0,2.078-0.825,2.65-1.975
		c0.609-1.292,1.076-3.481,1.076-3.553c0-0.358-0.325-0.358-0.432-0.358c-0.358,0-0.394,0.144-0.501,0.646
		c-0.501,2.005-1.182,4.44-2.684,4.44c-0.752,0-1.108-0.466-1.108-1.648c0-0.788,0.429-2.473,0.716-3.729
		c0.321-1.289,0.68-2.58,1.002-3.87c0.106-0.538,0.465-1.9,0.608-2.438c0.18-0.825,0.536-2.187,0.536-2.402
		c0-0.645-0.501-0.968-1.036-0.968c-0.18,0-1.109,0.036-1.396,1.255c-0.68,2.617-2.254,8.892-2.683,10.79
		c-0.036,0.144-1.468,3.011-4.079,3.011c-1.861,0-2.218-1.617-2.218-2.947c0-2.014,0.985-4.854,1.901-7.334
		c0.423-1.079,0.599-1.582,0.599-2.266c0-1.617-1.146-2.95-2.936-2.95c-3.4,0-4.723,5.241-4.723,5.567
		c0,0.361,0.354,0.361,0.425,0.361c0.354,0,0.39-0.072,0.567-0.65c0.886-3.142,2.232-4.479,3.579-4.479
		c0.319,0,0.887,0.039,0.887,1.188c0,0.863-0.382,1.905-0.589,2.445c-1.283,3.56-2.012,5.789-2.012,7.55
		c0,3.416,2.471,4.314,4.404,4.314c2.363,0,3.652-1.616,4.261-2.407"/>
	<path clip-path="url(#SVGID_2_)" d="M173.827,128.226c-0.1,0.329-0.225,0.632-0.225,1.062c0,1.189,1.002,2.15,2.379,2.15
		c2.504,0,3.608-3.504,3.608-3.885c0-0.331-0.33-0.331-0.404-0.331c-0.354,0-0.378,0.153-0.479,0.434
		c-0.58,2.038-1.688,3.082-2.673,3.082c-0.504,0-0.63-0.329-0.63-0.885c0-0.582,0.177-1.062,0.404-1.619
		c0.252-0.683,0.53-1.366,0.808-2.022c0.227-0.607,1.136-2.908,1.237-3.213c0.076-0.253,0.151-0.556,0.151-0.809
		c0-1.188-1.005-2.152-2.384-2.152c-2.482,0-3.637,3.438-3.637,3.868c0,0.329,0.354,0.329,0.429,0.329
		c0.354,0,0.379-0.127,0.455-0.404c0.657-2.179,1.77-3.091,2.704-3.091c0.404,0,0.632,0.204,0.632,0.888
		c0,0.582-0.154,0.961-0.799,2.528 M178.937,115.477c0-0.396-0.302-0.94-1.004-0.94c-0.679,0-1.406,0.644-1.406,1.361
		c0,0.42,0.326,0.94,1.004,0.94C178.258,116.838,178.937,116.145,178.937,115.477z"/>
</g>
</svg>
