<?xml version="1.0" encoding="utf-8"?>
<!-- Generator: Adobe Illustrator 14.0.0, SVG Export Plug-In . SVG Version: 6.00 Build 43363)  -->
<!DOCTYPE svg PUBLIC "-//W3C//DTD SVG 1.1//EN" "http://www.w3.org/Graphics/SVG/1.1/DTD/svg11.dtd">
<svg version="1.1" id="Layer_1" xmlns="http://www.w3.org/2000/svg" xmlns:xlink="http://www.w3.org/1999/xlink" x="0px" y="0px"
	 width="584.444px" height="161.111px" viewBox="0 0 584.444 161.111" enable-background="new 0 0 584.444 161.111"
	 xml:space="preserve">
<path fill="none" stroke="#231F20" stroke-width="2" d="M16.778,145.417c0,0,26-43.334,65.333-50.667s63.333-80,102.667-80
	s100.667,76,152,76s77.332-51.333,118.666-51.333s58.001,98.666,111.334,98.666"/>
<g>
	<g>
		<line fill="none" stroke="#231F20" stroke-width="2" x1="184.778" y1="15.111" x2="184.778" y2="62.444"/>
		<polygon fill="#231F20" points="184.778,69.505 180.713,59.555 184.778,61.917 188.842,59.555 		"/>
	</g>
</g>
<g>
	<g>
		<line fill="none" stroke="#231F20" stroke-width="2" x1="455.444" y1="39.778" x2="455.444" y2="83.111"/>
		<polygon fill="#231F20" points="455.444,90.172 451.38,80.222 455.444,82.583 459.509,80.222 		"/>
	</g>
</g>
<g>
	<g>
		<line fill="none" stroke="#231F20" stroke-width="2" x1="336.778" y1="91.111" x2="336.778" y2="64.444"/>
		<polygon fill="#231F20" points="336.778,57.384 340.843,67.333 336.778,64.972 332.714,67.333 		"/>
	</g>
</g>
<path opacity="0.7" fill="none" stroke="#231F20" d="M16.778,136.917c0,0,26-46.334,65.333-53.666
	c39.333-7.334,63.333-60.001,102.667-60.001s100.667,56.001,152,56.001s77.332-31.334,118.666-31.334s58.001,78.668,111.334,78.668"
	/>
<path opacity="0.5" fill="none" stroke="#231F20" d="M16.778,126.916c0,0,26-42.334,65.333-49.666
	c39.333-7.334,63.333-44,102.667-44s100.667,36,152,36s77.332-11.334,118.666-11.334s58.001,58.668,111.334,58.668"/>
<path opacity="0.3" fill="none" stroke="#231F20" d="M16.778,114.416c0,0,26-30.334,65.333-37.666
	c39.333-7.334,63.333-35,102.667-35s100.667,20,152,20s77.332-2.334,118.666-2.334s58.001,44.668,111.334,44.668"/>
<path opacity="0.2" fill="none" stroke="#231F20" d="M16.778,103.416c0,0,26-22.334,65.333-29.666
	c39.333-7.334,63.333-17,102.667-17s100.667,12,152,12s77.332-2.334,118.666-2.334s58.001,28.668,111.334,28.668"/>
<path opacity="0.1" fill="none" stroke="#231F20" d="M16.778,93.583c0,0,26-12.334,65.333-19.666c39.333-7.334,63.333-7,102.667-7
	s100.667,2,152,2s77.332-2.334,118.666-2.334s58.001,18.668,111.334,18.668"/>
<line fill="none" stroke="#231F20" stroke-dasharray="6" x1="16.778" y1="74.083" x2="566.778" y2="74.083"/>
</svg>
