<?xml version="1.0" encoding="utf-8"?>
<!-- Generator: Adobe Illustrator 14.0.0, SVG Export Plug-In . SVG Version: 6.00 Build 43363)  -->
<!DOCTYPE svg PUBLIC "-//W3C//DTD SVG 1.1//EN" "http://www.w3.org/Graphics/SVG/1.1/DTD/svg11.dtd">
<svg version="1.1" id="Layer_1" xmlns="http://www.w3.org/2000/svg" xmlns:xlink="http://www.w3.org/1999/xlink" x="0px" y="0px"
	 width="371px" height="371px" viewBox="0 0 371 371" enable-background="new 0 0 371 371" xml:space="preserve">
<g>
	
		<radialGradient id="SVGID_1_" cx="182.5513" cy="182.5854" r="515.5939" gradientTransform="matrix(0.8288 0.5595 -0.2796 0.4142 82.2917 4.8268)" gradientUnits="userSpaceOnUse">
		<stop  offset="0" style="stop-color:#1B1F8A"/>
		<stop  offset="0.0529" style="stop-color:#2D3193"/>
		<stop  offset="0.2485" style="stop-color:#6C6FB4"/>
		<stop  offset="0.4356" style="stop-color:#A1A2CF"/>
		<stop  offset="0.6093" style="stop-color:#CACAE4"/>
		<stop  offset="0.7666" style="stop-color:#E7E7F3"/>
		<stop  offset="0.902" style="stop-color:#F9F9FC"/>
		<stop  offset="1" style="stop-color:#FFFFFF"/>
	</radialGradient>
	<rect x="7.345" y="6" fill-rule="evenodd" clip-rule="evenodd" fill="url(#SVGID_1_)" width="357.311" height="358"/>
	
		<line fill="none" stroke="#000000" stroke-width="0.5154" stroke-miterlimit="3.25" x1="31.183" y1="334.278" x2="22.412" y2="347.435"/>
	<polyline fill-rule="evenodd" clip-rule="evenodd" points="26.632,348.515 26.115,348.446 24.905,348.241 24.196,348.088 
		23.503,347.902 22.887,347.686 22.412,347.435 22.04,347.123 21.609,346.641 21.153,346.061 20.703,345.44 19.96,344.344 
		19.655,343.864 14.547,359.233 26.632,348.515 	"/>
	
		<line fill="none" stroke="#000000" stroke-width="0.5154" stroke-miterlimit="3.25" x1="30.591" y1="312.162" x2="22.445" y2="324.065"/>
	<polyline fill-rule="evenodd" clip-rule="evenodd" points="26.281,325.099 25.812,325.028 24.708,324.828 24.063,324.682 
		23.434,324.504 22.875,324.298 22.445,324.065 22.108,323.773 21.72,323.332 21.311,322.796 20.907,322.229 20.243,321.22 
		19.968,320.779 15.14,334.739 26.281,325.099 	"/>
	
		<line fill="none" stroke="#000000" stroke-width="0.5154" stroke-miterlimit="3.25" x1="29.995" y1="290.044" x2="22.478" y2="300.695"/>
	<polyline fill-rule="evenodd" clip-rule="evenodd" points="25.932,301.679 25.507,301.611 24.514,301.414 23.934,301.273 
		23.364,301.104 22.862,300.913 22.478,300.695 22.178,300.429 21.833,300.024 21.469,299.532 21.112,299.015 20.525,298.095 
		20.284,297.693 15.735,310.245 25.932,301.679 	"/>
	
		<line fill="none" stroke="#000000" stroke-width="0.5154" stroke-miterlimit="3.25" x1="29.4" y1="267.929" x2="22.51" y2="277.326"/>
	<polyline fill-rule="evenodd" clip-rule="evenodd" points="25.581,278.258 25.204,278.193 24.318,278.001 23.801,277.867 
		23.297,277.705 22.851,277.525 22.51,277.326 22.246,277.082 21.943,276.717 21.627,276.272 21.315,275.802 20.807,274.971 
		20.596,274.604 16.33,285.754 25.581,278.258 	"/>
	
		<line fill="none" stroke="#000000" stroke-width="0.5154" stroke-miterlimit="3.25" x1="28.807" y1="245.812" x2="22.541" y2="253.956"/>
	<polyline fill-rule="evenodd" clip-rule="evenodd" points="25.23,254.843 24.898,254.775 24.124,254.588 23.67,254.458 
		23.229,254.308 22.838,254.14 22.541,253.956 22.315,253.736 22.054,253.407 21.786,253.009 21.521,252.588 21.089,251.843 
		20.91,251.521 16.924,261.26 25.23,254.843 	"/>
	
		<line fill="none" stroke="#000000" stroke-width="0.5154" stroke-miterlimit="3.25" x1="28.213" y1="223.693" x2="22.574" y2="230.586"/>
	<polyline fill-rule="evenodd" clip-rule="evenodd" points="24.879,231.423 24.594,231.355 23.927,231.175 23.537,231.05 
		23.159,230.909 22.826,230.754 22.574,230.586 22.382,230.392 22.168,230.098 21.943,229.747 21.726,229.375 21.369,228.719 
		21.225,228.434 17.518,236.766 24.879,231.423 	"/>
	
		<line fill="none" stroke="#000000" stroke-width="0.5154" stroke-miterlimit="3.25" x1="27.618" y1="201.579" x2="22.606" y2="207.217"/>
	<polyline fill-rule="evenodd" clip-rule="evenodd" points="24.529,208.007 24.29,207.938 23.73,207.761 23.406,207.644 
		23.091,207.51 22.812,207.367 22.606,207.217 22.452,207.044 22.28,206.787 22.103,206.482 21.931,206.161 21.651,205.595 
		21.538,205.347 18.112,212.273 24.529,208.007 	"/>
	
		<line fill="none" stroke="#000000" stroke-width="0.5154" stroke-miterlimit="3.25" x1="27.025" y1="179.46" x2="22.639" y2="183.846"/>
	<polyline fill-rule="evenodd" clip-rule="evenodd" points="24.179,184.588 23.985,184.522 23.534,184.349 23.275,184.235 
		23.021,184.111 22.804,183.979 22.639,183.846 22.52,183.698 22.391,183.48 22.26,183.222 22.135,182.948 21.935,182.47 
		21.853,182.262 18.708,187.781 24.179,184.588 	"/>
	
		<line fill="none" stroke="#000000" stroke-width="0.5154" stroke-miterlimit="3.25" x1="26.43" y1="157.344" x2="22.672" y2="160.477"/>
	<polyline fill-rule="evenodd" clip-rule="evenodd" points="23.827,161.168 23.682,161.103 23.339,160.936 23.145,160.828 
		22.954,160.712 22.789,160.593 22.672,160.477 22.589,160.352 22.503,160.172 22.419,159.958 22.34,159.735 22.216,159.345 
		22.167,159.175 19.301,163.287 23.827,161.168 	"/>
	
		<line fill="none" stroke="#000000" stroke-width="0.5154" stroke-miterlimit="3.25" x1="25.836" y1="135.228" x2="22.703" y2="137.107"/>
	<polyline fill-rule="evenodd" clip-rule="evenodd" points="23.477,137.751 23.376,137.686 23.145,137.523 23.011,137.42 
		22.884,137.314 22.776,137.207 22.703,137.107 22.657,137.006 22.614,136.862 22.577,136.696 22.541,136.521 22.498,136.22 
		22.479,136.089 19.895,138.793 23.477,137.751 	"/>
	
		<line fill="none" stroke="#000000" stroke-width="0.5154" stroke-miterlimit="3.25" x1="25.242" y1="113.111" x2="22.735" y2="113.738"/>
	<polyline fill-rule="evenodd" clip-rule="evenodd" points="23.127,114.332 23.073,114.267 22.949,114.11 22.88,114.013 
		22.816,113.914 22.765,113.82 22.735,113.738 22.726,113.659 22.726,113.554 22.735,113.434 22.75,113.309 22.779,113.095 
		22.795,113.003 20.488,114.3 23.127,114.332 	"/>
	
		<line fill="none" stroke="#000000" stroke-width="0.5154" stroke-miterlimit="3.25" x1="24.647" y1="90.995" x2="22.768" y2="90.368"/>
	<polyline fill-rule="evenodd" clip-rule="evenodd" points="22.776,90.915 22.768,90.849 22.752,90.697 22.747,90.605 
		22.747,90.515 22.753,90.433 22.768,90.368 22.793,90.313 22.838,90.245 22.892,90.17 22.953,90.096 23.062,89.97 23.108,89.917 
		21.084,89.807 22.776,90.915 	"/>
	
		<line fill="none" stroke="#000000" stroke-width="0.5154" stroke-miterlimit="3.25" x1="24.054" y1="68.878" x2="22.801" y2="66.998"/>
	<polyline fill-rule="evenodd" clip-rule="evenodd" points="22.426,67.494 22.464,67.432 22.557,67.282 22.615,67.196 
		22.678,67.118 22.741,67.047 22.801,66.998 22.862,66.966 22.949,66.936 23.05,66.908 23.157,66.883 23.342,66.845 23.423,66.832 
		21.677,65.313 22.426,67.494 	"/>
	
		<line fill="none" stroke="#000000" stroke-width="0.5154" stroke-miterlimit="3.25" x1="23.46" y1="46.762" x2="22.833" y2="43.628"/>
	<polyline fill-rule="evenodd" clip-rule="evenodd" points="22.076,44.077 22.159,44.015 22.361,43.869 22.483,43.789 22.61,43.718 
		22.729,43.661 22.833,43.628 22.932,43.621 23.062,43.628 23.21,43.646 23.362,43.669 23.625,43.721 23.736,43.745 22.27,40.82 
		22.076,44.077 	"/>
	
		<line fill="none" stroke="#000000" stroke-width="0.5154" stroke-miterlimit="3.25" x1="22.865" y1="24.645" x2="22.865" y2="20.259"/>
	<polyline fill-rule="evenodd" clip-rule="evenodd" points="21.726,20.659 21.854,20.595 22.167,20.456 22.354,20.383 
		22.541,20.319 22.717,20.274 22.865,20.259 23,20.274 23.173,20.319 23.366,20.383 23.565,20.456 23.906,20.595 24.051,20.659 
		22.865,16.327 21.726,20.659 	"/>
	
		<line fill="none" stroke="#000000" stroke-width="0.5154" stroke-miterlimit="3.25" x1="53.895" y1="334.869" x2="45.75" y2="347.403"/>
	<polyline fill-rule="evenodd" clip-rule="evenodd" points="49.751,348.377 49.26,348.319 48.113,348.138 47.441,348.001 
		46.784,347.833 46.201,347.636 45.75,347.403 45.396,347.11 44.982,346.662 44.543,346.118 44.112,345.536 43.4,344.508 
		43.104,344.058 38.445,358.638 49.751,348.377 	"/>
	
		<line fill="none" stroke="#000000" stroke-width="0.5154" stroke-miterlimit="3.25" x1="53.299" y1="312.755" x2="45.781" y2="324.031"/>
	<polyline fill-rule="evenodd" clip-rule="evenodd" points="49.397,324.96 48.956,324.9 47.919,324.725 47.311,324.593 
		46.715,324.434 46.188,324.247 45.781,324.031 45.464,323.765 45.094,323.354 44.701,322.854 44.316,322.321 43.68,321.382 
		43.418,320.973 39.04,334.144 49.397,324.96 	"/>
	
		<line fill="none" stroke="#000000" stroke-width="0.5154" stroke-miterlimit="3.25" x1="52.706" y1="290.64" x2="45.813" y2="300.664"/>
	<polyline fill-rule="evenodd" clip-rule="evenodd" points="49.049,301.539 48.652,301.48 47.724,301.311 47.18,301.187 
		46.648,301.036 46.178,300.861 45.813,300.664 45.532,300.418 45.205,300.044 44.86,299.593 44.521,299.109 43.963,298.258 
		43.732,297.885 39.636,309.652 49.049,301.539 	"/>
	
		<line fill="none" stroke="#000000" stroke-width="0.5154" stroke-miterlimit="3.25" x1="52.113" y1="268.524" x2="45.847" y2="277.294"/>
	<polyline fill-rule="evenodd" clip-rule="evenodd" points="48.698,278.123 48.347,278.065 47.527,277.897 47.049,277.779 
		46.579,277.637 46.164,277.475 45.847,277.294 45.6,277.072 45.316,276.734 45.019,276.328 44.726,275.897 44.244,275.133 
		44.047,274.799 40.229,285.159 48.698,278.123 	"/>
	
		<line fill="none" stroke="#000000" stroke-width="0.5154" stroke-miterlimit="3.25" x1="51.518" y1="246.404" x2="45.879" y2="253.924"/>
	<polyline fill-rule="evenodd" clip-rule="evenodd" points="48.347,254.702 48.044,254.647 47.331,254.483 46.916,254.371 
		46.511,254.239 46.151,254.088 45.879,253.924 45.668,253.725 45.429,253.427 45.177,253.067 44.931,252.685 44.526,252.008 
		44.36,251.715 40.822,260.665 48.347,254.702 	"/>
	
		<line fill="none" stroke="#000000" stroke-width="0.5154" stroke-miterlimit="3.25" x1="50.923" y1="224.288" x2="45.911" y2="230.554"/>
	<polyline fill-rule="evenodd" clip-rule="evenodd" points="47.997,231.285 47.739,231.229 47.137,231.071 46.784,230.963 
		46.441,230.838 46.14,230.701 45.911,230.554 45.735,230.379 45.54,230.118 45.334,229.803 45.135,229.47 44.809,228.884 
		44.675,228.626 41.416,236.172 47.997,231.285 	"/>
	
		<line fill="none" stroke="#000000" stroke-width="0.5154" stroke-miterlimit="3.25" x1="50.33" y1="202.172" x2="45.942" y2="207.184"/>
	<polyline fill-rule="evenodd" clip-rule="evenodd" points="47.646,207.868 47.434,207.81 46.94,207.657 46.652,207.554 
		46.373,207.44 46.128,207.316 45.942,207.184 45.806,207.034 45.652,206.809 45.493,206.541 45.34,206.258 45.09,205.758 
		44.988,205.542 42.011,211.678 47.646,207.868 	"/>
	
		<line fill="none" stroke="#000000" stroke-width="0.5154" stroke-miterlimit="3.25" x1="49.734" y1="180.056" x2="45.976" y2="183.815"/>
	<polyline fill-rule="evenodd" clip-rule="evenodd" points="47.296,184.45 47.13,184.393 46.745,184.245 46.521,184.148 
		46.305,184.042 46.115,183.928 45.976,183.815 45.874,183.688 45.763,183.5 45.651,183.277 45.545,183.044 45.372,182.634 
		45.303,182.456 42.605,187.186 47.296,184.45 	"/>
	
		<line fill="none" stroke="#000000" stroke-width="0.5154" stroke-miterlimit="3.25" x1="49.143" y1="157.939" x2="46.008" y2="160.444"/>
	<polyline fill-rule="evenodd" clip-rule="evenodd" points="46.946,161.03 46.826,160.975 46.549,160.83 46.388,160.74 
		46.235,160.642 46.104,160.542 46.008,160.444 45.942,160.341 45.876,160.191 45.809,160.015 45.75,159.832 45.654,159.509 
		45.617,159.369 43.201,162.692 46.946,161.03 	"/>
	
		<line fill="none" stroke="#000000" stroke-width="0.5154" stroke-miterlimit="3.25" x1="48.547" y1="135.821" x2="46.04" y2="137.075"/>
	<polyline fill-rule="evenodd" clip-rule="evenodd" points="46.596,137.613 46.521,137.557 46.354,137.418 46.259,137.332 
		46.167,137.243 46.091,137.156 46.04,137.075 46.011,136.994 45.986,136.883 45.967,136.753 45.951,136.618 45.936,136.383 
		45.93,136.284 43.793,138.2 46.596,137.613 	"/>
	
		<line fill="none" stroke="#000000" stroke-width="0.5154" stroke-miterlimit="3.25" x1="47.953" y1="113.705" x2="46.074" y2="113.705"/>
	<polyline fill-rule="evenodd" clip-rule="evenodd" points="46.244,114.194 46.217,114.138 46.159,114.005 46.127,113.925 
		46.099,113.843 46.079,113.769 46.074,113.705 46.079,113.648 46.099,113.574 46.127,113.491 46.159,113.405 46.217,113.26 
		46.244,113.197 44.389,113.705 46.244,114.194 	"/>
	
		<line fill="none" stroke="#000000" stroke-width="0.5154" stroke-miterlimit="3.25" x1="47.357" y1="91.589" x2="46.105" y2="90.335"/>
	<polyline fill-rule="evenodd" clip-rule="evenodd" points="45.895,90.775 45.912,90.72 45.962,90.593 45.994,90.517 46.029,90.445 
		46.066,90.382 46.105,90.335 46.148,90.301 46.21,90.265 46.284,90.228 46.362,90.192 46.499,90.135 46.558,90.111 44.982,89.212 
		45.895,90.775 	"/>
	
		<line fill="none" stroke="#000000" stroke-width="0.5154" stroke-miterlimit="3.25" x1="46.764" y1="69.472" x2="46.137" y2="66.966"/>
	<polyline fill-rule="evenodd" clip-rule="evenodd" points="45.545,67.357 45.609,67.302 45.766,67.179 45.862,67.109 
		45.962,67.047 46.056,66.996 46.137,66.966 46.217,66.956 46.322,66.956 46.441,66.965 46.565,66.979 46.781,67.01 46.873,67.024 
		45.574,64.72 45.545,67.357 	"/>
	
		<line fill="none" stroke="#000000" stroke-width="0.5154" stroke-miterlimit="3.25" x1="46.17" y1="47.355" x2="46.17" y2="43.596"/>
	<polyline fill-rule="evenodd" clip-rule="evenodd" points="45.192,43.94 45.305,43.884 45.57,43.765 45.73,43.701 45.892,43.646 
		46.043,43.609 46.17,43.596 46.285,43.609 46.434,43.646 46.601,43.701 46.771,43.765 47.062,43.884 47.186,43.94 46.17,40.226 
		45.192,43.94 	"/>
	
		<line fill="none" stroke="#000000" stroke-width="0.5154" stroke-miterlimit="3.25" x1="45.574" y1="25.239" x2="46.202" y2="20.227"/>
	<polyline fill-rule="evenodd" clip-rule="evenodd" points="44.841,20.521 45.001,20.467 45.375,20.353 45.599,20.295 
		45.825,20.249 46.032,20.223 46.202,20.227 46.354,20.263 46.546,20.339 46.758,20.44 46.976,20.553 47.345,20.759 47.501,20.854 
		46.764,15.732 44.841,20.521 	"/>
	
		<line fill="none" stroke="#000000" stroke-width="0.5154" stroke-miterlimit="3.25" x1="76.604" y1="335.467" x2="69.086" y2="347.368"/>
	<polyline fill-rule="evenodd" clip-rule="evenodd" points="72.867,348.238 72.405,348.188 71.323,348.034 70.689,347.913 
		70.066,347.762 69.515,347.582 69.086,347.368 68.75,347.1 68.356,346.68 67.936,346.173 67.521,345.631 66.838,344.673 
		66.554,344.253 62.345,358.043 72.867,348.238 	"/>
	
		<line fill="none" stroke="#000000" stroke-width="0.5154" stroke-miterlimit="3.25" x1="76.009" y1="313.351" x2="69.119" y2="324"/>
	<polyline fill-rule="evenodd" clip-rule="evenodd" points="72.517,324.82 72.102,324.772 71.129,324.621 70.558,324.505 
		69.999,324.365 69.503,324.197 69.119,324 68.817,323.754 68.466,323.372 68.094,322.911 67.728,322.419 67.119,321.549 
		66.868,321.165 62.94,333.553 72.517,324.82 	"/>
	
		<line fill="none" stroke="#000000" stroke-width="0.5154" stroke-miterlimit="3.25" x1="75.416" y1="291.231" x2="69.151" y2="300.632"/>
	<polyline fill-rule="evenodd" clip-rule="evenodd" points="72.166,301.401 71.797,301.354 70.932,301.207 70.426,301.099 
		69.93,300.966 69.49,300.811 69.151,300.632 68.887,300.407 68.577,300.064 68.251,299.648 67.931,299.205 67.401,298.424 
		67.182,298.08 63.533,309.057 72.166,301.401 	"/>
	
		<line fill="none" stroke="#000000" stroke-width="0.5154" stroke-miterlimit="3.25" x1="74.823" y1="269.117" x2="69.184" y2="277.261"/>
	<polyline fill-rule="evenodd" clip-rule="evenodd" points="71.816,277.984 71.493,277.936 70.736,277.795 70.295,277.691 
		69.862,277.566 69.479,277.422 69.184,277.261 68.954,277.061 68.689,276.756 68.41,276.387 68.135,275.994 67.683,275.299 
		67.496,274.993 64.129,284.563 71.816,277.984 	"/>
	
		<line fill="none" stroke="#000000" stroke-width="0.5154" stroke-miterlimit="3.25" x1="74.228" y1="247" x2="69.215" y2="253.892"/>
	<polyline fill-rule="evenodd" clip-rule="evenodd" points="71.464,254.566 71.188,254.518 70.541,254.379 70.161,254.281 
		69.793,254.168 69.466,254.037 69.215,253.892 69.023,253.715 68.802,253.446 68.567,253.123 68.34,252.779 67.965,252.174 
		67.811,251.908 64.721,260.071 71.464,254.566 	"/>
	
		<line fill="none" stroke="#000000" stroke-width="0.5154" stroke-miterlimit="3.25" x1="73.634" y1="224.884" x2="69.248" y2="230.521"/>
	<polyline fill-rule="evenodd" clip-rule="evenodd" points="71.113,231.147 70.883,231.099 70.345,230.967 70.029,230.875 
		69.725,230.769 69.454,230.65 69.248,230.521 69.091,230.368 68.913,230.139 68.726,229.86 68.545,229.567 68.246,229.047 
		68.125,228.822 65.316,235.579 71.113,231.147 	"/>
	
		<line fill="none" stroke="#000000" stroke-width="0.5154" stroke-miterlimit="3.25" x1="73.039" y1="202.766" x2="69.28" y2="207.151"/>
	<polyline fill-rule="evenodd" clip-rule="evenodd" points="70.763,207.728 70.579,207.682 70.149,207.553 69.9,207.468 
		69.655,207.37 69.441,207.264 69.28,207.151 69.16,207.022 69.024,206.828 68.884,206.599 68.75,206.354 68.528,205.923 
		68.437,205.736 65.909,211.084 70.763,207.728 	"/>
	
		<line fill="none" stroke="#000000" stroke-width="0.5154" stroke-miterlimit="3.25" x1="72.445" y1="180.65" x2="69.313" y2="183.782"/>
	<polyline fill-rule="evenodd" clip-rule="evenodd" points="70.412,184.312 70.276,184.264 69.954,184.141 69.768,184.059 
		69.587,183.971 69.43,183.876 69.313,183.782 69.229,183.676 69.137,183.521 69.043,183.334 68.954,183.14 68.81,182.799 
		68.752,182.648 66.504,186.591 70.412,184.312 	"/>
	
		<line fill="none" stroke="#000000" stroke-width="0.5154" stroke-miterlimit="3.25" x1="71.853" y1="158.532" x2="69.346" y2="160.414"/>
	<polyline fill-rule="evenodd" clip-rule="evenodd" points="70.062,160.892 69.971,160.847 69.757,160.728 69.636,160.651 
		69.517,160.571 69.418,160.489 69.346,160.414 69.297,160.329 69.248,160.211 69.2,160.073 69.159,159.927 69.091,159.673 
		69.064,159.563 67.1,162.098 70.062,160.892 	"/>
	
		<line fill="none" stroke="#000000" stroke-width="0.5154" stroke-miterlimit="3.25" x1="71.257" y1="136.417" x2="69.377" y2="137.042"/>
	<polyline fill-rule="evenodd" clip-rule="evenodd" points="69.711,137.475 69.668,137.428 69.562,137.315 69.504,137.245 
		69.45,137.174 69.407,137.104 69.377,137.042 69.366,136.983 69.358,136.902 69.358,136.809 69.361,136.713 69.375,136.549 
		69.38,136.477 67.692,137.605 69.711,137.475 	"/>
	
		<line fill="none" stroke="#000000" stroke-width="0.5154" stroke-miterlimit="3.25" x1="70.662" y1="114.3" x2="69.409" y2="113.674"/>
	<polyline fill-rule="evenodd" clip-rule="evenodd" points="69.361,114.056 69.361,114.01 69.366,113.901 69.372,113.837 
		69.38,113.774 69.393,113.717 69.409,113.674 69.434,113.637 69.472,113.595 69.517,113.547 69.565,113.5 69.655,113.424 
		69.694,113.392 68.287,113.111 69.361,114.056 	"/>
	
		<line fill="none" stroke="#000000" stroke-width="0.5154" stroke-miterlimit="3.25" x1="70.07" y1="92.183" x2="69.441" y2="90.303"/>
	<polyline fill-rule="evenodd" clip-rule="evenodd" points="69.011,90.638 69.057,90.593 69.17,90.488 69.239,90.429 69.313,90.375 
		69.38,90.331 69.441,90.303 69.503,90.291 69.582,90.285 69.677,90.284 69.771,90.289 69.938,90.298 70.008,90.305 68.882,88.618 
		69.011,90.638 	"/>
	
		<line fill="none" stroke="#000000" stroke-width="0.5154" stroke-miterlimit="3.25" x1="69.475" y1="70.065" x2="69.475" y2="66.933"/>
	<polyline fill-rule="evenodd" clip-rule="evenodd" points="68.66,67.219 68.754,67.173 68.976,67.075 69.107,67.021 69.244,66.977 
		69.369,66.945 69.475,66.933 69.571,66.945 69.694,66.977 69.832,67.021 69.976,67.075 70.219,67.173 70.323,67.219 69.475,64.124 
		68.66,67.219 	"/>
	
		<line fill="none" stroke="#000000" stroke-width="0.5154" stroke-miterlimit="3.25" x1="68.882" y1="47.949" x2="69.508" y2="43.563"/>
	<polyline fill-rule="evenodd" clip-rule="evenodd" points="68.311,43.802 68.449,43.756 68.78,43.663 68.979,43.614 69.176,43.579 
		69.357,43.558 69.508,43.563 69.641,43.598 69.806,43.667 69.992,43.759 70.181,43.861 70.501,44.05 70.636,44.134 70.07,39.632 
		68.311,43.802 	"/>
	
		<line fill="none" stroke="#000000" stroke-width="0.5154" stroke-miterlimit="3.25" x1="68.287" y1="25.833" x2="69.539" y2="20.195"/>
	<polyline fill-rule="evenodd" clip-rule="evenodd" points="67.96,20.383 68.145,20.337 68.585,20.249 68.847,20.207 69.106,20.179 
		69.346,20.172 69.539,20.195 69.707,20.253 69.919,20.359 70.15,20.497 70.385,20.648 70.782,20.924 70.951,21.046 70.662,15.138 
		67.96,20.383 	"/>
	
		<line fill="none" stroke="#000000" stroke-width="0.5154" stroke-miterlimit="3.25" x1="99.315" y1="336.06" x2="92.424" y2="347.34"/>
	<polyline fill-rule="evenodd" clip-rule="evenodd" points="95.983,348.103 95.552,348.06 94.533,347.93 93.935,347.826 
		93.351,347.693 92.829,347.532 92.424,347.34 92.104,347.09 91.729,346.702 91.327,346.23 90.931,345.729 90.276,344.836 
		90.004,344.446 86.244,357.45 95.983,348.103 	"/>
	
		<line fill="none" stroke="#000000" stroke-width="0.5154" stroke-miterlimit="3.25" x1="98.722" y1="313.945" x2="92.457" y2="323.97"/>
	<polyline fill-rule="evenodd" clip-rule="evenodd" points="95.634,324.683 95.247,324.642 94.336,324.517 93.803,324.418 
		93.281,324.295 92.816,324.146 92.457,323.97 92.173,323.742 91.84,323.393 91.485,322.969 91.135,322.516 90.556,321.712 
		90.318,321.361 86.839,332.957 95.634,324.683 	"/>
	
		<line fill="none" stroke="#000000" stroke-width="0.5154" stroke-miterlimit="3.25" x1="98.127" y1="291.827" x2="92.487" y2="300.598"/>
	<polyline fill-rule="evenodd" clip-rule="evenodd" points="95.283,301.264 94.943,301.225 94.143,301.103 93.673,301.012 
		93.212,300.896 92.803,300.757 92.487,300.598 92.239,300.396 91.952,300.085 91.643,299.705 91.34,299.301 90.839,298.588 
		90.632,298.274 87.432,308.464 95.283,301.264 	"/>
	
		<line fill="none" stroke="#000000" stroke-width="0.5154" stroke-miterlimit="3.25" x1="97.533" y1="269.709" x2="92.521" y2="277.228"/>
	<polyline fill-rule="evenodd" clip-rule="evenodd" points="94.932,277.847 94.638,277.807 93.946,277.69 93.541,277.602 
		93.145,277.496 92.793,277.372 92.521,277.228 92.31,277.049 92.062,276.775 91.801,276.443 91.545,276.09 91.121,275.461 
		90.945,275.188 88.026,283.97 94.932,277.847 	"/>
	
		<line fill="none" stroke="#000000" stroke-width="0.5154" stroke-miterlimit="3.25" x1="96.939" y1="247.594" x2="92.553" y2="253.858"/>
	<polyline fill-rule="evenodd" clip-rule="evenodd" points="94.581,254.427 94.333,254.39 93.752,254.276 93.409,254.194 
		93.075,254.099 92.781,253.986 92.553,253.858 92.378,253.705 92.174,253.466 91.96,253.179 91.75,252.875 91.403,252.338 
		91.259,252.102 88.621,259.476 94.581,254.427 	"/>
	
		<line fill="none" stroke="#000000" stroke-width="0.5154" stroke-miterlimit="3.25" x1="96.344" y1="225.477" x2="92.585" y2="230.488"/>
	<polyline fill-rule="evenodd" clip-rule="evenodd" points="94.231,231.012 94.029,230.972 93.554,230.864 93.277,230.785 
		93.008,230.698 92.769,230.599 92.585,230.488 92.446,230.357 92.285,230.158 92.117,229.917 91.954,229.662 91.685,229.212 
		91.573,229.018 89.215,234.984 94.231,231.012 	"/>
	
		<line fill="none" stroke="#000000" stroke-width="0.5154" stroke-miterlimit="3.25" x1="95.751" y1="203.361" x2="92.62" y2="207.119"/>
	<polyline fill-rule="evenodd" clip-rule="evenodd" points="93.881,207.591 93.725,207.552 93.358,207.45 93.146,207.38 
		92.938,207.298 92.755,207.213 92.62,207.119 92.515,207.01 92.399,206.849 92.276,206.655 92.159,206.451 91.966,206.088 
		91.887,205.93 89.81,210.49 93.881,207.591 	"/>
	
		<line fill="none" stroke="#000000" stroke-width="0.5154" stroke-miterlimit="3.25" x1="95.155" y1="181.244" x2="92.649" y2="183.75"/>
	<polyline fill-rule="evenodd" clip-rule="evenodd" points="93.53,184.173 93.421,184.134 93.162,184.037 93.013,183.972 
		92.871,183.9 92.744,183.826 92.649,183.75 92.582,183.665 92.509,183.54 92.434,183.393 92.362,183.237 92.248,182.964 
		92.202,182.844 90.402,185.997 93.53,184.173 	"/>
	
		<line fill="none" stroke="#000000" stroke-width="0.5154" stroke-miterlimit="3.25" x1="94.562" y1="159.127" x2="92.683" y2="160.38"/>
	<polyline fill-rule="evenodd" clip-rule="evenodd" points="93.181,160.754 93.115,160.717 92.967,160.624 92.881,160.564 
		92.801,160.502 92.731,160.439 92.683,160.38 92.651,160.318 92.62,160.231 92.594,160.13 92.565,160.023 92.529,159.837 
		92.515,159.757 90.998,161.503 93.181,160.754 	"/>
	
		<line fill="none" stroke="#000000" stroke-width="0.5154" stroke-miterlimit="3.25" x1="93.97" y1="137.011" x2="92.714" y2="137.011"/>
	<polyline fill-rule="evenodd" clip-rule="evenodd" points="92.83,137.336 92.811,137.3 92.771,137.21 92.751,137.157 
		92.733,137.104 92.72,137.052 92.714,137.011 92.72,136.973 92.733,136.924 92.751,136.868 92.771,136.811 92.811,136.713 
		92.83,136.671 91.592,137.011 92.83,137.336 	"/>
	
		<line fill="none" stroke="#000000" stroke-width="0.5154" stroke-miterlimit="3.25" x1="93.374" y1="114.894" x2="92.747" y2="113.641"/>
	<polyline fill-rule="evenodd" clip-rule="evenodd" points="92.479,113.917 92.508,113.88 92.577,113.797 92.62,113.749 
		92.663,113.705 92.709,113.665 92.747,113.641 92.788,113.625 92.844,113.614 92.908,113.604 92.976,113.597 93.095,113.589 
		93.143,113.584 92.186,112.518 92.479,113.917 	"/>
	
		<line fill="none" stroke="#000000" stroke-width="0.5154" stroke-miterlimit="3.25" x1="92.781" y1="92.776" x2="92.781" y2="90.271"/>
	<polyline fill-rule="evenodd" clip-rule="evenodd" points="92.13,90.5 92.202,90.463 92.38,90.384 92.487,90.341 92.596,90.304 
		92.695,90.28 92.781,90.271 92.857,90.28 92.955,90.304 93.066,90.341 93.181,90.384 93.374,90.463 93.458,90.5 92.781,88.023 
		92.13,90.5 	"/>
	
		<line fill="none" stroke="#000000" stroke-width="0.5154" stroke-miterlimit="3.25" x1="92.186" y1="70.661" x2="92.811" y2="66.902"/>
	<polyline fill-rule="evenodd" clip-rule="evenodd" points="91.779,67.081 91.898,67.046 92.185,66.971 92.355,66.935 
		92.527,66.907 92.683,66.893 92.811,66.902 92.925,66.933 93.066,66.996 93.227,67.079 93.385,67.171 93.657,67.339 93.772,67.414 
		93.374,63.531 91.779,67.081 	"/>
	
		<line fill="none" stroke="#000000" stroke-width="0.5154" stroke-miterlimit="3.25" x1="91.592" y1="48.543" x2="92.846" y2="43.531"/>
	<polyline fill-rule="evenodd" clip-rule="evenodd" points="91.428,43.663 91.594,43.627 91.989,43.558 92.224,43.526 
		92.458,43.508 92.672,43.507 92.846,43.531 92.995,43.588 93.179,43.688 93.382,43.816 93.59,43.958 93.938,44.213 94.085,44.328 
		93.97,39.038 91.428,43.663 	"/>
	
		<line fill="none" stroke="#000000" stroke-width="0.5154" stroke-miterlimit="3.25" x1="90.998" y1="26.427" x2="92.877" y2="20.161"/>
	<polyline fill-rule="evenodd" clip-rule="evenodd" points="91.079,20.244 91.288,20.208 91.793,20.144 92.091,20.119 92.39,20.107 
		92.66,20.121 92.877,20.161 93.062,20.241 93.29,20.378 93.543,20.553 93.795,20.744 94.221,21.089 94.399,21.242 94.562,14.544 
		91.079,20.244 	"/>
	
		<line fill="none" stroke="#000000" stroke-width="0.5154" stroke-miterlimit="3.25" x1="122.026" y1="336.655" x2="115.76" y2="347.307"/>
	<polyline fill-rule="evenodd" clip-rule="evenodd" points="119.102,347.964 118.696,347.932 117.741,347.826 117.182,347.736 
		116.633,347.623 116.144,347.479 115.76,347.307 115.458,347.077 115.101,346.721 114.717,346.289 114.34,345.825 113.714,345 
		113.452,344.641 110.145,356.854 119.102,347.964 	"/>
	
		<line fill="none" stroke="#000000" stroke-width="0.5154" stroke-miterlimit="3.25" x1="121.432" y1="314.538" x2="115.796" y2="323.936"/>
	<polyline fill-rule="evenodd" clip-rule="evenodd" points="118.751,324.546 118.393,324.514 117.547,324.413 117.051,324.33 
		116.562,324.226 116.129,324.092 115.796,323.936 115.525,323.73 115.213,323.413 114.877,323.024 114.545,322.611 
		113.996,321.877 113.767,321.554 110.737,332.362 118.751,324.546 	"/>
	
		<line fill="none" stroke="#000000" stroke-width="0.5154" stroke-miterlimit="3.25" x1="120.838" y1="292.421" x2="115.825" y2="300.568"/>
	<polyline fill-rule="evenodd" clip-rule="evenodd" points="118.4,301.127 118.086,301.095 117.352,301 116.919,300.922 
		116.496,300.825 116.119,300.707 115.825,300.568 115.596,300.385 115.324,300.104 115.035,299.764 114.75,299.398 
		114.277,298.752 114.081,298.469 111.33,307.868 118.4,301.127 	"/>
	
		<line fill="none" stroke="#000000" stroke-width="0.5154" stroke-miterlimit="3.25" x1="120.244" y1="270.304" x2="115.858" y2="277.197"/>
	<polyline fill-rule="evenodd" clip-rule="evenodd" points="118.049,277.707 117.782,277.678 117.154,277.587 116.786,277.516 
		116.427,277.426 116.107,277.32 115.858,277.197 115.663,277.038 115.436,276.796 115.193,276.501 114.954,276.184 
		114.559,275.628 114.395,275.382 111.926,283.375 118.049,277.707 	"/>
	
		<line fill="none" stroke="#000000" stroke-width="0.5154" stroke-miterlimit="3.25" x1="119.649" y1="248.188" x2="115.889" y2="253.826"/>
	<polyline fill-rule="evenodd" clip-rule="evenodd" points="117.699,254.29 117.478,254.26 116.959,254.173 116.654,254.106 
		116.358,254.027 116.095,253.933 115.889,253.826 115.731,253.693 115.548,253.487 115.351,253.238 115.156,252.973 
		114.841,252.503 114.709,252.298 112.52,258.883 117.699,254.29 	"/>
	
		<line fill="none" stroke="#000000" stroke-width="0.5154" stroke-miterlimit="3.25" x1="119.056" y1="226.069" x2="115.924" y2="230.456"/>
	<polyline fill-rule="evenodd" clip-rule="evenodd" points="117.348,230.872 117.175,230.842 116.764,230.759 116.524,230.7 
		116.289,230.627 116.081,230.549 115.924,230.456 115.801,230.346 115.659,230.179 115.51,229.974 115.363,229.758 
		115.122,229.377 115.022,229.209 113.114,234.39 117.348,230.872 	"/>
	
		<line fill="none" stroke="#000000" stroke-width="0.5154" stroke-miterlimit="3.25" x1="118.462" y1="203.954" x2="115.955" y2="207.089"/>
	<polyline fill-rule="evenodd" clip-rule="evenodd" points="116.997,207.453 116.87,207.425 116.568,207.346 116.393,207.292 
		116.221,207.229 116.07,207.162 115.955,207.089 115.868,206.999 115.771,206.867 115.668,206.713 115.568,206.547 
		115.404,206.251 115.337,206.125 113.708,209.896 116.997,207.453 	"/>
	
		<line fill="none" stroke="#000000" stroke-width="0.5154" stroke-miterlimit="3.25" x1="117.869" y1="181.839" x2="115.986" y2="183.717"/>
	<polyline fill-rule="evenodd" clip-rule="evenodd" points="116.646,184.036 116.563,184.005 116.372,183.933 116.261,183.885 
		116.152,183.831 116.058,183.774 115.986,183.717 115.937,183.653 115.881,183.561 115.825,183.45 115.771,183.332 
		115.686,183.128 115.651,183.037 114.303,185.402 116.646,184.036 	"/>
	
		<line fill="none" stroke="#000000" stroke-width="0.5154" stroke-miterlimit="3.25" x1="117.273" y1="159.721" x2="116.021" y2="160.348"/>
	<polyline fill-rule="evenodd" clip-rule="evenodd" points="116.297,160.616 116.261,160.589 116.177,160.519 116.129,160.477 
		116.083,160.431 116.046,160.389 116.021,160.348 116.005,160.308 115.995,160.251 115.983,160.187 115.976,160.12 
		115.968,160.002 115.965,159.952 114.898,160.91 116.297,160.616 	"/>
	
		<line fill="none" stroke="#000000" stroke-width="0.5154" stroke-miterlimit="3.25" x1="116.679" y1="137.605" x2="116.053" y2="136.979"/>
	<polyline fill-rule="evenodd" clip-rule="evenodd" points="115.946,137.198 115.957,137.17 115.98,137.106 115.997,137.069 
		116.015,137.033 116.035,137.001 116.053,136.979 116.074,136.961 116.104,136.942 116.144,136.924 116.181,136.906 
		116.251,136.878 116.28,136.866 115.49,136.417 115.946,137.198 	"/>
	
		<line fill="none" stroke="#000000" stroke-width="0.5154" stroke-miterlimit="3.25" x1="116.085" y1="115.489" x2="116.085" y2="113.607"/>
	<polyline fill-rule="evenodd" clip-rule="evenodd" points="115.596,113.779 115.652,113.752 115.785,113.692 115.864,113.662 
		115.946,113.634 116.021,113.615 116.085,113.607 116.144,113.615 116.217,113.634 116.302,113.662 116.385,113.692 
		116.53,113.752 116.593,113.779 116.085,111.923 115.596,113.779 	"/>
	
		<line fill="none" stroke="#000000" stroke-width="0.5154" stroke-miterlimit="3.25" x1="115.49" y1="93.371" x2="116.117" y2="90.24"/>
	<polyline fill-rule="evenodd" clip-rule="evenodd" points="115.246,90.361 115.349,90.334 115.589,90.28 115.733,90.252 
		115.877,90.235 116.009,90.229 116.117,90.24 116.21,90.269 116.329,90.325 116.458,90.398 116.59,90.481 116.813,90.628 
		116.908,90.693 116.679,87.43 115.246,90.361 	"/>
	
		<line fill="none" stroke="#000000" stroke-width="0.5154" stroke-miterlimit="3.25" x1="114.898" y1="71.254" x2="116.149" y2="66.869"/>
	<polyline fill-rule="evenodd" clip-rule="evenodd" points="114.896,66.943 115.044,66.917 115.395,66.867 115.603,66.845 
		115.809,66.836 115.997,66.841 116.149,66.869 116.28,66.922 116.438,67.017 116.617,67.136 116.795,67.267 117.095,67.503 
		117.221,67.607 117.273,62.937 114.896,66.943 	"/>
	
		<line fill="none" stroke="#000000" stroke-width="0.5154" stroke-miterlimit="3.25" x1="114.303" y1="49.137" x2="116.183" y2="43.499"/>
	<polyline fill-rule="evenodd" clip-rule="evenodd" points="114.545,43.524 114.738,43.499 115.198,43.454 115.471,43.438 
		115.742,43.437 115.986,43.456 116.183,43.499 116.348,43.577 116.551,43.708 116.776,43.872 116.998,44.054 117.377,44.378 
		117.535,44.523 117.869,38.443 114.545,43.524 	"/>
	
		<line fill="none" stroke="#000000" stroke-width="0.5154" stroke-miterlimit="3.25" x1="113.708" y1="27.021" x2="116.215" y2="20.13"/>
	<polyline fill-rule="evenodd" clip-rule="evenodd" points="114.195,20.105 114.435,20.08 115.003,20.041 115.34,20.03 
		115.672,20.038 115.974,20.069 116.215,20.13 116.418,20.229 116.662,20.399 116.932,20.611 117.204,20.841 117.658,21.253 
		117.85,21.437 118.462,13.95 114.195,20.105 	"/>
	
		<line fill="none" stroke="#000000" stroke-width="0.5154" stroke-miterlimit="3.25" x1="144.737" y1="337.249" x2="139.099" y2="347.272"/>
	<polyline fill-rule="evenodd" clip-rule="evenodd" points="142.219,347.826 141.841,347.802 140.951,347.723 140.428,347.648 
		139.914,347.554 139.455,347.429 139.099,347.272 138.812,347.066 138.472,346.743 138.11,346.346 137.75,345.92 137.151,345.166 
		136.902,344.835 134.042,356.262 142.219,347.826 	"/>
	
		<line fill="none" stroke="#000000" stroke-width="0.5154" stroke-miterlimit="3.25" x1="144.144" y1="315.133" x2="139.131" y2="323.904"/>
	<polyline fill-rule="evenodd" clip-rule="evenodd" points="141.868,324.406 141.535,324.386 140.754,324.307 140.298,324.241 
		139.847,324.153 139.445,324.042 139.131,323.904 138.882,323.72 138.585,323.434 138.268,323.081 137.955,322.707 137.433,322.04 
		137.216,321.748 134.636,331.769 141.868,324.406 	"/>
	
		<line fill="none" stroke="#000000" stroke-width="0.5154" stroke-miterlimit="3.25" x1="143.549" y1="293.016" x2="139.163" y2="300.533"/>
	<polyline fill-rule="evenodd" clip-rule="evenodd" points="141.517,300.989 141.23,300.968 140.56,300.896 140.166,300.834 
		139.777,300.755 139.431,300.655 139.163,300.533 138.949,300.374 138.696,300.123 138.426,299.82 138.158,299.494 
		137.715,298.915 137.53,298.662 135.23,307.273 141.517,300.989 	"/>
	
		<line fill="none" stroke="#000000" stroke-width="0.5154" stroke-miterlimit="3.25" x1="142.955" y1="270.897" x2="139.197" y2="277.164"/>
	<polyline fill-rule="evenodd" clip-rule="evenodd" points="141.168,277.569 140.929,277.549 140.365,277.481 140.033,277.426 
		139.71,277.355 139.421,277.269 139.197,277.164 139.018,277.027 138.809,276.817 138.584,276.556 138.363,276.28 137.997,275.791 
		137.846,275.576 135.826,282.783 141.168,277.569 	"/>
	
		<line fill="none" stroke="#000000" stroke-width="0.5154" stroke-miterlimit="3.25" x1="142.361" y1="248.782" x2="139.229" y2="253.794"/>
	<polyline fill-rule="evenodd" clip-rule="evenodd" points="140.817,254.151 140.622,254.132 140.17,254.068 139.902,254.021 
		139.642,253.957 139.409,253.883 139.229,253.794 139.086,253.68 138.92,253.506 138.743,253.295 138.566,253.068 138.278,252.668 
		138.158,252.489 136.418,258.287 140.817,254.151 	"/>
	
		<line fill="none" stroke="#000000" stroke-width="0.5154" stroke-miterlimit="3.25" x1="141.768" y1="226.667" x2="139.261" y2="230.424"/>
	<polyline fill-rule="evenodd" clip-rule="evenodd" points="140.466,230.733 140.319,230.714 139.973,230.655 139.771,230.611 
		139.571,230.558 139.396,230.495 139.261,230.424 139.153,230.336 139.032,230.198 138.9,230.031 138.774,229.854 138.561,229.541 
		138.472,229.403 137.014,233.795 140.466,230.733 	"/>
	
		<line fill="none" stroke="#000000" stroke-width="0.5154" stroke-miterlimit="3.25" x1="141.172" y1="204.549" x2="139.293" y2="207.056"/>
	<polyline fill-rule="evenodd" clip-rule="evenodd" points="140.116,207.316 140.014,207.296 139.776,207.242 139.638,207.205 
		139.504,207.16 139.383,207.109 139.293,207.056 139.224,206.99 139.144,206.889 139.059,206.771 138.978,206.642 138.843,206.417 
		138.787,206.317 137.607,209.302 140.116,207.316 	"/>
	
		<line fill="none" stroke="#000000" stroke-width="0.5154" stroke-miterlimit="3.25" x1="140.579" y1="182.431" x2="139.325" y2="183.686"/>
	<polyline fill-rule="evenodd" clip-rule="evenodd" points="139.766,183.896 139.71,183.878 139.582,183.829 139.507,183.797 
		139.434,183.761 139.372,183.724 139.325,183.686 139.291,183.643 139.253,183.581 139.215,183.506 139.181,183.429 
		139.124,183.292 139.1,183.232 138.201,184.81 139.766,183.896 	"/>
	
		<line fill="none" stroke="#000000" stroke-width="0.5154" stroke-miterlimit="3.25" x1="139.983" y1="160.314" x2="139.358" y2="160.314"/>
	<polyline fill-rule="evenodd" clip-rule="evenodd" points="139.414,160.478 139.405,160.459 139.387,160.416 139.375,160.389 
		139.367,160.361 139.36,160.337 139.358,160.314 139.36,160.296 139.367,160.271 139.375,160.244 139.387,160.215 139.405,160.166 
		139.414,160.146 138.797,160.314 139.414,160.478 	"/>
	
		<line fill="none" stroke="#000000" stroke-width="0.5154" stroke-miterlimit="3.25" x1="139.392" y1="138.2" x2="139.392" y2="136.945"/>
	<polyline fill-rule="evenodd" clip-rule="evenodd" points="139.064,137.06 139.102,137.042 139.189,137.002 139.244,136.981 
		139.297,136.963 139.348,136.949 139.392,136.945 139.429,136.949 139.479,136.963 139.533,136.981 139.59,137.002 
		139.687,137.042 139.728,137.06 139.392,135.821 139.064,137.06 	"/>
	
		<line fill="none" stroke="#000000" stroke-width="0.5154" stroke-miterlimit="3.25" x1="138.797" y1="116.083" x2="139.422" y2="113.576"/>
	<polyline fill-rule="evenodd" clip-rule="evenodd" points="138.714,113.641 138.798,113.624 138.995,113.589 139.111,113.572 
		139.229,113.564 139.335,113.564 139.422,113.576 139.497,113.604 139.59,113.654 139.693,113.719 139.795,113.788 
		139.971,113.917 140.043,113.975 139.983,111.329 138.714,113.641 	"/>
	
		<line fill="none" stroke="#000000" stroke-width="0.5154" stroke-miterlimit="3.25" x1="138.201" y1="93.965" x2="139.455" y2="90.205"/>
	<polyline fill-rule="evenodd" clip-rule="evenodd" points="138.363,90.225 138.492,90.205 138.8,90.175 138.981,90.166 
		139.159,90.165 139.323,90.177 139.455,90.205 139.566,90.257 139.701,90.345 139.851,90.456 140,90.576 140.25,90.792 
		140.357,90.889 140.579,86.836 138.363,90.225 	"/>
	
		<line fill="none" stroke="#000000" stroke-width="0.5154" stroke-miterlimit="3.25" x1="137.607" y1="71.849" x2="139.486" y2="66.836"/>
	<polyline fill-rule="evenodd" clip-rule="evenodd" points="138.014,66.805 138.188,66.787 138.604,66.762 138.85,66.758 
		139.092,66.766 139.311,66.791 139.486,66.836 139.633,66.912 139.812,67.036 140.008,67.193 140.204,67.361 140.533,67.667 
		140.671,67.802 141.172,62.341 138.014,66.805 	"/>
	
		<line fill="none" stroke="#000000" stroke-width="0.5154" stroke-miterlimit="3.25" x1="137.014" y1="49.732" x2="139.521" y2="43.468"/>
	<polyline fill-rule="evenodd" clip-rule="evenodd" points="137.662,43.387 137.885,43.371 138.408,43.35 138.718,43.35 
		139.023,43.368 139.299,43.405 139.521,43.468 139.702,43.565 139.925,43.729 140.167,43.93 140.407,44.15 140.812,44.542 
		140.985,44.716 141.768,37.849 137.662,43.387 	"/>
	
		<line fill="none" stroke="#000000" stroke-width="0.5154" stroke-miterlimit="3.25" x1="136.418" y1="27.616" x2="139.553" y2="20.097"/>
	<polyline fill-rule="evenodd" clip-rule="evenodd" points="137.312,19.968 137.579,19.953 138.212,19.936 138.585,19.943 
		138.954,19.968 139.287,20.017 139.553,20.097 139.771,20.219 140.037,20.418 140.323,20.667 140.613,20.936 141.097,21.418 
		141.299,21.63 142.361,13.356 137.312,19.968 	"/>
	
		<line fill="none" stroke="#000000" stroke-width="0.5154" stroke-miterlimit="3.25" x1="167.448" y1="337.843" x2="162.437" y2="347.242"/>
	<polyline fill-rule="evenodd" clip-rule="evenodd" points="165.338,347.688 164.986,347.675 164.162,347.617 163.675,347.562 
		163.198,347.483 162.771,347.377 162.437,347.242 162.168,347.057 161.847,346.763 161.502,346.402 161.158,346.016 
		160.589,345.329 160.353,345.029 157.941,355.667 165.338,347.688 	"/>
	
		<line fill="none" stroke="#000000" stroke-width="0.5154" stroke-miterlimit="3.25" x1="166.853" y1="315.727" x2="162.47" y2="323.871"/>
	<polyline fill-rule="evenodd" clip-rule="evenodd" points="164.986,324.269 164.681,324.258 163.965,324.202 163.543,324.153 
		163.129,324.084 162.757,323.991 162.47,323.871 162.234,323.707 161.957,323.452 161.66,323.141 161.365,322.804 160.871,322.204 
		160.666,321.942 158.535,331.173 164.986,324.269 	"/>
	
		<line fill="none" stroke="#000000" stroke-width="0.5154" stroke-miterlimit="3.25" x1="166.26" y1="293.61" x2="162.501" y2="300.5"/>
	<polyline fill-rule="evenodd" clip-rule="evenodd" points="164.635,300.851 164.377,300.84 163.77,300.792 163.411,300.747 
		163.061,300.686 162.747,300.604 162.501,300.5 162.304,300.362 162.069,300.145 161.817,299.878 161.568,299.591 161.154,299.08 
		160.98,298.857 159.131,306.684 164.635,300.851 	"/>
	
		<line fill="none" stroke="#000000" stroke-width="0.5154" stroke-miterlimit="3.25" x1="165.665" y1="271.493" x2="162.532" y2="277.132"/>
	<polyline fill-rule="evenodd" clip-rule="evenodd" points="164.285,277.432 164.072,277.421 163.572,277.378 163.28,277.339 
		162.992,277.288 162.734,277.218 162.532,277.132 162.372,277.016 162.181,276.834 161.976,276.614 161.774,276.378 
		161.434,275.956 161.295,275.77 159.725,282.188 164.285,277.432 	"/>
	
		<line fill="none" stroke="#000000" stroke-width="0.5154" stroke-miterlimit="3.25" x1="165.072" y1="249.377" x2="162.566" y2="253.763"/>
	<polyline fill-rule="evenodd" clip-rule="evenodd" points="163.935,254.014 163.77,254.003 163.378,253.966 163.148,253.932 
		162.922,253.888 162.723,253.832 162.566,253.763 162.441,253.67 162.293,253.527 162.133,253.351 161.976,253.164 
		161.718,252.831 161.608,252.685 160.319,257.694 163.935,254.014 	"/>
	
		<line fill="none" stroke="#000000" stroke-width="0.5154" stroke-miterlimit="3.25" x1="164.478" y1="227.259" x2="162.597" y2="230.393"/>
	<polyline fill-rule="evenodd" clip-rule="evenodd" points="163.584,230.596 163.463,230.585 163.183,230.552 163.018,230.523 
		162.854,230.488 162.711,230.444 162.597,230.393 162.509,230.324 162.404,230.219 162.293,230.09 162.181,229.951 
		161.998,229.705 161.922,229.598 160.911,233.2 163.584,230.596 	"/>
	
		<line fill="none" stroke="#000000" stroke-width="0.5154" stroke-miterlimit="3.25" x1="163.883" y1="205.143" x2="162.631" y2="207.023"/>
	<polyline fill-rule="evenodd" clip-rule="evenodd" points="163.232,207.176 163.158,207.168 162.986,207.14 162.885,207.115 
		162.786,207.091 162.698,207.058 162.631,207.023 162.577,206.979 162.516,206.908 162.45,206.825 162.385,206.737 162.28,206.581 
		162.237,206.514 161.507,208.708 163.232,207.176 	"/>
	
		<line fill="none" stroke="#000000" stroke-width="0.5154" stroke-miterlimit="3.25" x1="163.29" y1="183.026" x2="162.664" y2="183.653"/>
	<polyline fill-rule="evenodd" clip-rule="evenodd" points="162.883,183.759 162.855,183.749 162.79,183.724 162.753,183.708 
		162.717,183.691 162.686,183.672 162.664,183.653 162.647,183.631 162.628,183.601 162.608,183.564 162.591,183.525 
		162.562,183.457 162.55,183.426 162.1,184.214 162.883,183.759 	"/>
	
		<line fill="none" stroke="#000000" stroke-width="0.5154" stroke-miterlimit="3.25" x1="162.695" y1="160.91" x2="162.695" y2="160.283"/>
	<polyline fill-rule="evenodd" clip-rule="evenodd" points="162.531,160.339 162.55,160.331 162.596,160.311 162.621,160.3 
		162.649,160.292 162.674,160.286 162.695,160.283 162.715,160.286 162.738,160.292 162.768,160.3 162.795,160.311 162.844,160.331 
		162.865,160.339 162.695,159.721 162.531,160.339 	"/>
	
		<line fill="none" stroke="#000000" stroke-width="0.5154" stroke-miterlimit="3.25" x1="162.1" y1="138.793" x2="162.728" y2="136.914"/>
	<polyline fill-rule="evenodd" clip-rule="evenodd" points="162.181,136.922 162.245,136.914 162.399,136.899 162.491,136.893 
		162.581,136.893 162.661,136.899 162.728,136.914 162.781,136.939 162.851,136.982 162.926,137.038 163,137.099 163.127,137.207 
		163.178,137.254 163.29,135.228 162.181,136.922 	"/>
	
		<line fill="none" stroke="#000000" stroke-width="0.5154" stroke-miterlimit="3.25" x1="161.507" y1="116.675" x2="162.759" y2="113.543"/>
	<polyline fill-rule="evenodd" clip-rule="evenodd" points="161.83,113.503 161.941,113.494 162.205,113.484 162.358,113.485 
		162.511,113.494 162.649,113.513 162.759,113.543 162.852,113.593 162.962,113.675 163.083,113.775 163.204,113.885 
		163.406,114.081 163.493,114.168 163.883,110.734 161.83,113.503 	"/>
	
		<line fill="none" stroke="#000000" stroke-width="0.5154" stroke-miterlimit="3.25" x1="160.911" y1="94.561" x2="162.793" y2="90.173"/>
	<polyline fill-rule="evenodd" clip-rule="evenodd" points="161.48,90.084 161.639,90.078 162.008,90.071 162.227,90.078 
		162.443,90.095 162.639,90.125 162.793,90.173 162.919,90.247 163.074,90.366 163.24,90.513 163.409,90.671 163.69,90.957 
		163.807,91.082 164.478,86.241 161.48,90.084 	"/>
	
		<line fill="none" stroke="#000000" stroke-width="0.5154" stroke-miterlimit="3.25" x1="160.319" y1="72.444" x2="162.825" y2="66.805"/>
	<polyline fill-rule="evenodd" clip-rule="evenodd" points="161.13,66.667 161.333,66.659 161.812,66.658 162.096,66.67 
		162.375,66.697 162.625,66.74 162.825,66.805 162.988,66.9 163.186,67.056 163.4,67.25 163.614,67.459 163.97,67.831 
		164.121,67.996 165.072,61.749 161.13,66.667 	"/>
	
		<line fill="none" stroke="#000000" stroke-width="0.5154" stroke-miterlimit="3.25" x1="159.725" y1="50.327" x2="162.856" y2="43.434"/>
	<polyline fill-rule="evenodd" clip-rule="evenodd" points="160.779,43.248 161.027,43.242 161.618,43.245 161.965,43.263 
		162.306,43.297 162.612,43.353 162.856,43.434 163.057,43.554 163.296,43.747 163.558,43.987 163.818,44.245 164.251,44.707 
		164.435,44.911 165.665,37.255 160.779,43.248 	"/>
	
		<line fill="none" stroke="#000000" stroke-width="0.5154" stroke-miterlimit="3.25" x1="159.131" y1="28.21" x2="162.889" y2="20.064"/>
	<polyline fill-rule="evenodd" clip-rule="evenodd" points="160.43,19.83 160.725,19.824 161.423,19.832 161.832,19.855 
		162.237,19.898 162.601,19.966 162.889,20.064 163.125,20.208 163.409,20.439 163.717,20.723 164.022,21.034 164.534,21.582 
		164.749,21.823 166.26,12.761 160.43,19.83 	"/>
	
		<line fill="none" stroke="#000000" stroke-width="0.5154" stroke-miterlimit="3.25" x1="190.161" y1="338.436" x2="185.773" y2="347.208"/>
	<polyline fill-rule="evenodd" clip-rule="evenodd" points="188.453,347.55 188.13,347.545 187.369,347.514 186.922,347.474 
		186.479,347.413 186.085,347.325 185.773,347.208 185.521,347.044 185.219,346.781 184.893,346.458 184.568,346.113 
		184.027,345.495 183.803,345.224 181.839,355.075 188.453,347.55 	"/>
	
		<line fill="none" stroke="#000000" stroke-width="0.5154" stroke-miterlimit="3.25" x1="189.565" y1="316.321" x2="185.806" y2="323.84"/>
	<polyline fill-rule="evenodd" clip-rule="evenodd" points="188.103,324.129 187.825,324.128 187.174,324.099 186.79,324.066 
		186.41,324.016 186.071,323.939 185.806,323.84 185.591,323.697 185.329,323.474 185.052,323.197 184.774,322.899 184.311,322.37 
		184.115,322.138 182.435,330.58 188.103,324.129 	"/>
	
		<line fill="none" stroke="#000000" stroke-width="0.5154" stroke-miterlimit="3.25" x1="188.971" y1="294.203" x2="185.838" y2="300.47"/>
	<polyline fill-rule="evenodd" clip-rule="evenodd" points="187.751,300.712 187.522,300.711 186.978,300.687 186.657,300.656 
		186.343,300.614 186.061,300.553 185.838,300.47 185.657,300.352 185.442,300.164 185.209,299.933 184.978,299.686 
		184.591,299.243 184.429,299.051 183.029,306.088 187.751,300.712 	"/>
	
		<line fill="none" stroke="#000000" stroke-width="0.5154" stroke-miterlimit="3.25" x1="188.378" y1="272.087" x2="185.871" y2="277.098"/>
	<polyline fill-rule="evenodd" clip-rule="evenodd" points="187.402,277.294 187.218,277.294 186.782,277.272 186.528,277.251 
		186.274,277.216 186.049,277.165 185.871,277.098 185.726,277.004 185.553,276.855 185.367,276.672 185.181,276.473 
		184.874,276.119 184.744,275.965 183.624,281.593 187.402,277.294 	"/>
	
		<line fill="none" stroke="#000000" stroke-width="0.5154" stroke-miterlimit="3.25" x1="187.78" y1="249.971" x2="185.902" y2="253.728"/>
	<polyline fill-rule="evenodd" clip-rule="evenodd" points="187.051,253.876 186.914,253.875 186.586,253.859 186.395,253.843 
		186.207,253.817 186.036,253.779 185.902,253.728 185.795,253.66 185.665,253.548 185.525,253.408 185.386,253.26 185.154,252.994 
		185.057,252.879 184.218,257.102 187.051,253.876 	"/>
	
		<line fill="none" stroke="#000000" stroke-width="0.5154" stroke-miterlimit="3.25" x1="187.188" y1="227.854" x2="185.935" y2="230.361"/>
	<polyline fill-rule="evenodd" clip-rule="evenodd" points="186.7,230.456 186.608,230.454 186.393,230.446 186.262,230.436 
		186.137,230.419 186.024,230.395 185.935,230.361 185.863,230.313 185.776,230.236 185.683,230.146 185.591,230.048 
		185.437,229.87 185.372,229.792 184.812,232.608 186.7,230.456 	"/>
	
		<line fill="none" stroke="#000000" stroke-width="0.5154" stroke-miterlimit="3.25" x1="186.595" y1="205.737" x2="185.968" y2="206.99"/>
	<polyline fill-rule="evenodd" clip-rule="evenodd" points="186.351,207.04 186.305,207.039 186.195,207.034 186.132,207.027 
		186.069,207.02 186.011,207.006 185.968,206.99 185.931,206.967 185.89,206.929 185.843,206.883 185.795,206.833 185.719,206.745 
		185.685,206.705 185.405,208.113 186.351,207.04 	"/>
	
		<line fill="none" stroke="#000000" stroke-width="0.5154" stroke-miterlimit="3.25" x1="185.405" y1="161.503" x2="186.032" y2="160.251"/>
	<polyline fill-rule="evenodd" clip-rule="evenodd" points="185.649,160.202 185.695,160.203 185.803,160.207 185.868,160.213 
		185.93,160.221 185.986,160.233 186.032,160.251 186.069,160.273 186.11,160.312 186.156,160.357 186.204,160.408 186.281,160.496 
		186.315,160.535 186.595,159.127 185.649,160.202 	"/>
	
		<line fill="none" stroke="#000000" stroke-width="0.5154" stroke-miterlimit="3.25" x1="184.812" y1="139.387" x2="186.065" y2="136.881"/>
	<polyline fill-rule="evenodd" clip-rule="evenodd" points="185.3,136.783 185.392,136.785 185.609,136.794 185.735,136.805 
		185.863,136.822 185.976,136.849 186.065,136.881 186.137,136.928 186.224,137.004 186.317,137.095 186.409,137.194 
		186.563,137.37 186.628,137.449 187.188,134.633 185.3,136.783 	"/>
	
		<line fill="none" stroke="#000000" stroke-width="0.5154" stroke-miterlimit="3.25" x1="184.218" y1="117.271" x2="186.097" y2="113.512"/>
	<polyline fill-rule="evenodd" clip-rule="evenodd" points="184.949,113.365 185.086,113.367 185.414,113.381 185.604,113.398 
		185.794,113.424 185.966,113.461 186.097,113.512 186.206,113.581 186.334,113.694 186.475,113.833 186.614,113.981 
		186.846,114.247 186.942,114.362 187.78,110.141 184.949,113.365 	"/>
	
		<line fill="none" stroke="#000000" stroke-width="0.5154" stroke-miterlimit="3.25" x1="183.624" y1="95.154" x2="186.129" y2="90.142"/>
	<polyline fill-rule="evenodd" clip-rule="evenodd" points="184.599,89.947 184.782,89.948 185.219,89.969 185.472,89.991 
		185.726,90.024 185.951,90.075 186.129,90.142 186.274,90.235 186.446,90.385 186.632,90.57 186.819,90.768 187.126,91.121 
		187.255,91.276 188.378,85.647 184.599,89.947 	"/>
	
		<line fill="none" stroke="#000000" stroke-width="0.5154" stroke-miterlimit="3.25" x1="183.029" y1="73.037" x2="186.161" y2="66.772"/>
	<polyline fill-rule="evenodd" clip-rule="evenodd" points="184.247,66.529 184.478,66.53 185.022,66.555 185.343,66.583 
		185.656,66.626 185.939,66.688 186.161,66.772 186.341,66.889 186.556,67.077 186.792,67.307 187.022,67.555 187.409,67.996 
		187.569,68.191 188.971,61.153 184.247,66.529 	"/>
	
		<line fill="none" stroke="#000000" stroke-width="0.5154" stroke-miterlimit="3.25" x1="182.435" y1="50.921" x2="186.194" y2="43.401"/>
	<polyline fill-rule="evenodd" clip-rule="evenodd" points="183.897,43.11 184.173,43.112 184.825,43.14 185.21,43.174 
		185.587,43.227 185.927,43.3 186.194,43.401 186.41,43.543 186.671,43.769 186.95,44.044 187.228,44.341 187.691,44.871 
		187.884,45.104 189.565,36.66 183.897,43.11 	"/>
	
		<line fill="none" stroke="#000000" stroke-width="0.5154" stroke-miterlimit="3.25" x1="181.839" y1="28.805" x2="186.227" y2="20.033"/>
	<polyline fill-rule="evenodd" clip-rule="evenodd" points="183.547,19.69 183.869,19.695 184.631,19.727 185.078,19.768 
		185.52,19.828 185.915,19.916 186.227,20.033 186.479,20.197 186.781,20.458 187.107,20.782 187.431,21.129 187.971,21.746 
		188.198,22.019 190.161,12.167 183.547,19.69 	"/>
	
		<line fill="none" stroke="#000000" stroke-width="0.5154" stroke-miterlimit="3.25" x1="212.869" y1="339.03" x2="209.11" y2="347.177"/>
	<polyline fill-rule="evenodd" clip-rule="evenodd" points="211.572,347.41 211.275,347.417 210.577,347.409 210.168,347.388 
		209.765,347.344 209.398,347.273 209.11,347.177 208.876,347.033 208.591,346.802 208.284,346.517 207.978,346.209 207.466,345.66 
		207.253,345.416 205.739,354.48 211.572,347.41 	"/>
	
		<line fill="none" stroke="#000000" stroke-width="0.5154" stroke-miterlimit="3.25" x1="212.275" y1="316.916" x2="209.145" y2="323.806"/>
	<polyline fill-rule="evenodd" clip-rule="evenodd" points="211.221,323.991 210.971,323.998 210.381,323.994 210.034,323.979 
		209.694,323.943 209.387,323.888 209.145,323.806 208.943,323.688 208.702,323.494 208.444,323.254 208.181,322.997 
		207.749,322.533 207.565,322.329 206.335,329.986 211.221,323.991 	"/>
	
		<line fill="none" stroke="#000000" stroke-width="0.5154" stroke-miterlimit="3.25" x1="211.681" y1="294.798" x2="209.175" y2="300.437"/>
	<polyline fill-rule="evenodd" clip-rule="evenodd" points="210.869,300.574 210.67,300.581 210.188,300.582 209.905,300.57 
		209.625,300.544 209.375,300.5 209.175,300.437 209.012,300.341 208.814,300.184 208.602,299.991 208.387,299.78 208.03,299.41 
		207.879,299.243 206.928,305.493 210.869,300.574 	"/>
	
		<line fill="none" stroke="#000000" stroke-width="0.5154" stroke-miterlimit="3.25" x1="211.089" y1="272.679" x2="209.207" y2="277.066"/>
	<polyline fill-rule="evenodd" clip-rule="evenodd" points="210.52,277.155 210.361,277.164 209.992,277.169 209.773,277.162 
		209.557,277.146 209.364,277.115 209.207,277.066 209.081,276.994 208.928,276.875 208.759,276.729 208.591,276.569 
		208.31,276.284 208.193,276.158 207.522,280.999 210.52,277.155 	"/>
	
		<line fill="none" stroke="#000000" stroke-width="0.5154" stroke-miterlimit="3.25" x1="210.493" y1="250.565" x2="209.24" y2="253.698"/>
	<polyline fill-rule="evenodd" clip-rule="evenodd" points="210.168,253.738 210.058,253.747 209.798,253.756 209.642,253.755 
		209.489,253.748 209.351,253.727 209.24,253.698 209.149,253.647 209.037,253.566 208.916,253.465 208.797,253.354 
		208.592,253.159 208.508,253.072 208.118,256.508 210.168,253.738 	"/>
	
		<line fill="none" stroke="#000000" stroke-width="0.5154" stroke-miterlimit="3.25" x1="209.898" y1="228.448" x2="209.272" y2="230.326"/>
	<polyline fill-rule="evenodd" clip-rule="evenodd" points="209.818,230.32 209.753,230.326 209.601,230.343 209.512,230.347 
		209.419,230.347 209.339,230.342 209.272,230.326 209.219,230.301 209.151,230.259 209.074,230.202 209.001,230.143 
		208.875,230.034 208.822,229.986 208.711,232.013 209.818,230.32 	"/>
	
		<line fill="none" stroke="#000000" stroke-width="0.5154" stroke-miterlimit="3.25" x1="209.306" y1="206.332" x2="209.306" y2="206.957"/>
	<polyline fill-rule="evenodd" clip-rule="evenodd" points="209.469,206.9 209.45,206.908 209.404,206.931 209.379,206.94 
		209.351,206.949 209.326,206.956 209.306,206.957 209.285,206.956 209.262,206.949 209.232,206.94 209.203,206.931 
		209.156,206.908 209.135,206.9 209.306,207.52 209.469,206.9 	"/>
	
		<line fill="none" stroke="#000000" stroke-width="0.5154" stroke-miterlimit="3.25" x1="208.711" y1="184.214" x2="209.336" y2="183.588"/>
	<polyline fill-rule="evenodd" clip-rule="evenodd" points="209.117,183.482 209.146,183.492 209.21,183.517 209.245,183.533 
		209.281,183.55 209.314,183.569 209.336,183.588 209.352,183.61 209.373,183.64 209.392,183.676 209.409,183.716 209.438,183.784 
		209.45,183.815 209.898,183.026 209.117,183.482 	"/>
	
		<line fill="none" stroke="#000000" stroke-width="0.5154" stroke-miterlimit="3.25" x1="208.118" y1="162.098" x2="209.369" y2="160.217"/>
	<polyline fill-rule="evenodd" clip-rule="evenodd" points="208.768,160.065 208.842,160.073 209.014,160.103 209.115,160.125 
		209.216,160.151 209.303,160.183 209.369,160.217 209.423,160.263 209.484,160.331 209.551,160.416 209.615,160.504 
		209.719,160.66 209.765,160.729 210.493,158.532 208.768,160.065 	"/>
	
		<line fill="none" stroke="#000000" stroke-width="0.5154" stroke-miterlimit="3.25" x1="207.522" y1="139.981" x2="209.402" y2="136.849"/>
	<polyline fill-rule="evenodd" clip-rule="evenodd" points="208.417,136.645 208.535,136.656 208.818,136.689 208.982,136.718 
		209.147,136.753 209.29,136.796 209.402,136.849 209.491,136.917 209.597,137.022 209.707,137.152 209.818,137.29 210.001,137.536 
		210.078,137.643 211.089,134.04 208.417,136.645 	"/>
	
		<line fill="none" stroke="#000000" stroke-width="0.5154" stroke-miterlimit="3.25" x1="206.928" y1="117.864" x2="209.434" y2="113.479"/>
	<polyline fill-rule="evenodd" clip-rule="evenodd" points="208.065,113.227 208.231,113.238 208.622,113.276 208.852,113.309 
		209.077,113.354 209.277,113.409 209.434,113.479 209.56,113.571 209.707,113.714 209.868,113.891 210.024,114.077 
		210.283,114.412 210.394,114.557 211.681,109.546 208.065,113.227 	"/>
	
		<line fill="none" stroke="#000000" stroke-width="0.5154" stroke-miterlimit="3.25" x1="206.335" y1="95.748" x2="209.469" y2="90.109"/>
	<polyline fill-rule="evenodd" clip-rule="evenodd" points="207.713,89.809 207.928,89.819 208.426,89.864 208.72,89.902 
		209.009,89.954 209.266,90.024 209.469,90.109 209.629,90.225 209.818,90.406 210.024,90.626 210.229,90.864 210.565,91.284 
		210.704,91.471 212.275,85.052 207.713,89.809 	"/>
	
		<line fill="none" stroke="#000000" stroke-width="0.5154" stroke-miterlimit="3.25" x1="205.739" y1="73.63" x2="209.499" y2="66.74"/>
	<polyline fill-rule="evenodd" clip-rule="evenodd" points="207.365,66.39 207.625,66.401 208.231,66.45 208.588,66.494 
		208.939,66.557 209.256,66.637 209.499,66.74 209.695,66.878 209.93,67.096 210.183,67.364 210.432,67.65 210.847,68.16 
		211.02,68.384 212.869,60.56 207.365,66.39 	"/>
	
		<line fill="none" stroke="#000000" stroke-width="0.5154" stroke-miterlimit="3.25" x1="205.146" y1="51.515" x2="209.53" y2="43.371"/>
	<polyline fill-rule="evenodd" clip-rule="evenodd" points="207.013,42.972 207.32,42.984 208.035,43.038 208.457,43.086 
		208.871,43.157 209.24,43.249 209.53,43.371 209.767,43.531 210.042,43.787 210.341,44.102 210.635,44.438 211.129,45.035 
		211.334,45.297 213.464,36.067 207.013,42.972 	"/>
	
		<line fill="none" stroke="#000000" stroke-width="0.5154" stroke-miterlimit="3.25" x1="204.552" y1="29.398" x2="209.563" y2="20"/>
	<polyline fill-rule="evenodd" clip-rule="evenodd" points="206.663,19.554 207.013,19.566 207.838,19.623 208.325,19.68 
		208.802,19.757 209.229,19.863 209.563,20 209.834,20.185 210.153,20.479 210.499,20.838 210.841,21.224 211.411,21.911 
		211.647,22.211 214.058,11.572 206.663,19.554 	"/>
	
		<line fill="none" stroke="#000000" stroke-width="0.5154" stroke-miterlimit="3.25" x1="235.581" y1="339.626" x2="232.449" y2="347.144"/>
	<polyline fill-rule="evenodd" clip-rule="evenodd" points="234.688,347.272 234.423,347.289 233.788,347.307 233.415,347.298 
		233.046,347.272 232.713,347.224 232.449,347.144 232.229,347.021 231.963,346.822 231.676,346.572 231.386,346.305 
		230.904,345.824 230.7,345.611 229.638,353.885 234.688,347.272 	"/>
	
		<line fill="none" stroke="#000000" stroke-width="0.5154" stroke-miterlimit="3.25" x1="234.988" y1="317.507" x2="232.48" y2="323.772"/>
	<polyline fill-rule="evenodd" clip-rule="evenodd" points="234.338,323.854 234.117,323.871 233.592,323.89 233.285,323.89 
		232.976,323.874 232.701,323.836 232.48,323.772 232.297,323.676 232.075,323.513 231.834,323.311 231.591,323.091 
		231.188,322.699 231.016,322.525 230.233,329.392 234.338,323.854 	"/>
	
		<line fill="none" stroke="#000000" stroke-width="0.5154" stroke-miterlimit="3.25" x1="234.392" y1="295.392" x2="232.513" y2="300.404"/>
	<polyline fill-rule="evenodd" clip-rule="evenodd" points="233.987,300.437 233.812,300.452 233.397,300.479 233.15,300.482 
		232.908,300.475 232.689,300.45 232.513,300.404 232.367,300.328 232.186,300.204 231.992,300.049 231.797,299.879 
		231.467,299.575 231.329,299.44 230.828,304.898 233.987,300.437 	"/>
	
		<line fill="none" stroke="#000000" stroke-width="0.5154" stroke-miterlimit="3.25" x1="233.799" y1="273.275" x2="232.545" y2="277.036"/>
	<polyline fill-rule="evenodd" clip-rule="evenodd" points="233.636,277.017 233.508,277.036 233.2,277.064 233.019,277.076 
		232.839,277.077 232.675,277.064 232.545,277.036 232.434,276.983 232.299,276.896 232.151,276.787 232,276.664 231.748,276.448 
		231.643,276.353 231.421,280.404 233.636,277.017 	"/>
	
		<line fill="none" stroke="#000000" stroke-width="0.5154" stroke-miterlimit="3.25" x1="233.204" y1="251.159" x2="232.578" y2="253.665"/>
	<polyline fill-rule="evenodd" clip-rule="evenodd" points="233.287,253.601 233.202,253.616 233.005,253.651 232.889,253.668 
		232.771,253.677 232.665,253.677 232.578,253.665 232.503,253.639 232.409,253.589 232.309,253.522 232.205,253.452 
		232.029,253.324 231.957,253.268 232.017,255.912 233.287,253.601 	"/>
	
		<line fill="none" stroke="#000000" stroke-width="0.5154" stroke-miterlimit="3.25" x1="232.608" y1="229.042" x2="232.608" y2="230.296"/>
	<polyline fill-rule="evenodd" clip-rule="evenodd" points="232.936,230.181 232.897,230.198 232.811,230.238 232.757,230.26 
		232.703,230.276 232.652,230.292 232.608,230.296 232.571,230.292 232.521,230.276 232.467,230.26 232.409,230.238 
		232.313,230.198 232.271,230.181 232.608,231.419 232.936,230.181 	"/>
	
		<line fill="none" stroke="#000000" stroke-width="0.5154" stroke-miterlimit="3.25" x1="232.017" y1="206.927" x2="232.643" y2="206.927"/>
	<polyline fill-rule="evenodd" clip-rule="evenodd" points="232.586,206.765 232.596,206.78 232.613,206.825 232.623,206.853 
		232.634,206.88 232.641,206.903 232.643,206.927 232.641,206.945 232.634,206.969 232.623,206.996 232.613,207.026 
		232.596,207.073 232.586,207.097 233.204,206.927 232.586,206.765 	"/>
	
		<line fill="none" stroke="#000000" stroke-width="0.5154" stroke-miterlimit="3.25" x1="231.421" y1="184.81" x2="232.674" y2="183.555"/>
	<polyline fill-rule="evenodd" clip-rule="evenodd" points="232.234,183.345 232.289,183.363 232.419,183.412 232.493,183.444 
		232.565,183.48 232.628,183.517 232.674,183.555 232.708,183.598 232.747,183.661 232.782,183.735 232.819,183.812 
		232.874,183.949 232.898,184.009 233.799,182.431 232.234,183.345 	"/>
	
		<line fill="none" stroke="#000000" stroke-width="0.5154" stroke-miterlimit="3.25" x1="230.828" y1="162.692" x2="232.706" y2="160.186"/>
	<polyline fill-rule="evenodd" clip-rule="evenodd" points="231.884,159.925 231.986,159.944 232.223,160 232.363,160.037 
		232.497,160.081 232.615,160.131 232.706,160.186 232.777,160.252 232.858,160.352 232.94,160.472 233.024,160.599 
		233.157,160.824 233.213,160.922 234.392,157.939 231.884,159.925 	"/>
	
		<line fill="none" stroke="#000000" stroke-width="0.5154" stroke-miterlimit="3.25" x1="230.233" y1="140.576" x2="232.741" y2="136.816"/>
	<polyline fill-rule="evenodd" clip-rule="evenodd" points="231.532,136.507 231.682,136.527 232.027,136.585 232.229,136.629 
		232.429,136.683 232.604,136.745 232.741,136.816 232.845,136.905 232.969,137.042 233.1,137.209 233.229,137.386 233.439,137.699 
		233.526,137.836 234.988,133.446 231.532,136.507 	"/>
	
		<line fill="none" stroke="#000000" stroke-width="0.5154" stroke-miterlimit="3.25" x1="229.638" y1="118.458" x2="232.772" y2="113.446"/>
	<polyline fill-rule="evenodd" clip-rule="evenodd" points="231.184,113.09 231.376,113.109 231.831,113.172 232.099,113.221 
		232.358,113.283 232.593,113.359 232.772,113.446 232.914,113.56 233.079,113.734 233.257,113.946 233.432,114.173 
		233.722,114.574 233.842,114.75 235.581,108.952 231.184,113.09 	"/>
	
		<line fill="none" stroke="#000000" stroke-width="0.5154" stroke-miterlimit="3.25" x1="229.046" y1="96.342" x2="232.803" y2="90.078"/>
	<polyline fill-rule="evenodd" clip-rule="evenodd" points="230.832,89.671 231.072,89.691 231.635,89.759 231.966,89.814 
		232.289,89.885 232.579,89.972 232.803,90.078 232.98,90.213 233.191,90.426 233.416,90.684 233.636,90.959 234.003,91.45 
		234.155,91.664 236.174,84.459 230.832,89.671 	"/>
	
		<line fill="none" stroke="#000000" stroke-width="0.5154" stroke-miterlimit="3.25" x1="228.449" y1="74.226" x2="232.837" y2="66.707"/>
	<polyline fill-rule="evenodd" clip-rule="evenodd" points="230.481,66.251 230.768,66.273 231.44,66.346 231.835,66.406 
		232.222,66.486 232.567,66.585 232.837,66.707 233.05,66.868 233.304,67.118 233.575,67.421 233.842,67.747 234.283,68.326 
		234.469,68.579 236.77,59.966 230.481,66.251 	"/>
	
		<line fill="none" stroke="#000000" stroke-width="0.5154" stroke-miterlimit="3.25" x1="227.855" y1="52.109" x2="232.868" y2="43.337"/>
	<polyline fill-rule="evenodd" clip-rule="evenodd" points="230.132,42.833 230.463,42.856 231.244,42.934 231.702,42.999 
		232.153,43.086 232.555,43.2 232.868,43.337 233.118,43.521 233.415,43.808 233.732,44.159 234.047,44.534 234.567,45.2 
		234.783,45.492 237.364,35.471 230.132,42.833 	"/>
	
		<line fill="none" stroke="#000000" stroke-width="0.5154" stroke-miterlimit="3.25" x1="227.262" y1="29.992" x2="232.9" y2="19.968"/>
	<polyline fill-rule="evenodd" clip-rule="evenodd" points="229.781,19.415 230.159,19.438 231.049,19.52 231.572,19.592 
		232.085,19.687 232.543,19.812 232.9,19.968 233.188,20.175 233.526,20.499 233.891,20.895 234.25,21.319 234.848,22.075 
		235.098,22.406 237.958,10.979 229.781,19.415 	"/>
	
		<line fill="none" stroke="#000000" stroke-width="0.5154" stroke-miterlimit="3.25" x1="258.292" y1="340.22" x2="255.786" y2="347.11"/>
	<polyline fill-rule="evenodd" clip-rule="evenodd" points="257.806,347.136 257.565,347.161 256.998,347.201 256.66,347.211 
		256.327,347.203 256.026,347.173 255.786,347.11 255.582,347.012 255.338,346.842 255.068,346.628 254.794,346.4 254.342,345.987 
		254.151,345.804 253.54,353.292 257.806,347.136 	"/>
	
		<line fill="none" stroke="#000000" stroke-width="0.5154" stroke-miterlimit="3.25" x1="257.697" y1="318.104" x2="255.817" y2="323.742"/>
	<polyline fill-rule="evenodd" clip-rule="evenodd" points="257.455,323.716 257.263,323.742 256.803,323.788 256.529,323.804 
		256.261,323.804 256.014,323.785 255.817,323.742 255.653,323.664 255.447,323.534 255.224,323.368 255,323.187 254.624,322.862 
		254.466,322.719 254.133,328.798 257.455,323.716 	"/>
	
		<line fill="none" stroke="#000000" stroke-width="0.5154" stroke-miterlimit="3.25" x1="257.104" y1="295.986" x2="255.849" y2="300.372"/>
	<polyline fill-rule="evenodd" clip-rule="evenodd" points="257.104,300.3 256.956,300.324 256.604,300.375 256.398,300.396 
		256.191,300.404 256.003,300.397 255.849,300.372 255.72,300.318 255.559,300.223 255.383,300.104 255.206,299.977 
		254.904,299.738 254.779,299.633 254.727,304.306 257.104,300.3 	"/>
	
		<line fill="none" stroke="#000000" stroke-width="0.5154" stroke-miterlimit="3.25" x1="256.51" y1="273.868" x2="255.881" y2="277.002"/>
	<polyline fill-rule="evenodd" clip-rule="evenodd" points="256.753,276.879 256.653,276.906 256.411,276.961 256.266,276.987 
		256.121,277.006 255.991,277.012 255.881,277.002 255.79,276.972 255.671,276.916 255.542,276.842 255.41,276.76 255.186,276.614 
		255.092,276.548 255.321,279.812 256.753,276.879 	"/>
	
		<line fill="none" stroke="#000000" stroke-width="0.5154" stroke-miterlimit="3.25" x1="255.915" y1="251.753" x2="255.915" y2="253.632"/>
	<polyline fill-rule="evenodd" clip-rule="evenodd" points="256.404,253.462 256.349,253.49 256.215,253.549 256.135,253.578 
		256.053,253.606 255.979,253.626 255.915,253.632 255.859,253.626 255.785,253.606 255.699,253.578 255.615,253.549 255.47,253.49 
		255.407,253.462 255.915,255.318 256.404,253.462 	"/>
	
		<line fill="none" stroke="#000000" stroke-width="0.5154" stroke-miterlimit="3.25" x1="255.321" y1="229.637" x2="255.946" y2="230.264"/>
	<polyline fill-rule="evenodd" clip-rule="evenodd" points="256.053,230.044 256.045,230.07 256.021,230.134 256.003,230.173 
		255.984,230.208 255.968,230.239 255.946,230.264 255.927,230.279 255.895,230.299 255.859,230.316 255.817,230.334 
		255.752,230.364 255.72,230.375 256.51,230.825 256.053,230.044 	"/>
	
		<line fill="none" stroke="#000000" stroke-width="0.5154" stroke-miterlimit="3.25" x1="254.727" y1="207.52" x2="255.979" y2="206.893"/>
	<polyline fill-rule="evenodd" clip-rule="evenodd" points="255.703,206.626 255.739,206.654 255.824,206.722 255.871,206.765 
		255.917,206.809 255.954,206.853 255.979,206.893 255.995,206.933 256.007,206.99 256.018,207.054 256.024,207.12 256.03,207.239 
		256.035,207.289 257.104,206.332 255.703,206.626 	"/>
	
		<line fill="none" stroke="#000000" stroke-width="0.5154" stroke-miterlimit="3.25" x1="254.133" y1="185.402" x2="256.013" y2="183.523"/>
	<polyline fill-rule="evenodd" clip-rule="evenodd" points="255.354,183.205 255.436,183.235 255.627,183.309 255.739,183.356 
		255.847,183.41 255.942,183.467 256.013,183.523 256.062,183.587 256.117,183.68 256.174,183.791 256.228,183.909 256.314,184.112 
		256.351,184.204 257.697,181.839 255.354,183.205 	"/>
	
		<line fill="none" stroke="#000000" stroke-width="0.5154" stroke-miterlimit="3.25" x1="253.54" y1="163.287" x2="256.045" y2="160.153"/>
	<polyline fill-rule="evenodd" clip-rule="evenodd" points="255.003,159.788 255.131,159.816 255.431,159.895 255.608,159.95 
		255.778,160.011 255.93,160.08 256.045,160.153 256.132,160.241 256.229,160.372 256.332,160.529 256.432,160.695 256.596,160.989 
		256.662,161.117 258.292,157.344 255.003,159.788 	"/>
	
		<line fill="none" stroke="#000000" stroke-width="0.5154" stroke-miterlimit="3.25" x1="252.944" y1="141.169" x2="256.078" y2="136.783"/>
	<polyline fill-rule="evenodd" clip-rule="evenodd" points="254.651,136.369 254.824,136.398 255.234,136.482 255.476,136.541 
		255.712,136.613 255.919,136.692 256.078,136.783 256.2,136.895 256.343,137.064 256.49,137.267 256.638,137.482 256.877,137.864 
		256.977,138.032 258.888,132.851 254.651,136.369 	"/>
	
		<line fill="none" stroke="#000000" stroke-width="0.5154" stroke-miterlimit="3.25" x1="252.351" y1="119.053" x2="256.107" y2="113.415"/>
	<polyline fill-rule="evenodd" clip-rule="evenodd" points="254.301,112.952 254.522,112.98 255.04,113.067 255.344,113.134 
		255.645,113.214 255.906,113.307 256.107,113.415 256.269,113.549 256.454,113.754 256.647,114.003 256.844,114.269 
		257.158,114.739 257.291,114.945 259.48,108.359 254.301,112.952 	"/>
	
		<line fill="none" stroke="#000000" stroke-width="0.5154" stroke-miterlimit="3.25" x1="251.756" y1="96.936" x2="256.142" y2="90.043"/>
	<polyline fill-rule="evenodd" clip-rule="evenodd" points="253.949,89.533 254.217,89.562 254.847,89.655 255.215,89.727 
		255.573,89.814 255.894,89.919 256.142,90.043 256.337,90.203 256.564,90.445 256.807,90.741 257.047,91.057 257.44,91.613 
		257.604,91.858 260.074,83.866 253.949,89.533 	"/>
	
		<line fill="none" stroke="#000000" stroke-width="0.5154" stroke-miterlimit="3.25" x1="251.162" y1="74.82" x2="256.174" y2="66.674"/>
	<polyline fill-rule="evenodd" clip-rule="evenodd" points="253.6,66.113 253.913,66.145 254.65,66.241 255.081,66.319 
		255.505,66.416 255.881,66.534 256.174,66.674 256.405,66.856 256.676,67.136 256.965,67.478 257.25,67.843 257.723,68.489 
		257.921,68.772 260.667,59.371 253.6,66.113 	"/>
	
		<line fill="none" stroke="#000000" stroke-width="0.5154" stroke-miterlimit="3.25" x1="250.568" y1="52.703" x2="256.206" y2="43.306"/>
	<polyline fill-rule="evenodd" clip-rule="evenodd" points="253.249,42.696 253.607,42.728 254.453,42.829 254.95,42.912 
		255.436,43.017 255.871,43.148 256.206,43.306 256.475,43.509 256.787,43.827 257.125,44.215 257.455,44.629 258.004,45.364 
		258.23,45.687 261.263,34.877 253.249,42.696 	"/>
	
		<line fill="none" stroke="#000000" stroke-width="0.5154" stroke-miterlimit="3.25" x1="249.973" y1="30.587" x2="256.239" y2="19.935"/>
	<polyline fill-rule="evenodd" clip-rule="evenodd" points="252.898,19.277 253.303,19.31 254.258,19.415 254.818,19.504 
		255.368,19.618 255.859,19.761 256.239,19.935 256.542,20.163 256.898,20.52 257.283,20.953 257.66,21.417 258.286,22.24 
		258.546,22.601 261.855,10.385 252.898,19.277 	"/>
	
		<line fill="none" stroke="#000000" stroke-width="0.5154" stroke-miterlimit="3.25" x1="281.002" y1="340.812" x2="279.123" y2="347.079"/>
	<polyline fill-rule="evenodd" clip-rule="evenodd" points="280.923,346.996 280.71,347.033 280.204,347.096 279.908,347.124 
		279.609,347.134 279.34,347.122 279.123,347.079 278.938,346.999 278.711,346.862 278.458,346.689 278.203,346.496 
		277.779,346.152 277.601,346.001 277.438,352.696 280.923,346.996 	"/>
	
		<line fill="none" stroke="#000000" stroke-width="0.5154" stroke-miterlimit="3.25" x1="280.408" y1="318.696" x2="279.154" y2="323.707"/>
	<polyline fill-rule="evenodd" clip-rule="evenodd" points="280.572,323.578 280.406,323.614 280.011,323.685 279.778,323.715 
		279.542,323.734 279.328,323.735 279.154,323.707 279.005,323.652 278.821,323.553 278.618,323.425 278.41,323.284 
		278.062,323.028 277.915,322.912 278.03,328.204 280.572,323.578 	"/>
	
		<line fill="none" stroke="#000000" stroke-width="0.5154" stroke-miterlimit="3.25" x1="279.815" y1="296.58" x2="279.188" y2="300.339"/>
	<polyline fill-rule="evenodd" clip-rule="evenodd" points="280.222,300.161 280.104,300.196 279.815,300.271 279.645,300.308 
		279.473,300.335 279.317,300.35 279.188,300.339 279.075,300.308 278.934,300.244 278.775,300.162 278.615,300.069 
		278.344,299.902 278.228,299.828 278.625,303.711 280.222,300.161 	"/>
	
		<line fill="none" stroke="#000000" stroke-width="0.5154" stroke-miterlimit="3.25" x1="279.219" y1="274.464" x2="279.219" y2="276.971"/>
	<polyline fill-rule="evenodd" clip-rule="evenodd" points="279.87,276.742 279.798,276.776 279.62,276.855 279.513,276.899 
		279.404,276.938 279.305,276.961 279.219,276.971 279.143,276.961 279.043,276.938 278.934,276.899 278.818,276.855 
		278.625,276.776 278.544,276.742 279.219,279.218 279.87,276.742 	"/>
	
		<line fill="none" stroke="#000000" stroke-width="0.5154" stroke-miterlimit="3.25" x1="278.625" y1="252.348" x2="279.253" y2="253.601"/>
	<polyline fill-rule="evenodd" clip-rule="evenodd" points="279.522,253.324 279.493,253.358 279.425,253.445 279.38,253.493 
		279.336,253.537 279.293,253.574 279.253,253.601 279.212,253.615 279.154,253.627 279.092,253.639 279.024,253.645 
		278.905,253.651 278.856,253.655 279.815,254.724 279.522,253.324 	"/>
	
		<line fill="none" stroke="#000000" stroke-width="0.5154" stroke-miterlimit="3.25" x1="278.03" y1="230.229" x2="279.285" y2="230.229"/>
	<polyline fill-rule="evenodd" clip-rule="evenodd" points="279.17,229.904 279.189,229.941 279.227,230.03 279.249,230.084 
		279.269,230.139 279.28,230.188 279.285,230.229 279.28,230.269 279.269,230.318 279.249,230.374 279.227,230.432 279.189,230.528 
		279.17,230.568 280.408,230.229 279.17,229.904 	"/>
	
		<line fill="none" stroke="#000000" stroke-width="0.5154" stroke-miterlimit="3.25" x1="277.438" y1="208.113" x2="279.317" y2="206.86"/>
	<polyline fill-rule="evenodd" clip-rule="evenodd" points="278.819,206.485 278.883,206.523 279.032,206.618 279.117,206.677 
		279.199,206.739 279.269,206.801 279.317,206.86 279.349,206.924 279.38,207.008 279.406,207.11 279.434,207.218 279.471,207.403 
		279.485,207.485 281.002,205.737 278.819,206.485 	"/>
	
		<line fill="none" stroke="#000000" stroke-width="0.5154" stroke-miterlimit="3.25" x1="276.844" y1="185.997" x2="279.352" y2="183.49"/>
	<polyline fill-rule="evenodd" clip-rule="evenodd" points="278.47,183.068 278.579,183.106 278.838,183.204 278.987,183.269 
		279.131,183.34 279.256,183.415 279.352,183.49 279.418,183.576 279.492,183.701 279.566,183.848 279.638,184.005 279.75,184.277 
		279.798,184.397 281.598,181.244 278.47,183.068 	"/>
	
		<line fill="none" stroke="#000000" stroke-width="0.5154" stroke-miterlimit="3.25" x1="276.248" y1="163.881" x2="279.381" y2="160.121"/>
	<polyline fill-rule="evenodd" clip-rule="evenodd" points="278.119,159.65 278.275,159.689 278.642,159.792 278.854,159.862 
		279.062,159.94 279.245,160.028 279.381,160.121 279.485,160.23 279.602,160.392 279.725,160.587 279.842,160.79 280.035,161.153 
		280.113,161.312 282.19,156.75 278.119,159.65 	"/>
	
		<line fill="none" stroke="#000000" stroke-width="0.5154" stroke-miterlimit="3.25" x1="275.654" y1="141.764" x2="279.415" y2="136.751"/>
	<polyline fill-rule="evenodd" clip-rule="evenodd" points="277.768,136.232 277.971,136.27 278.446,136.377 278.724,136.454 
		278.993,136.543 279.231,136.642 279.415,136.751 279.552,136.884 279.715,137.084 279.881,137.323 280.046,137.578 
		280.315,138.028 280.428,138.225 282.786,132.257 277.768,136.232 	"/>
	
		<line fill="none" stroke="#000000" stroke-width="0.5154" stroke-miterlimit="3.25" x1="275.058" y1="119.646" x2="279.446" y2="113.382"/>
	<polyline fill-rule="evenodd" clip-rule="evenodd" points="277.419,112.813 277.665,112.851 278.248,112.964 278.592,113.045 
		278.926,113.144 279.219,113.256 279.446,113.382 279.622,113.537 279.824,113.774 280.04,114.061 280.25,114.366 280.597,114.903 
		280.739,115.14 283.379,107.765 277.419,112.813 	"/>
	
		<line fill="none" stroke="#000000" stroke-width="0.5154" stroke-miterlimit="3.25" x1="274.466" y1="97.53" x2="279.479" y2="90.012"/>
	<polyline fill-rule="evenodd" clip-rule="evenodd" points="277.067,89.394 277.362,89.433 278.056,89.551 278.458,89.64 
		278.854,89.743 279.207,89.869 279.479,90.012 279.69,90.192 279.937,90.465 280.197,90.797 280.455,91.152 280.879,91.779 
		281.055,92.053 283.973,83.271 277.067,89.394 	"/>
	
		<line fill="none" stroke="#000000" stroke-width="0.5154" stroke-miterlimit="3.25" x1="273.873" y1="75.414" x2="279.513" y2="66.643"/>
	<polyline fill-rule="evenodd" clip-rule="evenodd" points="276.717,65.977 277.059,66.017 277.858,66.138 278.327,66.231 
		278.787,66.346 279.197,66.483 279.513,66.643 279.761,66.845 280.05,67.158 280.357,67.535 280.66,67.939 281.161,68.653 
		281.368,68.967 284.568,58.776 276.717,65.977 	"/>
	
		<line fill="none" stroke="#000000" stroke-width="0.5154" stroke-miterlimit="3.25" x1="273.277" y1="53.298" x2="279.543" y2="43.272"/>
	<polyline fill-rule="evenodd" clip-rule="evenodd" points="276.365,42.558 276.754,42.598 277.663,42.724 278.196,42.823 
		278.718,42.947 279.182,43.096 279.543,43.272 279.827,43.499 280.162,43.847 280.516,44.272 280.866,44.726 281.444,45.529 
		281.683,45.88 285.161,34.284 276.365,42.558 	"/>
	
		<line fill="none" stroke="#000000" stroke-width="0.5154" stroke-miterlimit="3.25" x1="272.683" y1="31.181" x2="279.575" y2="19.903"/>
	<polyline fill-rule="evenodd" clip-rule="evenodd" points="276.017,19.14 276.45,19.181 277.469,19.312 278.064,19.415 
		278.649,19.548 279.171,19.709 279.575,19.903 279.896,20.152 280.271,20.539 280.672,21.01 281.068,21.512 281.723,22.404 
		281.998,22.795 285.756,9.79 276.017,19.14 	"/>
	
		<line fill="none" stroke="#000000" stroke-width="0.5154" stroke-miterlimit="3.25" x1="303.713" y1="341.408" x2="302.461" y2="347.045"/>
	<polyline fill-rule="evenodd" clip-rule="evenodd" points="304.04,346.858 303.854,346.903 303.416,346.992 303.154,347.034 
		302.894,347.064 302.654,347.069 302.461,347.045 302.293,346.988 302.082,346.883 301.85,346.744 301.614,346.593 
		301.218,346.316 301.05,346.193 301.338,352.104 304.04,346.858 	"/>
	
		<line fill="none" stroke="#000000" stroke-width="0.5154" stroke-miterlimit="3.25" x1="303.12" y1="319.292" x2="302.492" y2="323.678"/>
	<polyline fill-rule="evenodd" clip-rule="evenodd" points="303.689,323.44 303.552,323.484 303.22,323.578 303.021,323.627 
		302.824,323.662 302.645,323.685 302.492,323.678 302.361,323.644 302.194,323.574 302.008,323.481 301.819,323.378 301.5,323.19 
		301.364,323.106 301.931,327.608 303.689,323.44 	"/>
	
		<line fill="none" stroke="#000000" stroke-width="0.5154" stroke-miterlimit="3.25" x1="302.525" y1="297.176" x2="302.525" y2="300.308"/>
	<polyline fill-rule="evenodd" clip-rule="evenodd" points="303.341,300.022 303.246,300.066 303.023,300.166 302.891,300.219 
		302.756,300.265 302.63,300.296 302.525,300.308 302.43,300.296 302.306,300.265 302.165,300.219 302.023,300.166 301.781,300.066 
		301.678,300.022 302.525,303.117 303.341,300.022 	"/>
	
		<line fill="none" stroke="#000000" stroke-width="0.5154" stroke-miterlimit="3.25" x1="301.931" y1="275.058" x2="302.555" y2="276.938"/>
	<polyline fill-rule="evenodd" clip-rule="evenodd" points="302.989,276.604 302.942,276.648 302.828,276.752 302.761,276.812 
		302.688,276.867 302.619,276.908 302.555,276.938 302.496,276.95 302.418,276.954 302.324,276.956 302.228,276.952 
		302.063,276.942 301.993,276.937 303.12,278.622 302.989,276.604 	"/>
	
		<line fill="none" stroke="#000000" stroke-width="0.5154" stroke-miterlimit="3.25" x1="301.338" y1="252.941" x2="302.591" y2="253.566"/>
	<polyline fill-rule="evenodd" clip-rule="evenodd" points="302.639,253.188 302.637,253.23 302.634,253.341 302.626,253.404 
		302.619,253.466 302.607,253.522 302.591,253.566 302.566,253.603 302.528,253.647 302.482,253.694 302.435,253.74 
		302.344,253.817 302.306,253.848 303.713,254.131 302.639,253.188 	"/>
	
		<line fill="none" stroke="#000000" stroke-width="0.5154" stroke-miterlimit="3.25" x1="300.742" y1="230.825" x2="302.623" y2="230.198"/>
	<polyline fill-rule="evenodd" clip-rule="evenodd" points="302.289,229.767 302.332,229.812 302.438,229.928 302.495,229.998 
		302.55,230.068 302.595,230.135 302.623,230.198 302.635,230.258 302.641,230.339 302.641,230.432 302.637,230.527 
		302.626,230.693 302.62,230.765 304.31,229.637 302.289,229.767 	"/>
	
		<line fill="none" stroke="#000000" stroke-width="0.5154" stroke-miterlimit="3.25" x1="300.149" y1="208.708" x2="302.653" y2="206.828"/>
	<polyline fill-rule="evenodd" clip-rule="evenodd" points="301.938,206.349 302.029,206.395 302.244,206.515 302.365,206.59 
		302.482,206.671 302.582,206.75 302.653,206.828 302.703,206.911 302.752,207.028 302.8,207.169 302.843,207.314 302.91,207.568 
		302.936,207.677 304.901,205.143 301.938,206.349 	"/>
	
		<line fill="none" stroke="#000000" stroke-width="0.5154" stroke-miterlimit="3.25" x1="299.555" y1="186.591" x2="302.688" y2="183.458"/>
	<polyline fill-rule="evenodd" clip-rule="evenodd" points="301.586,182.929 301.724,182.977 302.046,183.1 302.231,183.182 
		302.414,183.27 302.571,183.364 302.688,183.458 302.771,183.565 302.864,183.72 302.957,183.906 303.047,184.102 303.191,184.441 
		303.248,184.592 305.496,180.65 301.586,182.929 	"/>
	
		<line fill="none" stroke="#000000" stroke-width="0.5154" stroke-miterlimit="3.25" x1="298.959" y1="164.474" x2="302.72" y2="160.089"/>
	<polyline fill-rule="evenodd" clip-rule="evenodd" points="301.238,159.512 301.42,159.56 301.851,159.688 302.101,159.774 
		302.344,159.871 302.559,159.977 302.72,160.089 302.84,160.219 302.976,160.412 303.117,160.643 303.25,160.887 303.47,161.318 
		303.563,161.504 306.091,156.156 301.238,159.512 	"/>
	
		<line fill="none" stroke="#000000" stroke-width="0.5154" stroke-miterlimit="3.25" x1="298.367" y1="142.357" x2="302.752" y2="136.719"/>
	<polyline fill-rule="evenodd" clip-rule="evenodd" points="300.887,136.092 301.115,136.142 301.653,136.274 301.971,136.365 
		302.275,136.472 302.546,136.591 302.752,136.719 302.91,136.874 303.088,137.104 303.273,137.38 303.457,137.673 303.753,138.192 
		303.877,138.419 306.685,131.662 300.887,136.092 	"/>
	
		<line fill="none" stroke="#000000" stroke-width="0.5154" stroke-miterlimit="3.25" x1="297.771" y1="120.241" x2="302.785" y2="113.35"/>
	<polyline fill-rule="evenodd" clip-rule="evenodd" points="300.535,112.676 300.812,112.722 301.46,112.861 301.838,112.958 
		302.207,113.073 302.534,113.204 302.785,113.35 302.977,113.527 303.199,113.795 303.432,114.118 303.662,114.461 
		304.036,115.068 304.189,115.333 307.277,107.169 300.535,112.676 	"/>
	
		<line fill="none" stroke="#000000" stroke-width="0.5154" stroke-miterlimit="3.25" x1="297.177" y1="98.125" x2="302.815" y2="89.979"/>
	<polyline fill-rule="evenodd" clip-rule="evenodd" points="300.186,89.256 300.506,89.305 301.265,89.446 301.706,89.551 
		302.141,89.674 302.522,89.818 302.815,89.979 303.046,90.181 303.311,90.485 303.589,90.854 303.865,91.247 304.316,91.944 
		304.504,92.247 307.872,82.676 300.186,89.256 	"/>
	
		<line fill="none" stroke="#000000" stroke-width="0.5154" stroke-miterlimit="3.25" x1="296.583" y1="76.008" x2="302.849" y2="66.61"/>
	<polyline fill-rule="evenodd" clip-rule="evenodd" points="299.833,65.838 300.203,65.887 301.068,66.033 301.574,66.143 
		302.069,66.275 302.51,66.432 302.849,66.61 303.116,66.834 303.422,67.177 303.747,67.593 304.069,68.034 304.598,68.817 
		304.818,69.161 308.466,58.184 299.833,65.838 	"/>
	
		<line fill="none" stroke="#000000" stroke-width="0.5154" stroke-miterlimit="3.25" x1="295.99" y1="53.892" x2="302.88" y2="43.241"/>
	<polyline fill-rule="evenodd" clip-rule="evenodd" points="299.483,42.421 299.898,42.469 300.874,42.621 301.442,42.734 
		302,42.876 302.496,43.044 302.88,43.241 303.182,43.487 303.531,43.868 303.906,44.33 304.274,44.822 304.881,45.693 
		305.132,46.075 309.062,33.689 299.483,42.421 	"/>
	
		<line fill="none" stroke="#000000" stroke-width="0.5154" stroke-miterlimit="3.25" x1="295.396" y1="31.774" x2="302.914" y2="19.871"/>
	<polyline fill-rule="evenodd" clip-rule="evenodd" points="299.133,19.001 299.596,19.051 300.677,19.207 301.311,19.328 
		301.934,19.478 302.485,19.66 302.914,19.871 303.25,20.142 303.644,20.56 304.064,21.066 304.479,21.608 305.161,22.568 
		305.447,22.988 309.654,9.196 299.133,19.001 	"/>
	
		<line fill="none" stroke="#000000" stroke-width="0.5154" stroke-miterlimit="3.25" x1="326.424" y1="342.001" x2="325.798" y2="347.016"/>
	<polyline fill-rule="evenodd" clip-rule="evenodd" points="327.157,346.719 327.001,346.774 326.625,346.888 326.401,346.945 
		326.176,346.992 325.969,347.02 325.798,347.016 325.646,346.979 325.454,346.9 325.24,346.801 325.024,346.689 324.655,346.482 
		324.5,346.388 325.236,351.51 327.157,346.719 	"/>
	
		<line fill="none" stroke="#000000" stroke-width="0.5154" stroke-miterlimit="3.25" x1="325.828" y1="319.886" x2="325.828" y2="323.646"/>
	<polyline fill-rule="evenodd" clip-rule="evenodd" points="326.805,323.302 326.695,323.355 326.428,323.476 326.269,323.54 
		326.105,323.594 325.957,323.631 325.828,323.646 325.715,323.631 325.566,323.594 325.397,323.54 325.229,323.476 
		324.938,323.355 324.812,323.302 325.828,327.016 326.805,323.302 	"/>
	
		<line fill="none" stroke="#000000" stroke-width="0.5154" stroke-miterlimit="3.25" x1="325.236" y1="297.77" x2="325.863" y2="300.274"/>
	<polyline fill-rule="evenodd" clip-rule="evenodd" points="326.457,299.883 326.393,299.938 326.234,300.062 326.138,300.131 
		326.038,300.194 325.943,300.244 325.863,300.274 325.781,300.283 325.677,300.283 325.557,300.275 325.434,300.264 
		325.219,300.23 325.127,300.217 326.424,302.522 326.457,299.883 	"/>
	
		<line fill="none" stroke="#000000" stroke-width="0.5154" stroke-miterlimit="3.25" x1="324.643" y1="275.65" x2="325.894" y2="276.904"/>
	<polyline fill-rule="evenodd" clip-rule="evenodd" points="326.104,276.466 326.087,276.52 326.038,276.648 326.006,276.725 
		325.971,276.796 325.933,276.859 325.894,276.904 325.853,276.94 325.79,276.978 325.716,277.013 325.638,277.049 325.5,277.105 
		325.442,277.13 327.018,278.028 326.104,276.466 	"/>
	
		<line fill="none" stroke="#000000" stroke-width="0.5154" stroke-miterlimit="3.25" x1="324.047" y1="253.535" x2="325.927" y2="253.535"/>
	<polyline fill-rule="evenodd" clip-rule="evenodd" points="325.754,253.048 325.781,253.103 325.844,253.237 325.873,253.317 
		325.901,253.396 325.921,253.471 325.927,253.535 325.921,253.594 325.901,253.668 325.873,253.751 325.844,253.834 
		325.781,253.979 325.754,254.044 327.612,253.535 325.754,253.048 	"/>
	
		<line fill="none" stroke="#000000" stroke-width="0.5154" stroke-miterlimit="3.25" x1="323.453" y1="231.419" x2="325.961" y2="230.165"/>
	<polyline fill-rule="evenodd" clip-rule="evenodd" points="325.404,229.629 325.479,229.684 325.646,229.823 325.743,229.908 
		325.832,229.998 325.909,230.084 325.961,230.165 325.989,230.247 326.014,230.357 326.033,230.488 326.047,230.623 
		326.066,230.857 326.07,230.957 328.207,229.042 325.404,229.629 	"/>
	
		<line fill="none" stroke="#000000" stroke-width="0.5154" stroke-miterlimit="3.25" x1="322.856" y1="209.302" x2="325.99" y2="206.796"/>
	<polyline fill-rule="evenodd" clip-rule="evenodd" points="325.054,206.209 325.173,206.267 325.451,206.41 325.611,206.501 
		325.766,206.601 325.895,206.698 325.99,206.796 326.059,206.899 326.124,207.049 326.19,207.225 326.25,207.409 326.348,207.73 
		326.383,207.871 328.799,204.549 325.054,206.209 	"/>
	
		<line fill="none" stroke="#000000" stroke-width="0.5154" stroke-miterlimit="3.25" x1="322.266" y1="187.186" x2="326.025" y2="183.426"/>
	<polyline fill-rule="evenodd" clip-rule="evenodd" points="324.702,182.791 324.871,182.848 325.256,182.995 325.479,183.093 
		325.695,183.199 325.885,183.312 326.025,183.426 326.126,183.554 326.237,183.741 326.35,183.963 326.457,184.196 
		326.628,184.606 326.696,184.785 329.395,180.056 324.702,182.791 	"/>
	
		<line fill="none" stroke="#000000" stroke-width="0.5154" stroke-miterlimit="3.25" x1="321.671" y1="165.07" x2="326.057" y2="160.056"/>
	<polyline fill-rule="evenodd" clip-rule="evenodd" points="324.354,159.374 324.565,159.431 325.06,159.582 325.347,159.686 
		325.628,159.8 325.87,159.925 326.057,160.056 326.194,160.208 326.349,160.431 326.506,160.699 326.66,160.983 326.91,161.481 
		327.012,161.699 329.988,155.562 324.354,159.374 	"/>
	
		<line fill="none" stroke="#000000" stroke-width="0.5154" stroke-miterlimit="3.25" x1="321.076" y1="142.952" x2="326.088" y2="136.687"/>
	<polyline fill-rule="evenodd" clip-rule="evenodd" points="324.003,135.955 324.261,136.014 324.863,136.169 325.216,136.278 
		325.559,136.402 325.86,136.54 326.088,136.687 326.263,136.862 326.46,137.122 326.664,137.438 326.865,137.771 327.191,138.357 
		327.325,138.613 330.584,131.069 324.003,135.955 	"/>
	
		<line fill="none" stroke="#000000" stroke-width="0.5154" stroke-miterlimit="3.25" x1="320.482" y1="120.835" x2="326.121" y2="113.317"/>
	<polyline fill-rule="evenodd" clip-rule="evenodd" points="323.651,112.537 323.957,112.594 324.669,112.757 325.084,112.871 
		325.489,113.003 325.849,113.152 326.121,113.317 326.332,113.516 326.571,113.815 326.824,114.174 327.069,114.557 
		327.475,115.231 327.64,115.527 331.178,106.575 323.651,112.537 	"/>
	
		<line fill="none" stroke="#000000" stroke-width="0.5154" stroke-miterlimit="3.25" x1="319.886" y1="98.719" x2="326.152" y2="89.947"/>
	<polyline fill-rule="evenodd" clip-rule="evenodd" points="323.303,89.119 323.651,89.177 324.474,89.343 324.951,89.463 
		325.422,89.605 325.835,89.767 326.152,89.947 326.399,90.169 326.684,90.505 326.981,90.913 327.272,91.345 327.754,92.107 
		327.955,92.44 331.771,82.082 323.303,89.119 	"/>
	
		<line fill="none" stroke="#000000" stroke-width="0.5154" stroke-miterlimit="3.25" x1="319.295" y1="76.602" x2="326.187" y2="66.578"/>
	<polyline fill-rule="evenodd" clip-rule="evenodd" points="322.951,65.7 323.348,65.758 324.278,65.93 324.819,66.056 
		325.351,66.206 325.822,66.379 326.187,66.578 326.468,66.822 326.795,67.196 327.14,67.649 327.479,68.131 328.036,68.983 
		328.268,69.355 332.365,57.589 322.951,65.7 	"/>
	
		<line fill="none" stroke="#000000" stroke-width="0.5154" stroke-miterlimit="3.25" x1="318.701" y1="54.486" x2="326.218" y2="43.208"/>
	<polyline fill-rule="evenodd" clip-rule="evenodd" points="322.601,42.281 323.043,42.341 324.081,42.517 324.689,42.647 
		325.283,42.807 325.813,42.993 326.218,43.208 326.536,43.477 326.906,43.888 327.297,44.385 327.685,44.917 328.318,45.858 
		328.582,46.268 332.96,33.096 322.601,42.281 	"/>
	
		<line fill="none" stroke="#000000" stroke-width="0.5154" stroke-miterlimit="3.25" x1="318.106" y1="32.369" x2="326.249" y2="19.837"/>
	<polyline fill-rule="evenodd" clip-rule="evenodd" points="322.251,18.863 322.74,18.923 323.887,19.103 324.557,19.239 
		325.215,19.408 325.801,19.607 326.249,19.837 326.605,20.131 327.018,20.579 327.455,21.124 327.887,21.705 328.6,22.732 
		328.895,23.183 333.553,8.603 322.251,18.863 	"/>
	
		<line fill="none" stroke="#000000" stroke-width="0.5154" stroke-miterlimit="3.25" x1="349.135" y1="342.597" x2="349.135" y2="346.983"/>
	<polyline fill-rule="evenodd" clip-rule="evenodd" points="350.275,346.583 350.144,346.645 349.834,346.784 349.647,346.858 
		349.459,346.922 349.283,346.967 349.135,346.983 349.001,346.967 348.827,346.922 348.634,346.858 348.435,346.784 
		348.095,346.645 347.949,346.583 349.135,350.914 350.275,346.583 	"/>
	
		<line fill="none" stroke="#000000" stroke-width="0.5154" stroke-miterlimit="3.25" x1="348.541" y1="320.478" x2="349.166" y2="323.611"/>
	<polyline fill-rule="evenodd" clip-rule="evenodd" points="349.923,323.164 349.841,323.227 349.638,323.372 349.517,323.45 
		349.39,323.523 349.271,323.581 349.166,323.611 349.07,323.619 348.938,323.612 348.79,323.595 348.64,323.572 348.375,323.521 
		348.264,323.496 349.729,326.42 349.923,323.164 	"/>
	
		<line fill="none" stroke="#000000" stroke-width="0.5154" stroke-miterlimit="3.25" x1="347.946" y1="298.362" x2="349.199" y2="300.243"/>
	<polyline fill-rule="evenodd" clip-rule="evenodd" points="349.574,299.745 349.535,299.812 349.443,299.957 349.383,300.044 
		349.32,300.123 349.259,300.194 349.199,300.243 349.138,300.274 349.05,300.305 348.948,300.332 348.841,300.359 348.658,300.396 
		348.578,300.41 350.324,301.927 349.574,299.745 	"/>
	
		<line fill="none" stroke="#000000" stroke-width="0.5154" stroke-miterlimit="3.25" x1="347.353" y1="276.246" x2="349.232" y2="276.874"/>
	<polyline fill-rule="evenodd" clip-rule="evenodd" points="349.224,276.327 349.232,276.392 349.248,276.544 349.253,276.635 
		349.253,276.726 349.248,276.808 349.232,276.874 349.207,276.928 349.162,276.995 349.107,277.07 349.047,277.146 348.938,277.27 
		348.891,277.325 350.919,277.437 349.224,276.327 	"/>
	
		<line fill="none" stroke="#000000" stroke-width="0.5154" stroke-miterlimit="3.25" x1="346.758" y1="254.131" x2="349.265" y2="253.502"/>
	<polyline fill-rule="evenodd" clip-rule="evenodd" points="348.873,252.909 348.927,252.974 349.051,253.131 349.121,253.229 
		349.184,253.326 349.235,253.421 349.265,253.502 349.273,253.582 349.273,253.686 349.265,253.809 349.252,253.932 
		349.22,254.146 349.205,254.239 351.512,252.941 348.873,252.909 	"/>
	
		<line fill="none" stroke="#000000" stroke-width="0.5154" stroke-miterlimit="3.25" x1="346.164" y1="232.013" x2="349.298" y2="230.132"/>
	<polyline fill-rule="evenodd" clip-rule="evenodd" points="348.524,229.49 348.623,229.557 348.857,229.718 348.988,229.821 
		349.117,229.928 349.223,230.034 349.298,230.132 349.344,230.234 349.385,230.379 349.423,230.545 349.457,230.72 
		349.504,231.021 349.521,231.152 352.105,228.448 348.524,229.49 	"/>
	
		<line fill="none" stroke="#000000" stroke-width="0.5154" stroke-miterlimit="3.25" x1="345.57" y1="209.896" x2="349.328" y2="206.765"/>
	<polyline fill-rule="evenodd" clip-rule="evenodd" points="348.173,206.073 348.318,206.137 348.659,206.305 348.857,206.414 
		349.046,206.527 349.209,206.646 349.328,206.765 349.412,206.889 349.494,207.069 349.58,207.281 349.662,207.504 
		349.784,207.896 349.834,208.067 352.701,203.954 348.173,206.073 	"/>
	
		<line fill="none" stroke="#000000" stroke-width="0.5154" stroke-miterlimit="3.25" x1="344.976" y1="187.781" x2="349.362" y2="183.394"/>
	<polyline fill-rule="evenodd" clip-rule="evenodd" points="347.821,182.653 348.014,182.72 348.464,182.892 348.725,183.005 
		348.979,183.13 349.198,183.261 349.362,183.394 349.48,183.543 349.609,183.761 349.74,184.019 349.865,184.292 350.065,184.771 
		350.147,184.979 353.294,179.46 347.821,182.653 	"/>
	
		<line fill="none" stroke="#000000" stroke-width="0.5154" stroke-miterlimit="3.25" x1="344.38" y1="165.664" x2="349.395" y2="160.025"/>
	<polyline fill-rule="evenodd" clip-rule="evenodd" points="347.47,159.235 347.711,159.301 348.27,159.479 348.593,159.597 
		348.91,159.73 349.188,159.875 349.395,160.025 349.548,160.196 349.722,160.452 349.897,160.757 350.069,161.078 350.347,161.646 
		350.462,161.893 353.89,154.968 347.47,159.235 	"/>
	
		<line fill="none" stroke="#000000" stroke-width="0.5154" stroke-miterlimit="3.25" x1="343.788" y1="143.545" x2="349.424" y2="136.655"/>
	<polyline fill-rule="evenodd" clip-rule="evenodd" points="347.121,135.817 347.408,135.884 348.072,136.065 348.462,136.189 
		348.84,136.332 349.175,136.489 349.424,136.655 349.618,136.851 349.833,137.144 350.058,137.494 350.274,137.866 
		350.631,138.522 350.775,138.808 354.483,130.475 347.121,135.817 	"/>
	
		<line fill="none" stroke="#000000" stroke-width="0.5154" stroke-miterlimit="3.25" x1="343.192" y1="121.429" x2="349.459" y2="113.283"/>
	<polyline fill-rule="evenodd" clip-rule="evenodd" points="346.771,112.398 347.101,112.466 347.879,112.653 348.33,112.783 
		348.772,112.933 349.162,113.101 349.459,113.283 349.687,113.504 349.944,113.833 350.214,114.232 350.478,114.653 
		350.911,115.396 351.09,115.722 355.076,105.98 346.771,112.398 	"/>
	
		<line fill="none" stroke="#000000" stroke-width="0.5154" stroke-miterlimit="3.25" x1="342.6" y1="99.312" x2="349.489" y2="89.915"/>
	<polyline fill-rule="evenodd" clip-rule="evenodd" points="346.422,88.98 346.799,89.048 347.682,89.24 348.199,89.375 
		348.704,89.536 349.149,89.716 349.489,89.915 349.752,90.159 350.057,90.525 350.374,90.969 350.684,91.44 351.193,92.272 
		351.404,92.636 355.671,81.488 346.422,88.98 	"/>
	
		<line fill="none" stroke="#000000" stroke-width="0.5154" stroke-miterlimit="3.25" x1="342.005" y1="77.196" x2="349.522" y2="66.544"/>
	<polyline fill-rule="evenodd" clip-rule="evenodd" points="346.07,65.562 346.494,65.63 347.487,65.827 348.066,65.968 
		348.637,66.135 349.138,66.328 349.522,66.544 349.823,66.812 350.167,67.217 350.532,67.707 350.888,68.227 351.475,69.146 
		351.718,69.549 356.265,56.995 346.07,65.562 	"/>
	
		<line fill="none" stroke="#000000" stroke-width="0.5154" stroke-miterlimit="3.25" x1="341.409" y1="55.08" x2="349.557" y2="43.175"/>
	<polyline fill-rule="evenodd" clip-rule="evenodd" points="345.72,42.143 346.188,42.212 347.292,42.413 347.937,42.56 
		348.566,42.736 349.126,42.942 349.557,43.175 349.891,43.466 350.279,43.909 350.689,44.443 351.093,45.014 351.757,46.021 
		352.03,46.463 356.86,32.502 345.72,42.143 	"/>
	
		<line fill="none" stroke="#000000" stroke-width="0.5154" stroke-miterlimit="3.25" x1="340.816" y1="32.962" x2="349.588" y2="19.806"/>
	<polyline fill-rule="evenodd" clip-rule="evenodd" points="345.367,18.725 345.885,18.795 347.095,18.998 347.804,19.152 
		348.497,19.337 349.113,19.556 349.588,19.806 349.96,20.119 350.391,20.6 350.847,21.181 351.297,21.801 352.039,22.897 
		352.345,23.377 357.454,8.007 345.367,18.725 	"/>
</g>
</svg>
