<?xml version="1.0" encoding="utf-8"?>
<!-- Generator: Adobe Illustrator 14.0.0, SVG Export Plug-In . SVG Version: 6.00 Build 43363)  -->
<!DOCTYPE svg PUBLIC "-//W3C//DTD SVG 1.1//EN" "http://www.w3.org/Graphics/SVG/1.1/DTD/svg11.dtd">
<svg version="1.1" id="Layer_1" xmlns="http://www.w3.org/2000/svg" xmlns:xlink="http://www.w3.org/1999/xlink" x="0px" y="0px"
	 width="421.479px" height="265.452px" viewBox="0 0 421.479 265.452" enable-background="new 0 0 421.479 265.452"
	 xml:space="preserve">
<linearGradient id="SVGID_1_" gradientUnits="userSpaceOnUse" x1="211.0103" y1="214.9028" x2="211.0102" y2="13.3481">
	<stop  offset="0" style="stop-color:#FFFFFF"/>
	<stop  offset="1" style="stop-color:#1B1F8A"/>
</linearGradient>
<polygon opacity="0.6" fill="url(#SVGID_1_)" enable-background="new    " points="10.73,214.903 411.291,214.903 296.48,13.348 "/>
<polygon fill="none" stroke="#000000" stroke-width="1.8889" enable-background="new    " points="10.73,214.903 411.291,214.903 
	296.48,13.348 "/>
<g enable-background="new    ">
	<g>
		<line fill="none" stroke="#000000" stroke-width="2.5" x1="18.399" y1="227.903" x2="392.399" y2="227.903"/>
		<polygon points="404.754,227.903 387.343,235.016 391.475,227.903 387.343,220.79 		"/>
	</g>
</g>
<g>
	<defs>
		<rect id="SVGID_2_" x="216.899" y="236.903" width="12" height="14"/>
	</defs>
	<clipPath id="SVGID_3_">
		<use xlink:href="#SVGID_2_"  overflow="visible"/>
	</clipPath>
	<path clip-path="url(#SVGID_3_)" d="M219.716,243.104c1.125-4.46,4.097-4.901,4.847-4.901c1.355,0,2.136,0.853,2.136,1.849
		c0,3.053-4.618,3.053-5.801,3.053 M221.074,243.704c0.83,0,2.947-0.052,4.378-0.6c2.003-0.877,2.147-2.604,2.147-3.014
		c0-1.289-1.093-2.487-3.075-2.487c-3.188,0-7.525,2.785-7.525,7.806c0,2.927,1.696,5.193,4.514,5.193
		c4.109,0,6.524-3.028,6.524-3.371c0-0.171-0.173-0.371-0.345-0.371c-0.143,0-0.2,0.058-0.372,0.289
		c-2.263,2.854-5.385,2.854-5.729,2.854c-2.234,0-2.492-2.404-2.492-3.32c0-0.344,0.028-1.231,0.458-2.979H221.074z"/>
</g>
</svg>
