<?xml version="1.0" encoding="utf-8"?>
<!-- Generator: Adobe Illustrator 14.0.0, SVG Export Plug-In . SVG Version: 6.00 Build 43363)  -->
<!DOCTYPE svg PUBLIC "-//W3C//DTD SVG 1.1//EN" "http://www.w3.org/Graphics/SVG/1.1/DTD/svg11.dtd">
<svg version="1.1" id="Layer_1" xmlns="http://www.w3.org/2000/svg" xmlns:xlink="http://www.w3.org/1999/xlink" x="0px" y="0px"
	 width="446px" height="244px" viewBox="0 0 446 244" enable-background="new 0 0 446 244" xml:space="preserve">
<g>
	<path opacity="0.2" fill="#1B1F8A" enable-background="new    " d="M50.783,100.428c13.062-0.195,26.379-0.428,39.184-3.272
		c14.882-3.308,28.625-11.204,38.921-22.507c5.97-6.555,11.613-13.214,16.945-20.3c5.221-6.937,10.216-14.111,15.75-20.805
		c7.525-9.103,17.692-22.256,31.048-20.896c6.479,0.659,11.987,4.707,16.646,8.976c6.083,5.571,11.193,12.271,16.124,18.851
		c10.366,13.838,20.299,28.458,33.384,39.931c11.834,10.375,25.811,16.043,41.282,18.231c12.989,1.836,26.263,1.783,39.354,1.884
		c12.516,0.095,25.031,0.075,37.547,0.075c11.528,0,23.055,0.001,34.584,0.001"/>
	<path opacity="0.2" fill="#1B1F8A" enable-background="new    " d="M50.783,100.597c11.866,0,23.73,0.004,35.596-0.005
		c12.444-0.012,24.89,0.012,37.332-0.214c13.48-0.245,27.341-0.616,40.406-4.252c15.299-4.258,28.033-13.575,38.411-25.425
		c11.78-13.45,21.658-28.357,33.14-42.044c7.219-8.605,17.949-18.817,30.188-15.396c6.828,1.91,12.659,7.107,17.309,12.261
		c6.204,6.882,11.717,14.279,17.271,21.681c10.18,13.571,20.312,27.759,34.189,37.835c12.336,8.957,26.491,12.86,41.5,14.288
		c12.628,1.203,25.375,1.155,38.048,1.223"/>
	<path fill="none" stroke="#231F20" stroke-width="1.0301" d="M50.783,100.428c13.062-0.195,26.379-0.428,39.184-3.272
		c14.882-3.308,28.625-11.204,38.921-22.507c5.97-6.555,11.613-13.214,16.945-20.3c5.221-6.937,10.216-14.111,15.75-20.805
		c7.525-9.103,17.692-22.256,31.048-20.896c6.479,0.659,11.987,4.707,16.646,8.976c6.083,5.571,11.193,12.271,16.124,18.851
		c10.366,13.838,20.299,28.458,33.384,39.931c11.834,10.375,25.811,16.043,41.282,18.231c12.989,1.836,26.263,1.783,39.354,1.884
		c12.516,0.095,25.031,0.075,37.547,0.075c11.528,0,23.055,0.001,34.584,0.001"/>
	<path fill="none" stroke="#231F20" stroke-width="1.0301" d="M50.783,100.597c11.866,0,23.73,0.004,35.596-0.005
		c12.444-0.012,24.89,0.012,37.332-0.214c13.48-0.245,27.341-0.616,40.406-4.252c15.299-4.258,28.033-13.575,38.411-25.425
		c11.78-13.45,21.658-28.357,33.14-42.044c7.219-8.605,17.949-18.817,30.188-15.396c6.828,1.91,12.659,7.107,17.309,12.261
		c6.204,6.882,11.717,14.279,17.271,21.681c10.18,13.571,20.312,27.759,34.189,37.835c12.336,8.957,26.491,12.86,41.5,14.288
		c12.628,1.203,25.375,1.155,38.048,1.223"/>
</g>
<g>
	<path opacity="0.2" fill="#1B1F8A" enable-background="new    " d="M12.038,227.044c13.469-0.064,17.237-0.059,30.646-1.459
		c15.012-1.569,29.082-6.156,41.094-15.494c14.359-11.16,24.809-26.51,35.618-40.908c4.769-6.351,9.613-12.621,15.102-18.371
		c4.664-4.889,10.297-9.746,17.057-11.291c12.432-2.843,22.799,8.025,30.062,16.562c11.315,13.299,20.541,28.286,32.329,41.2
		c10.903,11.945,23.582,21.417,39.397,25.604c12.936,3.424,26.588,3.747,39.888,3.994c12.63,0.235,25.266,0.194,37.898,0.207
		c11.924,0.012,23.851,0.004,35.775,0.004c11.063,0,22.129,0,33.194,0c10.99,0,21.979,0,32.972,0c0.881,0,1.761,0,2.644,0"/>
	<path opacity="0.2" fill="#1B1F8A" enable-background="new    " d="M21.445,227.092c10.799,0,21.598,0,32.397,0
		c10.97,0,21.943,0,32.914,0c11.835,0,23.669-0.006,35.505-0.006c12.589,0,25.184,0.052,37.769-0.244
		c13.411-0.312,27.094-0.777,40.063-4.534c15.582-4.514,28.536-14.662,38.939-26.881c11.605-13.636,21.255-28.859,33.189-42.208
		c7.677-8.586,18.492-17.517,30.588-12.755c7.341,2.89,12.834,8.947,18.006,14.65c5.692,6.282,10.608,13.368,15.652,20.166
		c9.676,13.04,19.715,26.874,33.116,36.368c12.417,8.799,26.385,12.771,41.41,14.172c8.216,0.768,16.472,0.963,24.718,1.103"/>
	<path fill="none" stroke="#231F20" stroke-width="1.0301" d="M12.038,227.044c13.469-0.064,17.237-0.059,30.646-1.459
		c15.012-1.569,29.082-6.156,41.094-15.494c14.359-11.16,24.809-26.51,35.618-40.908c4.769-6.351,9.613-12.621,15.102-18.371
		c4.664-4.889,10.297-9.746,17.057-11.291c12.432-2.843,22.799,8.025,30.062,16.562c11.315,13.299,20.541,28.286,32.329,41.2
		c10.903,11.945,23.582,21.417,39.397,25.604c12.936,3.424,26.588,3.747,39.888,3.994c12.63,0.235,25.266,0.194,37.898,0.207
		c11.924,0.012,23.851,0.004,35.775,0.004c11.063,0,22.129,0,33.194,0c10.99,0,21.979,0,32.972,0c0.881,0,1.761,0,2.644,0"/>
	<path fill="none" stroke="#231F20" stroke-width="1.0301" d="M21.445,227.092c10.799,0,21.598,0,32.397,0
		c10.97,0,21.943,0,32.914,0c11.835,0,23.669-0.006,35.505-0.006c12.589,0,25.184,0.052,37.769-0.244
		c13.411-0.312,27.094-0.777,40.063-4.534c15.582-4.514,28.536-14.662,38.939-26.881c11.605-13.636,21.255-28.859,33.189-42.208
		c7.677-8.586,18.492-17.517,30.588-12.755c7.341,2.89,12.834,8.947,18.006,14.65c5.692,6.282,10.608,13.368,15.652,20.166
		c9.676,13.04,19.715,26.874,33.116,36.368c12.417,8.799,26.385,12.771,41.41,14.172c8.216,0.768,16.472,0.963,24.718,1.103"/>
</g>
</svg>
