<?xml version="1.0" encoding="utf-8"?>
<!-- Generator: Adobe Illustrator 14.0.0, SVG Export Plug-In . SVG Version: 6.00 Build 43363)  -->
<!DOCTYPE svg PUBLIC "-//W3C//DTD SVG 1.1//EN" "http://www.w3.org/Graphics/SVG/1.1/DTD/svg11.dtd">
<svg version="1.1" id="Layer_1" xmlns="http://www.w3.org/2000/svg" xmlns:xlink="http://www.w3.org/1999/xlink" x="0px" y="0px"
	 width="204px" height="202px" viewBox="0 0 204 202" enable-background="new 0 0 204 202" xml:space="preserve">
<g>
	<path d="M165.004,152.367c-1.687,0.624-2.735,0.915-4.448,1.206c-4.147,2.797-11.441,7.829-14.547,7.173
		c-0.293-0.715,2.793-6.945,3.727-7.513c8.924-7.242,16.502-8.759,24.085-21.13c0.866-1.027,0.552-5.828,0.434-10.05
		c0.001,0-0.646,1.082-1.45,2.327c0.205-5.703,2.771-14.046,1.836-20.975c-0.603,1.448-0.62,1.444-1.186,2.281
		c3.35-5.345,1.261-17.348-1.631-25.275c-0.245-1.689-0.184-2.979-0.255-4.25c-3.399-7.042-6.225-14.396-13.311-20.759
		c-5.434-5.488-12.866-14.214-22.335-18.732c-7.64-4.482-16.331-8.554-25.557-10.336c-9.163-1.745-18.768-1.178-26.251,2.531
		c-2.508,1.217-7.279,2.238-12.132,2.28c-7.88,7.647-23.475,15.956-32.207,26.792c-3.057,3.828-6.529,5.583-8.81,6.697
		c-5.22,12.767-7.141,26.96-6.667,40.561c0.863,17.458,7.321,34.032,19.096,49.538c1.636,2.156,5.914,5.154,8.377,6.22
		c0.661,1.025,1.299,2.08,1.987,3.118c9.352,6.636,19.714,8.694,28.74,11.677c12.605,3.872,14.34,8.39,16.042,13.397
		c-8.145,1.551-16.918,3.416-27.014,2.501c-9.929-0.946-21.382-4.845-31.002-14.703c-5.083-5.464-14.181-12.253-20.129-19.948
		c-5.542-6.251-7.232-15.165-12.394-20.769c-0.072-5.449-0.861-14.132-0.865-23.484c-0.009-9.379,0.877-19.384,1.844-27.933
		c0.722-1.297,0.724,0.332,1.708-1.964c1.803-24.403,20.168-48.918,44.855-62.488c12.344-7.528,29.333-10.701,46.982-11.552
		c1.708-0.351,9.128,1.491,13.823,2.212c1.715-0.104,3.4-0.001,5.127-0.003c12.24,2.978,25.923,9.038,32.163,15.9
		c7.812,7.249,14.856,13.691,19.567,21.531c3.455,5.841,8.175,13.372,11.174,21.475c3.154,8.013,4.508,16.426,3.566,22.184
		c-0.202,1.435,0.574,5.943,0.547,8.938c-0.376,1.406-0.735,2.792-1.215,4.167c-0.079,2.916,1.665,4.983,1.36,7.984
		c-1.337,9.603-4.35,20.207-9.071,28.54c-4.649,8.365-10.599,14.359-15.391,16.027C164.893,156.362,167.757,151.357,165.004,152.367
		z"/>
	<path d="M103.186,176.145c0.574-0.788-1.784-0.844-3.245-0.717c1.311,0.765,2.129,1.746,5.007,2.178
		c-1.471,0.038-2.937,0.078-4.407,0c-2.303,1.912,4.4,0.398,1.789,1.243c-2.487-0.152-4.397-0.438-3.234-1.388
		c0.407,0.464,1.446,0.143,2.904,0.296c0.173-1.248-2.176-1.713-3.459-2.475c2.225,0.001,4.451-0.021,6.669-0.188L103.186,176.145z"
		/>
	<path d="M118.571,175.749l-1.442,0.217c-0.435,0.907,1.031,1.035,2.537,1.109c-6.39,0.445-0.649-2.189-4.537-2.604
		C115.145,175.152,118.986,174.878,118.571,175.749z"/>
	<path d="M111.183,180.882c-2.974-1.16-5.643,0.472-6.445-1.392c2.449,0.437,4.951,0.758,7.478,0.91L111.183,180.882z"/>
	<path d="M153.622,158.326c1.066-2.008,0.582-0.943,3.124-3.459c-1.123,1.299-2.39,2.465-3.586,3.69L153.622,158.326z"/>
	<path d="M166.246,62.13c0.664,3.066,0.885,5.615,2.534,9.865C166.867,67.845,166.496,63.179,166.246,62.13z"/>
	<path d="M134.263,26.049c0.387-0.507-1.074-1.369,1.192-0.647c0.833,0.752-1.165,1.466,2.426,2.322
		C136.683,27.146,135.498,26.543,134.263,26.049z"/>
	<path d="M131.641,21.436l-1.79-1.917C129.755,19.674,130.417,20.498,131.641,21.436z"/>
	<path d="M165.132,134.273l0.43-0.122c0.03-0.214,0.034-0.483,0.057-0.72C165.464,133.684,165.309,133.93,165.132,134.273z"/>
	<path d="M168.634,128.512c-0.931,1.322-1.947,2.584-2.927,3.828c0.001,0.408-0.054,0.729-0.089,1.092
		C167.2,130.783,167.774,132.141,168.634,128.512z"/>
	<path d="M166.327,133.938l-0.766,0.213c-0.76,4.128-3.595,4.6-6.148,9.626C162.712,140.989,165.021,137.146,166.327,133.938z"/>
	<path d="M165.437,138.779c-0.026,0.608-0.057,1.222-0.128,1.818c-0.904,1.196-1.377,0.772-1.613,0.562
		c-0.424,0.932-0.867,1.855-1.367,2.749c0.465,1.82,5.627-6.345,6.664-8.677C167.862,136.479,166.646,137.646,165.437,138.779z"/>
	<polygon points="154.08,169.603 154.181,169.493 154.062,169.604 	"/>
	<path d="M163.735,164.735l-1.245-1.846c-3.061,3.521-4.694,3.042-8.31,6.604l-0.101,0.109
		C156.885,170.094,159.979,166.279,163.735,164.735z"/>
	<path d="M172.479,123.884c-1.12,3.908-2.306,6.691-1.636,8.335c1.143-2.278,2.159-4.634,3.035-7.046
		C172.14,127.691,173.04,124.72,172.479,123.884z"/>
	<path d="M177.986,118.529c-0.164,1.251-0.439,2.479-0.694,3.714l1.065-1.47C178.114,120.566,177.967,119.844,177.986,118.529z"/>
	<path d="M178.357,120.773c0.279,0.228,0.758-0.231,1.097-1.635C179.101,119.691,178.754,120.24,178.357,120.773z"/>
	<path d="M178.035,128.638c2.028-1.955,0.479-2.241,1.821-6.36C178.47,121.607,178.764,126.522,178.035,128.638z"/>
	<polygon points="182.301,110.982 183.524,109.638 182.001,109.185 	"/>
	<path d="M172.532,80.542c2.39,3.362,0.721-2.619,1.265-3.229C173.382,78.414,172.96,79.49,172.532,80.542z"/>
	<path d="M186.092,106.281l-1.465,1.352l0.734,0.779c-0.106,1.147-0.115,2.935-0.83,3.869
		C186.105,113.415,185.762,108.51,186.092,106.281z"/>
	<path d="M181.296,89.235c0.085-1.449,0.18-2.918,0.156-4.379"/>
	<path d="M190.252,117.503c0.574,0.279,3.49-6.472,1.803,1.414c0.683-3.027,1.09-7.479,1.951-4.519
		c0.558-5.049-1.491-0.554-1.941-3.925C192.792,113.275,190.891,115.213,190.252,117.503z"/>
	<path d="M192.675,105.603c0.476-2.4,0.792-5.456,0.187-6.83C192.873,101.292,191.718,103.46,192.675,105.603z"/>
	<path d="M196.342,103.364c-0.436,1.189-0.916,2.364-1.375,3.522l1.647-2.146L196.342,103.364z"/>
	<line x1="174.208" y1="60.055" x2="172.505" y2="61.165"/>
	<path d="M195.239,88.483c0.498,3.011,0.91,6.039,1.15,9.085c0.14-2.76,0.145-5.535,0.052-8.325c-1.751-4.843-1.79-2.31-1.854,1.246
		C194.688,89.501,194.882,88.712,195.239,88.483z"/>
	<path d="M193.619,98.3c0.26,0.879,0.447,1.767,0.674,2.658c0.408,0.084,0.255-3.944,0.227-7.459
		C194.371,95.866,194.113,97.979,193.619,98.3z"/>
	<path d="M194.52,93.499c0.029-1.007,0.047-2.04,0.068-3.01C194.503,91.36,194.483,92.381,194.52,93.499z"/>
	<path d="M161.692,44.681c1.608,1.874,3.173,3.786,4.594,5.799C165.014,47.977,163.486,46.225,161.692,44.681z"/>
	<path d="M195.738,81.51l-0.28-1.295l-1.602-0.018C194.726,82.737,195.418,81.508,195.738,81.51z"/>
	<path d="M195.469,69.807c0.146-2.69-2.741-7.038-3.749-8.837c0.26,3.282,1.667,6.375,2.562,10.239
		C193.363,67.358,194.824,69.838,195.469,69.807z"/>
	<path d="M192.826,58.071c1.129,2.537,2.258,5.072,3.195,7.685C197.084,63.599,194.416,61.18,192.826,58.071z"/>
	<path d="M185.721,46.759c-0.523-0.539-0.614,0.191-1.648-0.872c0.105,1.373,1.896,3.551,2.739,5.384
		C186.521,49.746,186.096,48.28,185.721,46.759z"/>
	<path d="M186.343,112.898c0.127-2.124,0.267-4.021,0.229-5.845c-0.49,2.845-1.063,5.65-1.786,8.403
		C185.349,114.641,185.926,113.841,186.343,112.898z"/>
	<path d="M68.777,168.733c-7.863-0.282-19.96-8.27-25.383-14.002c-8.609-9.366-19.341-22.725-22.406-38.57l0.639,0.027
		c-1.327-12.083-1.602-28.4,3.595-41.201l-1.062,0.398c-0.952,2.11-1.885,5.028-2.387,2.956c1.28-2.891,3.291-6.595,4.271-7.153
		l-0.103-2.682c1.551-1.464,3.147,1.181,5.025-3.874c-0.959-4.484,8.403-8.753,5.774-11.021c2.983-0.324,4.932-5.332,7.058-7.093
		l-2.479,0.107c4.705-3.489,10.361-4.75,12.293-6.573c5.288-4.344,13.642-8.726,20.576-11.733c2.155,1.186-7.349,2.652-2.205,2.825
		c6.018-4.058,14.735-5.684,23.564-5.364c8.916,0.208,17.708,2.292,25.992,3.843c-0.407-0.284-1.815-0.874-0.671-0.855
		c2.702,2.359,7.41,2.395,11.979,5.657c-0.068-1.561-6.706-4.639-9.138-5.514c2.607-2.329,1.14,1.051,7.88,2.966
		c-0.377-0.35-1.147-1.063-0.959-1.32c6.656,2.411,1.689,2.858,6.627,4.902c-0.676-0.786-1.375-1.555-2.111-2.281
		c4.557,2.639,1.723,0.303,7.185,2.909c-1.651,0.953,0.048,3.574,1.127,4.626c1.052-0.292,5.06,3.628,5.505,1.984
		c3.042,7.17,7.491,5.511,9.295,12.704c2.846,1.389-0.473-3.173,0.566-3.767c5.26,4.861,0.067,2.858,1.233,5.112
		c1.862,1.267,7.367,8.546,7.74,12.687l1.231-0.322c1.584,5.896,4.021,15.243,2.629,17.754c2.301,1.934,1.319-2.546,0.165-6.455
		c0.666-1.11,2.439,2.822,2.533,4.866c-0.201-1.003,0.468-1.55-0.445-2.517c1.016-0.582,1.12,2.5,1.611,3.521
		c1.052,7.147-1.261-2.556-1.322,0.523c1.087,2.483,1.659,9.188,2.871,6.206c0.749,5.76-1.51,2.441-1.905,5.423
		c0.857-4.503-1.862-5.673-0.979-9.115c-0.791-1.013-1.184-0.492-1.425,0.969c1.374,4.498,0.218,13.299,1.877,13.118l-1.186,2.281
		c0.372,0.755,0.793,1.525,1.129,2.302l-0.405,0.927c1.973-2.038,2.837-6.555,4.341-8.42c0.746-0.396,0.556,2.759,0.59,4.398
		l-1.46,1.252c-0.609,4.089,2.557,3.373,1.249,9.112c-1.263-3.769-3.606,5.889-6.094,9.123c1.874,5.042,2.608,0.156,4.101,4.601
		c-1.332,4.111-3.273,10.745-6.803,14.812c5.842-10.959-4.709,4.179-1.132-5.033c-1.203,1.656-1.625,3.302-2.716,5.085
		c-2.927,0.026-0.239-3.551-3.213-2.23l1.044,1.604c-2.63,1.672-4.975,2.04-8.651,5.773c0.245,0.981-0.691,3.71-2.694,5.106
		c-1.462-0.358-1.967-0.3-5.525,2.914c-4.943,8.846,10.062-3.075,13.342-3.439c4.866-5.458,8.581-7.621,12.755-10.482
		c4.053-2.892,8.664-6.588,12.287-16.294c-0.28-3.405-0.682-2.371-0.136-8.37c-1.905-4.448-3.793,8.19-6.868,10.914
		c0.141-1.83,0.155-3.631,1.059-5.014l-2.318,1.237c1.32-8.754,4.088-4.07,4.503-12.106l0.209,1.815
		c0.007-1.549,0.062-3.084-0.039-4.625l-0.408,1.01c0.116-2.824-1.183-3.717-0.407-7.937l1.094,3.607
		c-0.853-2.441,1.444-3.039,0.759-6.557c0.742,1.922,1.726,2.525,1.698,3.75c0.918-5.27,0.762-10.085,0.279-14.703
		c-3.38-15.53-9.158-29.802-17.73-42.86c0.197,0.695,0.501,1.473,0.651,1.854c-2.018-1.901-2.668-3.608-3.116-5.423
		c-1.73-2.356-3.553-4.675-5.47-6.935c-4.97-4.077-9.232-6.918-15.867-11.087c0.157-0.983,0.765-1.006,1.643-0.58
		c-2.563-1.284-4.192-1.843-2.271,0.389c-4.327-2.162-5.891-3.9-9.189-5.416c2.727,0.601,5.468,1.29,8.184,2.139
		c-2.844-2.233-3.61-0.37-7.619-2.917c-7.063-2.278,2.421,2.715,0.89,3.69c-0.86-0.446-1.696-0.953-2.581-1.351
		c0.722,0.954,1.376,2.008,2.035,2.993c-5.446-3.058-7.974-5.494-10.264-7.38c1.434,0.612,2.799,1.405,4.183,2.094
		c2.356-1.546-7.234-2.749-9.014-4.265l0.653,0.003c-7.042-1.742,1.263,1.43-3.548,0.573c-2.676-1.15-5.426-2.211-8.253-3.143
		l1.305,1.608c-4.988,0.167-14.642-2.463-23.218-1.661c-4.862,0.223-10.953,2.66-16.654,4.812c1.174-0.09,3.513-0.389,2.959,0.251
		c-3.479,0.88-10.73,3.85-8.72,1.432c-1.471,0.958-2.841,2.098-4.234,3.126c-1.627,0.814-3.022,1.277-4.206,1.514l1.541-0.059
		c-1.762,1.049-3.412,2.279-5.091,3.429c-0.087-0.3-2.371,0.309,0.187-1.353c-6.863,2.146-12.136,9.723-19.815,16.831l1.674-2.807
		c-3.5,5.333-5.813,4.15-9.29,10.276l1.817-0.566c-2.669,4.117-8.46,11.465-8.536,9.839c2.095,1.907-2.101,2.148-1.251,5.943
		c-1.179,0.549-2.37,1.124-3.571,1.725c-0.622,3.297-1.309,6.382,0.647,4.852c-2.832,4.286-4.213,8.31-3.191,11.454
		c0.025,0.022,0.034,0.078,0.036,0.141l0.034,0.113l-0.041-0.012c-0.111,1.102-1.437,5.787,0.11,3.896
		c-1.653,11.136-3.523,5.605-3.871,16.58L8.831,104c-0.393,8.317,2.429,16.272,5.118,21.8l-1.302,1.178
		c1.586,3.925,1.186-1.137,3.528,4.896c0.026,0.945-0.176,1.88-0.621,1.875c2.288,5.889,4.989,14.036,10.595,21.997
		c-0.294,0.124-1.265-0.737-1.757-1.176c2.405,3.481,7.205,8.286,11.024,11.301c5.635,9.845,18.826,21.448,33.881,25.656
		c12.567,0.068,20.178-4.188,21.461-8.44C88.435,179.946,78.744,176.018,68.777,168.733z"/>
</g>
</svg>
